<svg id="157ea91c-3074-4d19-8377-9b993d192571" data-name="Layer 1" xmlns="http://www.w3.org/2000/svg" width="1280" height="1280" viewBox="0 0 1280 1280">
  <title>Artboard 1</title>
  <circle cx="634.23" cy="646.51" r="444.22" style="fill: none;stroke: #000;stroke-miterlimit: 10;stroke-width: 40px"/>
  <path d="M183.45,1097.34,699.59,581l6.42-6.42S693.62,403.2,781,437.7c26.82,10.58,13,56,12.78,54.52-.88-6.88,62.36-4.78,58.8,20.42,0,.23-.16.44-.1.67,1.55,6,17.68,83.85-146.52,61.26" style="fill: none;stroke: #000;stroke-miterlimit: 10;stroke-width: 40px"/>
  <path d="M530.25,478.14l-4,29c-5.72,44-25.08,67.76-59.4,76.12l37.84,93.28c1.32,3.08-.88,5.72-4,5.72H447.53a4.63,4.63,0,0,1-4.84-3.52l-33-92H371l-12.76,89.76c-.44,3.52-2.64,5.72-5.28,5.72h-48.4c-2.64,0-4-2.2-3.52-5.72L339.29,402.9a5.23,5.23,0,0,1,5.28-4.4H460.73C514,398.5,537.73,424,530.25,478.14ZM440,450.42H389.89L378,534.9h50.16c32.56,0,37.84-5.28,40.92-27.72l4-29C476.57,453.06,472.61,450.42,440,450.42Z"/>
  <path d="M909.35,687.7,871.07,961.38c-.44,3.52-2.64,5.72-5.28,5.72h-48.4c-2.64,0-4-2.2-3.52-5.72l15.4-110.88H729.83l-15.4,110.88c-.44,3.52-2.64,5.72-5.28,5.72h-48.4c-2.64,0-4-2.2-3.52-5.72L695.51,687.7a5.23,5.23,0,0,1,5.28-4.4h48.4c2.64,0,4,1.76,3.52,4.4l-15.4,110.88h99.44l15.4-110.88a5.23,5.23,0,0,1,5.28-4.4h48.4C908.47,683.3,909.79,685.06,909.35,687.7Z"/>
  <path d="M798.92,386.48a115.14,115.14,0,0,1,96.55,93.27" style="fill: none;stroke: #000;stroke-miterlimit: 10;stroke-width: 40px"/>
  <path d="M807.28,327.6c14.41,2,61.24,12.16,98.48,48.77,35.08,34.49,44.47,78.24,47.25,92.85" style="fill: none;stroke: #000;stroke-miterlimit: 10;stroke-width: 40px"/>
</svg>
