<svg xmlns="http://www.w3.org/2000/svg" width="6816.13" height="1280" viewBox="0 0 6816.13 1280">
  <title>Artboard 1 copy 2</title>
  <g id="d8dc6bde-c541-4cfd-9716-476ea38a38af" data-name="Layer 3">
    <g id="94aebc7f-b569-454f-a1aa-1f9bb08b864e" data-name="logo">
      <path d="M3501.16,344.3c14.41,2,61.24,12.16,98.48,48.77,35.08,34.49,44.47,78.24,47.25,92.85" style="fill: none;stroke: #000;stroke-miterlimit: 10;stroke-width: 40px"/>
      <circle cx="3328.11" cy="663.21" r="444.22" style="fill: none;stroke: #000;stroke-miterlimit: 10;stroke-width: 40px"/>
      <path d="M2877.32,1114l516.14-516.36,6.42-6.42s-12.39-171.37,75-136.86c26.82,10.58,13,56,12.78,54.52-.88-6.88,62.36-4.78,58.8,20.42,0,.23-.16.44-.1.67,1.55,6,17.68,83.85-146.52,61.26" style="fill: none;stroke: #000;stroke-miterlimit: 10;stroke-width: 40px"/>
      <path d="M3224.12,494.83l-4,29c-5.72,44-25.08,67.76-59.4,76.12l37.84,93.28c1.32,3.08-.88,5.72-4,5.72H3141.4a4.63,4.63,0,0,1-4.84-3.52l-33-92h-38.72l-12.76,89.76c-.44,3.52-2.64,5.72-5.28,5.72h-48.4c-2.64,0-4-2.2-3.52-5.72l38.28-273.68a5.23,5.23,0,0,1,5.28-4.4H3154.6C3207.84,415.19,3231.6,440.71,3224.12,494.83Zm-90.2-27.72h-50.16l-11.88,84.48H3122c32.56,0,37.84-5.28,40.92-27.72l4-29C3170.44,469.75,3166.48,467.11,3133.92,467.11Z"/>
      <path d="M3606.23,704.4l-38.28,273.68c-.44,3.52-2.64,5.72-5.28,5.72h-48.4c-2.64,0-4-2.2-3.52-5.72l15.4-110.88h-99.44l-15.4,110.88c-.44,3.52-2.64,5.72-5.28,5.72h-48.4c-2.64,0-4-2.2-3.52-5.72l38.28-273.68a5.23,5.23,0,0,1,5.28-4.4h48.4c2.64,0,4,1.76,3.52,4.4l-15.4,110.88h99.44L3549,704.4a5.23,5.23,0,0,1,5.28-4.4h48.4C3605.35,700,3606.67,701.76,3606.23,704.4Z"/>
      <path d="M3492.8,403.17a115.14,115.14,0,0,1,96.55,93.27" style="fill: none;stroke: #000;stroke-miterlimit: 10;stroke-width: 40px"/>
    </g>
    <g>
      <path d="M1322.93,531.39l-5.49,40.26c-7.93,61-34.77,93.94-82.35,105.53l52.46,129.32c1.83,4.27-1.22,7.93-5.49,7.93h-73.81c-3,0-5.49-1.22-6.71-4.88l-45.75-127.49h-53.68l-17.69,124.44c-.61,4.88-3.66,7.93-7.32,7.93H1010c-3.66,0-5.49-3-4.88-7.93l53.07-379.42a7.25,7.25,0,0,1,7.32-6.1h161C1300.36,421,1333.3,456.35,1322.93,531.39Zm-125-38.43h-69.54l-16.47,117.12h69.54c45.14,0,52.46-7.32,56.73-38.43l5.49-40.26C1248.51,496.61,1243,493,1197.88,493Z"/>
      <path d="M1346.72,806.49l53.07-379.42a7.25,7.25,0,0,1,7.32-6.1h67.1c3.66,0,5.49,2.44,4.88,6.1L1426,806.49c-.61,4.88-3.66,7.93-7.32,7.93h-67.1C1347.94,814.42,1346.11,811.38,1346.72,806.49Z"/>
      <path d="M1493.73,708.28l1.83-13.42c.61-4.27,3-6.1,6.71-6.1h67.1c3.66,0,6.1,1.83,5.49,6.1L1573,708.28c-4.27,30.5,5.49,39,58,39h3.66c52.46,0,64.66-8.54,68.32-38.43l1.83-12.81c3-22-1.22-31.72-24.4-37.21l-86.62-20.13c-64.66-15.25-82.35-42.09-74.42-98.82l1.83-12.81c11-74.42,52.46-111,156.16-111H1681c101.26,0,135.42,36.6,124.44,111l-1.83,13.42c-.61,3.66-3,6.1-6.71,6.1h-67.1c-3.66,0-6.1-2.44-5.49-6.1l1.83-13.42c4.27-32.94-5.49-39-55.51-39H1667c-50,0-62.22,8.54-66.49,39l-1.83,12.81c-3,19.52,1.22,25,26.84,31.11l86,20.13c63.44,14.64,81.13,45.14,72.59,104.92l-1.83,12.81c-10.37,73.81-51.85,110.41-158,110.41h-3.66C1514.47,819.31,1482.75,782.71,1493.73,708.28Z"/>
      <path d="M1822.52,806.49l53.07-379.42a7.25,7.25,0,0,1,7.32-6.1H1950c3.66,0,5.49,2.44,4.88,6.1l-53.07,379.42c-.61,4.88-3.66,7.93-7.32,7.93h-67.1C1823.74,814.42,1821.91,811.38,1822.52,806.49Z"/>
      <path d="M2342.24,427.07l-53.07,379.42c-.61,4.88-3.05,7.93-7.32,7.93h-73.2c-3,0-4.88-.61-6.71-4.27L2128.13,648.5c-14-30.5-27.45-61-39.65-104.31-3,43.31-7.32,73.2-11.59,103.09l-22.57,161c-.61,4.27-3.66,6.1-7.32,6.1h-67.1c-3.66,0-5.49-1.83-4.88-6.1l53.07-379.42c.61-4.88,3.05-7.93,7.32-7.93h73.2c3,0,5.49,1.22,6.71,4.27l73.2,162.26c14,30.5,28.06,61,39.65,104.92,3.66-43.92,7.93-74.42,12.2-104.92l22.57-160.43a7.25,7.25,0,0,1,7.32-6.1h67.1C2341,421,2342.85,423.41,2342.24,427.07Z"/>
      <path d="M2695.43,530.16l-.61,4.27a7.25,7.25,0,0,1-7.32,6.1h-67.1c-3.66,0-5.49-2.44-4.88-6.1l.61-4.27c4.88-36-6.1-42.09-63.44-42.09H2549c-57.34,0-70.15,9.15-74.42,40.26l-25,178.73c-4.88,33.55,6.1,40.26,63.44,40.26h3.66c57.34,0,69.54-9.15,74.42-42.09l5.49-37.21h-64.05c-3.66,0-6.1-2.44-5.49-6.1l8.54-57.34c.61-4.27,3-6.1,6.71-6.1h137.25c3.66,0,6.1,2.44,5.49,6.1l-14,100c-11,78.08-53.68,114.68-164.7,114.68h-3.66c-108.58,0-142.74-36.6-132.37-112.24l25-178.73c10.37-75.64,53.07-112.24,164.09-112.24h3.66C2671.64,416.09,2706.41,452.69,2695.43,530.16Z"/>
    </g>
    <g>
      <path d="M4300.1,427.08,4247,806.5c-.61,4.88-3.66,7.93-7.32,7.93h-67.1c-3.66,0-5.49-3-4.88-7.93l21.35-153.72H4051.22L4029.87,806.5c-.61,4.88-3.66,7.93-7.32,7.93h-67.1c-3.66,0-5.49-3-4.88-7.93l53.07-379.42A7.25,7.25,0,0,1,4011,421h67.1c3.66,0,5.49,2.44,4.88,6.1L4061.59,580.8h137.86l21.35-153.72a7.25,7.25,0,0,1,7.32-6.1h67.1C4298.88,421,4300.71,423.42,4300.1,427.08Z"/>
      <path d="M4628.28,427.08l-7.93,59.78A7.25,7.25,0,0,1,4613,493H4443.45l-12.2,86.62h151.28c3.66,0,6.1,2.44,5.49,6.1l-8.54,59.78c-.61,3.66-3,6.1-6.71,6.1H4421.49l-12.81,90.89h169.58c3.66,0,5.49,2.44,4.88,6.1l-7.93,59.78a7.24,7.24,0,0,1-7.32,6.1H4325.11c-3.66,0-5.49-2.44-4.88-6.1l53.07-381.25a7.25,7.25,0,0,1,7.32-6.1H4623.4C4627.06,421,4628.89,423.42,4628.28,427.08Z"/>
      <path d="M4932.66,814.43h-67.1c-3.05,0-6.1-1.22-6.71-4.88l-13.42-71.37H4715.5l-34.16,71.37c-1.22,3-4.88,4.88-7.93,4.88h-70.15c-4.27,0-5.49-2.44-3.66-6.71L4785,425.86A8.37,8.37,0,0,1,4793,421h61c3.05,0,6.1,1.22,6.71,4.88l78.08,381.86C4939.37,812,4936.93,814.43,4932.66,814.43Zm-101.26-147-9.15-48.19c-4.88-25.62-9.76-51.24-12.2-91.5-14,40.26-26.23,65.88-38.43,91.5l-22.57,48.19Z"/>
      <path d="M5298.66,531.39l-5.49,40.26c-7.93,61-34.77,93.94-82.35,105.53l52.46,129.32c1.83,4.27-1.22,7.93-5.49,7.93H5184c-3,0-5.49-1.22-6.71-4.88l-45.75-127.49h-53.68L5060.15,806.5c-.61,4.88-3.66,7.93-7.32,7.93h-67.1c-3.66,0-5.49-3-4.88-7.93l53.07-379.42a7.25,7.25,0,0,1,7.32-6.1h161C5276.09,421,5309,456.36,5298.66,531.39Zm-125-38.43h-69.54L5087.6,610.08h69.54c45.14,0,52.46-7.32,56.73-38.43l5.49-40.26C5224.24,496.62,5218.75,493,5173.61,493Z"/>
      <path d="M5609.77,427.08l-7.93,59.78a7.25,7.25,0,0,1-7.32,6.1h-92.11l-44.53,315.37a7.24,7.24,0,0,1-7.32,6.1h-67.1c-3.66,0-5.49-2.44-4.88-6.1L5423.11,493h-93.33c-3.66,0-5.49-2.44-4.88-6.1l7.93-59.78a7.25,7.25,0,0,1,7.32-6.1h264.74C5608.55,421,5610.38,423.42,5609.77,427.08Z"/>
      <path d="M5586.58,708.29l1.83-13.42c.61-4.27,3-6.1,6.71-6.1h67.1c3.66,0,6.1,1.83,5.49,6.1l-1.83,13.42c-4.27,30.5,5.49,39,58,39h3.66c52.46,0,64.66-8.54,68.32-38.43l1.83-12.81c3-22-1.22-31.72-24.4-37.21l-86.62-20.13c-64.66-15.25-82.35-42.09-74.42-98.82l1.83-12.81c11-74.42,52.46-111,156.16-111h3.66c101.26,0,135.42,36.6,124.44,111l-1.83,13.42c-.61,3.66-3,6.1-6.71,6.1h-67.1c-3.66,0-6.1-2.44-5.49-6.1l1.83-13.42c4.27-32.94-5.49-39-55.51-39h-3.66c-50,0-62.22,8.54-66.49,39l-1.83,12.81c-3,19.52,1.22,25,26.84,31.11l86,20.13c63.44,14.64,81.13,45.14,72.59,104.92l-1.83,12.81c-10.37,73.81-51.85,110.41-158,110.41h-3.66C5607.32,819.31,5575.6,782.71,5586.58,708.29Z"/>
    </g>
  </g>
</svg>
