<svg xmlns="http://www.w3.org/2000/svg" width="1600" height="1600" viewBox="0 0 1600 1600">
  <title>Artboard 1 copy 4</title>
  <g id="aa88c1bf-9ec8-4f55-b80e-8ac2ef5668c4" data-name="Layer 4">
    <g id="86b6348f-124a-4f36-9a43-da7d6fe34c1c" data-name="logo">
      <path d="M978.54,340.8c14.41,2,61.24,12.16,98.48,48.77,35.08,34.49,44.47,78.24,47.25,92.85" style="fill: none;stroke: #000;stroke-miterlimit: 10;stroke-width: 40px"/>
      <circle cx="805.49" cy="659.71" r="444.22" style="fill: none;stroke: #000;stroke-miterlimit: 10;stroke-width: 40px"/>
      <path d="M354.7,1110.54,870.85,594.18l6.42-6.42s-12.39-171.37,75-136.86c26.82,10.58,13,56,12.78,54.52-.88-6.88,62.36-4.78,58.8,20.42,0,.23-.16.44-.1.67,1.55,6,17.68,83.85-146.52,61.26" style="fill: none;stroke: #000;stroke-miterlimit: 10;stroke-width: 40px"/>
      <path d="M701.5,491.34l-4,29c-5.72,44-25.08,67.76-59.4,76.12L676,689.78c1.32,3.08-.88,5.72-4,5.72H618.78a4.63,4.63,0,0,1-4.84-3.52l-33-92H542.22l-12.76,89.76c-.44,3.52-2.64,5.72-5.28,5.72h-48.4c-2.64,0-4-2.2-3.52-5.72L510.54,416.1a5.23,5.23,0,0,1,5.28-4.4H632C685.22,411.7,709,437.22,701.5,491.34Zm-90.2-27.72H561.14L549.26,548.1h50.16c32.56,0,37.84-5.28,40.92-27.72l4-29C647.82,466.26,643.86,463.62,611.3,463.62Z"/>
      <path d="M1083.61,700.9l-38.28,273.68c-.44,3.52-2.64,5.72-5.28,5.72h-48.4c-2.64,0-4-2.2-3.52-5.72l15.4-110.88H904.09l-15.4,110.88c-.44,3.52-2.64,5.72-5.28,5.72H835c-2.64,0-4-2.2-3.52-5.72L869.77,700.9a5.23,5.23,0,0,1,5.28-4.4h48.4c2.64,0,4,1.76,3.52,4.4l-15.4,110.88H1011l15.4-110.88a5.23,5.23,0,0,1,5.28-4.4h48.4C1082.73,696.5,1084,698.26,1083.61,700.9Z"/>
      <path d="M970.18,399.68a115.14,115.14,0,0,1,96.55,93.27" style="fill: none;stroke: #000;stroke-miterlimit: 10;stroke-width: 40px"/>
    </g>
    <g>
      <path d="M351.71,1285l-1.62,11.88c-2.34,18-10.26,27.72-24.3,31.14l15.48,38.16a1.64,1.64,0,0,1-1.62,2.34H317.87a1.89,1.89,0,0,1-2-1.44l-13.5-37.62H286.55l-5.22,36.72a2.35,2.35,0,0,1-2.16,2.34h-19.8c-1.08,0-1.62-.9-1.44-2.34l15.66-112a2.14,2.14,0,0,1,2.16-1.8h47.52C345,1252.4,354.77,1262.84,351.71,1285Zm-36.9-11.34H294.29l-4.86,34.56h20.52c13.32,0,15.48-2.16,16.74-11.34l1.62-11.88C329.75,1274.72,328.13,1273.64,314.81,1273.64Z"/>
      <path d="M358.73,1366.15l15.66-112a2.14,2.14,0,0,1,2.16-1.8h19.8a1.38,1.38,0,0,1,1.44,1.8l-15.66,112a2.35,2.35,0,0,1-2.16,2.34h-19.8C359.09,1368.49,358.55,1367.59,358.73,1366.15Z"/>
      <path d="M402.11,1337.18l.54-4a1.84,1.84,0,0,1,2-1.8h19.8c1.08,0,1.8.54,1.62,1.8l-.54,4c-1.26,9,1.62,11.52,17.1,11.52h1.08c15.48,0,19.08-2.52,20.16-11.34l.54-3.78c.9-6.48-.36-9.36-7.2-11l-25.56-5.94c-19.08-4.5-24.3-12.42-22-29.16l.54-3.78c3.24-22,15.48-32.76,46.08-32.76h1.08c29.88,0,40,10.8,36.72,32.76l-.54,4a2,2,0,0,1-2,1.8h-19.8a1.49,1.49,0,0,1-1.62-1.8l.54-4c1.26-9.72-1.62-11.52-16.38-11.52h-1.08c-14.76,0-18.36,2.52-19.62,11.52l-.54,3.78c-.9,5.76.36,7.38,7.92,9.18l25.38,5.94c18.72,4.32,23.94,13.32,21.42,31l-.54,3.78c-3.06,21.78-15.3,32.58-46.62,32.58h-1.08C408.23,1369.93,398.87,1359.13,402.11,1337.18Z"/>
      <path d="M499.13,1366.15l15.66-112a2.14,2.14,0,0,1,2.16-1.8h19.8a1.38,1.38,0,0,1,1.44,1.8l-15.66,112a2.35,2.35,0,0,1-2.16,2.34h-19.8C499.49,1368.49,498.95,1367.59,499.13,1366.15Z"/>
      <path d="M652.48,1254.2l-15.66,112c-.18,1.44-.9,2.34-2.16,2.34h-21.6a1.86,1.86,0,0,1-2-1.26l-21.78-47.7a194.83,194.83,0,0,1-11.7-30.78c-.9,12.78-2.16,21.6-3.42,30.42l-6.66,47.52a2,2,0,0,1-2.16,1.8h-19.8c-1.08,0-1.62-.54-1.44-1.8l15.66-112c.18-1.44.9-2.34,2.16-2.34h21.6a2,2,0,0,1,2,1.26l21.6,47.88c4.14,9,8.28,18,11.7,31,1.08-13,2.34-22,3.6-31l6.66-47.34a2.14,2.14,0,0,1,2.16-1.8H651A1.38,1.38,0,0,1,652.48,1254.2Z"/>
      <path d="M756.7,1284.62l-.18,1.26a2.14,2.14,0,0,1-2.16,1.8h-19.8a1.38,1.38,0,0,1-1.44-1.8l.18-1.26c1.44-10.62-1.8-12.42-18.72-12.42h-1.08c-16.92,0-20.7,2.7-22,11.88l-7.38,52.74c-1.44,9.9,1.8,11.88,18.72,11.88H704c16.92,0,20.52-2.7,22-12.42l1.62-11h-18.9a1.49,1.49,0,0,1-1.62-1.8l2.52-16.92a1.84,1.84,0,0,1,2-1.8H752a1.49,1.49,0,0,1,1.62,1.8l-4.14,29.52c-3.24,23-15.84,33.84-48.6,33.84h-1.08c-32,0-42.12-10.8-39.06-33.12l7.38-52.74c3.06-22.32,15.66-33.12,48.42-33.12h1.08C749.68,1251,759.94,1261.76,756.7,1284.62Z"/>
      <path d="M902.32,1254.2l-15.66,112a2.35,2.35,0,0,1-2.16,2.34H864.7c-1.08,0-1.62-.9-1.44-2.34l6.3-45.36H828.89l-6.3,45.36a2.35,2.35,0,0,1-2.16,2.34h-19.8c-1.08,0-1.62-.9-1.44-2.34l15.66-112a2.14,2.14,0,0,1,2.16-1.8h19.8a1.38,1.38,0,0,1,1.44,1.8l-6.3,45.36h40.68l6.3-45.36a2.14,2.14,0,0,1,2.16-1.8h19.8A1.38,1.38,0,0,1,902.32,1254.2Z"/>
      <path d="M999.16,1254.2l-2.34,17.64a2.14,2.14,0,0,1-2.16,1.8h-50L941,1299.2h44.64a1.49,1.49,0,0,1,1.62,1.8l-2.52,17.64a2,2,0,0,1-2,1.8H938.14l-3.78,26.82h50a1.38,1.38,0,0,1,1.44,1.8l-2.34,17.64a2.14,2.14,0,0,1-2.16,1.8H909.7a1.38,1.38,0,0,1-1.44-1.8l15.66-112.5a2.14,2.14,0,0,1,2.16-1.8h71.64A1.38,1.38,0,0,1,999.16,1254.2Z"/>
      <path d="M1089,1368.49h-19.8a1.78,1.78,0,0,1-2-1.44l-4-21.06H1024.9l-10.08,21.06a2.59,2.59,0,0,1-2.34,1.44h-20.7c-1.26,0-1.62-.72-1.08-2l54.72-112.67a2.47,2.47,0,0,1,2.34-1.44h18a1.78,1.78,0,0,1,2,1.44l23,112.67A1.61,1.61,0,0,1,1089,1368.49Zm-29.88-43.38-2.7-14.22a190.08,190.08,0,0,1-3.6-27,240.83,240.83,0,0,1-11.34,27l-6.66,14.22Z"/>
      <path d="M1197,1285l-1.62,11.88c-2.34,18-10.26,27.72-24.3,31.14l15.48,38.16a1.64,1.64,0,0,1-1.62,2.34h-21.78a1.89,1.89,0,0,1-2-1.44l-13.5-37.62h-15.84l-5.22,36.72a2.35,2.35,0,0,1-2.16,2.34h-19.8c-1.08,0-1.62-.9-1.44-2.34l15.66-112a2.14,2.14,0,0,1,2.16-1.8h47.52C1190.32,1252.4,1200,1262.84,1197,1285Zm-36.9-11.34h-20.52l-4.86,34.56h20.52c13.32,0,15.48-2.16,16.74-11.34l1.62-11.88C1175,1274.72,1173.4,1273.64,1160.08,1273.64Z"/>
      <path d="M1288.78,1254.2l-2.34,17.64a2.14,2.14,0,0,1-2.16,1.8H1257.1L1244,1366.69a2.14,2.14,0,0,1-2.16,1.8H1222a1.38,1.38,0,0,1-1.44-1.8l13.14-93.06h-27.54a1.38,1.38,0,0,1-1.44-1.8l2.34-17.64a2.14,2.14,0,0,1,2.16-1.8h78.12A1.38,1.38,0,0,1,1288.78,1254.2Z"/>
      <path d="M1281.94,1337.18l.54-4a1.84,1.84,0,0,1,2-1.8h19.8c1.08,0,1.8.54,1.62,1.8l-.54,4c-1.26,9,1.62,11.52,17.1,11.52h1.08c15.48,0,19.08-2.52,20.16-11.34l.54-3.78c.9-6.48-.36-9.36-7.2-11l-25.56-5.94c-19.08-4.5-24.3-12.42-22-29.16l.54-3.78c3.24-22,15.48-32.76,46.08-32.76h1.08c29.88,0,40,10.8,36.72,32.76l-.54,4a2,2,0,0,1-2,1.8h-19.8a1.49,1.49,0,0,1-1.62-1.8l.54-4c1.26-9.72-1.62-11.52-16.38-11.52h-1.08c-14.76,0-18.36,2.52-19.62,11.52l-.54,3.78c-.9,5.76.36,7.38,7.92,9.18l25.38,5.94c18.72,4.32,23.94,13.32,21.42,31l-.54,3.78c-3.06,21.78-15.3,32.58-46.62,32.58h-1.08C1288.06,1369.93,1278.7,1359.13,1281.94,1337.18Z"/>
    </g>
  </g>
</svg>
