<?xml version="1.0" standalone="no"?>
<!DOCTYPE svg PUBLIC "-//W3C//DTD SVG 1.1//EN" "http://www.w3.org/Graphics/SVG/1.1/DTD/svg11.dtd" >
<svg xmlns="http://www.w3.org/2000/svg">
<metadata></metadata>
<defs>
<font id="roganthin" horiz-adv-x="528" >
<font-face units-per-em="1000" ascent="750" descent="-250" />
<missing-glyph horiz-adv-x="220" />
<glyph unicode="ff" horiz-adv-x="575" d="M569 708q6 0 6 -6v-7q0 -6 -6 -6h-42q-67 0 -86.5 -22t-19.5 -101v-76h144q6 0 6 -6v-7q0 -6 -6 -6h-144v-465q0 -6 -6 -6h-8q-6 0 -6 6v465h-262v-465q0 -6 -6 -6h-8q-6 0 -6 6v465h-98q-6 0 -6 5v2q0 5 16 6l88 6v72q0 88 25 117t97 29h46q6 0 6 -6v-7q0 -6 -6 -6h-42 q-67 0 -86.5 -22t-19.5 -101v-76h262v72q0 88 25 117t97 29h46z" />
<glyph unicode="fft" horiz-adv-x="866" d="M830 15q6 0 6 -6v-7q0 -6 -6 -6h-40q-73 0 -97.5 27t-24.5 112v336h-247v-465q0 -6 -6 -6h-8q-6 0 -6 6v465h-262v-465q0 -6 -6 -6h-8q-6 0 -6 6v465h-98q-6 0 -6 5v2q0 5 16 6l88 6v72q0 88 25 117t97 29h46q6 0 6 -6v-7q0 -6 -6 -6h-42q-67 0 -86.5 -22t-19.5 -101v-76 h262v72q0 88 25 117t97 29h46q6 0 6 -6v-7q0 -6 -6 -6h-42q-67 0 -86.5 -22t-19.5 -101v-76h247v149q0 6 6 6h8q6 0 6 -6v-149h140q6 0 6 -6v-7q0 -6 -6 -6h-140v-330q0 -80 19.5 -103t83.5 -23h39z" />
<glyph unicode="ft" horiz-adv-x="584" d="M548 15q6 0 6 -6v-7q0 -6 -6 -6h-40q-73 0 -97.5 27t-24.5 112v336h-247v-465q0 -6 -6 -6h-8q-6 0 -6 6v465h-98q-6 0 -6 5v2q0 5 16 6l88 6v72q0 88 25 117t97 29h46q6 0 6 -6v-7q0 -6 -6 -6h-42q-67 0 -86.5 -22t-19.5 -101v-76h247v149q0 6 6 6h8q6 0 6 -6v-149h140 q6 0 6 -6v-7q0 -6 -6 -6h-140v-330q0 -80 19.5 -103t83.5 -23h39z" />
<glyph unicode="&#xd;" horiz-adv-x="250" />
<glyph unicode=" "  horiz-adv-x="220" />
<glyph unicode="&#x09;" horiz-adv-x="220" />
<glyph unicode="&#xa0;" horiz-adv-x="220" />
<glyph unicode="!" horiz-adv-x="202" d="M99 168q-6 0 -6 6l-2 465q0 6 6 6h8q6 0 6 -6l-2 -465q0 -6 -6 -6h-4zM96 0q-6 0 -6 6v63q0 6 6 6h10q6 0 6 -6v-63q0 -6 -6 -6h-10z" />
<glyph unicode="&#x22;" horiz-adv-x="250" d="M59 455q-5 0 -5 6l-4 93v9v101q0 6 6 6h8q6 0 6 -6v-101v-9l-4 -93q0 -6 -5 -6h-2zM189 455q-5 0 -5 6l-4 93v9v101q0 6 6 6h8q6 0 6 -6v-101v-9l-4 -93q0 -6 -5 -6h-2z" />
<glyph unicode="#" horiz-adv-x="620" d="M544 416h-97l-28 -186h125q6 0 6 -6v-6q0 -6 -6 -6h-128l-32 -206q-1 -6 -7 -6h-7q-7 0 -6 6l32 206h-206l-32 -206q-1 -6 -7 -6h-7q-7 0 -6 6l32 206h-94q-6 0 -6 6v6q0 6 6 6h97l28 186h-125q-6 0 -6 6v6q0 6 6 6h128l32 205q1 6 7 6h7q7 0 6 -6l-32 -205h206l32 205 q1 6 7 6h7q7 0 6 -6l-32 -205h94q6 0 6 -6v-6q0 -6 -6 -6zM399 230l28 186h-206l-28 -186h206z" />
<glyph unicode="$" horiz-adv-x="538" d="M342 320q76 -17 101 -45t25 -95v-26q0 -89 -40.5 -125t-148.5 -37v-66q0 -6 -6 -6h-8q-6 0 -6 6v66q-108 1 -148.5 37t-40.5 125v26q0 6 6 6h8q6 0 6 -6v-26q0 -83 35 -112.5t134 -30.5v308l-68 16q-69 16 -92.5 43.5t-23.5 93.5v20q0 89 39.5 124.5t144.5 36.5v66 q0 6 6 6h8q6 0 6 -6v-66q105 -1 144.5 -37t39.5 -124v-27q0 -6 -6 -6h-8q-6 0 -6 6v27q0 82 -34.5 111.5t-129.5 30.5v-299zM203 352l56 -13v295q-95 -1 -129.5 -30.5t-34.5 -111.5v-20q0 -60 20 -82t88 -38zM448 154v26q0 60 -21.5 83t-96.5 40l-51 12v-304q99 1 134 30.5 t35 112.5z" />
<glyph unicode="%" horiz-adv-x="781" d="M165 297q-115 0 -115 112v132q0 112 115 112h30q115 0 115 -112v-132q0 -112 -115 -112h-30zM220 0q-8 0 -4 8l330 633q2 4 7 4h8q8 0 5 -6l-331 -635q-2 -4 -7 -4h-8zM165 315h30q50 0 73 22.5t23 71.5v132q0 49 -23 71.5t-73 22.5h-30q-50 0 -73 -22.5t-23 -71.5v-132 q0 -49 23 -71.5t73 -22.5zM586 -8q-115 0 -115 112v132q0 112 115 112h30q115 0 115 -112v-132q0 -112 -115 -112h-30zM586 10h30q50 0 73 22.5t23 71.5v132q0 49 -23 71.5t-73 22.5h-30q-50 0 -73 -22.5t-23 -71.5v-132q0 -49 23 -71.5t73 -22.5z" />
<glyph unicode="&#x26;" horiz-adv-x="640" d="M593 7q9 -7 -3 -7h-8q-5 0 -9 3l-83 79q-14 -49 -58.5 -69.5t-137.5 -20.5h-6q-118 0 -160.5 33.5t-42.5 120.5v48q0 75 30.5 104t114.5 31l-20 19q-49 46 -64 75.5t-15 76.5v4q0 83 36.5 116t130.5 33h6q94 0 131 -33t37 -116v-39q0 -6 -6 -6h-8q-6 0 -6 6v39 q0 76 -30.5 103t-117.5 27h-6q-87 0 -117 -27t-30 -103v-4q0 -43 12.5 -68.5t51.5 -63.5l261 -248q0 4 0.5 12.5t0.5 13.5v154q0 6 6 6h8q6 0 6 -6v-154q0 -24 -3 -45zM294 11q91 0 130.5 19.5t48.5 67.5l-227 216q-84 -1 -112.5 -25.5t-28.5 -94.5v-48q0 -78 37 -106.5 t146 -28.5h6z" />
<glyph unicode="'" horiz-adv-x="120" d="M59 455q-5 0 -5 6l-4 93v9v101q0 6 6 6h8q6 0 6 -6v-101v-9l-4 -93q0 -6 -5 -6h-2z" />
<glyph unicode="(" horiz-adv-x="223" d="M192 -128q-5 0 -8 4q-124 176 -124 414t124 414q3 4 8 4h6q9 0 4 -7q-122 -176 -122 -411t122 -411q5 -7 -4 -7h-6z" />
<glyph unicode=")" horiz-adv-x="223" d="M31 -128h-6q-9 0 -4 7q122 176 122 411t-122 411q-5 7 4 7h6q5 0 8 -4q124 -176 124 -414t-124 -414q-3 -4 -8 -4z" />
<glyph unicode="*" horiz-adv-x="451" d="M401 519q2 -6 -4 -8l-160 -48l101 -133q3 -5 -1 -8l-8 -6q-5 -3 -8 1l-95 137l-96 -137q-3 -4 -8 -1l-8 6q-4 3 -1 8l101 133l-160 48q-6 1 -4 8l3 9q3 5 8 4l158 -55l-4 167q0 6 6 6h10q6 0 6 -6l-4 -167l158 55q7 2 8 -4z" />
<glyph unicode="+" horiz-adv-x="500" d="M434 260q6 0 6 -6v-7q0 -6 -6 -6h-174v-185q0 -6 -6 -6h-8q-6 0 -6 6v185h-174q-6 0 -6 6v7q0 6 6 6h174v184q0 6 6 6h8q6 0 6 -6v-184h174z" />
<glyph unicode="," horiz-adv-x="120" d="M55 -120q-5 0 -5 6v183q0 6 6 6h8q6 0 6 -6v-64q0 -6 -1 -18l-7 -101q0 -6 -6 -6h-1z" />
<glyph unicode="-" horiz-adv-x="340" d="M36 275q-6 0 -6 6v7q0 6 6 6h268q6 0 6 -6v-7q0 -6 -6 -6h-268z" />
<glyph unicode="." horiz-adv-x="122" d="M56 0q-6 0 -6 6v63q0 6 6 6h10q6 0 6 -6v-63q0 -6 -6 -6h-10z" />
<glyph unicode="/" horiz-adv-x="347" d="M27 -72q-7 0 -5 5l284 762q2 5 7 5h7q7 0 5 -5l-284 -762q-2 -5 -7 -5h-7z" />
<glyph unicode="0" horiz-adv-x="580" d="M90 156v333q0 93 42 128.5t155 35.5h6q113 0 155 -35.5t42 -128.5v-333q0 -93 -42 -128.5t-155 -35.5h-6q-113 0 -155 35.5t-42 128.5zM110 156q0 -84 37 -114.5t140 -30.5h6q103 0 140 30.5t37 114.5v333q0 84 -37 114.5t-140 30.5h-6q-103 0 -140 -30.5t-37 -114.5 v-333z" />
<glyph unicode="1" horiz-adv-x="435" d="M379 19q6 0 6 -6v-7q0 -6 -6 -6h-318q-6 0 -6 6v7q0 6 6 6h161v605l-136 -70q-8 -4 -8 4v7q0 5 6 8l134 70q4 2 8 2h10q6 0 6 -6v-620h137z" />
<glyph unicode="2" horiz-adv-x="542" d="M211 278q-69 -16 -87.5 -37.5t-18.5 -82.5v-139h351q6 0 6 -6v-7q0 -6 -6 -6h-365q-6 0 -6 6v156q0 65 24.5 91.5t97.5 43.5l124 28q69 15 90 39t21 82v54q0 77 -34.5 105.5t-129.5 28.5h-6q-95 0 -129 -28.5t-34 -106.5v-44q0 -6 -6 -6h-8q-6 0 -6 6v44q0 86 39 120 t144 34h6q105 0 144.5 -34t39.5 -119v-54q0 -67 -25 -95t-102 -45z" />
<glyph unicode="3" horiz-adv-x="547" d="M354 328q63 -6 85.5 -32.5t22.5 -92.5v-57q0 -86 -40.5 -120t-147.5 -34h-6q-107 0 -147.5 34t-40.5 120v34q0 6 6 6h8q6 0 6 -6v-34q0 -77 34.5 -106t133.5 -29h6q99 0 133.5 29t34.5 106v57q0 70 -31.5 92.5t-136.5 22.5h-61q-6 0 -6 6v7q0 6 6 6h55q105 0 136.5 22.5 t31.5 92.5v47q0 80 -32.5 107.5t-129.5 27.5h-6q-97 0 -130 -27.5t-33 -107.5v-44q0 -6 -6 -6h-8q-6 0 -6 6v44q0 87 39 120.5t144 33.5h6q104 0 143 -33.5t39 -120.5v-47q0 -63 -21.5 -90t-80.5 -34z" />
<glyph unicode="4" horiz-adv-x="520" d="M469 192q6 0 6 -6v-7q0 -6 -6 -6h-74v-167q0 -6 -6 -6h-8q-6 0 -6 6v167h-324q-6 0 -6 6v9q0 4 3 8l324 445q3 4 8 4h9q6 0 6 -6v-447h74zM68 192h307v422z" />
<glyph unicode="5" horiz-adv-x="539" d="M275 363q107 0 145.5 -34.5t38.5 -129.5v-43q0 -93 -39 -128.5t-145 -35.5h-6q-106 0 -145 35.5t-39 128.5v24q0 6 6 6h8q6 0 6 -6v-24q0 -85 34 -115t130 -30h6q96 0 130 30t34 115v43q0 87 -33 116t-131 29h-161q-4 0 -7 2l-5 4q-3 2 -3 8v281q0 6 6 6h332q6 0 6 -6v-7 q0 -6 -6 -6h-318v-263h156z" />
<glyph unicode="6" horiz-adv-x="569" d="M290 365q111 0 152.5 -35.5t41.5 -128.5v-45q0 -93 -41.5 -128.5t-152.5 -35.5h-6q-111 0 -152.5 35.5t-41.5 128.5v333q0 93 41 128.5t149 35.5h6q108 0 149 -35.5t41 -128.5v-34q0 -6 -6 -6h-8q-6 0 -6 6v34q0 84 -36 114.5t-134 30.5h-6q-98 0 -134 -30.5t-36 -114.5 v-201q14 42 54 59.5t120 17.5h6zM464 156v45q0 84 -36.5 114.5t-137.5 30.5h-6q-101 0 -137.5 -30.5t-36.5 -114.5v-45q0 -84 36.5 -114.5t137.5 -30.5h6q101 0 137.5 30.5t36.5 114.5z" />
<glyph unicode="7" horiz-adv-x="430" d="M399 645q6 0 6 -6v-9q0 -5 -2 -9l-264 -614q-3 -7 -8 -7h-8q-8 0 -5 7l267 619h-334q-6 0 -6 6v7q0 6 6 6h348z" />
<glyph unicode="8" horiz-adv-x="574" d="M372 329q66 -10 91.5 -43t25.5 -102v-38q0 -86 -42.5 -120t-156.5 -34h-6q-114 0 -156.5 34t-42.5 120v38q0 69 25.5 102t91.5 43q-59 10 -83 43t-24 98v32q0 84 41 117.5t148 33.5h6q107 0 148 -33.5t41 -117.5v-32q0 -65 -24 -98t-83 -43zM115 470q0 -75 36 -103.5 t133 -28.5h6q97 0 133 28.5t36 103.5v32q0 75 -36 103.5t-133 28.5h-6q-97 0 -133 -28.5t-36 -103.5v-32zM469 146v38q0 78 -37.5 106.5t-141.5 28.5h-6q-104 0 -141.5 -28.5t-37.5 -106.5v-38q0 -78 37.5 -106.5t141.5 -28.5h6q104 0 141.5 28.5t37.5 106.5z" />
<glyph unicode="9" horiz-adv-x="569" d="M285 653q111 0 152.5 -35.5t41.5 -128.5v-333q0 -93 -41 -128.5t-149 -35.5h-6q-108 0 -149 35.5t-41 128.5v24q0 6 6 6h8q6 0 6 -6v-24q0 -84 36 -114.5t134 -30.5h6q98 0 134 30.5t36 114.5v196q-14 -42 -54 -59.5t-120 -17.5h-6q-111 0 -152.5 35.5t-41.5 128.5v50 q0 93 41.5 128.5t152.5 35.5h6zM285 294q101 0 137.5 30.5t36.5 114.5v50q0 84 -36.5 114.5t-137.5 30.5h-6q-101 0 -137.5 -30.5t-36.5 -114.5v-50q0 -84 36.5 -114.5t137.5 -30.5h6z" />
<glyph unicode=":" horiz-adv-x="142" d="M66 415q-6 0 -6 6v63q0 6 6 6h10q6 0 6 -6v-63q0 -6 -6 -6h-10zM66 0q-6 0 -6 6v63q0 6 6 6h10q6 0 6 -6v-63q0 -6 -6 -6h-10z" />
<glyph unicode=";" horiz-adv-x="142" d="M66 415q-6 0 -6 6v63q0 6 6 6h10q6 0 6 -6v-63q0 -6 -6 -6h-10zM65 -120q-5 0 -5 6v183q0 6 6 6h8q6 0 6 -6v-64q0 -6 -1 -18l-7 -101q0 -6 -6 -6h-1z" />
<glyph unicode="&#x3c;" horiz-adv-x="500" d="M430 400q0 -4 -5 -7l-336 -144l336 -145q5 -2 5 -7v-7q0 -8 -7 -5l-348 150q-5 2 -5 7v13q0 5 5 7l348 150q7 4 7 -5v-7z" />
<glyph unicode="=" horiz-adv-x="500" d="M66 336q-6 0 -6 6v7q0 6 6 6h368q6 0 6 -6v-7q0 -6 -6 -6h-368zM66 145q-6 0 -6 6v7q0 6 6 6h368q6 0 6 -6v-7q0 -6 -6 -6h-368z" />
<glyph unicode="&#x3e;" horiz-adv-x="500" d="M425 262q5 -2 5 -7v-13q0 -5 -5 -7l-348 -150q-7 -3 -7 5v7q0 5 5 7l336 145l-336 144q-5 3 -5 7v7q0 9 7 5z" />
<glyph unicode="?" horiz-adv-x="423" d="M56 449q-6 0 -6 6v34q0 95 34.5 129.5t128.5 34.5h6q94 0 129 -33t35 -120v-14q0 -64 -18.5 -91.5t-72.5 -44.5l-43 -14q-49 -16 -63 -38.5t-14 -85.5v-38q0 -6 -6 -6h-8q-6 0 -6 6v38q0 69 18 97t73 45l44 14q47 15 61.5 37.5t14.5 80.5v14q0 80 -28.5 107t-115.5 27h-6 q-87 0 -115 -28.5t-28 -116.5v-34q0 -6 -6 -6h-8zM157 0q-6 0 -6 6v63q0 6 6 6h10q6 0 6 -6v-63q0 -6 -6 -6h-10z" />
<glyph unicode="@" horiz-adv-x="772" d="M389 602q102 0 158.5 -7.5t90.5 -33t44 -64t10 -109.5v-249q0 -52 -20.5 -73.5t-67.5 -21.5h-9q-68 0 -82 49q-73 -49 -157 -49q-119 0 -119 110v11q0 50 26.5 72t89.5 22h154v89q0 52 -23.5 71t-90.5 19h-6q-67 0 -90.5 -19t-23.5 -71v-18q0 -6 -6 -6h-8q-6 0 -6 6v18 q0 61 29 85t105 24h6q76 0 105 -24t29 -85v-205q0 -48 14.5 -64.5t53.5 -16.5h9q39 0 53.5 16.5t14.5 64.5v245q0 45 -3.5 73t-15 52t-29 36t-51.5 20.5t-76 11t-108 2.5h-6q-66 0 -108 -2.5t-76 -11t-51.5 -20.5t-29 -36t-15 -52t-3.5 -73v-276q0 -45 3.5 -73t15 -52 t29 -36t51.5 -20.5t76 -11t108 -2.5h140q6 0 6 -6v-7q0 -6 -6 -6h-140q-102 0 -158.5 7.5t-90.5 33t-44 64t-10 109.5v276q0 71 10 109.5t44 64t90.5 33t158.5 7.5h6zM357 63q85 0 152 47q-2 18 -2 29v102h-156q-53 0 -73.5 -17t-20.5 -59v-11q0 -50 23.5 -70.5t76.5 -20.5z " />
<glyph unicode="A" horiz-adv-x="510" d="M488 6q2 -6 -5 -6h-9q-5 0 -7 6l-64 183h-296l-65 -186q-1 -3 -6 -3h-9q-7 0 -5 6l221 633q2 6 7 6h10q5 0 7 -6zM114 208h282l-76 219q-36 102 -65 195q-29 -93 -65 -195z" />
<glyph unicode="B" horiz-adv-x="554" d="M381 331q59 -8 85 -38.5t26 -94.5v-58q0 -76 -36.5 -108t-120.5 -32h-234q-6 0 -6 6v633q0 6 6 6h210q84 0 120.5 -32t36.5 -108v-46q0 -57 -20.5 -87t-66.5 -41zM303 626h-188v-288h188q80 0 112.5 25.5t32.5 95.5v46q0 70 -32.5 95.5t-112.5 25.5zM472 140v58 q0 70 -32.5 95.5t-112.5 25.5h-212v-300h212q80 0 112.5 25.5t32.5 95.5z" />
<glyph unicode="C" horiz-adv-x="560" d="M287 -8q-117 0 -159.5 35.5t-42.5 128.5v333q0 93 42.5 128.5t159.5 35.5h6q117 0 159.5 -35.5t42.5 -128.5v-34q0 -6 -6 -6h-8q-6 0 -6 6v34q0 84 -37.5 114.5t-144.5 30.5h-6q-107 0 -144.5 -30.5t-37.5 -114.5v-333q0 -84 37.5 -114.5t144.5 -30.5h6q107 0 144.5 30.5 t37.5 114.5v34q0 6 6 6h8q6 0 6 -6v-34q0 -93 -42.5 -128.5t-159.5 -35.5h-6z" />
<glyph unicode="D" horiz-adv-x="578" d="M316 645q96 0 136.5 -33t40.5 -111v-357q0 -78 -40.5 -111t-136.5 -33h-215q-6 0 -6 6v633q0 6 6 6h215zM473 144v357q0 71 -36.5 98t-128.5 27h-193v-607h193q92 0 128.5 27t36.5 98z" />
<glyph unicode="E" horiz-adv-x="486" d="M428 626h-313v-289h283q6 0 6 -6v-7q0 -6 -6 -6h-283v-299h313q6 0 6 -6v-7q0 -6 -6 -6h-327q-6 0 -6 6v633q0 6 6 6h327q6 0 6 -6v-7q0 -6 -6 -6z" />
<glyph unicode="F" horiz-adv-x="460" d="M420 645q6 0 6 -6v-7q0 -6 -6 -6h-305v-299h285q6 0 6 -6v-7q0 -6 -6 -6h-285v-302q0 -6 -6 -6h-8q-6 0 -6 6v633q0 6 6 6h319z" />
<glyph unicode="G" horiz-adv-x="581" d="M487 469q-6 0 -6 6v14q0 85 -38 115t-147 30h-6q-109 0 -147 -30t-38 -115v-333q0 -85 38 -115t147 -30h6q109 0 147 30t38 115v136h-158q-6 0 -6 6v7q0 6 6 6h172q6 0 6 -6v-149q0 -93 -43 -128.5t-162 -35.5h-6q-119 0 -162 35.5t-43 128.5v333q0 93 43 128.5t162 35.5 h6q119 0 162 -35.5t43 -128.5v-14q0 -6 -6 -6h-8z" />
<glyph unicode="H" horiz-adv-x="598" d="M497 645q6 0 6 -6v-633q0 -6 -6 -6h-8q-6 0 -6 6v310h-368v-310q0 -6 -6 -6h-8q-6 0 -6 6v633q0 6 6 6h8q6 0 6 -6v-304h368v304q0 6 6 6h8z" />
<glyph unicode="I" horiz-adv-x="210" d="M101 0q-6 0 -6 6v633q0 6 6 6h8q6 0 6 -6v-633q0 -6 -6 -6h-8z" />
<glyph unicode="J" horiz-adv-x="489" d="M214 -8q-101 0 -140 36t-39 128v24q0 6 6 6h8q6 0 6 -6v-24q0 -83 34 -114t125 -31h6q91 0 125 31t34 114v483q0 6 6 6h8q6 0 6 -6v-483q0 -92 -39 -128t-140 -36h-6z" />
<glyph unicode="K" horiz-adv-x="533" d="M504 7q4 -7 -4 -7h-10q-5 0 -8 5l-210 359l-157 -197v-161q0 -6 -6 -6h-8q-6 0 -6 6v633q0 6 6 6h8q6 0 6 -6v-441l354 442q4 5 9 5h12q8 0 4 -5l-208 -260z" />
<glyph unicode="L" horiz-adv-x="442" d="M406 19q6 0 6 -6v-7q0 -6 -6 -6h-305q-6 0 -6 6v633q0 6 6 6h8q6 0 6 -6v-620h291z" />
<glyph unicode="M" horiz-adv-x="728" d="M627 645q6 0 6 -6v-633q0 -6 -6 -6h-8q-6 0 -6 6v405q0 133 3 204q-46 -94 -103 -204l-142 -276q-2 -4 -6 -4h-2q-4 0 -6 4l-142 276q-57 110 -103 204q3 -71 3 -204v-405q0 -6 -6 -6h-8q-6 0 -6 6v633q0 6 6 6h11q5 0 7 -4l159 -309q44 -84 86 -176q42 92 86 176 l159 309q2 4 7 4h11z" />
<glyph unicode="N" horiz-adv-x="626" d="M525 645q6 0 6 -6v-633q0 -6 -6 -6h-10q-5 0 -9 6l-270 418q-75 115 -123 196q2 -69 2 -196v-418q0 -6 -6 -6h-8q-6 0 -6 6v633q0 6 6 6h10q5 0 9 -6l270 -418q75 -115 123 -196q-2 69 -2 196v418q0 6 6 6h8z" />
<glyph unicode="O" horiz-adv-x="590" d="M85 156v333q0 93 43.5 128.5t163.5 35.5h6q120 0 163.5 -35.5t43.5 -128.5v-333q0 -93 -43.5 -128.5t-163.5 -35.5h-6q-120 0 -163.5 35.5t-43.5 128.5zM105 156q0 -85 38.5 -115t148.5 -30h6q110 0 148.5 30t38.5 115v333q0 85 -38.5 115t-148.5 30h-6 q-110 0 -148.5 -30t-38.5 -115v-333z" />
<glyph unicode="P" horiz-adv-x="512" d="M295 645q96 0 136.5 -33t40.5 -111v-104q0 -78 -40.5 -111t-136.5 -33h-180v-247q0 -6 -6 -6h-8q-6 0 -6 6v633q0 6 6 6h194zM452 397v104q0 71 -36.5 98t-128.5 27h-172v-354h172q92 0 128.5 27t36.5 98z" />
<glyph unicode="Q" horiz-adv-x="590" d="M298 653q120 0 163.5 -35.5t43.5 -128.5v-333q0 -91 -41.5 -127t-154.5 -37l102 -138q3 -4 -1 -7l-8 -6q-4 -3 -7 1l-111 150q-115 1 -157 36.5t-42 127.5v333q0 93 43.5 128.5t163.5 35.5h6zM485 156v333q0 85 -38.5 115t-148.5 30h-6q-110 0 -148.5 -30t-38.5 -115 v-333q0 -85 38.5 -115t148.5 -30h6q110 0 148.5 30t38.5 115z" />
<glyph unicode="R" horiz-adv-x="544" d="M480 8q4 -8 -4 -8h-9q-5 0 -7 4l-134 264q-10 -1 -31 -1h-180v-261q0 -6 -6 -6h-8q-6 0 -6 6v633q0 6 6 6h194q96 0 136.5 -33t40.5 -111v-90q0 -67 -29 -100.5t-96 -40.5zM287 286q92 0 128.5 27t36.5 98v90q0 71 -36.5 98t-128.5 27h-172v-340h172z" />
<glyph unicode="S" horiz-adv-x="506" d="M54 154v26q0 6 6 6h8q6 0 6 -6v-26q0 -84 36.5 -113.5t139.5 -29.5h6q103 0 139.5 29.5t36.5 113.5v26q0 60 -21.5 83t-96.5 40l-139 32q-69 16 -92.5 43.5t-23.5 93.5v20q0 90 41 125.5t150 35.5h6q109 0 150 -35.5t41 -125.5v-27q0 -6 -6 -6h-8q-6 0 -6 6v27 q0 84 -35.5 113t-135.5 29h-6q-100 0 -135.5 -29t-35.5 -113v-20q0 -60 20 -82t88 -38l139 -32q76 -17 101 -45t25 -95v-26q0 -91 -41.5 -126.5t-154.5 -35.5h-6q-113 0 -154.5 36t-41.5 126z" />
<glyph unicode="T" horiz-adv-x="452" d="M425 645q6 0 6 -6v-7q0 -6 -6 -6h-189v-620q0 -6 -6 -6h-8q-6 0 -6 6v620h-189q-6 0 -6 6v7q0 6 6 6h398z" />
<glyph unicode="U" horiz-adv-x="588" d="M90 156v483q0 6 6 6h8q6 0 6 -6v-483q0 -84 37.5 -114.5t143.5 -30.5h6q106 0 143.5 30.5t37.5 114.5v483q0 6 6 6h8q6 0 6 -6v-483q0 -93 -42.5 -128.5t-158.5 -35.5h-6q-116 0 -158.5 35.5t-42.5 128.5z" />
<glyph unicode="V" horiz-adv-x="513" d="M486 645q7 0 5 -6l-222 -633q-2 -6 -7 -6h-11q-5 0 -7 6l-222 633q-2 6 4 6h10q5 0 7 -6l148 -422q40 -114 66 -196q24 79 65 196l148 422q2 6 7 6h9z" />
<glyph unicode="W" horiz-adv-x="800" d="M768 645q6 0 5 -7l-179 -631q-2 -7 -7 -7h-11q-5 0 -7 7l-120 424q-41 149 -49 182q-8 -33 -49 -182l-120 -424q-2 -7 -7 -7h-11q-5 0 -7 7l-179 631q-1 7 5 7h10q5 0 7 -7l115 -405q36 -128 55 -201q18 73 54 201l115 405q2 7 7 7h10q5 0 7 -7l115 -405q36 -128 55 -201 q18 73 54 201l115 405q2 7 7 7h10z" />
<glyph unicode="X" horiz-adv-x="464" d="M438 5q3 -5 -5 -5h-10q-5 0 -8 5l-183 299l-183 -299q-3 -5 -8 -5h-10q-8 0 -5 5l196 319l-194 316q-3 5 5 5h9q6 0 9 -5l181 -296l181 296q3 5 8 5h10q8 0 5 -5l-194 -316z" />
<glyph unicode="Y" horiz-adv-x="461" d="M444 645q4 0 5 -0.5t0 -3.5l-209 -396v-239q0 -6 -6 -6h-8q-6 0 -6 6v241l-208 394q-1 3 0 3.5t5 0.5h9q5 0 7 -4l119 -225q47 -88 79 -155q30 64 78 155l119 225q2 4 7 4h9z" />
<glyph unicode="Z" horiz-adv-x="437" d="M401 19q6 0 6 -6v-7q0 -6 -6 -6h-365q-6 0 -6 6v9q0 4 3 9l288 504q34 61 59 98h-336q-6 0 -6 6v7q0 6 6 6h349q6 0 6 -6v-9q0 -4 -3 -9l-288 -504q-41 -72 -58 -98h351z" />
<glyph unicode="[" horiz-adv-x="261" d="M230 689h-115v-798h115q6 0 6 -6v-7q0 -6 -6 -6h-129q-6 0 -6 6v824q0 6 6 6h129q6 0 6 -6v-7q0 -6 -6 -6z" />
<glyph unicode="\" horiz-adv-x="347" d="M320 -72h-7q-5 0 -7 5l-284 762q-2 5 5 5h7q5 0 7 -5l284 -762q2 -5 -5 -5z" />
<glyph unicode="]" horiz-adv-x="261" d="M160 708q6 0 6 -6v-824q0 -6 -6 -6h-129q-6 0 -6 6v7q0 6 6 6h115v798h-115q-6 0 -6 6v7q0 6 6 6h129z" />
<glyph unicode="^" horiz-adv-x="412" d="M367 437q5 -7 -4 -7h-9q-5 0 -8 4l-140 191l-140 -191q-3 -4 -8 -4h-9q-9 0 -4 7l152 204q3 4 8 4h2q5 0 8 -4z" />
<glyph unicode="_" horiz-adv-x="340" d="M6 -70q-6 0 -6 6v7q0 6 6 6h328q6 0 6 -6v-7q0 -6 -6 -6h-328z" />
<glyph unicode="`" d="M288 562q-4 0 -7 3l-99 94q-2 2 -0.5 4t5.5 2h13q4 0 7 -3l94 -92q8 -8 -3 -8h-10z" />
<glyph unicode="a" horiz-adv-x="516" d="M259 498q97 0 134.5 -33.5t37.5 -118.5v-340q0 -6 -4 -6h-4q-4 0 -5 5l-7 34q-91 -47 -191 -47q-81 0 -118 31.5t-37 101.5v12q0 68 33.5 95.5t116.5 27.5h196v86q0 76 -32 104.5t-120 28.5h-6q-88 0 -120 -28.5t-32 -104.5v-4q0 -6 -6 -6h-8q-6 0 -6 6v4 q0 85 37.5 118.5t134.5 33.5h6zM85 125q0 -62 32 -88t105 -26q96 0 189 45v185h-198q-73 0 -100.5 -23t-27.5 -81v-12z" />
<glyph unicode="b" horiz-adv-x="530" d="M299 498q81 0 116 -38t35 -122v-186q0 -84 -35 -122t-116 -38q-96 0 -189 48l-7 -35q-1 -5 -5 -5h-3q-5 0 -5 6v688q0 6 6 6h8q6 0 6 -6v-244q93 48 189 48zM430 333q0 81 -30 113.5t-103 32.5q-95 0 -187 -46v-376q92 -46 187 -46q73 0 103 32.5t30 113.5v176z" />
<glyph unicode="c" horiz-adv-x="507" d="M80 146v198q0 87 38 120.5t138 33.5h6q100 0 138 -33.5t38 -120.5v-9q0 -6 -6 -6h-8q-6 0 -6 6v9q0 78 -32.5 106.5t-123.5 28.5h-6q-91 0 -123.5 -28.5t-32.5 -106.5v-198q0 -78 32.5 -106.5t123.5 -28.5h6q91 0 123.5 28.5t32.5 106.5v9q0 6 6 6h8q6 0 6 -6v-9 q0 -87 -38 -120.5t-138 -33.5h-6q-100 0 -138 33.5t-38 120.5z" />
<glyph unicode="d" horiz-adv-x="530" d="M434 700q6 0 6 -6v-688q0 -6 -5 -6h-3q-4 0 -5 5l-7 35q-93 -48 -189 -48q-81 0 -116 38t-35 122v186q0 84 35 122t116 38q96 0 189 -48v244q0 6 6 6h8zM100 157q0 -81 30 -113.5t103 -32.5q95 0 187 46v376q-92 46 -187 46q-73 0 -103 -32.5t-30 -113.5v-176z" />
<glyph unicode="e" horiz-adv-x="521" d="M440 253h-340v-107q0 -78 33 -106.5t127 -28.5h6q94 0 127 28.5t33 106.5v5q0 6 6 6h8q6 0 6 -6v-5q0 -87 -38.5 -120.5t-141.5 -33.5h-6q-103 0 -141.5 33.5t-38.5 120.5v198q0 87 38.5 120.5t141.5 33.5h6q103 0 141.5 -33.5t38.5 -120.5v-85q0 -6 -6 -6zM260 479 q-94 0 -127 -28.5t-33 -106.5v-72h326v72q0 78 -33 106.5t-127 28.5h-6z" />
<glyph unicode="f" horiz-adv-x="293" d="M287 708q6 0 6 -6v-7q0 -6 -6 -6h-42q-67 0 -86.5 -22t-19.5 -101v-76h144q6 0 6 -6v-7q0 -6 -6 -6h-144v-465q0 -6 -6 -6h-8q-6 0 -6 6v465h-98q-6 0 -6 5v2q0 5 16 6l88 6v72q0 88 25 117t97 29h46z" />
<glyph unicode="g" horiz-adv-x="506" d="M470 490q0 -5 -4 -5l-109 -4q46 -9 63 -38t17 -94v-34q0 -90 -35.5 -119.5t-143.5 -29.5h-6q-63 0 -96 8q-63 -12 -63 -73v-13q0 -32 18.5 -45.5t67.5 -13.5h164q74 0 100.5 -23t26.5 -86v-19q0 -66 -38.5 -87.5t-164.5 -21.5h-8q-124 0 -162.5 21.5t-38.5 87.5v12 q0 47 12.5 72t40.5 36q-38 16 -38 67v13q0 64 59 81q-33 14 -46 44.5t-13 88.5v34q0 90 35.5 119.5t143.5 29.5h212q6 0 6 -5v-3zM417 349q0 81 -29.5 105.5t-129.5 24.5h-6q-100 0 -129.5 -24.5t-29.5 -105.5v-34q0 -81 29.5 -105.5t129.5 -24.5h6q100 0 129.5 24.5 t29.5 105.5v34zM333 10h-156q-24 0 -42 3q-32 -8 -44.5 -29t-12.5 -69v-14q0 -39 12.5 -56.5t50 -25.5t118.5 -8h8q82 0 119.5 8t50.5 25.5t13 56.5v19q0 56 -21.5 73t-95.5 17z" />
<glyph unicode="h" horiz-adv-x="533" d="M297 498q81 0 116 -38t35 -122v-332q0 -6 -6 -6h-8q-6 0 -6 6v327q0 81 -30 113.5t-103 32.5q-92 0 -185 -45v-428q0 -6 -6 -6h-8q-6 0 -6 6v688q0 6 6 6h8q6 0 6 -6v-244q90 48 187 48z" />
<glyph unicode="i" horiz-adv-x="202" d="M96 587q-6 0 -6 6v66q0 6 6 6h10q6 0 6 -6v-66q0 -6 -6 -6h-10zM97 0q-6 0 -6 6v478q0 6 6 6h8q6 0 6 -6v-478q0 -6 -6 -6h-8z" />
<glyph unicode="j" horiz-adv-x="201" d="M95 587q-6 0 -6 6v66q0 6 6 6h10q6 0 6 -6v-66q0 -6 -6 -6h-10zM-22 -208q-6 0 -6 6v7q0 6 6 6h9q64 0 83.5 23t19.5 103v547q0 6 6 6h8q6 0 6 -6v-553q0 -85 -24.5 -112t-97.5 -27h-10z" />
<glyph unicode="k" horiz-adv-x="462" d="M436 5q3 -5 -4 -5h-11q-5 0 -8 5l-164 277l-139 -156v-120q0 -6 -6 -6h-8q-6 0 -6 6v688q0 6 6 6h8q6 0 6 -6v-540l296 333q3 3 7 3h12q8 0 1 -8l-163 -184z" />
<glyph unicode="l" horiz-adv-x="200" d="M96 0q-6 0 -6 6v688q0 6 6 6h8q6 0 6 -6v-688q0 -6 -6 -6h-8z" />
<glyph unicode="m" horiz-adv-x="821" d="M585 498q81 0 116 -38t35 -122v-332q0 -6 -6 -6h-8q-6 0 -6 6v327q0 81 -30 113.5t-103 32.5q-94 0 -171 -51q14 -34 14 -90v-332q0 -6 -6 -6h-8q-6 0 -6 6v327q0 81 -30 113.5t-103 32.5q-88 0 -163 -45v-428q0 -6 -6 -6h-8q-6 0 -6 6v478q0 6 4 6h4q4 0 5 -5l7 -33 q76 46 165 46q96 0 130 -56q76 56 180 56z" />
<glyph unicode="n" horiz-adv-x="533" d="M297 498q81 0 116 -38t35 -122v-332q0 -6 -6 -6h-8q-6 0 -6 6v327q0 81 -30 113.5t-103 32.5q-92 0 -185 -45v-428q0 -6 -6 -6h-8q-6 0 -6 6v478q0 6 4 6h4q4 0 5 -5l7 -34q91 47 187 47z" />
<glyph unicode="o" d="M80 146v198q0 87 39 120.5t142 33.5h6q103 0 142 -33.5t39 -120.5v-198q0 -87 -39 -120.5t-142 -33.5h-6q-103 0 -142 33.5t-39 120.5zM100 146q0 -78 33.5 -106.5t127.5 -28.5h6q94 0 127.5 28.5t33.5 106.5v198q0 78 -33.5 106.5t-127.5 28.5h-6q-94 0 -127.5 -28.5 t-33.5 -106.5v-198z" />
<glyph unicode="p" horiz-adv-x="530" d="M299 498q81 0 116 -38t35 -122v-186q0 -84 -35 -122t-116 -38q-96 0 -189 48v-234q0 -6 -6 -6h-8q-6 0 -6 6v678q0 6 5 6h2q5 0 6 -5l7 -35q93 48 189 48zM430 333q0 81 -30 113.5t-103 32.5q-95 0 -187 -46v-376q92 -46 187 -46q73 0 103 32.5t30 113.5v176z" />
<glyph unicode="q" horiz-adv-x="530" d="M435 490q5 0 5 -6v-678q0 -6 -6 -6h-8q-6 0 -6 6v234q-93 -48 -189 -48q-81 0 -116 38t-35 122v186q0 84 35 122t116 38q96 0 189 -48l7 35q1 5 6 5h2zM233 11q95 0 187 46v376q-92 46 -187 46q-73 0 -103 -32.5t-30 -113.5v-176q0 -81 30 -113.5t103 -32.5z" />
<glyph unicode="r" horiz-adv-x="304" d="M280 498q6 0 6 -6v-7q0 -6 -6 -6h-2q-60 0 -99.5 -19t-68.5 -64v-390q0 -6 -6 -6h-8q-6 0 -6 6v478q0 6 5 6h4q5 0 6 -10l5 -57q52 75 168 75h2z" />
<glyph unicode="s" horiz-adv-x="469" d="M60 111v40q0 6 6 6h8q6 0 6 -6v-40q0 -54 34 -77t119 -23h6q85 0 117.5 23t32.5 77v15q0 41 -16 60t-67 34l-144 42q-55 16 -75 38t-20 63v17q0 62 37.5 90t126.5 28h6q90 0 127.5 -28.5t37.5 -89.5v-40q0 -6 -6 -6h-8q-6 0 -6 6v40q0 54 -32 76.5t-113 22.5h-6 q-81 0 -112.5 -22.5t-31.5 -76.5v-17q0 -36 16.5 -52t69.5 -32l144 -42q53 -16 72.5 -40t19.5 -71v-15q0 -62 -37.5 -90.5t-132.5 -28.5h-6q-95 0 -134 28.5t-39 90.5z" />
<glyph unicode="t" horiz-adv-x="311" d="M275 15q6 0 6 -6v-7q0 -6 -6 -6h-40q-73 0 -97.5 27t-24.5 112v336h-93q-6 0 -6 6v1q0 5 9 6l90 5v150q0 6 6 6h8q6 0 6 -6v-149h140q6 0 6 -6v-7q0 -6 -6 -6h-140v-330q0 -80 19.5 -103t83.5 -23h39z" />
<glyph unicode="u" horiz-adv-x="529" d="M433 490q6 0 6 -6v-478q0 -6 -5 -6h-2q-5 0 -6 5l-7 34q-88 -47 -183 -47q-81 0 -116 38t-35 122v332q0 6 6 6h8q6 0 6 -6v-327q0 -81 30 -113.5t103 -32.5q94 0 181 45v428q0 6 6 6h8z" />
<glyph unicode="v" horiz-adv-x="439" d="M414 490q4 0 5 -0.5t0 -4.5l-188 -480q-2 -5 -7 -5h-9q-5 0 -7 5l-188 480q-2 5 5 5h10q5 0 7 -5l105 -268q39 -99 73 -193q30 86 72 193l105 268q2 5 7 5h10z" />
<glyph unicode="w" horiz-adv-x="702" d="M671 490q7 0 5 -6l-155 -478q-2 -6 -7 -6h-11q-5 0 -7 6l-83 258q-34 103 -62 201q-28 -98 -62 -201l-83 -258q-2 -6 -7 -6h-11q-5 0 -7 6l-155 478q-2 6 5 6h9q5 0 7 -6l84 -260q32 -96 62 -202q28 98 62 201l84 261q2 6 7 6h10q5 0 7 -6l84 -261q34 -103 62 -201 q30 106 62 202l84 260q2 6 7 6h9z" />
<glyph unicode="x" horiz-adv-x="411" d="M386 7q5 -7 -4 -7h-9q-5 0 -7 3l-160 230l-160 -229q-3 -4 -8 -4h-9q-9 0 -4 7l169 241l-164 235q-5 7 4 7h9q5 0 8 -4l155 -223l154 223q3 4 8 4h9q9 0 4 -7l-164 -235z" />
<glyph unicode="y" horiz-adv-x="433" d="M412 490q7 0 5 -5l-267 -682q-2 -5 -7 -5h-10q-7 0 -5 5l77 197l-185 485q-2 5 5 5h10q5 0 7 -5l102 -267q48 -128 73 -198q40 112 74 199l104 266q2 5 7 5h10z" />
<glyph unicode="z" horiz-adv-x="399" d="M359 19q6 0 6 -6v-7q0 -6 -6 -6h-319q-6 0 -6 6v8q0 4 2 7l262 400q26 38 36 50h-284q-6 0 -6 6v7q0 6 6 6h299q6 0 6 -6v-8q0 -4 -2 -7l-264 -403q-23 -34 -34 -47h304z" />
<glyph unicode="{" horiz-adv-x="299" d="M160 421q0 -69 -13.5 -96.5t-55.5 -34.5q42 -7 55.5 -34.5t13.5 -96.5v-134q0 -84 20.5 -109t83.5 -25h4q6 0 6 -6v-7q0 -6 -6 -6h-4q-73 0 -98.5 29.5t-25.5 118.5v143q0 75 -17.5 96t-80.5 21h-1q-6 0 -6 6v8q0 6 6 6h1q63 0 80.5 21t17.5 96v143q0 89 25.5 118.5 t98.5 29.5h4q6 0 6 -6v-7q0 -6 -6 -6h-4q-63 0 -83.5 -25t-20.5 -109v-134z" />
<glyph unicode="|" horiz-adv-x="209" d="M101 -80q-6 0 -6 6v793q0 6 6 6h7q6 0 6 -6v-793q0 -6 -6 -6h-7z" />
<glyph unicode="}" horiz-adv-x="299" d="M258 300q6 0 6 -6v-8q0 -6 -6 -6h-1q-63 0 -80.5 -21t-17.5 -96v-143q0 -89 -25.5 -118.5t-98.5 -29.5h-4q-6 0 -6 6v7q0 6 6 6h4q63 0 83.5 25t20.5 109v134q0 69 13.5 96.5t55.5 34.5q-42 7 -55.5 34.5t-13.5 96.5v134q0 84 -20.5 109t-83.5 25h-4q-6 0 -6 6v7q0 6 6 6 h4q73 0 98.5 -29.5t25.5 -118.5v-143q0 -75 17.5 -96t80.5 -21h1z" />
<glyph unicode="~" horiz-adv-x="500" d="M348 202q-43 0 -101 38t-94 38q-37 0 -86 -33q-7 -5 -7 4v6q0 5 4 8q49 35 90 35q40 0 97.5 -38t95.5 -38t86 33q7 5 7 -4v-5q0 -5 -5 -10q-43 -34 -87 -34z" />
<glyph unicode="&#xa1;" horiz-adv-x="202" d="M96 490h10q6 0 6 -6v-63q0 -6 -6 -6h-10q-6 0 -6 6v63q0 6 6 6zM99 322h4q6 0 6 -6l2 -465q0 -6 -6 -6h-8q-6 0 -6 6l2 465q0 6 6 6z" />
<glyph unicode="&#xa2;" d="M434 407q-6 0 -6 6v9q0 76 -31.5 105t-117.5 30v-468q86 1 117.5 30t31.5 105v9q0 6 6 6h8q6 0 6 -6v-9q0 -85 -37 -119t-132 -35v-94q0 -6 -6 -6h-7q-6 0 -6 6v94q-96 1 -133 35t-37 119v198q0 85 37 119t133 35v93q0 6 6 6h7q6 0 6 -6v-93q95 -1 132 -35t37 -119v-9 q0 -6 -6 -6h-8zM110 224q0 -76 31.5 -105t118.5 -30v468q-87 -1 -118.5 -30t-31.5 -105v-198z" />
<glyph unicode="&#xa3;" horiz-adv-x="524" d="M458 174q6 0 6 -6v-14q0 -85 -38.5 -119.5t-131.5 -34.5h-238q-6 0 -6 6v7q0 6 6 6h64v289h-64q-6 0 -6 6v7q0 6 6 6h64v172q0 85 37.5 119.5t127.5 34.5h6q90 0 127.5 -34.5t37.5 -119.5v-44q0 -6 -6 -6h-8q-6 0 -6 6v44q0 76 -32.5 105.5t-112.5 29.5h-6 q-80 0 -112.5 -29.5t-32.5 -105.5v-172h223q6 0 6 -6v-7q0 -6 -6 -6h-223v-289h152q86 0 119 29.5t33 105.5v14q0 6 6 6h8z" />
<glyph unicode="&#xa4;" horiz-adv-x="532" d="M394 155l72 -108q6 -7 -4 -7h-7q-5 0 -8 4l-69 104q-34 -11 -101 -11h-22q-68 0 -101 12l-70 -105q-2 -4 -8 -4h-7q-8 0 -4 7l72 108q-53 27 -53 120v96q0 93 52 119l-71 108q-5 7 4 7h7q6 0 8 -4l69 -104q33 12 102 12h22q68 0 101 -12l69 104q3 4 8 4h7q10 0 4 -7 l-71 -107q53 -27 53 -120v-96q0 -49 -12.5 -77.5t-41.5 -42.5zM255 156h22q91 0 121 24.5t30 94.5v96q0 70 -30 94.5t-121 24.5h-22q-91 0 -121 -24.5t-30 -94.5v-96q0 -70 30 -94.5t121 -24.5z" />
<glyph unicode="&#xa5;" horiz-adv-x="473" d="M425 645q8 0 5 -7l-178 -380h143q6 0 6 -6v-6q0 -6 -6 -6h-148v-101h148q6 0 6 -6v-6q0 -6 -6 -6h-148v-115q0 -6 -6 -6h-8q-6 0 -6 6v115h-149q-6 0 -6 6v6q0 6 6 6h149v101h-149q-6 0 -6 6v6q0 6 6 6h143l-178 380q-3 7 5 7h9q5 0 7 -4l173 -377l172 377q2 4 7 4h9z " />
<glyph unicode="&#xa6;" horiz-adv-x="209" d="M101 395q-6 0 -6 6v318q0 6 6 6h7q6 0 6 -6v-318q0 -6 -6 -6h-7zM101 -80q-6 0 -6 6v298q0 6 6 6h7q6 0 6 -6v-298q0 -6 -6 -6h-7z" />
<glyph unicode="&#xa7;" horiz-adv-x="486" d="M402 270q-6 0 -6 6v33q0 47 -20.5 65.5t-81.5 25.5l-118 15q-58 7 -82 32.5t-24 76.5v11q0 63 38.5 90.5t131.5 27.5h6q93 0 131.5 -27.5t38.5 -90.5v-30q0 -6 -6 -6h-8q-6 0 -6 6v30q0 55 -32.5 77t-117.5 22h-6q-85 0 -117.5 -22t-32.5 -77v-11q0 -46 20 -65.5 t78 -26.5l118 -15q62 -8 86 -32t24 -76v-33q0 -6 -6 -6h-8zM240 -8q-93 0 -131.5 27.5t-38.5 90.5v30q0 6 6 6h8q6 0 6 -6v-30q0 -55 32.5 -77t117.5 -22h6q85 0 117.5 22t32.5 77v11q0 46 -20 65.5t-78 26.5l-118 15q-62 8 -86 32t-24 76v33q0 6 6 6h8q6 0 6 -6v-33 q0 -47 20.5 -65.5t81.5 -25.5l118 -15q58 -7 82 -32.5t24 -76.5v-11q0 -63 -38.5 -90.5t-131.5 -27.5h-6z" />
<glyph unicode="&#xa8;" d="M192 587q-6 0 -6 6v66q0 6 6 6h10q6 0 6 -6v-66q0 -6 -6 -6h-10zM326 587q-6 0 -6 6v66q0 6 6 6h10q6 0 6 -6v-66q0 -6 -6 -6h-10z" />
<glyph unicode="&#xa9;" horiz-adv-x="698" d="M346 -8q-108 0 -164 16t-76.5 49.5t-20.5 98.5v333q0 65 20.5 98.5t76.5 49.5t164 16h6q108 0 164 -16t76.5 -49.5t20.5 -98.5v-333q0 -65 -20.5 -98.5t-76.5 -49.5t-164 -16h-6zM346 11h6q102 0 153 13.5t69.5 43t18.5 88.5v333q0 59 -18.5 88.5t-69.5 43t-153 13.5h-6 q-102 0 -153 -13.5t-69.5 -43t-18.5 -88.5v-333q0 -59 18.5 -88.5t69.5 -43t153 -13.5zM346 139q-68 0 -98 24.5t-30 77.5v164q0 53 30 77.5t98 24.5h6q68 0 98 -24.5t30 -77.5v-25q0 -6 -6 -6h-8q-6 0 -6 6v25q0 44 -24.5 63.5t-83.5 19.5h-6q-59 0 -83.5 -19.5 t-24.5 -63.5v-164q0 -44 24.5 -63.5t83.5 -19.5h6q59 0 83.5 19.5t24.5 63.5v18q0 6 6 6h8q6 0 6 -6v-18q0 -53 -30 -77.5t-98 -24.5h-6z" />
<glyph unicode="&#xab;" horiz-adv-x="434" d="M55 245l131 -174q3 -5 -1 -9l-4 -4q-5 -5 -8 0l-140 183q-3 4 0 8l140 183q4 6 8 0l4 -5q3 -5 1 -8zM371 71q3 -5 -1 -9l-4 -4q-5 -5 -8 0l-140 183q-3 4 0 8l140 183q4 6 8 0l4 -5q3 -5 1 -8l-131 -174z" />
<glyph unicode="&#xac;" horiz-adv-x="500" d="M434 303q6 0 6 -6v-151q0 -6 -6 -6h-8q-6 0 -6 6v137h-354q-6 0 -6 6v8q0 6 6 6h368z" />
<glyph unicode="&#xad;" horiz-adv-x="340" d="M36 275q-6 0 -6 6v7q0 6 6 6h268q6 0 6 -6v-7q0 -6 -6 -6h-268z" />
<glyph unicode="&#xae;" horiz-adv-x="698" d="M352 653q108 0 164 -16t76.5 -49.5t20.5 -98.5v-333q0 -65 -20.5 -98.5t-76.5 -49.5t-164 -16h-6q-108 0 -164 16t-76.5 49.5t-20.5 98.5v333q0 65 20.5 98.5t76.5 49.5t164 16h6zM593 156v333q0 59 -18.5 88.5t-69.5 43t-153 13.5h-6q-102 0 -153 -13.5t-69.5 -43 t-18.5 -88.5v-333q0 -59 18.5 -88.5t69.5 -43t153 -13.5h6q102 0 153 13.5t69.5 43t18.5 88.5zM364 498q59 0 84 -23t25 -77v-15q0 -46 -18 -69t-58 -28l73 -133q3 -6 -5 -6h-7q-5 0 -7 4l-74 133h-13h-110v-131q0 -6 -6 -6h-8q-6 0 -6 6v339q0 6 6 6h124zM454 383v15 q0 47 -18.5 64t-71.5 17h-110v-177h110q53 0 71.5 17t18.5 64z" />
<glyph unicode="&#xaf;" d="M170 587q-6 0 -6 6v7q0 6 6 6h188q6 0 6 -6v-7q0 -6 -6 -6h-188z" />
<glyph unicode="&#xb0;" horiz-adv-x="348" d="M161 405q-63 0 -87 22.5t-24 79.5v44q0 57 24 79.5t87 22.5h25q63 0 87.5 -22.5t24.5 -79.5v-44q0 -57 -24.5 -79.5t-87.5 -22.5h-25zM161 423h25q55 0 74 16.5t19 67.5v44q0 51 -19 67.5t-74 16.5h-25q-55 0 -73.5 -16.5t-18.5 -67.5v-44q0 -51 18.5 -67.5t73.5 -16.5z " />
<glyph unicode="&#xb1;" horiz-adv-x="500" d="M434 325q6 0 6 -6v-7q0 -6 -6 -6h-174v-160q0 -6 -6 -6h-8q-6 0 -6 6v160h-174q-6 0 -6 6v7q0 6 6 6h174v159q0 6 6 6h8q6 0 6 -6v-159h174zM434 19q6 0 6 -6v-7q0 -6 -6 -6h-368q-6 0 -6 6v7q0 6 6 6h368z" />
<glyph unicode="&#xb4;" d="M231 562q-11 0 -3 8l94 92q3 3 7 3h13q4 0 5.5 -2t-0.5 -4l-99 -94q-3 -3 -7 -3h-10z" />
<glyph unicode="&#xb6;" horiz-adv-x="591" d="M540 645q6 0 6 -6v-7q0 -6 -6 -6h-77v-620q0 -6 -6 -6h-8q-6 0 -6 6v620h-169v-620q0 -6 -6 -6h-8q-6 0 -6 6v297h-86q-66 0 -92 28t-26 96v94q0 68 26 96t92 28h372zM254 322v304h-86q-55 0 -76.5 -22.5t-21.5 -82.5v-94q0 -60 21.5 -82.5t76.5 -22.5h86z" />
<glyph unicode="&#xb7;" horiz-adv-x="122" d="M56 250q-6 0 -6 6v63q0 6 6 6h10q6 0 6 -6v-63q0 -6 -6 -6h-10z" />
<glyph unicode="&#xb8;" d="M272 -82q35 0 50 -12.5t15 -40.5v-20q0 -28 -15 -40.5t-50 -12.5h-74q-6 0 -6 6v7q0 6 6 6h74q27 0 36 7t9 27v20q0 20 -9 27t-36 7h-73q-8 0 -6 7l20 100h19l-17 -88h57z" />
<glyph unicode="&#xbb;" horiz-adv-x="434" d="M76 432l140 -183q3 -4 0 -8l-140 -183q-3 -5 -8 0l-4 4q-4 4 -1 9l131 174l-131 174q-2 3 1 8l4 5q4 6 8 0zM401 249q3 -4 0 -8l-140 -183q-3 -5 -8 0l-4 4q-4 4 -1 9l131 174l-131 174q-2 3 1 8l4 5q4 6 8 0z" />
<glyph unicode="&#xbc;" horiz-adv-x="567" d="M221 328q0 -6 -6 -6h-159q-6 0 -6 6v6q0 6 6 6h75v285l-66 -34q-6 -3 -6 5v6q0 5 4 7l64 34q4 2 8 2h9q6 0 6 -6v-299h65q6 0 6 -6v-6zM496 645q8 0 4 -7l-365 -633q-3 -5 -8 -5h-9q-6 0 -3 7l365 633q3 5 8 5h8zM511 100q6 0 6 -6v-5q0 -6 -6 -6h-34v-77q0 -6 -6 -6h-7 q-6 0 -6 6v77h-156q-6 0 -6 6v7q0 4 3 8l156 215q3 4 8 4h8q6 0 6 -6v-217h34zM318 100h140v192z" />
<glyph unicode="&#xbd;" horiz-adv-x="602" d="M221 328q0 -6 -6 -6h-159q-6 0 -6 6v6q0 6 6 6h75v285l-66 -34q-6 -3 -6 5v6q0 5 4 7l64 34q4 2 8 2h9q6 0 6 -6v-299h65q6 0 6 -6v-6zM493 645q8 0 4 -7l-365 -633q-3 -5 -8 -5h-9q-7 0 -3 7l365 633q3 5 8 5h8zM425 135q-35 -8 -43.5 -17.5t-8.5 -38.5v-61h173 q6 0 6 -6v-6q0 -6 -6 -6h-186q-6 0 -6 6v74q0 32 13 47t51 24l63 15q34 8 43 18.5t9 38.5v25q0 36 -15.5 48.5t-62.5 12.5h-3q-47 0 -62 -12.5t-15 -48.5v-17q0 -6 -6 -6h-7q-6 0 -6 6v17q0 42 21 60.5t75 18.5h3q54 0 75.5 -18.5t21.5 -60.5v-25q0 -33 -13 -48.5t-51 -24.5 z" />
<glyph unicode="&#xbe;" horiz-adv-x="582" d="M151 322h-3q-55 0 -76.5 18t-21.5 61v12q0 6 6 6h7q6 0 6 -6v-12q0 -36 16 -48.5t63 -12.5h3q48 0 64 12.5t16 48.5v25q0 32 -15.5 43.5t-64.5 11.5h-33q-6 0 -6 6v6q0 6 6 6h30q49 0 64.5 11.5t15.5 43.5v20q0 36 -15.5 48.5t-61.5 12.5h-3q-46 0 -61 -12.5t-15 -48.5 v-17q0 -6 -6 -6h-7q-6 0 -6 6v17q0 43 21 61t74 18h3q54 0 75 -18t21 -61v-20q0 -31 -11 -45.5t-39 -18.5q30 -4 41.5 -18.5t11.5 -45.5v-25q0 -43 -21.5 -61t-77.5 -18zM512 645q8 0 4 -7l-365 -633q-3 -5 -8 -5h-9q-6 0 -3 7l365 633q3 5 8 5h8zM526 100q6 0 6 -6v-5 q0 -6 -6 -6h-34v-77q0 -6 -6 -6h-7q-6 0 -6 6v77h-156q-6 0 -6 6v7q0 4 3 8l156 215q3 4 8 4h8q6 0 6 -6v-217h34zM333 100h140v192z" />
<glyph unicode="&#xbf;" horiz-adv-x="413" d="M266 500q6 0 6 -6v-63q0 -6 -6 -6h-10q-6 0 -6 6v63q0 6 6 6h10zM367 51q6 0 6 -6v-34q0 -95 -34.5 -129.5t-128.5 -34.5h-6q-94 0 -129 33t-35 120v14q0 64 18.5 91.5t72.5 44.5l43 14q49 16 63 38.5t14 85.5v38q0 6 6 6h8q6 0 6 -6v-38q0 -69 -18 -97t-73 -45l-44 -14 q-47 -15 -61.5 -37.5t-14.5 -80.5v-14q0 -80 28.5 -107t115.5 -27h6q87 0 115 28.5t28 116.5v34q0 6 6 6h8z" />
<glyph unicode="&#xc0;" horiz-adv-x="510" d="M271 720l-99 94q-2 2 -0.5 4t5.5 2h13q4 0 7 -3l94 -92q8 -8 -3 -8h-10q-4 0 -7 3zM488 6q2 -6 -5 -6h-9q-5 0 -7 6l-64 183h-296l-65 -186q-1 -3 -6 -3h-9q-7 0 -5 6l221 633q2 6 7 6h10q5 0 7 -6zM114 208h282l-76 219q-36 102 -65 195q-29 -93 -65 -195z" />
<glyph unicode="&#xc1;" horiz-adv-x="510" d="M221 717q-11 0 -3 8l94 92q3 3 7 3h13q4 0 5.5 -2t-0.5 -4l-99 -94q-3 -3 -7 -3h-10zM488 6q2 -6 -5 -6h-9q-5 0 -7 6l-64 183h-296l-65 -186q-1 -3 -6 -3h-9q-7 0 -5 6l221 633q2 6 7 6h10q5 0 7 -6zM114 208h282l-76 219q-36 102 -65 195q-29 -93 -65 -195z" />
<glyph unicode="&#xc2;" horiz-adv-x="510" d="M163 717q-9 0 -4 7l83 93q3 3 7 3h12q4 0 7 -3l83 -93q5 -7 -4 -7h-11q-4 0 -7 3l-74 84l-74 -84q-3 -3 -7 -3h-11zM488 6q2 -6 -5 -6h-9q-5 0 -7 6l-64 183h-296l-65 -186q-1 -3 -6 -3h-9q-7 0 -5 6l221 633q2 6 7 6h10q5 0 7 -6zM114 208h282l-76 219q-36 102 -65 195 q-29 -93 -65 -195z" />
<glyph unicode="&#xc3;" horiz-adv-x="510" d="M140 732q-6 0 -6 6v24q0 25 12 39.5t32 14.5q23 0 51 -19l64 -43q23 -15 39 -15q26 0 26 36v24q0 6 6 6h6q6 0 6 -6v-24q0 -25 -12 -39.5t-32 -14.5q-23 0 -51 19l-64 43q-23 15 -39 15q-26 0 -26 -36v-24q0 -6 -6 -6h-6zM488 6q2 -6 -5 -6h-9q-5 0 -7 6l-64 183h-296 l-65 -186q-1 -3 -6 -3h-9q-7 0 -5 6l221 633q2 6 7 6h10q5 0 7 -6zM114 208h282l-76 219q-36 102 -65 195q-29 -93 -65 -195z" />
<glyph unicode="&#xc4;" horiz-adv-x="510" d="M183 742q-6 0 -6 6v66q0 6 6 6h10q6 0 6 -6v-66q0 -6 -6 -6h-10zM317 742q-6 0 -6 6v66q0 6 6 6h10q6 0 6 -6v-66q0 -6 -6 -6h-10zM488 6q2 -6 -5 -6h-9q-5 0 -7 6l-64 183h-296l-65 -186q-1 -3 -6 -3h-9q-7 0 -5 6l221 633q2 6 7 6h10q5 0 7 -6zM114 208h282l-76 219 q-36 102 -65 195q-29 -93 -65 -195z" />
<glyph unicode="&#xc5;" horiz-adv-x="510" d="M254 714q-44 0 -58.5 10.5t-14.5 41.5v14q0 31 14.5 41.5t58.5 10.5h2q44 0 58.5 -10.5t14.5 -41.5v-14q0 -31 -14.5 -41.5t-58.5 -10.5h-2zM199 779v-12q0 -24 9 -30.5t46 -6.5h2q37 0 46 6.5t9 30.5v12q0 24 -9 30.5t-46 6.5h-2q-37 0 -46 -6.5t-9 -30.5zM488 6 q2 -6 -5 -6h-9q-5 0 -7 6l-64 183h-296l-65 -186q-1 -3 -6 -3h-9q-7 0 -5 6l221 633q2 6 7 6h10q5 0 7 -6zM114 208h282l-76 219q-36 102 -65 195q-29 -93 -65 -195z" />
<glyph unicode="&#xc6;" horiz-adv-x="792" d="M734 626h-313v-289h283q6 0 6 -6v-7q0 -6 -6 -6h-283v-299h313q6 0 6 -6v-7q0 -6 -6 -6h-327q-6 0 -6 6v180h-258l-100 -179q-3 -7 -9 -7h-8q-7 0 -4 7l350 634q1 4 7 4h355q6 0 6 -6v-7q0 -6 -6 -6zM153 205h248v421h-14z" />
<glyph unicode="&#xc7;" horiz-adv-x="560" d="M481 449q-6 0 -6 6v34q0 84 -37.5 114.5t-144.5 30.5h-6q-107 0 -144.5 -30.5t-37.5 -114.5v-333q0 -84 37.5 -114.5t144.5 -30.5h6q107 0 144.5 30.5t37.5 114.5v34q0 6 6 6h8q6 0 6 -6v-34q0 -93 -42.5 -128.5t-159.5 -35.5h-6h-17l-14 -74h57q35 0 50 -12.5t15 -40.5 v-20q0 -28 -15 -40.5t-50 -12.5h-74q-6 0 -6 6v7q0 6 6 6h74q27 0 36 7t9 27v20q0 20 -9 27t-36 7h-73q-8 0 -6 7l17 87q-95 4 -130.5 40.5t-35.5 122.5v333q0 93 42.5 128.5t159.5 35.5h6q117 0 159.5 -35.5t42.5 -128.5v-34q0 -6 -6 -6h-8z" />
<glyph unicode="&#xc8;" horiz-adv-x="486" d="M274 720l-99 94q-2 2 -0.5 4t5.5 2h13q4 0 7 -3l94 -92q8 -8 -3 -8h-10q-4 0 -7 3zM428 626h-313v-289h283q6 0 6 -6v-7q0 -6 -6 -6h-283v-299h313q6 0 6 -6v-7q0 -6 -6 -6h-327q-6 0 -6 6v633q0 6 6 6h327q6 0 6 -6v-7q0 -6 -6 -6z" />
<glyph unicode="&#xc9;" horiz-adv-x="486" d="M224 717q-11 0 -3 8l94 92q3 3 7 3h13q4 0 5.5 -2t-0.5 -4l-99 -94q-3 -3 -7 -3h-10zM428 626h-313v-289h283q6 0 6 -6v-7q0 -6 -6 -6h-283v-299h313q6 0 6 -6v-7q0 -6 -6 -6h-327q-6 0 -6 6v633q0 6 6 6h327q6 0 6 -6v-7q0 -6 -6 -6z" />
<glyph unicode="&#xca;" horiz-adv-x="486" d="M166 717q-9 0 -4 7l83 93q3 3 7 3h12q4 0 7 -3l83 -93q5 -7 -4 -7h-11q-4 0 -7 3l-74 84l-74 -84q-3 -3 -7 -3h-11zM428 626h-313v-289h283q6 0 6 -6v-7q0 -6 -6 -6h-283v-299h313q6 0 6 -6v-7q0 -6 -6 -6h-327q-6 0 -6 6v633q0 6 6 6h327q6 0 6 -6v-7q0 -6 -6 -6z" />
<glyph unicode="&#xcb;" horiz-adv-x="486" d="M186 742q-6 0 -6 6v66q0 6 6 6h10q6 0 6 -6v-66q0 -6 -6 -6h-10zM320 742q-6 0 -6 6v66q0 6 6 6h10q6 0 6 -6v-66q0 -6 -6 -6h-10zM428 626h-313v-289h283q6 0 6 -6v-7q0 -6 -6 -6h-283v-299h313q6 0 6 -6v-7q0 -6 -6 -6h-327q-6 0 -6 6v633q0 6 6 6h327q6 0 6 -6v-7 q0 -6 -6 -6z" />
<glyph unicode="&#xcc;" horiz-adv-x="210" d="M128 717q-4 0 -7 3l-99 94q-2 2 -0.5 4t5.5 2h13q4 0 7 -3l94 -92q8 -8 -3 -8h-10zM101 0q-6 0 -6 6v633q0 6 6 6h8q6 0 6 -6v-633q0 -6 -6 -6h-8z" />
<glyph unicode="&#xcd;" horiz-adv-x="210" d="M71 717q-11 0 -3 8l94 92q3 3 7 3h13q4 0 5.5 -2t-0.5 -4l-99 -94q-3 -3 -7 -3h-10zM101 0q-6 0 -6 6v633q0 6 6 6h8q6 0 6 -6v-633q0 -6 -6 -6h-8z" />
<glyph unicode="&#xce;" horiz-adv-x="210" d="M201 724q5 -7 -4 -7h-11q-4 0 -7 3l-74 84l-74 -84q-3 -3 -7 -3h-11q-9 0 -4 7l83 93q3 3 7 3h12q4 0 7 -3zM109 645q6 0 6 -6v-633q0 -6 -6 -6h-8q-6 0 -6 6v633q0 6 6 6h8z" />
<glyph unicode="&#xcf;" horiz-adv-x="210" d="M33 742q-6 0 -6 6v66q0 6 6 6h10q6 0 6 -6v-66q0 -6 -6 -6h-10zM167 742q-6 0 -6 6v66q0 6 6 6h10q6 0 6 -6v-66q0 -6 -6 -6h-10zM101 0q-6 0 -6 6v633q0 6 6 6h8q6 0 6 -6v-633q0 -6 -6 -6h-8z" />
<glyph unicode="&#xd0;" horiz-adv-x="578" d="M316 645q96 0 136.5 -33t40.5 -111v-357q0 -78 -40.5 -111t-136.5 -33h-215q-6 0 -6 6v311h-69q-6 0 -6 6v6q0 6 6 6h69v304q0 6 6 6h215zM473 144v357q0 71 -36.5 98t-128.5 27h-193v-291h155q6 0 6 -6v-6q0 -6 -6 -6h-155v-298h193q92 0 128.5 27t36.5 98z" />
<glyph unicode="&#xd1;" horiz-adv-x="626" d="M198 732q-6 0 -6 6v24q0 25 12 39.5t32 14.5q23 0 51 -19l64 -43q23 -15 39 -15q26 0 26 36v24q0 6 6 6h6q6 0 6 -6v-24q0 -25 -12 -39.5t-32 -14.5q-23 0 -51 19l-64 43q-23 15 -39 15q-26 0 -26 -36v-24q0 -6 -6 -6h-6zM525 645q6 0 6 -6v-633q0 -6 -6 -6h-10 q-5 0 -9 6l-270 418q-75 115 -123 196q2 -69 2 -196v-418q0 -6 -6 -6h-8q-6 0 -6 6v633q0 6 6 6h10q5 0 9 -6l270 -418q75 -115 123 -196q-2 69 -2 196v418q0 6 6 6h8z" />
<glyph unicode="&#xd2;" horiz-adv-x="590" d="M318 717q-4 0 -7 3l-99 94q-2 2 -0.5 4t5.5 2h13q4 0 7 -3l94 -92q8 -8 -3 -8h-10zM85 156v333q0 93 43.5 128.5t163.5 35.5h6q120 0 163.5 -35.5t43.5 -128.5v-333q0 -93 -43.5 -128.5t-163.5 -35.5h-6q-120 0 -163.5 35.5t-43.5 128.5zM105 156q0 -85 38.5 -115 t148.5 -30h6q110 0 148.5 30t38.5 115v333q0 85 -38.5 115t-148.5 30h-6q-110 0 -148.5 -30t-38.5 -115v-333z" />
<glyph unicode="&#xd3;" horiz-adv-x="590" d="M261 717q-11 0 -3 8l94 92q3 3 7 3h13q4 0 5.5 -2t-0.5 -4l-99 -94q-3 -3 -7 -3h-10zM85 156v333q0 93 43.5 128.5t163.5 35.5h6q120 0 163.5 -35.5t43.5 -128.5v-333q0 -93 -43.5 -128.5t-163.5 -35.5h-6q-120 0 -163.5 35.5t-43.5 128.5zM105 156q0 -85 38.5 -115 t148.5 -30h6q110 0 148.5 30t38.5 115v333q0 85 -38.5 115t-148.5 30h-6q-110 0 -148.5 -30t-38.5 -115v-333z" />
<glyph unicode="&#xd4;" horiz-adv-x="590" d="M203 717q-9 0 -4 7l83 93q3 3 7 3h12q4 0 7 -3l83 -93q5 -7 -4 -7h-11q-4 0 -7 3l-74 84l-74 -84q-3 -3 -7 -3h-11zM298 653q120 0 163.5 -35.5t43.5 -128.5v-333q0 -93 -43.5 -128.5t-163.5 -35.5h-6q-120 0 -163.5 35.5t-43.5 128.5v333q0 93 43.5 128.5t163.5 35.5h6z M485 156v333q0 85 -38.5 115t-148.5 30h-6q-110 0 -148.5 -30t-38.5 -115v-333q0 -85 38.5 -115t148.5 -30h6q110 0 148.5 30t38.5 115z" />
<glyph unicode="&#xd5;" horiz-adv-x="590" d="M372 721q-23 0 -51 19l-64 43q-23 15 -39 15q-26 0 -26 -36v-24q0 -6 -6 -6h-6q-6 0 -6 6v24q0 25 12 39.5t32 14.5q23 0 51 -19l64 -43q23 -15 39 -15q26 0 26 36v24q0 6 6 6h6q6 0 6 -6v-24q0 -25 -12 -39.5t-32 -14.5zM85 156v333q0 93 43.5 128.5t163.5 35.5h6 q120 0 163.5 -35.5t43.5 -128.5v-333q0 -93 -43.5 -128.5t-163.5 -35.5h-6q-120 0 -163.5 35.5t-43.5 128.5zM105 156q0 -85 38.5 -115t148.5 -30h6q110 0 148.5 30t38.5 115v333q0 85 -38.5 115t-148.5 30h-6q-110 0 -148.5 -30t-38.5 -115v-333z" />
<glyph unicode="&#xd6;" horiz-adv-x="590" d="M223 742q-6 0 -6 6v66q0 6 6 6h10q6 0 6 -6v-66q0 -6 -6 -6h-10zM357 742q-6 0 -6 6v66q0 6 6 6h10q6 0 6 -6v-66q0 -6 -6 -6h-10zM85 156v333q0 93 43.5 128.5t163.5 35.5h6q120 0 163.5 -35.5t43.5 -128.5v-333q0 -93 -43.5 -128.5t-163.5 -35.5h-6q-120 0 -163.5 35.5 t-43.5 128.5zM105 156q0 -85 38.5 -115t148.5 -30h6q110 0 148.5 30t38.5 115v333q0 85 -38.5 115t-148.5 30h-6q-110 0 -148.5 -30t-38.5 -115v-333z" />
<glyph unicode="&#xd7;" horiz-adv-x="500" d="M264 250l130 -130q4 -4 0 -8l-5 -6q-4 -4 -8 0l-131 131l-131 -131q-4 -4 -8 0l-6 6q-4 4 0 8l131 131l-130 130q-4 4 -1 7l6 7q4 4 8 0l131 -131l130 130q4 4 8 0l6 -6q4 -4 0 -8z" />
<glyph unicode="&#xd8;" horiz-adv-x="590" d="M454 623q51 -34 51 -134v-333q0 -93 -43.5 -128.5t-163.5 -35.5h-6q-95 0 -140 21l-25 -50q-2 -4 -7 -4h-7q-8 0 -5 6l28 57q-51 34 -51 134v333q0 93 43.5 128.5t163.5 35.5h6q95 0 140 -21l25 50q2 4 7 4h7q8 0 5 -6zM105 156q0 -87 40 -116l285 574q-39 20 -132 20h-6 q-110 0 -148.5 -30t-38.5 -115v-333zM485 156v333q0 87 -40 116l-285 -574q39 -20 132 -20h6q110 0 148.5 30t38.5 115z" />
<glyph unicode="&#xd9;" horiz-adv-x="588" d="M317 717q-4 0 -7 3l-99 94q-2 2 -0.5 4t5.5 2h13q4 0 7 -3l94 -92q8 -8 -3 -8h-10zM90 156v483q0 6 6 6h8q6 0 6 -6v-483q0 -84 37.5 -114.5t143.5 -30.5h6q106 0 143.5 30.5t37.5 114.5v483q0 6 6 6h8q6 0 6 -6v-483q0 -93 -42.5 -128.5t-158.5 -35.5h-6 q-116 0 -158.5 35.5t-42.5 128.5z" />
<glyph unicode="&#xda;" horiz-adv-x="588" d="M260 717q-11 0 -3 8l94 92q3 3 7 3h13q4 0 5.5 -2t-0.5 -4l-99 -94q-3 -3 -7 -3h-10zM90 156v483q0 6 6 6h8q6 0 6 -6v-483q0 -84 37.5 -114.5t143.5 -30.5h6q106 0 143.5 30.5t37.5 114.5v483q0 6 6 6h8q6 0 6 -6v-483q0 -93 -42.5 -128.5t-158.5 -35.5h-6 q-116 0 -158.5 35.5t-42.5 128.5z" />
<glyph unicode="&#xdb;" horiz-adv-x="588" d="M202 717q-9 0 -4 7l83 93q3 3 7 3h12q4 0 7 -3l83 -93q5 -7 -4 -7h-11q-4 0 -7 3l-74 84l-74 -84q-3 -3 -7 -3h-11zM492 645q6 0 6 -6v-483q0 -93 -42.5 -128.5t-158.5 -35.5h-6q-116 0 -158.5 35.5t-42.5 128.5v483q0 6 6 6h8q6 0 6 -6v-483q0 -84 37.5 -114.5 t143.5 -30.5h6q106 0 143.5 30.5t37.5 114.5v483q0 6 6 6h8z" />
<glyph unicode="&#xdc;" horiz-adv-x="588" d="M222 742q-6 0 -6 6v66q0 6 6 6h10q6 0 6 -6v-66q0 -6 -6 -6h-10zM356 742q-6 0 -6 6v66q0 6 6 6h10q6 0 6 -6v-66q0 -6 -6 -6h-10zM90 156v483q0 6 6 6h8q6 0 6 -6v-483q0 -84 37.5 -114.5t143.5 -30.5h6q106 0 143.5 30.5t37.5 114.5v483q0 6 6 6h8q6 0 6 -6v-483 q0 -93 -42.5 -128.5t-158.5 -35.5h-6q-116 0 -158.5 35.5t-42.5 128.5z" />
<glyph unicode="&#xdd;" horiz-adv-x="461" d="M197 717q-11 0 -3 8l94 92q3 3 7 3h13q4 0 5.5 -2t-0.5 -4l-99 -94q-3 -3 -7 -3h-10zM444 645q4 0 5 -0.5t0 -3.5l-209 -396v-239q0 -6 -6 -6h-8q-6 0 -6 6v241l-208 394q-1 3 0 3.5t5 0.5h9q5 0 7 -4l119 -225q47 -88 79 -155q30 64 78 155l119 225q2 4 7 4h9z" />
<glyph unicode="&#xde;" horiz-adv-x="512" d="M295 525q96 0 136.5 -33t40.5 -111v-104q0 -78 -40.5 -111t-136.5 -33h-180v-127q0 -6 -6 -6h-8q-6 0 -6 6v633q0 6 6 6h8q6 0 6 -6v-114h180zM452 277v104q0 71 -36.5 98t-128.5 27h-172v-354h172q92 0 128.5 27t36.5 98z" />
<glyph unicode="&#xdf;" horiz-adv-x="552" d="M365 -8q-77 0 -109 29.5t-32 97.5v32q0 6 6 6h8q6 0 6 -6v-32q0 -61 26.5 -84.5t94.5 -23.5h6q70 0 95.5 23t25.5 85v23q0 42 -16 60t-72 38l-97 34q-37 13 -51 29.5t-14 49.5v14q0 30 12 47.5t42 30.5l83 37q36 16 48 31.5t12 43.5v28q0 55 -34.5 79.5t-118.5 24.5h-6 q-97 0 -133.5 -33t-36.5 -122v-528q0 -6 -6 -6h-8q-6 0 -6 6v528q0 98 42 136t148 38h6q93 0 133 -29t40 -94v-28q0 -34 -14.5 -53.5t-54.5 -37.5l-76 -34q-32 -14 -42 -27t-10 -38v-14q0 -27 11 -39t52 -26l100 -35q51 -18 69 -41t18 -70v-23q0 -68 -32 -97.5t-109 -29.5 h-6z" />
<glyph unicode="&#xe0;" horiz-adv-x="516" d="M275 565l-99 94q-2 2 -0.5 4t5.5 2h13q4 0 7 -3l94 -92q8 -8 -3 -8h-10q-4 0 -7 3zM259 498q97 0 134.5 -33.5t37.5 -118.5v-340q0 -6 -4 -6h-4q-4 0 -5 5l-7 34q-91 -47 -191 -47q-81 0 -118 31.5t-37 101.5v12q0 68 33.5 95.5t116.5 27.5h196v86q0 76 -32 104.5 t-120 28.5h-6q-88 0 -120 -28.5t-32 -104.5v-4q0 -6 -6 -6h-8q-6 0 -6 6v4q0 85 37.5 118.5t134.5 33.5h6zM85 125q0 -62 32 -88t105 -26q96 0 189 45v185h-198q-73 0 -100.5 -23t-27.5 -81v-12z" />
<glyph unicode="&#xe1;" horiz-adv-x="516" d="M225 562q-11 0 -3 8l94 92q3 3 7 3h13q4 0 5.5 -2t-0.5 -4l-99 -94q-3 -3 -7 -3h-10zM259 498q97 0 134.5 -33.5t37.5 -118.5v-340q0 -6 -4 -6h-4q-4 0 -5 5l-7 34q-91 -47 -191 -47q-81 0 -118 31.5t-37 101.5v12q0 68 33.5 95.5t116.5 27.5h196v86q0 76 -32 104.5 t-120 28.5h-6q-88 0 -120 -28.5t-32 -104.5v-4q0 -6 -6 -6h-8q-6 0 -6 6v4q0 85 37.5 118.5t134.5 33.5h6zM85 125q0 -62 32 -88t105 -26q96 0 189 45v185h-198q-73 0 -100.5 -23t-27.5 -81v-12z" />
<glyph unicode="&#xe2;" horiz-adv-x="516" d="M167 562q-9 0 -4 7l83 93q3 3 7 3h12q4 0 7 -3l83 -93q5 -7 -4 -7h-11q-4 0 -7 3l-74 84l-74 -84q-3 -3 -7 -3h-11zM259 498q97 0 134.5 -33.5t37.5 -118.5v-340q0 -6 -4 -6h-4q-4 0 -5 5l-7 34q-91 -47 -191 -47q-81 0 -118 31.5t-37 101.5v12q0 68 33.5 95.5 t116.5 27.5h196v86q0 76 -32 104.5t-120 28.5h-6q-88 0 -120 -28.5t-32 -104.5v-4q0 -6 -6 -6h-8q-6 0 -6 6v4q0 85 37.5 118.5t134.5 33.5h6zM85 125q0 -62 32 -88t105 -26q96 0 189 45v185h-198q-73 0 -100.5 -23t-27.5 -81v-12z" />
<glyph unicode="&#xe3;" horiz-adv-x="516" d="M144 577q-6 0 -6 6v24q0 25 12 39.5t32 14.5q23 0 51 -19l64 -43q23 -15 39 -15q26 0 26 36v24q0 6 6 6h6q6 0 6 -6v-24q0 -25 -12 -39.5t-32 -14.5q-23 0 -51 19l-64 43q-23 15 -39 15q-26 0 -26 -36v-24q0 -6 -6 -6h-6zM259 498q97 0 134.5 -33.5t37.5 -118.5v-340 q0 -6 -4 -6h-4q-4 0 -5 5l-7 34q-91 -47 -191 -47q-81 0 -118 31.5t-37 101.5v12q0 68 33.5 95.5t116.5 27.5h196v86q0 76 -32 104.5t-120 28.5h-6q-88 0 -120 -28.5t-32 -104.5v-4q0 -6 -6 -6h-8q-6 0 -6 6v4q0 85 37.5 118.5t134.5 33.5h6zM85 125q0 -62 32 -88t105 -26 q96 0 189 45v185h-198q-73 0 -100.5 -23t-27.5 -81v-12z" />
<glyph unicode="&#xe4;" horiz-adv-x="516" d="M187 587q-6 0 -6 6v66q0 6 6 6h10q6 0 6 -6v-66q0 -6 -6 -6h-10zM321 587q-6 0 -6 6v66q0 6 6 6h10q6 0 6 -6v-66q0 -6 -6 -6h-10zM259 498q97 0 134.5 -33.5t37.5 -118.5v-340q0 -6 -4 -6h-4q-4 0 -5 5l-7 34q-91 -47 -191 -47q-81 0 -118 31.5t-37 101.5v12 q0 68 33.5 95.5t116.5 27.5h196v86q0 76 -32 104.5t-120 28.5h-6q-88 0 -120 -28.5t-32 -104.5v-4q0 -6 -6 -6h-8q-6 0 -6 6v4q0 85 37.5 118.5t134.5 33.5h6zM85 125q0 -62 32 -88t105 -26q96 0 189 45v185h-198q-73 0 -100.5 -23t-27.5 -81v-12z" />
<glyph unicode="&#xe5;" horiz-adv-x="516" d="M258 559q-44 0 -58.5 10.5t-14.5 41.5v14q0 31 14.5 41.5t58.5 10.5h2q44 0 58.5 -10.5t14.5 -41.5v-14q0 -31 -14.5 -41.5t-58.5 -10.5h-2zM203 624v-12q0 -24 9 -30.5t46 -6.5h2q37 0 46 6.5t9 30.5v12q0 24 -9 30.5t-46 6.5h-2q-37 0 -46 -6.5t-9 -30.5zM259 498 q97 0 134.5 -33.5t37.5 -118.5v-340q0 -6 -4 -6h-4q-4 0 -5 5l-7 34q-91 -47 -191 -47q-81 0 -118 31.5t-37 101.5v12q0 68 33.5 95.5t116.5 27.5h196v86q0 76 -32 104.5t-120 28.5h-6q-88 0 -120 -28.5t-32 -104.5v-4q0 -6 -6 -6h-8q-6 0 -6 6v4q0 85 37.5 118.5 t134.5 33.5h6zM85 125q0 -62 32 -88t105 -26q96 0 189 45v185h-198q-73 0 -100.5 -23t-27.5 -81v-12z" />
<glyph unicode="&#xe6;" horiz-adv-x="832" d="M751 241h-330v-95q0 -78 32.5 -106.5t122.5 -28.5h6q90 0 122.5 28.5t32.5 106.5v4q0 6 6 6h8q6 0 6 -6v-4q0 -87 -38 -120.5t-137 -33.5h-6q-67 0 -105 14.5t-54 48.5q-92 -63 -202 -63q-78 0 -114 32.5t-36 104.5v8q0 68 33 95.5t112 27.5h191v84q0 77 -31 106t-116 29 h-6q-85 0 -116 -29t-31 -106v-5q0 -6 -6 -6h-8q-6 0 -6 6v5q0 86 36.5 120t130.5 34h6q71 0 108 -18.5t49 -62.5q13 44 52 62.5t113 18.5h6q99 0 137 -33.5t38 -120.5v-97q0 -6 -6 -6zM576 479q-90 0 -122.5 -28.5t-32.5 -106.5v-84h316v84q0 78 -32.5 106.5t-122.5 28.5h-6 zM217 11q101 0 194 59q-10 29 -10 76v95h-193q-70 0 -96.5 -23t-26.5 -81v-8q0 -64 31 -91t101 -27z" />
<glyph unicode="&#xe7;" horiz-adv-x="507" d="M424 329q-6 0 -6 6v9q0 78 -32.5 106.5t-123.5 28.5h-6q-91 0 -123.5 -28.5t-32.5 -106.5v-198q0 -78 32.5 -106.5t123.5 -28.5h6q91 0 123.5 28.5t32.5 106.5v9q0 6 6 6h8q6 0 6 -6v-9q0 -87 -38 -120.5t-138 -33.5h-6h-17l-14 -74h57q35 0 50 -12.5t15 -40.5v-20 q0 -28 -15 -40.5t-50 -12.5h-74q-6 0 -6 6v7q0 6 6 6h74q27 0 36 7t9 27v20q0 20 -9 27t-36 7h-73q-8 0 -6 7l17 87q-79 5 -109.5 39.5t-30.5 113.5v198q0 87 38 120.5t138 33.5h6q100 0 138 -33.5t38 -120.5v-9q0 -6 -6 -6h-8z" />
<glyph unicode="&#xe8;" horiz-adv-x="521" d="M279 565l-99 94q-2 2 -0.5 4t5.5 2h13q4 0 7 -3l94 -92q8 -8 -3 -8h-10q-4 0 -7 3zM440 253h-340v-107q0 -78 33 -106.5t127 -28.5h6q94 0 127 28.5t33 106.5v5q0 6 6 6h8q6 0 6 -6v-5q0 -87 -38.5 -120.5t-141.5 -33.5h-6q-103 0 -141.5 33.5t-38.5 120.5v198 q0 87 38.5 120.5t141.5 33.5h6q103 0 141.5 -33.5t38.5 -120.5v-85q0 -6 -6 -6zM260 479q-94 0 -127 -28.5t-33 -106.5v-72h326v72q0 78 -33 106.5t-127 28.5h-6z" />
<glyph unicode="&#xe9;" horiz-adv-x="521" d="M229 562q-11 0 -3 8l94 92q3 3 7 3h13q4 0 5.5 -2t-0.5 -4l-99 -94q-3 -3 -7 -3h-10zM440 253h-340v-107q0 -78 33 -106.5t127 -28.5h6q94 0 127 28.5t33 106.5v5q0 6 6 6h8q6 0 6 -6v-5q0 -87 -38.5 -120.5t-141.5 -33.5h-6q-103 0 -141.5 33.5t-38.5 120.5v198 q0 87 38.5 120.5t141.5 33.5h6q103 0 141.5 -33.5t38.5 -120.5v-85q0 -6 -6 -6zM260 479q-94 0 -127 -28.5t-33 -106.5v-72h326v72q0 78 -33 106.5t-127 28.5h-6z" />
<glyph unicode="&#xea;" horiz-adv-x="521" d="M171 562q-9 0 -4 7l83 93q3 3 7 3h12q4 0 7 -3l83 -93q5 -7 -4 -7h-11q-4 0 -7 3l-74 84l-74 -84q-3 -3 -7 -3h-11zM440 253h-340v-107q0 -78 33 -106.5t127 -28.5h6q94 0 127 28.5t33 106.5v5q0 6 6 6h8q6 0 6 -6v-5q0 -87 -38.5 -120.5t-141.5 -33.5h-6 q-103 0 -141.5 33.5t-38.5 120.5v198q0 87 38.5 120.5t141.5 33.5h6q103 0 141.5 -33.5t38.5 -120.5v-85q0 -6 -6 -6zM260 479q-94 0 -127 -28.5t-33 -106.5v-72h326v72q0 78 -33 106.5t-127 28.5h-6z" />
<glyph unicode="&#xeb;" horiz-adv-x="521" d="M191 587q-6 0 -6 6v66q0 6 6 6h10q6 0 6 -6v-66q0 -6 -6 -6h-10zM325 587q-6 0 -6 6v66q0 6 6 6h10q6 0 6 -6v-66q0 -6 -6 -6h-10zM440 253h-340v-107q0 -78 33 -106.5t127 -28.5h6q94 0 127 28.5t33 106.5v5q0 6 6 6h8q6 0 6 -6v-5q0 -87 -38.5 -120.5t-141.5 -33.5h-6 q-103 0 -141.5 33.5t-38.5 120.5v198q0 87 38.5 120.5t141.5 33.5h6q103 0 141.5 -33.5t38.5 -120.5v-85q0 -6 -6 -6zM260 479q-94 0 -127 -28.5t-33 -106.5v-72h326v72q0 78 -33 106.5t-127 28.5h-6z" />
<glyph unicode="&#xec;" horiz-adv-x="200" d="M123 562q-4 0 -7 3l-99 94q-2 2 -0.5 4t5.5 2h13q4 0 7 -3l94 -92q8 -8 -3 -8h-10zM96 0q-6 0 -6 6v478q0 6 6 6h8q6 0 6 -6v-478q0 -6 -6 -6h-8z" />
<glyph unicode="&#xed;" horiz-adv-x="200" d="M66 562q-11 0 -3 8l94 92q3 3 7 3h13q4 0 5.5 -2t-0.5 -4l-99 -94q-3 -3 -7 -3h-10zM96 0q-6 0 -6 6v478q0 6 6 6h8q6 0 6 -6v-478q0 -6 -6 -6h-8z" />
<glyph unicode="&#xee;" horiz-adv-x="200" d="M196 569q5 -7 -4 -7h-11q-4 0 -7 3l-74 84l-74 -84q-3 -3 -7 -3h-11q-9 0 -4 7l83 93q3 3 7 3h12q4 0 7 -3zM104 490q6 0 6 -6v-478q0 -6 -6 -6h-8q-6 0 -6 6v478q0 6 6 6h8z" />
<glyph unicode="&#xef;" horiz-adv-x="200" d="M28 587q-6 0 -6 6v66q0 6 6 6h10q6 0 6 -6v-66q0 -6 -6 -6h-10zM162 587q-6 0 -6 6v66q0 6 6 6h10q6 0 6 -6v-66q0 -6 -6 -6h-10zM96 0q-6 0 -6 6v478q0 6 6 6h8q6 0 6 -6v-478q0 -6 -6 -6h-8z" />
<glyph unicode="&#xf0;" horiz-adv-x="537" d="M475 704q7 5 7 -3v-9q0 -5 -4 -8l-80 -59q54 -64 54 -191v-288q0 -87 -39 -120.5t-144 -33.5h-6q-105 0 -144 33.5t-39 120.5v162q0 84 35 122t116 38q107 0 201 -55v21q0 121 -49 180l-97 -71q-7 -5 -7 4v8q0 5 4 8l88 64q-65 62 -215 62h-4q-6 0 -6 6v7q0 6 6 6h4 q160 0 230 -69zM432 395q-93 54 -199 54q-73 0 -103 -32.5t-30 -113.5v-157q0 -78 33.5 -106.5t129.5 -28.5h6q96 0 129.5 28.5t33.5 106.5v249z" />
<glyph unicode="&#xf1;" horiz-adv-x="533" d="M155 577q-6 0 -6 6v24q0 25 12 39.5t32 14.5q23 0 51 -19l64 -43q22 -15 39 -15q26 0 26 36v24q0 6 6 6h6q6 0 6 -6v-24q0 -25 -12 -39.5t-32 -14.5q-23 0 -51 19l-64 43q-22 15 -39 15q-26 0 -26 -36v-24q0 -6 -6 -6h-6zM297 498q81 0 116 -38t35 -122v-332q0 -6 -6 -6 h-8q-6 0 -6 6v327q0 81 -30 113.5t-103 32.5q-92 0 -185 -45v-428q0 -6 -6 -6h-8q-6 0 -6 6v478q0 6 4 6h4q4 0 5 -5l7 -34q91 47 187 47z" />
<glyph unicode="&#xf2;" d="M287 562q-4 0 -7 3l-99 94q-2 2 -0.5 4t5.5 2h13q4 0 7 -3l94 -92q8 -8 -3 -8h-10zM80 146v198q0 87 39 120.5t142 33.5h6q103 0 142 -33.5t39 -120.5v-198q0 -87 -39 -120.5t-142 -33.5h-6q-103 0 -142 33.5t-39 120.5zM100 146q0 -78 33.5 -106.5t127.5 -28.5h6 q94 0 127.5 28.5t33.5 106.5v198q0 78 -33.5 106.5t-127.5 28.5h-6q-94 0 -127.5 -28.5t-33.5 -106.5v-198z" />
<glyph unicode="&#xf3;" d="M230 562q-11 0 -3 8l94 92q3 3 7 3h13q4 0 5.5 -2t-0.5 -4l-99 -94q-3 -3 -7 -3h-10zM80 146v198q0 87 39 120.5t142 33.5h6q103 0 142 -33.5t39 -120.5v-198q0 -87 -39 -120.5t-142 -33.5h-6q-103 0 -142 33.5t-39 120.5zM100 146q0 -78 33.5 -106.5t127.5 -28.5h6 q94 0 127.5 28.5t33.5 106.5v198q0 78 -33.5 106.5t-127.5 28.5h-6q-94 0 -127.5 -28.5t-33.5 -106.5v-198z" />
<glyph unicode="&#xf4;" d="M172 562q-9 0 -4 7l83 93q3 3 7 3h12q4 0 7 -3l83 -93q5 -7 -4 -7h-11q-4 0 -7 3l-74 84l-74 -84q-3 -3 -7 -3h-11zM267 498q103 0 142 -33.5t39 -120.5v-198q0 -87 -39 -120.5t-142 -33.5h-6q-103 0 -142 33.5t-39 120.5v198q0 87 39 120.5t142 33.5h6zM428 146v198 q0 78 -33.5 106.5t-127.5 28.5h-6q-94 0 -127.5 -28.5t-33.5 -106.5v-198q0 -78 33.5 -106.5t127.5 -28.5h6q94 0 127.5 28.5t33.5 106.5z" />
<glyph unicode="&#xf5;" d="M341 566q-23 0 -51 19l-64 43q-22 15 -39 15q-26 0 -26 -36v-24q0 -6 -6 -6h-6q-6 0 -6 6v24q0 25 12 39.5t32 14.5q23 0 51 -19l64 -43q22 -15 39 -15q26 0 26 36v24q0 6 6 6h6q6 0 6 -6v-24q0 -25 -12 -39.5t-32 -14.5zM80 146v198q0 87 39 120.5t142 33.5h6 q103 0 142 -33.5t39 -120.5v-198q0 -87 -39 -120.5t-142 -33.5h-6q-103 0 -142 33.5t-39 120.5zM100 146q0 -78 33.5 -106.5t127.5 -28.5h6q94 0 127.5 28.5t33.5 106.5v198q0 78 -33.5 106.5t-127.5 28.5h-6q-94 0 -127.5 -28.5t-33.5 -106.5v-198z" />
<glyph unicode="&#xf6;" d="M192 587q-6 0 -6 6v66q0 6 6 6h10q6 0 6 -6v-66q0 -6 -6 -6h-10zM326 587q-6 0 -6 6v66q0 6 6 6h10q6 0 6 -6v-66q0 -6 -6 -6h-10zM80 146v198q0 87 39 120.5t142 33.5h6q103 0 142 -33.5t39 -120.5v-198q0 -87 -39 -120.5t-142 -33.5h-6q-103 0 -142 33.5t-39 120.5z M100 146q0 -78 33.5 -106.5t127.5 -28.5h6q94 0 127.5 28.5t33.5 106.5v198q0 78 -33.5 106.5t-127.5 28.5h-6q-94 0 -127.5 -28.5t-33.5 -106.5v-198z" />
<glyph unicode="&#xf7;" horiz-adv-x="500" d="M245 380q-6 0 -6 6v58q0 6 6 6h10q6 0 6 -6v-58q0 -6 -6 -6h-10zM66 243q-6 0 -6 6v7q0 6 6 6h368q6 0 6 -6v-7q0 -6 -6 -6h-368zM245 50q-6 0 -6 6v58q0 6 6 6h10q6 0 6 -6v-58q0 -6 -6 -6h-10z" />
<glyph unicode="&#xf8;" d="M389 478q32 -17 45.5 -48.5t13.5 -85.5v-198q0 -87 -39 -120.5t-142 -33.5h-6q-67 0 -106 13l-21 -42q-2 -4 -7 -4h-7q-7 0 -5 6l24 47q-32 17 -45.5 48.5t-13.5 85.5v198q0 87 39 120.5t142 33.5h6q67 0 106 -13l21 42q2 4 7 4h7q8 0 5 -6zM100 146q0 -90 47 -116 l217 437q-31 12 -97 12h-6q-94 0 -127.5 -28.5t-33.5 -106.5v-198zM428 146v198q0 90 -47 116l-217 -437q31 -12 97 -12h6q94 0 127.5 28.5t33.5 106.5z" />
<glyph unicode="&#xf9;" horiz-adv-x="529" d="M281 565l-99 94q-2 2 -0.5 4t5.5 2h13q4 0 7 -3l94 -92q8 -8 -3 -8h-10q-4 0 -7 3zM433 490q6 0 6 -6v-478q0 -6 -5 -6h-2q-5 0 -6 5l-7 34q-88 -47 -183 -47q-81 0 -116 38t-35 122v332q0 6 6 6h8q6 0 6 -6v-327q0 -81 30 -113.5t103 -32.5q94 0 181 45v428q0 6 6 6h8z " />
<glyph unicode="&#xfa;" horiz-adv-x="529" d="M231 562q-11 0 -3 8l94 92q3 3 7 3h13q4 0 5.5 -2t-0.5 -4l-99 -94q-3 -3 -7 -3h-10zM433 490q6 0 6 -6v-478q0 -6 -5 -6h-2q-5 0 -6 5l-7 34q-88 -47 -183 -47q-81 0 -116 38t-35 122v332q0 6 6 6h8q6 0 6 -6v-327q0 -81 30 -113.5t103 -32.5q94 0 181 45v428q0 6 6 6h8 z" />
<glyph unicode="&#xfb;" horiz-adv-x="529" d="M173 562q-9 0 -4 7l83 93q3 3 7 3h12q4 0 7 -3l83 -93q5 -7 -4 -7h-11q-4 0 -7 3l-74 84l-74 -84q-3 -3 -7 -3h-11zM433 490q6 0 6 -6v-478q0 -6 -5 -6h-2q-5 0 -6 5l-7 34q-88 -47 -183 -47q-81 0 -116 38t-35 122v332q0 6 6 6h8q6 0 6 -6v-327q0 -81 30 -113.5 t103 -32.5q94 0 181 45v428q0 6 6 6h8z" />
<glyph unicode="&#xfc;" horiz-adv-x="529" d="M193 587q-6 0 -6 6v66q0 6 6 6h10q6 0 6 -6v-66q0 -6 -6 -6h-10zM327 587q-6 0 -6 6v66q0 6 6 6h10q6 0 6 -6v-66q0 -6 -6 -6h-10zM433 490q6 0 6 -6v-478q0 -6 -5 -6h-2q-5 0 -6 5l-7 34q-88 -47 -183 -47q-81 0 -116 38t-35 122v332q0 6 6 6h8q6 0 6 -6v-327 q0 -81 30 -113.5t103 -32.5q94 0 181 45v428q0 6 6 6h8z" />
<glyph unicode="&#xfd;" horiz-adv-x="433" d="M185 562q-11 0 -3 8l94 92q3 3 7 3h13q4 0 5.5 -2t-0.5 -4l-99 -94q-3 -3 -7 -3h-10zM412 490q7 0 5 -5l-267 -682q-2 -5 -7 -5h-10q-7 0 -5 5l77 197l-185 485q-2 5 5 5h10q5 0 7 -5l102 -267q48 -128 73 -198q40 112 74 199l104 266q2 5 7 5h10z" />
<glyph unicode="&#xfe;" horiz-adv-x="530" d="M299 498q81 0 116 -38t35 -122v-186q0 -84 -35 -122t-116 -38q-96 0 -189 48v-234q0 -6 -6 -6h-8q-6 0 -6 6v888q0 6 6 6h8q6 0 6 -6v-244q93 48 189 48zM430 333q0 81 -30 113.5t-103 32.5q-95 0 -187 -46v-376q92 -46 187 -46q73 0 103 32.5t30 113.5v176z" />
<glyph unicode="&#xff;" horiz-adv-x="433" d="M147 587q-6 0 -6 6v66q0 6 6 6h10q6 0 6 -6v-66q0 -6 -6 -6h-10zM281 587q-6 0 -6 6v66q0 6 6 6h10q6 0 6 -6v-66q0 -6 -6 -6h-10zM412 490q7 0 5 -5l-267 -682q-2 -5 -7 -5h-10q-7 0 -5 5l77 197l-185 485q-2 5 5 5h10q5 0 7 -5l102 -267q48 -128 73 -198q40 112 74 199 l104 266q2 5 7 5h10z" />
<glyph unicode="&#x100;" horiz-adv-x="510" d="M161 742q-6 0 -6 6v7q0 6 6 6h188q6 0 6 -6v-7q0 -6 -6 -6h-188zM488 6q2 -6 -5 -6h-9q-5 0 -7 6l-64 183h-296l-65 -186q-1 -3 -6 -3h-9q-7 0 -5 6l221 633q2 6 7 6h10q5 0 7 -6zM114 208h282l-76 219q-36 102 -65 195q-29 -93 -65 -195z" />
<glyph unicode="&#x101;" horiz-adv-x="516" d="M165 587q-6 0 -6 6v7q0 6 6 6h188q6 0 6 -6v-7q0 -6 -6 -6h-188zM259 498q97 0 134.5 -33.5t37.5 -118.5v-340q0 -6 -4 -6h-4q-4 0 -5 5l-7 34q-91 -47 -191 -47q-81 0 -118 31.5t-37 101.5v12q0 68 33.5 95.5t116.5 27.5h196v86q0 76 -32 104.5t-120 28.5h-6 q-88 0 -120 -28.5t-32 -104.5v-4q0 -6 -6 -6h-8q-6 0 -6 6v4q0 85 37.5 118.5t134.5 33.5h6zM85 125q0 -62 32 -88t105 -26q96 0 189 45v185h-198q-73 0 -100.5 -23t-27.5 -81v-12z" />
<glyph unicode="&#x102;" horiz-adv-x="510" d="M253 714q-54 0 -73 18t-19 67v15q0 6 6 6h8q6 0 6 -6v-15q0 -41 13.5 -53.5t58.5 -12.5h4q45 0 58.5 12.5t13.5 53.5v15q0 6 6 6h8q6 0 6 -6v-15q0 -49 -19 -67t-73 -18h-4zM488 6q2 -6 -5 -6h-9q-5 0 -7 6l-64 183h-296l-65 -186q-1 -3 -6 -3h-9q-7 0 -5 6l221 633 q2 6 7 6h10q5 0 7 -6zM114 208h282l-76 219q-36 102 -65 195q-29 -93 -65 -195z" />
<glyph unicode="&#x103;" horiz-adv-x="516" d="M257 559q-54 0 -73 18t-19 67v15q0 6 6 6h8q6 0 6 -6v-15q0 -41 13.5 -53.5t58.5 -12.5h4q45 0 58.5 12.5t13.5 53.5v15q0 6 6 6h8q6 0 6 -6v-15q0 -49 -19 -67t-73 -18h-4zM259 498q97 0 134.5 -33.5t37.5 -118.5v-340q0 -6 -4 -6h-4q-4 0 -5 5l-7 34q-91 -47 -191 -47 q-81 0 -118 31.5t-37 101.5v12q0 68 33.5 95.5t116.5 27.5h196v86q0 76 -32 104.5t-120 28.5h-6q-88 0 -120 -28.5t-32 -104.5v-4q0 -6 -6 -6h-8q-6 0 -6 6v4q0 85 37.5 118.5t134.5 33.5h6zM85 125q0 -62 32 -88t105 -26q96 0 189 45v185h-198q-73 0 -100.5 -23t-27.5 -81 v-12z" />
<glyph unicode="&#x104;" horiz-adv-x="510" d="M485 -189q6 0 6 -6v-7q0 -6 -6 -6h-35q-46 0 -64.5 14.5t-18.5 50.5v8q0 24 10.5 41.5t49.5 54.5l42 41l-2 4l-64 183h-296l-65 -186q-1 -3 -6 -3h-9q-7 0 -5 6l221 633q2 6 7 6h10q5 0 7 -6l221 -633v-1q2 -6 -2 -10l-40 -40q-41 -41 -50 -55t-9 -35v-8q0 -28 12 -37 t51 -9h35zM114 208h282l-76 219q-36 102 -65 195q-29 -93 -65 -195z" />
<glyph unicode="&#x105;" horiz-adv-x="516" d="M427 -189q6 0 6 -6v-7q0 -6 -6 -6h-35q-46 0 -64.5 14.5t-18.5 50.5v8q0 24 10.5 41.5t49.5 54.5l48 47l-6 31q-91 -47 -191 -47q-81 0 -118 31.5t-37 101.5v12q0 68 33.5 95.5t116.5 27.5h196v86q0 76 -32 104.5t-120 28.5h-6q-88 0 -120 -28.5t-32 -104.5v-4 q0 -6 -6 -6h-8q-6 0 -6 6v4q0 85 37.5 118.5t134.5 33.5h6q97 0 134.5 -33.5t37.5 -118.5v-344q0 -4 -3 -7l-40 -40q-41 -41 -50 -55t-9 -35v-8q0 -28 12 -37t51 -9h35zM85 125q0 -62 32 -88t105 -26q96 0 189 45v185h-198q-73 0 -100.5 -23t-27.5 -81v-12z" />
<glyph unicode="&#x106;" horiz-adv-x="560" d="M256 717q-11 0 -3 8l94 92q3 3 7 3h13q4 0 5.5 -2t-0.5 -4l-99 -94q-3 -3 -7 -3h-10zM287 -8q-117 0 -159.5 35.5t-42.5 128.5v333q0 93 42.5 128.5t159.5 35.5h6q117 0 159.5 -35.5t42.5 -128.5v-34q0 -6 -6 -6h-8q-6 0 -6 6v34q0 84 -37.5 114.5t-144.5 30.5h-6 q-107 0 -144.5 -30.5t-37.5 -114.5v-333q0 -84 37.5 -114.5t144.5 -30.5h6q107 0 144.5 30.5t37.5 114.5v34q0 6 6 6h8q6 0 6 -6v-34q0 -93 -42.5 -128.5t-159.5 -35.5h-6z" />
<glyph unicode="&#x107;" horiz-adv-x="507" d="M225 562q-11 0 -3 8l94 92q3 3 7 3h13q4 0 5.5 -2t-0.5 -4l-99 -94q-3 -3 -7 -3h-10zM80 146v198q0 87 38 120.5t138 33.5h6q100 0 138 -33.5t38 -120.5v-9q0 -6 -6 -6h-8q-6 0 -6 6v9q0 78 -32.5 106.5t-123.5 28.5h-6q-91 0 -123.5 -28.5t-32.5 -106.5v-198 q0 -78 32.5 -106.5t123.5 -28.5h6q91 0 123.5 28.5t32.5 106.5v9q0 6 6 6h8q6 0 6 -6v-9q0 -87 -38 -120.5t-138 -33.5h-6q-100 0 -138 33.5t-38 120.5z" />
<glyph unicode="&#x108;" horiz-adv-x="560" d="M198 717q-9 0 -4 7l83 93q3 3 7 3h12q4 0 7 -3l83 -93q5 -7 -4 -7h-11q-4 0 -7 3l-74 84l-74 -84q-3 -3 -7 -3h-11zM481 449q-6 0 -6 6v34q0 84 -37.5 114.5t-144.5 30.5h-6q-107 0 -144.5 -30.5t-37.5 -114.5v-333q0 -84 37.5 -114.5t144.5 -30.5h6q107 0 144.5 30.5 t37.5 114.5v34q0 6 6 6h8q6 0 6 -6v-34q0 -93 -42.5 -128.5t-159.5 -35.5h-6q-117 0 -159.5 35.5t-42.5 128.5v333q0 93 42.5 128.5t159.5 35.5h6q117 0 159.5 -35.5t42.5 -128.5v-34q0 -6 -6 -6h-8z" />
<glyph unicode="&#x109;" horiz-adv-x="507" d="M167 562q-9 0 -4 7l83 93q3 3 7 3h12q4 0 7 -3l83 -93q5 -7 -4 -7h-11q-4 0 -7 3l-74 84l-74 -84q-3 -3 -7 -3h-11zM424 329q-6 0 -6 6v9q0 78 -32.5 106.5t-123.5 28.5h-6q-91 0 -123.5 -28.5t-32.5 -106.5v-198q0 -78 32.5 -106.5t123.5 -28.5h6q91 0 123.5 28.5 t32.5 106.5v9q0 6 6 6h8q6 0 6 -6v-9q0 -87 -38 -120.5t-138 -33.5h-6q-100 0 -138 33.5t-38 120.5v198q0 87 38 120.5t138 33.5h6q100 0 138 -33.5t38 -120.5v-9q0 -6 -6 -6h-8z" />
<glyph unicode="&#x10a;" horiz-adv-x="560" d="M285 742q-6 0 -6 6v66q0 6 6 6h10q6 0 6 -6v-66q0 -6 -6 -6h-10zM287 -8q-117 0 -159.5 35.5t-42.5 128.5v333q0 93 42.5 128.5t159.5 35.5h6q117 0 159.5 -35.5t42.5 -128.5v-34q0 -6 -6 -6h-8q-6 0 -6 6v34q0 84 -37.5 114.5t-144.5 30.5h-6q-107 0 -144.5 -30.5 t-37.5 -114.5v-333q0 -84 37.5 -114.5t144.5 -30.5h6q107 0 144.5 30.5t37.5 114.5v34q0 6 6 6h8q6 0 6 -6v-34q0 -93 -42.5 -128.5t-159.5 -35.5h-6z" />
<glyph unicode="&#x10b;" horiz-adv-x="507" d="M254 587q-6 0 -6 6v66q0 6 6 6h10q6 0 6 -6v-66q0 -6 -6 -6h-10zM80 146v198q0 87 38 120.5t138 33.5h6q100 0 138 -33.5t38 -120.5v-9q0 -6 -6 -6h-8q-6 0 -6 6v9q0 78 -32.5 106.5t-123.5 28.5h-6q-91 0 -123.5 -28.5t-32.5 -106.5v-198q0 -78 32.5 -106.5t123.5 -28.5 h6q91 0 123.5 28.5t32.5 106.5v9q0 6 6 6h8q6 0 6 -6v-9q0 -87 -38 -120.5t-138 -33.5h-6q-100 0 -138 33.5t-38 120.5z" />
<glyph unicode="&#x10c;" horiz-adv-x="560" d="M277 720l-83 93q-5 7 4 7h11q4 0 7 -3l74 -84l74 84q3 3 7 3h11q9 0 4 -7l-83 -93q-3 -3 -7 -3h-12q-4 0 -7 3zM481 449q-6 0 -6 6v34q0 84 -37.5 114.5t-144.5 30.5h-6q-107 0 -144.5 -30.5t-37.5 -114.5v-333q0 -84 37.5 -114.5t144.5 -30.5h6q107 0 144.5 30.5 t37.5 114.5v34q0 6 6 6h8q6 0 6 -6v-34q0 -93 -42.5 -128.5t-159.5 -35.5h-6q-117 0 -159.5 35.5t-42.5 128.5v333q0 93 42.5 128.5t159.5 35.5h6q117 0 159.5 -35.5t42.5 -128.5v-34q0 -6 -6 -6h-8z" />
<glyph unicode="&#x10d;" horiz-adv-x="507" d="M246 565l-83 93q-5 7 4 7h11q4 0 7 -3l74 -84l74 84q3 3 7 3h11q9 0 4 -7l-83 -93q-3 -3 -7 -3h-12q-4 0 -7 3zM424 329q-6 0 -6 6v9q0 78 -32.5 106.5t-123.5 28.5h-6q-91 0 -123.5 -28.5t-32.5 -106.5v-198q0 -78 32.5 -106.5t123.5 -28.5h6q91 0 123.5 28.5 t32.5 106.5v9q0 6 6 6h8q6 0 6 -6v-9q0 -87 -38 -120.5t-138 -33.5h-6q-100 0 -138 33.5t-38 120.5v198q0 87 38 120.5t138 33.5h6q100 0 138 -33.5t38 -120.5v-9q0 -6 -6 -6h-8z" />
<glyph unicode="&#x10e;" horiz-adv-x="578" d="M271 720l-83 93q-5 7 4 7h11q4 0 7 -3l74 -84l74 84q3 3 7 3h11q9 0 4 -7l-83 -93q-3 -3 -7 -3h-12q-4 0 -7 3zM316 645q96 0 136.5 -33t40.5 -111v-357q0 -78 -40.5 -111t-136.5 -33h-215q-6 0 -6 6v633q0 6 6 6h215zM473 144v357q0 71 -36.5 98t-128.5 27h-193v-607 h193q92 0 128.5 27t36.5 98z" />
<glyph unicode="&#x10f;" horiz-adv-x="530" d="M544 708q6 0 6 -6v-49q0 -5 -1 -14l-6 -60q-1 -6 -7 -6h-1q-5 0 -5 6v123q0 6 6 6h8zM434 700q6 0 6 -6v-688q0 -6 -5 -6h-3q-4 0 -5 5l-7 35q-93 -48 -189 -48q-81 0 -116 38t-35 122v186q0 84 35 122t116 38q96 0 189 -48v244q0 6 6 6h8zM100 157q0 -81 30 -113.5 t103 -32.5q95 0 187 46v376q-92 46 -187 46q-73 0 -103 -32.5t-30 -113.5v-176z" />
<glyph unicode="&#x110;" horiz-adv-x="578" d="M316 645q96 0 136.5 -33t40.5 -111v-357q0 -78 -40.5 -111t-136.5 -33h-215q-6 0 -6 6v311h-69q-6 0 -6 6v6q0 6 6 6h69v304q0 6 6 6h215zM473 144v357q0 71 -36.5 98t-128.5 27h-193v-291h155q6 0 6 -6v-6q0 -6 -6 -6h-155v-298h193q92 0 128.5 27t36.5 98z" />
<glyph unicode="&#x111;" horiz-adv-x="530" d="M490 631q6 0 6 -6v-6q0 -6 -6 -6h-50v-607q0 -6 -5 -6h-3q-4 0 -5 5l-7 35q-93 -48 -189 -48q-81 0 -116 38t-35 122v186q0 84 35 122t116 38q96 0 189 -48v163h-174q-6 0 -6 6v6q0 6 6 6h174v63q0 6 6 6h8q6 0 6 -6v-63h50zM100 157q0 -81 30 -113.5t103 -32.5 q95 0 187 46v376q-92 46 -187 46q-73 0 -103 -32.5t-30 -113.5v-176z" />
<glyph unicode="&#x112;" horiz-adv-x="486" d="M164 742q-6 0 -6 6v7q0 6 6 6h188q6 0 6 -6v-7q0 -6 -6 -6h-188zM428 626h-313v-289h283q6 0 6 -6v-7q0 -6 -6 -6h-283v-299h313q6 0 6 -6v-7q0 -6 -6 -6h-327q-6 0 -6 6v633q0 6 6 6h327q6 0 6 -6v-7q0 -6 -6 -6z" />
<glyph unicode="&#x113;" horiz-adv-x="521" d="M169 587q-6 0 -6 6v7q0 6 6 6h188q6 0 6 -6v-7q0 -6 -6 -6h-188zM440 253h-340v-107q0 -78 33 -106.5t127 -28.5h6q94 0 127 28.5t33 106.5v5q0 6 6 6h8q6 0 6 -6v-5q0 -87 -38.5 -120.5t-141.5 -33.5h-6q-103 0 -141.5 33.5t-38.5 120.5v198q0 87 38.5 120.5t141.5 33.5 h6q103 0 141.5 -33.5t38.5 -120.5v-85q0 -6 -6 -6zM260 479q-94 0 -127 -28.5t-33 -106.5v-72h326v72q0 78 -33 106.5t-127 28.5h-6z" />
<glyph unicode="&#x114;" horiz-adv-x="486" d="M256 714q-54 0 -73 18t-19 67v15q0 6 6 6h8q6 0 6 -6v-15q0 -41 13.5 -53.5t58.5 -12.5h4q45 0 58.5 12.5t13.5 53.5v15q0 6 6 6h8q6 0 6 -6v-15q0 -49 -19 -67t-73 -18h-4zM428 626h-313v-289h283q6 0 6 -6v-7q0 -6 -6 -6h-283v-299h313q6 0 6 -6v-7q0 -6 -6 -6h-327 q-6 0 -6 6v633q0 6 6 6h327q6 0 6 -6v-7q0 -6 -6 -6z" />
<glyph unicode="&#x115;" horiz-adv-x="521" d="M261 559q-54 0 -73 18t-19 67v15q0 6 6 6h8q6 0 6 -6v-15q0 -41 13.5 -53.5t58.5 -12.5h4q45 0 58.5 12.5t13.5 53.5v15q0 6 6 6h8q6 0 6 -6v-15q0 -49 -19 -67t-73 -18h-4zM440 253h-340v-107q0 -78 33 -106.5t127 -28.5h6q94 0 127 28.5t33 106.5v5q0 6 6 6h8q6 0 6 -6 v-5q0 -87 -38.5 -120.5t-141.5 -33.5h-6q-103 0 -141.5 33.5t-38.5 120.5v198q0 87 38.5 120.5t141.5 33.5h6q103 0 141.5 -33.5t38.5 -120.5v-85q0 -6 -6 -6zM260 479q-94 0 -127 -28.5t-33 -106.5v-72h326v72q0 78 -33 106.5t-127 28.5h-6z" />
<glyph unicode="&#x116;" horiz-adv-x="486" d="M253 742q-6 0 -6 6v66q0 6 6 6h10q6 0 6 -6v-66q0 -6 -6 -6h-10zM428 626h-313v-289h283q6 0 6 -6v-7q0 -6 -6 -6h-283v-299h313q6 0 6 -6v-7q0 -6 -6 -6h-327q-6 0 -6 6v633q0 6 6 6h327q6 0 6 -6v-7q0 -6 -6 -6z" />
<glyph unicode="&#x117;" horiz-adv-x="521" d="M258 587q-6 0 -6 6v66q0 6 6 6h10q6 0 6 -6v-66q0 -6 -6 -6h-10zM440 253h-340v-107q0 -78 33 -106.5t127 -28.5h6q94 0 127 28.5t33 106.5v5q0 6 6 6h8q6 0 6 -6v-5q0 -87 -38.5 -120.5t-141.5 -33.5h-6q-103 0 -141.5 33.5t-38.5 120.5v198q0 87 38.5 120.5t141.5 33.5 h6q103 0 141.5 -33.5t38.5 -120.5v-85q0 -6 -6 -6zM260 479q-94 0 -127 -28.5t-33 -106.5v-72h326v72q0 78 -33 106.5t-127 28.5h-6z" />
<glyph unicode="&#x118;" horiz-adv-x="486" d="M430 -189q6 0 6 -6v-7q0 -6 -6 -6h-35q-46 0 -64.5 14.5t-18.5 50.5v8q0 24 10.5 41.5t49.5 54.5l40 39h-311q-6 0 -6 6v633q0 6 6 6h327q6 0 6 -6v-7q0 -6 -6 -6h-313v-289h283q6 0 6 -6v-7q0 -6 -6 -6h-283v-299h313q6 0 6 -6v-11q0 -4 -3 -7l-40 -40q-41 -41 -50 -55 t-9 -35v-8q0 -28 12 -37t51 -9h35z" />
<glyph unicode="&#x119;" horiz-adv-x="521" d="M440 253h-340v-107q0 -78 33 -106.5t127 -28.5h6q94 0 127 28.5t33 106.5v5q0 6 6 6h8q6 0 6 -6v-5q0 -68 -22 -102t-77 -45l-3 -4l-40 -40q-41 -41 -50 -55t-9 -35v-8q0 -28 12 -37t51 -9h35q6 0 6 -6v-7q0 -6 -6 -6h-35q-46 0 -64.5 14.5t-18.5 50.5v8q0 24 10.5 41.5 t49.5 54.5l34 33q-32 -2 -53 -2h-6q-103 0 -141.5 33.5t-38.5 120.5v198q0 87 38.5 120.5t141.5 33.5h6q103 0 141.5 -33.5t38.5 -120.5v-85q0 -6 -6 -6zM260 479q-94 0 -127 -28.5t-33 -106.5v-72h326v72q0 78 -33 106.5t-127 28.5h-6z" />
<glyph unicode="&#x11a;" horiz-adv-x="486" d="M245 720l-83 93q-5 7 4 7h11q4 0 7 -3l74 -84l74 84q3 3 7 3h11q9 0 4 -7l-83 -93q-3 -3 -7 -3h-12q-4 0 -7 3zM428 626h-313v-289h283q6 0 6 -6v-7q0 -6 -6 -6h-283v-299h313q6 0 6 -6v-7q0 -6 -6 -6h-327q-6 0 -6 6v633q0 6 6 6h327q6 0 6 -6v-7q0 -6 -6 -6z" />
<glyph unicode="&#x11b;" horiz-adv-x="521" d="M250 565l-83 93q-5 7 4 7h11q4 0 7 -3l74 -84l74 84q3 3 7 3h11q9 0 4 -7l-83 -93q-3 -3 -7 -3h-12q-4 0 -7 3zM440 253h-340v-107q0 -78 33 -106.5t127 -28.5h6q94 0 127 28.5t33 106.5v5q0 6 6 6h8q6 0 6 -6v-5q0 -87 -38.5 -120.5t-141.5 -33.5h-6q-103 0 -141.5 33.5 t-38.5 120.5v198q0 87 38.5 120.5t141.5 33.5h6q103 0 141.5 -33.5t38.5 -120.5v-85q0 -6 -6 -6zM260 479q-94 0 -127 -28.5t-33 -106.5v-72h326v72q0 78 -33 106.5t-127 28.5h-6z" />
<glyph unicode="&#x11c;" horiz-adv-x="581" d="M200 717q-9 0 -4 7l83 93q3 3 7 3h12q4 0 7 -3l83 -93q5 -7 -4 -7h-11q-4 0 -7 3l-74 84l-74 -84q-3 -3 -7 -3h-11zM487 469q-6 0 -6 6v14q0 85 -38 115t-147 30h-6q-109 0 -147 -30t-38 -115v-333q0 -85 38 -115t147 -30h6q109 0 147 30t38 115v136h-158q-6 0 -6 6v7 q0 6 6 6h172q6 0 6 -6v-149q0 -93 -43 -128.5t-162 -35.5h-6q-119 0 -162 35.5t-43 128.5v333q0 93 43 128.5t162 35.5h6q119 0 162 -35.5t43 -128.5v-14q0 -6 -6 -6h-8z" />
<glyph unicode="&#x11d;" horiz-adv-x="506" d="M171 562q-9 0 -4 7l83 93q3 3 7 3h12q4 0 7 -3l83 -93q5 -7 -4 -7h-11q-4 0 -7 3l-74 84l-74 -84q-3 -3 -7 -3h-11zM470 490q0 -5 -4 -5l-109 -4q46 -9 63 -38t17 -94v-34q0 -90 -35.5 -119.5t-143.5 -29.5h-6q-63 0 -96 8q-63 -12 -63 -73v-13q0 -32 18.5 -45.5 t67.5 -13.5h164q74 0 100.5 -23t26.5 -86v-19q0 -66 -38.5 -87.5t-164.5 -21.5h-8q-124 0 -162.5 21.5t-38.5 87.5v12q0 47 12.5 72t40.5 36q-38 16 -38 67v13q0 64 59 81q-33 14 -46 44.5t-13 88.5v34q0 90 35.5 119.5t143.5 29.5h212q6 0 6 -5v-3zM417 349 q0 81 -29.5 105.5t-129.5 24.5h-6q-100 0 -129.5 -24.5t-29.5 -105.5v-34q0 -81 29.5 -105.5t129.5 -24.5h6q100 0 129.5 24.5t29.5 105.5v34zM333 10h-156q-24 0 -42 3q-32 -8 -44.5 -29t-12.5 -69v-14q0 -39 12.5 -56.5t50 -25.5t118.5 -8h8q82 0 119.5 8t50.5 25.5 t13 56.5v19q0 56 -21.5 73t-95.5 17z" />
<glyph unicode="&#x11e;" horiz-adv-x="581" d="M290 714q-54 0 -73 18t-19 67v15q0 6 6 6h8q6 0 6 -6v-15q0 -41 13.5 -53.5t58.5 -12.5h4q45 0 58.5 12.5t13.5 53.5v15q0 6 6 6h8q6 0 6 -6v-15q0 -49 -19 -67t-73 -18h-4zM487 469q-6 0 -6 6v14q0 85 -38 115t-147 30h-6q-109 0 -147 -30t-38 -115v-333q0 -85 38 -115 t147 -30h6q109 0 147 30t38 115v136h-158q-6 0 -6 6v7q0 6 6 6h172q6 0 6 -6v-149q0 -93 -43 -128.5t-162 -35.5h-6q-119 0 -162 35.5t-43 128.5v333q0 93 43 128.5t162 35.5h6q119 0 162 -35.5t43 -128.5v-14q0 -6 -6 -6h-8z" />
<glyph unicode="&#x11f;" horiz-adv-x="506" d="M261 559q-54 0 -73 18t-19 67v15q0 6 6 6h8q6 0 6 -6v-15q0 -41 13.5 -53.5t58.5 -12.5h4q45 0 58.5 12.5t13.5 53.5v15q0 6 6 6h8q6 0 6 -6v-15q0 -49 -19 -67t-73 -18h-4zM470 490q0 -5 -4 -5l-109 -4q46 -9 63 -38t17 -94v-34q0 -90 -35.5 -119.5t-143.5 -29.5h-6 q-63 0 -96 8q-63 -12 -63 -73v-13q0 -32 18.5 -45.5t67.5 -13.5h164q74 0 100.5 -23t26.5 -86v-19q0 -66 -38.5 -87.5t-164.5 -21.5h-8q-124 0 -162.5 21.5t-38.5 87.5v12q0 47 12.5 72t40.5 36q-38 16 -38 67v13q0 64 59 81q-33 14 -46 44.5t-13 88.5v34q0 90 35.5 119.5 t143.5 29.5h212q6 0 6 -5v-3zM417 349q0 81 -29.5 105.5t-129.5 24.5h-6q-100 0 -129.5 -24.5t-29.5 -105.5v-34q0 -81 29.5 -105.5t129.5 -24.5h6q100 0 129.5 24.5t29.5 105.5v34zM333 10h-156q-24 0 -42 3q-32 -8 -44.5 -29t-12.5 -69v-14q0 -39 12.5 -56.5t50 -25.5 t118.5 -8h8q82 0 119.5 8t50.5 25.5t13 56.5v19q0 56 -21.5 73t-95.5 17z" />
<glyph unicode="&#x120;" horiz-adv-x="581" d="M287 742q-6 0 -6 6v66q0 6 6 6h10q6 0 6 -6v-66q0 -6 -6 -6h-10zM487 469q-6 0 -6 6v14q0 85 -38 115t-147 30h-6q-109 0 -147 -30t-38 -115v-333q0 -85 38 -115t147 -30h6q109 0 147 30t38 115v136h-158q-6 0 -6 6v7q0 6 6 6h172q6 0 6 -6v-149q0 -93 -43 -128.5 t-162 -35.5h-6q-119 0 -162 35.5t-43 128.5v333q0 93 43 128.5t162 35.5h6q119 0 162 -35.5t43 -128.5v-14q0 -6 -6 -6h-8z" />
<glyph unicode="&#x121;" horiz-adv-x="506" d="M258 587q-6 0 -6 6v66q0 6 6 6h10q6 0 6 -6v-66q0 -6 -6 -6h-10zM470 490q0 -5 -4 -5l-109 -4q46 -9 63 -38t17 -94v-34q0 -90 -35.5 -119.5t-143.5 -29.5h-6q-63 0 -96 8q-63 -12 -63 -73v-13q0 -32 18.5 -45.5t67.5 -13.5h164q74 0 100.5 -23t26.5 -86v-19 q0 -66 -38.5 -87.5t-164.5 -21.5h-8q-124 0 -162.5 21.5t-38.5 87.5v12q0 47 12.5 72t40.5 36q-38 16 -38 67v13q0 64 59 81q-33 14 -46 44.5t-13 88.5v34q0 90 35.5 119.5t143.5 29.5h212q6 0 6 -5v-3zM417 349q0 81 -29.5 105.5t-129.5 24.5h-6q-100 0 -129.5 -24.5 t-29.5 -105.5v-34q0 -81 29.5 -105.5t129.5 -24.5h6q100 0 129.5 24.5t29.5 105.5v34zM333 10h-156q-24 0 -42 3q-32 -8 -44.5 -29t-12.5 -69v-14q0 -39 12.5 -56.5t50 -25.5t118.5 -8h8q82 0 119.5 8t50.5 25.5t13 56.5v19q0 56 -21.5 73t-95.5 17z" />
<glyph unicode="&#x122;" horiz-adv-x="581" d="M487 469q-6 0 -6 6v14q0 85 -38 115t-147 30h-6q-109 0 -147 -30t-38 -115v-333q0 -85 38 -115t147 -30h6q109 0 147 30t38 115v136h-158q-6 0 -6 6v7q0 6 6 6h172q6 0 6 -6v-149q0 -93 -43 -128.5t-162 -35.5h-6q-119 0 -162 35.5t-43 128.5v333q0 93 43 128.5t162 35.5 h6q119 0 162 -35.5t43 -128.5v-14q0 -6 -6 -6h-8zM296 -79q6 0 6 -6v-49q0 -5 -1 -14l-6 -60q-1 -6 -7 -6h-1q-5 0 -5 6v123q0 6 6 6h8z" />
<glyph unicode="&#x123;" horiz-adv-x="506" d="M259 562q-6 0 -6 6v123q0 6 5 6h1q6 0 7 -6l6 -60q1 -9 1 -14v-49q0 -6 -6 -6h-8zM470 490q0 -5 -4 -5l-109 -4q46 -9 63 -38t17 -94v-34q0 -90 -35.5 -119.5t-143.5 -29.5h-6q-63 0 -96 8q-63 -12 -63 -73v-13q0 -32 18.5 -45.5t67.5 -13.5h164q74 0 100.5 -23t26.5 -86 v-19q0 -66 -38.5 -87.5t-164.5 -21.5h-8q-124 0 -162.5 21.5t-38.5 87.5v12q0 47 12.5 72t40.5 36q-38 16 -38 67v13q0 64 59 81q-33 14 -46 44.5t-13 88.5v34q0 90 35.5 119.5t143.5 29.5h212q6 0 6 -5v-3zM417 349q0 81 -29.5 105.5t-129.5 24.5h-6q-100 0 -129.5 -24.5 t-29.5 -105.5v-34q0 -81 29.5 -105.5t129.5 -24.5h6q100 0 129.5 24.5t29.5 105.5v34zM333 10h-156q-24 0 -42 3q-32 -8 -44.5 -29t-12.5 -69v-14q0 -39 12.5 -56.5t50 -25.5t118.5 -8h8q82 0 119.5 8t50.5 25.5t13 56.5v19q0 56 -21.5 73t-95.5 17z" />
<glyph unicode="&#x124;" horiz-adv-x="598" d="M207 717q-9 0 -4 7l83 93q3 3 7 3h12q4 0 7 -3l83 -93q5 -7 -4 -7h-11q-4 0 -7 3l-74 84l-74 -84q-3 -3 -7 -3h-11zM497 645q6 0 6 -6v-633q0 -6 -6 -6h-8q-6 0 -6 6v310h-368v-310q0 -6 -6 -6h-8q-6 0 -6 6v633q0 6 6 6h8q6 0 6 -6v-304h368v304q0 6 6 6h8z" />
<glyph unicode="&#x125;" horiz-adv-x="533" d="M174 775l-74 84l-74 -84q-3 -3 -7 -3h-11q-9 0 -4 7l83 93q3 3 7 3h12q4 0 7 -3l83 -93q5 -7 -4 -7h-11q-4 0 -7 3zM297 498q81 0 116 -38t35 -122v-332q0 -6 -6 -6h-8q-6 0 -6 6v327q0 81 -30 113.5t-103 32.5q-92 0 -185 -45v-428q0 -6 -6 -6h-8q-6 0 -6 6v688q0 6 6 6 h8q6 0 6 -6v-244q90 48 187 48z" />
<glyph unicode="&#x126;" horiz-adv-x="598" d="M537 489q6 0 6 -6v-6q0 -6 -6 -6h-34v-465q0 -6 -6 -6h-8q-6 0 -6 6v310h-368v-310q0 -6 -6 -6h-8q-6 0 -6 6v465h-34q-6 0 -6 6v6q0 6 6 6h34v150q0 6 6 6h8q6 0 6 -6v-150h368v150q0 6 6 6h8q6 0 6 -6v-150h34zM483 335v136h-368v-136h368z" />
<glyph unicode="&#x127;" horiz-adv-x="533" d="M297 498q81 0 116 -38t35 -122v-332q0 -6 -6 -6h-8q-6 0 -6 6v327q0 81 -30 113.5t-103 32.5q-92 0 -185 -45v-428q0 -6 -6 -6h-8q-6 0 -6 6v607h-44q-6 0 -6 6v6q0 6 6 6h44v63q0 6 6 6h8q6 0 6 -6v-63h180q6 0 6 -6v-6q0 -6 -6 -6h-180v-163q90 48 187 48z" />
<glyph unicode="&#x128;" horiz-adv-x="210" d="M182 721q-23 0 -51 19l-64 43q-23 15 -39 15q-26 0 -26 -36v-24q0 -6 -6 -6h-6q-6 0 -6 6v24q0 25 12 39.5t32 14.5q23 0 51 -19l64 -43q23 -15 39 -15q26 0 26 36v24q0 6 6 6h6q6 0 6 -6v-24q0 -25 -12 -39.5t-32 -14.5zM101 0q-6 0 -6 6v633q0 6 6 6h8q6 0 6 -6v-633 q0 -6 -6 -6h-8z" />
<glyph unicode="&#x129;" horiz-adv-x="200" d="M177 566q-23 0 -51 19l-64 43q-22 15 -39 15q-26 0 -26 -36v-24q0 -6 -6 -6h-6q-6 0 -6 6v24q0 25 12 39.5t32 14.5q23 0 51 -19l64 -43q22 -15 39 -15q26 0 26 36v24q0 6 6 6h6q6 0 6 -6v-24q0 -25 -12 -39.5t-32 -14.5zM96 0q-6 0 -6 6v478q0 6 6 6h8q6 0 6 -6v-478 q0 -6 -6 -6h-8z" />
<glyph unicode="&#x12a;" horiz-adv-x="210" d="M11 742q-6 0 -6 6v7q0 6 6 6h188q6 0 6 -6v-7q0 -6 -6 -6h-188zM101 0q-6 0 -6 6v633q0 6 6 6h8q6 0 6 -6v-633q0 -6 -6 -6h-8z" />
<glyph unicode="&#x12b;" horiz-adv-x="200" d="M6 587q-6 0 -6 6v7q0 6 6 6h188q6 0 6 -6v-7q0 -6 -6 -6h-188zM96 0q-6 0 -6 6v478q0 6 6 6h8q6 0 6 -6v-478q0 -6 -6 -6h-8z" />
<glyph unicode="&#x12c;" horiz-adv-x="210" d="M193 820q6 0 6 -6v-15q0 -49 -19 -67t-73 -18h-4q-54 0 -73 18t-19 67v15q0 6 6 6h8q6 0 6 -6v-15q0 -41 13.5 -53.5t58.5 -12.5h4q45 0 58.5 12.5t13.5 53.5v15q0 6 6 6h8zM101 0q-6 0 -6 6v633q0 6 6 6h8q6 0 6 -6v-633q0 -6 -6 -6h-8z" />
<glyph unicode="&#x12d;" horiz-adv-x="200" d="M188 665q6 0 6 -6v-15q0 -49 -19 -67t-73 -18h-4q-54 0 -73 18t-19 67v15q0 6 6 6h8q6 0 6 -6v-15q0 -41 13.5 -53.5t58.5 -12.5h4q45 0 58.5 12.5t13.5 53.5v15q0 6 6 6h8zM96 0q-6 0 -6 6v478q0 6 6 6h8q6 0 6 -6v-478q0 -6 -6 -6h-8z" />
<glyph unicode="&#x12e;" horiz-adv-x="210" d="M111 -189q6 0 6 -6v-7q0 -6 -6 -6h-35q-46 0 -64.5 14.5t-18.5 50.5v8q0 24 10.5 41.5t49.5 54.5l43 42q-1 1 -1 3v633q0 6 6 6h8q6 0 6 -6v-637q0 -4 -3 -7l-40 -40q-41 -41 -50 -55t-9 -35v-8q0 -28 12 -37t51 -9h35z" />
<glyph unicode="&#x12f;" horiz-adv-x="202" d="M96 587q-6 0 -6 6v66q0 6 6 6h10q6 0 6 -6v-66q0 -6 -6 -6h-10zM107 -189q6 0 6 -6v-7q0 -6 -6 -6h-35q-46 0 -64.5 14.5t-18.5 50.5v8q0 24 10.5 41.5t49.5 54.5l43 42q-1 1 -1 3v478q0 6 6 6h8q6 0 6 -6v-482q0 -4 -3 -7l-40 -40q-41 -41 -50 -55t-9 -35v-8 q0 -28 12 -37t51 -9h35z" />
<glyph unicode="&#x130;" horiz-adv-x="210" d="M100 742q-6 0 -6 6v66q0 6 6 6h10q6 0 6 -6v-66q0 -6 -6 -6h-10zM101 0q-6 0 -6 6v633q0 6 6 6h8q6 0 6 -6v-633q0 -6 -6 -6h-8z" />
<glyph unicode="&#x131;" horiz-adv-x="200" d="M96 0q-6 0 -6 6v478q0 6 6 6h8q6 0 6 -6v-478q0 -6 -6 -6h-8z" />
<glyph unicode="&#x132;" horiz-adv-x="689" d="M101 0q-6 0 -6 6v633q0 6 6 6h8q6 0 6 -6v-633q0 -6 -6 -6h-8zM414 -8q-101 0 -140 36t-39 128v24q0 6 6 6h8q6 0 6 -6v-24q0 -83 34 -114t125 -31h6q91 0 125 31t34 114v483q0 6 6 6h8q6 0 6 -6v-483q0 -92 -39 -128t-140 -36h-6z" />
<glyph unicode="&#x133;" horiz-adv-x="403" d="M96 587q-6 0 -6 6v66q0 6 6 6h10q6 0 6 -6v-66q0 -6 -6 -6h-10zM297 587q-6 0 -6 6v66q0 6 6 6h10q6 0 6 -6v-66q0 -6 -6 -6h-10zM97 0q-6 0 -6 6v478q0 6 6 6h8q6 0 6 -6v-478q0 -6 -6 -6h-8zM180 -208q-6 0 -6 6v7q0 6 6 6h9q64 0 83.5 23t19.5 103v547q0 6 6 6h8 q6 0 6 -6v-553q0 -85 -24.5 -112t-97.5 -27h-10z" />
<glyph unicode="&#x134;" horiz-adv-x="489" d="M485 724q5 -7 -4 -7h-11q-4 0 -7 3l-74 84l-74 -84q-3 -3 -7 -3h-11q-9 0 -4 7l83 93q3 3 7 3h12q4 0 7 -3zM393 645q6 0 6 -6v-483q0 -92 -39 -128t-140 -36h-6q-101 0 -140 36t-39 128v24q0 6 6 6h8q6 0 6 -6v-24q0 -83 34 -114t125 -31h6q91 0 125 31t34 114v483 q0 6 6 6h8z" />
<glyph unicode="&#x135;" horiz-adv-x="200" d="M197 569q5 -7 -4 -7h-11q-4 0 -7 3l-74 84l-74 -84q-3 -3 -7 -3h-11q-9 0 -4 7l83 93q3 3 7 3h12q4 0 7 -3zM104 490q6 0 6 -6v-553q0 -85 -24.5 -112t-97.5 -27h-10q-6 0 -6 6v7q0 6 6 6h9q64 0 83.5 23t19.5 103v547q0 6 6 6h8z" />
<glyph unicode="&#x136;" horiz-adv-x="533" d="M504 7q4 -7 -4 -7h-10q-5 0 -8 5l-210 359l-157 -197v-161q0 -6 -6 -6h-8q-6 0 -6 6v633q0 6 6 6h8q6 0 6 -6v-441l354 442q4 5 9 5h12q8 0 4 -5l-208 -260zM271 -79q6 0 6 -6v-49q0 -5 -1 -14l-6 -60q-1 -6 -7 -6h-1q-5 0 -5 6v123q0 6 6 6h8z" />
<glyph unicode="&#x137;" horiz-adv-x="462" d="M436 5q3 -5 -4 -5h-11q-5 0 -8 5l-164 277l-139 -156v-120q0 -6 -6 -6h-8q-6 0 -6 6v688q0 6 6 6h8q6 0 6 -6v-540l296 333q3 3 7 3h12q8 0 1 -8l-163 -184zM241 -79q6 0 6 -6v-49q0 -5 -1 -14l-6 -60q-1 -6 -7 -6h-1q-5 0 -5 6v123q0 6 6 6h8z" />
<glyph unicode="&#x138;" horiz-adv-x="462" d="M436 5q3 -5 -4 -5h-10q-5 0 -8 5l-164 278l-140 -157v-120q0 -6 -6 -6h-8q-6 0 -6 6v479q0 6 6 6h8q6 0 6 -6v-331l296 333q3 3 7 3h12q8 0 1 -8l-163 -184z" />
<glyph unicode="&#x139;" horiz-adv-x="442" d="M197 717q-11 0 -3 8l94 92q3 3 7 3h13q4 0 5.5 -2t-0.5 -4l-99 -94q-3 -3 -7 -3h-10zM406 19q6 0 6 -6v-7q0 -6 -6 -6h-305q-6 0 -6 6v633q0 6 6 6h8q6 0 6 -6v-620h291z" />
<glyph unicode="&#x13a;" horiz-adv-x="200" d="M66 772q-11 0 -3 8l94 92q3 3 7 3h13q4 0 5.5 -2t-0.5 -4l-99 -94q-3 -3 -7 -3h-10zM96 0q-6 0 -6 6v688q0 6 6 6h8q6 0 6 -6v-688q0 -6 -6 -6h-8z" />
<glyph unicode="&#x13b;" horiz-adv-x="442" d="M406 19q6 0 6 -6v-7q0 -6 -6 -6h-305q-6 0 -6 6v633q0 6 6 6h8q6 0 6 -6v-620h291zM235 -79q6 0 6 -6v-49q0 -5 -1 -14l-6 -60q-1 -6 -7 -6h-1q-5 0 -5 6v123q0 6 6 6h8z" />
<glyph unicode="&#x13c;" horiz-adv-x="200" d="M96 0q-6 0 -6 6v688q0 6 6 6h8q6 0 6 -6v-688q0 -6 -6 -6h-8zM95 -214q-5 0 -5 6v123q0 6 6 6h8q6 0 6 -6v-49q0 -5 -1 -14l-6 -60q-1 -6 -7 -6h-1z" />
<glyph unicode="&#x13d;" horiz-adv-x="442" d="M298 505q-5 0 -5 6v183q0 6 6 6h8q6 0 6 -6v-64q0 -6 -1 -18l-7 -101q0 -6 -6 -6h-1zM406 19q6 0 6 -6v-7q0 -6 -6 -6h-305q-6 0 -6 6v633q0 6 6 6h8q6 0 6 -6v-620h291z" />
<glyph unicode="&#x13e;" horiz-adv-x="200" d="M205 573q-5 0 -5 6v123q0 6 6 6h8q6 0 6 -6v-49q0 -5 -1 -14l-6 -60q-1 -6 -7 -6h-1zM96 0q-6 0 -6 6v688q0 6 6 6h8q6 0 6 -6v-688q0 -6 -6 -6h-8z" />
<glyph unicode="&#x13f;" horiz-adv-x="442" d="M406 19q6 0 6 -6v-7q0 -6 -6 -6h-305q-6 0 -6 6v633q0 6 6 6h8q6 0 6 -6v-620h291zM262 283q-6 0 -6 6v63q0 6 6 6h10q6 0 6 -6v-63q0 -6 -6 -6h-10z" />
<glyph unicode="&#x140;" horiz-adv-x="287" d="M96 0q-6 0 -6 6v688q0 6 6 6h8q6 0 6 -6v-688q0 -6 -6 -6h-8zM216 283q-6 0 -6 6v63q0 6 6 6h10q6 0 6 -6v-63q0 -6 -6 -6h-10z" />
<glyph unicode="&#x141;" horiz-adv-x="442" d="M406 19q6 0 6 -6v-7q0 -6 -6 -6h-305q-6 0 -6 6v237l-76 -40q-6 -3 -6 5v6q0 5 4 7l78 41v377q0 6 6 6h8q6 0 6 -6v-366l200 106q8 4 8 -4v-6q0 -5 -4 -7l-204 -108v-235h291z" />
<glyph unicode="&#x142;" horiz-adv-x="244" d="M226 394q6 4 6 -5v-6q0 -5 -3 -7l-97 -63v-307q0 -6 -6 -6h-8q-6 0 -6 6v293l-94 -61q-6 -4 -6 5v6q0 5 3 7l97 63v375q0 6 6 6h8q6 0 6 -6v-361z" />
<glyph unicode="&#x143;" horiz-adv-x="626" d="M279 717q-11 0 -3 8l94 92q3 3 7 3h13q4 0 5.5 -2t-0.5 -4l-99 -94q-3 -3 -7 -3h-10zM525 645q6 0 6 -6v-633q0 -6 -6 -6h-10q-5 0 -9 6l-270 418q-75 115 -123 196q2 -69 2 -196v-418q0 -6 -6 -6h-8q-6 0 -6 6v633q0 6 6 6h10q5 0 9 -6l270 -418q75 -115 123 -196 q-2 69 -2 196v418q0 6 6 6h8z" />
<glyph unicode="&#x144;" horiz-adv-x="533" d="M236 562q-11 0 -3 8l94 92q3 3 7 3h13q4 0 5.5 -2t-0.5 -4l-99 -94q-3 -3 -7 -3h-10zM297 498q81 0 116 -38t35 -122v-332q0 -6 -6 -6h-8q-6 0 -6 6v327q0 81 -30 113.5t-103 32.5q-92 0 -185 -45v-428q0 -6 -6 -6h-8q-6 0 -6 6v478q0 6 4 6h4q4 0 5 -5l7 -34 q91 47 187 47z" />
<glyph unicode="&#x145;" horiz-adv-x="626" d="M525 645q6 0 6 -6v-633q0 -6 -6 -6h-10q-5 0 -9 6l-270 418q-75 115 -123 196q2 -69 2 -196v-418q0 -6 -6 -6h-8q-6 0 -6 6v633q0 6 6 6h10q5 0 9 -6l270 -418q75 -115 123 -196q-2 69 -2 196v418q0 6 6 6h8zM317 -79q6 0 6 -6v-49q0 -5 -1 -14l-6 -60q-1 -6 -7 -6h-1 q-5 0 -5 6v123q0 6 6 6h8z" />
<glyph unicode="&#x146;" horiz-adv-x="533" d="M297 498q81 0 116 -38t35 -122v-332q0 -6 -6 -6h-8q-6 0 -6 6v327q0 81 -30 113.5t-103 32.5q-92 0 -185 -45v-428q0 -6 -6 -6h-8q-6 0 -6 6v478q0 6 4 6h4q4 0 5 -5l7 -34q91 47 187 47zM271 -79q6 0 6 -6v-49q0 -5 -1 -14l-6 -60q-1 -6 -7 -6h-1q-5 0 -5 6v123q0 6 6 6 h8z" />
<glyph unicode="&#x147;" horiz-adv-x="626" d="M300 720l-83 93q-5 7 4 7h11q4 0 7 -3l74 -84l74 84q3 3 7 3h11q9 0 4 -7l-83 -93q-3 -3 -7 -3h-12q-4 0 -7 3zM525 645q6 0 6 -6v-633q0 -6 -6 -6h-10q-5 0 -9 6l-270 418q-75 115 -123 196q2 -69 2 -196v-418q0 -6 -6 -6h-8q-6 0 -6 6v633q0 6 6 6h10q5 0 9 -6 l270 -418q75 -115 123 -196q-2 69 -2 196v418q0 6 6 6h8z" />
<glyph unicode="&#x148;" horiz-adv-x="533" d="M257 565l-83 93q-5 7 4 7h11q4 0 7 -3l74 -84l74 84q3 3 7 3h11q9 0 4 -7l-83 -93q-3 -3 -7 -3h-12q-4 0 -7 3zM297 498q81 0 116 -38t35 -122v-332q0 -6 -6 -6h-8q-6 0 -6 6v327q0 81 -30 113.5t-103 32.5q-92 0 -185 -45v-428q0 -6 -6 -6h-8q-6 0 -6 6v478q0 6 4 6h4 q4 0 5 -5l7 -34q91 47 187 47z" />
<glyph unicode="&#x14a;" horiz-adv-x="625" d="M524 645q6 0 6 -6v-723q0 -63 -36 -93.5t-114 -30.5h-30q-6 0 -6 6v7q0 6 6 6h30q68 0 99 25.5t31 79.5v84l-274 424q-75 115 -123 196q2 -69 2 -196v-418q0 -6 -6 -6h-8q-6 0 -6 6v633q0 6 6 6h9q6 0 10 -6l270 -418q68 -105 122 -194q-2 68 -2 194v418q0 6 6 6h8z" />
<glyph unicode="&#x14b;" horiz-adv-x="533" d="M297 498q81 0 116 -38t35 -122v-407q0 -85 -24.5 -112t-97.5 -27h-10q-6 0 -6 6v7q0 6 6 6h9q64 0 83.5 23t19.5 103v396q0 81 -30 113.5t-103 32.5q-92 0 -185 -45v-428q0 -6 -6 -6h-8q-6 0 -6 6v478q0 6 4 6h4q4 0 5 -5l7 -34q91 47 187 47z" />
<glyph unicode="&#x14c;" horiz-adv-x="590" d="M201 742q-6 0 -6 6v7q0 6 6 6h188q6 0 6 -6v-7q0 -6 -6 -6h-188zM85 156v333q0 93 43.5 128.5t163.5 35.5h6q120 0 163.5 -35.5t43.5 -128.5v-333q0 -93 -43.5 -128.5t-163.5 -35.5h-6q-120 0 -163.5 35.5t-43.5 128.5zM105 156q0 -85 38.5 -115t148.5 -30h6 q110 0 148.5 30t38.5 115v333q0 85 -38.5 115t-148.5 30h-6q-110 0 -148.5 -30t-38.5 -115v-333z" />
<glyph unicode="&#x14d;" d="M170 587q-6 0 -6 6v7q0 6 6 6h188q6 0 6 -6v-7q0 -6 -6 -6h-188zM80 146v198q0 87 39 120.5t142 33.5h6q103 0 142 -33.5t39 -120.5v-198q0 -87 -39 -120.5t-142 -33.5h-6q-103 0 -142 33.5t-39 120.5zM100 146q0 -78 33.5 -106.5t127.5 -28.5h6q94 0 127.5 28.5 t33.5 106.5v198q0 78 -33.5 106.5t-127.5 28.5h-6q-94 0 -127.5 -28.5t-33.5 -106.5v-198z" />
<glyph unicode="&#x14e;" horiz-adv-x="590" d="M383 820q6 0 6 -6v-15q0 -49 -19 -67t-73 -18h-4q-54 0 -73 18t-19 67v15q0 6 6 6h8q6 0 6 -6v-15q0 -41 13.5 -53.5t58.5 -12.5h4q45 0 58.5 12.5t13.5 53.5v15q0 6 6 6h8zM85 156v333q0 93 43.5 128.5t163.5 35.5h6q120 0 163.5 -35.5t43.5 -128.5v-333 q0 -93 -43.5 -128.5t-163.5 -35.5h-6q-120 0 -163.5 35.5t-43.5 128.5zM105 156q0 -85 38.5 -115t148.5 -30h6q110 0 148.5 30t38.5 115v333q0 85 -38.5 115t-148.5 30h-6q-110 0 -148.5 -30t-38.5 -115v-333z" />
<glyph unicode="&#x14f;" d="M352 665q6 0 6 -6v-15q0 -49 -19 -67t-73 -18h-4q-54 0 -73 18t-19 67v15q0 6 6 6h8q6 0 6 -6v-15q0 -41 13.5 -53.5t58.5 -12.5h4q45 0 58.5 12.5t13.5 53.5v15q0 6 6 6h8zM80 146v198q0 87 39 120.5t142 33.5h6q103 0 142 -33.5t39 -120.5v-198q0 -87 -39 -120.5 t-142 -33.5h-6q-103 0 -142 33.5t-39 120.5zM100 146q0 -78 33.5 -106.5t127.5 -28.5h6q94 0 127.5 28.5t33.5 106.5v198q0 78 -33.5 106.5t-127.5 28.5h-6q-94 0 -127.5 -28.5t-33.5 -106.5v-198z" />
<glyph unicode="&#x150;" horiz-adv-x="590" d="M222 717q-9 0 -5 6l59 93q3 4 8 4h9q9 0 4 -7l-61 -92q-3 -4 -8 -4h-6zM344 717q-9 0 -5 6l59 93q3 4 8 4h9q9 0 4 -7l-61 -92q-3 -4 -8 -4h-6zM85 156v333q0 93 43.5 128.5t163.5 35.5h6q120 0 163.5 -35.5t43.5 -128.5v-333q0 -93 -43.5 -128.5t-163.5 -35.5h-6 q-120 0 -163.5 35.5t-43.5 128.5zM105 156q0 -85 38.5 -115t148.5 -30h6q110 0 148.5 30t38.5 115v333q0 85 -38.5 115t-148.5 30h-6q-110 0 -148.5 -30t-38.5 -115v-333z" />
<glyph unicode="&#x151;" d="M191 562q-9 0 -5 6l59 93q3 4 8 4h9q9 0 4 -7l-61 -92q-3 -4 -8 -4h-6zM313 562q-9 0 -5 6l59 93q3 4 8 4h9q9 0 4 -7l-61 -92q-3 -4 -8 -4h-6zM80 146v198q0 87 39 120.5t142 33.5h6q103 0 142 -33.5t39 -120.5v-198q0 -87 -39 -120.5t-142 -33.5h-6q-103 0 -142 33.5 t-39 120.5zM100 146q0 -78 33.5 -106.5t127.5 -28.5h6q94 0 127.5 28.5t33.5 106.5v198q0 78 -33.5 106.5t-127.5 28.5h-6q-94 0 -127.5 -28.5t-33.5 -106.5v-198z" />
<glyph unicode="&#x152;" horiz-adv-x="857" d="M799 626h-313v-289h283q6 0 6 -6v-7q0 -6 -6 -6h-283v-299h313q6 0 6 -6v-7q0 -6 -6 -6h-327q-100 -8 -174 -8h-6q-120 0 -163.5 35.5t-43.5 128.5v333q0 93 43.5 128.5t163.5 35.5h6q74 0 174 -8h327q6 0 6 -6v-7q0 -6 -6 -6zM292 11h6q76 0 168 8v607q-92 8 -168 8h-6 q-110 0 -148.5 -30t-38.5 -115v-333q0 -85 38.5 -115t148.5 -30z" />
<glyph unicode="&#x153;" horiz-adv-x="853" d="M772 252h-330v-106q0 -78 32.5 -106.5t122.5 -28.5h6q90 0 122.5 28.5t32.5 106.5v2q0 6 6 6h8q6 0 6 -6v-2q0 -87 -38 -120.5t-137 -33.5h-6q-75 0 -113.5 19t-51.5 64q-13 -45 -52 -64t-116 -19h-6q-101 0 -139.5 33.5t-38.5 120.5v198q0 87 38.5 120.5t139.5 33.5h6 q77 0 116 -19t52 -64q13 45 51.5 64t113.5 19h6q99 0 137 -33.5t38 -120.5v-86q0 -6 -6 -6zM422 146v198q0 78 -33 106.5t-125 28.5h-6q-92 0 -125 -28.5t-33 -106.5v-198q0 -78 33 -106.5t125 -28.5h6q92 0 125 28.5t33 106.5zM597 479q-90 0 -122.5 -28.5t-32.5 -106.5 v-73h316v73q0 78 -32.5 106.5t-122.5 28.5h-6z" />
<glyph unicode="&#x154;" horiz-adv-x="544" d="M239 717q-11 0 -3 8l94 92q3 3 7 3h13q4 0 5.5 -2t-0.5 -4l-99 -94q-3 -3 -7 -3h-10zM480 8q4 -8 -4 -8h-9q-5 0 -7 4l-134 264q-10 -1 -31 -1h-180v-261q0 -6 -6 -6h-8q-6 0 -6 6v633q0 6 6 6h194q96 0 136.5 -33t40.5 -111v-90q0 -67 -29 -100.5t-96 -40.5zM287 286 q92 0 128.5 27t36.5 98v90q0 71 -36.5 98t-128.5 27h-172v-340h172z" />
<glyph unicode="&#x155;" horiz-adv-x="304" d="M137 562q-11 0 -3 8l94 92q3 3 7 3h13q4 0 5.5 -2t-0.5 -4l-99 -94q-3 -3 -7 -3h-10zM280 498q6 0 6 -6v-7q0 -6 -6 -6h-2q-60 0 -99.5 -19t-68.5 -64v-390q0 -6 -6 -6h-8q-6 0 -6 6v478q0 6 5 6h4q5 0 6 -10l5 -57q52 75 168 75h2z" />
<glyph unicode="&#x156;" horiz-adv-x="544" d="M480 8q4 -8 -4 -8h-9q-5 0 -7 4l-134 264q-10 -1 -31 -1h-180v-261q0 -6 -6 -6h-8q-6 0 -6 6v633q0 6 6 6h194q96 0 136.5 -33t40.5 -111v-90q0 -67 -29 -100.5t-96 -40.5zM287 286q92 0 128.5 27t36.5 98v90q0 71 -36.5 98t-128.5 27h-172v-340h172zM280 -79q6 0 6 -6 v-49q0 -5 -1 -14l-6 -60q-1 -6 -7 -6h-1q-5 0 -5 6v123q0 6 6 6h8z" />
<glyph unicode="&#x157;" horiz-adv-x="304" d="M280 498q6 0 6 -6v-7q0 -6 -6 -6h-2q-60 0 -99.5 -19t-68.5 -64v-390q0 -6 -6 -6h-8q-6 0 -6 6v478q0 6 5 6h4q5 0 6 -10l5 -57q52 75 168 75h2zM104 -79q6 0 6 -6v-49q0 -5 -1 -14l-6 -60q-1 -6 -7 -6h-1q-5 0 -5 6v123q0 6 6 6h8z" />
<glyph unicode="&#x158;" horiz-adv-x="544" d="M260 720l-83 93q-5 7 4 7h11q4 0 7 -3l74 -84l74 84q3 3 7 3h11q9 0 4 -7l-83 -93q-3 -3 -7 -3h-12q-4 0 -7 3zM480 8q4 -8 -4 -8h-9q-5 0 -7 4l-134 264q-10 -1 -31 -1h-180v-261q0 -6 -6 -6h-8q-6 0 -6 6v633q0 6 6 6h194q96 0 136.5 -33t40.5 -111v-90 q0 -67 -29 -100.5t-96 -40.5zM287 286q92 0 128.5 27t36.5 98v90q0 71 -36.5 98t-128.5 27h-172v-340h172z" />
<glyph unicode="&#x159;" horiz-adv-x="304" d="M165 562q-4 0 -7 3l-83 93q-5 7 4 7h11q4 0 7 -3l74 -84l74 84q3 3 7 3h11q9 0 4 -7l-83 -93q-3 -3 -7 -3h-12zM280 498q6 0 6 -6v-7q0 -6 -6 -6h-2q-60 0 -99.5 -19t-68.5 -64v-390q0 -6 -6 -6h-8q-6 0 -6 6v478q0 6 5 6h4q5 0 6 -10l5 -57q52 75 168 75h2z" />
<glyph unicode="&#x15a;" horiz-adv-x="506" d="M219 717q-11 0 -3 8l94 92q3 3 7 3h13q4 0 5.5 -2t-0.5 -4l-99 -94q-3 -3 -7 -3h-10zM54 154v26q0 6 6 6h8q6 0 6 -6v-26q0 -84 36.5 -113.5t139.5 -29.5h6q103 0 139.5 29.5t36.5 113.5v26q0 60 -21.5 83t-96.5 40l-139 32q-69 16 -92.5 43.5t-23.5 93.5v20 q0 90 41 125.5t150 35.5h6q109 0 150 -35.5t41 -125.5v-27q0 -6 -6 -6h-8q-6 0 -6 6v27q0 84 -35.5 113t-135.5 29h-6q-100 0 -135.5 -29t-35.5 -113v-20q0 -60 20 -82t88 -38l139 -32q76 -17 101 -45t25 -95v-26q0 -91 -41.5 -126.5t-154.5 -35.5h-6q-113 0 -154.5 36 t-41.5 126z" />
<glyph unicode="&#x15b;" horiz-adv-x="469" d="M201 562q-11 0 -3 8l94 92q3 3 7 3h13q4 0 5.5 -2t-0.5 -4l-99 -94q-3 -3 -7 -3h-10zM60 111v40q0 6 6 6h8q6 0 6 -6v-40q0 -54 34 -77t119 -23h6q85 0 117.5 23t32.5 77v15q0 41 -16 60t-67 34l-144 42q-55 16 -75 38t-20 63v17q0 62 37.5 90t126.5 28h6 q90 0 127.5 -28.5t37.5 -89.5v-40q0 -6 -6 -6h-8q-6 0 -6 6v40q0 54 -32 76.5t-113 22.5h-6q-81 0 -112.5 -22.5t-31.5 -76.5v-17q0 -36 16.5 -52t69.5 -32l144 -42q53 -16 72.5 -40t19.5 -71v-15q0 -62 -37.5 -90.5t-132.5 -28.5h-6q-95 0 -134 28.5t-39 90.5z" />
<glyph unicode="&#x15c;" horiz-adv-x="506" d="M161 717q-9 0 -4 7l83 93q3 3 7 3h12q4 0 7 -3l83 -93q5 -7 -4 -7h-11q-4 0 -7 3l-74 84l-74 -84q-3 -3 -7 -3h-11zM326 320q76 -17 101 -45t25 -95v-26q0 -91 -41.5 -126.5t-154.5 -35.5h-6q-113 0 -154.5 36t-41.5 126v26q0 6 6 6h8q6 0 6 -6v-26q0 -84 36.5 -113.5 t139.5 -29.5h6q103 0 139.5 29.5t36.5 113.5v26q0 60 -21.5 83t-96.5 40l-139 32q-69 16 -92.5 43.5t-23.5 93.5v20q0 90 41 125.5t150 35.5h6q109 0 150 -35.5t41 -125.5v-27q0 -6 -6 -6h-8q-6 0 -6 6v27q0 84 -35.5 113t-135.5 29h-6q-100 0 -135.5 -29t-35.5 -113v-20 q0 -60 20 -82t88 -38z" />
<glyph unicode="&#x15d;" horiz-adv-x="469" d="M143 562q-9 0 -4 7l83 93q3 3 7 3h12q4 0 7 -3l83 -93q5 -7 -4 -7h-11q-4 0 -7 3l-74 84l-74 -84q-3 -3 -7 -3h-11zM317 237q53 -16 72.5 -40t19.5 -71v-15q0 -62 -37.5 -90.5t-132.5 -28.5h-6q-95 0 -134 28.5t-39 90.5v40q0 6 6 6h8q6 0 6 -6v-40q0 -54 34 -77t119 -23 h6q85 0 117.5 23t32.5 77v15q0 41 -16 60t-67 34l-144 42q-55 16 -75 38t-20 63v17q0 62 37.5 90t126.5 28h6q90 0 127.5 -28.5t37.5 -89.5v-40q0 -6 -6 -6h-8q-6 0 -6 6v40q0 54 -32 76.5t-113 22.5h-6q-81 0 -112.5 -22.5t-31.5 -76.5v-17q0 -36 16.5 -52t69.5 -32z" />
<glyph unicode="&#x15e;" horiz-adv-x="506" d="M326 320q76 -17 101 -45t25 -95v-26q0 -91 -41.5 -126.5t-154.5 -35.5h-6h-17l-14 -74h57q35 0 50 -12.5t15 -40.5v-20q0 -28 -15 -40.5t-50 -12.5h-74q-6 0 -6 6v7q0 6 6 6h74q27 0 36 7t9 27v20q0 20 -9 27t-36 7h-73q-8 0 -6 7l17 87q-91 5 -125.5 41.5t-34.5 119.5 v26q0 6 6 6h8q6 0 6 -6v-26q0 -84 36.5 -113.5t139.5 -29.5h6q103 0 139.5 29.5t36.5 113.5v26q0 60 -21.5 83t-96.5 40l-139 32q-69 16 -92.5 43.5t-23.5 93.5v20q0 90 41 125.5t150 35.5h6q109 0 150 -35.5t41 -125.5v-27q0 -6 -6 -6h-8q-6 0 -6 6v27q0 84 -35.5 113 t-135.5 29h-6q-100 0 -135.5 -29t-35.5 -113v-20q0 -60 20 -82t88 -38z" />
<glyph unicode="&#x15f;" horiz-adv-x="469" d="M317 237q53 -16 72.5 -40t19.5 -71v-15q0 -62 -37.5 -90.5t-132.5 -28.5h-6h-18l-14 -74h57q35 0 50 -12.5t15 -40.5v-20q0 -28 -15 -40.5t-50 -12.5h-74q-6 0 -6 6v7q0 6 6 6h74q27 0 36 7t9 27v20q0 20 -9 27t-36 7h-73q-8 0 -6 7l17 87q-74 5 -105 33.5t-31 84.5v40 q0 6 6 6h8q6 0 6 -6v-40q0 -54 34 -77t119 -23h6q85 0 117.5 23t32.5 77v15q0 41 -16 60t-67 34l-144 42q-55 16 -75 38t-20 63v17q0 62 37.5 90t126.5 28h6q90 0 127.5 -28.5t37.5 -89.5v-40q0 -6 -6 -6h-8q-6 0 -6 6v40q0 54 -32 76.5t-113 22.5h-6q-81 0 -112.5 -22.5 t-31.5 -76.5v-17q0 -36 16.5 -52t69.5 -32z" />
<glyph unicode="&#x160;" horiz-adv-x="506" d="M240 720l-83 93q-5 7 4 7h11q4 0 7 -3l74 -84l74 84q3 3 7 3h11q9 0 4 -7l-83 -93q-3 -3 -7 -3h-12q-4 0 -7 3zM326 320q76 -17 101 -45t25 -95v-26q0 -91 -41.5 -126.5t-154.5 -35.5h-6q-113 0 -154.5 36t-41.5 126v26q0 6 6 6h8q6 0 6 -6v-26q0 -84 36.5 -113.5 t139.5 -29.5h6q103 0 139.5 29.5t36.5 113.5v26q0 60 -21.5 83t-96.5 40l-139 32q-69 16 -92.5 43.5t-23.5 93.5v20q0 90 41 125.5t150 35.5h6q109 0 150 -35.5t41 -125.5v-27q0 -6 -6 -6h-8q-6 0 -6 6v27q0 84 -35.5 113t-135.5 29h-6q-100 0 -135.5 -29t-35.5 -113v-20 q0 -60 20 -82t88 -38z" />
<glyph unicode="&#x161;" horiz-adv-x="469" d="M222 565l-83 93q-5 7 4 7h11q4 0 7 -3l74 -84l74 84q3 3 7 3h11q9 0 4 -7l-83 -93q-3 -3 -7 -3h-12q-4 0 -7 3zM317 237q53 -16 72.5 -40t19.5 -71v-15q0 -62 -37.5 -90.5t-132.5 -28.5h-6q-95 0 -134 28.5t-39 90.5v40q0 6 6 6h8q6 0 6 -6v-40q0 -54 34 -77t119 -23h6 q85 0 117.5 23t32.5 77v15q0 41 -16 60t-67 34l-144 42q-55 16 -75 38t-20 63v17q0 62 37.5 90t126.5 28h6q90 0 127.5 -28.5t37.5 -89.5v-40q0 -6 -6 -6h-8q-6 0 -6 6v40q0 54 -32 76.5t-113 22.5h-6q-81 0 -112.5 -22.5t-31.5 -76.5v-17q0 -36 16.5 -52t69.5 -32z" />
<glyph unicode="&#x162;" horiz-adv-x="452" d="M425 645q6 0 6 -6v-7q0 -6 -6 -6h-189v-620q0 -6 -6 -6h-8q-6 0 -6 6v620h-189q-6 0 -6 6v7q0 6 6 6h398zM229 -79q6 0 6 -6v-49q0 -5 -1 -14l-6 -60q-1 -6 -7 -6h-1q-5 0 -5 6v123q0 6 6 6h8z" />
<glyph unicode="&#x163;" horiz-adv-x="311" d="M275 15q6 0 6 -6v-7q0 -6 -6 -6h-40q-73 0 -97.5 27t-24.5 112v336h-93q-6 0 -6 6v1q0 5 9 6l90 5v150q0 6 6 6h8q6 0 6 -6v-149h140q6 0 6 -6v-7q0 -6 -6 -6h-140v-330q0 -80 19.5 -103t83.5 -23h39zM194 -79q6 0 6 -6v-49q0 -5 -1 -14l-6 -60q-1 -6 -7 -6h-1q-5 0 -5 6 v123q0 6 6 6h8z" />
<glyph unicode="&#x164;" horiz-adv-x="452" d="M213 720l-83 93q-5 7 4 7h11q4 0 7 -3l74 -84l74 84q3 3 7 3h11q9 0 4 -7l-83 -93q-3 -3 -7 -3h-12q-4 0 -7 3zM425 645q6 0 6 -6v-7q0 -6 -6 -6h-189v-620q0 -6 -6 -6h-8q-6 0 -6 6v620h-189q-6 0 -6 6v7q0 6 6 6h398z" />
<glyph unicode="&#x165;" horiz-adv-x="311" d="M241 595q-5 0 -5 6v123q0 6 6 6h8q6 0 6 -6v-49q0 -5 -1 -14l-6 -60q-1 -6 -7 -6h-1zM275 15q6 0 6 -6v-7q0 -6 -6 -6h-40q-73 0 -97.5 27t-24.5 112v336h-93q-6 0 -6 6v1q0 5 9 6l90 5v150q0 6 6 6h8q6 0 6 -6v-149h140q6 0 6 -6v-7q0 -6 -6 -6h-140v-330 q0 -80 19.5 -103t83.5 -23h39z" />
<glyph unicode="&#x166;" horiz-adv-x="452" d="M425 645q6 0 6 -6v-7q0 -6 -6 -6h-189v-285h112q6 0 6 -6v-6q0 -6 -6 -6h-112v-317q0 -6 -6 -6h-8q-6 0 -6 6v317h-112q-6 0 -6 6v6q0 6 6 6h112v285h-189q-6 0 -6 6v7q0 6 6 6h398z" />
<glyph unicode="&#x167;" horiz-adv-x="311" d="M275 15q6 0 6 -6v-7q0 -6 -6 -6h-40q-73 0 -97.5 27t-24.5 112v150h-87q-6 0 -6 6v6q0 6 6 6h87v168h-93q-6 0 -6 6v1q0 5 9 6l90 5v150q0 6 6 6h8q6 0 6 -6v-149h140q6 0 6 -6v-7q0 -6 -6 -6h-140v-168h137q6 0 6 -6v-6q0 -6 -6 -6h-137v-144q0 -80 19.5 -103t83.5 -23 h39z" />
<glyph unicode="&#x168;" horiz-adv-x="588" d="M371 721q-23 0 -51 19l-64 43q-22 15 -39 15q-26 0 -26 -36v-24q0 -6 -6 -6h-6q-6 0 -6 6v24q0 25 12 39.5t32 14.5q23 0 51 -19l64 -43q22 -15 39 -15q26 0 26 36v24q0 6 6 6h6q6 0 6 -6v-24q0 -25 -12 -39.5t-32 -14.5zM90 156v483q0 6 6 6h8q6 0 6 -6v-483 q0 -84 37.5 -114.5t143.5 -30.5h6q106 0 143.5 30.5t37.5 114.5v483q0 6 6 6h8q6 0 6 -6v-483q0 -93 -42.5 -128.5t-158.5 -35.5h-6q-116 0 -158.5 35.5t-42.5 128.5z" />
<glyph unicode="&#x169;" horiz-adv-x="529" d="M150 577q-6 0 -6 6v24q0 25 12 39.5t32 14.5q23 0 51 -19l64 -43q23 -15 39 -15q26 0 26 36v24q0 6 6 6h6q6 0 6 -6v-24q0 -25 -12 -39.5t-32 -14.5q-23 0 -51 19l-64 43q-23 15 -39 15q-26 0 -26 -36v-24q0 -6 -6 -6h-6zM433 490q6 0 6 -6v-478q0 -6 -5 -6h-2q-5 0 -6 5 l-7 34q-88 -47 -183 -47q-81 0 -116 38t-35 122v332q0 6 6 6h8q6 0 6 -6v-327q0 -81 30 -113.5t103 -32.5q94 0 181 45v428q0 6 6 6h8z" />
<glyph unicode="&#x16a;" horiz-adv-x="588" d="M200 742q-6 0 -6 6v7q0 6 6 6h188q6 0 6 -6v-7q0 -6 -6 -6h-188zM90 156v483q0 6 6 6h8q6 0 6 -6v-483q0 -84 37.5 -114.5t143.5 -30.5h6q106 0 143.5 30.5t37.5 114.5v483q0 6 6 6h8q6 0 6 -6v-483q0 -93 -42.5 -128.5t-158.5 -35.5h-6q-116 0 -158.5 35.5t-42.5 128.5z " />
<glyph unicode="&#x16b;" horiz-adv-x="529" d="M171 587q-6 0 -6 6v7q0 6 6 6h188q6 0 6 -6v-7q0 -6 -6 -6h-188zM433 490q6 0 6 -6v-478q0 -6 -5 -6h-2q-5 0 -6 5l-7 34q-88 -47 -183 -47q-81 0 -116 38t-35 122v332q0 6 6 6h8q6 0 6 -6v-327q0 -81 30 -113.5t103 -32.5q94 0 181 45v428q0 6 6 6h8z" />
<glyph unicode="&#x16c;" horiz-adv-x="588" d="M382 820q6 0 6 -6v-15q0 -49 -19 -67t-73 -18h-4q-54 0 -73 18t-19 67v15q0 6 6 6h8q6 0 6 -6v-15q0 -41 13.5 -53.5t58.5 -12.5h4q45 0 58.5 12.5t13.5 53.5v15q0 6 6 6h8zM90 156v483q0 6 6 6h8q6 0 6 -6v-483q0 -84 37.5 -114.5t143.5 -30.5h6q106 0 143.5 30.5 t37.5 114.5v483q0 6 6 6h8q6 0 6 -6v-483q0 -93 -42.5 -128.5t-158.5 -35.5h-6q-116 0 -158.5 35.5t-42.5 128.5z" />
<glyph unicode="&#x16d;" horiz-adv-x="529" d="M263 559q-54 0 -73 18t-19 67v15q0 6 6 6h8q6 0 6 -6v-15q0 -41 13.5 -53.5t58.5 -12.5h4q45 0 58.5 12.5t13.5 53.5v15q0 6 6 6h8q6 0 6 -6v-15q0 -49 -19 -67t-73 -18h-4zM433 490q6 0 6 -6v-478q0 -6 -5 -6h-2q-5 0 -6 5l-7 34q-88 -47 -183 -47q-81 0 -116 38 t-35 122v332q0 6 6 6h8q6 0 6 -6v-327q0 -81 30 -113.5t103 -32.5q94 0 181 45v428q0 6 6 6h8z" />
<glyph unicode="&#x16e;" horiz-adv-x="588" d="M293 714q-44 0 -58.5 10.5t-14.5 41.5v14q0 31 14.5 41.5t58.5 10.5h2q44 0 58.5 -10.5t14.5 -41.5v-14q0 -31 -14.5 -41.5t-58.5 -10.5h-2zM293 730h2q37 0 46 6.5t9 30.5v12q0 24 -9 30.5t-46 6.5h-2q-37 0 -46 -6.5t-9 -30.5v-12q0 -24 9 -30.5t46 -6.5zM90 156v483 q0 6 6 6h8q6 0 6 -6v-483q0 -84 37.5 -114.5t143.5 -30.5h6q106 0 143.5 30.5t37.5 114.5v483q0 6 6 6h8q6 0 6 -6v-483q0 -93 -42.5 -128.5t-158.5 -35.5h-6q-116 0 -158.5 35.5t-42.5 128.5z" />
<glyph unicode="&#x16f;" horiz-adv-x="529" d="M264 559q-44 0 -58.5 10.5t-14.5 41.5v14q0 31 14.5 41.5t58.5 10.5h2q44 0 58.5 -10.5t14.5 -41.5v-14q0 -31 -14.5 -41.5t-58.5 -10.5h-2zM209 624v-12q0 -24 9 -30.5t46 -6.5h2q37 0 46 6.5t9 30.5v12q0 24 -9 30.5t-46 6.5h-2q-37 0 -46 -6.5t-9 -30.5zM433 490 q6 0 6 -6v-478q0 -6 -5 -6h-2q-5 0 -6 5l-7 34q-88 -47 -183 -47q-81 0 -116 38t-35 122v332q0 6 6 6h8q6 0 6 -6v-327q0 -81 30 -113.5t103 -32.5q94 0 181 45v428q0 6 6 6h8z" />
<glyph unicode="&#x170;" horiz-adv-x="588" d="M221 717q-9 0 -5 6l59 93q3 4 8 4h9q9 0 4 -7l-61 -92q-3 -4 -8 -4h-6zM343 717q-9 0 -5 6l59 93q3 4 8 4h9q9 0 4 -7l-61 -92q-3 -4 -8 -4h-6zM90 156v483q0 6 6 6h8q6 0 6 -6v-483q0 -84 37.5 -114.5t143.5 -30.5h6q106 0 143.5 30.5t37.5 114.5v483q0 6 6 6h8 q6 0 6 -6v-483q0 -93 -42.5 -128.5t-158.5 -35.5h-6q-116 0 -158.5 35.5t-42.5 128.5z" />
<glyph unicode="&#x171;" horiz-adv-x="529" d="M192 562q-9 0 -5 6l59 93q3 4 8 4h9q9 0 4 -7l-61 -92q-3 -4 -8 -4h-6zM314 562q-9 0 -5 6l59 93q3 4 8 4h9q9 0 4 -7l-61 -92q-3 -4 -8 -4h-6zM433 490q6 0 6 -6v-478q0 -6 -5 -6h-2q-5 0 -6 5l-7 34q-88 -47 -183 -47q-81 0 -116 38t-35 122v332q0 6 6 6h8q6 0 6 -6 v-327q0 -81 30 -113.5t103 -32.5q94 0 181 45v428q0 6 6 6h8z" />
<glyph unicode="&#x172;" horiz-adv-x="588" d="M492 645q6 0 6 -6v-483q0 -85 -35 -121.5t-128 -41.5l-38 -38q-41 -41 -50 -55t-9 -35v-8q0 -28 12 -37t51 -9h35q6 0 6 -6v-7q0 -6 -6 -6h-35q-46 0 -64.5 14.5t-18.5 50.5v8q0 24 10.5 41.5t49.5 54.5l32 31h-13h-6q-116 0 -158.5 35.5t-42.5 128.5v483q0 6 6 6h8 q6 0 6 -6v-483q0 -84 37.5 -114.5t143.5 -30.5h6q106 0 143.5 30.5t37.5 114.5v483q0 6 6 6h8z" />
<glyph unicode="&#x173;" horiz-adv-x="529" d="M435 -189q6 0 6 -6v-7q0 -6 -6 -6h-35q-46 0 -64.5 14.5t-18.5 50.5v8q0 24 10.5 41.5t49.5 54.5l48 47l-6 31q-88 -47 -183 -47q-81 0 -116 38t-35 122v332q0 6 6 6h8q6 0 6 -6v-327q0 -81 30 -113.5t103 -32.5q94 0 181 45v428q0 6 6 6h8q6 0 6 -6v-482q0 -4 -3 -7 l-40 -40q-41 -41 -50 -55t-9 -35v-8q0 -28 12 -37t51 -9h35z" />
<glyph unicode="&#x174;" horiz-adv-x="800" d="M308 717q-9 0 -4 7l83 93q3 3 7 3h12q4 0 7 -3l83 -93q5 -7 -4 -7h-11q-4 0 -7 3l-74 84l-74 -84q-3 -3 -7 -3h-11zM768 645q6 0 5 -7l-179 -631q-2 -7 -7 -7h-11q-5 0 -7 7l-120 424q-41 149 -49 182q-8 -33 -49 -182l-120 -424q-2 -7 -7 -7h-11q-5 0 -7 7l-179 631 q-1 7 5 7h10q5 0 7 -7l115 -405q36 -128 55 -201q18 73 54 201l115 405q2 7 7 7h10q5 0 7 -7l115 -405q36 -128 55 -201q18 73 54 201l115 405q2 7 7 7h10z" />
<glyph unicode="&#x175;" horiz-adv-x="702" d="M259 562q-9 0 -4 7l83 93q3 3 7 3h12q4 0 7 -3l83 -93q5 -7 -4 -7h-11q-4 0 -7 3l-74 84l-74 -84q-3 -3 -7 -3h-11zM671 490q7 0 5 -6l-155 -478q-2 -6 -7 -6h-11q-5 0 -7 6l-83 258q-34 103 -62 201q-28 -98 -62 -201l-83 -258q-2 -6 -7 -6h-11q-5 0 -7 6l-155 478 q-2 6 5 6h9q5 0 7 -6l84 -260q32 -96 62 -202q28 98 62 201l84 261q2 6 7 6h10q5 0 7 -6l84 -261q34 -103 62 -201q30 106 62 202l84 260q2 6 7 6h9z" />
<glyph unicode="&#x176;" horiz-adv-x="461" d="M139 717q-9 0 -4 7l83 93q3 3 7 3h12q4 0 7 -3l83 -93q5 -7 -4 -7h-11q-4 0 -7 3l-74 84l-74 -84q-3 -3 -7 -3h-11zM444 645q4 0 5 -0.5t0 -3.5l-209 -396v-239q0 -6 -6 -6h-8q-6 0 -6 6v241l-208 394q-1 3 0 3.5t5 0.5h9q5 0 7 -4l119 -225q47 -88 79 -155q30 64 78 155 l119 225q2 4 7 4h9z" />
<glyph unicode="&#x177;" horiz-adv-x="433" d="M127 562q-9 0 -4 7l83 93q3 3 7 3h12q4 0 7 -3l83 -93q5 -7 -4 -7h-11q-4 0 -7 3l-74 84l-74 -84q-3 -3 -7 -3h-11zM412 490q7 0 5 -5l-267 -682q-2 -5 -7 -5h-10q-7 0 -5 5l77 197l-185 485q-2 5 5 5h10q5 0 7 -5l102 -267q48 -128 73 -198q40 112 74 199l104 266 q2 5 7 5h10z" />
<glyph unicode="&#x178;" horiz-adv-x="461" d="M159 742q-6 0 -6 6v66q0 6 6 6h10q6 0 6 -6v-66q0 -6 -6 -6h-10zM293 742q-6 0 -6 6v66q0 6 6 6h10q6 0 6 -6v-66q0 -6 -6 -6h-10zM444 645q4 0 5 -0.5t0 -3.5l-209 -396v-239q0 -6 -6 -6h-8q-6 0 -6 6v241l-208 394q-1 3 0 3.5t5 0.5h9q5 0 7 -4l119 -225 q47 -88 79 -155q30 64 78 155l119 225q2 4 7 4h9z" />
<glyph unicode="&#x179;" horiz-adv-x="437" d="M189 717q-11 0 -3 8l94 92q3 3 7 3h13q4 0 5.5 -2t-0.5 -4l-99 -94q-3 -3 -7 -3h-10zM401 19q6 0 6 -6v-7q0 -6 -6 -6h-365q-6 0 -6 6v9q0 4 3 9l288 504q34 61 59 98h-336q-6 0 -6 6v7q0 6 6 6h349q6 0 6 -6v-9q0 -4 -3 -9l-288 -504q-41 -72 -58 -98h351z" />
<glyph unicode="&#x17a;" horiz-adv-x="399" d="M166 562q-11 0 -3 8l94 92q3 3 7 3h13q4 0 5.5 -2t-0.5 -4l-99 -94q-3 -3 -7 -3h-10zM359 19q6 0 6 -6v-7q0 -6 -6 -6h-319q-6 0 -6 6v8q0 4 2 7l262 400q26 38 36 50h-284q-6 0 -6 6v7q0 6 6 6h299q6 0 6 -6v-8q0 -4 -2 -7l-264 -403q-23 -34 -34 -47h304z" />
<glyph unicode="&#x17b;" horiz-adv-x="437" d="M218 742q-6 0 -6 6v66q0 6 6 6h10q6 0 6 -6v-66q0 -6 -6 -6h-10zM401 19q6 0 6 -6v-7q0 -6 -6 -6h-365q-6 0 -6 6v9q0 4 3 9l288 504q34 61 59 98h-336q-6 0 -6 6v7q0 6 6 6h349q6 0 6 -6v-9q0 -4 -3 -9l-288 -504q-41 -72 -58 -98h351z" />
<glyph unicode="&#x17c;" horiz-adv-x="399" d="M195 587q-6 0 -6 6v66q0 6 6 6h10q6 0 6 -6v-66q0 -6 -6 -6h-10zM359 19q6 0 6 -6v-7q0 -6 -6 -6h-319q-6 0 -6 6v8q0 4 2 7l262 400q26 38 36 50h-284q-6 0 -6 6v7q0 6 6 6h299q6 0 6 -6v-8q0 -4 -2 -7l-264 -403q-23 -34 -34 -47h304z" />
<glyph unicode="&#x17d;" horiz-adv-x="437" d="M210 720l-83 93q-5 7 4 7h11q4 0 7 -3l74 -84l74 84q3 3 7 3h11q9 0 4 -7l-83 -93q-3 -3 -7 -3h-12q-4 0 -7 3zM401 19q6 0 6 -6v-7q0 -6 -6 -6h-365q-6 0 -6 6v9q0 4 3 9l288 504q34 61 59 98h-336q-6 0 -6 6v7q0 6 6 6h349q6 0 6 -6v-9q0 -4 -3 -9l-288 -504 q-41 -72 -58 -98h351z" />
<glyph unicode="&#x17e;" horiz-adv-x="399" d="M187 565l-83 93q-5 7 4 7h11q4 0 7 -3l74 -84l74 84q3 3 7 3h11q9 0 4 -7l-83 -93q-3 -3 -7 -3h-12q-4 0 -7 3zM359 19q6 0 6 -6v-7q0 -6 -6 -6h-319q-6 0 -6 6v8q0 4 2 7l262 400q26 38 36 50h-284q-6 0 -6 6v7q0 6 6 6h299q6 0 6 -6v-8q0 -4 -2 -7l-264 -403 q-23 -34 -34 -47h304z" />
<glyph unicode="&#x1cd;" horiz-adv-x="510" d="M242 720l-83 93q-5 7 4 7h11q4 0 7 -3l74 -84l74 84q3 3 7 3h11q9 0 4 -7l-83 -93q-3 -3 -7 -3h-12q-4 0 -7 3zM488 6q2 -6 -5 -6h-9q-5 0 -7 6l-64 183h-296l-65 -186q-1 -3 -6 -3h-9q-7 0 -5 6l221 633q2 6 7 6h10q5 0 7 -6zM114 208h282l-76 219q-36 102 -65 195 q-29 -93 -65 -195z" />
<glyph unicode="&#x1ce;" horiz-adv-x="516" d="M246 565l-83 93q-5 7 4 7h11q4 0 7 -3l74 -84l74 84q3 3 7 3h11q9 0 4 -7l-83 -93q-3 -3 -7 -3h-12q-4 0 -7 3zM259 498q97 0 134.5 -33.5t37.5 -118.5v-340q0 -6 -4 -6h-4q-4 0 -5 5l-7 34q-91 -47 -191 -47q-81 0 -118 31.5t-37 101.5v12q0 68 33.5 95.5t116.5 27.5 h196v86q0 76 -32 104.5t-120 28.5h-6q-88 0 -120 -28.5t-32 -104.5v-4q0 -6 -6 -6h-8q-6 0 -6 6v4q0 85 37.5 118.5t134.5 33.5h6zM85 125q0 -62 32 -88t105 -26q96 0 189 45v185h-198q-73 0 -100.5 -23t-27.5 -81v-12z" />
<glyph unicode="&#x1fc;" horiz-adv-x="792" d="M517 717q-11 0 -3 8l94 92q3 3 7 3h13q4 0 5.5 -2t-0.5 -4l-99 -94q-3 -3 -7 -3h-10zM734 626h-313v-289h283q6 0 6 -6v-7q0 -6 -6 -6h-283v-299h313q6 0 6 -6v-7q0 -6 -6 -6h-327q-6 0 -6 6v180h-258l-100 -179q-3 -7 -9 -7h-8q-7 0 -4 7l350 634q1 4 7 4h355q6 0 6 -6 v-7q0 -6 -6 -6zM153 205h248v421h-14z" />
<glyph unicode="&#x1fd;" horiz-adv-x="832" d="M380 562q-11 0 -3 8l94 92q3 3 7 3h13q4 0 5.5 -2t-0.5 -4l-99 -94q-3 -3 -7 -3h-10zM751 241h-330v-95q0 -78 32.5 -106.5t122.5 -28.5h6q90 0 122.5 28.5t32.5 106.5v4q0 6 6 6h8q6 0 6 -6v-4q0 -87 -38 -120.5t-137 -33.5h-6q-67 0 -105 14.5t-54 48.5 q-92 -63 -202 -63q-78 0 -114 32.5t-36 104.5v8q0 68 33 95.5t112 27.5h191v84q0 77 -31 106t-116 29h-6q-85 0 -116 -29t-31 -106v-5q0 -6 -6 -6h-8q-6 0 -6 6v5q0 86 36.5 120t130.5 34h6q71 0 108 -18.5t49 -62.5q13 44 52 62.5t113 18.5h6q99 0 137 -33.5t38 -120.5v-97 q0 -6 -6 -6zM576 479q-90 0 -122.5 -28.5t-32.5 -106.5v-84h316v84q0 78 -32.5 106.5t-122.5 28.5h-6zM217 11q101 0 194 59q-10 29 -10 76v95h-193q-70 0 -96.5 -23t-26.5 -81v-8q0 -64 31 -91t101 -27z" />
<glyph unicode="&#x1fe;" horiz-adv-x="590" d="M261 717q-11 0 -3 8l94 92q3 3 7 3h13q4 0 5.5 -2t-0.5 -4l-99 -94q-3 -3 -7 -3h-10zM454 623q51 -34 51 -134v-333q0 -93 -43.5 -128.5t-163.5 -35.5h-6q-95 0 -140 21l-25 -50q-2 -4 -7 -4h-7q-8 0 -5 6l28 57q-51 34 -51 134v333q0 93 43.5 128.5t163.5 35.5h6 q95 0 140 -21l25 50q2 4 7 4h7q8 0 5 -6zM105 156q0 -87 40 -116l285 574q-39 20 -132 20h-6q-110 0 -148.5 -30t-38.5 -115v-333zM485 156v333q0 87 -40 116l-285 -574q39 -20 132 -20h6q110 0 148.5 30t38.5 115z" />
<glyph unicode="&#x1ff;" d="M230 562q-11 0 -3 8l94 92q3 3 7 3h13q4 0 5.5 -2t-0.5 -4l-99 -94q-3 -3 -7 -3h-10zM389 478q32 -17 45.5 -48.5t13.5 -85.5v-198q0 -87 -39 -120.5t-142 -33.5h-6q-67 0 -106 13l-21 -42q-2 -4 -7 -4h-7q-7 0 -5 6l24 47q-32 17 -45.5 48.5t-13.5 85.5v198 q0 87 39 120.5t142 33.5h6q67 0 106 -13l21 42q2 4 7 4h7q8 0 5 -6zM100 146q0 -90 47 -116l217 437q-31 12 -97 12h-6q-94 0 -127.5 -28.5t-33.5 -106.5v-198zM428 146v198q0 90 -47 116l-217 -437q31 -12 97 -12h6q94 0 127.5 28.5t33.5 106.5z" />
<glyph unicode="&#x218;" horiz-adv-x="506" d="M54 154v26q0 6 6 6h8q6 0 6 -6v-26q0 -84 36.5 -113.5t139.5 -29.5h6q103 0 139.5 29.5t36.5 113.5v26q0 60 -21.5 83t-96.5 40l-139 32q-69 16 -92.5 43.5t-23.5 93.5v20q0 90 41 125.5t150 35.5h6q109 0 150 -35.5t41 -125.5v-27q0 -6 -6 -6h-8q-6 0 -6 6v27 q0 84 -35.5 113t-135.5 29h-6q-100 0 -135.5 -29t-35.5 -113v-20q0 -60 20 -82t88 -38l139 -32q76 -17 101 -45t25 -95v-26q0 -91 -41.5 -126.5t-154.5 -35.5h-6q-113 0 -154.5 36t-41.5 126zM248 -214q-5 0 -5 6v123q0 6 6 6h8q6 0 6 -6v-49q0 -5 -1 -14l-6 -60 q-1 -6 -7 -6h-1z" />
<glyph unicode="&#x219;" horiz-adv-x="469" d="M60 111v40q0 6 6 6h8q6 0 6 -6v-40q0 -54 34 -77t119 -23h6q85 0 117.5 23t32.5 77v15q0 41 -16 60t-67 34l-144 42q-55 16 -75 38t-20 63v17q0 62 37.5 90t126.5 28h6q90 0 127.5 -28.5t37.5 -89.5v-40q0 -6 -6 -6h-8q-6 0 -6 6v40q0 54 -32 76.5t-113 22.5h-6 q-81 0 -112.5 -22.5t-31.5 -76.5v-17q0 -36 16.5 -52t69.5 -32l144 -42q53 -16 72.5 -40t19.5 -71v-15q0 -62 -37.5 -90.5t-132.5 -28.5h-6q-95 0 -134 28.5t-39 90.5zM230 -214q-5 0 -5 6v123q0 6 6 6h8q6 0 6 -6v-49q0 -5 -1 -14l-6 -60q-1 -6 -7 -6h-1z" />
<glyph unicode="&#x21a;" horiz-adv-x="452" d="M425 645q6 0 6 -6v-7q0 -6 -6 -6h-189v-620q0 -6 -6 -6h-8q-6 0 -6 6v620h-189q-6 0 -6 6v7q0 6 6 6h398zM229 -79q6 0 6 -6v-49q0 -5 -1 -14l-6 -60q-1 -6 -7 -6h-1q-5 0 -5 6v123q0 6 6 6h8z" />
<glyph unicode="&#x21b;" horiz-adv-x="311" d="M275 15q6 0 6 -6v-7q0 -6 -6 -6h-40q-73 0 -97.5 27t-24.5 112v336h-93q-6 0 -6 6v1q0 5 9 6l90 5v150q0 6 6 6h8q6 0 6 -6v-149h140q6 0 6 -6v-7q0 -6 -6 -6h-140v-330q0 -80 19.5 -103t83.5 -23h39zM194 -79q6 0 6 -6v-49q0 -5 -1 -14l-6 -60q-1 -6 -7 -6h-1q-5 0 -5 6 v123q0 6 6 6h8z" />
<glyph unicode="&#x237;" horiz-adv-x="200" d="M-22 -208q-6 0 -6 6v7q0 6 6 6h9q64 0 83.5 23t19.5 103v547q0 6 6 6h8q6 0 6 -6v-553q0 -85 -24.5 -112t-97.5 -27h-10z" />
<glyph unicode="&#x2c6;" d="M360 569q5 -7 -4 -7h-11q-4 0 -7 3l-74 84l-74 -84q-3 -3 -7 -3h-11q-9 0 -4 7l83 93q3 3 7 3h12q4 0 7 -3z" />
<glyph unicode="&#x2c7;" d="M356 665q9 0 4 -7l-83 -93q-3 -3 -7 -3h-12q-4 0 -7 3l-83 93q-5 7 4 7h11q4 0 7 -3l74 -84l74 84q3 3 7 3h11z" />
<glyph unicode="&#x2d8;" d="M352 665q6 0 6 -6v-15q0 -49 -19 -67t-73 -18h-4q-54 0 -73 18t-19 67v15q0 6 6 6h8q6 0 6 -6v-15q0 -41 13.5 -53.5t58.5 -12.5h4q45 0 58.5 12.5t13.5 53.5v15q0 6 6 6h8z" />
<glyph unicode="&#x2d9;" d="M259 587q-6 0 -6 6v66q0 6 6 6h10q6 0 6 -6v-66q0 -6 -6 -6h-10z" />
<glyph unicode="&#x2da;" d="M263 559q-44 0 -58.5 10.5t-14.5 41.5v14q0 31 14.5 41.5t58.5 10.5h2q44 0 58.5 -10.5t14.5 -41.5v-14q0 -31 -14.5 -41.5t-58.5 -10.5h-2zM263 575h2q37 0 46 6.5t9 30.5v12q0 24 -9 30.5t-46 6.5h-2q-37 0 -46 -6.5t-9 -30.5v-12q0 -24 9 -30.5t46 -6.5z" />
<glyph unicode="&#x2db;" horiz-adv-x="532" d="M256 -208q-46 0 -64.5 14.5t-18.5 50.5v8q0 24 10.5 41.5t49.5 54.5l50 49h12v-8q0 -4 -3 -7l-40 -40q-41 -41 -50 -55t-9 -35v-8q0 -28 12 -37t51 -9h35q6 0 6 -6v-7q0 -6 -6 -6h-35z" />
<glyph unicode="&#x2dc;" d="M341 566q-23 0 -51 19l-64 43q-22 15 -39 15q-26 0 -26 -36v-24q0 -6 -6 -6h-6q-6 0 -6 6v24q0 25 12 39.5t32 14.5q23 0 51 -19l64 -43q22 -15 39 -15q26 0 26 36v24q0 6 6 6h6q6 0 6 -6v-24q0 -25 -12 -39.5t-32 -14.5z" />
<glyph unicode="&#x2dd;" d="M230 562q-9 0 -5 6l59 93q3 4 8 4h9q9 0 4 -7l-61 -92q-3 -4 -8 -4h-6zM352 562q-9 0 -5 6l59 93q3 4 8 4h9q9 0 4 -7l-61 -92q-3 -4 -8 -4h-6z" />
<glyph unicode="&#x300;" horiz-adv-x="0" d="M-241 562q-4 0 -7 3l-99 94q-2 2 -0.5 4t5.5 2h13q4 0 7 -3l94 -92q8 -8 -3 -8h-10z" />
<glyph unicode="&#x301;" horiz-adv-x="0" d="M-298 562q-11 0 -3 8l94 92q3 3 7 3h13q4 0 5.5 -2t-0.5 -4l-99 -94q-3 -3 -7 -3h-10z" />
<glyph unicode="&#x302;" horiz-adv-x="0" d="M-168 569q5 -7 -4 -7h-11q-4 0 -7 3l-74 84l-74 -84q-3 -3 -7 -3h-11q-9 0 -4 7l83 93q3 3 7 3h12q4 0 7 -3z" />
<glyph unicode="&#x303;" horiz-adv-x="0" d="M-187 566q-23 0 -51 19l-64 43q-22 15 -39 15q-26 0 -26 -36v-24q0 -6 -6 -6h-6q-6 0 -6 6v24q0 25 12 39.5t32 14.5q23 0 51 -19l64 -43q22 -15 39 -15q26 0 26 36v24q0 6 6 6h6q6 0 6 -6v-24q0 -25 -12 -39.5t-32 -14.5z" />
<glyph unicode="&#x304;" horiz-adv-x="0" d="M-358 587q-6 0 -6 6v7q0 6 6 6h188q6 0 6 -6v-7q0 -6 -6 -6h-188z" />
<glyph unicode="&#x306;" horiz-adv-x="0" d="M-176 665q6 0 6 -6v-15q0 -49 -19 -67t-73 -18h-4q-54 0 -73 18t-19 67v15q0 6 6 6h8q6 0 6 -6v-15q0 -41 13.5 -53.5t58.5 -12.5h4q45 0 58.5 12.5t13.5 53.5v15q0 6 6 6h8z" />
<glyph unicode="&#x307;" horiz-adv-x="0" d="M-269 587q-6 0 -6 6v66q0 6 6 6h10q6 0 6 -6v-66q0 -6 -6 -6h-10z" />
<glyph unicode="&#x308;" horiz-adv-x="0" d="M-336 587q-6 0 -6 6v66q0 6 6 6h10q6 0 6 -6v-66q0 -6 -6 -6h-10zM-202 587q-6 0 -6 6v66q0 6 6 6h10q6 0 6 -6v-66q0 -6 -6 -6h-10z" />
<glyph unicode="&#x30a;" horiz-adv-x="0" d="M-265 559q-44 0 -58.5 10.5t-14.5 41.5v14q0 31 14.5 41.5t58.5 10.5h2q44 0 58.5 -10.5t14.5 -41.5v-14q0 -31 -14.5 -41.5t-58.5 -10.5h-2zM-265 575h2q37 0 46 6.5t9 30.5v12q0 24 -9 30.5t-46 6.5h-2q-37 0 -46 -6.5t-9 -30.5v-12q0 -24 9 -30.5t46 -6.5z" />
<glyph unicode="&#x30b;" horiz-adv-x="0" d="M-337 562q-9 0 -5 6l59 93q3 4 8 4h9q9 0 4 -7l-61 -92q-3 -4 -8 -4h-6zM-215 562q-9 0 -5 6l59 93q3 4 8 4h9q9 0 4 -7l-61 -92q-3 -4 -8 -4h-6z" />
<glyph unicode="&#x30c;" horiz-adv-x="0" d="M-172 665q9 0 4 -7l-83 -93q-3 -3 -7 -3h-12q-4 0 -7 3l-83 93q-5 7 4 7h11q4 0 7 -3l74 -84l74 84q3 3 7 3h11z" />
<glyph unicode="&#x312;" horiz-adv-x="0" d="M-269 697h1q6 0 7 -6l6 -60q1 -9 1 -14v-49q0 -6 -6 -6h-8q-6 0 -6 6v123q0 6 5 6z" />
<glyph unicode="&#x326;" horiz-adv-x="0" d="M-269 -214q-5 0 -5 6v123q0 6 6 6h8q6 0 6 -6v-49q0 -5 -1 -14l-6 -60q-1 -6 -7 -6h-1z" />
<glyph unicode="&#x327;" horiz-adv-x="0" d="M-257 -82q35 0 50 -12.5t15 -40.5v-20q0 -28 -15 -40.5t-50 -12.5h-74q-6 0 -6 6v7q0 6 6 6h74q27 0 36 7t9 27v20q0 20 -9 27t-36 7h-73q-8 0 -6 7l20 100h19l-17 -88h57z" />
<glyph unicode="&#x328;" horiz-adv-x="0" d="M-243 -208q-46 0 -64.5 14.5t-18.5 50.5v8q0 24 10.5 41.5t49.5 54.5l50 49h12v-8q0 -4 -3 -7l-40 -40q-41 -41 -50 -55t-9 -35v-8q0 -28 12 -37t51 -9h35q6 0 6 -6v-7q0 -6 -6 -6h-35z" />
<glyph unicode="&#x335;" horiz-adv-x="0" d="M-260 325q-6 0 -6 6v6q0 6 6 6h244q6 0 6 -6v-6q0 -6 -6 -6h-244z" />
<glyph unicode="&#x336;" horiz-adv-x="0" d="M-494 471q-6 0 -6 6v6q0 6 6 6h476q6 0 6 -6v-6q0 -6 -6 -6h-476z" />
<glyph unicode="&#x337;" horiz-adv-x="0" d="M-346 -41q-7 0 -5 6l279 562q2 4 7 4h7q8 0 5 -6l-279 -562q-2 -4 -7 -4h-7z" />
<glyph unicode="&#x338;" horiz-adv-x="0" d="M-422 -41q-8 0 -5 6l355 717q2 4 7 4h7q8 0 5 -6l-355 -717q-2 -4 -7 -4h-7z" />
<glyph unicode="&#x401;" horiz-adv-x="486" d="M186 742q-6 0 -6 6v66q0 6 6 6h10q6 0 6 -6v-66q0 -6 -6 -6h-10zM320 742q-6 0 -6 6v66q0 6 6 6h10q6 0 6 -6v-66q0 -6 -6 -6h-10zM428 626h-313v-289h283q6 0 6 -6v-7q0 -6 -6 -6h-283v-299h313q6 0 6 -6v-7q0 -6 -6 -6h-327q-6 0 -6 6v633q0 6 6 6h327q6 0 6 -6v-7 q0 -6 -6 -6z" />
<glyph unicode="&#x402;" horiz-adv-x="647" d="M433 398q83 0 121 -38.5t38 -121.5v-107q0 -85 -24.5 -112t-97.5 -27h-50q-6 0 -6 6v7q0 6 6 6h49q64 0 83.5 23t19.5 103v96q0 80 -33.5 113t-106.5 33q-107 0 -217 -61v-312q0 -6 -6 -6h-8q-6 0 -6 6v620h-189q-6 0 -6 6v7q0 6 6 6h398q6 0 6 -6v-7q0 -6 -6 -6h-189 v-288q108 60 218 60z" />
<glyph unicode="&#x403;" horiz-adv-x="442" d="M213 717q-11 0 -3 8l94 92q3 3 7 3h13q4 0 5.5 -2t-0.5 -4l-99 -94q-3 -3 -7 -3h-10zM411 645q6 0 6 -6v-7q0 -6 -6 -6h-296v-620q0 -6 -6 -6h-8q-6 0 -6 6v633q0 6 6 6h310z" />
<glyph unicode="&#x404;" horiz-adv-x="575" d="M481 449q-6 0 -6 6v34q0 84 -37.5 114.5t-144.5 30.5h-6q-107 0 -144.5 -30.5t-37.5 -114.5v-157h246q6 0 6 -6v-7q0 -6 -6 -6h-246v-157q0 -84 37.5 -114.5t144.5 -30.5h6q107 0 144.5 30.5t37.5 114.5v34q0 6 6 6h8q6 0 6 -6v-34q0 -93 -42.5 -128.5t-159.5 -35.5h-6 q-117 0 -159.5 35.5t-42.5 128.5v333q0 93 42.5 128.5t159.5 35.5h6q117 0 159.5 -35.5t42.5 -128.5v-34q0 -6 -6 -6h-8z" />
<glyph unicode="&#x405;" horiz-adv-x="506" d="M54 154v26q0 6 6 6h8q6 0 6 -6v-26q0 -84 36.5 -113.5t139.5 -29.5h6q103 0 139.5 29.5t36.5 113.5v26q0 60 -21.5 83t-96.5 40l-139 32q-69 16 -92.5 43.5t-23.5 93.5v20q0 90 41 125.5t150 35.5h6q109 0 150 -35.5t41 -125.5v-27q0 -6 -6 -6h-8q-6 0 -6 6v27 q0 84 -35.5 113t-135.5 29h-6q-100 0 -135.5 -29t-35.5 -113v-20q0 -60 20 -82t88 -38l139 -32q76 -17 101 -45t25 -95v-26q0 -91 -41.5 -126.5t-154.5 -35.5h-6q-113 0 -154.5 36t-41.5 126z" />
<glyph unicode="&#x406;" horiz-adv-x="210" d="M101 0q-6 0 -6 6v633q0 6 6 6h8q6 0 6 -6v-633q0 -6 -6 -6h-8z" />
<glyph unicode="&#x407;" horiz-adv-x="210" d="M33 742q-6 0 -6 6v66q0 6 6 6h10q6 0 6 -6v-66q0 -6 -6 -6h-10zM167 742q-6 0 -6 6v66q0 6 6 6h10q6 0 6 -6v-66q0 -6 -6 -6h-10zM101 0q-6 0 -6 6v633q0 6 6 6h8q6 0 6 -6v-633q0 -6 -6 -6h-8z" />
<glyph unicode="&#x408;" horiz-adv-x="489" d="M214 -8q-101 0 -140 36t-39 128v24q0 6 6 6h8q6 0 6 -6v-24q0 -83 34 -114t125 -31h6q91 0 125 31t34 114v483q0 6 6 6h8q6 0 6 -6v-483q0 -92 -39 -128t-140 -36h-6z" />
<glyph unicode="&#x409;" horiz-adv-x="868" d="M666 365q84 0 120.5 -32t36.5 -108v-85q0 -76 -36.5 -108t-120.5 -32h-218q-6 0 -6 6v620h-284l-20 -419q-5 -115 -34 -163t-84 -48h-5q-5 0 -5 6v7q0 6 6 6h4q45 0 69 43t29 149l20 432q0 6 6 6h312q6 0 6 -6v-274h204zM803 140v85q0 70 -32.5 95.5t-112.5 25.5h-196 v-327h196q80 0 112.5 25.5t32.5 95.5z" />
<glyph unicode="&#x40a;" horiz-adv-x="889" d="M687 345q84 0 120.5 -32t36.5 -108v-65q0 -76 -36.5 -108t-120.5 -32h-218q-6 0 -6 6v320h-348v-320q0 -6 -6 -6h-8q-6 0 -6 6v633q0 6 6 6h8q6 0 6 -6v-294h348v294q0 6 6 6h8q6 0 6 -6v-294h204zM824 140v65q0 70 -32.5 95.5t-112.5 25.5h-196v-307h196 q80 0 112.5 25.5t32.5 95.5z" />
<glyph unicode="&#x40b;" horiz-adv-x="647" d="M433 398q83 0 121 -38.5t38 -121.5v-232q0 -6 -6 -6h-8q-6 0 -6 6v227q0 80 -33.5 113t-106.5 33q-107 0 -217 -61v-312q0 -6 -6 -6h-8q-6 0 -6 6v620h-189q-6 0 -6 6v7q0 6 6 6h398q6 0 6 -6v-7q0 -6 -6 -6h-189v-288q108 60 218 60z" />
<glyph unicode="&#x40c;" horiz-adv-x="526" d="M234 717q-11 0 -3 8l94 92q3 3 7 3h13q4 0 5.5 -2t-0.5 -4l-99 -94q-3 -3 -7 -3h-10zM497 6q4 -6 -5 -6h-10q-5 0 -9 6l-202 310h-156v-310q0 -6 -6 -6h-8q-6 0 -6 6v633q0 6 6 6h8q6 0 6 -6v-304h156l200 307q2 3 7 3h10q9 0 5 -6l-205 -313z" />
<glyph unicode="&#x40d;" horiz-adv-x="626" d="M329 720l-99 94q-2 2 -0.5 4t5.5 2h13q4 0 7 -3l94 -92q8 -8 -3 -8h-10q-4 0 -7 3zM525 645q6 0 6 -6v-633q0 -6 -6 -6h-8q-6 0 -6 6v418q0 127 2 196q-48 -81 -123 -196l-270 -418q-4 -6 -9 -6h-10q-6 0 -6 6v633q0 6 6 6h8q6 0 6 -6v-418q0 -127 -2 -196q48 81 123 196 l270 418q4 6 9 6h10z" />
<glyph unicode="&#x40e;" horiz-adv-x="456" d="M231 714q-54 0 -73 18t-19 67v15q0 6 6 6h8q6 0 6 -6v-15q0 -41 13.5 -53.5t58.5 -12.5h4q45 0 58.5 12.5t13.5 53.5v15q0 6 6 6h8q6 0 6 -6v-15q0 -49 -19 -67t-73 -18h-4zM449 645q7 0 5 -5l-215 -556q-19 -50 -49 -69.5t-86 -19.5h-33q-6 0 -6 6v7q0 6 6 6h38 q45 0 70 16t39 54l16 42l-207 514q0 5 6 5h8q5 0 7 -5l123 -305q46 -112 73 -191q28 82 71 191l118 305q2 5 7 5h9z" />
<glyph unicode="&#x40f;" horiz-adv-x="588" d="M487 645q6 0 6 -6v-633q0 -6 -6 -6h-182l-3 -125q0 -6 -7 -6h-1q-7 0 -7 6l-3 125h-183q-6 0 -6 6v633q0 6 6 6h8q6 0 6 -6v-620h358v620q0 6 6 6h8z" />
<glyph unicode="&#x410;" horiz-adv-x="510" d="M488 6q2 -6 -5 -6h-9q-5 0 -7 6l-64 183h-296l-65 -186q-1 -3 -6 -3h-9q-7 0 -5 6l221 633q2 6 7 6h10q5 0 7 -6zM114 208h282l-76 219q-36 102 -65 195q-29 -93 -65 -195z" />
<glyph unicode="&#x411;" horiz-adv-x="549" d="M334 345q84 0 120.5 -32.5t36.5 -107.5v-65q0 -75 -36.5 -107.5t-120.5 -32.5h-233q-6 0 -6 6v633q0 6 6 6h339q6 0 6 -6v-7q0 -6 -6 -6h-325v-281h219zM471 140v65q0 70 -32.5 95.5t-112.5 25.5h-211v-307h211q80 0 112.5 25.5t32.5 95.5z" />
<glyph unicode="&#x412;" horiz-adv-x="554" d="M381 331q59 -8 85 -38.5t26 -94.5v-58q0 -76 -36.5 -108t-120.5 -32h-234q-6 0 -6 6v633q0 6 6 6h210q84 0 120.5 -32t36.5 -108v-46q0 -57 -20.5 -87t-66.5 -41zM303 626h-188v-288h188q80 0 112.5 25.5t32.5 95.5v46q0 70 -32.5 95.5t-112.5 25.5zM472 140v58 q0 70 -32.5 95.5t-112.5 25.5h-212v-300h212q80 0 112.5 25.5t32.5 95.5z" />
<glyph unicode="&#x413;" horiz-adv-x="442" d="M411 645q6 0 6 -6v-7q0 -6 -6 -6h-296v-620q0 -6 -6 -6h-8q-6 0 -6 6v633q0 6 6 6h310z" />
<glyph unicode="&#x414;" horiz-adv-x="563" d="M517 19q6 0 6 -6v-138q0 -6 -6 -6h-2q-6 0 -6 6l-6 125h-473l-6 -125q0 -6 -6 -6h-2q-6 0 -6 6v138q0 6 6 6h39q35 64 46 120t11 175v325q0 6 6 6h339q6 0 6 -6v-620h54zM132 314q0 -119 -10.5 -175.5t-43.5 -119.5h365v607h-311v-312z" />
<glyph unicode="&#x415;" horiz-adv-x="486" d="M428 626h-313v-289h283q6 0 6 -6v-7q0 -6 -6 -6h-283v-299h313q6 0 6 -6v-7q0 -6 -6 -6h-327q-6 0 -6 6v633q0 6 6 6h327q6 0 6 -6v-7q0 -6 -6 -6z" />
<glyph unicode="&#x416;" horiz-adv-x="762" d="M733 7q4 -7 -4 -7h-10q-5 0 -9 7l-171 309h-148v-310q0 -6 -6 -6h-8q-6 0 -6 6v310h-148l-171 -309q-4 -7 -9 -7h-10q-8 0 -4 7l177 319l-173 312q-4 7 4 7h10q5 0 7 -4l169 -306h148v304q0 6 6 6h8q6 0 6 -6v-304h148l169 306q2 4 7 4h10q8 0 4 -7l-173 -312z" />
<glyph unicode="&#x417;" horiz-adv-x="524" d="M351 329q62 -6 85 -33t23 -92v-58q0 -87 -41.5 -120.5t-153.5 -33.5h-6q-112 0 -153.5 33.5t-41.5 120.5v34q0 6 6 6h8q6 0 6 -6v-34q0 -77 35.5 -106t139.5 -29h6q104 0 139.5 29t35.5 106v58q0 70 -32.5 92.5t-142.5 22.5h-70q-6 0 -6 6v7q0 6 6 6h64q110 0 142.5 22.5 t32.5 92.5v46q0 80 -33.5 107.5t-135.5 27.5h-6q-102 0 -136 -27.5t-34 -107.5v-44q0 -6 -6 -6h-8q-6 0 -6 6v44q0 88 40.5 121t149.5 33h6q109 0 149 -33t40 -121v-46q0 -63 -22 -90t-80 -34z" />
<glyph unicode="&#x418;" horiz-adv-x="626" d="M525 645q6 0 6 -6v-633q0 -6 -6 -6h-8q-6 0 -6 6v418q0 127 2 196q-48 -81 -123 -196l-270 -418q-4 -6 -9 -6h-10q-6 0 -6 6v633q0 6 6 6h8q6 0 6 -6v-418q0 -127 -2 -196q48 81 123 196l270 418q4 6 9 6h10z" />
<glyph unicode="&#x419;" horiz-adv-x="626" d="M311 714q-54 0 -73 18t-19 67v15q0 6 6 6h8q6 0 6 -6v-15q0 -41 13.5 -53.5t58.5 -12.5h4q45 0 58.5 12.5t13.5 53.5v15q0 6 6 6h8q6 0 6 -6v-15q0 -49 -19 -67t-73 -18h-4zM525 645q6 0 6 -6v-633q0 -6 -6 -6h-8q-6 0 -6 6v418q0 127 2 196q-48 -81 -123 -196l-270 -418 q-4 -6 -9 -6h-10q-6 0 -6 6v633q0 6 6 6h8q6 0 6 -6v-418q0 -127 -2 -196q48 81 123 196l270 418q4 6 9 6h10z" />
<glyph unicode="&#x41a;" horiz-adv-x="526" d="M497 6q4 -6 -5 -6h-10q-5 0 -9 6l-202 310h-156v-310q0 -6 -6 -6h-8q-6 0 -6 6v633q0 6 6 6h8q6 0 6 -6v-304h156l200 307q2 3 7 3h10q9 0 5 -6l-205 -313z" />
<glyph unicode="&#x41b;" horiz-adv-x="572" d="M471 645q6 0 6 -6v-633q0 -6 -6 -6h-8q-6 0 -6 6v620h-299l-20 -419q-5 -115 -34 -163t-84 -48h-5q-5 0 -5 6v7q0 6 6 6h4q45 0 69 43t29 149l20 432q0 6 6 6h327z" />
<glyph unicode="&#x41c;" horiz-adv-x="728" d="M627 645q6 0 6 -6v-633q0 -6 -6 -6h-8q-6 0 -6 6v405q0 133 3 204q-46 -94 -103 -204l-142 -276q-2 -4 -6 -4h-2q-4 0 -6 4l-142 276q-57 110 -103 204q3 -71 3 -204v-405q0 -6 -6 -6h-8q-6 0 -6 6v633q0 6 6 6h11q5 0 7 -4l159 -309q44 -84 86 -176q42 92 86 176 l159 309q2 4 7 4h11z" />
<glyph unicode="&#x41d;" horiz-adv-x="598" d="M497 645q6 0 6 -6v-633q0 -6 -6 -6h-8q-6 0 -6 6v310h-368v-310q0 -6 -6 -6h-8q-6 0 -6 6v633q0 6 6 6h8q6 0 6 -6v-304h368v304q0 6 6 6h8z" />
<glyph unicode="&#x41e;" horiz-adv-x="590" d="M85 156v333q0 93 43.5 128.5t163.5 35.5h6q120 0 163.5 -35.5t43.5 -128.5v-333q0 -93 -43.5 -128.5t-163.5 -35.5h-6q-120 0 -163.5 35.5t-43.5 128.5zM105 156q0 -85 38.5 -115t148.5 -30h6q110 0 148.5 30t38.5 115v333q0 85 -38.5 115t-148.5 30h-6 q-110 0 -148.5 -30t-38.5 -115v-333z" />
<glyph unicode="&#x41f;" horiz-adv-x="598" d="M497 645q6 0 6 -6v-633q0 -6 -6 -6h-8q-6 0 -6 6v620h-368v-620q0 -6 -6 -6h-8q-6 0 -6 6v633q0 6 6 6h396z" />
<glyph unicode="&#x420;" horiz-adv-x="512" d="M295 645q96 0 136.5 -33t40.5 -111v-104q0 -78 -40.5 -111t-136.5 -33h-180v-247q0 -6 -6 -6h-8q-6 0 -6 6v633q0 6 6 6h194zM452 397v104q0 71 -36.5 98t-128.5 27h-172v-354h172q92 0 128.5 27t36.5 98z" />
<glyph unicode="&#x421;" horiz-adv-x="560" d="M287 -8q-117 0 -159.5 35.5t-42.5 128.5v333q0 93 42.5 128.5t159.5 35.5h6q117 0 159.5 -35.5t42.5 -128.5v-34q0 -6 -6 -6h-8q-6 0 -6 6v34q0 84 -37.5 114.5t-144.5 30.5h-6q-107 0 -144.5 -30.5t-37.5 -114.5v-333q0 -84 37.5 -114.5t144.5 -30.5h6q107 0 144.5 30.5 t37.5 114.5v34q0 6 6 6h8q6 0 6 -6v-34q0 -93 -42.5 -128.5t-159.5 -35.5h-6z" />
<glyph unicode="&#x422;" horiz-adv-x="452" d="M425 645q6 0 6 -6v-7q0 -6 -6 -6h-189v-620q0 -6 -6 -6h-8q-6 0 -6 6v620h-189q-6 0 -6 6v7q0 6 6 6h398z" />
<glyph unicode="&#x423;" horiz-adv-x="456" d="M449 645q7 0 5 -5l-215 -556q-19 -50 -49 -69.5t-86 -19.5h-33q-6 0 -6 6v7q0 6 6 6h38q45 0 70 16t39 54l16 42l-207 514q0 5 6 5h8q5 0 7 -5l123 -305q46 -112 73 -191q28 82 71 191l118 305q2 5 7 5h9z" />
<glyph unicode="&#x424;" horiz-adv-x="690" d="M414 595q117 0 159 -33t42 -121v-236q0 -88 -42 -121t-159 -33h-59v-75q0 -6 -6 -6h-8q-6 0 -6 6v75h-59q-117 0 -159 33t-42 121v236q0 88 42 121t159 33h59v74q0 6 6 6h8q6 0 6 -6v-74h59zM276 70h59v506h-59q-108 0 -144.5 -28t-36.5 -107v-236q0 -79 36.5 -107 t144.5 -28zM595 205v236q0 79 -36.5 107t-144.5 28h-59v-506h59q108 0 144.5 28t36.5 107z" />
<glyph unicode="&#x425;" horiz-adv-x="464" d="M438 5q3 -5 -5 -5h-10q-5 0 -8 5l-183 299l-183 -299q-3 -5 -8 -5h-10q-8 0 -5 5l196 319l-194 316q-3 5 5 5h9q6 0 9 -5l181 -296l181 296q3 5 8 5h10q8 0 5 -5l-194 -316z" />
<glyph unicode="&#x426;" horiz-adv-x="593" d="M547 19q6 0 6 -6v-138q0 -6 -6 -6h-2q-6 0 -6 6l-6 125h-432q-6 0 -6 6v633q0 6 6 6h8q6 0 6 -6v-620h358v620q0 6 6 6h8q6 0 6 -6v-620h54z" />
<glyph unicode="&#x427;" horiz-adv-x="539" d="M438 645q6 0 6 -6v-633q0 -6 -6 -6h-8q-6 0 -6 6v290q-109 -59 -217 -59q-83 0 -121 38.5t-38 121.5v242q0 6 6 6h8q6 0 6 -6v-237q0 -80 33.5 -113t106.5 -33q105 0 216 60v323q0 6 6 6h8z" />
<glyph unicode="&#x428;" horiz-adv-x="810" d="M709 645q6 0 6 -6v-633q0 -6 -6 -6h-608q-6 0 -6 6v633q0 6 6 6h8q6 0 6 -6v-620h280v620q0 6 6 6h8q6 0 6 -6v-620h280v620q0 6 6 6h8z" />
<glyph unicode="&#x429;" horiz-adv-x="815" d="M769 19q6 0 6 -6v-138q0 -6 -6 -6h-2q-6 0 -6 6l-6 125h-654q-6 0 -6 6v633q0 6 6 6h8q6 0 6 -6v-620h280v620q0 6 6 6h8q6 0 6 -6v-620h280v620q0 6 6 6h8q6 0 6 -6v-620h54z" />
<glyph unicode="&#x42a;" horiz-adv-x="581" d="M379 365q84 0 120.5 -32t36.5 -108v-85q0 -76 -36.5 -108t-120.5 -32h-238q-6 0 -6 6v620h-129q-6 0 -6 6v7q0 6 6 6h143q6 0 6 -6v-274h224zM516 140v85q0 70 -32.5 95.5t-112.5 25.5h-216v-327h216q80 0 112.5 25.5t32.5 95.5z" />
<glyph unicode="&#x42b;" horiz-adv-x="721" d="M319 365q84 0 120.5 -32t36.5 -108v-85q0 -76 -36.5 -108t-120.5 -32h-218q-6 0 -6 6v633q0 6 6 6h8q6 0 6 -6v-274h204zM620 645q6 0 6 -6v-633q0 -6 -6 -6h-8q-6 0 -6 6v633q0 6 6 6h8zM456 140v85q0 70 -32.5 95.5t-112.5 25.5h-196v-327h196q80 0 112.5 25.5 t32.5 95.5z" />
<glyph unicode="&#x42c;" horiz-adv-x="541" d="M339 365q84 0 120.5 -32t36.5 -108v-85q0 -76 -36.5 -108t-120.5 -32h-238q-6 0 -6 6v633q0 6 6 6h8q6 0 6 -6v-274h224zM476 140v85q0 70 -32.5 95.5t-112.5 25.5h-216v-327h216q80 0 112.5 25.5t32.5 95.5z" />
<glyph unicode="&#x42d;" horiz-adv-x="575" d="M288 653q117 0 159.5 -35.5t42.5 -128.5v-333q0 -93 -42.5 -128.5t-159.5 -35.5h-6q-117 0 -159.5 35.5t-42.5 128.5v34q0 6 6 6h8q6 0 6 -6v-34q0 -84 37.5 -114.5t144.5 -30.5h6q107 0 144.5 30.5t37.5 114.5v157h-246q-6 0 -6 6v7q0 6 6 6h246v157q0 84 -37.5 114.5 t-144.5 30.5h-6q-107 0 -144.5 -30.5t-37.5 -114.5v-34q0 -6 -6 -6h-8q-6 0 -6 6v34q0 93 42.5 128.5t159.5 35.5h6z" />
<glyph unicode="&#x42e;" horiz-adv-x="780" d="M496 653q115 0 157 -35.5t42 -128.5v-333q0 -93 -42 -128.5t-157 -35.5h-6q-115 0 -157 35.5t-42 128.5v157h-176v-307q0 -6 -6 -6h-8q-6 0 -6 6v633q0 6 6 6h8q6 0 6 -6v-307h176v157q0 93 42 128.5t157 35.5h6zM675 156v333q0 84 -37 114.5t-142 30.5h-6 q-105 0 -142 -30.5t-37 -114.5v-333q0 -84 37 -114.5t142 -30.5h6q105 0 142 30.5t37 114.5z" />
<glyph unicode="&#x42f;" horiz-adv-x="545" d="M444 645q6 0 6 -6v-633q0 -6 -6 -6h-8q-6 0 -6 6v261h-180h-22l-143 -263q-3 -4 -7 -4h-11q-4 0 -5.5 0.5t-0.5 3.5l146 265q-72 7 -103 40t-31 102v90q0 78 40.5 111t136.5 33h194zM258 286h172v340h-172q-92 0 -128.5 -27t-36.5 -98v-90q0 -71 36.5 -98t128.5 -27z" />
<glyph unicode="&#x430;" horiz-adv-x="510" d="M256 498q95 0 132 -33.5t37 -118.5v-340q0 -6 -5 -6h-2q-5 0 -6 5l-7 34q-91 -47 -189 -47q-78 0 -114.5 32t-36.5 101v12q0 68 33.5 95.5t115.5 27.5h191v86q0 76 -31.5 104.5t-117.5 28.5h-6q-86 0 -117.5 -28.5t-31.5 -104.5v-4q0 -6 -6 -6h-8q-6 0 -6 6v4 q0 85 37 118.5t132 33.5h6zM85 125q0 -62 31.5 -88t102.5 -26q93 0 186 45v185h-193q-73 0 -100 -23t-27 -81v-12z" />
<glyph unicode="&#x431;" d="M272 468q103 0 142 -33.5t39 -120.5v-168q0 -87 -39 -120.5t-142 -33.5h-6q-103 0 -142 33.5t-39 120.5v279q0 76 27.5 116.5t91.5 60.5l103 32q57 18 76.5 32t19.5 32v4q0 6 6 6h8q6 0 6 -6v-4q0 -25 -23 -43.5t-82 -37.5l-103 -32q-62 -19 -86 -54.5t-24 -110.5v-24 q14 39 50.5 55.5t110.5 16.5h6zM433 146v168q0 78 -33.5 106.5t-127.5 28.5h-6q-94 0 -127.5 -28.5t-33.5 -106.5v-168q0 -78 33.5 -106.5t127.5 -28.5h6q94 0 127.5 28.5t33.5 106.5z" />
<glyph unicode="&#x432;" horiz-adv-x="487" d="M348 250q84 -14 84 -97v-49q0 -104 -123 -104h-213q-6 0 -6 6v478q0 6 6 6h193q123 0 123 -104v-44q0 -74 -64 -92zM285 471h-175v-214h178q55 0 79.5 20t24.5 65v44q0 45 -25 65t-82 20zM412 104v49q0 45 -24.5 65t-79.5 20h-198v-219h195q57 0 82 20t25 65z" />
<glyph unicode="&#x433;" horiz-adv-x="380" d="M356 490q6 0 6 -6v-7q0 -6 -6 -6h-246v-465q0 -6 -6 -6h-8q-6 0 -6 6v478q0 6 6 6h260z" />
<glyph unicode="&#x434;" horiz-adv-x="500" d="M454 19q6 0 6 -6v-138q0 -6 -6 -6h-2q-6 0 -6 6l-6 125h-410l-6 -125q0 -6 -6 -6h-2q-6 0 -6 6v138q0 6 6 6h38q27 50 36.5 101t9.5 151v213q0 6 6 6h293q6 0 6 -6v-465h49zM120 271q0 -99 -9 -150.5t-35 -101.5h309v452h-265v-200z" />
<glyph unicode="&#x435;" horiz-adv-x="521" d="M440 253h-340v-107q0 -78 33 -106.5t127 -28.5h6q94 0 127 28.5t33 106.5v5q0 6 6 6h8q6 0 6 -6v-5q0 -87 -38.5 -120.5t-141.5 -33.5h-6q-103 0 -141.5 33.5t-38.5 120.5v198q0 87 38.5 120.5t141.5 33.5h6q103 0 141.5 -33.5t38.5 -120.5v-85q0 -6 -6 -6zM260 479 q-94 0 -127 -28.5t-33 -106.5v-72h326v72q0 78 -33 106.5t-127 28.5h-6z" />
<glyph unicode="&#x436;" horiz-adv-x="652" d="M627 5q3 -5 -5 -5h-10q-5 0 -8 5l-144 235h-124v-234q0 -6 -6 -6h-8q-6 0 -6 6v234h-124l-144 -235q-3 -5 -8 -5h-10q-8 0 -5 5l149 243l-145 237q-3 5 5 5h10q5 0 8 -5l137 -226h127v225q0 6 6 6h8q6 0 6 -6v-225h127l137 226q3 5 8 5h10q8 0 5 -5l-145 -237z" />
<glyph unicode="&#x437;" horiz-adv-x="490" d="M320 248q51 -7 76 -33t25 -77v-27q0 -64 -39 -91.5t-134 -27.5h-6q-95 0 -134 27.5t-39 91.5v34q0 6 6 6h8q6 0 6 -6v-34q0 -56 33.5 -78t119.5 -22h6q86 0 119.5 22t33.5 78v27q0 56 -33.5 78t-119.5 22h-59q-6 0 -6 6v7q0 6 6 6h59q82 0 114.5 22t32.5 78v22 q0 56 -32.5 78t-114.5 22h-6q-82 0 -114.5 -22t-32.5 -78v-33q0 -6 -6 -6h-8q-6 0 -6 6v33q0 64 38 91.5t129 27.5h6q91 0 129 -27.5t38 -91.5v-22q0 -97 -95 -109z" />
<glyph unicode="&#x438;" horiz-adv-x="538" d="M442 490q6 0 6 -6v-478q0 -6 -6 -6h-8q-6 0 -6 6v252q0 140 2 206q-42 -66 -126 -186l-192 -275q-2 -3 -7 -3h-9q-6 0 -6 6v478q0 6 6 6h8q6 0 6 -6v-245q0 -145 -2 -213q62 95 131 193l187 268q2 3 7 3h9z" />
<glyph unicode="&#x439;" horiz-adv-x="538" d="M267 559q-54 0 -73 18t-19 67v15q0 6 6 6h8q6 0 6 -6v-15q0 -41 13.5 -53.5t58.5 -12.5h4q45 0 58.5 12.5t13.5 53.5v15q0 6 6 6h8q6 0 6 -6v-15q0 -49 -19 -67t-73 -18h-4zM442 490q6 0 6 -6v-478q0 -6 -6 -6h-8q-6 0 -6 6v252q0 140 2 206q-42 -66 -126 -186l-192 -275 q-2 -3 -7 -3h-9q-6 0 -6 6v478q0 6 6 6h8q6 0 6 -6v-245q0 -145 -2 -213q62 95 131 193l187 268q2 3 7 3h9z" />
<glyph unicode="&#x43a;" horiz-adv-x="455" d="M429 7q5 -7 -4 -7h-11q-5 0 -8 4l-173 236h-123v-234q0 -6 -6 -6h-8q-6 0 -6 6v478q0 6 6 6h8q6 0 6 -6v-225h126l166 227q3 4 8 4h11q9 0 4 -7l-173 -235z" />
<glyph unicode="&#x43b;" horiz-adv-x="505" d="M409 490q6 0 6 -6v-478q0 -6 -6 -6h-8q-6 0 -6 6v465h-248l-19 -270q-9 -125 -31 -165t-75 -40h-4q-6 0 -6 6v7q0 6 6 6h4q29 0 44.5 13t26 53t15.5 120l20 283q0 6 6 6h275z" />
<glyph unicode="&#x43c;" horiz-adv-x="623" d="M527 490q6 0 6 -6v-478q0 -6 -6 -6h-8q-6 0 -6 6v279q0 110 2 172q-21 -42 -91 -171l-103 -188q-1 -3 -7 -3h-5q-5 0 -7 3l-103 188q-70 129 -91 171q2 -62 2 -172v-279q0 -6 -6 -6h-8q-6 0 -6 6v478q0 6 6 6h9q5 0 6 -2l152 -278q27 -48 49 -93q19 41 48 93l152 278 q1 2 6 2h9z" />
<glyph unicode="&#x43d;" horiz-adv-x="524" d="M428 490q6 0 6 -6v-478q0 -6 -6 -6h-8q-6 0 -6 6v234h-304v-234q0 -6 -6 -6h-8q-6 0 -6 6v478q0 6 6 6h8q6 0 6 -6v-225h304v225q0 6 6 6h8z" />
<glyph unicode="&#x43e;" d="M80 146v198q0 87 39 120.5t142 33.5h6q103 0 142 -33.5t39 -120.5v-198q0 -87 -39 -120.5t-142 -33.5h-6q-103 0 -142 33.5t-39 120.5zM100 146q0 -78 33.5 -106.5t127.5 -28.5h6q94 0 127.5 28.5t33.5 106.5v198q0 78 -33.5 106.5t-127.5 28.5h-6q-94 0 -127.5 -28.5 t-33.5 -106.5v-198z" />
<glyph unicode="&#x43f;" horiz-adv-x="524" d="M428 490q6 0 6 -6v-478q0 -6 -6 -6h-8q-6 0 -6 6v465h-304v-465q0 -6 -6 -6h-8q-6 0 -6 6v478q0 6 6 6h332z" />
<glyph unicode="&#x440;" horiz-adv-x="530" d="M299 498q81 0 116 -38t35 -122v-186q0 -84 -35 -122t-116 -38q-96 0 -189 48v-234q0 -6 -6 -6h-8q-6 0 -6 6v678q0 6 5 6h2q5 0 6 -5l7 -35q93 48 189 48zM430 333q0 81 -30 113.5t-103 32.5q-95 0 -187 -46v-376q92 -46 187 -46q73 0 103 32.5t30 113.5v176z" />
<glyph unicode="&#x441;" horiz-adv-x="507" d="M80 146v198q0 87 38 120.5t138 33.5h6q100 0 138 -33.5t38 -120.5v-9q0 -6 -6 -6h-8q-6 0 -6 6v9q0 78 -32.5 106.5t-123.5 28.5h-6q-91 0 -123.5 -28.5t-32.5 -106.5v-198q0 -78 32.5 -106.5t123.5 -28.5h6q91 0 123.5 28.5t32.5 106.5v9q0 6 6 6h8q6 0 6 -6v-9 q0 -87 -38 -120.5t-138 -33.5h-6q-100 0 -138 33.5t-38 120.5z" />
<glyph unicode="&#x442;" horiz-adv-x="368" d="M352 490q6 0 6 -6v-7q0 -6 -6 -6h-158v-465q0 -6 -6 -6h-8q-6 0 -6 6v465h-158q-6 0 -6 6v7q0 6 6 6h336z" />
<glyph unicode="&#x443;" horiz-adv-x="433" d="M412 490q7 0 5 -5l-267 -682q-2 -5 -7 -5h-10q-7 0 -5 5l77 197l-185 485q-2 5 5 5h10q5 0 7 -5l102 -267q48 -128 73 -198q40 112 74 199l104 266q2 5 7 5h10z" />
<glyph unicode="&#x444;" horiz-adv-x="664" d="M393 494q110 0 150.5 -33.5t40.5 -120.5v-190q0 -87 -40.5 -120.5t-150.5 -33.5h-51v-190q0 -6 -6 -6h-8q-6 0 -6 6v190h-51q-110 0 -150.5 33.5t-40.5 120.5v190q0 87 40.5 120.5t150.5 33.5h51v200q0 6 6 6h8q6 0 6 -6v-200h51zM271 15h51v460h-51q-101 0 -136 -28.5 t-35 -106.5v-190q0 -78 35 -106.5t136 -28.5zM564 150v190q0 78 -35 106.5t-136 28.5h-51v-460h51q101 0 136 28.5t35 106.5z" />
<glyph unicode="&#x445;" horiz-adv-x="411" d="M386 7q5 -7 -4 -7h-9q-5 0 -7 3l-160 230l-160 -229q-3 -4 -8 -4h-9q-9 0 -4 7l169 241l-164 235q-5 7 4 7h9q5 0 8 -4l155 -223l154 223q3 4 8 4h9q9 0 4 -7l-164 -235z" />
<glyph unicode="&#x446;" horiz-adv-x="524" d="M478 19q6 0 6 -6v-138q0 -6 -6 -6h-2q-6 0 -6 6l-6 125h-368q-6 0 -6 6v478q0 6 6 6h8q6 0 6 -6v-465h299v465q0 6 6 6h8q6 0 6 -6v-465h49z" />
<glyph unicode="&#x447;" horiz-adv-x="472" d="M376 490q6 0 6 -6v-478q0 -6 -6 -6h-8q-6 0 -6 6v215q-95 -56 -189 -56q-66 0 -94.5 30.5t-28.5 103.5v185q0 6 6 6h8q6 0 6 -6v-180q0 -68 23 -94t80 -26q93 0 189 57v243q0 6 6 6h8z" />
<glyph unicode="&#x448;" horiz-adv-x="740" d="M644 490q6 0 6 -6v-478q0 -6 -6 -6h-548q-6 0 -6 6v478q0 6 6 6h8q6 0 6 -6v-465h250v465q0 6 6 6h8q6 0 6 -6v-465h250v465q0 6 6 6h8z" />
<glyph unicode="&#x449;" horiz-adv-x="745" d="M699 19q6 0 6 -6v-138q0 -6 -6 -6h-2q-6 0 -6 6l-6 125h-38v1q-1 -1 -3 -1h-548q-6 0 -6 6v478q0 6 6 6h8q6 0 6 -6v-465h250v465q0 6 6 6h8q6 0 6 -6v-465h250v465q0 6 6 6h8q6 0 6 -6v-465h49z" />
<glyph unicode="&#x44a;" horiz-adv-x="518" d="M349 289q123 0 123 -104v-81q0 -104 -123 -104h-213q-6 0 -6 6v465h-119q-6 0 -6 6v7q0 6 6 6h133q6 0 6 -6v-195h199zM452 104v81q0 45 -25 65t-82 20h-195v-251h195q57 0 82 20t25 65z" />
<glyph unicode="&#x44b;" horiz-adv-x="647" d="M299 289q123 0 123 -104v-81q0 -104 -123 -104h-203q-6 0 -6 6v478q0 6 6 6h8q6 0 6 -6v-195h189zM551 490q6 0 6 -6v-478q0 -6 -6 -6h-8q-6 0 -6 6v478q0 6 6 6h8zM402 104v81q0 45 -25 65t-82 20h-185v-251h185q57 0 82 20t25 65z" />
<glyph unicode="&#x44c;" horiz-adv-x="478" d="M309 289q123 0 123 -104v-81q0 -104 -123 -104h-213q-6 0 -6 6v478q0 6 6 6h8q6 0 6 -6v-195h199zM412 104v81q0 45 -25 65t-82 20h-195v-251h195q57 0 82 20t25 65z" />
<glyph unicode="&#x44d;" horiz-adv-x="511" d="M255 498q100 0 138 -33.5t38 -120.5v-198q0 -87 -38 -120.5t-138 -33.5h-6q-100 0 -138 33.5t-38 120.5v9q0 6 6 6h8q6 0 6 -6v-9q0 -78 32.5 -106.5t123.5 -28.5h6q91 0 123.5 28.5t32.5 106.5v90h-202q-6 0 -6 6v7q0 6 6 6h202v89q0 78 -32.5 106.5t-123.5 28.5h-6 q-91 0 -123.5 -28.5t-32.5 -106.5v-9q0 -6 -6 -6h-8q-6 0 -6 6v9q0 87 38 120.5t138 33.5h6z" />
<glyph unicode="&#x44e;" horiz-adv-x="689" d="M438 498q96 0 133.5 -34t37.5 -120v-198q0 -86 -37.5 -120t-133.5 -34h-6q-96 0 -133.5 34t-37.5 120v90h-151v-230q0 -6 -6 -6h-8q-6 0 -6 6v478q0 6 6 6h8q6 0 6 -6v-229h151v89q0 86 37.5 120t133.5 34h6zM589 146v198q0 78 -32 106.5t-119 28.5h-6q-87 0 -119 -28.5 t-32 -106.5v-198q0 -78 32 -106.5t119 -28.5h6q87 0 119 28.5t32 106.5z" />
<glyph unicode="&#x44f;" horiz-adv-x="473" d="M377 490q6 0 6 -6v-478q0 -6 -6 -6h-8q-6 0 -6 6v196h-173h-5l-107 -200q-1 -2 -6 -2h-9q-4 0 -5.5 0.5t-0.5 3.5l106 199q-102 12 -102 113v60q0 114 129 114h187zM195 221h168v250h-168q-60 0 -87 -22.5t-27 -72.5v-60q0 -50 27 -72.5t87 -22.5z" />
<glyph unicode="&#x451;" horiz-adv-x="521" d="M191 587q-6 0 -6 6v66q0 6 6 6h10q6 0 6 -6v-66q0 -6 -6 -6h-10zM325 587q-6 0 -6 6v66q0 6 6 6h10q6 0 6 -6v-66q0 -6 -6 -6h-10zM440 253h-340v-107q0 -78 33 -106.5t127 -28.5h6q94 0 127 28.5t33 106.5v5q0 6 6 6h8q6 0 6 -6v-5q0 -87 -38.5 -120.5t-141.5 -33.5h-6 q-103 0 -141.5 33.5t-38.5 120.5v198q0 87 38.5 120.5t141.5 33.5h6q103 0 141.5 -33.5t38.5 -120.5v-85q0 -6 -6 -6zM260 479q-94 0 -127 -28.5t-33 -106.5v-72h326v72q0 78 -33 106.5t-127 28.5h-6z" />
<glyph unicode="&#x452;" horiz-adv-x="533" d="M297 478q81 0 116 -38t35 -122v-387q0 -85 -24.5 -112t-97.5 -27h-10q-6 0 -6 6v7q0 6 6 6h9q64 0 83.5 23t19.5 103v376q0 81 -30 113.5t-103 32.5q-92 0 -185 -45v-408q0 -6 -6 -6h-8q-6 0 -6 6v597h-44q-6 0 -6 6v6q0 6 6 6h44v73q0 6 6 6h8q6 0 6 -6v-73h180 q6 0 6 -6v-6q0 -6 -6 -6h-180v-173q90 48 187 48z" />
<glyph unicode="&#x453;" horiz-adv-x="380" d="M188 562q-11 0 -3 8l94 92q3 3 7 3h13q4 0 5.5 -2t-0.5 -4l-99 -94q-3 -3 -7 -3h-10zM356 490q6 0 6 -6v-7q0 -6 -6 -6h-246v-465q0 -6 -6 -6h-8q-6 0 -6 6v478q0 6 6 6h260z" />
<glyph unicode="&#x454;" horiz-adv-x="511" d="M424 329q-6 0 -6 6v9q0 78 -32.5 106.5t-123.5 28.5h-6q-91 0 -123.5 -28.5t-32.5 -106.5v-89h202q6 0 6 -6v-7q0 -6 -6 -6h-202v-90q0 -78 32.5 -106.5t123.5 -28.5h6q91 0 123.5 28.5t32.5 106.5v9q0 6 6 6h8q6 0 6 -6v-9q0 -87 -38 -120.5t-138 -33.5h-6 q-100 0 -138 33.5t-38 120.5v198q0 87 38 120.5t138 33.5h6q100 0 138 -33.5t38 -120.5v-9q0 -6 -6 -6h-8z" />
<glyph unicode="&#x455;" horiz-adv-x="469" d="M60 111v40q0 6 6 6h8q6 0 6 -6v-40q0 -54 34 -77t119 -23h6q85 0 117.5 23t32.5 77v15q0 41 -16 60t-67 34l-144 42q-55 16 -75 38t-20 63v17q0 62 37.5 90t126.5 28h6q90 0 127.5 -28.5t37.5 -89.5v-40q0 -6 -6 -6h-8q-6 0 -6 6v40q0 54 -32 76.5t-113 22.5h-6 q-81 0 -112.5 -22.5t-31.5 -76.5v-17q0 -36 16.5 -52t69.5 -32l144 -42q53 -16 72.5 -40t19.5 -71v-15q0 -62 -37.5 -90.5t-132.5 -28.5h-6q-95 0 -134 28.5t-39 90.5z" />
<glyph unicode="&#x456;" horiz-adv-x="202" d="M96 587q-6 0 -6 6v66q0 6 6 6h10q6 0 6 -6v-66q0 -6 -6 -6h-10zM97 0q-6 0 -6 6v478q0 6 6 6h8q6 0 6 -6v-478q0 -6 -6 -6h-8z" />
<glyph unicode="&#x457;" horiz-adv-x="200" d="M28 587q-6 0 -6 6v66q0 6 6 6h10q6 0 6 -6v-66q0 -6 -6 -6h-10zM162 587q-6 0 -6 6v66q0 6 6 6h10q6 0 6 -6v-66q0 -6 -6 -6h-10zM96 0q-6 0 -6 6v478q0 6 6 6h8q6 0 6 -6v-478q0 -6 -6 -6h-8z" />
<glyph unicode="&#x458;" horiz-adv-x="201" d="M95 587q-6 0 -6 6v66q0 6 6 6h10q6 0 6 -6v-66q0 -6 -6 -6h-10zM-22 -208q-6 0 -6 6v7q0 6 6 6h9q64 0 83.5 23t19.5 103v547q0 6 6 6h8q6 0 6 -6v-553q0 -85 -24.5 -112t-97.5 -27h-10z" />
<glyph unicode="&#x459;" horiz-adv-x="760" d="M591 289q123 0 123 -104v-81q0 -104 -123 -104h-203q-6 0 -6 6v465h-235l-19 -270q-9 -125 -31 -165t-75 -40h-5q-5 0 -5 6v7q0 6 6 6h4q29 0 44.5 13t26 53t15.5 120l20 283q0 6 6 6h262q6 0 6 -6v-195h189zM694 104v81q0 45 -25 65t-82 20h-185v-251h185q57 0 82 20 t25 65z" />
<glyph unicode="&#x45a;" horiz-adv-x="782" d="M613 269q123 0 123 -104v-61q0 -104 -123 -104h-203q-6 0 -6 6v244h-294v-244q0 -6 -6 -6h-8q-6 0 -6 6v478q0 6 6 6h8q6 0 6 -6v-215h294v215q0 6 6 6h8q6 0 6 -6v-215h189zM716 104v61q0 45 -25 65t-82 20h-185v-231h185q57 0 82 20t25 65z" />
<glyph unicode="&#x45b;" horiz-adv-x="533" d="M297 478q81 0 116 -38t35 -122v-312q0 -6 -6 -6h-8q-6 0 -6 6v307q0 81 -30 113.5t-103 32.5q-92 0 -185 -45v-408q0 -6 -6 -6h-8q-6 0 -6 6v597h-44q-6 0 -6 6v6q0 6 6 6h44v73q0 6 6 6h8q6 0 6 -6v-73h180q6 0 6 -6v-6q0 -6 -6 -6h-180v-173q90 48 187 48z" />
<glyph unicode="&#x45c;" horiz-adv-x="455" d="M204 562q-11 0 -3 8l94 92q3 3 7 3h13q4 0 5.5 -2t-0.5 -4l-99 -94q-3 -3 -7 -3h-10zM429 7q5 -7 -4 -7h-11q-5 0 -8 4l-173 236h-123v-234q0 -6 -6 -6h-8q-6 0 -6 6v478q0 6 6 6h8q6 0 6 -6v-225h126l166 227q3 4 8 4h11q9 0 4 -7l-173 -235z" />
<glyph unicode="&#x45d;" horiz-adv-x="538" d="M285 565l-99 94q-2 2 -0.5 4t5.5 2h13q4 0 7 -3l94 -92q8 -8 -3 -8h-10q-4 0 -7 3zM442 490q6 0 6 -6v-478q0 -6 -6 -6h-8q-6 0 -6 6v252q0 140 2 206q-42 -66 -126 -186l-192 -275q-2 -3 -7 -3h-9q-6 0 -6 6v478q0 6 6 6h8q6 0 6 -6v-245q0 -145 -2 -213q62 95 131 193 l187 268q2 3 7 3h9z" />
<glyph unicode="&#x45e;" horiz-adv-x="433" d="M217 559q-54 0 -73 18t-19 67v15q0 6 6 6h8q6 0 6 -6v-15q0 -41 13.5 -53.5t58.5 -12.5h4q45 0 58.5 12.5t13.5 53.5v15q0 6 6 6h8q6 0 6 -6v-15q0 -49 -19 -67t-73 -18h-4zM412 490q7 0 5 -5l-267 -682q-2 -5 -7 -5h-10q-7 0 -5 5l77 197l-185 485q-2 5 5 5h10q5 0 7 -5 l102 -267q48 -128 73 -198q40 112 74 199l104 266q2 5 7 5h10z" />
<glyph unicode="&#x45f;" horiz-adv-x="521" d="M425 490q6 0 6 -6v-478q0 -6 -6 -6h-154l-3 -125q0 -6 -7 -6h-1q-7 0 -7 6l-3 125h-154q-6 0 -6 6v478q0 6 6 6h8q6 0 6 -6v-465h301v465q0 6 6 6h8z" />
<glyph unicode="&#x462;" horiz-adv-x="631" d="M429 365q84 0 120.5 -32t36.5 -108v-85q0 -76 -36.5 -108t-120.5 -32h-238q-6 0 -6 6v532h-164q-6 0 -6 6v7q0 6 6 6h164v82q0 6 6 6h8q6 0 6 -6v-82h223q6 0 6 -6v-7q0 -6 -6 -6h-223v-173h224zM566 140v85q0 70 -32.5 95.5t-112.5 25.5h-216v-327h216q80 0 112.5 25.5 t32.5 95.5z" />
<glyph unicode="&#x463;" horiz-adv-x="503" d="M334 289q123 0 123 -104v-81q0 -104 -123 -104h-213q-6 0 -6 6v466h-104q-6 0 -6 6v6q0 6 6 6h104v204q0 6 6 6h8q6 0 6 -6v-204h185q6 0 6 -6v-6q0 -6 -6 -6h-185v-183h199zM437 104v81q0 45 -25 65t-82 20h-195v-251h195q57 0 82 20t25 65z" />
<glyph unicode="&#x472;" horiz-adv-x="590" d="M298 653q120 0 163.5 -35.5t43.5 -128.5v-333q0 -93 -43.5 -128.5t-163.5 -35.5h-6q-120 0 -163.5 35.5t-43.5 128.5v333q0 93 43.5 128.5t163.5 35.5h6zM292 634q-110 0 -148.5 -30t-38.5 -115v-157h380v157q0 85 -38.5 115t-148.5 30h-6zM298 11q110 0 148.5 30 t38.5 115v157h-380v-157q0 -85 38.5 -115t148.5 -30h6z" />
<glyph unicode="&#x473;" d="M267 498q103 0 142 -33.5t39 -120.5v-198q0 -87 -39 -120.5t-142 -33.5h-6q-103 0 -142 33.5t-39 120.5v198q0 87 39 120.5t142 33.5h6zM261 479q-94 0 -127.5 -28.5t-33.5 -106.5v-89h328v89q0 78 -33.5 106.5t-127.5 28.5h-6zM267 11q94 0 127.5 28.5t33.5 106.5v90 h-328v-90q0 -78 33.5 -106.5t127.5 -28.5h6z" />
<glyph unicode="&#x474;" horiz-adv-x="515" d="M534 653q6 0 6 -6v-7q0 -6 -6 -6h-14q-31 0 -47 -46l-205 -585q-1 -3 -6 -3h-11q-5 0 -6 3l-223 636q-2 6 5 6h9q5 0 6 -3l149 -425q40 -114 66 -196q24 79 65 196l130 371q12 36 28.5 50.5t39.5 14.5h14z" />
<glyph unicode="&#x475;" horiz-adv-x="447" d="M456 498q6 0 6 -6v-7q0 -6 -6 -6h-11q-33 0 -47 -38l-168 -436q-2 -5 -7 -5h-11q-5 0 -7 5l-185 480q-2 5 5 5h10q5 0 7 -5l102 -264q43 -109 74 -202q18 54 73 202l85 220q12 32 28 44.5t41 12.5h11z" />
<glyph unicode="&#x490;" horiz-adv-x="442" d="M412 750q5 0 5 -6v-112q0 -6 -6 -6h-296v-620q0 -6 -6 -6h-8q-6 0 -6 6v633q0 6 6 6h297l6 100q0 5 6 5h2z" />
<glyph unicode="&#x491;" horiz-adv-x="380" d="M356 606q6 0 6 -6v-123q0 -6 -6 -6h-246v-465q0 -6 -6 -6h-8q-6 0 -6 6v478q0 6 6 6h247l6 110q0 6 5 6h2z" />
<glyph unicode="&#x492;" horiz-adv-x="462" d="M431 645q6 0 6 -6v-7q0 -6 -6 -6h-296v-299h220q6 0 6 -6v-7q0 -6 -6 -6h-220v-302q0 -6 -6 -6h-8q-6 0 -6 6v302h-109q-6 0 -6 6v7q0 6 6 6h109v312q0 6 6 6h310z" />
<glyph unicode="&#x493;" horiz-adv-x="378" d="M354 490q6 0 6 -6v-7q0 -6 -6 -6h-246v-214h176q6 0 6 -6v-7q0 -6 -6 -6h-176v-232q0 -6 -6 -6h-8q-6 0 -6 6v232h-68q-6 0 -6 6v7q0 6 6 6h68v227q0 6 6 6h260z" />
<glyph unicode="&#x496;" horiz-adv-x="787" d="M776 19q6 0 6 -6v-138q0 -6 -6 -6h-2q-6 0 -6 6l-6 125h-33h-10q-5 0 -9 7l-171 309h-148v-310q0 -6 -6 -6h-8q-6 0 -6 6v310h-148l-171 -309q-4 -7 -9 -7h-10q-8 0 -4 7l177 319l-173 312q-4 7 4 7h10q5 0 7 -4l169 -306h148v304q0 6 6 6h8q6 0 6 -6v-304h148l169 306 q2 4 7 4h10q8 0 4 -7l-173 -312l170 -307h50z" />
<glyph unicode="&#x497;" horiz-adv-x="677" d="M661 19q6 0 6 -6v-138q0 -6 -6 -6h-2q-6 0 -6 6l-6 125h-25h-13q-3 1 -5 5l-144 235h-124v-234q0 -6 -6 -6h-8q-6 0 -6 6v234h-124l-144 -235q-3 -5 -8 -5h-10q-8 0 -5 5l149 243l-145 237q-3 5 5 5h10q5 0 8 -5l137 -226h127v225q0 6 6 6h8q6 0 6 -6v-225h127l137 226 q3 5 8 5h10q8 0 5 -5l-145 -237l140 -229h43z" />
<glyph unicode="&#x49a;" horiz-adv-x="551" d="M540 19q6 0 6 -6v-138q0 -6 -6 -6h-2q-6 0 -6 6l-6 125h-34h-10q-5 0 -9 6l-202 310h-156v-310q0 -6 -6 -6h-8q-6 0 -6 6v633q0 6 6 6h8q6 0 6 -6v-304h156l200 307q2 3 7 3h10q9 0 5 -6l-205 -313l200 -307h52z" />
<glyph unicode="&#x49b;" horiz-adv-x="478" d="M462 19q6 0 6 -6v-138q0 -6 -6 -6h-2q-6 0 -6 6l-6 125h-23h-15v1q-1 0 -4 3l-173 236h-123v-234q0 -6 -6 -6h-8q-6 0 -6 6v478q0 6 6 6h8q6 0 6 -6v-225h126l166 227q3 4 8 4h11q9 0 4 -7l-173 -235l168 -229h42z" />
<glyph unicode="&#x4a2;" horiz-adv-x="603" d="M557 19q6 0 6 -6v-138q0 -6 -6 -6h-2q-6 0 -6 6l-6 125h-54q-6 0 -6 6v310h-368v-310q0 -6 -6 -6h-8q-6 0 -6 6v633q0 6 6 6h8q6 0 6 -6v-304h368v304q0 6 6 6h8q6 0 6 -6v-620h54z" />
<glyph unicode="&#x4a3;" horiz-adv-x="529" d="M483 19q6 0 6 -6v-138q0 -6 -6 -6h-2q-6 0 -6 6l-6 125h-38v1q-1 -1 -3 -1h-8q-6 0 -6 6v234h-304v-234q0 -6 -6 -6h-8q-6 0 -6 6v478q0 6 6 6h8q6 0 6 -6v-225h304v225q0 6 6 6h8q6 0 6 -6v-465h49z" />
<glyph unicode="&#x4ae;" horiz-adv-x="461" d="M444 645q4 0 5 -0.5t0 -3.5l-209 -396v-239q0 -6 -6 -6h-8q-6 0 -6 6v241l-208 394q-1 3 0 3.5t5 0.5h9q5 0 7 -4l119 -225q47 -88 79 -155q30 64 78 155l119 225q2 4 7 4h9z" />
<glyph unicode="&#x4af;" horiz-adv-x="439" d="M414 490q7 0 5 -5l-189 -482v-197q0 -6 -6 -6h-8q-6 0 -6 6v194l-190 485q-2 5 5 5h10q5 0 7 -5l105 -268q39 -99 73 -193q30 86 72 193l105 268q2 5 7 5h10z" />
<glyph unicode="&#x4b0;" horiz-adv-x="461" d="M444 645q4 0 5 -0.5t0 -3.5l-203 -385h139q6 0 6 -6v-6q0 -6 -6 -6h-145v-232q0 -6 -6 -6h-8q-6 0 -6 6v232h-143q-6 0 -6 6v6q0 6 6 6h138l-203 385q-1 3 0 3.5t5 0.5h9q5 0 7 -4l119 -225q47 -88 79 -155q30 64 78 155l119 225q2 4 7 4h9z" />
<glyph unicode="&#x4b1;" horiz-adv-x="439" d="M419 485l-189 -482v-11h149q6 0 6 -6v-6q0 -6 -6 -6h-149v-168q0 -6 -6 -6h-8q-6 0 -6 6v168h-145q-6 0 -6 6v6q0 6 6 6h145v8l-190 485q-2 5 5 5h10q5 0 7 -5l105 -268q39 -99 73 -193q30 86 72 193l105 268q2 5 7 5h10q7 0 5 -5z" />
<glyph unicode="&#x4b2;" horiz-adv-x="491" d="M480 19q6 0 6 -6v-138q0 -6 -6 -6h-2q-6 0 -6 6l-6 125h-33h-10q-5 0 -8 5l-183 299l-183 -299q-3 -5 -8 -5h-10q-8 0 -5 5l196 319l-194 316q-3 5 5 5h9q6 0 9 -5l181 -296l181 296q3 5 8 5h10q8 0 5 -5l-194 -316l187 -305h51z" />
<glyph unicode="&#x4b3;" horiz-adv-x="436" d="M420 19q6 0 6 -6v-138q0 -6 -6 -6h-2q-6 0 -6 6l-6 125h-38v1l-2 2l-160 230l-160 -229q-3 -4 -8 -4h-9q-9 0 -4 7l169 241l-164 235q-5 7 4 7h9q5 0 8 -4l155 -223l154 223q3 4 8 4h9q9 0 4 -7l-164 -235l161 -229h42z" />
<glyph unicode="&#x4b6;" horiz-adv-x="544" d="M498 19q6 0 6 -6v-138q0 -6 -6 -6h-2q-6 0 -6 6l-6 125h-54q-6 0 -6 6v290q-109 -59 -217 -59q-83 0 -121 38.5t-38 121.5v242q0 6 6 6h8q6 0 6 -6v-237q0 -80 33.5 -113t106.5 -33q105 0 216 60v323q0 6 6 6h8q6 0 6 -6v-620h54z" />
<glyph unicode="&#x4b7;" horiz-adv-x="475" d="M429 19q6 0 6 -6v-138q0 -6 -6 -6h-2q-6 0 -6 6l-6 125h-38h-1h-8q-6 0 -6 6v215q-95 -56 -189 -56q-66 0 -94.5 30.5t-28.5 103.5v185q0 6 6 6h8q6 0 6 -6v-180q0 -68 23 -94t80 -26q93 0 189 57v243q0 6 6 6h8q6 0 6 -6v-465h47z" />
<glyph unicode="&#x4ba;" horiz-adv-x="546" d="M332 408q83 0 121 -38.5t38 -121.5v-242q0 -6 -6 -6h-8q-6 0 -6 6v237q0 80 -33.5 113t-106.5 33q-105 0 -216 -60v-323q0 -6 -6 -6h-8q-6 0 -6 6v633q0 6 6 6h8q6 0 6 -6v-290q109 59 217 59z" />
<glyph unicode="&#x4bb;" horiz-adv-x="533" d="M297 498q81 0 116 -38t35 -122v-332q0 -6 -6 -6h-8q-6 0 -6 6v327q0 81 -30 113.5t-103 32.5q-92 0 -185 -45v-428q0 -6 -6 -6h-8q-6 0 -6 6v688q0 6 6 6h8q6 0 6 -6v-244q90 48 187 48z" />
<glyph unicode="&#x4c0;" horiz-adv-x="210" d="M101 0q-6 0 -6 6v633q0 6 6 6h8q6 0 6 -6v-633q0 -6 -6 -6h-8z" />
<glyph unicode="&#x4c1;" horiz-adv-x="762" d="M379 714q-54 0 -73 18t-19 67v15q0 6 6 6h8q6 0 6 -6v-15q0 -41 13.5 -53.5t58.5 -12.5h4q45 0 58.5 12.5t13.5 53.5v15q0 6 6 6h8q6 0 6 -6v-15q0 -49 -19 -67t-73 -18h-4zM733 7q4 -7 -4 -7h-10q-5 0 -9 7l-171 309h-148v-310q0 -6 -6 -6h-8q-6 0 -6 6v310h-148 l-171 -309q-4 -7 -9 -7h-10q-8 0 -4 7l177 319l-173 312q-4 7 4 7h10q5 0 7 -4l169 -306h148v304q0 6 6 6h8q6 0 6 -6v-304h148l169 306q2 4 7 4h10q8 0 4 -7l-173 -312z" />
<glyph unicode="&#x4c2;" horiz-adv-x="652" d="M324 559q-54 0 -73 18t-19 67v15q0 6 6 6h8q6 0 6 -6v-15q0 -41 13.5 -53.5t58.5 -12.5h4q45 0 58.5 12.5t13.5 53.5v15q0 6 6 6h8q6 0 6 -6v-15q0 -49 -19 -67t-73 -18h-4zM627 5q3 -5 -5 -5h-10q-5 0 -8 5l-144 235h-124v-234q0 -6 -6 -6h-8q-6 0 -6 6v234h-124 l-144 -235q-3 -5 -8 -5h-10q-8 0 -5 5l149 243l-145 237q-3 5 5 5h10q5 0 8 -5l137 -226h127v225q0 6 6 6h8q6 0 6 -6v-225h127l137 226q3 5 8 5h10q8 0 5 -5l-145 -237z" />
<glyph unicode="&#x4cf;" horiz-adv-x="200" d="M96 0q-6 0 -6 6v478q0 6 6 6h8q6 0 6 -6v-478q0 -6 -6 -6h-8z" />
<glyph unicode="&#x4d0;" horiz-adv-x="510" d="M253 714q-54 0 -73 18t-19 67v15q0 6 6 6h8q6 0 6 -6v-15q0 -41 13.5 -53.5t58.5 -12.5h4q45 0 58.5 12.5t13.5 53.5v15q0 6 6 6h8q6 0 6 -6v-15q0 -49 -19 -67t-73 -18h-4zM488 6q2 -6 -5 -6h-9q-5 0 -7 6l-64 183h-296l-65 -186q-1 -3 -6 -3h-9q-7 0 -5 6l221 633 q2 6 7 6h10q5 0 7 -6zM114 208h282l-76 219q-36 102 -65 195q-29 -93 -65 -195z" />
<glyph unicode="&#x4d1;" horiz-adv-x="510" d="M253 559q-54 0 -73 18t-19 67v15q0 6 6 6h8q6 0 6 -6v-15q0 -41 13.5 -53.5t58.5 -12.5h4q45 0 58.5 12.5t13.5 53.5v15q0 6 6 6h8q6 0 6 -6v-15q0 -49 -19 -67t-73 -18h-4zM256 498q95 0 132 -33.5t37 -118.5v-340q0 -6 -5 -6h-2q-5 0 -6 5l-7 34q-91 -47 -189 -47 q-78 0 -114.5 32t-36.5 101v12q0 68 33.5 95.5t115.5 27.5h191v86q0 76 -31.5 104.5t-117.5 28.5h-6q-86 0 -117.5 -28.5t-31.5 -104.5v-4q0 -6 -6 -6h-8q-6 0 -6 6v4q0 85 37 118.5t132 33.5h6zM85 125q0 -62 31.5 -88t102.5 -26q93 0 186 45v185h-193q-73 0 -100 -23 t-27 -81v-12z" />
<glyph unicode="&#x4d2;" horiz-adv-x="510" d="M183 742q-6 0 -6 6v66q0 6 6 6h10q6 0 6 -6v-66q0 -6 -6 -6h-10zM317 742q-6 0 -6 6v66q0 6 6 6h10q6 0 6 -6v-66q0 -6 -6 -6h-10zM488 6q2 -6 -5 -6h-9q-5 0 -7 6l-64 183h-296l-65 -186q-1 -3 -6 -3h-9q-7 0 -5 6l221 633q2 6 7 6h10q5 0 7 -6zM114 208h282l-76 219 q-36 102 -65 195q-29 -93 -65 -195z" />
<glyph unicode="&#x4d3;" horiz-adv-x="510" d="M183 587q-6 0 -6 6v66q0 6 6 6h10q6 0 6 -6v-66q0 -6 -6 -6h-10zM317 587q-6 0 -6 6v66q0 6 6 6h10q6 0 6 -6v-66q0 -6 -6 -6h-10zM256 498q95 0 132 -33.5t37 -118.5v-340q0 -6 -5 -6h-2q-5 0 -6 5l-7 34q-91 -47 -189 -47q-78 0 -114.5 32t-36.5 101v12q0 68 33.5 95.5 t115.5 27.5h191v86q0 76 -31.5 104.5t-117.5 28.5h-6q-86 0 -117.5 -28.5t-31.5 -104.5v-4q0 -6 -6 -6h-8q-6 0 -6 6v4q0 85 37 118.5t132 33.5h6zM85 125q0 -62 31.5 -88t102.5 -26q93 0 186 45v185h-193q-73 0 -100 -23t-27 -81v-12z" />
<glyph unicode="&#x4d4;" horiz-adv-x="792" d="M734 626h-313v-289h283q6 0 6 -6v-7q0 -6 -6 -6h-283v-299h313q6 0 6 -6v-7q0 -6 -6 -6h-327q-6 0 -6 6v180h-258l-100 -179q-3 -7 -9 -7h-8q-7 0 -4 7l350 634q1 4 7 4h355q6 0 6 -6v-7q0 -6 -6 -6zM153 205h248v421h-14z" />
<glyph unicode="&#x4d5;" horiz-adv-x="832" d="M751 241h-330v-95q0 -78 32.5 -106.5t122.5 -28.5h6q90 0 122.5 28.5t32.5 106.5v4q0 6 6 6h8q6 0 6 -6v-4q0 -87 -38 -120.5t-137 -33.5h-6q-67 0 -105 14.5t-54 48.5q-92 -63 -202 -63q-78 0 -114 32.5t-36 104.5v8q0 68 33 95.5t112 27.5h191v84q0 77 -31 106t-116 29 h-6q-85 0 -116 -29t-31 -106v-5q0 -6 -6 -6h-8q-6 0 -6 6v5q0 86 36.5 120t130.5 34h6q71 0 108 -18.5t49 -62.5q13 44 52 62.5t113 18.5h6q99 0 137 -33.5t38 -120.5v-97q0 -6 -6 -6zM576 479q-90 0 -122.5 -28.5t-32.5 -106.5v-84h316v84q0 78 -32.5 106.5t-122.5 28.5h-6 zM217 11q101 0 194 59q-10 29 -10 76v95h-193q-70 0 -96.5 -23t-26.5 -81v-8q0 -64 31 -91t101 -27z" />
<glyph unicode="&#x4d6;" horiz-adv-x="486" d="M256 714q-54 0 -73 18t-19 67v15q0 6 6 6h8q6 0 6 -6v-15q0 -41 13.5 -53.5t58.5 -12.5h4q45 0 58.5 12.5t13.5 53.5v15q0 6 6 6h8q6 0 6 -6v-15q0 -49 -19 -67t-73 -18h-4zM428 626h-313v-289h283q6 0 6 -6v-7q0 -6 -6 -6h-283v-299h313q6 0 6 -6v-7q0 -6 -6 -6h-327 q-6 0 -6 6v633q0 6 6 6h327q6 0 6 -6v-7q0 -6 -6 -6z" />
<glyph unicode="&#x4d7;" horiz-adv-x="521" d="M261 559q-54 0 -73 18t-19 67v15q0 6 6 6h8q6 0 6 -6v-15q0 -41 13.5 -53.5t58.5 -12.5h4q45 0 58.5 12.5t13.5 53.5v15q0 6 6 6h8q6 0 6 -6v-15q0 -49 -19 -67t-73 -18h-4zM440 253h-340v-107q0 -78 33 -106.5t127 -28.5h6q94 0 127 28.5t33 106.5v5q0 6 6 6h8q6 0 6 -6 v-5q0 -87 -38.5 -120.5t-141.5 -33.5h-6q-103 0 -141.5 33.5t-38.5 120.5v198q0 87 38.5 120.5t141.5 33.5h6q103 0 141.5 -33.5t38.5 -120.5v-85q0 -6 -6 -6zM260 479q-94 0 -127 -28.5t-33 -106.5v-72h326v72q0 78 -33 106.5t-127 28.5h-6z" />
<glyph unicode="&#x4d8;" horiz-adv-x="581" d="M291 653q119 0 162 -35.5t43 -128.5v-333q0 -93 -43 -128.5t-162 -35.5h-6q-119 0 -162 35.5t-43 128.5v149q0 6 6 6h390v178q0 85 -38 115t-147 30h-6q-109 0 -147 -30t-38 -115v-14q0 -6 -6 -6h-8q-6 0 -6 6v14q0 93 43 128.5t162 35.5h6zM291 11q109 0 147 30t38 115 v136h-376v-136q0 -85 38 -115t147 -30h6z" />
<glyph unicode="&#x4d9;" horiz-adv-x="521" d="M261 498q103 0 141.5 -33.5t38.5 -120.5v-198q0 -87 -38.5 -120.5t-141.5 -33.5h-6q-103 0 -141.5 33.5t-38.5 120.5v85q0 6 6 6h340v107q0 78 -33 106.5t-127 28.5h-6q-94 0 -127 -28.5t-33 -106.5v-5q0 -6 -6 -6h-8q-6 0 -6 6v5q0 87 38.5 120.5t141.5 33.5h6zM261 11 q94 0 127 28.5t33 106.5v72h-326v-72q0 -78 33 -106.5t127 -28.5h6z" />
<glyph unicode="&#x4da;" horiz-adv-x="581" d="M216 742q-6 0 -6 6v66q0 6 6 6h10q6 0 6 -6v-66q0 -6 -6 -6h-10zM350 742q-6 0 -6 6v66q0 6 6 6h10q6 0 6 -6v-66q0 -6 -6 -6h-10zM291 653q119 0 162 -35.5t43 -128.5v-333q0 -93 -43 -128.5t-162 -35.5h-6q-119 0 -162 35.5t-43 128.5v149q0 6 6 6h390v178 q0 85 -38 115t-147 30h-6q-109 0 -147 -30t-38 -115v-14q0 -6 -6 -6h-8q-6 0 -6 6v14q0 93 43 128.5t162 35.5h6zM291 11q109 0 147 30t38 115v136h-376v-136q0 -85 38 -115t147 -30h6z" />
<glyph unicode="&#x4db;" horiz-adv-x="521" d="M188 587q-6 0 -6 6v66q0 6 6 6h10q6 0 6 -6v-66q0 -6 -6 -6h-10zM322 587q-6 0 -6 6v66q0 6 6 6h10q6 0 6 -6v-66q0 -6 -6 -6h-10zM261 498q103 0 141.5 -33.5t38.5 -120.5v-198q0 -87 -38.5 -120.5t-141.5 -33.5h-6q-103 0 -141.5 33.5t-38.5 120.5v85q0 6 6 6h340v107 q0 78 -33 106.5t-127 28.5h-6q-94 0 -127 -28.5t-33 -106.5v-5q0 -6 -6 -6h-8q-6 0 -6 6v5q0 87 38.5 120.5t141.5 33.5h6zM261 11q94 0 127 28.5t33 106.5v72h-326v-72q0 -78 33 -106.5t127 -28.5h6z" />
<glyph unicode="&#x4dc;" horiz-adv-x="762" d="M309 742q-6 0 -6 6v66q0 6 6 6h10q6 0 6 -6v-66q0 -6 -6 -6h-10zM443 742q-6 0 -6 6v66q0 6 6 6h10q6 0 6 -6v-66q0 -6 -6 -6h-10zM733 7q4 -7 -4 -7h-10q-5 0 -9 7l-171 309h-148v-310q0 -6 -6 -6h-8q-6 0 -6 6v310h-148l-171 -309q-4 -7 -9 -7h-10q-8 0 -4 7l177 319 l-173 312q-4 7 4 7h10q5 0 7 -4l169 -306h148v304q0 6 6 6h8q6 0 6 -6v-304h148l169 306q2 4 7 4h10q8 0 4 -7l-173 -312z" />
<glyph unicode="&#x4dd;" horiz-adv-x="652" d="M254 587q-6 0 -6 6v66q0 6 6 6h10q6 0 6 -6v-66q0 -6 -6 -6h-10zM388 587q-6 0 -6 6v66q0 6 6 6h10q6 0 6 -6v-66q0 -6 -6 -6h-10zM627 5q3 -5 -5 -5h-10q-5 0 -8 5l-144 235h-124v-234q0 -6 -6 -6h-8q-6 0 -6 6v234h-124l-144 -235q-3 -5 -8 -5h-10q-8 0 -5 5l149 243 l-145 237q-3 5 5 5h10q5 0 8 -5l137 -226h127v225q0 6 6 6h8q6 0 6 -6v-225h127l137 226q3 5 8 5h10q8 0 5 -5l-145 -237z" />
<glyph unicode="&#x4de;" horiz-adv-x="524" d="M189 742q-6 0 -6 6v66q0 6 6 6h10q6 0 6 -6v-66q0 -6 -6 -6h-10zM323 742q-6 0 -6 6v66q0 6 6 6h10q6 0 6 -6v-66q0 -6 -6 -6h-10zM351 329q62 -6 85 -33t23 -92v-58q0 -87 -41.5 -120.5t-153.5 -33.5h-6q-112 0 -153.5 33.5t-41.5 120.5v34q0 6 6 6h8q6 0 6 -6v-34 q0 -77 35.5 -106t139.5 -29h6q104 0 139.5 29t35.5 106v58q0 70 -32.5 92.5t-142.5 22.5h-70q-6 0 -6 6v7q0 6 6 6h64q110 0 142.5 22.5t32.5 92.5v46q0 80 -33.5 107.5t-135.5 27.5h-6q-102 0 -136 -27.5t-34 -107.5v-44q0 -6 -6 -6h-8q-6 0 -6 6v44q0 88 40.5 121 t149.5 33h6q109 0 149 -33t40 -121v-46q0 -63 -22 -90t-80 -34z" />
<glyph unicode="&#x4df;" horiz-adv-x="490" d="M170 587q-6 0 -6 6v66q0 6 6 6h10q6 0 6 -6v-66q0 -6 -6 -6h-10zM304 587q-6 0 -6 6v66q0 6 6 6h10q6 0 6 -6v-66q0 -6 -6 -6h-10zM320 248q51 -7 76 -33t25 -77v-27q0 -64 -39 -91.5t-134 -27.5h-6q-95 0 -134 27.5t-39 91.5v34q0 6 6 6h8q6 0 6 -6v-34q0 -56 33.5 -78 t119.5 -22h6q86 0 119.5 22t33.5 78v27q0 56 -33.5 78t-119.5 22h-59q-6 0 -6 6v7q0 6 6 6h59q82 0 114.5 22t32.5 78v22q0 56 -32.5 78t-114.5 22h-6q-82 0 -114.5 -22t-32.5 -78v-33q0 -6 -6 -6h-8q-6 0 -6 6v33q0 64 38 91.5t129 27.5h6q91 0 129 -27.5t38 -91.5v-22 q0 -97 -95 -109z" />
<glyph unicode="&#x4e2;" horiz-adv-x="626" d="M219 742q-6 0 -6 6v7q0 6 6 6h188q6 0 6 -6v-7q0 -6 -6 -6h-188zM525 645q6 0 6 -6v-633q0 -6 -6 -6h-8q-6 0 -6 6v418q0 127 2 196q-48 -81 -123 -196l-270 -418q-4 -6 -9 -6h-10q-6 0 -6 6v633q0 6 6 6h8q6 0 6 -6v-418q0 -127 -2 -196q48 81 123 196l270 418q4 6 9 6 h10z" />
<glyph unicode="&#x4e3;" horiz-adv-x="538" d="M175 587q-6 0 -6 6v7q0 6 6 6h188q6 0 6 -6v-7q0 -6 -6 -6h-188zM442 490q6 0 6 -6v-478q0 -6 -6 -6h-8q-6 0 -6 6v252q0 140 2 206q-42 -66 -126 -186l-192 -275q-2 -3 -7 -3h-9q-6 0 -6 6v478q0 6 6 6h8q6 0 6 -6v-245q0 -145 -2 -213q62 95 131 193l187 268q2 3 7 3h9 z" />
<glyph unicode="&#x4e4;" horiz-adv-x="626" d="M241 742q-6 0 -6 6v66q0 6 6 6h10q6 0 6 -6v-66q0 -6 -6 -6h-10zM375 742q-6 0 -6 6v66q0 6 6 6h10q6 0 6 -6v-66q0 -6 -6 -6h-10zM525 645q6 0 6 -6v-633q0 -6 -6 -6h-8q-6 0 -6 6v418q0 127 2 196q-48 -81 -123 -196l-270 -418q-4 -6 -9 -6h-10q-6 0 -6 6v633q0 6 6 6 h8q6 0 6 -6v-418q0 -127 -2 -196q48 81 123 196l270 418q4 6 9 6h10z" />
<glyph unicode="&#x4e5;" horiz-adv-x="538" d="M197 587q-6 0 -6 6v66q0 6 6 6h10q6 0 6 -6v-66q0 -6 -6 -6h-10zM331 587q-6 0 -6 6v66q0 6 6 6h10q6 0 6 -6v-66q0 -6 -6 -6h-10zM442 490q6 0 6 -6v-478q0 -6 -6 -6h-8q-6 0 -6 6v252q0 140 2 206q-42 -66 -126 -186l-192 -275q-2 -3 -7 -3h-9q-6 0 -6 6v478q0 6 6 6h8 q6 0 6 -6v-245q0 -145 -2 -213q62 95 131 193l187 268q2 3 7 3h9z" />
<glyph unicode="&#x4e6;" horiz-adv-x="590" d="M223 742q-6 0 -6 6v66q0 6 6 6h10q6 0 6 -6v-66q0 -6 -6 -6h-10zM357 742q-6 0 -6 6v66q0 6 6 6h10q6 0 6 -6v-66q0 -6 -6 -6h-10zM85 156v333q0 93 43.5 128.5t163.5 35.5h6q120 0 163.5 -35.5t43.5 -128.5v-333q0 -93 -43.5 -128.5t-163.5 -35.5h-6q-120 0 -163.5 35.5 t-43.5 128.5zM105 156q0 -85 38.5 -115t148.5 -30h6q110 0 148.5 30t38.5 115v333q0 85 -38.5 115t-148.5 30h-6q-110 0 -148.5 -30t-38.5 -115v-333z" />
<glyph unicode="&#x4e7;" d="M192 587q-6 0 -6 6v66q0 6 6 6h10q6 0 6 -6v-66q0 -6 -6 -6h-10zM326 587q-6 0 -6 6v66q0 6 6 6h10q6 0 6 -6v-66q0 -6 -6 -6h-10zM80 146v198q0 87 39 120.5t142 33.5h6q103 0 142 -33.5t39 -120.5v-198q0 -87 -39 -120.5t-142 -33.5h-6q-103 0 -142 33.5t-39 120.5z M100 146q0 -78 33.5 -106.5t127.5 -28.5h6q94 0 127.5 28.5t33.5 106.5v198q0 78 -33.5 106.5t-127.5 28.5h-6q-94 0 -127.5 -28.5t-33.5 -106.5v-198z" />
<glyph unicode="&#x4e8;" horiz-adv-x="590" d="M298 653q120 0 163.5 -35.5t43.5 -128.5v-333q0 -93 -43.5 -128.5t-163.5 -35.5h-6q-120 0 -163.5 35.5t-43.5 128.5v333q0 93 43.5 128.5t163.5 35.5h6zM292 634q-110 0 -148.5 -30t-38.5 -115v-157h380v157q0 85 -38.5 115t-148.5 30h-6zM298 11q110 0 148.5 30 t38.5 115v157h-380v-157q0 -85 38.5 -115t148.5 -30h6z" />
<glyph unicode="&#x4e9;" d="M267 498q103 0 142 -33.5t39 -120.5v-198q0 -87 -39 -120.5t-142 -33.5h-6q-103 0 -142 33.5t-39 120.5v198q0 87 39 120.5t142 33.5h6zM261 479q-94 0 -127.5 -28.5t-33.5 -106.5v-89h328v89q0 78 -33.5 106.5t-127.5 28.5h-6zM267 11q94 0 127.5 28.5t33.5 106.5v90 h-328v-90q0 -78 33.5 -106.5t127.5 -28.5h6z" />
<glyph unicode="&#x4ea;" horiz-adv-x="590" d="M223 742q-6 0 -6 6v66q0 6 6 6h10q6 0 6 -6v-66q0 -6 -6 -6h-10zM357 742q-6 0 -6 6v66q0 6 6 6h10q6 0 6 -6v-66q0 -6 -6 -6h-10zM298 653q120 0 163.5 -35.5t43.5 -128.5v-333q0 -93 -43.5 -128.5t-163.5 -35.5h-6q-120 0 -163.5 35.5t-43.5 128.5v333q0 93 43.5 128.5 t163.5 35.5h6zM292 634q-110 0 -148.5 -30t-38.5 -115v-157h380v157q0 85 -38.5 115t-148.5 30h-6zM298 11q110 0 148.5 30t38.5 115v157h-380v-157q0 -85 38.5 -115t148.5 -30h6z" />
<glyph unicode="&#x4eb;" d="M192 587q-6 0 -6 6v66q0 6 6 6h10q6 0 6 -6v-66q0 -6 -6 -6h-10zM326 587q-6 0 -6 6v66q0 6 6 6h10q6 0 6 -6v-66q0 -6 -6 -6h-10zM267 498q103 0 142 -33.5t39 -120.5v-198q0 -87 -39 -120.5t-142 -33.5h-6q-103 0 -142 33.5t-39 120.5v198q0 87 39 120.5t142 33.5h6z M261 479q-94 0 -127.5 -28.5t-33.5 -106.5v-89h328v89q0 78 -33.5 106.5t-127.5 28.5h-6zM267 11q94 0 127.5 28.5t33.5 106.5v90h-328v-90q0 -78 33.5 -106.5t127.5 -28.5h6z" />
<glyph unicode="&#x4ec;" horiz-adv-x="575" d="M213 742q-6 0 -6 6v66q0 6 6 6h10q6 0 6 -6v-66q0 -6 -6 -6h-10zM347 742q-6 0 -6 6v66q0 6 6 6h10q6 0 6 -6v-66q0 -6 -6 -6h-10zM288 653q117 0 159.5 -35.5t42.5 -128.5v-333q0 -93 -42.5 -128.5t-159.5 -35.5h-6q-117 0 -159.5 35.5t-42.5 128.5v34q0 6 6 6h8 q6 0 6 -6v-34q0 -84 37.5 -114.5t144.5 -30.5h6q107 0 144.5 30.5t37.5 114.5v157h-246q-6 0 -6 6v7q0 6 6 6h246v157q0 84 -37.5 114.5t-144.5 30.5h-6q-107 0 -144.5 -30.5t-37.5 -114.5v-34q0 -6 -6 -6h-8q-6 0 -6 6v34q0 93 42.5 128.5t159.5 35.5h6z" />
<glyph unicode="&#x4ed;" horiz-adv-x="511" d="M180 587q-6 0 -6 6v66q0 6 6 6h10q6 0 6 -6v-66q0 -6 -6 -6h-10zM314 587q-6 0 -6 6v66q0 6 6 6h10q6 0 6 -6v-66q0 -6 -6 -6h-10zM255 498q100 0 138 -33.5t38 -120.5v-198q0 -87 -38 -120.5t-138 -33.5h-6q-100 0 -138 33.5t-38 120.5v9q0 6 6 6h8q6 0 6 -6v-9 q0 -78 32.5 -106.5t123.5 -28.5h6q91 0 123.5 28.5t32.5 106.5v90h-202q-6 0 -6 6v7q0 6 6 6h202v89q0 78 -32.5 106.5t-123.5 28.5h-6q-91 0 -123.5 -28.5t-32.5 -106.5v-9q0 -6 -6 -6h-8q-6 0 -6 6v9q0 87 38 120.5t138 33.5h6z" />
<glyph unicode="&#x4ee;" horiz-adv-x="456" d="M139 742q-6 0 -6 6v7q0 6 6 6h188q6 0 6 -6v-7q0 -6 -6 -6h-188zM449 645q7 0 5 -5l-215 -556q-19 -50 -49 -69.5t-86 -19.5h-33q-6 0 -6 6v7q0 6 6 6h38q45 0 70 16t39 54l16 42l-207 514q0 5 6 5h8q5 0 7 -5l123 -305q46 -112 73 -191q28 82 71 191l118 305q2 5 7 5h9z " />
<glyph unicode="&#x4ef;" horiz-adv-x="433" d="M125 587q-6 0 -6 6v7q0 6 6 6h188q6 0 6 -6v-7q0 -6 -6 -6h-188zM412 490q7 0 5 -5l-267 -682q-2 -5 -7 -5h-10q-7 0 -5 5l77 197l-185 485q-2 5 5 5h10q5 0 7 -5l102 -267q48 -128 73 -198q40 112 74 199l104 266q2 5 7 5h10z" />
<glyph unicode="&#x4f0;" horiz-adv-x="456" d="M161 742q-6 0 -6 6v66q0 6 6 6h10q6 0 6 -6v-66q0 -6 -6 -6h-10zM295 742q-6 0 -6 6v66q0 6 6 6h10q6 0 6 -6v-66q0 -6 -6 -6h-10zM449 645q7 0 5 -5l-215 -556q-19 -50 -49 -69.5t-86 -19.5h-33q-6 0 -6 6v7q0 6 6 6h38q45 0 70 16t39 54l16 42l-207 514q0 5 6 5h8 q5 0 7 -5l123 -305q46 -112 73 -191q28 82 71 191l118 305q2 5 7 5h9z" />
<glyph unicode="&#x4f1;" horiz-adv-x="433" d="M147 587q-6 0 -6 6v66q0 6 6 6h10q6 0 6 -6v-66q0 -6 -6 -6h-10zM281 587q-6 0 -6 6v66q0 6 6 6h10q6 0 6 -6v-66q0 -6 -6 -6h-10zM412 490q7 0 5 -5l-267 -682q-2 -5 -7 -5h-10q-7 0 -5 5l77 197l-185 485q-2 5 5 5h10q5 0 7 -5l102 -267q48 -128 73 -198q40 112 74 199 l104 266q2 5 7 5h10z" />
<glyph unicode="&#x4f2;" horiz-adv-x="456" d="M160 717q-9 0 -5 6l59 93q3 4 8 4h9q9 0 4 -7l-61 -92q-3 -4 -8 -4h-6zM282 717q-9 0 -5 6l59 93q3 4 8 4h9q9 0 4 -7l-61 -92q-3 -4 -8 -4h-6zM449 645q7 0 5 -5l-215 -556q-19 -50 -49 -69.5t-86 -19.5h-33q-6 0 -6 6v7q0 6 6 6h38q45 0 70 16t39 54l16 42l-207 514 q0 5 6 5h8q5 0 7 -5l123 -305q46 -112 73 -191q28 82 71 191l118 305q2 5 7 5h9z" />
<glyph unicode="&#x4f3;" horiz-adv-x="433" d="M146 562q-9 0 -5 6l59 93q3 4 8 4h9q9 0 4 -7l-61 -92q-3 -4 -8 -4h-6zM268 562q-9 0 -5 6l59 93q3 4 8 4h9q9 0 4 -7l-61 -92q-3 -4 -8 -4h-6zM412 490q7 0 5 -5l-267 -682q-2 -5 -7 -5h-10q-7 0 -5 5l77 197l-185 485q-2 5 5 5h10q5 0 7 -5l102 -267q48 -128 73 -198 q40 112 74 199l104 266q2 5 7 5h10z" />
<glyph unicode="&#x4f4;" horiz-adv-x="539" d="M174 742q-6 0 -6 6v66q0 6 6 6h10q6 0 6 -6v-66q0 -6 -6 -6h-10zM308 742q-6 0 -6 6v66q0 6 6 6h10q6 0 6 -6v-66q0 -6 -6 -6h-10zM438 645q6 0 6 -6v-633q0 -6 -6 -6h-8q-6 0 -6 6v290q-109 -59 -217 -59q-83 0 -121 38.5t-38 121.5v242q0 6 6 6h8q6 0 6 -6v-237 q0 -80 33.5 -113t106.5 -33q105 0 216 60v323q0 6 6 6h8z" />
<glyph unicode="&#x4f5;" horiz-adv-x="472" d="M142 587q-6 0 -6 6v66q0 6 6 6h10q6 0 6 -6v-66q0 -6 -6 -6h-10zM276 587q-6 0 -6 6v66q0 6 6 6h10q6 0 6 -6v-66q0 -6 -6 -6h-10zM376 490q6 0 6 -6v-478q0 -6 -6 -6h-8q-6 0 -6 6v215q-95 -56 -189 -56q-66 0 -94.5 30.5t-28.5 103.5v185q0 6 6 6h8q6 0 6 -6v-180 q0 -68 23 -94t80 -26q93 0 189 57v243q0 6 6 6h8z" />
<glyph unicode="&#x4f8;" horiz-adv-x="721" d="M554 820q6 0 6 -6v-66q0 -6 -6 -6h-10q-6 0 -6 6v66q0 6 6 6h10zM688 820q6 0 6 -6v-66q0 -6 -6 -6h-10q-6 0 -6 6v66q0 6 6 6h10zM319 365q84 0 120.5 -32t36.5 -108v-85q0 -76 -36.5 -108t-120.5 -32h-218q-6 0 -6 6v633q0 6 6 6h8q6 0 6 -6v-274h204zM620 645 q6 0 6 -6v-633q0 -6 -6 -6h-8q-6 0 -6 6v633q0 6 6 6h8zM456 140v85q0 70 -32.5 95.5t-112.5 25.5h-196v-327h196q80 0 112.5 25.5t32.5 95.5z" />
<glyph unicode="&#x4f9;" horiz-adv-x="647" d="M485 665q6 0 6 -6v-66q0 -6 -6 -6h-10q-6 0 -6 6v66q0 6 6 6h10zM619 665q6 0 6 -6v-66q0 -6 -6 -6h-10q-6 0 -6 6v66q0 6 6 6h10zM299 289q123 0 123 -104v-81q0 -104 -123 -104h-203q-6 0 -6 6v478q0 6 6 6h8q6 0 6 -6v-195h189zM551 490q6 0 6 -6v-478q0 -6 -6 -6h-8 q-6 0 -6 6v478q0 6 6 6h8zM402 104v81q0 45 -25 65t-82 20h-185v-251h185q57 0 82 20t25 65z" />
<glyph unicode="&#x1e80;" horiz-adv-x="800" d="M416 720l-99 94q-2 2 -0.5 4t5.5 2h13q4 0 7 -3l94 -92q8 -8 -3 -8h-10q-4 0 -7 3zM768 645q6 0 5 -7l-179 -631q-2 -7 -7 -7h-11q-5 0 -7 7l-120 424q-41 149 -49 182q-8 -33 -49 -182l-120 -424q-2 -7 -7 -7h-11q-5 0 -7 7l-179 631q-1 7 5 7h10q5 0 7 -7l115 -405 q36 -128 55 -201q18 73 54 201l115 405q2 7 7 7h10q5 0 7 -7l115 -405q36 -128 55 -201q18 73 54 201l115 405q2 7 7 7h10z" />
<glyph unicode="&#x1e81;" horiz-adv-x="702" d="M367 565l-99 94q-2 2 -0.5 4t5.5 2h13q4 0 7 -3l94 -92q8 -8 -3 -8h-10q-4 0 -7 3zM671 490q7 0 5 -6l-155 -478q-2 -6 -7 -6h-11q-5 0 -7 6l-83 258q-34 103 -62 201q-28 -98 -62 -201l-83 -258q-2 -6 -7 -6h-11q-5 0 -7 6l-155 478q-2 6 5 6h9q5 0 7 -6l84 -260 q32 -96 62 -202q28 98 62 201l84 261q2 6 7 6h10q5 0 7 -6l84 -261q34 -103 62 -201q30 106 62 202l84 260q2 6 7 6h9z" />
<glyph unicode="&#x1e82;" horiz-adv-x="800" d="M366 717q-11 0 -3 8l94 92q3 3 7 3h13q4 0 5.5 -2t-0.5 -4l-99 -94q-3 -3 -7 -3h-10zM768 645q6 0 5 -7l-179 -631q-2 -7 -7 -7h-11q-5 0 -7 7l-120 424q-41 149 -49 182q-8 -33 -49 -182l-120 -424q-2 -7 -7 -7h-11q-5 0 -7 7l-179 631q-1 7 5 7h10q5 0 7 -7l115 -405 q36 -128 55 -201q18 73 54 201l115 405q2 7 7 7h10q5 0 7 -7l115 -405q36 -128 55 -201q18 73 54 201l115 405q2 7 7 7h10z" />
<glyph unicode="&#x1e83;" horiz-adv-x="702" d="M317 562q-11 0 -3 8l94 92q3 3 7 3h13q4 0 5.5 -2t-0.5 -4l-99 -94q-3 -3 -7 -3h-10zM671 490q7 0 5 -6l-155 -478q-2 -6 -7 -6h-11q-5 0 -7 6l-83 258q-34 103 -62 201q-28 -98 -62 -201l-83 -258q-2 -6 -7 -6h-11q-5 0 -7 6l-155 478q-2 6 5 6h9q5 0 7 -6l84 -260 q32 -96 62 -202q28 98 62 201l84 261q2 6 7 6h10q5 0 7 -6l84 -261q34 -103 62 -201q30 106 62 202l84 260q2 6 7 6h9z" />
<glyph unicode="&#x1e84;" horiz-adv-x="800" d="M328 742q-6 0 -6 6v66q0 6 6 6h10q6 0 6 -6v-66q0 -6 -6 -6h-10zM462 742q-6 0 -6 6v66q0 6 6 6h10q6 0 6 -6v-66q0 -6 -6 -6h-10zM768 645q6 0 5 -7l-179 -631q-2 -7 -7 -7h-11q-5 0 -7 7l-120 424q-41 149 -49 182q-8 -33 -49 -182l-120 -424q-2 -7 -7 -7h-11 q-5 0 -7 7l-179 631q-1 7 5 7h10q5 0 7 -7l115 -405q36 -128 55 -201q18 73 54 201l115 405q2 7 7 7h10q5 0 7 -7l115 -405q36 -128 55 -201q18 73 54 201l115 405q2 7 7 7h10z" />
<glyph unicode="&#x1e85;" horiz-adv-x="702" d="M279 587q-6 0 -6 6v66q0 6 6 6h10q6 0 6 -6v-66q0 -6 -6 -6h-10zM413 587q-6 0 -6 6v66q0 6 6 6h10q6 0 6 -6v-66q0 -6 -6 -6h-10zM671 490q7 0 5 -6l-155 -478q-2 -6 -7 -6h-11q-5 0 -7 6l-83 258q-34 103 -62 201q-28 -98 -62 -201l-83 -258q-2 -6 -7 -6h-11q-5 0 -7 6 l-155 478q-2 6 5 6h9q5 0 7 -6l84 -260q32 -96 62 -202q28 98 62 201l84 261q2 6 7 6h10q5 0 7 -6l84 -261q34 -103 62 -201q30 106 62 202l84 260q2 6 7 6h9z" />
<glyph unicode="&#x1ef2;" horiz-adv-x="461" d="M247 720l-99 94q-2 2 -0.5 4t5.5 2h13q4 0 7 -3l94 -92q8 -8 -3 -8h-10q-4 0 -7 3zM444 645q4 0 5 -0.5t0 -3.5l-209 -396v-239q0 -6 -6 -6h-8q-6 0 -6 6v241l-208 394q-1 3 0 3.5t5 0.5h9q5 0 7 -4l119 -225q47 -88 79 -155q30 64 78 155l119 225q2 4 7 4h9z" />
<glyph unicode="&#x1ef3;" horiz-adv-x="433" d="M235 565l-99 94q-2 2 -0.5 4t5.5 2h13q4 0 7 -3l94 -92q8 -8 -3 -8h-10q-4 0 -7 3zM412 490q7 0 5 -5l-267 -682q-2 -5 -7 -5h-10q-7 0 -5 5l77 197l-185 485q-2 5 5 5h10q5 0 7 -5l102 -267q48 -128 73 -198q40 112 74 199l104 266q2 5 7 5h10z" />
<glyph unicode="&#x2000;" horiz-adv-x="437" />
<glyph unicode="&#x2001;" horiz-adv-x="875" />
<glyph unicode="&#x2002;" horiz-adv-x="437" />
<glyph unicode="&#x2003;" horiz-adv-x="875" />
<glyph unicode="&#x2004;" horiz-adv-x="291" />
<glyph unicode="&#x2005;" horiz-adv-x="218" />
<glyph unicode="&#x2006;" horiz-adv-x="145" />
<glyph unicode="&#x2007;" horiz-adv-x="145" />
<glyph unicode="&#x2008;" horiz-adv-x="109" />
<glyph unicode="&#x2009;" horiz-adv-x="175" />
<glyph unicode="&#x200a;" horiz-adv-x="48" />
<glyph unicode="&#x2010;" horiz-adv-x="340" d="M36 275q-6 0 -6 6v7q0 6 6 6h268q6 0 6 -6v-7q0 -6 -6 -6h-268z" />
<glyph unicode="&#x2011;" horiz-adv-x="340" d="M36 275q-6 0 -6 6v7q0 6 6 6h268q6 0 6 -6v-7q0 -6 -6 -6h-268z" />
<glyph unicode="&#x2012;" horiz-adv-x="340" d="M36 275q-6 0 -6 6v7q0 6 6 6h268q6 0 6 -6v-7q0 -6 -6 -6h-268z" />
<glyph unicode="&#x2013;" horiz-adv-x="460" d="M36 275q-6 0 -6 6v7q0 6 6 6h388q6 0 6 -6v-7q0 -6 -6 -6h-388z" />
<glyph unicode="&#x2014;" horiz-adv-x="820" d="M36 275q-6 0 -6 6v7q0 6 6 6h748q6 0 6 -6v-7q0 -6 -6 -6h-748z" />
<glyph unicode="&#x2018;" horiz-adv-x="120" d="M55 645h1q6 0 6 -6l7 -101q1 -12 1 -18v-64q0 -6 -6 -6h-8q-6 0 -6 6v183q0 6 5 6z" />
<glyph unicode="&#x2019;" horiz-adv-x="120" d="M65 450h-1q-6 0 -6 6l-7 101q-1 12 -1 18v64q0 6 6 6h8q6 0 6 -6v-183q0 -6 -5 -6z" />
<glyph unicode="&#x201a;" horiz-adv-x="120" d="M55 -120q-5 0 -5 6v183q0 6 6 6h8q6 0 6 -6v-64q0 -6 -1 -18l-7 -101q0 -6 -6 -6h-1z" />
<glyph unicode="&#x201c;" horiz-adv-x="250" d="M55 645h1q6 0 6 -6l7 -101q1 -12 1 -18v-64q0 -6 -6 -6h-8q-6 0 -6 6v183q0 6 5 6zM185 645h1q6 0 6 -6l7 -101q1 -12 1 -18v-64q0 -6 -6 -6h-8q-6 0 -6 6v183q0 6 5 6z" />
<glyph unicode="&#x201d;" horiz-adv-x="250" d="M65 450h-1q-6 0 -6 6l-7 101q-1 12 -1 18v64q0 6 6 6h8q6 0 6 -6v-183q0 -6 -5 -6zM195 450h-1q-6 0 -6 6l-7 101q-1 12 -1 18v64q0 6 6 6h8q6 0 6 -6v-183q0 -6 -5 -6z" />
<glyph unicode="&#x201e;" horiz-adv-x="250" d="M55 -120q-5 0 -5 6v183q0 6 6 6h8q6 0 6 -6v-64q0 -6 -1 -18l-7 -101q0 -6 -6 -6h-1zM185 -120q-5 0 -5 6v183q0 6 6 6h8q6 0 6 -6v-64q0 -6 -1 -18l-7 -101q0 -6 -6 -6h-1z" />
<glyph unicode="&#x2020;" horiz-adv-x="440" d="M384 405q6 0 6 -6v-7q0 -6 -6 -6h-154v-380q0 -6 -6 -6h-8q-6 0 -6 6v380h-154q-6 0 -6 6v7q0 6 6 6h154v234q0 6 6 6h8q6 0 6 -6v-234h154z" />
<glyph unicode="&#x2021;" horiz-adv-x="440" d="M384 445q6 0 6 -6v-7q0 -6 -6 -6h-154v-203h134q6 0 6 -6v-7q0 -6 -6 -6h-134v-198q0 -6 -6 -6h-8q-6 0 -6 6v198h-134q-6 0 -6 6v7q0 6 6 6h134v203h-154q-6 0 -6 6v7q0 6 6 6h154v194q0 6 6 6h8q6 0 6 -6v-194h154z" />
<glyph unicode="&#x2022;" horiz-adv-x="294" d="M106 256q-6 0 -6 6v101q0 6 6 6h82q6 0 6 -6v-101q0 -6 -6 -6h-82z" />
<glyph unicode="&#x2026;" horiz-adv-x="482" d="M56 0q-6 0 -6 6v63q0 6 6 6h10q6 0 6 -6v-63q0 -6 -6 -6h-10zM236 0q-6 0 -6 6v63q0 6 6 6h10q6 0 6 -6v-63q0 -6 -6 -6h-10zM416 0q-6 0 -6 6v63q0 6 6 6h10q6 0 6 -6v-63q0 -6 -6 -6h-10z" />
<glyph unicode="&#x202f;" horiz-adv-x="175" />
<glyph unicode="&#x2030;" horiz-adv-x="1138" d="M165 297q-115 0 -115 112v132q0 112 115 112h30q115 0 115 -112v-132q0 -112 -115 -112h-30zM220 0q-8 0 -4 8l330 633q2 4 7 4h8q8 0 5 -6l-331 -635q-2 -4 -7 -4h-8zM165 315h30q50 0 73 22.5t23 71.5v132q0 49 -23 71.5t-73 22.5h-30q-50 0 -73 -22.5t-23 -71.5v-132 q0 -49 23 -71.5t73 -22.5zM586 -8q-115 0 -115 112v132q0 112 115 112h30q115 0 115 -112v-132q0 -112 -115 -112h-30zM943 -8q-115 0 -115 112v132q0 112 115 112h30q115 0 115 -112v-132q0 -112 -115 -112h-30zM586 10h30q50 0 73 22.5t23 71.5v132q0 49 -23 71.5 t-73 22.5h-30q-50 0 -73 -22.5t-23 -71.5v-132q0 -49 23 -71.5t73 -22.5zM943 10h30q50 0 73 22.5t23 71.5v132q0 49 -23 71.5t-73 22.5h-30q-50 0 -73 -22.5t-23 -71.5v-132q0 -49 23 -71.5t73 -22.5z" />
<glyph unicode="&#x2039;" horiz-adv-x="249" d="M186 71q3 -5 -1 -9l-4 -4q-5 -5 -8 0l-140 183q-3 4 0 8l140 183q4 6 8 0l4 -5q3 -5 1 -8l-131 -174z" />
<glyph unicode="&#x203a;" horiz-adv-x="249" d="M216 249q3 -4 0 -8l-140 -183q-3 -5 -8 0l-4 4q-4 4 -1 9l131 174l-131 174q-2 3 1 8l4 5q4 6 8 0z" />
<glyph unicode="&#x2044;" horiz-adv-x="492" d="M56 0q-6 0 -3 7l365 633q3 5 8 5h8q8 0 4 -7l-365 -633q-3 -5 -8 -5h-9z" />
<glyph unicode="&#x205f;" horiz-adv-x="218" />
<glyph unicode="&#x20ac;" horiz-adv-x="566" d="M482 449q-6 0 -6 6v34q0 84 -35.5 114.5t-132.5 30.5h-6q-97 0 -132.5 -30.5t-35.5 -114.5v-85h219q6 0 6 -6v-6q0 -6 -6 -6h-219v-120h219q6 0 6 -6v-6q0 -6 -6 -6h-219v-92q0 -84 35.5 -114.5t132.5 -30.5h6q97 0 132.5 30.5t35.5 114.5v24q0 6 6 6h8q6 0 6 -6v-24 q0 -93 -40.5 -128.5t-147.5 -35.5h-6q-107 0 -147.5 35.5t-40.5 128.5v92h-58q-6 0 -6 6v6q0 6 6 6h58v120h-58q-6 0 -6 6v6q0 6 6 6h58v85q0 93 40.5 128.5t147.5 35.5h6q107 0 147.5 -35.5t40.5 -128.5v-34q0 -6 -6 -6h-8z" />
<glyph unicode="&#x20bd;" horiz-adv-x="520" d="M303 645q96 0 136.5 -33t40.5 -111v-71q0 -78 -40.5 -111t-136.5 -33h-180v-122h220q6 0 6 -6v-7q0 -6 -6 -6h-220v-139q0 -6 -6 -6h-8q-6 0 -6 6v139h-67q-6 0 -6 6v7q0 6 6 6h67v122h-67q-6 0 -6 6v7q0 6 6 6h67v334q0 6 6 6h194zM460 430v71q0 71 -36.5 98t-128.5 27 h-172v-321h172q92 0 128.5 27t36.5 98z" />
<glyph unicode="&#x2116;" horiz-adv-x="1145" d="M867 177q-103 0 -142 33.5t-39 120.5v168q0 87 39 120.5t142 33.5h6q103 0 142 -33.5t39 -120.5v-168q0 -87 -39 -120.5t-142 -33.5h-6zM525 645q6 0 6 -6v-633q0 -6 -6 -6h-10q-5 0 -9 6l-270 418q-75 115 -123 196q2 -69 2 -196v-418q0 -6 -6 -6h-8q-6 0 -6 6v633 q0 6 6 6h10q5 0 9 -6l270 -418q75 -115 123 -196q-2 69 -2 196v418q0 6 6 6h8zM706 499v-168q0 -78 33.5 -106.5t127.5 -28.5h6q94 0 127.5 28.5t33.5 106.5v168q0 78 -33.5 106.5t-127.5 28.5h-6q-94 0 -127.5 -28.5t-33.5 -106.5zM1054 19q6 0 6 -6v-7q0 -6 -6 -6h-368 q-6 0 -6 6v7q0 6 6 6h368z" />
<glyph unicode="&#x2122;" horiz-adv-x="808" d="M307 645q6 0 6 -6v-7q0 -6 -6 -6h-121v-320q0 -6 -6 -6h-8q-6 0 -6 6v320h-120q-6 0 -6 6v7q0 6 6 6h261zM732 645q6 0 6 -6v-333q0 -6 -6 -6h-8q-6 0 -6 6v300l-143 -229q-2 -3 -5 -3h-1q-3 0 -5 3l-143 229v-300q0 -6 -6 -6h-8q-6 0 -6 6v333q0 6 6 6h10q5 0 8 -5 l145 -237l144 237q3 5 8 5h10z" />
<glyph unicode="&#x212e;" horiz-adv-x="881" d="M441 22q138 0 228 105h62q-51 -62 -127 -98.5t-163 -36.5q-150 0 -255.5 97t-105.5 234t105.5 233.5t255.5 96.5q149 0 254.5 -96.5t105.5 -233.5q0 -11 -1 -16h-585v-184q90 -101 226 -101zM215 338h451v184q-91 101 -225 101q-136 0 -226 -101v-184z" />
<glyph unicode="&#x2190;" horiz-adv-x="745" d="M689 333q6 0 6 -6v-8q0 -6 -6 -6h-603l190 -199q4 -4 0 -8l-5 -6q-4 -4 -9 1l-208 218q-4 4 0 8l209 219q4 4 8 0l5 -6q4 -4 0 -8l-190 -199h603z" />
<glyph unicode="&#x2191;" horiz-adv-x="745" d="M595 432q4 -4 0 -8l-6 -5q-4 -4 -8 0l-199 190v-603q0 -6 -6 -6h-8q-6 0 -6 6v603l-199 -190q-4 -4 -8 0l-6 5q-4 4 1 9l218 208q4 4 8 0z" />
<glyph unicode="&#x2192;" horiz-adv-x="745" d="M691 327q4 -4 0 -8l-209 -219q-4 -4 -8 0l-5 6q-4 4 0 8l190 199h-603q-6 0 -6 6v8q0 6 6 6h603l-190 199q-4 4 0 8l5 6q4 4 9 -1z" />
<glyph unicode="&#x2193;" horiz-adv-x="745" d="M595 221q4 -4 -1 -9l-218 -208q-4 -4 -8 0l-219 209q-4 4 0 8l6 5q4 4 8 0l199 -190v603q0 6 6 6h8q6 0 6 -6v-603l199 190q4 4 8 0z" />
<glyph unicode="&#x2194;" horiz-adv-x="745" d="M691 327q4 -4 0 -8l-208 -218q-5 -5 -9 -1l-5 6q-4 4 0 8l190 199h-574l190 -199q4 -4 0 -8l-5 -6q-4 -4 -9 1l-208 218q-4 4 0 8l209 219q4 4 8 0l5 -6q4 -4 0 -8l-190 -199h574l-190 199q-4 4 0 8l5 6q4 4 8 0z" />
<glyph unicode="&#x2195;" horiz-adv-x="745" d="M589 226l6 -5q4 -4 0 -8l-219 -209q-4 -4 -8 0l-218 208q-5 5 -1 9l6 5q4 4 8 0l199 -190v574l-199 -190q-4 -4 -8 0l-6 5q-4 4 1 9l218 208q4 4 8 0l219 -209q4 -4 0 -8l-6 -5q-4 -4 -8 0l-199 190v-574l199 190q4 4 8 0z" />
<glyph unicode="&#x2196;" horiz-adv-x="745" d="M596 106q4 -4 0 -8l-6 -6q-4 -4 -8 0l-426 426l-7 -274q0 -6 -6 -6l-7 -1q-6 0 -6 7l7 301q0 6 6 6l302 7q6 0 6 -5l-1 -8q0 -6 -5 -6l-275 -7z" />
<glyph unicode="&#x2197;" horiz-adv-x="745" d="M608 544l7 -302q0 -6 -5 -6l-8 1q-6 0 -6 5l-7 275l-426 -426q-4 -4 -8 0l-6 6q-4 4 0 8l426 426l-274 7q-6 0 -6 6l-1 7q0 6 7 6l301 -7q6 0 6 -6z" />
<glyph unicode="&#x2198;" horiz-adv-x="745" d="M609 400q6 0 6 -7l-7 -301q0 -6 -6 -6l-302 -7q-6 0 -6 5l1 8q0 6 5 6l275 7l-426 426q-4 4 0 8l6 6q4 4 8 0l426 -426l7 274q0 6 6 6z" />
<glyph unicode="&#x2199;" horiz-adv-x="745" d="M595 536q4 -4 0 -8l-426 -426l274 -7q6 0 6 -6l1 -7q0 -6 -7 -6l-301 7q-6 0 -6 6l-7 302q0 6 5 6l8 -1q6 0 6 -5l7 -275l426 426q4 4 8 0z" />
<glyph unicode="&#x2202;" horiz-adv-x="484" d="M244 653q94 0 132 -36t38 -128v-343q0 -85 -39 -119.5t-135 -34.5h-6q-96 0 -135 34.5t-39 119.5v66q0 85 39 119.5t135 34.5h6q68 0 104 -16.5t50 -55.5v195q0 83 -33 114t-117 31h-131q-6 0 -6 6v7q0 6 6 6h131zM394 146v66q0 76 -33.5 105.5t-120.5 29.5h-6 q-87 0 -120.5 -29.5t-33.5 -105.5v-66q0 -76 33.5 -105.5t120.5 -29.5h6q87 0 120.5 29.5t33.5 105.5z" />
<glyph unicode="&#x2205;" horiz-adv-x="556" d="M478 595q8 0 4 -7l-66 -118q46 -31 46 -126v-198q0 -87 -39 -120.5t-142 -33.5h-6q-78 0 -119 19l-63 -112q-2 -4 -7 -4h-8q-8 0 -4 7l66 118q-46 31 -46 126v198q0 87 39 120.5t142 33.5h6q78 0 119 -19l63 112q2 4 7 4h8zM114 146q0 -81 36 -109l240 425 q-34 17 -109 17h-6q-94 0 -127.5 -28.5t-33.5 -106.5v-198zM442 344q0 81 -36 109l-240 -425q34 -17 109 -17h6q94 0 127.5 28.5t33.5 106.5v198z" />
<glyph unicode="&#x220f;" horiz-adv-x="495" d="M449 645q6 0 6 -6v-7q0 -6 -6 -6h-96v-620q0 -6 -6 -6h-8q-6 0 -6 6v620h-170v-620q0 -6 -6 -6h-8q-6 0 -6 6v620h-97q-6 0 -6 6v7q0 6 6 6h403z" />
<glyph unicode="&#x2211;" horiz-adv-x="395" d="M350 632q0 -6 -6 -6h-278l178 -300q1 -4 0 -8l-178 -299h278q6 0 6 -6v-7q0 -6 -6 -6h-293q-6 0 -6 6v9q0 4 2 7l177 300l-177 301q-2 3 -2 7v9q0 6 6 6h293q6 0 6 -6v-7z" />
<glyph unicode="&#x2212;" horiz-adv-x="500" d="M66 243q-6 0 -6 6v7q0 6 6 6h368q6 0 6 -6v-7q0 -6 -6 -6h-368z" />
<glyph unicode="&#x221a;" horiz-adv-x="420" d="M368 645q6 0 6 -3v-2l-128 -635q-1 -5 -6 -5h-12q-5 0 -7 4l-128 247h-67q-6 0 -6 6v7q0 6 6 6h74q5 0 7 -4l124 -238l123 612q1 5 6 5h8z" />
<glyph unicode="&#x221e;" horiz-adv-x="927" d="M683 460q106 0 140 -30t34 -114v-134q0 -84 -34 -114t-140 -30h-6q-66 0 -97 21t-73 95l-43 77l-44 -77q-42 -74 -73 -95t-97 -21h-6q-106 0 -140 30t-34 114v134q0 84 34 114t140 30h6q66 0 97.5 -21t73.5 -95l43 -75l42 75q42 74 73.5 95t97.5 21h6zM414 181l39 69 l-38 67q-46 82 -74 103t-91 21h-6q-94 0 -124 -24t-30 -101v-134q0 -77 30 -101t124 -24h6q63 0 90.5 21t73.5 103zM837 182v134q0 77 -30 101t-124 24h-6q-63 0 -91 -21t-74 -103l-38 -67l39 -69q46 -82 73.5 -103t90.5 -21h6q94 0 124 24t30 101z" />
<glyph unicode="&#x222b;" horiz-adv-x="295" d="M36 0q-6 0 -6 6v7q0 6 6 6h14q78 0 99.5 50t1.5 190l-18 126q-20 141 7.5 200.5t104.5 59.5h14q6 0 6 -6v-7q0 -6 -6 -6h-14q-44 0 -67 -20.5t-31.5 -74t6.5 -146.5l18 -126q21 -147 -4 -203t-117 -56h-14z" />
<glyph unicode="&#x2248;" horiz-adv-x="500" d="M348 282q-43 0 -101 38t-94 38q-37 0 -86 -33q-7 -5 -7 4v6q0 5 4 8q49 35 90 35q40 0 97.5 -38t95.5 -38t86 33q7 5 7 -4v-5q0 -5 -5 -10q-43 -34 -87 -34zM348 102q-43 0 -101 38t-94 38q-37 0 -86 -33q-7 -5 -7 4v6q0 5 4 8q49 35 90 35q40 0 97.5 -38t95.5 -38t86 33 q7 5 7 -4v-5q0 -5 -5 -10q-43 -34 -87 -34z" />
<glyph unicode="&#x2260;" horiz-adv-x="500" d="M434 336h-112l-115 -172h227q6 0 6 -6v-7q0 -6 -6 -6h-240l-95 -141q-3 -4 -8 -4h-7q-9 0 -4 7l93 138h-107q-6 0 -6 6v7q0 6 6 6h120l115 172h-235q-6 0 -6 6v7q0 6 6 6h248l88 131q3 4 8 4h7q8 0 4 -7l-86 -128h99q6 0 6 -6v-7q0 -6 -6 -6z" />
<glyph unicode="&#x2264;" horiz-adv-x="500" d="M69 294q-5 2 -5 7v13q0 5 5 7l338 135q7 3 7 -4v-8q0 -5 -5 -7l-325 -129l335 -133q5 -2 5 -7v-8q0 -7 -7 -4zM434 19q6 0 6 -6v-7q0 -6 -6 -6h-368q-6 0 -6 6v7q0 6 6 6h368z" />
<glyph unicode="&#x2265;" horiz-adv-x="500" d="M83 156q-7 -3 -7 4v8q0 5 5 7l335 133l-325 129q-5 2 -5 7v8q0 7 7 4l338 -135q5 -2 5 -7v-13q0 -5 -5 -7zM434 19q6 0 6 -6v-7q0 -6 -6 -6h-368q-6 0 -6 6v7q0 6 6 6h368z" />
<glyph unicode="&#x25ca;" horiz-adv-x="495" d="M442 327q3 -5 0 -10l-184 -312q-3 -5 -8 -5h-5q-5 0 -8 5l-184 312q-3 5 0 10l184 313q3 5 8 5h5q5 0 8 -5zM248 23l175 299l-175 299l-176 -299z" />
<glyph unicode="&#x25fc;" horiz-adv-x="490" d="M0 490h490v-490h-490v490z" />
<glyph unicode="&#xf8ff;" horiz-adv-x="806" d="M80 639q0 6 6 6h634q6 0 6 -6v-633q0 -6 -6 -6h-634q-6 0 -6 6v633zM301 165q0 -4 4 -4h2q4 0 4 4v154h184v-154q0 -4 4 -4h2q4 0 4 4v315q0 4 -4 4h-2q-4 0 -4 -4v-151h-184v151q0 4 -4 4h-2q-4 0 -4 -4v-315z" />
<glyph horiz-adv-x="200" d="M95 587q-6 0 -6 6v66q0 6 6 6h10q6 0 6 -6v-66q0 -6 -6 -6h-10zM96 0q-6 0 -6 6v478q0 6 6 6h8q6 0 6 -6v-478q0 -6 -6 -6h-8z" />
<glyph horiz-adv-x="530" d="M435 490q5 0 5 -6v-478q0 -6 -5 -6h-2q-5 0 -6 5l-7 35q-93 -48 -189 -48q-81 0 -116 38t-35 122v186q0 84 35 122t116 38q96 0 189 -48l7 35q1 5 6 5h2zM100 157q0 -81 30 -113.5t103 -32.5q95 0 187 46v376q-92 46 -187 46q-73 0 -103 -32.5t-30 -113.5v-176z" />
<glyph horiz-adv-x="530" d="M239 562q-11 0 -3 8l94 92q3 3 7 3h13q4 0 5.5 -2t-0.5 -4l-99 -94q-3 -3 -7 -3h-10zM435 490q5 0 5 -6v-478q0 -6 -5 -6h-2q-5 0 -6 5l-7 35q-93 -48 -189 -48q-81 0 -116 38t-35 122v186q0 84 35 122t116 38q96 0 189 -48l7 35q1 5 6 5h2zM100 157q0 -81 30 -113.5 t103 -32.5q95 0 187 46v376q-92 46 -187 46q-73 0 -103 -32.5t-30 -113.5v-176z" />
<glyph horiz-adv-x="530" d="M271 559q-54 0 -73 18t-19 67v15q0 6 6 6h8q6 0 6 -6v-15q0 -41 13.5 -53.5t58.5 -12.5h4q45 0 58.5 12.5t13.5 53.5v15q0 6 6 6h8q6 0 6 -6v-15q0 -49 -19 -67t-73 -18h-4zM435 490q5 0 5 -6v-478q0 -6 -5 -6h-2q-5 0 -6 5l-7 35q-93 -48 -189 -48q-81 0 -116 38 t-35 122v186q0 84 35 122t116 38q96 0 189 -48l7 35q1 5 6 5h2zM100 157q0 -81 30 -113.5t103 -32.5q95 0 187 46v376q-92 46 -187 46q-73 0 -103 -32.5t-30 -113.5v-176z" />
<glyph horiz-adv-x="530" d="M260 565l-83 93q-5 7 4 7h11q4 0 7 -3l74 -84l74 84q3 3 7 3h11q9 0 4 -7l-83 -93q-3 -3 -7 -3h-12q-4 0 -7 3zM435 490q5 0 5 -6v-478q0 -6 -5 -6h-2q-5 0 -6 5l-7 35q-93 -48 -189 -48q-81 0 -116 38t-35 122v186q0 84 35 122t116 38q96 0 189 -48l7 35q1 5 6 5h2z M100 157q0 -81 30 -113.5t103 -32.5q95 0 187 46v376q-92 46 -187 46q-73 0 -103 -32.5t-30 -113.5v-176z" />
<glyph horiz-adv-x="530" d="M181 562q-9 0 -4 7l83 93q3 3 7 3h12q4 0 7 -3l83 -93q5 -7 -4 -7h-11q-4 0 -7 3l-74 84l-74 -84q-3 -3 -7 -3h-11zM435 490q5 0 5 -6v-478q0 -6 -5 -6h-2q-5 0 -6 5l-7 35q-93 -48 -189 -48q-81 0 -116 38t-35 122v186q0 84 35 122t116 38q96 0 189 -48l7 35q1 5 6 5h2z M100 157q0 -81 30 -113.5t103 -32.5q95 0 187 46v376q-92 46 -187 46q-73 0 -103 -32.5t-30 -113.5v-176z" />
<glyph horiz-adv-x="530" d="M201 587q-6 0 -6 6v66q0 6 6 6h10q6 0 6 -6v-66q0 -6 -6 -6h-10zM335 587q-6 0 -6 6v66q0 6 6 6h10q6 0 6 -6v-66q0 -6 -6 -6h-10zM435 490q5 0 5 -6v-478q0 -6 -5 -6h-2q-5 0 -6 5l-7 35q-93 -48 -189 -48q-81 0 -116 38t-35 122v186q0 84 35 122t116 38q96 0 189 -48 l7 35q1 5 6 5h2zM100 157q0 -81 30 -113.5t103 -32.5q95 0 187 46v376q-92 46 -187 46q-73 0 -103 -32.5t-30 -113.5v-176z" />
<glyph horiz-adv-x="530" d="M289 565l-99 94q-2 2 -0.5 4t5.5 2h13q4 0 7 -3l94 -92q8 -8 -3 -8h-10q-4 0 -7 3zM435 490q5 0 5 -6v-478q0 -6 -5 -6h-2q-5 0 -6 5l-7 35q-93 -48 -189 -48q-81 0 -116 38t-35 122v186q0 84 35 122t116 38q96 0 189 -48l7 35q1 5 6 5h2zM100 157q0 -81 30 -113.5 t103 -32.5q95 0 187 46v376q-92 46 -187 46q-73 0 -103 -32.5t-30 -113.5v-176z" />
<glyph horiz-adv-x="530" d="M179 587q-6 0 -6 6v7q0 6 6 6h188q6 0 6 -6v-7q0 -6 -6 -6h-188zM435 490q5 0 5 -6v-478q0 -6 -5 -6h-2q-5 0 -6 5l-7 35q-93 -48 -189 -48q-81 0 -116 38t-35 122v186q0 84 35 122t116 38q96 0 189 -48l7 35q1 5 6 5h2zM100 157q0 -81 30 -113.5t103 -32.5q95 0 187 46 v376q-92 46 -187 46q-73 0 -103 -32.5t-30 -113.5v-176z" />
<glyph horiz-adv-x="530" d="M436 -189q6 0 6 -6v-7q0 -6 -6 -6h-35q-46 0 -64.5 14.5t-18.5 50.5v8q0 24 10.5 41.5t49.5 54.5l48 47l-6 32q-93 -48 -189 -48q-81 0 -116 38t-35 122v186q0 84 35 122t116 38q96 0 189 -48l7 35q1 5 6 5h2q5 0 5 -6v-482q0 -4 -3 -7l-40 -40q-41 -41 -50 -55t-9 -35 v-8q0 -28 12 -37t51 -9h35zM100 157q0 -81 30 -113.5t103 -32.5q95 0 187 46v376q-92 46 -187 46q-73 0 -103 -32.5t-30 -113.5v-176z" />
<glyph horiz-adv-x="530" d="M272 559q-44 0 -58.5 10.5t-14.5 41.5v14q0 31 14.5 41.5t58.5 10.5h2q44 0 58.5 -10.5t14.5 -41.5v-14q0 -31 -14.5 -41.5t-58.5 -10.5h-2zM217 624v-12q0 -24 9 -30.5t46 -6.5h2q37 0 46 6.5t9 30.5v12q0 24 -9 30.5t-46 6.5h-2q-37 0 -46 -6.5t-9 -30.5zM435 490 q5 0 5 -6v-478q0 -6 -5 -6h-2q-5 0 -6 5l-7 35q-93 -48 -189 -48q-81 0 -116 38t-35 122v186q0 84 35 122t116 38q96 0 189 -48l7 35q1 5 6 5h2zM100 157q0 -81 30 -113.5t103 -32.5q95 0 187 46v376q-92 46 -187 46q-73 0 -103 -32.5t-30 -113.5v-176z" />
<glyph horiz-adv-x="530" d="M158 577q-6 0 -6 6v24q0 25 12 39.5t32 14.5q23 0 51 -19l64 -43q23 -15 39 -15q26 0 26 36v24q0 6 6 6h6q6 0 6 -6v-24q0 -25 -12 -39.5t-32 -14.5q-23 0 -51 19l-64 43q-23 15 -39 15q-26 0 -26 -36v-24q0 -6 -6 -6h-6zM435 490q5 0 5 -6v-478q0 -6 -5 -6h-2q-5 0 -6 5 l-7 35q-93 -48 -189 -48q-81 0 -116 38t-35 122v186q0 84 35 122t116 38q96 0 189 -48l7 35q1 5 6 5h2zM100 157q0 -81 30 -113.5t103 -32.5q95 0 187 46v376q-92 46 -187 46q-73 0 -103 -32.5t-30 -113.5v-176z" />
<glyph horiz-adv-x="530" d="M435 490q5 0 5 -6v-538q0 -87 -39 -120.5t-144 -33.5h-117q-6 0 -6 6v7q0 6 6 6h117q96 0 129.5 28.5t33.5 106.5v94q-93 -48 -189 -48q-81 0 -116 38t-35 122v186q0 84 35 122t116 38q96 0 189 -48l7 35q1 5 6 5h2zM233 11q95 0 187 46v376q-92 46 -187 46 q-73 0 -103 -32.5t-30 -113.5v-176q0 -81 30 -113.5t103 -32.5z" />
<glyph horiz-adv-x="530" d="M268 559q-54 0 -73 18t-19 67v15q0 6 6 6h8q6 0 6 -6v-15q0 -41 13.5 -53.5t58.5 -12.5h4q45 0 58.5 12.5t13.5 53.5v15q0 6 6 6h8q6 0 6 -6v-15q0 -49 -19 -67t-73 -18h-4zM435 490q5 0 5 -6v-538q0 -87 -39 -120.5t-144 -33.5h-117q-6 0 -6 6v7q0 6 6 6h117 q96 0 129.5 28.5t33.5 106.5v94q-93 -48 -189 -48q-81 0 -116 38t-35 122v186q0 84 35 122t116 38q96 0 189 -48l7 35q1 5 6 5h2zM233 11q95 0 187 46v376q-92 46 -187 46q-73 0 -103 -32.5t-30 -113.5v-176q0 -81 30 -113.5t103 -32.5z" />
<glyph horiz-adv-x="530" d="M178 562q-9 0 -4 7l83 93q3 3 7 3h12q4 0 7 -3l83 -93q5 -7 -4 -7h-11q-4 0 -7 3l-74 84l-74 -84q-3 -3 -7 -3h-11zM435 490q5 0 5 -6v-538q0 -87 -39 -120.5t-144 -33.5h-117q-6 0 -6 6v7q0 6 6 6h117q96 0 129.5 28.5t33.5 106.5v94q-93 -48 -189 -48q-81 0 -116 38 t-35 122v186q0 84 35 122t116 38q96 0 189 -48l7 35q1 5 6 5h2zM233 11q95 0 187 46v376q-92 46 -187 46q-73 0 -103 -32.5t-30 -113.5v-176q0 -81 30 -113.5t103 -32.5z" />
<glyph horiz-adv-x="530" d="M266 562q-6 0 -6 6v123q0 6 5 6h1q6 0 7 -6l6 -60q1 -9 1 -14v-49q0 -6 -6 -6h-8zM435 490q5 0 5 -6v-538q0 -87 -39 -120.5t-144 -33.5h-117q-6 0 -6 6v7q0 6 6 6h117q96 0 129.5 28.5t33.5 106.5v94q-93 -48 -189 -48q-81 0 -116 38t-35 122v186q0 84 35 122t116 38 q96 0 189 -48l7 35q1 5 6 5h2zM233 11q95 0 187 46v376q-92 46 -187 46q-73 0 -103 -32.5t-30 -113.5v-176q0 -81 30 -113.5t103 -32.5z" />
<glyph horiz-adv-x="530" d="M265 587q-6 0 -6 6v66q0 6 6 6h10q6 0 6 -6v-66q0 -6 -6 -6h-10zM435 490q5 0 5 -6v-538q0 -87 -39 -120.5t-144 -33.5h-117q-6 0 -6 6v7q0 6 6 6h117q96 0 129.5 28.5t33.5 106.5v94q-93 -48 -189 -48q-81 0 -116 38t-35 122v186q0 84 35 122t116 38q96 0 189 -48l7 35 q1 5 6 5h2zM233 11q95 0 187 46v376q-92 46 -187 46q-73 0 -103 -32.5t-30 -113.5v-176q0 -81 30 -113.5t103 -32.5z" />
<glyph horiz-adv-x="529" d="M433 490q6 0 6 -6v-538q0 -87 -39 -120.5t-144 -33.5h-117q-6 0 -6 6v7q0 6 6 6h117q96 0 129.5 28.5t33.5 106.5v93q-90 -47 -183 -47q-81 0 -116 38t-35 122v332q0 6 6 6h8q6 0 6 -6v-327q0 -81 30 -113.5t103 -32.5q94 0 181 45v428q0 6 6 6h8z" />
<glyph horiz-adv-x="529" d="M228 562q-11 0 -3 8l94 92q3 3 7 3h13q4 0 5.5 -2t-0.5 -4l-99 -94q-3 -3 -7 -3h-10zM433 490q6 0 6 -6v-538q0 -87 -39 -120.5t-144 -33.5h-117q-6 0 -6 6v7q0 6 6 6h117q96 0 129.5 28.5t33.5 106.5v93q-90 -47 -183 -47q-81 0 -116 38t-35 122v332q0 6 6 6h8q6 0 6 -6 v-327q0 -81 30 -113.5t103 -32.5q94 0 181 45v428q0 6 6 6h8z" />
<glyph horiz-adv-x="529" d="M170 562q-9 0 -4 7l83 93q3 3 7 3h12q4 0 7 -3l83 -93q5 -7 -4 -7h-11q-4 0 -7 3l-74 84l-74 -84q-3 -3 -7 -3h-11zM433 490q6 0 6 -6v-538q0 -87 -39 -120.5t-144 -33.5h-117q-6 0 -6 6v7q0 6 6 6h117q96 0 129.5 28.5t33.5 106.5v93q-90 -47 -183 -47q-81 0 -116 38 t-35 122v332q0 6 6 6h8q6 0 6 -6v-327q0 -81 30 -113.5t103 -32.5q94 0 181 45v428q0 6 6 6h8z" />
<glyph horiz-adv-x="529" d="M190 587q-6 0 -6 6v66q0 6 6 6h10q6 0 6 -6v-66q0 -6 -6 -6h-10zM324 587q-6 0 -6 6v66q0 6 6 6h10q6 0 6 -6v-66q0 -6 -6 -6h-10zM433 490q6 0 6 -6v-538q0 -87 -39 -120.5t-144 -33.5h-117q-6 0 -6 6v7q0 6 6 6h117q96 0 129.5 28.5t33.5 106.5v93q-90 -47 -183 -47 q-81 0 -116 38t-35 122v332q0 6 6 6h8q6 0 6 -6v-327q0 -81 30 -113.5t103 -32.5q94 0 181 45v428q0 6 6 6h8z" />
<glyph horiz-adv-x="529" d="M278 565l-99 94q-2 2 -0.5 4t5.5 2h13q4 0 7 -3l94 -92q8 -8 -3 -8h-10q-4 0 -7 3zM433 490q6 0 6 -6v-538q0 -87 -39 -120.5t-144 -33.5h-117q-6 0 -6 6v7q0 6 6 6h117q96 0 129.5 28.5t33.5 106.5v93q-90 -47 -183 -47q-81 0 -116 38t-35 122v332q0 6 6 6h8q6 0 6 -6 v-327q0 -81 30 -113.5t103 -32.5q94 0 181 45v428q0 6 6 6h8z" />
<glyph horiz-adv-x="605" d="M569 15q6 0 6 -6v-7q0 -6 -6 -6h-40q-73 0 -97.5 27t-24.5 112v336h-274v-330q0 -80 19.5 -103t83.5 -23h39q6 0 6 -6v-7q0 -6 -6 -6h-40q-73 0 -97.5 27t-24.5 112v336h-93q-6 0 -6 6v1q0 5 9 6l90 5v150q0 6 6 6h8q6 0 6 -6v-149h274v149q0 6 6 6h8q6 0 6 -6v-149h140 q6 0 6 -6v-7q0 -6 -6 -6h-140v-330q0 -80 19.5 -103t83.5 -23h39z" />
<glyph horiz-adv-x="514" d="M513 19q6 0 6 -6v-138q0 -6 -6 -6h-2q-6 0 -6 6l-6 125h-484l-6 -125q0 -6 -6 -6h-2q-6 0 -6 6v138q0 6 6 6h48l196 620q2 6 7 6h10q5 0 7 -6l196 -620h48zM70 19h374l-129 409q-53 174 -58 191q-5 -17 -58 -191z" />
<glyph horiz-adv-x="510" d="M488 6q2 -6 -5 -6h-9q-5 0 -7 6l-147 421q-36 102 -65 195q-29 -93 -65 -195l-147 -421q-2 -6 -7 -6h-9q-7 0 -5 6l221 633q2 6 7 6h10q5 0 7 -6z" />
<glyph horiz-adv-x="500" d="M323 332q65 -7 92.5 -39t27.5 -103v-48q0 -84 -38 -117t-137 -33h-7q-99 0 -137.5 33t-38.5 117v361q0 84 37 117t129 33h6q92 0 128.5 -33t36.5 -117v-32q0 -65 -23 -97t-76 -42zM251 634q-84 0 -115 -27.5t-31 -103.5v-163h142q88 0 121.5 27t33.5 104v32 q0 76 -30.5 103.5t-114.5 27.5h-6zM423 142v48q0 77 -33.5 104t-121.5 27h-163v-179q0 -77 34 -104t122 -27h7q88 0 121.5 27t33.5 104z" />
<glyph horiz-adv-x="471" d="M60 111v16q0 47 20.5 71t73.5 40l144 43q54 16 70 31t16 50v15q0 54 -32 78t-113 24h-6q-80 0 -111 -22.5t-31 -76.5v-40q0 -6 -6 -6h-8q-6 0 -6 6v40q0 61 37 89.5t125 28.5h6q89 0 127 -29.5t38 -91.5v-15q0 -41 -19.5 -61.5t-75.5 -36.5l-144 -43q-52 -15 -68.5 -34.5 t-16.5 -59.5v-16q0 -54 34 -77t119 -23h6q85 0 118.5 23t33.5 77v40q0 6 6 6h8q6 0 6 -6v-40q0 -62 -39 -90.5t-134 -28.5h-6q-95 0 -133.5 28t-38.5 91z" />
<glyph horiz-adv-x="530" d="M435 490q5 0 5 -6v-538q0 -87 -39 -120.5t-144 -33.5h-117q-6 0 -6 6v7q0 6 6 6h117q96 0 129.5 28.5t33.5 106.5v94q-93 -48 -189 -48q-81 0 -116 38t-35 122v186q0 84 35 122t116 38q96 0 189 -48l7 35q1 5 6 5h2zM233 11q95 0 187 46v376q-92 46 -187 46 q-73 0 -103 -32.5t-30 -113.5v-176q0 -81 30 -113.5t103 -32.5z" />
<glyph horiz-adv-x="652" d="M627 5q3 -5 -5 -5h-10q-5 0 -8 5l-144 235h-124v-234q0 -6 -6 -6h-8q-6 0 -6 6v234h-124l-144 -235q-3 -5 -8 -5h-10q-8 0 -5 5l149 243l-145 237q-3 5 5 5h10q5 0 8 -5l137 -226h127v435q0 6 6 6h8q6 0 6 -6v-435h127l137 226q3 5 8 5h10q8 0 5 -5l-145 -237z" />
<glyph horiz-adv-x="490" d="M320 248q51 -7 76 -33t25 -77v-27q0 -64 -39 -91.5t-134 -27.5h-6q-95 0 -134 27.5t-39 91.5v34q0 6 6 6h8q6 0 6 -6v-34q0 -56 33.5 -78t119.5 -22h6q86 0 119.5 22t33.5 78v27q0 56 -33.5 78t-119.5 22h-59q-6 0 -6 6v7q0 6 6 6h59q82 0 114.5 22t32.5 78v22 q0 56 -32.5 78t-114.5 22h-6q-82 0 -114.5 -22t-32.5 -78v-33q0 -6 -6 -6h-8q-6 0 -6 6v33q0 64 38 91.5t129 27.5h6q91 0 129 -27.5t38 -91.5v-22q0 -97 -95 -109z" />
<glyph horiz-adv-x="529" d="M433 490q6 0 6 -6v-478q0 -6 -5 -6h-2q-5 0 -6 5l-7 34q-88 -47 -183 -47q-81 0 -116 38t-35 122v332q0 6 6 6h8q6 0 6 -6v-327q0 -81 30 -113.5t103 -32.5q94 0 181 45v428q0 6 6 6h8z" />
<glyph horiz-adv-x="529" d="M263 559q-54 0 -73 18t-19 67v15q0 6 6 6h8q6 0 6 -6v-15q0 -41 13.5 -53.5t58.5 -12.5h4q45 0 58.5 12.5t13.5 53.5v15q0 6 6 6h8q6 0 6 -6v-15q0 -49 -19 -67t-73 -18h-4zM433 490q6 0 6 -6v-478q0 -6 -5 -6h-2q-5 0 -6 5l-7 34q-88 -47 -183 -47q-81 0 -116 38 t-35 122v332q0 6 6 6h8q6 0 6 -6v-327q0 -81 30 -113.5t103 -32.5q94 0 181 45v428q0 6 6 6h8z" />
<glyph horiz-adv-x="529" d="M281 565l-99 94q-2 2 -0.5 4t5.5 2h13q4 0 7 -3l94 -92q8 -8 -3 -8h-10q-4 0 -7 3zM433 490q6 0 6 -6v-478q0 -6 -5 -6h-2q-5 0 -6 5l-7 34q-88 -47 -183 -47q-81 0 -116 38t-35 122v332q0 6 6 6h8q6 0 6 -6v-327q0 -81 30 -113.5t103 -32.5q94 0 181 45v428q0 6 6 6h8z " />
<glyph horiz-adv-x="455" d="M429 7q5 -7 -4 -7h-11q-5 0 -8 4l-173 236h-123v-234q0 -6 -6 -6h-8q-6 0 -6 6v688q0 6 6 6h8q6 0 6 -6v-435h126l166 227q3 4 8 4h11q9 0 4 -7l-173 -235z" />
<glyph horiz-adv-x="439" d="M419 5q1 -4 0 -4.5t-5 -0.5h-10q-5 0 -7 5l-105 268q-42 107 -72 193q-34 -94 -73 -193l-105 -268q-2 -5 -7 -5h-10q-7 0 -5 5l188 480q2 5 7 5h9q5 0 7 -5z" />
<glyph horiz-adv-x="533" d="M297 498q81 0 116 -38t35 -122v-332q0 -6 -6 -6h-8q-6 0 -6 6v327q0 81 -30 113.5t-103 32.5q-92 0 -185 -45v-428q0 -6 -6 -6h-8q-6 0 -6 6v478q0 6 4 6h4q4 0 5 -5l7 -34q91 47 187 47z" />
<glyph horiz-adv-x="821" d="M585 498q81 0 116 -38t35 -122v-332q0 -6 -6 -6h-8q-6 0 -6 6v327q0 81 -30 113.5t-103 32.5q-94 0 -171 -51q14 -34 14 -90v-332q0 -6 -6 -6h-8q-6 0 -6 6v327q0 81 -30 113.5t-103 32.5q-88 0 -163 -45v-428q0 -6 -6 -6h-8q-6 0 -6 6v478q0 6 4 6h4q4 0 5 -5l7 -33 q76 46 165 46q96 0 130 -56q76 56 180 56z" />
<glyph horiz-adv-x="534" d="M488 19q6 0 6 -6v-138q0 -6 -6 -6h-2q-6 0 -6 6l-6 125h-38h-2h-2q-5 0 -6 5l-7 34q-88 -47 -183 -47q-81 0 -116 38t-35 122v332q0 6 6 6h8q6 0 6 -6v-327q0 -81 30 -113.5t103 -32.5q94 0 181 45v428q0 6 6 6h8q6 0 6 -6v-465h49z" />
<glyph horiz-adv-x="821" d="M725 490q6 0 6 -6v-478q0 -6 -4 -6h-4q-4 0 -5 5l-7 33q-76 -46 -165 -46q-96 0 -130 56q-76 -56 -180 -56q-81 0 -116 38t-35 122v332q0 6 6 6h8q6 0 6 -6v-327q0 -81 30 -113.5t103 -32.5q95 0 171 51q-14 34 -14 90v332q0 6 6 6h8q6 0 6 -6v-327q0 -81 30 -113.5 t103 -32.5q88 0 163 45v428q0 6 6 6h8z" />
<glyph horiz-adv-x="826" d="M780 19q6 0 6 -6v-138q0 -6 -6 -6h-2q-6 0 -6 6l-6 125h-38h-1h-4q-4 0 -5 5l-7 33q-76 -46 -165 -46q-96 0 -130 56q-76 -56 -180 -56q-81 0 -116 38t-35 122v332q0 6 6 6h8q6 0 6 -6v-327q0 -81 30 -113.5t103 -32.5q95 0 171 51q-14 34 -14 90v332q0 6 6 6h8q6 0 6 -6 v-327q0 -81 30 -113.5t103 -32.5q88 0 163 45v428q0 6 6 6h8q6 0 6 -6v-465h49z" />
<glyph horiz-adv-x="473" d="M308 289q119 0 119 -102v-85q0 -102 -119 -102h-104q-119 0 -119 102v382q0 6 6 6h8q6 0 6 -6v-240q20 45 99 45h104zM407 102v85q0 44 -24.5 63.5t-79.5 19.5h-94q-55 0 -79.5 -19.5t-24.5 -63.5v-85q0 -44 24.5 -63.5t79.5 -19.5h94q55 0 79.5 19.5t24.5 63.5z" />
<glyph horiz-adv-x="513" d="M348 289q119 0 119 -102v-85q0 -102 -119 -102h-104q-119 0 -119 102v369h-119q-6 0 -6 6v7q0 6 6 6h133q6 0 6 -6v-240q20 45 99 45h104zM447 102v85q0 44 -24.5 63.5t-79.5 19.5h-94q-55 0 -79.5 -19.5t-24.5 -63.5v-85q0 -44 24.5 -63.5t79.5 -19.5h94q55 0 79.5 19.5 t24.5 63.5z" />
<glyph horiz-adv-x="689" d="M438 498q96 0 133.5 -34t37.5 -120v-198q0 -86 -37.5 -120t-133.5 -34h-6q-96 0 -133.5 34t-37.5 120v90h-151v-230q0 -6 -6 -6h-8q-6 0 -6 6v688q0 6 6 6h8q6 0 6 -6v-439h151v89q0 86 37.5 120t133.5 34h6zM589 146v198q0 78 -32 106.5t-119 28.5h-6q-87 0 -119 -28.5 t-32 -106.5v-198q0 -78 32 -106.5t119 -28.5h6q87 0 119 28.5t32 106.5z" />
<glyph horiz-adv-x="580" d="M90 156v333q0 93 42 128.5t155 35.5h6q113 0 155 -35.5t42 -128.5v-333q0 -93 -42 -128.5t-155 -35.5h-6q-113 0 -155 35.5t-42 128.5zM110 156q0 -84 37 -114.5t140 -30.5h6q103 0 140 30.5t37 114.5v333q0 84 -37 114.5t-140 30.5h-6q-103 0 -140 -30.5t-37 -114.5 v-333z" />
<glyph horiz-adv-x="435" d="M379 19q6 0 6 -6v-7q0 -6 -6 -6h-318q-6 0 -6 6v7q0 6 6 6h161v605l-136 -70q-8 -4 -8 4v7q0 5 6 8l134 70q4 2 8 2h10q6 0 6 -6v-620h137z" />
<glyph horiz-adv-x="542" d="M211 278q-69 -16 -87.5 -37.5t-18.5 -82.5v-139h351q6 0 6 -6v-7q0 -6 -6 -6h-365q-6 0 -6 6v156q0 65 24.5 91.5t97.5 43.5l124 28q69 15 90 39t21 82v54q0 77 -34.5 105.5t-129.5 28.5h-6q-95 0 -129 -28.5t-34 -106.5v-44q0 -6 -6 -6h-8q-6 0 -6 6v44q0 86 39 120 t144 34h6q105 0 144.5 -34t39.5 -119v-54q0 -67 -25 -95t-102 -45z" />
<glyph horiz-adv-x="547" d="M354 328q63 -6 85.5 -32.5t22.5 -92.5v-57q0 -86 -40.5 -120t-147.5 -34h-6q-107 0 -147.5 34t-40.5 120v34q0 6 6 6h8q6 0 6 -6v-34q0 -77 34.5 -106t133.5 -29h6q99 0 133.5 29t34.5 106v57q0 70 -31.5 92.5t-136.5 22.5h-61q-6 0 -6 6v7q0 6 6 6h55q105 0 136.5 22.5 t31.5 92.5v47q0 80 -32.5 107.5t-129.5 27.5h-6q-97 0 -130 -27.5t-33 -107.5v-44q0 -6 -6 -6h-8q-6 0 -6 6v44q0 87 39 120.5t144 33.5h6q104 0 143 -33.5t39 -120.5v-47q0 -63 -21.5 -90t-80.5 -34z" />
<glyph horiz-adv-x="520" d="M469 192q6 0 6 -6v-7q0 -6 -6 -6h-74v-167q0 -6 -6 -6h-8q-6 0 -6 6v167h-324q-6 0 -6 6v9q0 4 3 8l324 445q3 4 8 4h9q6 0 6 -6v-447h74zM68 192h307v422z" />
<glyph horiz-adv-x="539" d="M275 363q107 0 145.5 -34.5t38.5 -129.5v-43q0 -93 -39 -128.5t-145 -35.5h-6q-106 0 -145 35.5t-39 128.5v24q0 6 6 6h8q6 0 6 -6v-24q0 -85 34 -115t130 -30h6q96 0 130 30t34 115v43q0 87 -33 116t-131 29h-161q-4 0 -7 2l-5 4q-3 2 -3 8v281q0 6 6 6h332q6 0 6 -6v-7 q0 -6 -6 -6h-318v-263h156z" />
<glyph horiz-adv-x="569" d="M290 365q111 0 152.5 -35.5t41.5 -128.5v-45q0 -93 -41.5 -128.5t-152.5 -35.5h-6q-111 0 -152.5 35.5t-41.5 128.5v333q0 93 41 128.5t149 35.5h6q108 0 149 -35.5t41 -128.5v-34q0 -6 -6 -6h-8q-6 0 -6 6v34q0 84 -36 114.5t-134 30.5h-6q-98 0 -134 -30.5t-36 -114.5 v-201q14 42 54 59.5t120 17.5h6zM464 156v45q0 84 -36.5 114.5t-137.5 30.5h-6q-101 0 -137.5 -30.5t-36.5 -114.5v-45q0 -84 36.5 -114.5t137.5 -30.5h6q101 0 137.5 30.5t36.5 114.5z" />
<glyph horiz-adv-x="430" d="M399 645q6 0 6 -6v-9q0 -5 -2 -9l-264 -614q-3 -7 -8 -7h-8q-8 0 -5 7l267 619h-334q-6 0 -6 6v7q0 6 6 6h348z" />
<glyph horiz-adv-x="574" d="M372 329q66 -10 91.5 -43t25.5 -102v-38q0 -86 -42.5 -120t-156.5 -34h-6q-114 0 -156.5 34t-42.5 120v38q0 69 25.5 102t91.5 43q-59 10 -83 43t-24 98v32q0 84 41 117.5t148 33.5h6q107 0 148 -33.5t41 -117.5v-32q0 -65 -24 -98t-83 -43zM115 470q0 -75 36 -103.5 t133 -28.5h6q97 0 133 28.5t36 103.5v32q0 75 -36 103.5t-133 28.5h-6q-97 0 -133 -28.5t-36 -103.5v-32zM469 146v38q0 78 -37.5 106.5t-141.5 28.5h-6q-104 0 -141.5 -28.5t-37.5 -106.5v-38q0 -78 37.5 -106.5t141.5 -28.5h6q104 0 141.5 28.5t37.5 106.5z" />
<glyph horiz-adv-x="569" d="M285 653q111 0 152.5 -35.5t41.5 -128.5v-333q0 -93 -41 -128.5t-149 -35.5h-6q-108 0 -149 35.5t-41 128.5v24q0 6 6 6h8q6 0 6 -6v-24q0 -84 36 -114.5t134 -30.5h6q98 0 134 30.5t36 114.5v196q-14 -42 -54 -59.5t-120 -17.5h-6q-111 0 -152.5 35.5t-41.5 128.5v50 q0 93 41.5 128.5t152.5 35.5h6zM285 294q101 0 137.5 30.5t36.5 114.5v50q0 84 -36.5 114.5t-137.5 30.5h-6q-101 0 -137.5 -30.5t-36.5 -114.5v-50q0 -84 36.5 -114.5t137.5 -30.5h6z" />
<glyph horiz-adv-x="600" d="M100 156v333q0 93 42 128.5t155 35.5h6q113 0 155 -35.5t42 -128.5v-333q0 -93 -42 -128.5t-155 -35.5h-6q-113 0 -155 35.5t-42 128.5zM120 156q0 -84 37 -114.5t140 -30.5h6q103 0 140 30.5t37 114.5v333q0 84 -37 114.5t-140 30.5h-6q-103 0 -140 -30.5t-37 -114.5 v-333z" />
<glyph horiz-adv-x="600" d="M474 19q6 0 6 -6v-7q0 -6 -6 -6h-318q-6 0 -6 6v7q0 6 6 6h161v605l-136 -70q-8 -4 -8 4v7q0 5 6 8l134 70q4 2 8 2h10q6 0 6 -6v-620h137z" />
<glyph horiz-adv-x="600" d="M259 278q-69 -16 -87.5 -37.5t-18.5 -82.5v-139h351q6 0 6 -6v-7q0 -6 -6 -6h-365q-6 0 -6 6v156q0 65 24.5 91.5t97.5 43.5l124 28q69 15 90 39t21 82v54q0 77 -34.5 105.5t-129.5 28.5h-6q-95 0 -129 -28.5t-34 -106.5v-44q0 -6 -6 -6h-8q-6 0 -6 6v44q0 86 39 120 t144 34h6q105 0 144.5 -34t39.5 -119v-54q0 -67 -25 -95t-102 -45z" />
<glyph horiz-adv-x="600" d="M387 328q63 -6 85.5 -32.5t22.5 -92.5v-57q0 -86 -40.5 -120t-147.5 -34h-6q-107 0 -147.5 34t-40.5 120v34q0 6 6 6h8q6 0 6 -6v-34q0 -77 34.5 -106t133.5 -29h6q99 0 133.5 29t34.5 106v57q0 70 -31.5 92.5t-136.5 22.5h-61q-6 0 -6 6v7q0 6 6 6h55q105 0 136.5 22.5 t31.5 92.5v47q0 80 -32.5 107.5t-129.5 27.5h-6q-97 0 -130 -27.5t-33 -107.5v-44q0 -6 -6 -6h-8q-6 0 -6 6v44q0 87 39 120.5t144 33.5h6q104 0 143 -33.5t39 -120.5v-47q0 -63 -21.5 -90t-80.5 -34z" />
<glyph horiz-adv-x="600" d="M504 192q6 0 6 -6v-7q0 -6 -6 -6h-74v-167q0 -6 -6 -6h-8q-6 0 -6 6v167h-324q-6 0 -6 6v9q0 4 3 8l324 445q3 4 8 4h9q6 0 6 -6v-447h74zM103 192h307v422z" />
<glyph horiz-adv-x="600" d="M315 363q107 0 145.5 -34.5t38.5 -129.5v-43q0 -93 -39 -128.5t-145 -35.5h-6q-106 0 -145 35.5t-39 128.5v24q0 6 6 6h8q6 0 6 -6v-24q0 -85 34 -115t130 -30h6q96 0 130 30t34 115v43q0 87 -33 116t-131 29h-161q-4 0 -7 2l-5 4q-3 2 -3 8v281q0 6 6 6h332q6 0 6 -6v-7 q0 -6 -6 -6h-318v-263h156z" />
<glyph horiz-adv-x="600" d="M315 365q111 0 152.5 -35.5t41.5 -128.5v-45q0 -93 -41.5 -128.5t-152.5 -35.5h-6q-111 0 -152.5 35.5t-41.5 128.5v333q0 93 41 128.5t149 35.5h6q108 0 149 -35.5t41 -128.5v-34q0 -6 -6 -6h-8q-6 0 -6 6v34q0 84 -36 114.5t-134 30.5h-6q-98 0 -134 -30.5t-36 -114.5 v-201q14 42 54 59.5t120 17.5h6zM489 156v45q0 84 -36.5 114.5t-137.5 30.5h-6q-101 0 -137.5 -30.5t-36.5 -114.5v-45q0 -84 36.5 -114.5t137.5 -30.5h6q101 0 137.5 30.5t36.5 114.5z" />
<glyph horiz-adv-x="600" d="M489 645q6 0 6 -6v-9q0 -5 -2 -9l-264 -614q-3 -7 -8 -7h-8q-8 0 -5 7l267 619h-334q-6 0 -6 6v7q0 6 6 6h348z" />
<glyph horiz-adv-x="600" d="M385 329q66 -10 91.5 -43t25.5 -102v-38q0 -86 -42.5 -120t-156.5 -34h-6q-114 0 -156.5 34t-42.5 120v38q0 69 25.5 102t91.5 43q-59 10 -83 43t-24 98v32q0 84 41 117.5t148 33.5h6q107 0 148 -33.5t41 -117.5v-32q0 -65 -24 -98t-83 -43zM128 470q0 -75 36 -103.5 t133 -28.5h6q97 0 133 28.5t36 103.5v32q0 75 -36 103.5t-133 28.5h-6q-97 0 -133 -28.5t-36 -103.5v-32zM482 146v38q0 78 -37.5 106.5t-141.5 28.5h-6q-104 0 -141.5 -28.5t-37.5 -106.5v-38q0 -78 37.5 -106.5t141.5 -28.5h6q104 0 141.5 28.5t37.5 106.5z" />
<glyph horiz-adv-x="600" d="M305 653q111 0 152.5 -35.5t41.5 -128.5v-333q0 -93 -41 -128.5t-149 -35.5h-6q-108 0 -149 35.5t-41 128.5v24q0 6 6 6h8q6 0 6 -6v-24q0 -84 36 -114.5t134 -30.5h6q98 0 134 30.5t36 114.5v196q-14 -42 -54 -59.5t-120 -17.5h-6q-111 0 -152.5 35.5t-41.5 128.5v50 q0 93 41.5 128.5t152.5 35.5h6zM305 294q101 0 137.5 30.5t36.5 114.5v50q0 84 -36.5 114.5t-137.5 30.5h-6q-101 0 -137.5 -30.5t-36.5 -114.5v-50q0 -84 36.5 -114.5t137.5 -30.5h6z" />
<glyph horiz-adv-x="347" d="M320 -72h-7q-5 0 -7 5l-284 762q-2 5 5 5h7q5 0 7 -5l284 -762q2 -5 -5 -5z" />
<glyph horiz-adv-x="122" d="M56 280q-6 0 -6 6v63q0 6 6 6h10q6 0 6 -6v-63q0 -6 -6 -6h-10z" />
<glyph horiz-adv-x="294" d="M106 256q-6 0 -6 6v101q0 6 6 6h82q6 0 6 -6v-101q0 -6 -6 -6h-82z" />
<glyph horiz-adv-x="202" d="M99 168q-6 0 -6 6l-2 465q0 6 6 6h8q6 0 6 -6l-2 -465q0 -6 -6 -6h-4zM96 0q-6 0 -6 6v63q0 6 6 6h10q6 0 6 -6v-63q0 -6 -6 -6h-10z" />
<glyph horiz-adv-x="202" d="M96 645h10q6 0 6 -6v-63q0 -6 -6 -6h-10q-6 0 -6 6v63q0 6 6 6zM99 477h4q6 0 6 -6l2 -465q0 -6 -6 -6h-8q-6 0 -6 6l2 465q0 6 6 6z" />
<glyph horiz-adv-x="423" d="M56 449q-6 0 -6 6v34q0 95 34.5 129.5t128.5 34.5h6q94 0 129 -33t35 -120v-14q0 -64 -18.5 -91.5t-72.5 -44.5l-43 -14q-49 -16 -63 -38.5t-14 -85.5v-38q0 -6 -6 -6h-8q-6 0 -6 6v38q0 69 18 97t73 45l44 14q47 15 61.5 37.5t14.5 80.5v14q0 80 -28.5 107t-115.5 27h-6 q-87 0 -115 -28.5t-28 -116.5v-34q0 -6 -6 -6h-8zM157 0q-6 0 -6 6v63q0 6 6 6h10q6 0 6 -6v-63q0 -6 -6 -6h-10z" />
</font>
</defs>
</svg>
