<?xml version="1.0" standalone="no"?>
<!DOCTYPE svg PUBLIC "-//W3C//DTD SVG 1.1//EN" "http://www.w3.org/Graphics/SVG/1.1/DTD/svg11.dtd" >
<svg xmlns="http://www.w3.org/2000/svg">
<metadata></metadata>
<defs>
<font id="roganbold" horiz-adv-x="536" >
<font-face units-per-em="1000" ascent="750" descent="-250" />
<missing-glyph horiz-adv-x="203" />
<glyph unicode="ff" horiz-adv-x="661" d="M652 708q10 0 10 -9v-74q0 -9 -10 -9h-53q-44 0 -59.5 -15.5t-15.5 -57.5v-36h124q10 0 10 -9v-74q0 -9 -10 -9h-124v-406q0 -9 -10 -9h-91q-9 0 -9 9v406h-214v-406q0 -9 -10 -9h-91q-9 0 -9 9v406h-74q-9 0 -9 9v44q0 9 9 11l74 13v42q0 95 40 134.5t136 39.5h62 q10 0 10 -9v-74q0 -9 -10 -9h-53q-44 0 -59.5 -15.5t-15.5 -57.5v-36h214v27q0 95 40 134.5t136 39.5h62z" />
<glyph unicode="fft" horiz-adv-x="971" d="M941 91q9 0 9 -9v-77q0 -9 -9 -9h-59q-94 0 -133.5 38t-39.5 130v251h-185v-406q0 -9 -10 -9h-91q-9 0 -9 9v406h-214v-406q0 -9 -10 -9h-91q-9 0 -9 9v406h-74q-9 0 -9 9v44q0 9 9 11l74 13v42q0 95 40 134.5t136 39.5h62q10 0 10 -9v-74q0 -9 -10 -9h-53 q-44 0 -59.5 -15.5t-15.5 -57.5v-36h214v27q0 95 40 134.5t136 39.5h62q10 0 10 -9v-74q0 -9 -10 -9h-53q-44 0 -59.5 -15.5t-15.5 -57.5v-36h185v129q0 9 10 9h91q9 0 9 -9v-129h120q9 0 9 -9v-74q0 -9 -9 -9h-120v-253q0 -40 16 -55.5t58 -15.5h48z" />
<glyph unicode="ft" horiz-adv-x="648" d="M617 91q9 0 9 -9v-77q0 -9 -9 -9h-59q-94 0 -133.5 38t-39.5 130v251h-185v-406q0 -9 -10 -9h-91q-9 0 -9 9v406h-74q-9 0 -9 9v44q0 9 9 11l74 13v42q0 95 40 134.5t136 39.5h62q10 0 10 -9v-74q0 -9 -10 -9h-53q-44 0 -59.5 -15.5t-15.5 -57.5v-36h185v129q0 9 10 9h91 q9 0 9 -9v-129h120q9 0 9 -9v-74q0 -9 -9 -9h-120v-253q0 -40 16 -55.5t58 -15.5h48z" />
<glyph unicode="&#xd;" horiz-adv-x="250" />
<glyph unicode=" "  horiz-adv-x="203" />
<glyph unicode="&#x09;" horiz-adv-x="203" />
<glyph unicode="&#xa0;" horiz-adv-x="203" />
<glyph unicode="!" horiz-adv-x="234" d="M89 189q-9 0 -9 9l-18 438q0 9 9 9h92q9 0 9 -9l-18 -438q0 -9 -9 -9h-56zM70 0q-9 0 -9 9v98q0 9 9 9h93q10 0 10 -9v-98q0 -9 -10 -9h-93z" />
<glyph unicode="&#x22;" horiz-adv-x="323" d="M73 444q-8 0 -11 8l-27 124q-2 6 -2 13v92q0 10 9 10h81q9 0 9 -10v-92q0 -7 -1 -13l-28 -124q-3 -8 -10 -8h-20zM231 444q-8 0 -11 8l-27 124q-2 6 -2 13v92q0 10 9 10h81q9 0 9 -10v-92q0 -7 -1 -13l-28 -124q-3 -8 -10 -8h-20z" />
<glyph unicode="#" horiz-adv-x="612" d="M556 381h-76l-18 -116h94q10 0 10 -9v-72q0 -10 -10 -10h-108l-26 -166q-2 -8 -10 -8h-85q-10 0 -8 10l25 164h-122l-26 -166q-2 -8 -10 -8h-85q-10 0 -8 10l25 164h-62q-10 0 -10 10v72q0 9 10 9h76l18 116h-94q-10 0 -10 9v72q0 10 10 10h108l26 165q2 8 9 8h85 q11 0 9 -10l-25 -163h122l26 165q2 8 9 8h85q11 0 9 -10l-25 -163h62q10 0 10 -10v-72q0 -9 -10 -9zM358 265l18 116h-122l-18 -116h122z" />
<glyph unicode="$" horiz-adv-x="553" d="M364 360q79 -17 111 -55.5t32 -113.5v-23q0 -81 -40.5 -123.5t-135.5 -50.5v-65q0 -9 -10 -9h-89q-10 0 -10 9v65q-95 8 -135.5 50.5t-40.5 123.5v26q0 9 10 9h91q9 0 9 -9v-26q0 -44 23 -60t95 -16h6q71 0 94 16t23 60v23q0 33 -13 48t-53 24l-138 31 q-79 18 -110.5 54.5t-31.5 107.5v21q0 81 39.5 123t131.5 51v65q0 9 10 9h89q10 0 10 -9v-65q92 -9 131.5 -51t39.5 -123v-26q0 -9 -9 -9h-91q-10 0 -10 9v26q0 44 -22.5 60t-89.5 16h-6q-68 0 -90.5 -16t-22.5 -60v-21q0 -30 12 -42.5t52 -22.5z" />
<glyph unicode="%" horiz-adv-x="853" d="M184 297q-86 0 -118.5 34.5t-32.5 121.5v44q0 87 32.5 121.5t118.5 34.5h24q85 0 119 -35t34 -121v-44q0 -86 -34 -121t-119 -35h-24zM221 0q-13 0 -7 11l327 627q3 7 11 7h80q5 0 6.5 -3.5t-0.5 -7.5l-326 -627q-4 -7 -11 -7h-80zM184 384h24q34 0 46 13.5t12 55.5v44 q0 42 -12 55.5t-46 13.5h-24q-34 0 -45.5 -13t-11.5 -56v-44q0 -43 11.5 -56t45.5 -13zM643 -8q-86 0 -118.5 34.5t-32.5 121.5v44q0 87 32.5 121.5t118.5 34.5h24q85 0 119 -35t34 -121v-44q0 -86 -34 -121t-119 -35h-24zM643 79h24q34 0 46 13.5t12 55.5v44q0 42 -12 55.5 t-46 13.5h-24q-34 0 -45.5 -13t-11.5 -56v-44q0 -43 11.5 -56t45.5 -13z" />
<glyph unicode="&#x26;" horiz-adv-x="643" d="M635 11q5 -5 3.5 -8t-8.5 -3h-103q-7 0 -11 5l-40 37q-44 -50 -186 -50h-6q-136 0 -190.5 42.5t-54.5 135.5v30q0 61 26.5 94t95.5 45q-47 48 -61.5 76.5t-14.5 66.5v9q0 81 49.5 121.5t162.5 40.5h6q114 0 162.5 -42.5t48.5 -133.5v-25q0 -10 -9 -10h-89q-9 0 -9 10v25 q0 44 -21 60.5t-83 16.5h-6q-60 0 -81.5 -14.5t-21.5 -50.5v-8q0 -22 8.5 -39.5t35.5 -42.5l204 -195v110q0 9 9 9h76q10 0 10 -9v-141q0 -38 -9 -60zM290 92q86 0 113 19l-176 166q-46 -4 -62 -21.5t-16 -55.5v-30q0 -45 26 -61.5t109 -16.5h6z" />
<glyph unicode="'" horiz-adv-x="166" d="M73 444q-8 0 -11 8l-27 124q-2 6 -2 13v92q0 10 9 10h81q9 0 9 -10v-92q0 -7 -1 -13l-28 -124q-3 -8 -10 -8h-20z" />
<glyph unicode="(" horiz-adv-x="271" d="M174 -128q-6 0 -11 6q-123 177 -123 412t123 412q5 6 11 6h82q13 0 6 -11q-119 -174 -119 -407t119 -407q7 -11 -6 -11h-82z" />
<glyph unicode=")" horiz-adv-x="271" d="M97 -128h-82q-13 0 -6 11q119 174 119 407t-119 407q-7 11 6 11h82q7 0 11 -6q123 -177 123 -412t-123 -412q-4 -6 -11 -6z" />
<glyph unicode="*" horiz-adv-x="521" d="M487 493q3 -10 -7 -12l-163 -32l114 -122q5 -6 -2 -13l-73 -55q-9 -6 -14 2l-84 147l-79 -144q-5 -9 -13 -4l-75 54q-10 7 -2 13l112 122l-160 31q-10 2 -7 11l27 90q2 10 13 5l150 -69l-20 164q-2 10 8 10h94q9 0 9 -10l-20 -166l150 71q9 4 12 -5z" />
<glyph unicode="+" horiz-adv-x="500" d="M450 302q10 0 10 -9v-81q0 -10 -10 -10h-145v-161q0 -9 -9 -9h-91q-10 0 -10 9v161h-145q-10 0 -10 10v81q0 9 10 9h145v160q0 9 10 9h91q9 0 9 -9v-160h145z" />
<glyph unicode="," horiz-adv-x="176" d="M42 -153q-9 0 -9 9v251q0 9 9 9h91q10 0 10 -9v-101q0 -7 -3 -14l-49 -137q-3 -8 -11 -8h-38z" />
<glyph unicode="-" horiz-adv-x="323" d="M31 236q-9 0 -9 9v81q0 10 9 10h261q10 0 10 -10v-81q0 -9 -10 -9h-261z" />
<glyph unicode="." horiz-adv-x="178" d="M42 0q-9 0 -9 9v98q0 9 9 9h93q10 0 10 -9v-98q0 -9 -10 -9h-93z" />
<glyph unicode="/" horiz-adv-x="405" d="M14 -72q-12 0 -7 10l281 755q3 7 11 7h91q13 0 8 -10l-282 -755q-1 -7 -10 -7h-92z" />
<glyph unicode="0" horiz-adv-x="597" d="M61 170v305q0 93 52.5 135.5t181.5 42.5h6q129 0 182 -42.5t53 -135.5v-305q0 -93 -53 -135.5t-182 -42.5h-6q-129 0 -181.5 42.5t-52.5 135.5zM171 170q0 -45 24.5 -61.5t99.5 -16.5h6q76 0 100.5 16.5t24.5 61.5v305q0 45 -24.5 61.5t-100.5 16.5h-6q-75 0 -99.5 -16.5 t-24.5 -61.5v-305z" />
<glyph unicode="1" horiz-adv-x="440" d="M400 101q9 0 9 -10v-82q0 -9 -9 -9h-354q-10 0 -10 9v82q0 10 10 10h136v437l-124 -63q-5 -3 -8.5 -0.5t-3.5 7.5v84q0 8 7 11l123 65q6 3 13 3h94q9 0 9 -9v-535h108z" />
<glyph unicode="2" horiz-adv-x="563" d="M245 239q-48 -11 -63.5 -27.5t-15.5 -53.5v-58h336q9 0 9 -9v-82q0 -9 -9 -9h-436q-10 0 -10 9v156q0 75 34 114t115 57l122 27q46 9 60.5 25.5t14.5 54.5v37q0 41 -23 57t-89 16h-6q-66 0 -88.5 -16t-22.5 -57v-35q0 -10 -10 -10h-91q-9 0 -9 10v35q0 86 52 129.5 t169 43.5h6q117 0 169 -43.5t52 -129.5v-37q0 -79 -31.5 -119.5t-109.5 -57.5z" />
<glyph unicode="3" horiz-adv-x="554" d="M407 327q55 -11 76.5 -40.5t21.5 -87.5v-29q0 -93 -51 -135.5t-176 -42.5h-6q-126 0 -177 42.5t-51 135.5v27q0 10 10 10h91q9 0 9 -10v-27q0 -45 23.5 -61.5t94.5 -16.5h6q70 0 93.5 16.5t23.5 61.5v29q0 45 -23.5 61.5t-93.5 16.5h-73q-9 0 -9 9v81q0 9 9 9h70 q67 0 89.5 16.5t22.5 61.5v21q0 45 -22 61.5t-87 16.5h-6q-66 0 -88 -16.5t-22 -61.5v-30q0 -10 -10 -10h-91q-9 0 -9 10v30q0 93 50 135.5t170 42.5h6q119 0 169 -43t50 -135v-21q0 -57 -19.5 -86t-70.5 -41z" />
<glyph unicode="4" horiz-adv-x="535" d="M501 234q9 0 9 -10v-76q0 -9 -9 -9h-67v-130q0 -9 -9 -9h-90q-9 0 -9 9v130h-292q-9 0 -9 9v79q0 6 4 13l292 399q6 6 12 6h92q9 0 9 -9v-402h67zM144 234h182v249z" />
<glyph unicode="5" horiz-adv-x="560" d="M302 403q110 0 158.5 -43t48.5 -135v-55q0 -93 -51.5 -135.5t-172.5 -42.5h-6q-121 0 -172 42.5t-51 135.5v27q0 10 10 10h91q9 0 9 -10v-27q0 -45 23 -61.5t90 -16.5h6q68 0 91 16.5t23 61.5v55q0 45 -22.5 61.5t-87.5 16.5h-154q-10 0 -16 6l-41 31q-6 4 -6 12v284 q0 9 9 9h403q9 0 9 -9v-82q0 -9 -9 -9h-304v-142h122z" />
<glyph unicode="6" horiz-adv-x="585" d="M313 399q118 0 167 -42.5t49 -135.5v-51q0 -93 -52 -135.5t-179 -42.5h-6q-126 0 -178.5 42.5t-52.5 135.5v305q0 93 52 135.5t176 42.5h6q125 0 176.5 -42.5t51.5 -135.5v-24q0 -9 -9 -9h-91q-10 0 -10 9v24q0 45 -23.5 61.5t-94.5 16.5h-6q-71 0 -94.5 -16.5 t-23.5 -61.5v-140q14 36 45.5 50t90.5 14h6zM419 170v51q0 45 -24 61.5t-97 16.5h-6q-73 0 -97 -16.5t-24 -61.5v-51q0 -45 24 -61.5t97 -16.5h6q73 0 97 16.5t24 61.5z" />
<glyph unicode="7" horiz-adv-x="443" d="M417 645q10 0 10 -9v-86q0 -6 -3 -12l-223 -531q-2 -7 -10 -7h-94q-11 0 -8 11l226 534h-279q-9 0 -9 9v82q0 9 9 9h381z" />
<glyph unicode="8" horiz-adv-x="594" d="M436 329q58 -13 80 -43t22 -85v-31q0 -93 -53 -135.5t-185 -42.5h-6q-131 0 -184.5 42.5t-53.5 135.5v31q0 55 22 85t80 43q-51 13 -71.5 43t-20.5 83v22q0 91 52 133.5t176 42.5h6q125 0 176.5 -42.5t51.5 -133.5v-22q0 -53 -20.5 -83t-71.5 -43zM176 477v-22 q0 -44 23.5 -60.5t94.5 -16.5h6q71 0 94.5 16.5t23.5 60.5v22q0 44 -23.5 60t-94.5 16h-6q-71 0 -94.5 -16t-23.5 -60zM428 170v31q0 45 -24.5 61t-103.5 16h-6q-79 0 -103.5 -16t-24.5 -61v-31q0 -45 25 -61.5t103 -16.5h6q78 0 103 16.5t25 61.5z" />
<glyph unicode="9" horiz-adv-x="583" d="M292 653q126 0 178 -42.5t52 -135.5v-305q0 -93 -51.5 -135.5t-175.5 -42.5h-6q-124 0 -175.5 43t-51.5 135v20q0 10 10 10h91q9 0 9 -10v-20q0 -45 23.5 -61.5t93.5 -16.5h6q70 0 93.5 16.5t23.5 61.5v133q-14 -35 -45 -48.5t-90 -13.5h-6q-116 0 -165.5 43t-49.5 135 v56q0 93 52 135.5t178 42.5h6zM292 342q73 0 96.5 16t23.5 61v56q0 45 -24 61.5t-96 16.5h-6q-72 0 -96 -16.5t-24 -61.5v-56q0 -45 23.5 -61t96.5 -16h6z" />
<glyph unicode=":" horiz-adv-x="198" d="M52 391q-9 0 -9 9v98q0 9 9 9h93q10 0 10 -9v-98q0 -9 -10 -9h-93zM52 0q-9 0 -9 9v98q0 9 9 9h93q10 0 10 -9v-98q0 -9 -10 -9h-93z" />
<glyph unicode=";" horiz-adv-x="198" d="M52 391q-9 0 -9 9v98q0 9 9 9h93q10 0 10 -9v-98q0 -9 -10 -9h-93zM52 -153q-9 0 -9 9v251q0 9 9 9h91q10 0 10 -9v-101q0 -7 -3 -14l-49 -137q-3 -8 -11 -8h-38z" />
<glyph unicode="&#x3c;" horiz-adv-x="500" d="M450 377q0 -9 -9 -12l-262 -112l262 -112q9 -3 9 -11v-86q0 -12 -11 -7l-380 162q-9 3 -9 11v87q0 8 9 11l380 162q4 2 7.5 0t3.5 -7v-86z" />
<glyph unicode="=" horiz-adv-x="500" d="M50 310q-10 0 -10 10v81q0 10 10 10h400q10 0 10 -10v-81q0 -10 -10 -10h-400zM50 107q-10 0 -10 10v81q0 9 10 9h400q10 0 10 -9v-81q0 -10 -10 -10h-400z" />
<glyph unicode="&#x3e;" horiz-adv-x="500" d="M441 308q9 -3 9 -11v-87q0 -8 -9 -11l-380 -162q-11 -5 -11 7v86q0 8 9 11l262 112l-262 112q-9 3 -9 12v86q0 5 3.5 7t7.5 0z" />
<glyph unicode="?" horiz-adv-x="457" d="M36 449q-10 0 -10 9v20q0 89 48.5 132t156.5 43h6q107 0 155.5 -41.5t48.5 -123.5v-13q0 -69 -24.5 -104t-89.5 -56l-45 -14q-32 -10 -40.5 -24t-8.5 -58v-21q0 -9 -9 -9h-90q-9 0 -9 9v21q0 76 23.5 112t85.5 56l44 14q36 11 46 24.5t10 49.5v13q0 35 -21 50t-76 15h-6 q-57 0 -77.5 -16.5t-20.5 -58.5v-20q0 -9 -9 -9h-88zM132 0q-9 0 -9 9v98q0 9 9 9h93q10 0 10 -9v-98q0 -9 -10 -9h-93z" />
<glyph unicode="@" horiz-adv-x="791" d="M419 610q183 0 252 -60t69 -214v-161q0 -69 -30 -101t-99 -32h-12q-77 0 -105 41q-55 -41 -134 -41q-67 0 -101.5 29.5t-34.5 84.5v15q0 54 32.5 80t103.5 26h112v48q0 30 -14 41.5t-56 11.5h-5q-42 0 -56 -11.5t-14 -41.5v-3q0 -9 -9 -9h-70q-9 0 -9 9v3q0 68 37 100.5 t121 32.5h5q84 0 121 -32.5t37 -100.5v-147q0 -38 7 -49t32 -11h12q25 0 32.5 11.5t7.5 48.5v158q0 59 -9 93.5t-35.5 57.5t-70 31.5t-117.5 8.5h-47q-74 0 -117.5 -8.5t-70 -31.5t-35.5 -57.5t-9 -93.5v-173q0 -76 18.5 -114.5t67.5 -56t146 -17.5h166q9 0 9 -10v-64 q0 -9 -9 -9h-166q-183 0 -252 60.5t-69 210.5v173q0 154 69 214t252 60h47zM375 116q51 0 99 21q-2 24 -2 38v37h-116q-45 0 -45 -41v-14q0 -41 64 -41z" />
<glyph unicode="A" horiz-adv-x="562" d="M550 10q3 -10 -7 -10h-96q-8 0 -11 7l-44 131h-222l-44 -131q-3 -7 -12 -7h-95q-11 0 -8 10l217 628q3 7 11 7h84q8 0 11 -7zM203 237h155l-34 102q-31 95 -43 151q-14 -65 -44 -151z" />
<glyph unicode="B" horiz-adv-x="562" d="M427 328q55 -9 77 -39.5t22 -89.5v-31q0 -86 -43.5 -127t-140.5 -41h-266q-10 0 -10 9v627q0 9 10 9h242q97 0 140.5 -41t43.5 -127v-24q0 -52 -17 -82t-58 -43zM295 546h-120v-171h120q62 0 80.5 14.5t18.5 58.5v24q0 45 -18.5 59.5t-80.5 14.5zM416 173v30 q0 45 -18.5 59t-80.5 14h-142v-177h142q62 0 80.5 14.5t18.5 59.5z" />
<glyph unicode="C" horiz-adv-x="564" d="M289 -8q-128 0 -180.5 42.5t-52.5 135.5v305q0 93 52.5 135.5t180.5 42.5h6q128 0 180 -42.5t52 -135.5v-34q0 -9 -9 -9h-91q-10 0 -10 9v34q0 45 -24 61.5t-98 16.5h-6q-74 0 -98.5 -16.5t-24.5 -61.5v-305q0 -45 24.5 -61.5t98.5 -16.5h6q74 0 98 16.5t24 61.5v34 q0 9 10 9h91q9 0 9 -9v-34q0 -93 -52 -135.5t-180 -42.5h-6z" />
<glyph unicode="D" horiz-adv-x="584" d="M299 645q125 0 177 -42.5t52 -133.5v-293q0 -91 -52 -133.5t-177 -42.5h-223q-10 0 -10 9v627q0 9 10 9h223zM418 176v293q0 44 -25.5 60t-105.5 16h-111v-445h111q80 0 105.5 16t25.5 60z" />
<glyph unicode="E" horiz-adv-x="505" d="M460 545h-284v-169h254q10 0 10 -9v-81q0 -10 -10 -10h-254v-176h284q10 0 10 -9v-82q0 -9 -10 -9h-384q-10 0 -10 9v627q0 9 10 9h384q10 0 10 -9v-82q0 -9 -10 -9z" />
<glyph unicode="F" horiz-adv-x="472" d="M441 645q9 0 9 -9v-82q0 -10 -9 -10h-265v-177h245q9 0 9 -9v-82q0 -10 -9 -10h-245v-257q0 -9 -9 -9h-91q-10 0 -10 9v627q0 9 10 9h365z" />
<glyph unicode="G" horiz-adv-x="585" d="M433 452q-9 0 -9 9v14q0 45 -25 61.5t-101 16.5h-6q-76 0 -101 -16.5t-25 -61.5v-305q0 -45 25 -61.5t101 -16.5h6q76 0 101 16.5t25 61.5v78h-115q-9 0 -9 10v78q0 10 9 10h216q9 0 9 -10v-166q0 -93 -53 -135.5t-183 -42.5h-6q-130 0 -183 42.5t-53 135.5v305 q0 93 53 135.5t183 42.5h6q130 0 183 -42.5t53 -135.5v-14q0 -9 -9 -9h-92z" />
<glyph unicode="H" horiz-adv-x="604" d="M529 645q9 0 9 -9v-627q0 -9 -9 -9h-92q-9 0 -9 9v265h-252v-265q0 -9 -9 -9h-91q-10 0 -10 9v627q0 9 10 9h91q9 0 9 -9v-262h252v262q0 9 9 9h92z" />
<glyph unicode="I" horiz-adv-x="242" d="M76 0q-10 0 -10 9v627q0 9 10 9h91q9 0 9 -9v-627q0 -9 -9 -9h-91z" />
<glyph unicode="J" horiz-adv-x="504" d="M227 -8q-111 0 -160 43t-49 135v18q0 10 9 10h92q9 0 9 -10v-18q0 -44 20.5 -61t78.5 -17h6q58 0 79 17t21 61v466q0 9 9 9h91q10 0 10 -9v-466q0 -92 -49 -135t-161 -43h-6z" />
<glyph unicode="K" horiz-adv-x="562" d="M548 12q3 -5 0.5 -8.5t-8.5 -3.5h-110q-8 0 -11 7l-148 281l-95 -111v-168q0 -9 -9 -9h-91q-10 0 -10 9v627q0 9 10 9h91q9 0 9 -9v-307l236 310q5 6 12 6h109q6 0 8 -3.5t-2 -7.5l-194 -253z" />
<glyph unicode="L" horiz-adv-x="459" d="M428 100q10 0 10 -9v-82q0 -9 -10 -9h-352q-10 0 -10 9v627q0 9 10 9h91q9 0 9 -9v-536h252z" />
<glyph unicode="M" horiz-adv-x="735" d="M659 645q10 0 10 -9v-627q0 -9 -10 -9h-88q-9 0 -9 9v257q0 96 6 197q-28 -90 -77 -197l-73 -158q-4 -6 -11 -6h-80q-8 0 -10 6l-73 158q-49 107 -77 197q6 -101 6 -197v-257q0 -9 -9 -9h-88q-10 0 -10 9v627q0 9 10 9h95q7 0 12 -8l142 -309q28 -62 43 -106 q14 44 42 106l142 309q5 8 11 8h96z" />
<glyph unicode="N" horiz-adv-x="633" d="M557 645q10 0 10 -9v-627q0 -9 -10 -9h-99q-6 0 -11 6l-179 294q-63 101 -97 180q5 -75 5 -180v-291q0 -9 -9 -9h-91q-10 0 -10 9v627q0 9 10 9h99q7 0 11 -6l179 -294q66 -109 97 -182q-5 75 -5 182v291q0 9 9 9h91z" />
<glyph unicode="O" horiz-adv-x="598" d="M56 170v305q0 93 53.5 135.5t186.5 42.5h6q133 0 186 -42.5t53 -135.5v-305q0 -93 -53 -135.5t-186 -42.5h-6q-133 0 -186.5 42.5t-53.5 135.5zM166 170q0 -45 25.5 -61.5t104.5 -16.5h6q79 0 104 16.5t25 61.5v305q0 45 -25 61.5t-104 16.5h-6q-79 0 -104.5 -16.5 t-25.5 -61.5v-305z" />
<glyph unicode="P" d="M327 645q93 0 137.5 -43t44.5 -131v-84q0 -88 -44.5 -131t-137.5 -43h-151v-204q0 -9 -9 -9h-91q-10 0 -10 9v627q0 9 10 9h251zM399 387v84q0 45 -18 59.5t-80 14.5h-125v-232h125q62 0 80 14.5t18 59.5z" />
<glyph unicode="Q" horiz-adv-x="598" d="M302 653q133 0 186 -42.5t53 -135.5v-305q0 -83 -41.5 -125.5t-142.5 -50.5l94 -123q7 -7 -2 -14l-58 -45q-9 -6 -14 2l-131 180q-104 7 -147 49.5t-43 126.5v305q0 93 53.5 135.5t186.5 42.5h6zM431 170v305q0 45 -25 61.5t-104 16.5h-6q-79 0 -104.5 -16.5t-25.5 -61.5 v-305q0 -45 25.5 -61.5t104.5 -16.5h6q79 0 104 16.5t25 61.5z" />
<glyph unicode="R" horiz-adv-x="556" d="M514 12q3 -5 1 -8.5t-7 -3.5h-105q-8 0 -12 7l-111 219h-104v-217q0 -9 -9 -9h-91q-10 0 -10 9v627q0 9 10 9h250q95 0 139 -42t44 -132v-71q0 -141 -114 -167zM176 545v-219h124q62 0 80.5 14.5t18.5 59.5v71q0 45 -18.5 59.5t-80.5 14.5h-124z" />
<glyph unicode="S" horiz-adv-x="525" d="M32 168v26q0 9 10 9h91q9 0 9 -9v-26q0 -44 23 -60t95 -16h6q71 0 94 16t23 60v23q0 33 -13 48t-53 24l-138 31q-79 18 -110.5 54.5t-31.5 107.5v21q0 91 51 133.5t172 42.5h6q121 0 171.5 -42.5t50.5 -133.5v-26q0 -9 -9 -9h-91q-10 0 -10 9v26q0 44 -22.5 60t-89.5 16 h-6q-68 0 -90.5 -16t-22.5 -60v-21q0 -30 12 -42.5t52 -22.5l139 -31q79 -17 111 -55.5t32 -113.5v-23q0 -91 -51.5 -133.5t-175.5 -42.5h-6q-125 0 -176.5 42.5t-51.5 133.5z" />
<glyph unicode="T" horiz-adv-x="467" d="M447 645q10 0 10 -9v-82q0 -9 -10 -9h-158v-536q0 -9 -10 -9h-91q-9 0 -9 9v536h-159q-10 0 -10 9v82q0 9 10 9h427z" />
<glyph unicode="U" horiz-adv-x="593" d="M61 170v466q0 9 10 9h91q9 0 9 -9v-466q0 -45 24 -61.5t98 -16.5h6q74 0 98.5 16.5t24.5 61.5v466q0 9 9 9h91q10 0 10 -9v-466q0 -93 -52.5 -135.5t-180.5 -42.5h-6q-127 0 -179.5 42.5t-52.5 135.5z" />
<glyph unicode="V" horiz-adv-x="543" d="M523 645q11 0 8 -11l-199 -625q-4 -9 -12 -9h-98q-7 0 -11 9l-200 625q-3 11 8 11h97q7 0 10 -7l98 -317q32 -108 48 -192q14 81 46 190l98 319q3 7 11 7h96z" />
<glyph unicode="W" horiz-adv-x="849" d="M825 645q11 0 8 -11l-174 -626q-1 -8 -10 -8h-93q-8 0 -11 8l-82 299q-26 98 -38 178q-13 -80 -39 -178l-82 -299q-1 -8 -10 -8h-93q-8 0 -11 8l-174 626q-3 11 8 11h98q8 0 10 -8l81 -299q24 -90 35 -161q12 74 36 162l82 298q2 8 11 8h96q8 0 10 -8l82 -298 q24 -82 37 -161q11 70 35 160l80 299q2 8 11 8h97z" />
<glyph unicode="X" d="M517 11q7 -11 -6 -11h-105q-6 0 -11 6l-127 214l-127 -214q-5 -6 -11 -6h-105q-13 0 -7 11l189 315l-184 308q-7 11 6 11h105q6 0 11 -6l123 -207l123 207q4 6 11 6h105q13 0 6 -11l-185 -308z" />
<glyph unicode="Y" horiz-adv-x="501" d="M496 645q5 0 6.5 -3.5t-0.5 -7.5l-196 -396v-229q0 -9 -10 -9h-91q-9 0 -9 9v227l-197 398q-5 11 6 11h100q7 0 10 -7l73 -151q41 -84 63 -157q21 72 62 157l73 151q3 7 11 7h99z" />
<glyph unicode="Z" horiz-adv-x="455" d="M424 100q9 0 9 -9v-82q0 -9 -9 -9h-393q-9 0 -9 9v66q0 7 3 13l206 356q41 69 65 101h-254q-9 0 -9 9v82q0 9 9 9h370q10 0 10 -9v-66q0 -7 -3 -13l-208 -358q-38 -66 -64 -99h277z" />
<glyph unicode="[" horiz-adv-x="295" d="M274 619h-104v-658h104q9 0 9 -9v-71q0 -9 -9 -9h-198q-10 0 -10 9v818q0 9 10 9h198q9 0 9 -9v-71q0 -9 -9 -9z" />
<glyph unicode="\" horiz-adv-x="405" d="M391 -72h-92q-9 0 -10 7l-282 755q-5 10 8 10h91q8 0 11 -7l281 -755q5 -10 -7 -10z" />
<glyph unicode="]" horiz-adv-x="295" d="M219 708q10 0 10 -9v-818q0 -9 -10 -9h-198q-9 0 -9 9v71q0 9 9 9h104v658h-104q-9 0 -9 9v71q0 9 9 9h198z" />
<glyph unicode="^" horiz-adv-x="458" d="M433 442q9 -12 -6 -12h-94q-9 0 -13 6l-91 125l-91 -125q-5 -6 -13 -6h-95q-13 0 -6 11l147 198q4 6 13 6h90q8 0 12 -6z" />
<glyph unicode="_" horiz-adv-x="379" d="M9 -127q-9 0 -9 9v76q0 9 9 9h361q9 0 9 -9v-76q0 -9 -9 -9h-361z" />
<glyph unicode="`" horiz-adv-x="535" d="M250 568q-7 0 -12 5l-119 107q-5 4 -3.5 7.5t8.5 3.5h95q7 0 11 -5l99 -106q10 -12 -5 -12h-74z" />
<glyph unicode="a" horiz-adv-x="517" d="M262 515q105 0 152 -41.5t47 -126.5v-338q0 -9 -9 -9h-56q-7 0 -12 7l-18 29q-67 -44 -156 -44q-172 0 -172 146v17q0 69 40.5 101.5t131.5 32.5h142v58q0 38 -19 53.5t-71 15.5h-6q-51 0 -70 -15.5t-19 -52.5v-2q0 -9 -9 -9h-90q-10 0 -10 9v2q0 84 47 125.5t151 41.5h6 zM147 138q0 -29 17.5 -41.5t62.5 -12.5q65 0 125 27v96h-147q-31 0 -44.5 -12.5t-13.5 -39.5v-17z" />
<glyph unicode="b" d="M323 515q87 0 124.5 -40.5t37.5 -134.5v-173q0 -94 -37.5 -134.5t-124.5 -40.5q-90 0 -166 44l-20 -30q-4 -6 -11 -6h-55q-10 0 -10 9v682q0 9 10 9h91q9 0 9 -9v-213q70 37 152 37zM375 327q0 54 -14.5 71t-60.5 17q-66 0 -129 -27v-270q61 -26 129 -26q46 0 60.5 17 t14.5 71v147z" />
<glyph unicode="c" horiz-adv-x="506" d="M51 165v177q0 88 48.5 130.5t159.5 42.5h6q111 0 159.5 -42.5t48.5 -130.5v-11q0 -10 -10 -10h-91q-9 0 -9 10v11q0 40 -20.5 56.5t-77.5 16.5h-6q-57 0 -77.5 -16.5t-20.5 -56.5v-177q0 -41 20 -57t78 -16h6q58 0 78 16t20 57v11q0 10 9 10h91q10 0 10 -10v-11 q0 -89 -48 -131t-160 -42h-6q-112 0 -160 42t-48 131z" />
<glyph unicode="d" d="M466 700q9 0 9 -9v-682q0 -9 -9 -9h-56q-7 0 -11 6l-20 30q-76 -44 -166 -44q-87 0 -124.5 40.5t-37.5 134.5v173q0 94 37.5 134.5t124.5 40.5q82 0 152 -37v213q0 9 9 9h92zM161 180q0 -54 14.5 -71t60.5 -17q68 0 129 26v270q-63 27 -129 27q-46 0 -60.5 -17t-14.5 -71 v-147z" />
<glyph unicode="e" horiz-adv-x="525" d="M469 228h-309v-64q0 -42 21 -58.5t81 -16.5h6q61 0 81.5 16.5t20.5 58.5v1q0 9 10 9h89q10 0 10 -9v-1q0 -88 -48.5 -130t-162.5 -42h-6q-114 0 -162.5 42t-48.5 130v179q0 88 49 130t162 42h6q113 0 162 -42t49 -130v-105q0 -10 -10 -10zM262 418q-60 0 -81 -16.5 t-21 -58.5v-35h210v35q0 42 -20.5 58.5t-81.5 16.5h-6z" />
<glyph unicode="f" horiz-adv-x="338" d="M328 708q10 0 10 -9v-74q0 -9 -10 -9h-53q-44 0 -59.5 -15.5t-15.5 -57.5v-36h124q10 0 10 -9v-74q0 -9 -10 -9h-124v-406q0 -9 -10 -9h-91q-9 0 -9 9v406h-74q-9 0 -9 9v44q0 9 9 11l74 13v42q0 95 40 134.5t136 39.5h62z" />
<glyph unicode="g" horiz-adv-x="511" d="M497 466q0 -9 -10 -10l-68 -12q36 -21 36 -81v-73q0 -77 -47.5 -114.5t-153.5 -37.5h-6q-47 0 -85 8q-19 -10 -19 -41v-6q0 -18 11 -25.5t45 -7.5h160q71 0 104 -31t33 -97v-28q0 -70 -51 -101.5t-181 -31.5h-6q-130 0 -181 31.5t-51 101.5v17q0 65 46 87q-28 28 -28 73 v6q0 62 49 84q-46 36 -46 113v73q0 77 47.5 114.5t152.5 37.5h239q10 0 10 -9v-40zM351 290v73q0 33 -19.5 45.5t-77.5 12.5h-6q-57 0 -76.5 -12.5t-19.5 -45.5v-73q0 -33 19.5 -45.5t76.5 -12.5h6q58 0 77.5 12.5t19.5 45.5zM349 -23h-159q-30 0 -49 4q-10 -14 -10 -44v-27 q0 -24 23.5 -32t104.5 -8h6q81 0 104.5 8t23.5 32v28q0 22 -9 30.5t-35 8.5z" />
<glyph unicode="h" horiz-adv-x="539" d="M321 515q87 0 124.5 -40.5t37.5 -134.5v-331q0 -9 -9 -9h-92q-9 0 -9 9v318q0 54 -14.5 71t-60.5 17q-63 0 -127 -26v-380q0 -9 -9 -9h-91q-10 0 -10 9v682q0 9 10 9h91q9 0 9 -9v-214q65 38 150 38z" />
<glyph unicode="i" horiz-adv-x="232" d="M71 573q-10 0 -10 9v100q0 9 10 9h91q9 0 9 -9v-100q0 -9 -9 -9h-91zM71 0q-10 0 -10 9v489q0 9 10 9h91q9 0 9 -9v-489q0 -9 -9 -9h-91z" />
<glyph unicode="j" horiz-adv-x="232" d="M71 573q-10 0 -10 9v100q0 9 10 9h91q9 0 9 -9v-100q0 -9 -9 -9h-91zM-44 -208q-9 0 -9 9v78q0 10 9 10h36q40 0 54.5 16t14.5 60v533q0 9 10 9h91q9 0 9 -9v-541q0 -89 -39 -127t-135 -38h-41z" />
<glyph unicode="k" horiz-adv-x="491" d="M481 11q3 -5 0.5 -8t-7.5 -3h-104q-8 0 -11 6l-118 220l-70 -74v-143q0 -9 -9 -9h-91q-10 0 -10 9v682q0 9 10 9h91q9 0 9 -9v-400l176 211q4 5 11 5h110q6 0 7.5 -3.5t-2.5 -7.5l-158 -186z" />
<glyph unicode="l" horiz-adv-x="232" d="M71 0q-10 0 -10 9v682q0 9 10 9h91q9 0 9 -9v-682q0 -9 -9 -9h-91z" />
<glyph unicode="m" horiz-adv-x="822" d="M612 515q81 0 117.5 -40.5t36.5 -134.5v-331q0 -9 -10 -9h-91q-9 0 -9 9v318q0 54 -13.5 71t-54.5 17q-62 0 -121 -26q3 -22 3 -49v-331q0 -9 -10 -9h-91q-9 0 -9 9v318q0 54 -13.5 71t-54.5 17q-62 0 -121 -26v-380q0 -9 -9 -9h-91q-10 0 -10 9v489q0 9 10 9h55 q8 0 11 -6l19 -30q75 44 160 44q91 0 125 -50q80 50 171 50z" />
<glyph unicode="n" horiz-adv-x="539" d="M321 515q87 0 124.5 -40.5t37.5 -134.5v-331q0 -9 -9 -9h-92q-9 0 -9 9v318q0 54 -14.5 71t-60.5 17q-63 0 -127 -26v-380q0 -9 -9 -9h-91q-10 0 -10 9v489q0 9 10 9h55q7 0 11 -6l19 -30q75 44 165 44z" />
<glyph unicode="o" horiz-adv-x="534" d="M51 165v177q0 89 49 131t164 42h6q115 0 164 -42t49 -131v-177q0 -89 -49 -131t-164 -42h-6q-115 0 -164 42t-49 131zM161 165q0 -41 21 -57t82 -16h6q61 0 82 16t21 57v177q0 41 -21 57t-82 16h-6q-61 0 -82 -16t-21 -57v-177z" />
<glyph unicode="p" d="M323 515q87 0 124.5 -40.5t37.5 -134.5v-173q0 -94 -37.5 -134.5t-124.5 -40.5q-82 0 -152 37v-220q0 -9 -9 -9h-91q-10 0 -10 9v689q0 9 10 9h55q8 0 12 -7l19 -29q76 44 166 44zM375 327q0 54 -14.5 71t-60.5 17q-66 0 -129 -27v-270q61 -26 129 -26q46 0 60.5 17 t14.5 71v147z" />
<glyph unicode="q" d="M466 507q9 0 9 -9v-689q0 -9 -9 -9h-92q-9 0 -9 9v220q-70 -37 -152 -37q-87 0 -124.5 40.5t-37.5 134.5v173q0 94 37.5 134.5t124.5 40.5q90 0 166 -44l19 29q5 7 12 7h56zM236 92q68 0 129 26v270q-63 27 -129 27q-46 0 -60.5 -17t-14.5 -71v-147q0 -54 14.5 -71 t60.5 -17z" />
<glyph unicode="r" horiz-adv-x="330" d="M310 515q9 0 9 -9v-82q0 -9 -9 -9h-21q-72 0 -118 -30v-376q0 -9 -9 -9h-91q-10 0 -10 9v489q0 9 10 9h55q7 0 12 -7l21 -34q56 49 130 49h21z" />
<glyph unicode="s" horiz-adv-x="481" d="M34 135v29q0 10 9 10h90q9 0 9 -10v-29q0 -46 97 -46h6q54 0 74 11.5t20 34.5v13q0 17 -9.5 26t-40.5 17l-133 37q-62 17 -88.5 48.5t-26.5 83.5v13q0 70 46 106t150 36h6q197 0 197 -142v-30q0 -9 -9 -9h-89q-10 0 -10 9v30q0 45 -89 45h-6q-49 0 -68 -11t-19 -34v-13 q0 -16 9.5 -25t41.5 -18l133 -36q62 -17 87.5 -47.5t25.5 -85.5v-13q0 -143 -202 -143h-6q-205 0 -205 143z" />
<glyph unicode="t" horiz-adv-x="347" d="M316 91q9 0 9 -9v-77q0 -9 -9 -9h-59q-94 0 -133.5 38t-39.5 130v251h-69q-10 0 -10 9v44q0 10 9 11l70 13v144q0 9 10 9h91q9 0 9 -9v-129h120q9 0 9 -9v-74q0 -9 -9 -9h-120v-253q0 -40 16 -55.5t58 -15.5h48z" />
<glyph unicode="u" horiz-adv-x="535" d="M465 507q9 0 9 -9v-489q0 -9 -9 -9h-56q-7 0 -12 7l-19 29q-75 -44 -164 -44q-85 0 -121.5 40t-36.5 135v331q0 9 10 9h91q9 0 9 -9v-318q0 -55 13 -71.5t58 -16.5q65 0 127 25v381q0 9 9 9h92z" />
<glyph unicode="v" horiz-adv-x="472" d="M460 507q11 0 8 -10l-172 -490q-3 -7 -11 -7h-98q-8 0 -11 7l-171 490q-3 10 7 10h97q9 0 11 -7l66 -201q36 -119 50 -190q16 81 51 190l65 201q4 7 11 7h97z" />
<glyph unicode="w" horiz-adv-x="747" d="M729 507q11 0 8 -10l-139 -489q-2 -8 -10 -8h-111q-8 0 -10 8l-51 176q-28 94 -43 199q-15 -105 -43 -199l-50 -176q-2 -8 -10 -8h-111q-8 0 -11 8l-138 489q-3 10 8 10h96q8 0 11 -8l52 -201q26 -100 40 -190q14 89 42 190l58 201q1 8 10 8h92q8 0 11 -8l57 -201 q27 -93 43 -189q13 88 39 189l53 201q2 8 11 8h96z" />
<glyph unicode="x" horiz-adv-x="465" d="M454 13q4 -5 2 -9t-8 -4h-106q-6 0 -11 6l-99 161l-99 -161q-5 -6 -11 -6h-106q-13 0 -5 13l158 247l-149 234q-4 5 -2 9t7 4h106q7 0 11 -6l91 -152l90 152q5 6 11 6h106q12 0 5 -13l-149 -233z" />
<glyph unicode="y" horiz-adv-x="464" d="M456 507q11 0 8 -10l-243 -690q-3 -8 -11 -8h-94q-12 0 -7 11l71 184l-175 503q-3 10 7 10h97q8 0 11 -8l66 -202q32 -97 49 -188q17 91 49 188l66 202q3 8 11 8h95z" />
<glyph unicode="z" horiz-adv-x="410" d="M378 99q9 0 9 -10v-80q0 -9 -9 -9h-346q-9 0 -9 9v67q0 7 4 12l184 270q22 32 39 50h-208q-9 0 -9 10v80q0 9 9 9h326q9 0 9 -9v-69q0 -6 -3 -12l-184 -270q-22 -32 -38 -48h226z" />
<glyph unicode="{" horiz-adv-x="323" d="M213 419q0 -63 -21 -92t-76 -38q55 -9 76 -37.5t21 -92.5v-134q0 -33 15.5 -48.5t51.5 -15.5h22q10 0 10 -9v-71q0 -9 -10 -9h-29q-85 0 -124 36t-39 112v143q0 43 -18 62t-59 19h-2q-9 0 -9 9v72q0 9 9 9h2q41 0 59 19t18 62v145q0 76 39 112t124 36h29q10 0 10 -9v-71 q0 -9 -10 -9h-22q-36 0 -51.5 -15.5t-15.5 -48.5v-136z" />
<glyph unicode="|" horiz-adv-x="234" d="M76 -80q-10 0 -10 9v787q0 9 10 9h82q10 0 10 -9v-787q0 -9 -10 -9h-82z" />
<glyph unicode="}" horiz-adv-x="323" d="M292 334q9 0 9 -9v-72q0 -9 -9 -9h-2q-41 0 -59 -19t-18 -62v-143q0 -76 -39 -112t-124 -36h-29q-10 0 -10 9v71q0 9 10 9h22q36 0 51.5 15.5t15.5 48.5v134q0 64 21 92.5t76 37.5q-55 9 -76 38t-21 92v136q0 33 -15.5 48.5t-51.5 15.5h-22q-10 0 -10 9v71q0 9 10 9h29 q85 0 124 -36t39 -112v-145q0 -43 18 -62t59 -19h2z" />
<glyph unicode="~" horiz-adv-x="500" d="M348 167q-39 0 -104 38t-103 38q-40 0 -89 -30q-12 -7 -12 6v76q0 7 7 11q58 34 104 34q40 0 105.5 -38t103.5 -38q42 0 88 30q12 7 12 -6v-75q0 -8 -11 -14q-58 -32 -101 -32z" />
<glyph unicode="&#xa1;" horiz-adv-x="234" d="M70 507h93q10 0 10 -9v-98q0 -9 -10 -9h-93q-9 0 -9 9v98q0 9 9 9zM89 318h56q9 0 9 -9l18 -438q0 -9 -9 -9h-92q-9 0 -9 9l18 438q0 9 9 9z" />
<glyph unicode="&#xa2;" horiz-adv-x="558" d="M394 394q-9 0 -9 10v11q0 40 -20.5 56.5t-77.5 16.5h-6q-57 0 -77.5 -16.5t-20.5 -56.5v-177q0 -41 20 -57t78 -16h6q58 0 78 16t20 57v11q0 10 9 10h91q10 0 10 -10v-11q0 -78 -36.5 -119.5t-120.5 -50.5v-89q0 -9 -9 -9h-90q-9 0 -9 9v89q-84 9 -120.5 50.5 t-36.5 119.5v177q0 78 36.5 119.5t120.5 50.5v81q0 9 9 9h90q9 0 9 -9v-81q84 -9 120.5 -50.5t36.5 -119.5v-11q0 -10 -10 -10h-91z" />
<glyph unicode="&#xa3;" horiz-adv-x="555" d="M502 195q10 0 10 -10v-7q0 -92 -49.5 -135t-159.5 -43h-261q-9 0 -9 9v82q0 9 9 9h39v169h-39q-9 0 -9 10v75q0 9 9 9h39v117q0 88 48.5 130.5t158.5 42.5h6q110 0 158 -42.5t48 -132.5v-33q0 -10 -9 -10h-91q-10 0 -10 10v33q0 42 -20.5 58.5t-75.5 16.5h-6 q-56 0 -76.5 -16.5t-20.5 -57.5v-116h163q10 0 10 -9v-75q0 -10 -10 -10h-163v-169h109q59 0 80.5 16.5t21.5 61.5v7q0 10 9 10h91z" />
<glyph unicode="&#xa4;" horiz-adv-x="598" d="M464 158l83 -126q3 -4 1 -8t-7 -4h-100q-7 0 -11 6l-62 94q-22 -3 -50 -3h-38q-27 0 -50 3l-62 -94q-4 -6 -11 -6h-101q-12 0 -6 12l84 127q-37 36 -37 116v96q0 80 38 117l-85 125q-2 5 0 8.5t7 3.5h100q7 0 11 -6l62 -93q23 3 50 3h38q28 0 50 -3l62 93q4 6 11 6h100 q5 0 7 -3.5t-1 -8.5l-84 -124q38 -37 38 -118v-96q0 -80 -37 -117zM280 216h38q46 0 61.5 12t15.5 47v96q0 35 -15.5 47t-61.5 12h-38q-46 0 -61.5 -12t-15.5 -47v-96q0 -35 15.5 -47t61.5 -12z" />
<glyph unicode="&#xa5;" horiz-adv-x="539" d="M504 645q10 0 7 -12l-144 -307h85q9 0 9 -10v-68q0 -10 -9 -10h-364q-10 0 -10 10v68q0 10 10 10h84l-144 309q-5 10 7 10h98q7 0 12 -8l124 -277l125 277q3 8 11 8h99zM452 178q9 0 9 -10v-68q0 -9 -9 -9h-127v-82q0 -9 -10 -9h-91q-9 0 -9 9v82h-127q-10 0 -10 9v68 q0 10 10 10h364z" />
<glyph unicode="&#xa6;" horiz-adv-x="234" d="M76 395q-10 0 -10 9v312q0 9 10 9h82q10 0 10 -9v-312q0 -9 -10 -9h-82zM76 -80q-10 0 -10 9v292q0 9 10 9h82q10 0 10 -9v-292q0 -9 -10 -9h-82z" />
<glyph unicode="&#xa7;" horiz-adv-x="519" d="M369 298q-10 0 -10 9v19q0 17 -10.5 26t-42.5 13l-119 14q-71 9 -102.5 40.5t-31.5 87.5v6q0 140 203 140h6q204 0 204 -142v-10q0 -9 -10 -9h-87q-10 0 -10 9v10q0 26 -19 36t-78 10h-6q-59 0 -77.5 -9.5t-18.5 -34.5v-6q0 -21 10.5 -28.5t49.5 -12.5l119 -15 q72 -9 99.5 -36.5t27.5 -88.5v-19q0 -9 -10 -9h-87zM256 -8q-203 0 -203 142v10q0 9 9 9h88q9 0 9 -9v-10q0 -26 19 -36t78 -10h6q59 0 78 9.5t19 34.5v6q0 21 -10.5 28.5t-49.5 12.5l-119 15q-72 9 -99.5 36.5t-27.5 88.5v18q0 10 9 10h88q9 0 9 -10v-18q0 -17 11 -26 t42 -13l119 -14q72 -9 103.5 -40.5t31.5 -87.5v-6q0 -140 -204 -140h-6z" />
<glyph unicode="&#xa8;" horiz-adv-x="534" d="M149 573q-10 0 -10 9v100q0 9 10 9h77q9 0 9 -9v-100q0 -9 -9 -9h-77zM309 573q-10 0 -10 9v100q0 9 10 9h77q9 0 9 -9v-100q0 -9 -9 -9h-77z" />
<glyph unicode="&#xa9;" horiz-adv-x="704" d="M349 -8q-170 0 -231.5 42.5t-61.5 142.5v291q0 100 61.5 142.5t231.5 42.5h6q170 0 231.5 -42.5t61.5 -142.5v-291q0 -100 -61.5 -142.5t-231.5 -42.5h-6zM349 71h6q89 0 135.5 13t60 34t13.5 59v292q0 38 -13.5 58.5t-60 33.5t-135.5 13h-6q-89 0 -135.5 -13 t-59.5 -33.5t-13 -58.5v-292q0 -38 13 -59t59.5 -34t135.5 -13zM352 139q-79 0 -113 29t-34 92v126q0 63 34 92t113 29h4q80 0 114 -29t34 -92v-12q0 -9 -9 -9h-61q-9 0 -9 9v12q0 28 -14.5 38.5t-54.5 10.5h-4q-39 0 -53 -10.5t-14 -38.5v-126q0 -28 14 -38.5t53 -10.5h4 q40 0 54.5 10.5t14.5 38.5v9q0 10 9 10h61q9 0 9 -10v-9q0 -63 -34 -92t-114 -29h-4z" />
<glyph unicode="&#xab;" horiz-adv-x="509" d="M122 251l132 -167q6 -6 -1 -13l-43 -44q-7 -9 -13 0l-178 218q-7 6 0 13l178 218q5 8 13 0l43 -45q6 -6 1 -13zM335 251l132 -167q6 -6 -1 -13l-43 -44q-7 -9 -13 0l-178 218q-7 6 0 13l178 218q5 8 13 0l43 -45q6 -6 1 -13z" />
<glyph unicode="&#xac;" horiz-adv-x="500" d="M450 342q10 0 10 -9v-203q0 -10 -10 -10h-91q-9 0 -9 10v112h-300q-10 0 -10 10v81q0 9 10 9h400z" />
<glyph unicode="&#xad;" horiz-adv-x="323" d="M31 236q-9 0 -9 9v81q0 10 9 10h261q10 0 10 -10v-81q0 -9 -10 -9h-261z" />
<glyph unicode="&#xae;" horiz-adv-x="704" d="M355 653q170 0 231.5 -42.5t61.5 -142.5v-291q0 -100 -61.5 -142.5t-231.5 -42.5h-6q-170 0 -231.5 42.5t-61.5 142.5v291q0 100 61.5 142.5t231.5 42.5h6zM564 177v292q0 38 -13.5 58.5t-60 33.5t-135.5 13h-6q-89 0 -135.5 -13t-59.5 -33.5t-13 -58.5v-292 q0 -38 13 -59t59.5 -34t135.5 -13h6q89 0 135.5 13t60 34t13.5 59zM370 496q68 0 97.5 -23.5t29.5 -74.5v-35q0 -74 -67 -91l64 -113q7 -11 -7 -11h-64q-7 0 -11 6l-59 112h-56v-109q0 -9 -9 -9h-60q-9 0 -9 9v330q0 9 9 9h142zM297 426v-91h79q42 0 42 28v35q0 28 -42 28 h-79z" />
<glyph unicode="&#xaf;" horiz-adv-x="534" d="M157 576q-10 0 -10 9v60q0 9 10 9h220q10 0 10 -9v-60q0 -9 -10 -9h-220z" />
<glyph unicode="&#xb0;" horiz-adv-x="355" d="M165 364q-69 0 -100.5 29t-31.5 95v41q0 66 31.5 95t100.5 29h24q69 0 101 -29t32 -95v-41q0 -66 -31.5 -95t-101.5 -29h-24zM165 444h24q27 0 37.5 9t10.5 35v41q0 25 -10.5 34.5t-37.5 9.5h-24q-26 0 -36.5 -9.5t-10.5 -34.5v-41q0 -26 10.5 -35t36.5 -9z" />
<glyph unicode="&#xb1;" horiz-adv-x="500" d="M450 424q10 0 10 -9v-82q0 -9 -10 -9h-145v-126q0 -9 -9 -9h-91q-10 0 -10 9v126h-145q-10 0 -10 9v82q0 9 10 9h145v125q0 10 10 10h91q9 0 9 -10v-125h145zM450 100q10 0 10 -9v-82q0 -9 -10 -9h-400q-10 0 -10 9v82q0 9 10 9h400z" />
<glyph unicode="&#xb4;" horiz-adv-x="534" d="M217 568q-15 0 -5 12l99 106q4 5 12 5h96q6 0 7.5 -3.5t-3.5 -7.5l-120 -107q-5 -5 -11 -5h-75z" />
<glyph unicode="&#xb6;" horiz-adv-x="607" d="M570 645q9 0 9 -9v-69q0 -9 -9 -9h-50v-549q0 -9 -10 -9h-84q-9 0 -9 9v549h-95v-549q0 -9 -9 -9h-85q-9 0 -9 9v266h-38q-78 0 -113 34.5t-35 109.5v82q0 75 35 109.5t113 34.5h389zM219 362v196h-38q-31 0 -42.5 -12t-11.5 -45v-82q0 -33 11.5 -45t42.5 -12h38z" />
<glyph unicode="&#xb7;" horiz-adv-x="178" d="M42 250q-9 0 -9 9v98q0 9 9 9h93q10 0 10 -9v-98q0 -9 -10 -9h-93z" />
<glyph unicode="&#xb8;" horiz-adv-x="535" d="M289 -52q55 0 77 -17t22 -58v-16q0 -42 -22 -59.5t-77 -17.5h-92q-9 0 -9 9v45q0 9 9 9h89q17 0 22.5 3.5t5.5 13.5v13q0 11 -5.5 14.5t-22.5 3.5h-88q-11 0 -9 10l16 125h70l-7 -78h21z" />
<glyph unicode="&#xbb;" horiz-adv-x="509" d="M277 258q7 -7 0 -13l-178 -218q-6 -9 -13 0l-43 44q-7 7 -1 13l132 167l-132 167q-5 7 1 13l43 45q8 8 13 0zM490 258q7 -7 0 -13l-178 -218q-6 -9 -13 0l-43 44q-7 7 -1 13l132 167l-132 167q-5 7 1 13l43 45q8 8 13 0z" />
<glyph unicode="&#xbc;" horiz-adv-x="655" d="M261 332q0 -9 -10 -9h-192q-9 0 -9 9v53q0 10 9 10h61v174l-55 -28q-11 -5 -11 7v55q0 8 7 11l53 28q6 3 13 3h63q9 0 9 -9v-241h52q10 0 10 -10v-53zM560 645q12 0 6 -11l-361 -627q-4 -7 -11 -7h-70q-12 0 -7 11l362 627q5 7 11 7h70zM596 124q9 0 9 -9v-46q0 -9 -9 -9 h-26v-51q0 -9 -9 -9h-55q-9 0 -9 9v51h-140q-9 0 -9 9v53q0 7 3 11l116 183q4 6 11 6h83q9 0 9 -9v-189h26zM425 124h72v117z" />
<glyph unicode="&#xbd;" horiz-adv-x="688" d="M261 332q0 -9 -10 -9h-192q-9 0 -9 9v53q0 10 9 10h61v174l-55 -28q-11 -5 -11 7v55q0 8 7 11l53 28q6 3 13 3h63q9 0 9 -9v-241h52q10 0 10 -10v-53zM560 645q12 0 6 -11l-361 -627q-4 -7 -11 -7h-70q-12 0 -7 11l362 627q5 7 11 7h70zM502 112q-22 -5 -28 -10t-6 -20 v-10h161q9 0 9 -9v-54q0 -9 -9 -9h-231q-9 0 -9 9v70q0 78 82 95l61 13q17 4 22.5 10t5.5 23v13q0 14 -8 18.5t-35 4.5h-3q-27 0 -34.5 -4.5t-7.5 -18.5v-10q0 -9 -10 -9h-60q-9 0 -9 9v10q0 94 121 94h3q121 0 121 -94v-12q0 -42 -17 -64.5t-56 -30.5z" />
<glyph unicode="&#xbe;" horiz-adv-x="676" d="M177 324h-3q-66 0 -95 22.5t-29 71.5v8q0 9 9 9h59q10 0 10 -9v-8q0 -14 8.5 -19.5t37.5 -5.5h3q29 0 38 5.5t9 19.5v16q0 13 -9 18t-38 5h-36q-9 0 -9 9v45q0 9 9 9h36q26 0 33.5 5t7.5 18v16q0 14 -7.5 19.5t-33.5 5.5h-3q-26 0 -33.5 -5.5t-7.5 -19.5v-8q0 -9 -9 -9 h-59q-9 0 -9 9v8q0 49 27.5 71.5t90.5 22.5h3q63 0 91 -22.5t28 -71.5v-12q0 -26 -9 -39.5t-32 -18.5q27 -5 37 -19t10 -41v-11q0 -49 -29 -71.5t-96 -22.5zM581 645q12 0 6 -11l-361 -627q-4 -7 -11 -7h-70q-12 0 -7 11l362 627q5 7 11 7h70zM617 124q9 0 9 -9v-46 q0 -9 -9 -9h-26v-51q0 -9 -9 -9h-55q-9 0 -9 9v51h-140q-9 0 -9 9v53q0 7 3 11l116 183q4 6 11 6h83q9 0 9 -9v-189h26zM446 124h72v117z" />
<glyph unicode="&#xbf;" horiz-adv-x="447" d="M325 507q9 0 9 -9v-98q0 -9 -9 -9h-93q-10 0 -10 9v98q0 9 10 9h93zM421 58q10 0 10 -9v-20q0 -89 -48.5 -132t-156.5 -43h-6q-107 0 -155.5 41.5t-48.5 123.5v13q0 69 24.5 104t89.5 56l45 14q32 10 40.5 24t8.5 58v21q0 9 9 9h90q9 0 9 -9v-21q0 -76 -23.5 -112 t-85.5 -56l-44 -14q-36 -11 -46 -24.5t-10 -49.5v-13q0 -35 21 -50t76 -15h6q57 0 77.5 16.5t20.5 58.5v20q0 9 9 9h88z" />
<glyph unicode="&#xc0;" horiz-adv-x="562" d="M144 818q-5 4 -3.5 7.5t8.5 3.5h95q7 0 11 -5l99 -106q10 -12 -5 -12h-74q-7 0 -12 5zM550 10q3 -10 -7 -10h-96q-8 0 -11 7l-44 131h-222l-44 -131q-3 -7 -12 -7h-95q-11 0 -8 10l217 628q3 7 11 7h84q8 0 11 -7zM203 237h155l-34 102q-31 95 -43 151q-14 -65 -44 -151z " />
<glyph unicode="&#xc1;" horiz-adv-x="562" d="M217 706q-15 0 -5 12l99 106q4 5 12 5h96q6 0 7.5 -3.5t-3.5 -7.5l-120 -107q-5 -5 -11 -5h-75zM550 10q3 -10 -7 -10h-96q-8 0 -11 7l-44 131h-222l-44 -131q-3 -7 -12 -7h-95q-11 0 -8 10l217 628q3 7 11 7h84q8 0 11 -7zM203 237h155l-34 102q-31 95 -43 151 q-14 -65 -44 -151z" />
<glyph unicode="&#xc2;" horiz-adv-x="562" d="M137 706q-6 0 -7.5 4t2.5 8l103 106q5 5 12 5h69q7 0 12 -5l103 -106q4 -4 2.5 -8t-7.5 -4h-80q-6 0 -11 6l-53 65l-54 -65q-4 -6 -12 -6h-79zM550 10q3 -10 -7 -10h-96q-8 0 -11 7l-44 131h-222l-44 -131q-3 -7 -12 -7h-95q-11 0 -8 10l217 628q3 7 11 7h84q8 0 11 -7z M203 237h155l-34 102q-31 95 -43 151q-14 -65 -44 -151z" />
<glyph unicode="&#xc3;" horiz-adv-x="562" d="M145 711q-9 0 -9 10v34q0 38 20.5 59t56.5 21q30 0 56 -17l70 -47q11 -7 16 -7q8 0 8 11v39q0 10 9 10h47q10 0 10 -10v-34q0 -38 -20.5 -59t-56.5 -21q-30 0 -56 17l-70 47q-10 7 -17 7t-7 -11v-39q0 -10 -9 -10h-48zM550 10q3 -10 -7 -10h-96q-8 0 -11 7l-44 131h-222 l-44 -131q-3 -7 -12 -7h-95q-11 0 -8 10l217 628q3 7 11 7h84q8 0 11 -7zM203 237h155l-34 102q-31 95 -43 151q-14 -65 -44 -151z" />
<glyph unicode="&#xc4;" horiz-adv-x="562" d="M164 711q-10 0 -10 9v100q0 9 10 9h77q9 0 9 -9v-100q0 -9 -9 -9h-77zM324 711q-10 0 -10 9v100q0 9 10 9h77q9 0 9 -9v-100q0 -9 -9 -9h-77zM550 10q3 -10 -7 -10h-96q-8 0 -11 7l-44 131h-222l-44 -131q-3 -7 -12 -7h-95q-11 0 -8 10l217 628q3 7 11 7h84q8 0 11 -7z M203 237h155l-34 102q-31 95 -43 151q-14 -65 -44 -151z" />
<glyph unicode="&#xc5;" horiz-adv-x="562" d="M281 696q-58 0 -80 16.5t-22 55.5v18q0 39 22 56t80 17h2q58 0 80.5 -17t22.5 -56v-18q0 -39 -22.5 -55.5t-80.5 -16.5h-2zM236 786v-18q0 -13 8 -17.5t37 -4.5h2q29 0 37.5 4.5t8.5 17.5v18q0 13 -8 17.5t-38 4.5h-2q-29 0 -37 -4.5t-8 -17.5zM550 10q3 -10 -7 -10h-96 q-8 0 -11 7l-44 131h-222l-44 -131q-3 -7 -12 -7h-95q-11 0 -8 10l217 628q3 7 11 7h84q8 0 11 -7zM203 237h155l-34 102q-31 95 -43 151q-14 -65 -44 -151z" />
<glyph unicode="&#xc6;" horiz-adv-x="843" d="M799 545h-284v-169h254q10 0 10 -9v-81q0 -10 -10 -10h-254v-176h284q10 0 10 -9v-82q0 -9 -10 -9h-384q-10 0 -10 9v129h-212l-64 -131q-3 -7 -11 -7h-99q-13 0 -7 11l308 627q3 7 11 7h468q10 0 10 -9v-82q0 -9 -10 -9zM241 235h164v311h-12z" />
<glyph unicode="&#xc7;" horiz-adv-x="564" d="M427 432q-10 0 -10 9v34q0 45 -24 61.5t-98 16.5h-6q-74 0 -98.5 -16.5t-24.5 -61.5v-305q0 -45 24.5 -61.5t98.5 -16.5h6q74 0 98 16.5t24 61.5v34q0 9 10 9h91q9 0 9 -9v-34q0 -93 -52 -135.5t-180 -42.5l-4 -44h21q55 0 77 -17t22 -58v-16q0 -42 -22 -59.5t-77 -17.5 h-92q-9 0 -9 9v45q0 9 9 9h89q17 0 22.5 3.5t5.5 13.5v13q0 11 -5.5 14.5t-22.5 3.5h-88q-11 0 -9 10l12 94q-91 10 -129.5 52.5t-38.5 122.5v305q0 93 52.5 135.5t180.5 42.5h6q128 0 180 -42.5t52 -135.5v-34q0 -9 -9 -9h-91z" />
<glyph unicode="&#xc8;" horiz-adv-x="505" d="M125 818q-5 4 -3.5 7.5t8.5 3.5h95q7 0 11 -5l99 -106q10 -12 -5 -12h-74q-7 0 -12 5zM460 545h-284v-169h254q10 0 10 -9v-81q0 -10 -10 -10h-254v-176h284q10 0 10 -9v-82q0 -9 -10 -9h-384q-10 0 -10 9v627q0 9 10 9h384q10 0 10 -9v-82q0 -9 -10 -9z" />
<glyph unicode="&#xc9;" horiz-adv-x="505" d="M198 706q-15 0 -5 12l99 106q4 5 12 5h96q6 0 7.5 -3.5t-3.5 -7.5l-120 -107q-5 -5 -11 -5h-75zM460 545h-284v-169h254q10 0 10 -9v-81q0 -10 -10 -10h-254v-176h284q10 0 10 -9v-82q0 -9 -10 -9h-384q-10 0 -10 9v627q0 9 10 9h384q10 0 10 -9v-82q0 -9 -10 -9z" />
<glyph unicode="&#xca;" horiz-adv-x="505" d="M118 706q-6 0 -7.5 4t2.5 8l103 106q5 5 12 5h69q7 0 12 -5l103 -106q4 -4 2.5 -8t-7.5 -4h-80q-7 0 -11 6l-53 65l-54 -65q-5 -6 -12 -6h-79zM460 545h-284v-169h254q10 0 10 -9v-81q0 -10 -10 -10h-254v-176h284q10 0 10 -9v-82q0 -9 -10 -9h-384q-10 0 -10 9v627 q0 9 10 9h384q10 0 10 -9v-82q0 -9 -10 -9z" />
<glyph unicode="&#xcb;" horiz-adv-x="505" d="M145 711q-10 0 -10 9v100q0 9 10 9h77q9 0 9 -9v-100q0 -9 -9 -9h-77zM305 711q-10 0 -10 9v100q0 9 10 9h77q9 0 9 -9v-100q0 -9 -9 -9h-77zM460 545h-284v-169h254q10 0 10 -9v-81q0 -10 -10 -10h-254v-176h284q10 0 10 -9v-82q0 -9 -10 -9h-384q-10 0 -10 9v627 q0 9 10 9h384q10 0 10 -9v-82q0 -9 -10 -9z" />
<glyph unicode="&#xcc;" horiz-adv-x="242" d="M114 706q-7 0 -12 5l-119 107q-5 4 -3.5 7.5t8.5 3.5h95q7 0 11 -5l99 -106q10 -12 -5 -12h-74zM76 0q-10 0 -10 9v627q0 9 10 9h91q9 0 9 -9v-627q0 -9 -9 -9h-91z" />
<glyph unicode="&#xcd;" horiz-adv-x="242" d="M56 706q-15 0 -5 12l99 106q4 5 12 5h96q6 0 7.5 -3.5t-3.5 -7.5l-120 -107q-5 -5 -11 -5h-75zM76 0q-10 0 -10 9v627q0 9 10 9h91q9 0 9 -9v-627q0 -9 -9 -9h-91z" />
<glyph unicode="&#xce;" horiz-adv-x="242" d="M270 718q4 -4 2.5 -8t-7.5 -4h-80q-7 0 -11 6l-53 65l-54 -65q-5 -6 -12 -6h-79q-6 0 -7.5 4t2.5 8l103 106q5 5 12 5h69q7 0 12 -5zM167 645q9 0 9 -9v-627q0 -9 -9 -9h-91q-10 0 -10 9v627q0 9 10 9h91z" />
<glyph unicode="&#xcf;" horiz-adv-x="242" d="M3 711q-10 0 -10 9v100q0 9 10 9h77q9 0 9 -9v-100q0 -9 -9 -9h-77zM163 711q-10 0 -10 9v100q0 9 10 9h77q9 0 9 -9v-100q0 -9 -9 -9h-77zM76 0q-10 0 -10 9v627q0 9 10 9h91q9 0 9 -9v-627q0 -9 -9 -9h-91z" />
<glyph unicode="&#xd0;" horiz-adv-x="584" d="M299 645q125 0 177 -42.5t52 -133.5v-293q0 -91 -52 -133.5t-177 -42.5h-223q-10 0 -10 9v279h-38q-9 0 -9 9v51q0 10 9 10h38v278q0 9 10 9h223zM418 176v293q0 44 -25.5 60t-105.5 16h-111v-187h145q9 0 9 -10v-51q0 -9 -9 -9h-145v-188h111q80 0 105.5 16t25.5 60z " />
<glyph unicode="&#xd1;" horiz-adv-x="633" d="M180 711q-9 0 -9 10v34q0 38 20.5 59t56.5 21q30 0 56 -17l70 -47q11 -7 16 -7q8 0 8 11v39q0 10 9 10h47q10 0 10 -10v-34q0 -38 -20.5 -59t-56.5 -21q-31 0 -56 17l-70 47q-10 7 -17 7t-7 -11v-39q0 -10 -9 -10h-48zM557 645q10 0 10 -9v-627q0 -9 -10 -9h-99 q-6 0 -11 6l-179 294q-63 101 -97 180q5 -75 5 -180v-291q0 -9 -9 -9h-91q-10 0 -10 9v627q0 9 10 9h99q7 0 11 -6l179 -294q66 -109 97 -182q-5 75 -5 182v291q0 9 9 9h91z" />
<glyph unicode="&#xd2;" horiz-adv-x="598" d="M292 706q-7 0 -12 5l-119 107q-5 4 -3.5 7.5t8.5 3.5h95q7 0 11 -5l99 -106q10 -12 -5 -12h-74zM56 170v305q0 93 53.5 135.5t186.5 42.5h6q133 0 186 -42.5t53 -135.5v-305q0 -93 -53 -135.5t-186 -42.5h-6q-133 0 -186.5 42.5t-53.5 135.5zM166 170q0 -45 25.5 -61.5 t104.5 -16.5h6q79 0 104 16.5t25 61.5v305q0 45 -25 61.5t-104 16.5h-6q-79 0 -104.5 -16.5t-25.5 -61.5v-305z" />
<glyph unicode="&#xd3;" horiz-adv-x="598" d="M234 706q-15 0 -5 12l99 106q4 5 12 5h96q6 0 7.5 -3.5t-3.5 -7.5l-120 -107q-5 -5 -11 -5h-75zM56 170v305q0 93 53.5 135.5t186.5 42.5h6q133 0 186 -42.5t53 -135.5v-305q0 -93 -53 -135.5t-186 -42.5h-6q-133 0 -186.5 42.5t-53.5 135.5zM166 170q0 -45 25.5 -61.5 t104.5 -16.5h6q79 0 104 16.5t25 61.5v305q0 45 -25 61.5t-104 16.5h-6q-79 0 -104.5 -16.5t-25.5 -61.5v-305z" />
<glyph unicode="&#xd4;" horiz-adv-x="598" d="M154 706q-6 0 -7.5 4t2.5 8l103 106q5 5 12 5h69q7 0 12 -5l103 -106q4 -4 2.5 -8t-7.5 -4h-80q-7 0 -11 6l-53 65l-54 -65q-5 -6 -12 -6h-79zM302 653q133 0 186 -42.5t53 -135.5v-305q0 -93 -53 -135.5t-186 -42.5h-6q-133 0 -186.5 42.5t-53.5 135.5v305 q0 93 53.5 135.5t186.5 42.5h6zM431 170v305q0 45 -25 61.5t-104 16.5h-6q-79 0 -104.5 -16.5t-25.5 -61.5v-305q0 -45 25.5 -61.5t104.5 -16.5h6q79 0 104 16.5t25 61.5z" />
<glyph unicode="&#xd5;" horiz-adv-x="598" d="M369 700q-31 0 -56 17l-70 47q-10 7 -17 7t-7 -11v-39q0 -10 -9 -10h-48q-9 0 -9 10v34q0 38 20.5 59t56.5 21q30 0 56 -17l70 -47q11 -7 16 -7q8 0 8 11v39q0 10 9 10h47q10 0 10 -10v-34q0 -38 -20.5 -59t-56.5 -21zM56 170v305q0 93 53.5 135.5t186.5 42.5h6 q133 0 186 -42.5t53 -135.5v-305q0 -93 -53 -135.5t-186 -42.5h-6q-133 0 -186.5 42.5t-53.5 135.5zM166 170q0 -45 25.5 -61.5t104.5 -16.5h6q79 0 104 16.5t25 61.5v305q0 45 -25 61.5t-104 16.5h-6q-79 0 -104.5 -16.5t-25.5 -61.5v-305z" />
<glyph unicode="&#xd6;" horiz-adv-x="598" d="M181 711q-10 0 -10 9v100q0 9 10 9h77q9 0 9 -9v-100q0 -9 -9 -9h-77zM341 711q-10 0 -10 9v100q0 9 10 9h77q9 0 9 -9v-100q0 -9 -9 -9h-77zM56 170v305q0 93 53.5 135.5t186.5 42.5h6q133 0 186 -42.5t53 -135.5v-305q0 -93 -53 -135.5t-186 -42.5h-6 q-133 0 -186.5 42.5t-53.5 135.5zM166 170q0 -45 25.5 -61.5t104.5 -16.5h6q79 0 104 16.5t25 61.5v305q0 45 -25 61.5t-104 16.5h-6q-79 0 -104.5 -16.5t-25.5 -61.5v-305z" />
<glyph unicode="&#xd7;" horiz-adv-x="500" d="M438 374q7 -7 0 -13l-113 -113l110 -110q7 -7 0 -13l-57 -58q-7 -6 -13 0l-110 110l-114 -114q-7 -5 -14 0l-64 65q-6 6 0 13l114 114l-110 110q-6 6 0 13l58 57q6 7 13 0l109 -109l113 113q7 6 13 0z" />
<glyph unicode="&#xd8;" horiz-adv-x="598" d="M477 618q64 -40 64 -143v-305q0 -93 -53 -135.5t-186 -42.5h-6q-76 0 -124 13l-27 -54q-4 -7 -11 -7h-44q-5 0 -6.5 3t0.5 8l36 72q-64 42 -64 143v305q0 93 53.5 135.5t186.5 42.5h6q75 0 123 -13l27 55q3 7 11 7h43q12 0 7 -11zM166 170q0 -26 6 -39l206 416 q-27 6 -76 6h-6q-79 0 -104.5 -16.5t-25.5 -61.5v-305zM431 170v305q0 27 -6 39l-207 -416q28 -6 78 -6h6q79 0 104 16.5t25 61.5z" />
<glyph unicode="&#xd9;" horiz-adv-x="593" d="M289 706q-7 0 -12 5l-119 107q-5 4 -3.5 7.5t8.5 3.5h95q7 0 11 -5l99 -106q10 -12 -5 -12h-74zM61 170v466q0 9 10 9h91q9 0 9 -9v-466q0 -45 24 -61.5t98 -16.5h6q74 0 98.5 16.5t24.5 61.5v466q0 9 9 9h91q10 0 10 -9v-466q0 -93 -52.5 -135.5t-180.5 -42.5h-6 q-127 0 -179.5 42.5t-52.5 135.5z" />
<glyph unicode="&#xda;" horiz-adv-x="593" d="M231 706q-15 0 -5 12l99 106q4 5 12 5h96q6 0 7.5 -3.5t-3.5 -7.5l-120 -107q-5 -5 -11 -5h-75zM61 170v466q0 9 10 9h91q9 0 9 -9v-466q0 -45 24 -61.5t98 -16.5h6q74 0 98.5 16.5t24.5 61.5v466q0 9 9 9h91q10 0 10 -9v-466q0 -93 -52.5 -135.5t-180.5 -42.5h-6 q-127 0 -179.5 42.5t-52.5 135.5z" />
<glyph unicode="&#xdb;" horiz-adv-x="593" d="M151 706q-6 0 -7.5 4t2.5 8l103 106q5 5 12 5h69q7 0 12 -5l103 -106q4 -4 2.5 -8t-7.5 -4h-80q-6 0 -11 6l-53 65l-54 -65q-4 -6 -12 -6h-79zM522 645q10 0 10 -9v-466q0 -93 -52.5 -135.5t-180.5 -42.5h-6q-127 0 -179.5 42.5t-52.5 135.5v466q0 9 10 9h91q9 0 9 -9 v-466q0 -45 24 -61.5t98 -16.5h6q74 0 98.5 16.5t24.5 61.5v466q0 9 9 9h91z" />
<glyph unicode="&#xdc;" horiz-adv-x="593" d="M178 711q-10 0 -10 9v100q0 9 10 9h77q9 0 9 -9v-100q0 -9 -9 -9h-77zM338 711q-10 0 -10 9v100q0 9 10 9h77q9 0 9 -9v-100q0 -9 -9 -9h-77zM61 170v466q0 9 10 9h91q9 0 9 -9v-466q0 -45 24 -61.5t98 -16.5h6q74 0 98.5 16.5t24.5 61.5v466q0 9 9 9h91q10 0 10 -9v-466 q0 -93 -52.5 -135.5t-180.5 -42.5h-6q-127 0 -179.5 42.5t-52.5 135.5z" />
<glyph unicode="&#xdd;" horiz-adv-x="501" d="M186 706q-15 0 -5 12l99 106q4 5 12 5h96q6 0 7.5 -3.5t-3.5 -7.5l-120 -107q-5 -5 -11 -5h-75zM496 645q5 0 6.5 -3.5t-0.5 -7.5l-196 -396v-229q0 -9 -10 -9h-91q-9 0 -9 9v227l-197 398q-5 11 6 11h100q7 0 10 -7l73 -151q41 -84 63 -157q21 72 62 157l73 151 q3 7 11 7h99z" />
<glyph unicode="&#xde;" d="M326 547q94 0 138.5 -43t44.5 -131v-83q0 -88 -44.5 -131.5t-138.5 -43.5h-150v-106q0 -9 -9 -9h-91q-10 0 -10 9v627q0 9 10 9h91q9 0 9 -9v-89h150zM399 290v83q0 45 -18.5 59.5t-80.5 14.5h-124v-231h124q62 0 80.5 14.5t18.5 59.5z" />
<glyph unicode="&#xdf;" horiz-adv-x="574" d="M383 -8q-84 0 -126.5 37t-42.5 105v28q0 9 9 9h84q10 0 10 -9v-28q0 -23 15 -34t51 -11h6q36 0 51 10t15 35v19q0 19 -10.5 28.5t-44.5 22.5l-82 31q-52 19 -73.5 46t-21.5 74v8q0 42 17.5 66.5t60.5 44.5l65 28q38 17 38 47v11q0 25 -23.5 37t-80.5 12h-6 q-72 0 -99 -20.5t-27 -63.5v-516q0 -9 -9 -9h-88q-10 0 -10 9v516q0 92 54.5 137.5t178.5 45.5h6q209 0 209 -148v-11q0 -45 -21 -74t-73 -52l-52 -23q-36 -16 -36 -37v-8q0 -12 7.5 -19.5t28.5 -15.5l82 -31q65 -24 90 -54t25 -82v-19q0 -68 -43 -105t-128 -37h-6z" />
<glyph unicode="&#xe0;" horiz-adv-x="517" d="M124 680q-5 4 -3.5 7.5t8.5 3.5h95q7 0 11 -5l99 -106q10 -12 -5 -12h-74q-7 0 -12 5zM262 515q105 0 152 -41.5t47 -126.5v-338q0 -9 -9 -9h-56q-7 0 -12 7l-18 29q-67 -44 -156 -44q-172 0 -172 146v17q0 69 40.5 101.5t131.5 32.5h142v58q0 38 -19 53.5t-71 15.5h-6 q-51 0 -70 -15.5t-19 -52.5v-2q0 -9 -9 -9h-90q-10 0 -10 9v2q0 84 47 125.5t151 41.5h6zM147 138q0 -29 17.5 -41.5t62.5 -12.5q65 0 125 27v96h-147q-31 0 -44.5 -12.5t-13.5 -39.5v-17z" />
<glyph unicode="&#xe1;" horiz-adv-x="517" d="M197 568q-15 0 -5 12l99 106q4 5 12 5h96q6 0 7.5 -3.5t-3.5 -7.5l-120 -107q-5 -5 -11 -5h-75zM262 515q105 0 152 -41.5t47 -126.5v-338q0 -9 -9 -9h-56q-7 0 -12 7l-18 29q-67 -44 -156 -44q-172 0 -172 146v17q0 69 40.5 101.5t131.5 32.5h142v58q0 38 -19 53.5 t-71 15.5h-6q-51 0 -70 -15.5t-19 -52.5v-2q0 -9 -9 -9h-90q-10 0 -10 9v2q0 84 47 125.5t151 41.5h6zM147 138q0 -29 17.5 -41.5t62.5 -12.5q65 0 125 27v96h-147q-31 0 -44.5 -12.5t-13.5 -39.5v-17z" />
<glyph unicode="&#xe2;" horiz-adv-x="517" d="M117 568q-6 0 -7.5 4t2.5 8l103 106q5 5 12 5h69q7 0 12 -5l103 -106q4 -4 2.5 -8t-7.5 -4h-80q-6 0 -11 6l-53 65l-54 -65q-4 -6 -12 -6h-79zM262 515q105 0 152 -41.5t47 -126.5v-338q0 -9 -9 -9h-56q-7 0 -12 7l-18 29q-67 -44 -156 -44q-172 0 -172 146v17 q0 69 40.5 101.5t131.5 32.5h142v58q0 38 -19 53.5t-71 15.5h-6q-51 0 -70 -15.5t-19 -52.5v-2q0 -9 -9 -9h-90q-10 0 -10 9v2q0 84 47 125.5t151 41.5h6zM147 138q0 -29 17.5 -41.5t62.5 -12.5q65 0 125 27v96h-147q-31 0 -44.5 -12.5t-13.5 -39.5v-17z" />
<glyph unicode="&#xe3;" horiz-adv-x="517" d="M125 573q-9 0 -9 10v34q0 38 20.5 59t56.5 21q31 0 56 -17l70 -47q11 -7 16 -7q8 0 8 11v39q0 10 9 10h47q10 0 10 -10v-34q0 -38 -20.5 -59t-56.5 -21q-30 0 -56 17l-70 47q-10 7 -17 7t-7 -11v-39q0 -10 -9 -10h-48zM262 515q105 0 152 -41.5t47 -126.5v-338 q0 -9 -9 -9h-56q-7 0 -12 7l-18 29q-67 -44 -156 -44q-172 0 -172 146v17q0 69 40.5 101.5t131.5 32.5h142v58q0 38 -19 53.5t-71 15.5h-6q-51 0 -70 -15.5t-19 -52.5v-2q0 -9 -9 -9h-90q-10 0 -10 9v2q0 84 47 125.5t151 41.5h6zM147 138q0 -29 17.5 -41.5t62.5 -12.5 q65 0 125 27v96h-147q-31 0 -44.5 -12.5t-13.5 -39.5v-17z" />
<glyph unicode="&#xe4;" horiz-adv-x="517" d="M144 573q-10 0 -10 9v100q0 9 10 9h77q9 0 9 -9v-100q0 -9 -9 -9h-77zM304 573q-10 0 -10 9v100q0 9 10 9h77q9 0 9 -9v-100q0 -9 -9 -9h-77zM262 515q105 0 152 -41.5t47 -126.5v-338q0 -9 -9 -9h-56q-7 0 -12 7l-18 29q-67 -44 -156 -44q-172 0 -172 146v17 q0 69 40.5 101.5t131.5 32.5h142v58q0 38 -19 53.5t-71 15.5h-6q-51 0 -70 -15.5t-19 -52.5v-2q0 -9 -9 -9h-90q-10 0 -10 9v2q0 84 47 125.5t151 41.5h6zM147 138q0 -29 17.5 -41.5t62.5 -12.5q65 0 125 27v96h-147q-31 0 -44.5 -12.5t-13.5 -39.5v-17z" />
<glyph unicode="&#xe5;" horiz-adv-x="517" d="M261 558q-58 0 -80 16.5t-22 55.5v18q0 39 22 56t80 17h2q58 0 80.5 -17t22.5 -56v-18q0 -39 -22.5 -55.5t-80.5 -16.5h-2zM216 648v-18q0 -13 8 -17.5t37 -4.5h2q29 0 37.5 4.5t8.5 17.5v18q0 13 -8 17.5t-38 4.5h-2q-29 0 -37 -4.5t-8 -17.5zM262 515q105 0 152 -41.5 t47 -126.5v-338q0 -9 -9 -9h-56q-7 0 -12 7l-18 29q-67 -44 -156 -44q-172 0 -172 146v17q0 69 40.5 101.5t131.5 32.5h142v58q0 38 -19 53.5t-71 15.5h-6q-51 0 -70 -15.5t-19 -52.5v-2q0 -9 -9 -9h-90q-10 0 -10 9v2q0 84 47 125.5t151 41.5h6zM147 138q0 -29 17.5 -41.5 t62.5 -12.5q65 0 125 27v96h-147q-31 0 -44.5 -12.5t-13.5 -39.5v-17z" />
<glyph unicode="&#xe6;" horiz-adv-x="801" d="M746 229h-295v-64q0 -42 19.5 -59t75.5 -17h6q56 0 75.5 16.5t19.5 58.5v2q0 9 9 9h90q9 0 9 -9v-2q0 -88 -47 -130t-156 -42h-6q-124 0 -170 56q-75 -56 -172 -56q-82 0 -124 37.5t-42 108.5v17q0 69 40 102t128 33h136v52q0 41 -18 57.5t-67 16.5h-6q-49 0 -67 -16 t-18 -57v-2q0 -9 -9 -9h-91q-9 0 -9 9v2q0 87 46 129.5t148 42.5h6q98 0 141 -48q44 48 148 48h6q109 0 156 -42.5t47 -130.5v-103q0 -10 -9 -10zM546 418q-56 0 -75.5 -17t-19.5 -59v-36h196v36q0 42 -19.5 59t-75.5 17h-6zM222 84q63 0 124 30q-4 20 -4 51v42h-140 q-56 0 -56 -52v-17q0 -28 17.5 -41t58.5 -13z" />
<glyph unicode="&#xe7;" horiz-adv-x="506" d="M372 321q-9 0 -9 10v11q0 40 -20.5 56.5t-77.5 16.5h-6q-57 0 -77.5 -16.5t-20.5 -56.5v-177q0 -41 20 -57t78 -16h6q58 0 78 16t20 57v11q0 10 9 10h91q10 0 10 -10v-11q0 -89 -48 -131t-160 -42l-4 -44h21q55 0 77 -17t22 -58v-16q0 -42 -22 -59.5t-77 -17.5h-92 q-9 0 -9 9v45q0 9 9 9h89q17 0 22.5 3.5t5.5 13.5v13q0 11 -5.5 14.5t-22.5 3.5h-88q-11 0 -9 10l12 95q-76 11 -109.5 52.5t-33.5 116.5v177q0 88 48.5 130.5t159.5 42.5h6q111 0 159.5 -42.5t48.5 -130.5v-11q0 -10 -10 -10h-91z" />
<glyph unicode="&#xe8;" horiz-adv-x="525" d="M126 680q-5 4 -3.5 7.5t8.5 3.5h95q7 0 11 -5l99 -106q10 -12 -5 -12h-74q-7 0 -12 5zM469 228h-309v-64q0 -42 21 -58.5t81 -16.5h6q61 0 81.5 16.5t20.5 58.5v1q0 9 10 9h89q10 0 10 -9v-1q0 -88 -48.5 -130t-162.5 -42h-6q-114 0 -162.5 42t-48.5 130v179q0 88 49 130 t162 42h6q113 0 162 -42t49 -130v-105q0 -10 -10 -10zM262 418q-60 0 -81 -16.5t-21 -58.5v-35h210v35q0 42 -20.5 58.5t-81.5 16.5h-6z" />
<glyph unicode="&#xe9;" horiz-adv-x="525" d="M199 568q-15 0 -5 12l99 106q4 5 12 5h96q6 0 7.5 -3.5t-3.5 -7.5l-120 -107q-5 -5 -11 -5h-75zM469 228h-309v-64q0 -42 21 -58.5t81 -16.5h6q61 0 81.5 16.5t20.5 58.5v1q0 9 10 9h89q10 0 10 -9v-1q0 -88 -48.5 -130t-162.5 -42h-6q-114 0 -162.5 42t-48.5 130v179 q0 88 49 130t162 42h6q113 0 162 -42t49 -130v-105q0 -10 -10 -10zM262 418q-60 0 -81 -16.5t-21 -58.5v-35h210v35q0 42 -20.5 58.5t-81.5 16.5h-6z" />
<glyph unicode="&#xea;" horiz-adv-x="525" d="M119 568q-6 0 -7.5 4t2.5 8l103 106q5 5 12 5h69q7 0 12 -5l103 -106q4 -4 2.5 -8t-7.5 -4h-80q-6 0 -11 6l-53 65l-54 -65q-4 -6 -12 -6h-79zM469 228h-309v-64q0 -42 21 -58.5t81 -16.5h6q61 0 81.5 16.5t20.5 58.5v1q0 9 10 9h89q10 0 10 -9v-1q0 -88 -48.5 -130 t-162.5 -42h-6q-114 0 -162.5 42t-48.5 130v179q0 88 49 130t162 42h6q113 0 162 -42t49 -130v-105q0 -10 -10 -10zM262 418q-60 0 -81 -16.5t-21 -58.5v-35h210v35q0 42 -20.5 58.5t-81.5 16.5h-6z" />
<glyph unicode="&#xeb;" horiz-adv-x="525" d="M146 573q-10 0 -10 9v100q0 9 10 9h77q9 0 9 -9v-100q0 -9 -9 -9h-77zM306 573q-10 0 -10 9v100q0 9 10 9h77q9 0 9 -9v-100q0 -9 -9 -9h-77zM469 228h-309v-64q0 -42 21 -58.5t81 -16.5h6q61 0 81.5 16.5t20.5 58.5v1q0 9 10 9h89q10 0 10 -9v-1q0 -88 -48.5 -130 t-162.5 -42h-6q-114 0 -162.5 42t-48.5 130v179q0 88 49 130t162 42h6q113 0 162 -42t49 -130v-105q0 -10 -10 -10zM262 418q-60 0 -81 -16.5t-21 -58.5v-35h210v35q0 42 -20.5 58.5t-81.5 16.5h-6z" />
<glyph unicode="&#xec;" horiz-adv-x="232" d="M109 568q-7 0 -12 5l-119 107q-5 4 -3.5 7.5t8.5 3.5h95q7 0 11 -5l99 -106q10 -12 -5 -12h-74zM71 0q-10 0 -10 9v489q0 9 10 9h91q9 0 9 -9v-489q0 -9 -9 -9h-91z" />
<glyph unicode="&#xed;" horiz-adv-x="232" d="M51 568q-15 0 -5 12l99 106q4 5 12 5h96q6 0 7.5 -3.5t-3.5 -7.5l-120 -107q-5 -5 -11 -5h-75zM71 0q-10 0 -10 9v489q0 9 10 9h91q9 0 9 -9v-489q0 -9 -9 -9h-91z" />
<glyph unicode="&#xee;" horiz-adv-x="232" d="M265 580q4 -4 2.5 -8t-7.5 -4h-80q-6 0 -11 6l-53 65l-54 -65q-4 -6 -12 -6h-79q-6 0 -7.5 4t2.5 8l103 106q5 5 12 5h69q7 0 12 -5zM162 507q9 0 9 -9v-489q0 -9 -9 -9h-91q-10 0 -10 9v489q0 9 10 9h91z" />
<glyph unicode="&#xef;" horiz-adv-x="232" d="M-2 573q-10 0 -10 9v100q0 9 10 9h77q9 0 9 -9v-100q0 -9 -9 -9h-77zM158 573q-10 0 -10 9v100q0 9 10 9h77q9 0 9 -9v-100q0 -9 -9 -9h-77zM71 0q-10 0 -10 9v489q0 9 10 9h91q9 0 9 -9v-489q0 -9 -9 -9h-91z" />
<glyph unicode="&#xf0;" horiz-adv-x="540" d="M500 732q4 4 8 2t4 -7v-45q0 -8 -6 -12l-76 -58q54 -66 54 -188v-259q0 -89 -49 -131t-165 -42h-6q-115 0 -164 42t-49 131v108q0 94 39 134.5t125 40.5q84 0 159 -41v17q0 83 -27 124l-84 -64q-4 -4 -7.5 -2t-3.5 7v45q0 8 6 12l50 39q-51 29 -171 29h-7q-10 0 -10 9v76 q0 9 10 9h7q171 0 254 -59zM374 318q-69 30 -136 30q-46 0 -61.5 -17t-15.5 -71v-95q0 -41 21 -57t82 -16h6q62 0 83 16t21 57v153z" />
<glyph unicode="&#xf1;" horiz-adv-x="539" d="M133 573q-9 0 -9 10v34q0 38 20.5 59t56.5 21q30 0 56 -17l70 -47q11 -7 16 -7q8 0 8 11v39q0 10 9 10h47q10 0 10 -10v-34q0 -38 -20.5 -59t-56.5 -21q-30 0 -56 17l-70 47q-10 7 -17 7t-7 -11v-39q0 -10 -9 -10h-48zM321 515q87 0 124.5 -40.5t37.5 -134.5v-331 q0 -9 -9 -9h-92q-9 0 -9 9v318q0 54 -14.5 71t-60.5 17q-63 0 -127 -26v-380q0 -9 -9 -9h-91q-10 0 -10 9v489q0 9 10 9h55q7 0 11 -6l19 -30q75 44 165 44z" />
<glyph unicode="&#xf2;" horiz-adv-x="534" d="M260 568q-7 0 -12 5l-119 107q-5 4 -3.5 7.5t8.5 3.5h95q7 0 11 -5l99 -106q10 -12 -5 -12h-74zM51 165v177q0 89 49 131t164 42h6q115 0 164 -42t49 -131v-177q0 -89 -49 -131t-164 -42h-6q-115 0 -164 42t-49 131zM161 165q0 -41 21 -57t82 -16h6q61 0 82 16t21 57v177 q0 41 -21 57t-82 16h-6q-61 0 -82 -16t-21 -57v-177z" />
<glyph unicode="&#xf3;" horiz-adv-x="534" d="M202 568q-15 0 -5 12l99 106q4 5 12 5h96q6 0 7.5 -3.5t-3.5 -7.5l-120 -107q-5 -5 -11 -5h-75zM51 165v177q0 89 49 131t164 42h6q115 0 164 -42t49 -131v-177q0 -89 -49 -131t-164 -42h-6q-115 0 -164 42t-49 131zM161 165q0 -41 21 -57t82 -16h6q61 0 82 16t21 57v177 q0 41 -21 57t-82 16h-6q-61 0 -82 -16t-21 -57v-177z" />
<glyph unicode="&#xf4;" horiz-adv-x="534" d="M122 568q-6 0 -7.5 4t2.5 8l103 106q5 5 12 5h69q7 0 12 -5l103 -106q4 -4 2.5 -8t-7.5 -4h-80q-7 0 -11 6l-53 65l-54 -65q-5 -6 -12 -6h-79zM270 515q115 0 164 -42t49 -131v-177q0 -89 -49 -131t-164 -42h-6q-115 0 -164 42t-49 131v177q0 89 49 131t164 42h6z M373 165v177q0 41 -21 57t-82 16h-6q-61 0 -82 -16t-21 -57v-177q0 -41 21 -57t82 -16h6q61 0 82 16t21 57z" />
<glyph unicode="&#xf5;" horiz-adv-x="534" d="M337 562q-31 0 -56 17l-70 47q-10 7 -17 7t-7 -11v-39q0 -10 -9 -10h-48q-9 0 -9 10v34q0 38 20.5 59t56.5 21q30 0 56 -17l70 -47q11 -7 16 -7q8 0 8 11v39q0 10 9 10h47q10 0 10 -10v-34q0 -38 -20.5 -59t-56.5 -21zM51 165v177q0 89 49 131t164 42h6q115 0 164 -42 t49 -131v-177q0 -89 -49 -131t-164 -42h-6q-115 0 -164 42t-49 131zM161 165q0 -41 21 -57t82 -16h6q61 0 82 16t21 57v177q0 41 -21 57t-82 16h-6q-61 0 -82 -16t-21 -57v-177z" />
<glyph unicode="&#xf6;" horiz-adv-x="534" d="M149 573q-10 0 -10 9v100q0 9 10 9h77q9 0 9 -9v-100q0 -9 -9 -9h-77zM309 573q-10 0 -10 9v100q0 9 10 9h77q9 0 9 -9v-100q0 -9 -9 -9h-77zM51 165v177q0 89 49 131t164 42h6q115 0 164 -42t49 -131v-177q0 -89 -49 -131t-164 -42h-6q-115 0 -164 42t-49 131zM161 165 q0 -41 21 -57t82 -16h6q61 0 82 16t21 57v177q0 41 -21 57t-82 16h-6q-61 0 -82 -16t-21 -57v-177z" />
<glyph unicode="&#xf7;" horiz-adv-x="500" d="M206 369q-10 0 -10 10v97q0 10 10 10h93q9 0 9 -10v-97q0 -10 -9 -10h-93zM50 202q-10 0 -10 10v81q0 9 10 9h400q10 0 10 -9v-81q0 -10 -10 -10h-400zM206 19q-10 0 -10 10v97q0 10 10 10h93q9 0 9 -10v-97q0 -10 -9 -10h-93z" />
<glyph unicode="&#xf8;" horiz-adv-x="534" d="M416 485q67 -39 67 -143v-177q0 -89 -49 -131t-164 -42h-6q-49 0 -89 8l-24 -49q-4 -7 -11 -7h-44q-5 0 -6.5 3t0.5 8l32 64q-71 39 -71 146v177q0 89 49 131t164 42h6q54 0 93 -9l22 43q3 7 11 7h43q13 0 7 -11zM161 165q0 -30 10 -46l146 293q-19 3 -47 3h-6 q-61 0 -82 -16t-21 -57v-177zM373 165v177q0 26 -7 41l-144 -289q24 -2 42 -2h6q61 0 82 16t21 57z" />
<glyph unicode="&#xf9;" horiz-adv-x="535" d="M129 680q-5 4 -3.5 7.5t8.5 3.5h95q7 0 11 -5l99 -106q10 -12 -5 -12h-74q-7 0 -12 5zM465 507q9 0 9 -9v-489q0 -9 -9 -9h-56q-7 0 -12 7l-19 29q-75 -44 -164 -44q-85 0 -121.5 40t-36.5 135v331q0 9 10 9h91q9 0 9 -9v-318q0 -55 13 -71.5t58 -16.5q65 0 127 25v381 q0 9 9 9h92z" />
<glyph unicode="&#xfa;" horiz-adv-x="535" d="M202 568q-15 0 -5 12l99 106q4 5 12 5h96q6 0 7.5 -3.5t-3.5 -7.5l-120 -107q-5 -5 -11 -5h-75zM465 507q9 0 9 -9v-489q0 -9 -9 -9h-56q-7 0 -12 7l-19 29q-75 -44 -164 -44q-85 0 -121.5 40t-36.5 135v331q0 9 10 9h91q9 0 9 -9v-318q0 -55 13 -71.5t58 -16.5 q65 0 127 25v381q0 9 9 9h92z" />
<glyph unicode="&#xfb;" horiz-adv-x="535" d="M122 568q-6 0 -7.5 4t2.5 8l103 106q5 5 12 5h69q7 0 12 -5l103 -106q4 -4 2.5 -8t-7.5 -4h-80q-7 0 -11 6l-53 65l-54 -65q-5 -6 -12 -6h-79zM465 507q9 0 9 -9v-489q0 -9 -9 -9h-56q-7 0 -12 7l-19 29q-75 -44 -164 -44q-85 0 -121.5 40t-36.5 135v331q0 9 10 9h91 q9 0 9 -9v-318q0 -55 13 -71.5t58 -16.5q65 0 127 25v381q0 9 9 9h92z" />
<glyph unicode="&#xfc;" horiz-adv-x="535" d="M149 573q-10 0 -10 9v100q0 9 10 9h77q9 0 9 -9v-100q0 -9 -9 -9h-77zM309 573q-10 0 -10 9v100q0 9 10 9h77q9 0 9 -9v-100q0 -9 -9 -9h-77zM465 507q9 0 9 -9v-489q0 -9 -9 -9h-56q-7 0 -12 7l-19 29q-75 -44 -164 -44q-85 0 -121.5 40t-36.5 135v331q0 9 10 9h91 q9 0 9 -9v-318q0 -55 13 -71.5t58 -16.5q65 0 127 25v381q0 9 9 9h92z" />
<glyph unicode="&#xfd;" horiz-adv-x="464" d="M169 568q-15 0 -5 12l99 106q4 5 12 5h96q6 0 7.5 -3.5t-3.5 -7.5l-120 -107q-5 -5 -11 -5h-75zM456 507q11 0 8 -10l-243 -690q-3 -8 -11 -8h-94q-12 0 -7 11l71 184l-175 503q-3 10 7 10h97q8 0 11 -8l66 -202q32 -97 49 -188q17 91 49 188l66 202q3 8 11 8h95z" />
<glyph unicode="&#xfe;" d="M323 515q87 0 124.5 -40.5t37.5 -134.5v-173q0 -94 -37.5 -134.5t-124.5 -40.5q-82 0 -152 37v-220q0 -9 -9 -9h-91q-10 0 -10 9v882q0 9 10 9h91q9 0 9 -9v-213q70 37 152 37zM375 327q0 54 -14.5 71t-60.5 17q-66 0 -129 -27v-270q61 -26 129 -26q46 0 60.5 17t14.5 71 v147z" />
<glyph unicode="&#xff;" horiz-adv-x="464" d="M116 573q-10 0 -10 9v100q0 9 10 9h77q9 0 9 -9v-100q0 -9 -9 -9h-77zM276 573q-10 0 -10 9v100q0 9 10 9h77q9 0 9 -9v-100q0 -9 -9 -9h-77zM456 507q11 0 8 -10l-243 -690q-3 -8 -11 -8h-94q-12 0 -7 11l71 184l-175 503q-3 10 7 10h97q8 0 11 -8l66 -202 q32 -97 49 -188q17 91 49 188l66 202q3 8 11 8h95z" />
<glyph unicode="&#x100;" horiz-adv-x="562" d="M172 714q-10 0 -10 9v60q0 9 10 9h220q10 0 10 -9v-60q0 -9 -10 -9h-220zM550 10q3 -10 -7 -10h-96q-8 0 -11 7l-44 131h-222l-44 -131q-3 -7 -12 -7h-95q-11 0 -8 10l217 628q3 7 11 7h84q8 0 11 -7zM203 237h155l-34 102q-31 95 -43 151q-14 -65 -44 -151z" />
<glyph unicode="&#x101;" horiz-adv-x="517" d="M152 576q-10 0 -10 9v60q0 9 10 9h220q10 0 10 -9v-60q0 -9 -10 -9h-220zM262 515q105 0 152 -41.5t47 -126.5v-338q0 -9 -9 -9h-56q-7 0 -12 7l-18 29q-67 -44 -156 -44q-172 0 -172 146v17q0 69 40.5 101.5t131.5 32.5h142v58q0 38 -19 53.5t-71 15.5h-6 q-51 0 -70 -15.5t-19 -52.5v-2q0 -9 -9 -9h-90q-10 0 -10 9v2q0 84 47 125.5t151 41.5h6zM147 138q0 -29 17.5 -41.5t62.5 -12.5q65 0 125 27v96h-147q-31 0 -44.5 -12.5t-13.5 -39.5v-17z" />
<glyph unicode="&#x102;" horiz-adv-x="562" d="M279 703q-63 0 -92 22.5t-29 68.5v26q0 9 9 9h58q9 0 9 -9v-26q0 -18 9 -24t36 -6h4q27 0 36.5 6.5t9.5 23.5v26q0 9 9 9h58q9 0 9 -9v-26q0 -91 -122 -91h-4zM550 10q3 -10 -7 -10h-96q-8 0 -11 7l-44 131h-222l-44 -131q-3 -7 -12 -7h-95q-11 0 -8 10l217 628q3 7 11 7 h84q8 0 11 -7zM203 237h155l-34 102q-31 95 -43 151q-14 -65 -44 -151z" />
<glyph unicode="&#x103;" horiz-adv-x="517" d="M259 565q-63 0 -92 22.5t-29 68.5v26q0 9 9 9h58q9 0 9 -9v-26q0 -18 9 -24t36 -6h4q27 0 36.5 6.5t9.5 23.5v26q0 9 9 9h58q9 0 9 -9v-26q0 -91 -122 -91h-4zM262 515q105 0 152 -41.5t47 -126.5v-338q0 -9 -9 -9h-56q-7 0 -12 7l-18 29q-67 -44 -156 -44 q-172 0 -172 146v17q0 69 40.5 101.5t131.5 32.5h142v58q0 38 -19 53.5t-71 15.5h-6q-51 0 -70 -15.5t-19 -52.5v-2q0 -9 -9 -9h-90q-10 0 -10 9v2q0 84 47 125.5t151 41.5h6zM147 138q0 -29 17.5 -41.5t62.5 -12.5q65 0 125 27v96h-147q-31 0 -44.5 -12.5t-13.5 -39.5v-17z " />
<glyph unicode="&#x104;" horiz-adv-x="562" d="M544 -143q10 0 10 -10v-58q0 -9 -10 -9h-35q-121 0 -121 94v6q0 27 12 47.5t43 48.5l27 24h-23q-8 0 -11 7l-44 131h-222l-44 -131q-3 -7 -12 -7h-95q-11 0 -8 10l217 628q3 7 11 7h84q8 0 11 -7l216 -628q3 -8 2 -10.5t-9 -11.5l-44 -47q-25 -26 -25 -54v-6q0 -14 7 -19 t27 -5h36zM203 237h155l-34 102q-31 95 -43 151q-14 -65 -44 -151z" />
<glyph unicode="&#x105;" horiz-adv-x="517" d="M262 515q105 0 152 -41.5t47 -126.5v-339q0 -7 -5 -13l-50 -54q-25 -26 -25 -54v-6q0 -14 6.5 -19t27.5 -5h37q9 0 9 -10v-58q0 -9 -9 -9h-35q-122 0 -122 94v6q0 27 12 47.5t43 48.5l35 30l-1 1l-18 29q-67 -44 -156 -44q-172 0 -172 146v17q0 69 40.5 101.5t131.5 32.5 h142v58q0 38 -19 53.5t-71 15.5h-6q-51 0 -70 -15.5t-19 -52.5v-2q0 -9 -9 -9h-90q-10 0 -10 9v2q0 84 47 125.5t151 41.5h6zM147 138q0 -29 17.5 -41.5t62.5 -12.5q65 0 125 27v96h-147q-31 0 -44.5 -12.5t-13.5 -39.5v-17z" />
<glyph unicode="&#x106;" horiz-adv-x="564" d="M227 706q-15 0 -5 12l99 106q4 5 12 5h96q6 0 7.5 -3.5t-3.5 -7.5l-120 -107q-5 -5 -11 -5h-75zM289 -8q-128 0 -180.5 42.5t-52.5 135.5v305q0 93 52.5 135.5t180.5 42.5h6q128 0 180 -42.5t52 -135.5v-34q0 -9 -9 -9h-91q-10 0 -10 9v34q0 45 -24 61.5t-98 16.5h-6 q-74 0 -98.5 -16.5t-24.5 -61.5v-305q0 -45 24.5 -61.5t98.5 -16.5h6q74 0 98 16.5t24 61.5v34q0 9 10 9h91q9 0 9 -9v-34q0 -93 -52 -135.5t-180 -42.5h-6z" />
<glyph unicode="&#x107;" horiz-adv-x="506" d="M197 568q-15 0 -5 12l99 106q4 5 12 5h96q6 0 7.5 -3.5t-3.5 -7.5l-120 -107q-5 -5 -11 -5h-75zM51 165v177q0 88 48.5 130.5t159.5 42.5h6q111 0 159.5 -42.5t48.5 -130.5v-11q0 -10 -10 -10h-91q-9 0 -9 10v11q0 40 -20.5 56.5t-77.5 16.5h-6q-57 0 -77.5 -16.5 t-20.5 -56.5v-177q0 -41 20 -57t78 -16h6q58 0 78 16t20 57v11q0 10 9 10h91q10 0 10 -10v-11q0 -89 -48 -131t-160 -42h-6q-112 0 -160 42t-48 131z" />
<glyph unicode="&#x108;" horiz-adv-x="564" d="M147 706q-6 0 -7.5 4t2.5 8l103 106q5 5 12 5h69q7 0 12 -5l103 -106q4 -4 2.5 -8t-7.5 -4h-80q-6 0 -11 6l-53 65l-54 -65q-4 -6 -12 -6h-79zM427 432q-10 0 -10 9v34q0 45 -24 61.5t-98 16.5h-6q-74 0 -98.5 -16.5t-24.5 -61.5v-305q0 -45 24.5 -61.5t98.5 -16.5h6 q74 0 98 16.5t24 61.5v34q0 9 10 9h91q9 0 9 -9v-34q0 -93 -52 -135.5t-180 -42.5h-6q-128 0 -180.5 42.5t-52.5 135.5v305q0 93 52.5 135.5t180.5 42.5h6q128 0 180 -42.5t52 -135.5v-34q0 -9 -9 -9h-91z" />
<glyph unicode="&#x109;" horiz-adv-x="506" d="M117 568q-6 0 -7.5 4t2.5 8l103 106q5 5 12 5h69q7 0 12 -5l103 -106q4 -4 2.5 -8t-7.5 -4h-80q-6 0 -11 6l-53 65l-54 -65q-4 -6 -12 -6h-79zM372 321q-9 0 -9 10v11q0 40 -20.5 56.5t-77.5 16.5h-6q-57 0 -77.5 -16.5t-20.5 -56.5v-177q0 -41 20 -57t78 -16h6 q58 0 78 16t20 57v11q0 10 9 10h91q10 0 10 -10v-11q0 -89 -48 -131t-160 -42h-6q-112 0 -160 42t-48 131v177q0 88 48.5 130.5t159.5 42.5h6q111 0 159.5 -42.5t48.5 -130.5v-11q0 -10 -10 -10h-91z" />
<glyph unicode="&#x10a;" horiz-adv-x="564" d="M254 711q-10 0 -10 9v100q0 9 10 9h77q9 0 9 -9v-100q0 -9 -9 -9h-77zM289 -8q-128 0 -180.5 42.5t-52.5 135.5v305q0 93 52.5 135.5t180.5 42.5h6q128 0 180 -42.5t52 -135.5v-34q0 -9 -9 -9h-91q-10 0 -10 9v34q0 45 -24 61.5t-98 16.5h-6q-74 0 -98.5 -16.5 t-24.5 -61.5v-305q0 -45 24.5 -61.5t98.5 -16.5h6q74 0 98 16.5t24 61.5v34q0 9 10 9h91q9 0 9 -9v-34q0 -93 -52 -135.5t-180 -42.5h-6z" />
<glyph unicode="&#x10b;" horiz-adv-x="506" d="M224 573q-10 0 -10 9v100q0 9 10 9h77q9 0 9 -9v-100q0 -9 -9 -9h-77zM51 165v177q0 88 48.5 130.5t159.5 42.5h6q111 0 159.5 -42.5t48.5 -130.5v-11q0 -10 -10 -10h-91q-9 0 -9 10v11q0 40 -20.5 56.5t-77.5 16.5h-6q-57 0 -77.5 -16.5t-20.5 -56.5v-177q0 -41 20 -57 t78 -16h6q58 0 78 16t20 57v11q0 10 9 10h91q10 0 10 -10v-11q0 -89 -48 -131t-160 -42h-6q-112 0 -160 42t-48 131z" />
<glyph unicode="&#x10c;" horiz-adv-x="564" d="M142 818q-4 4 -2.5 7.5t7.5 3.5h79q8 0 12 -6l54 -64l53 64q5 6 11 6h80q6 0 7.5 -3.5t-2.5 -7.5l-103 -107q-5 -5 -12 -5h-69q-7 0 -12 5zM427 432q-10 0 -10 9v34q0 45 -24 61.5t-98 16.5h-6q-74 0 -98.5 -16.5t-24.5 -61.5v-305q0 -45 24.5 -61.5t98.5 -16.5h6 q74 0 98 16.5t24 61.5v34q0 9 10 9h91q9 0 9 -9v-34q0 -93 -52 -135.5t-180 -42.5h-6q-128 0 -180.5 42.5t-52.5 135.5v305q0 93 52.5 135.5t180.5 42.5h6q128 0 180 -42.5t52 -135.5v-34q0 -9 -9 -9h-91z" />
<glyph unicode="&#x10d;" horiz-adv-x="506" d="M112 680q-4 4 -2.5 7.5t7.5 3.5h79q8 0 12 -6l54 -64l53 64q5 6 11 6h80q6 0 7.5 -3.5t-2.5 -7.5l-103 -107q-5 -5 -12 -5h-69q-7 0 -12 5zM372 321q-9 0 -9 10v11q0 40 -20.5 56.5t-77.5 16.5h-6q-57 0 -77.5 -16.5t-20.5 -56.5v-177q0 -41 20 -57t78 -16h6q58 0 78 16 t20 57v11q0 10 9 10h91q10 0 10 -10v-11q0 -89 -48 -131t-160 -42h-6q-112 0 -160 42t-48 131v177q0 88 48.5 130.5t159.5 42.5h6q111 0 159.5 -42.5t48.5 -130.5v-11q0 -10 -10 -10h-91z" />
<glyph unicode="&#x10e;" horiz-adv-x="584" d="M127 818q-4 4 -2.5 7.5t7.5 3.5h79q7 0 12 -6l54 -64l53 64q4 6 11 6h80q6 0 7.5 -3.5t-2.5 -7.5l-103 -107q-5 -5 -12 -5h-69q-7 0 -12 5zM299 645q125 0 177 -42.5t52 -133.5v-293q0 -91 -52 -133.5t-177 -42.5h-223q-10 0 -10 9v627q0 9 10 9h223zM418 176v293 q0 44 -25.5 60t-105.5 16h-111v-445h111q80 0 105.5 16t25.5 60z" />
<glyph unicode="&#x10f;" d="M616 722q9 0 9 -9v-47q0 -8 -2 -12l-41 -101q-3 -8 -11 -8h-31q-9 0 -9 9v159q0 9 9 9h76zM465 700q10 0 10 -9v-682q0 -9 -10 -9h-55q-7 0 -11 6l-20 30q-76 -44 -166 -44q-87 0 -124.5 40.5t-37.5 134.5v173q0 94 37.5 134.5t124.5 40.5q82 0 152 -37v213q0 9 9 9h91z M161 180q0 -54 14.5 -71t60.5 -17q68 0 129 26v270q-63 27 -129 27q-46 0 -60.5 -17t-14.5 -71v-147z" />
<glyph unicode="&#x110;" horiz-adv-x="584" d="M299 645q125 0 177 -42.5t52 -133.5v-293q0 -91 -52 -133.5t-177 -42.5h-223q-10 0 -10 9v279h-38q-9 0 -9 9v51q0 10 9 10h38v278q0 9 10 9h223zM418 176v293q0 44 -25.5 60t-105.5 16h-111v-187h145q9 0 9 -10v-51q0 -9 -9 -9h-145v-188h111q80 0 105.5 16t25.5 60z " />
<glyph unicode="&#x111;" d="M515 645q9 0 9 -10v-51q0 -9 -9 -9h-40v-566q0 -9 -9 -9h-56q-7 0 -11 6l-20 30q-76 -44 -166 -44q-87 0 -124.5 40.5t-37.5 134.5v173q0 94 37.5 134.5t124.5 40.5q82 0 152 -37v97h-143q-9 0 -9 9v51q0 10 9 10h143v46q0 9 9 9h92q9 0 9 -9v-46h40zM161 180 q0 -54 14.5 -71t60.5 -17q68 0 129 26v270q-63 27 -129 27q-46 0 -60.5 -17t-14.5 -71v-147z" />
<glyph unicode="&#x112;" horiz-adv-x="505" d="M153 714q-10 0 -10 9v60q0 9 10 9h220q10 0 10 -9v-60q0 -9 -10 -9h-220zM460 545h-284v-169h254q10 0 10 -9v-81q0 -10 -10 -10h-254v-176h284q10 0 10 -9v-82q0 -9 -10 -9h-384q-10 0 -10 9v627q0 9 10 9h384q10 0 10 -9v-82q0 -9 -10 -9z" />
<glyph unicode="&#x113;" horiz-adv-x="525" d="M154 576q-10 0 -10 9v60q0 9 10 9h220q10 0 10 -9v-60q0 -9 -10 -9h-220zM469 228h-309v-64q0 -42 21 -58.5t81 -16.5h6q61 0 81.5 16.5t20.5 58.5v1q0 9 10 9h89q10 0 10 -9v-1q0 -88 -48.5 -130t-162.5 -42h-6q-114 0 -162.5 42t-48.5 130v179q0 88 49 130t162 42h6 q113 0 162 -42t49 -130v-105q0 -10 -10 -10zM262 418q-60 0 -81 -16.5t-21 -58.5v-35h210v35q0 42 -20.5 58.5t-81.5 16.5h-6z" />
<glyph unicode="&#x114;" horiz-adv-x="505" d="M260 703q-63 0 -92 22.5t-29 68.5v26q0 9 9 9h58q9 0 9 -9v-26q0 -18 9 -24t36 -6h4q27 0 36.5 6.5t9.5 23.5v26q0 9 9 9h58q9 0 9 -9v-26q0 -91 -122 -91h-4zM460 545h-284v-169h254q10 0 10 -9v-81q0 -10 -10 -10h-254v-176h284q10 0 10 -9v-82q0 -9 -10 -9h-384 q-10 0 -10 9v627q0 9 10 9h384q10 0 10 -9v-82q0 -9 -10 -9z" />
<glyph unicode="&#x115;" horiz-adv-x="525" d="M261 565q-63 0 -92 22.5t-29 68.5v26q0 9 9 9h58q9 0 9 -9v-26q0 -18 9 -24t36 -6h4q27 0 36.5 6.5t9.5 23.5v26q0 9 9 9h58q9 0 9 -9v-26q0 -91 -122 -91h-4zM469 228h-309v-64q0 -42 21 -58.5t81 -16.5h6q61 0 81.5 16.5t20.5 58.5v1q0 9 10 9h89q10 0 10 -9v-1 q0 -88 -48.5 -130t-162.5 -42h-6q-114 0 -162.5 42t-48.5 130v179q0 88 49 130t162 42h6q113 0 162 -42t49 -130v-105q0 -10 -10 -10zM262 418q-60 0 -81 -16.5t-21 -58.5v-35h210v35q0 42 -20.5 58.5t-81.5 16.5h-6z" />
<glyph unicode="&#x116;" horiz-adv-x="505" d="M225 711q-10 0 -10 9v100q0 9 10 9h77q9 0 9 -9v-100q0 -9 -9 -9h-77zM460 545h-284v-169h254q10 0 10 -9v-81q0 -10 -10 -10h-254v-176h284q10 0 10 -9v-82q0 -9 -10 -9h-384q-10 0 -10 9v627q0 9 10 9h384q10 0 10 -9v-82q0 -9 -10 -9z" />
<glyph unicode="&#x117;" horiz-adv-x="525" d="M226 573q-10 0 -10 9v100q0 9 10 9h77q9 0 9 -9v-100q0 -9 -9 -9h-77zM469 228h-309v-64q0 -42 21 -58.5t81 -16.5h6q61 0 81.5 16.5t20.5 58.5v1q0 9 10 9h89q10 0 10 -9v-1q0 -88 -48.5 -130t-162.5 -42h-6q-114 0 -162.5 42t-48.5 130v179q0 88 49 130t162 42h6 q113 0 162 -42t49 -130v-105q0 -10 -10 -10zM262 418q-60 0 -81 -16.5t-21 -58.5v-35h210v35q0 42 -20.5 58.5t-81.5 16.5h-6z" />
<glyph unicode="&#x118;" horiz-adv-x="505" d="M460 545h-284v-169h254q10 0 10 -9v-81q0 -10 -10 -10h-254v-176h284q10 0 10 -9v-83q0 -7 -5 -13l-50 -54q-25 -26 -25 -54v-6q0 -14 7 -19t27 -5h37q9 0 9 -10v-58q0 -9 -9 -9h-35q-122 0 -122 94v6q0 27 12 47.5t43 48.5l27 24h-310q-10 0 -10 9v627q0 9 10 9h384 q10 0 10 -9v-82q0 -9 -10 -9z" />
<glyph unicode="&#x119;" horiz-adv-x="525" d="M469 228h-309v-64q0 -42 21 -58.5t81 -16.5h6q61 0 81.5 16.5t20.5 58.5v1q0 9 10 9h89q10 0 10 -9v-1q0 -72 -31.5 -113t-104.5 -53l-2 -3l-50 -54q-25 -26 -25 -54v-6q0 -14 7 -19t27 -5h37q9 0 9 -10v-58q0 -9 -9 -9h-35q-122 0 -122 94v6q0 27 12 47.5t43 48.5l18 16 q-109 1 -155.5 43t-46.5 129v179q0 88 49 130t162 42h6q113 0 162 -42t49 -130v-105q0 -10 -10 -10zM262 418q-60 0 -81 -16.5t-21 -58.5v-35h210v35q0 42 -20.5 58.5t-81.5 16.5h-6z" />
<glyph unicode="&#x11a;" horiz-adv-x="505" d="M113 818q-4 4 -2.5 7.5t7.5 3.5h79q7 0 12 -6l54 -64l53 64q4 6 11 6h80q6 0 7.5 -3.5t-2.5 -7.5l-103 -107q-5 -5 -12 -5h-69q-7 0 -12 5zM460 545h-284v-169h254q10 0 10 -9v-81q0 -10 -10 -10h-254v-176h284q10 0 10 -9v-82q0 -9 -10 -9h-384q-10 0 -10 9v627 q0 9 10 9h384q10 0 10 -9v-82q0 -9 -10 -9z" />
<glyph unicode="&#x11b;" horiz-adv-x="525" d="M114 680q-4 4 -2.5 7.5t7.5 3.5h79q8 0 12 -6l54 -64l53 64q5 6 11 6h80q6 0 7.5 -3.5t-2.5 -7.5l-103 -107q-5 -5 -12 -5h-69q-7 0 -12 5zM469 228h-309v-64q0 -42 21 -58.5t81 -16.5h6q61 0 81.5 16.5t20.5 58.5v1q0 9 10 9h89q10 0 10 -9v-1q0 -88 -48.5 -130 t-162.5 -42h-6q-114 0 -162.5 42t-48.5 130v179q0 88 49 130t162 42h6q113 0 162 -42t49 -130v-105q0 -10 -10 -10zM262 418q-60 0 -81 -16.5t-21 -58.5v-35h210v35q0 42 -20.5 58.5t-81.5 16.5h-6z" />
<glyph unicode="&#x11c;" horiz-adv-x="585" d="M148 706q-6 0 -7.5 4t2.5 8l103 106q5 5 12 5h69q7 0 12 -5l103 -106q4 -4 2.5 -8t-7.5 -4h-80q-7 0 -11 6l-53 65l-54 -65q-5 -6 -12 -6h-79zM433 452q-9 0 -9 9v14q0 45 -25 61.5t-101 16.5h-6q-76 0 -101 -16.5t-25 -61.5v-305q0 -45 25 -61.5t101 -16.5h6 q76 0 101 16.5t25 61.5v78h-115q-9 0 -9 10v78q0 10 9 10h216q9 0 9 -10v-166q0 -93 -53 -135.5t-183 -42.5h-6q-130 0 -183 42.5t-53 135.5v305q0 93 53 135.5t183 42.5h6q130 0 183 -42.5t53 -135.5v-14q0 -9 -9 -9h-92z" />
<glyph unicode="&#x11d;" horiz-adv-x="511" d="M118 568q-6 0 -7.5 4t2.5 8l103 106q5 5 12 5h69q7 0 12 -5l103 -106q4 -4 2.5 -8t-7.5 -4h-80q-7 0 -11 6l-53 65l-54 -65q-5 -6 -12 -6h-79zM497 466q0 -9 -10 -10l-68 -12q36 -21 36 -81v-73q0 -77 -47.5 -114.5t-153.5 -37.5h-6q-47 0 -85 8q-19 -10 -19 -41v-6 q0 -18 11 -25.5t45 -7.5h160q71 0 104 -31t33 -97v-28q0 -70 -51 -101.5t-181 -31.5h-6q-130 0 -181 31.5t-51 101.5v17q0 65 46 87q-28 28 -28 73v6q0 62 49 84q-46 36 -46 113v73q0 77 47.5 114.5t152.5 37.5h239q10 0 10 -9v-40zM351 290v73q0 33 -19.5 45.5t-77.5 12.5 h-6q-57 0 -76.5 -12.5t-19.5 -45.5v-73q0 -33 19.5 -45.5t76.5 -12.5h6q58 0 77.5 12.5t19.5 45.5zM349 -23h-159q-30 0 -49 4q-10 -14 -10 -44v-27q0 -24 23.5 -32t104.5 -8h6q81 0 104.5 8t23.5 32v28q0 22 -9 30.5t-35 8.5z" />
<glyph unicode="&#x11e;" horiz-adv-x="585" d="M290 703q-63 0 -92 22.5t-29 68.5v26q0 9 9 9h58q9 0 9 -9v-26q0 -18 9 -24t36 -6h4q27 0 36.5 6.5t9.5 23.5v26q0 9 9 9h58q9 0 9 -9v-26q0 -91 -122 -91h-4zM433 452q-9 0 -9 9v14q0 45 -25 61.5t-101 16.5h-6q-76 0 -101 -16.5t-25 -61.5v-305q0 -45 25 -61.5 t101 -16.5h6q76 0 101 16.5t25 61.5v78h-115q-9 0 -9 10v78q0 10 9 10h216q9 0 9 -10v-166q0 -93 -53 -135.5t-183 -42.5h-6q-130 0 -183 42.5t-53 135.5v305q0 93 53 135.5t183 42.5h6q130 0 183 -42.5t53 -135.5v-14q0 -9 -9 -9h-92z" />
<glyph unicode="&#x11f;" horiz-adv-x="511" d="M260 565q-63 0 -92 22.5t-29 68.5v26q0 9 9 9h58q9 0 9 -9v-26q0 -18 9 -24t36 -6h4q27 0 36.5 6.5t9.5 23.5v26q0 9 9 9h58q9 0 9 -9v-26q0 -91 -122 -91h-4zM497 466q0 -9 -10 -10l-68 -12q36 -21 36 -81v-73q0 -77 -47.5 -114.5t-153.5 -37.5h-6q-47 0 -85 8 q-19 -10 -19 -41v-6q0 -18 11 -25.5t45 -7.5h160q71 0 104 -31t33 -97v-28q0 -70 -51 -101.5t-181 -31.5h-6q-130 0 -181 31.5t-51 101.5v17q0 65 46 87q-28 28 -28 73v6q0 62 49 84q-46 36 -46 113v73q0 77 47.5 114.5t152.5 37.5h239q10 0 10 -9v-40zM351 290v73 q0 33 -19.5 45.5t-77.5 12.5h-6q-57 0 -76.5 -12.5t-19.5 -45.5v-73q0 -33 19.5 -45.5t76.5 -12.5h6q58 0 77.5 12.5t19.5 45.5zM349 -23h-159q-30 0 -49 4q-10 -14 -10 -44v-27q0 -24 23.5 -32t104.5 -8h6q81 0 104.5 8t23.5 32v28q0 22 -9 30.5t-35 8.5z" />
<glyph unicode="&#x120;" horiz-adv-x="585" d="M255 711q-10 0 -10 9v100q0 9 10 9h77q9 0 9 -9v-100q0 -9 -9 -9h-77zM433 452q-9 0 -9 9v14q0 45 -25 61.5t-101 16.5h-6q-76 0 -101 -16.5t-25 -61.5v-305q0 -45 25 -61.5t101 -16.5h6q76 0 101 16.5t25 61.5v78h-115q-9 0 -9 10v78q0 10 9 10h216q9 0 9 -10v-166 q0 -93 -53 -135.5t-183 -42.5h-6q-130 0 -183 42.5t-53 135.5v305q0 93 53 135.5t183 42.5h6q130 0 183 -42.5t53 -135.5v-14q0 -9 -9 -9h-92z" />
<glyph unicode="&#x121;" horiz-adv-x="511" d="M225 573q-10 0 -10 9v100q0 9 10 9h77q9 0 9 -9v-100q0 -9 -9 -9h-77zM497 466q0 -9 -10 -10l-68 -12q36 -21 36 -81v-73q0 -77 -47.5 -114.5t-153.5 -37.5h-6q-47 0 -85 8q-19 -10 -19 -41v-6q0 -18 11 -25.5t45 -7.5h160q71 0 104 -31t33 -97v-28q0 -70 -51 -101.5 t-181 -31.5h-6q-130 0 -181 31.5t-51 101.5v17q0 65 46 87q-28 28 -28 73v6q0 62 49 84q-46 36 -46 113v73q0 77 47.5 114.5t152.5 37.5h239q10 0 10 -9v-40zM351 290v73q0 33 -19.5 45.5t-77.5 12.5h-6q-57 0 -76.5 -12.5t-19.5 -45.5v-73q0 -33 19.5 -45.5t76.5 -12.5h6 q58 0 77.5 12.5t19.5 45.5zM349 -23h-159q-30 0 -49 4q-10 -14 -10 -44v-27q0 -24 23.5 -32t104.5 -8h6q81 0 104.5 8t23.5 32v28q0 22 -9 30.5t-35 8.5z" />
<glyph unicode="&#x122;" horiz-adv-x="585" d="M433 452q-9 0 -9 9v14q0 45 -25 61.5t-101 16.5h-6q-76 0 -101 -16.5t-25 -61.5v-305q0 -45 25 -61.5t101 -16.5h6q76 0 101 16.5t25 61.5v78h-115q-9 0 -9 10v78q0 10 9 10h216q9 0 9 -10v-166q0 -93 -53 -135.5t-183 -42.5h-6q-130 0 -183 42.5t-53 135.5v305 q0 93 53 135.5t183 42.5h6q130 0 183 -42.5t53 -135.5v-14q0 -9 -9 -9h-92zM333 -68q9 0 9 -9v-47q0 -8 -2 -12l-41 -101q-3 -8 -11 -8h-31q-9 0 -9 9v159q0 9 9 9h76z" />
<glyph unicode="&#x123;" horiz-adv-x="511" d="M225 568q-9 0 -9 9v159q0 9 9 9h31q8 0 11 -8l41 -101q2 -4 2 -12v-47q0 -9 -9 -9h-76zM497 466q0 -9 -10 -10l-68 -12q36 -21 36 -81v-73q0 -77 -47.5 -114.5t-153.5 -37.5h-6q-47 0 -85 8q-19 -10 -19 -41v-6q0 -18 11 -25.5t45 -7.5h160q71 0 104 -31t33 -97v-28 q0 -70 -51 -101.5t-181 -31.5h-6q-130 0 -181 31.5t-51 101.5v17q0 65 46 87q-28 28 -28 73v6q0 62 49 84q-46 36 -46 113v73q0 77 47.5 114.5t152.5 37.5h239q10 0 10 -9v-40zM351 290v73q0 33 -19.5 45.5t-77.5 12.5h-6q-57 0 -76.5 -12.5t-19.5 -45.5v-73 q0 -33 19.5 -45.5t76.5 -12.5h6q58 0 77.5 12.5t19.5 45.5zM349 -23h-159q-30 0 -49 4q-10 -14 -10 -44v-27q0 -24 23.5 -32t104.5 -8h6q81 0 104.5 8t23.5 32v28q0 22 -9 30.5t-35 8.5z" />
<glyph unicode="&#x124;" horiz-adv-x="604" d="M157 706q-6 0 -7.5 4t2.5 8l103 106q5 5 12 5h69q7 0 12 -5l103 -106q4 -4 2.5 -8t-7.5 -4h-80q-6 0 -11 6l-53 65l-54 -65q-4 -6 -12 -6h-79zM529 645q9 0 9 -9v-627q0 -9 -9 -9h-92q-9 0 -9 9v265h-252v-265q0 -9 -9 -9h-91q-10 0 -10 9v627q0 9 10 9h91q9 0 9 -9v-262 h252v262q0 9 9 9h92z" />
<glyph unicode="&#x125;" horiz-adv-x="539" d="M63 767q-5 -6 -12 -6h-79q-6 0 -7.5 3.5t2.5 8.5l103 106q5 5 12 5h69q7 0 12 -5l103 -106q4 -5 2.5 -8.5t-7.5 -3.5h-80q-7 0 -11 6l-53 65zM321 515q87 0 124.5 -40.5t37.5 -134.5v-331q0 -9 -9 -9h-92q-9 0 -9 9v318q0 54 -14.5 71t-60.5 17q-63 0 -127 -26v-380 q0 -9 -9 -9h-91q-10 0 -10 9v682q0 9 10 9h91q9 0 9 -9v-214q65 38 150 38z" />
<glyph unicode="&#x126;" horiz-adv-x="604" d="M566 529q9 0 9 -10v-46q0 -9 -9 -9h-28v-455q0 -9 -9 -9h-92q-9 0 -9 9v265h-252v-265q0 -9 -9 -9h-91q-10 0 -10 9v455h-28q-9 0 -9 9v46q0 10 9 10h28v107q0 9 10 9h91q9 0 9 -9v-107h252v107q0 9 9 9h92q9 0 9 -9v-107h28zM428 374v90h-252v-90h252z" />
<glyph unicode="&#x127;" horiz-adv-x="539" d="M321 515q87 0 124.5 -40.5t37.5 -134.5v-331q0 -9 -9 -9h-92q-9 0 -9 9v318q0 54 -14.5 71t-60.5 17q-63 0 -127 -26v-380q0 -9 -9 -9h-91q-10 0 -10 9v566h-34q-9 0 -9 9v51q0 10 9 10h34v46q0 9 10 9h91q9 0 9 -9v-46h149q9 0 9 -10v-51q0 -9 -9 -9h-149v-98 q65 38 150 38z" />
<glyph unicode="&#x128;" horiz-adv-x="242" d="M191 700q-31 0 -56 17l-70 47q-10 7 -17 7t-7 -11v-39q0 -10 -9 -10h-48q-9 0 -9 10v34q0 38 20.5 59t56.5 21q30 0 56 -17l70 -47q11 -7 16 -7q8 0 8 11v39q0 10 9 10h47q10 0 10 -10v-34q0 -38 -20.5 -59t-56.5 -21zM76 0q-10 0 -10 9v627q0 9 10 9h91q9 0 9 -9v-627 q0 -9 -9 -9h-91z" />
<glyph unicode="&#x129;" horiz-adv-x="232" d="M186 562q-30 0 -56 17l-70 47q-10 7 -17 7t-7 -11v-39q0 -10 -9 -10h-48q-9 0 -9 10v34q0 38 20.5 59t56.5 21q30 0 56 -17l70 -47q11 -7 16 -7q8 0 8 11v39q0 10 9 10h47q10 0 10 -10v-34q0 -38 -20.5 -59t-56.5 -21zM71 0q-10 0 -10 9v489q0 9 10 9h91q9 0 9 -9v-489 q0 -9 -9 -9h-91z" />
<glyph unicode="&#x12a;" horiz-adv-x="242" d="M11 714q-10 0 -10 9v60q0 9 10 9h220q10 0 10 -9v-60q0 -9 -10 -9h-220zM76 0q-10 0 -10 9v627q0 9 10 9h91q9 0 9 -9v-627q0 -9 -9 -9h-91z" />
<glyph unicode="&#x12b;" horiz-adv-x="232" d="M6 576q-10 0 -10 9v60q0 9 10 9h220q10 0 10 -9v-60q0 -9 -10 -9h-220zM71 0q-10 0 -10 9v489q0 9 10 9h91q9 0 9 -9v-489q0 -9 -9 -9h-91z" />
<glyph unicode="&#x12c;" horiz-adv-x="242" d="M235 829q9 0 9 -9v-26q0 -91 -122 -91h-4q-63 0 -92 22.5t-29 68.5v26q0 9 9 9h58q9 0 9 -9v-26q0 -18 9 -24t36 -6h4q27 0 36.5 6.5t9.5 23.5v26q0 9 9 9h58zM76 0q-10 0 -10 9v627q0 9 10 9h91q9 0 9 -9v-627q0 -9 -9 -9h-91z" />
<glyph unicode="&#x12d;" horiz-adv-x="232" d="M230 691q9 0 9 -9v-26q0 -91 -122 -91h-4q-63 0 -92 22.5t-29 68.5v26q0 9 9 9h58q9 0 9 -9v-26q0 -18 9 -24t36 -6h4q27 0 36.5 6.5t9.5 23.5v26q0 9 9 9h58zM71 0q-10 0 -10 9v489q0 9 10 9h91q9 0 9 -9v-489q0 -9 -9 -9h-91z" />
<glyph unicode="&#x12e;" horiz-adv-x="242" d="M167 645q9 0 9 -9v-628q0 -7 -5 -13l-50 -54q-25 -26 -25 -54v-6q0 -14 7 -19t27 -5h37q9 0 9 -10v-58q0 -9 -9 -9h-35q-122 0 -122 94v6q0 27 12 47.5t43 48.5l27 24h-16q-10 0 -10 9v627q0 9 10 9h91z" />
<glyph unicode="&#x12f;" horiz-adv-x="232" d="M162 691q9 0 9 -9v-100q0 -9 -9 -9h-91q-10 0 -10 9v100q0 9 10 9h91zM162 507q9 0 9 -9v-490q0 -7 -5 -13l-50 -54q-25 -26 -25 -54v-6q0 -14 6.5 -19t27.5 -5h37q9 0 9 -10v-58q0 -9 -9 -9h-35q-122 0 -122 94v6q0 27 12 47.5t43 48.5l27 24h-16q-10 0 -10 9v489 q0 9 10 9h91z" />
<glyph unicode="&#x130;" horiz-adv-x="242" d="M83 711q-10 0 -10 9v100q0 9 10 9h77q9 0 9 -9v-100q0 -9 -9 -9h-77zM76 0q-10 0 -10 9v627q0 9 10 9h91q9 0 9 -9v-627q0 -9 -9 -9h-91z" />
<glyph unicode="&#x131;" horiz-adv-x="232" d="M71 0q-10 0 -10 9v489q0 9 10 9h91q9 0 9 -9v-489q0 -9 -9 -9h-91z" />
<glyph unicode="&#x132;" horiz-adv-x="736" d="M76 0q-10 0 -10 9v627q0 9 10 9h91q9 0 9 -9v-627q0 -9 -9 -9h-91zM459 -8q-111 0 -160 43t-49 135v18q0 10 9 10h92q9 0 9 -10v-18q0 -44 20.5 -61t78.5 -17h6q58 0 79 17t21 61v466q0 9 9 9h91q10 0 10 -9v-466q0 -92 -49 -135t-161 -43h-6z" />
<glyph unicode="&#x133;" horiz-adv-x="464" d="M71 573q-10 0 -10 9v100q0 9 10 9h91q9 0 9 -9v-100q0 -9 -9 -9h-91zM303 573q-10 0 -10 9v100q0 9 10 9h91q9 0 9 -9v-100q0 -9 -9 -9h-91zM71 0q-10 0 -10 9v489q0 9 10 9h91q9 0 9 -9v-489q0 -9 -9 -9h-91zM188 -208q-9 0 -9 9v78q0 10 9 10h36q40 0 54.5 16t14.5 60 v533q0 9 10 9h91q9 0 9 -9v-541q0 -89 -39 -127t-135 -38h-41z" />
<glyph unicode="&#x134;" horiz-adv-x="504" d="M536 718q4 -4 2.5 -8t-7.5 -4h-80q-7 0 -11 6l-53 65l-54 -65q-5 -6 -12 -6h-79q-6 0 -7.5 4t2.5 8l103 106q5 5 12 5h69q7 0 12 -5zM433 645q10 0 10 -9v-466q0 -92 -49 -135t-161 -43h-6q-111 0 -160 43t-49 135v18q0 10 9 10h92q9 0 9 -10v-18q0 -44 20.5 -61 t78.5 -17h6q58 0 79 17t21 61v466q0 9 9 9h91z" />
<glyph unicode="&#x135;" horiz-adv-x="232" d="M265 580q4 -4 2.5 -8t-7.5 -4h-80q-6 0 -11 6l-53 65l-54 -65q-4 -6 -12 -6h-79q-6 0 -7.5 4t2.5 8l103 106q5 5 12 5h69q7 0 12 -5zM162 507q9 0 9 -9v-541q0 -89 -39 -127t-135 -38h-41q-9 0 -9 9v78q0 9 9 9h36q40 0 54.5 16t14.5 60v534q0 9 10 9h91z" />
<glyph unicode="&#x136;" horiz-adv-x="562" d="M548 12q3 -5 0.5 -8.5t-8.5 -3.5h-110q-8 0 -11 7l-148 281l-95 -111v-168q0 -9 -9 -9h-91q-10 0 -10 9v627q0 9 10 9h91q9 0 9 -9v-307l236 310q5 6 12 6h109q6 0 8 -3.5t-2 -7.5l-194 -253zM321 -68q9 0 9 -9v-47q0 -8 -2 -12l-41 -101q-3 -8 -11 -8h-31q-9 0 -9 9v159 q0 9 9 9h76z" />
<glyph unicode="&#x137;" horiz-adv-x="491" d="M481 11q3 -5 0.5 -8t-7.5 -3h-104q-8 0 -11 6l-118 220l-70 -74v-143q0 -9 -9 -9h-91q-10 0 -10 9v682q0 9 10 9h91q9 0 9 -9v-400l176 211q4 5 11 5h110q6 0 7.5 -3.5t-2.5 -7.5l-158 -186zM287 -68q9 0 9 -9v-47q0 -8 -2 -12l-41 -101q-3 -8 -11 -8h-31q-9 0 -9 9v159 q0 9 9 9h76z" />
<glyph unicode="&#x138;" horiz-adv-x="491" d="M481 11q3 -5 0.5 -8t-7.5 -3h-104q-8 0 -11 6l-118 220l-70 -74v-143q0 -9 -9 -9h-91q-10 0 -10 9v489q0 9 10 9h91q9 0 9 -9v-207l176 211q4 5 11 5h110q6 0 7.5 -3.5t-2.5 -7.5l-158 -186z" />
<glyph unicode="&#x139;" horiz-adv-x="459" d="M169 706q-15 0 -5 12l99 106q4 5 12 5h96q6 0 7.5 -3.5t-3.5 -7.5l-120 -107q-5 -5 -11 -5h-75zM428 100q10 0 10 -9v-82q0 -9 -10 -9h-352q-10 0 -10 9v627q0 9 10 9h91q9 0 9 -9v-536h252z" />
<glyph unicode="&#x13a;" horiz-adv-x="232" d="M50 761q-15 0 -5 12l99 106q4 5 12 5h96q6 0 7.5 -3.5t-3.5 -7.5l-120 -107q-5 -5 -11 -5h-75zM71 0q-10 0 -10 9v682q0 9 10 9h91q9 0 9 -9v-682q0 -9 -9 -9h-91z" />
<glyph unicode="&#x13b;" horiz-adv-x="459" d="M428 100q10 0 10 -9v-82q0 -9 -10 -9h-352q-10 0 -10 9v627q0 9 10 9h91q9 0 9 -9v-536h252zM272 -68q9 0 9 -9v-47q0 -8 -2 -12l-41 -101q-3 -8 -11 -8h-31q-9 0 -9 9v159q0 9 9 9h76z" />
<glyph unicode="&#x13c;" horiz-adv-x="232" d="M71 0q-10 0 -10 9v682q0 9 10 9h91q9 0 9 -9v-682q0 -9 -9 -9h-91zM78 -245q-9 0 -9 9v159q0 9 9 9h76q9 0 9 -9v-47q0 -8 -2 -12l-41 -101q-3 -8 -11 -8h-31z" />
<glyph unicode="&#x13d;" horiz-adv-x="459" d="M294 442q-9 0 -9 9v251q0 9 9 9h91q10 0 10 -9v-101q0 -7 -3 -14l-49 -137q-3 -8 -11 -8h-38zM428 100q10 0 10 -9v-82q0 -9 -10 -9h-352q-10 0 -10 9v627q0 9 10 9h91q9 0 9 -9v-536h252z" />
<glyph unicode="&#x13e;" horiz-adv-x="232" d="M237 545q-9 0 -9 9v159q0 9 9 9h76q9 0 9 -9v-47q0 -8 -2 -12l-41 -101q-3 -8 -11 -8h-31zM71 0q-10 0 -10 9v682q0 9 10 9h91q9 0 9 -9v-682q0 -9 -9 -9h-91z" />
<glyph unicode="&#x13f;" horiz-adv-x="459" d="M428 100q10 0 10 -9v-82q0 -9 -10 -9h-352q-10 0 -10 9v627q0 9 10 9h91q9 0 9 -9v-536h252zM267 271q-9 0 -9 9v98q0 9 9 9h93q10 0 10 -9v-98q0 -9 -10 -9h-93z" />
<glyph unicode="&#x140;" horiz-adv-x="381" d="M71 0q-10 0 -10 9v682q0 9 10 9h91q9 0 9 -9v-682q0 -9 -9 -9h-91zM248 271q-9 0 -9 9v98q0 9 9 9h93q10 0 10 -9v-98q0 -9 -10 -9h-93z" />
<glyph unicode="&#x141;" horiz-adv-x="459" d="M428 100q10 0 10 -9v-82q0 -9 -10 -9h-352q-10 0 -10 9v198l-47 -25q-5 -3 -8.5 -1t-3.5 7v70q0 8 7 12l52 28v338q0 9 10 9h91q9 0 9 -9v-280l149 80q5 3 8 0.5t3 -7.5v-70q0 -7 -6 -11l-154 -82v-166h252z" />
<glyph unicode="&#x142;" horiz-adv-x="300" d="M277 443q5 4 8 1.5t3 -7.5v-75q0 -6 -6 -11l-77 -50v-292q0 -9 -9 -9h-91q-10 0 -10 9v220l-72 -47q-11 -7 -11 6v76q0 6 6 11l77 50v366q0 9 10 9h91q9 0 9 -9v-295z" />
<glyph unicode="&#x143;" horiz-adv-x="633" d="M252 706q-15 0 -5 12l99 106q4 5 12 5h96q6 0 7.5 -3.5t-3.5 -7.5l-120 -107q-5 -5 -11 -5h-75zM557 645q10 0 10 -9v-627q0 -9 -10 -9h-99q-6 0 -11 6l-179 294q-63 101 -97 180q5 -75 5 -180v-291q0 -9 -9 -9h-91q-10 0 -10 9v627q0 9 10 9h99q7 0 11 -6l179 -294 q66 -109 97 -182q-5 75 -5 182v291q0 9 9 9h91z" />
<glyph unicode="&#x144;" horiz-adv-x="539" d="M205 568q-15 0 -5 12l99 106q4 5 12 5h96q6 0 7.5 -3.5t-3.5 -7.5l-120 -107q-5 -5 -11 -5h-75zM321 515q87 0 124.5 -40.5t37.5 -134.5v-331q0 -9 -9 -9h-92q-9 0 -9 9v318q0 54 -14.5 71t-60.5 17q-63 0 -127 -26v-380q0 -9 -9 -9h-91q-10 0 -10 9v489q0 9 10 9h55 q7 0 11 -6l19 -30q75 44 165 44z" />
<glyph unicode="&#x145;" horiz-adv-x="633" d="M557 645q10 0 10 -9v-627q0 -9 -10 -9h-99q-6 0 -11 6l-179 294q-63 101 -97 180q5 -75 5 -180v-291q0 -9 -9 -9h-91q-10 0 -10 9v627q0 9 10 9h99q7 0 11 -6l179 -294q66 -109 97 -182q-5 75 -5 182v291q0 9 9 9h91zM355 -68q9 0 9 -9v-47q0 -8 -2 -12l-41 -101 q-3 -8 -11 -8h-31q-9 0 -9 9v159q0 9 9 9h76z" />
<glyph unicode="&#x146;" horiz-adv-x="539" d="M321 515q87 0 124.5 -40.5t37.5 -134.5v-331q0 -9 -9 -9h-92q-9 0 -9 9v318q0 54 -14.5 71t-60.5 17q-63 0 -127 -26v-380q0 -9 -9 -9h-91q-10 0 -10 9v489q0 9 10 9h55q7 0 11 -6l19 -30q75 44 165 44zM308 -68q9 0 9 -9v-47q0 -8 -2 -12l-41 -101q-3 -8 -11 -8h-31 q-9 0 -9 9v159q0 9 9 9h76z" />
<glyph unicode="&#x147;" horiz-adv-x="633" d="M167 818q-4 4 -2.5 7.5t7.5 3.5h79q7 0 12 -6l54 -64l53 64q4 6 11 6h80q6 0 7.5 -3.5t-2.5 -7.5l-103 -107q-5 -5 -12 -5h-69q-7 0 -12 5zM557 645q10 0 10 -9v-627q0 -9 -10 -9h-99q-6 0 -11 6l-179 294q-63 101 -97 180q5 -75 5 -180v-291q0 -9 -9 -9h-91q-10 0 -10 9 v627q0 9 10 9h99q7 0 11 -6l179 -294q66 -109 97 -182q-5 75 -5 182v291q0 9 9 9h91z" />
<glyph unicode="&#x148;" horiz-adv-x="539" d="M120 680q-4 4 -2.5 7.5t7.5 3.5h79q8 0 12 -6l54 -64l53 64q5 6 11 6h80q6 0 7.5 -3.5t-2.5 -7.5l-103 -107q-5 -5 -12 -5h-69q-7 0 -12 5zM321 515q87 0 124.5 -40.5t37.5 -134.5v-331q0 -9 -9 -9h-92q-9 0 -9 9v318q0 54 -14.5 71t-60.5 17q-63 0 -127 -26v-380 q0 -9 -9 -9h-91q-10 0 -10 9v489q0 9 10 9h55q7 0 11 -6l19 -30q75 44 165 44z" />
<glyph unicode="&#x14a;" horiz-adv-x="631" d="M555 645q10 0 10 -9v-686q0 -76 -45.5 -117t-134.5 -41h-59q-9 0 -9 9v82q0 9 9 9h59q35 0 50.5 13.5t15.5 41.5v53l-183 300q-63 101 -97 180q5 -75 5 -180v-291q0 -9 -9 -9h-91q-10 0 -10 9v627q0 9 10 9h99q7 0 11 -6l179 -294q61 -99 94 -176q-4 72 -4 176v291 q0 9 9 9h91z" />
<glyph unicode="&#x14b;" horiz-adv-x="539" d="M321 515q87 0 124.5 -40.5t37.5 -134.5v-383q0 -89 -39.5 -127t-134.5 -38h-42q-9 0 -9 9v78q0 9 9 9h37q40 0 54.5 16t14.5 60v363q0 54 -14.5 71t-60.5 17q-63 0 -127 -26v-380q0 -9 -9 -9h-91q-10 0 -10 9v489q0 9 10 9h55q7 0 11 -6l19 -30q75 44 165 44z" />
<glyph unicode="&#x14c;" horiz-adv-x="598" d="M189 714q-10 0 -10 9v60q0 9 10 9h220q10 0 10 -9v-60q0 -9 -10 -9h-220zM56 170v305q0 93 53.5 135.5t186.5 42.5h6q133 0 186 -42.5t53 -135.5v-305q0 -93 -53 -135.5t-186 -42.5h-6q-133 0 -186.5 42.5t-53.5 135.5zM166 170q0 -45 25.5 -61.5t104.5 -16.5h6 q79 0 104 16.5t25 61.5v305q0 45 -25 61.5t-104 16.5h-6q-79 0 -104.5 -16.5t-25.5 -61.5v-305z" />
<glyph unicode="&#x14d;" horiz-adv-x="534" d="M157 576q-10 0 -10 9v60q0 9 10 9h220q10 0 10 -9v-60q0 -9 -10 -9h-220zM51 165v177q0 89 49 131t164 42h6q115 0 164 -42t49 -131v-177q0 -89 -49 -131t-164 -42h-6q-115 0 -164 42t-49 131zM161 165q0 -41 21 -57t82 -16h6q61 0 82 16t21 57v177q0 41 -21 57t-82 16 h-6q-61 0 -82 -16t-21 -57v-177z" />
<glyph unicode="&#x14e;" horiz-adv-x="598" d="M413 829q9 0 9 -9v-26q0 -91 -122 -91h-4q-63 0 -92 22.5t-29 68.5v26q0 9 9 9h58q9 0 9 -9v-26q0 -18 9 -24t36 -6h4q27 0 36.5 6.5t9.5 23.5v26q0 9 9 9h58zM56 170v305q0 93 53.5 135.5t186.5 42.5h6q133 0 186 -42.5t53 -135.5v-305q0 -93 -53 -135.5t-186 -42.5h-6 q-133 0 -186.5 42.5t-53.5 135.5zM166 170q0 -45 25.5 -61.5t104.5 -16.5h6q79 0 104 16.5t25 61.5v305q0 45 -25 61.5t-104 16.5h-6q-79 0 -104.5 -16.5t-25.5 -61.5v-305z" />
<glyph unicode="&#x14f;" horiz-adv-x="534" d="M381 691q9 0 9 -9v-26q0 -91 -122 -91h-4q-63 0 -92 22.5t-29 68.5v26q0 9 9 9h58q9 0 9 -9v-26q0 -18 9 -24t36 -6h4q27 0 36.5 6.5t9.5 23.5v26q0 9 9 9h58zM51 165v177q0 89 49 131t164 42h6q115 0 164 -42t49 -131v-177q0 -89 -49 -131t-164 -42h-6q-115 0 -164 42 t-49 131zM161 165q0 -41 21 -57t82 -16h6q61 0 82 16t21 57v177q0 41 -21 57t-82 16h-6q-61 0 -82 -16t-21 -57v-177z" />
<glyph unicode="&#x150;" horiz-adv-x="598" d="M190 706q-13 0 -8 12l52 104q3 7 10 7h74q12 0 7 -11l-66 -105q-4 -7 -11 -7h-58zM332 706q-11 0 -6 12l51 104q3 7 11 7h73q13 0 7 -11l-66 -105q-4 -7 -11 -7h-59zM56 170v305q0 93 53.5 135.5t186.5 42.5h6q133 0 186 -42.5t53 -135.5v-305q0 -93 -53 -135.5 t-186 -42.5h-6q-133 0 -186.5 42.5t-53.5 135.5zM166 170q0 -45 25.5 -61.5t104.5 -16.5h6q79 0 104 16.5t25 61.5v305q0 45 -25 61.5t-104 16.5h-6q-79 0 -104.5 -16.5t-25.5 -61.5v-305z" />
<glyph unicode="&#x151;" horiz-adv-x="534" d="M158 568q-13 0 -8 12l52 104q3 7 10 7h74q12 0 7 -11l-66 -105q-4 -7 -11 -7h-58zM300 568q-11 0 -6 12l51 104q3 7 11 7h73q13 0 7 -11l-66 -105q-4 -7 -11 -7h-59zM51 165v177q0 89 49 131t164 42h6q115 0 164 -42t49 -131v-177q0 -89 -49 -131t-164 -42h-6 q-115 0 -164 42t-49 131zM161 165q0 -41 21 -57t82 -16h6q61 0 82 16t21 57v177q0 41 -21 57t-82 16h-6q-61 0 -82 -16t-21 -57v-177z" />
<glyph unicode="&#x152;" horiz-adv-x="864" d="M819 545h-284v-169h254q10 0 10 -9v-81q0 -10 -10 -10h-254v-176h284q10 0 10 -9v-82q0 -9 -10 -9h-384h-1q-86 -8 -133 -8h-5q-133 0 -186.5 42.5t-53.5 135.5v305q0 93 53.5 135.5t186.5 42.5h5q47 0 133 -8h1h384q10 0 10 -9v-82q0 -9 -10 -9zM296 92h5q51 0 124 9 v443q-74 9 -124 9h-5q-79 0 -104.5 -16.5t-25.5 -61.5v-305q0 -45 25.5 -61.5t104.5 -16.5z" />
<glyph unicode="&#x153;" horiz-adv-x="826" d="M771 228h-298v-63q0 -42 20 -59t76 -17h6q57 0 77 16.5t20 59.5v1q0 9 9 9h90q9 0 9 -9v-1q0 -89 -47.5 -131t-157.5 -42h-6q-106 0 -151 48q-45 -48 -153 -48h-6q-112 0 -160 42t-48 131v177q0 88 48.5 130.5t159.5 42.5h6q108 0 153 -49q44 49 151 49h6 q110 0 157.5 -42t47.5 -131v-104q0 -10 -9 -10zM569 418q-56 0 -76 -17t-20 -59v-34h199v34q0 43 -20 59.5t-77 16.5h-6zM363 165v177q0 40 -20.5 56.5t-77.5 16.5h-6q-57 0 -77.5 -16.5t-20.5 -56.5v-177q0 -41 20 -57t78 -16h6q58 0 78 16t20 57z" />
<glyph unicode="&#x154;" horiz-adv-x="556" d="M209 706q-15 0 -5 12l99 106q4 5 12 5h96q6 0 7.5 -3.5t-3.5 -7.5l-120 -107q-5 -5 -11 -5h-75zM514 12q3 -5 1 -8.5t-7 -3.5h-105q-8 0 -12 7l-111 219h-104v-217q0 -9 -9 -9h-91q-10 0 -10 9v627q0 9 10 9h250q95 0 139 -42t44 -132v-71q0 -141 -114 -167zM176 545 v-219h124q62 0 80.5 14.5t18.5 59.5v71q0 45 -18.5 59.5t-80.5 14.5h-124z" />
<glyph unicode="&#x155;" horiz-adv-x="330" d="M324 691q6 0 7.5 -3.5t-3.5 -7.5l-120 -107q-5 -5 -11 -5h-75q-15 0 -5 12l99 106q4 5 12 5h96zM310 515q9 0 9 -9v-82q0 -9 -9 -9h-21q-72 0 -118 -30v-376q0 -9 -9 -9h-91q-10 0 -10 9v489q0 9 10 9h55q7 0 12 -7l21 -34q56 49 130 49h21z" />
<glyph unicode="&#x156;" horiz-adv-x="556" d="M514 12q3 -5 1 -8.5t-7 -3.5h-105q-8 0 -12 7l-111 219h-104v-217q0 -9 -9 -9h-91q-10 0 -10 9v627q0 9 10 9h250q95 0 139 -42t44 -132v-71q0 -141 -114 -167zM176 545v-219h124q62 0 80.5 14.5t18.5 59.5v71q0 45 -18.5 59.5t-80.5 14.5h-124zM318 -68q9 0 9 -9v-47 q0 -8 -2 -12l-41 -101q-3 -8 -11 -8h-31q-9 0 -9 9v159q0 9 9 9h76z" />
<glyph unicode="&#x157;" horiz-adv-x="330" d="M310 515q9 0 9 -9v-82q0 -9 -9 -9h-21q-72 0 -118 -30v-376q0 -9 -9 -9h-91q-10 0 -10 9v489q0 9 10 9h55q7 0 12 -7l21 -34q56 49 130 49h21zM154 -68q9 0 9 -9v-47q0 -8 -2 -12l-41 -101q-3 -8 -11 -8h-31q-9 0 -9 9v159q0 9 9 9h76z" />
<glyph unicode="&#x158;" horiz-adv-x="556" d="M124 818q-4 4 -2.5 7.5t7.5 3.5h79q8 0 12 -6l54 -64l53 64q5 6 11 6h80q6 0 7.5 -3.5t-2.5 -7.5l-103 -107q-5 -5 -12 -5h-69q-7 0 -12 5zM514 12q3 -5 1 -8.5t-7 -3.5h-105q-8 0 -12 7l-111 219h-104v-217q0 -9 -9 -9h-91q-10 0 -10 9v627q0 9 10 9h250q95 0 139 -42 t44 -132v-71q0 -141 -114 -167zM176 545v-219h124q62 0 80.5 14.5t18.5 59.5v71q0 45 -18.5 59.5t-80.5 14.5h-124z" />
<glyph unicode="&#x159;" horiz-adv-x="330" d="M331 691q6 0 7.5 -3.5t-2.5 -7.5l-103 -107q-5 -5 -12 -5h-69q-7 0 -12 5l-103 107q-4 4 -2.5 7.5t7.5 3.5h79q7 0 12 -6l54 -64l53 64q4 6 11 6h80zM310 515q9 0 9 -9v-82q0 -9 -9 -9h-21q-72 0 -118 -30v-376q0 -9 -9 -9h-91q-10 0 -10 9v489q0 9 10 9h55q7 0 12 -7 l21 -34q56 49 130 49h21z" />
<glyph unicode="&#x15a;" horiz-adv-x="525" d="M198 706q-15 0 -5 12l99 106q4 5 12 5h96q6 0 7.5 -3.5t-3.5 -7.5l-120 -107q-5 -5 -11 -5h-75zM32 168v26q0 9 10 9h91q9 0 9 -9v-26q0 -44 23 -60t95 -16h6q71 0 94 16t23 60v23q0 33 -13 48t-53 24l-138 31q-79 18 -110.5 54.5t-31.5 107.5v21q0 91 51 133.5t172 42.5 h6q121 0 171.5 -42.5t50.5 -133.5v-26q0 -9 -9 -9h-91q-10 0 -10 9v26q0 44 -22.5 60t-89.5 16h-6q-68 0 -90.5 -16t-22.5 -60v-21q0 -30 12 -42.5t52 -22.5l139 -31q79 -17 111 -55.5t32 -113.5v-23q0 -91 -51.5 -133.5t-175.5 -42.5h-6q-125 0 -176.5 42.5t-51.5 133.5z " />
<glyph unicode="&#x15b;" horiz-adv-x="481" d="M176 568q-15 0 -5 12l99 106q4 5 12 5h96q6 0 7.5 -3.5t-3.5 -7.5l-120 -107q-5 -5 -11 -5h-75zM34 135v29q0 10 9 10h90q9 0 9 -10v-29q0 -46 97 -46h6q54 0 74 11.5t20 34.5v13q0 17 -9.5 26t-40.5 17l-133 37q-62 17 -88.5 48.5t-26.5 83.5v13q0 70 46 106t150 36h6 q197 0 197 -142v-30q0 -9 -9 -9h-89q-10 0 -10 9v30q0 45 -89 45h-6q-49 0 -68 -11t-19 -34v-13q0 -16 9.5 -25t41.5 -18l133 -36q62 -17 87.5 -47.5t25.5 -85.5v-13q0 -143 -202 -143h-6q-205 0 -205 143z" />
<glyph unicode="&#x15c;" horiz-adv-x="525" d="M118 706q-6 0 -7.5 4t2.5 8l103 106q5 5 12 5h69q7 0 12 -5l103 -106q4 -4 2.5 -8t-7.5 -4h-80q-7 0 -11 6l-53 65l-54 -65q-5 -6 -12 -6h-79zM350 360q79 -17 111 -55.5t32 -113.5v-23q0 -91 -51.5 -133.5t-175.5 -42.5h-6q-125 0 -176.5 42.5t-51.5 133.5v26q0 9 10 9 h91q9 0 9 -9v-26q0 -44 23 -60t95 -16h6q71 0 94 16t23 60v23q0 33 -13 48t-53 24l-138 31q-79 18 -110.5 54.5t-31.5 107.5v21q0 91 51 133.5t172 42.5h6q121 0 171.5 -42.5t50.5 -133.5v-26q0 -9 -9 -9h-91q-10 0 -10 9v26q0 44 -22.5 60t-89.5 16h-6q-68 0 -90.5 -16 t-22.5 -60v-21q0 -30 12 -42.5t52 -22.5z" />
<glyph unicode="&#x15d;" horiz-adv-x="481" d="M96 568q-6 0 -7.5 4t2.5 8l103 106q5 5 12 5h69q7 0 12 -5l103 -106q4 -4 2.5 -8t-7.5 -4h-80q-7 0 -11 6l-53 65l-54 -65q-5 -6 -12 -6h-79zM334 281q62 -17 87.5 -47.5t25.5 -85.5v-13q0 -143 -202 -143h-6q-205 0 -205 143v29q0 10 9 10h90q9 0 9 -10v-29 q0 -46 97 -46h6q54 0 74 11.5t20 34.5v13q0 17 -9.5 26t-40.5 17l-133 37q-62 17 -88.5 48.5t-26.5 83.5v13q0 70 46 106t150 36h6q197 0 197 -142v-30q0 -9 -9 -9h-89q-10 0 -10 9v30q0 45 -89 45h-6q-49 0 -68 -11t-19 -34v-13q0 -16 9.5 -25t41.5 -18z" />
<glyph unicode="&#x15e;" horiz-adv-x="525" d="M350 360q79 -17 111 -55.5t32 -113.5v-23q0 -91 -51.5 -133.5t-175.5 -42.5l-4 -44h21q55 0 77 -17t22 -58v-16q0 -42 -22 -59.5t-77 -17.5h-92q-9 0 -9 9v45q0 9 9 9h89q17 0 22.5 3.5t5.5 13.5v13q0 11 -5.5 14.5t-22.5 3.5h-88q-11 0 -9 10l12 94q-88 10 -125.5 52 t-37.5 121v26q0 9 10 9h91q9 0 9 -9v-26q0 -44 23 -60t95 -16h6q71 0 94 16t23 60v23q0 33 -13 48t-53 24l-138 31q-79 18 -110.5 54.5t-31.5 107.5v21q0 91 51 133.5t172 42.5h6q121 0 171.5 -42.5t50.5 -133.5v-26q0 -9 -9 -9h-91q-10 0 -10 9v26q0 44 -22.5 60t-89.5 16 h-6q-68 0 -90.5 -16t-22.5 -60v-21q0 -30 12 -42.5t52 -22.5z" />
<glyph unicode="&#x15f;" horiz-adv-x="481" d="M334 281q62 -17 87.5 -47.5t25.5 -85.5v-13q0 -143 -202 -143h-1l-4 -44h21q55 0 77 -17t22 -58v-16q0 -42 -22 -59.5t-77 -17.5h-92q-9 0 -9 9v45q0 9 9 9h89q17 0 22.5 3.5t5.5 13.5v13q0 11 -5.5 14.5t-22.5 3.5h-88q-11 0 -9 10l12 95q-139 21 -139 139v29q0 10 9 10 h90q9 0 9 -10v-29q0 -46 97 -46h6q54 0 74 11.5t20 34.5v13q0 17 -9.5 26t-40.5 17l-133 37q-62 17 -88.5 48.5t-26.5 83.5v13q0 70 46 106t150 36h6q197 0 197 -142v-30q0 -9 -9 -9h-89q-10 0 -10 9v30q0 45 -89 45h-6q-49 0 -68 -11t-19 -34v-13q0 -16 9.5 -25t41.5 -18z " />
<glyph unicode="&#x160;" horiz-adv-x="525" d="M113 818q-4 4 -2.5 7.5t7.5 3.5h79q7 0 12 -6l54 -64l53 64q4 6 11 6h80q6 0 7.5 -3.5t-2.5 -7.5l-103 -107q-5 -5 -12 -5h-69q-7 0 -12 5zM350 360q79 -17 111 -55.5t32 -113.5v-23q0 -91 -51.5 -133.5t-175.5 -42.5h-6q-125 0 -176.5 42.5t-51.5 133.5v26q0 9 10 9h91 q9 0 9 -9v-26q0 -44 23 -60t95 -16h6q71 0 94 16t23 60v23q0 33 -13 48t-53 24l-138 31q-79 18 -110.5 54.5t-31.5 107.5v21q0 91 51 133.5t172 42.5h6q121 0 171.5 -42.5t50.5 -133.5v-26q0 -9 -9 -9h-91q-10 0 -10 9v26q0 44 -22.5 60t-89.5 16h-6q-68 0 -90.5 -16 t-22.5 -60v-21q0 -30 12 -42.5t52 -22.5z" />
<glyph unicode="&#x161;" horiz-adv-x="481" d="M91 680q-4 4 -2.5 7.5t7.5 3.5h79q7 0 12 -6l54 -64l53 64q4 6 11 6h80q6 0 7.5 -3.5t-2.5 -7.5l-103 -107q-5 -5 -12 -5h-69q-7 0 -12 5zM334 281q62 -17 87.5 -47.5t25.5 -85.5v-13q0 -143 -202 -143h-6q-205 0 -205 143v29q0 10 9 10h90q9 0 9 -10v-29q0 -46 97 -46h6 q54 0 74 11.5t20 34.5v13q0 17 -9.5 26t-40.5 17l-133 37q-62 17 -88.5 48.5t-26.5 83.5v13q0 70 46 106t150 36h6q197 0 197 -142v-30q0 -9 -9 -9h-89q-10 0 -10 9v30q0 45 -89 45h-6q-49 0 -68 -11t-19 -34v-13q0 -16 9.5 -25t41.5 -18z" />
<glyph unicode="&#x162;" horiz-adv-x="467" d="M447 645q10 0 10 -9v-82q0 -9 -10 -9h-158v-536q0 -9 -10 -9h-91q-9 0 -9 9v536h-159q-10 0 -10 9v82q0 9 10 9h427zM272 -68q9 0 9 -9v-47q0 -8 -2 -12l-41 -101q-3 -8 -11 -8h-31q-9 0 -9 9v159q0 9 9 9h76z" />
<glyph unicode="&#x163;" horiz-adv-x="347" d="M316 91q9 0 9 -9v-77q0 -9 -9 -9h-59q-94 0 -133.5 38t-39.5 130v251h-69q-10 0 -10 9v44q0 10 9 11l70 13v144q0 9 10 9h91q9 0 9 -9v-129h120q9 0 9 -9v-74q0 -9 -9 -9h-120v-253q0 -40 16 -55.5t58 -15.5h48zM239 -68q9 0 9 -9v-47q0 -8 -2 -12l-41 -101q-3 -8 -11 -8 h-31q-9 0 -9 9v159q0 9 9 9h76z" />
<glyph unicode="&#x164;" horiz-adv-x="467" d="M84 818q-4 4 -2.5 7.5t7.5 3.5h79q8 0 12 -6l54 -64l53 64q5 6 11 6h80q6 0 7.5 -3.5t-2.5 -7.5l-103 -107q-5 -5 -12 -5h-69q-7 0 -12 5zM447 645q10 0 10 -9v-82q0 -9 -10 -9h-158v-536q0 -9 -10 -9h-91q-9 0 -9 9v536h-159q-10 0 -10 9v82q0 9 10 9h427z" />
<glyph unicode="&#x165;" horiz-adv-x="346" d="M335 771q9 0 9 -9v-47q0 -8 -2 -12l-41 -101q-3 -8 -11 -8h-31q-9 0 -9 9v159q0 9 9 9h76zM316 91q9 0 9 -9v-77q0 -9 -9 -9h-59q-94 0 -133.5 38t-39.5 130v251h-69q-10 0 -10 9v44q0 10 9 11l70 13v144q0 9 10 9h91q9 0 9 -9v-129h120q9 0 9 -9v-74q0 -9 -9 -9h-120 v-253q0 -40 16 -55.5t58 -15.5h48z" />
<glyph unicode="&#x166;" horiz-adv-x="467" d="M447 645q10 0 10 -9v-82q0 -9 -10 -9h-158v-187h91q9 0 9 -10v-51q0 -9 -9 -9h-91v-279q0 -9 -10 -9h-91q-9 0 -9 9v279h-92q-9 0 -9 9v51q0 10 9 10h92v187h-159q-10 0 -10 9v82q0 9 10 9h427z" />
<glyph unicode="&#x167;" horiz-adv-x="347" d="M316 91q9 0 9 -9v-77q0 -9 -9 -9h-59q-94 0 -133.5 38t-39.5 130v77h-67q-9 0 -9 9v51q0 10 9 10h67v104h-69q-10 0 -10 9v44q0 10 9 11l70 13v144q0 9 10 9h91q9 0 9 -9v-129h120q9 0 9 -9v-74q0 -9 -9 -9h-120v-104h116q9 0 9 -10v-51q0 -9 -9 -9h-116v-79 q0 -40 16 -55.5t58 -15.5h48z" />
<glyph unicode="&#x168;" horiz-adv-x="593" d="M366 700q-30 0 -56 17l-70 47q-10 7 -17 7t-7 -11v-39q0 -10 -9 -10h-48q-9 0 -9 10v34q0 38 20.5 59t56.5 21q31 0 56 -17l70 -47q11 -7 16 -7q8 0 8 11v39q0 10 9 10h47q10 0 10 -10v-34q0 -38 -20.5 -59t-56.5 -21zM61 170v466q0 9 10 9h91q9 0 9 -9v-466 q0 -45 24 -61.5t98 -16.5h6q74 0 98.5 16.5t24.5 61.5v466q0 9 9 9h91q10 0 10 -9v-466q0 -93 -52.5 -135.5t-180.5 -42.5h-6q-127 0 -179.5 42.5t-52.5 135.5z" />
<glyph unicode="&#x169;" horiz-adv-x="535" d="M130 573q-9 0 -9 10v34q0 38 20.5 59t56.5 21q30 0 56 -17l70 -47q11 -7 16 -7q8 0 8 11v39q0 10 9 10h47q10 0 10 -10v-34q0 -38 -20.5 -59t-56.5 -21q-31 0 -56 17l-70 47q-10 7 -17 7t-7 -11v-39q0 -10 -9 -10h-48zM465 507q9 0 9 -9v-489q0 -9 -9 -9h-56q-7 0 -12 7 l-19 29q-75 -44 -164 -44q-85 0 -121.5 40t-36.5 135v331q0 9 10 9h91q9 0 9 -9v-318q0 -55 13 -71.5t58 -16.5q65 0 127 25v381q0 9 9 9h92z" />
<glyph unicode="&#x16a;" horiz-adv-x="593" d="M186 714q-10 0 -10 9v60q0 9 10 9h220q10 0 10 -9v-60q0 -9 -10 -9h-220zM61 170v466q0 9 10 9h91q9 0 9 -9v-466q0 -45 24 -61.5t98 -16.5h6q74 0 98.5 16.5t24.5 61.5v466q0 9 9 9h91q10 0 10 -9v-466q0 -93 -52.5 -135.5t-180.5 -42.5h-6q-127 0 -179.5 42.5 t-52.5 135.5z" />
<glyph unicode="&#x16b;" horiz-adv-x="535" d="M157 576q-10 0 -10 9v60q0 9 10 9h220q10 0 10 -9v-60q0 -9 -10 -9h-220zM465 507q9 0 9 -9v-489q0 -9 -9 -9h-56q-7 0 -12 7l-19 29q-75 -44 -164 -44q-85 0 -121.5 40t-36.5 135v331q0 9 10 9h91q9 0 9 -9v-318q0 -55 13 -71.5t58 -16.5q65 0 127 25v381q0 9 9 9h92z " />
<glyph unicode="&#x16c;" horiz-adv-x="593" d="M410 829q9 0 9 -9v-26q0 -91 -122 -91h-4q-63 0 -92 22.5t-29 68.5v26q0 9 9 9h58q9 0 9 -9v-26q0 -18 9 -24t36 -6h4q27 0 36.5 6.5t9.5 23.5v26q0 9 9 9h58zM61 170v466q0 9 10 9h91q9 0 9 -9v-466q0 -45 24 -61.5t98 -16.5h6q74 0 98.5 16.5t24.5 61.5v466q0 9 9 9h91 q10 0 10 -9v-466q0 -93 -52.5 -135.5t-180.5 -42.5h-6q-127 0 -179.5 42.5t-52.5 135.5z" />
<glyph unicode="&#x16d;" horiz-adv-x="535" d="M264 565q-63 0 -92 22.5t-29 68.5v26q0 9 9 9h58q9 0 9 -9v-26q0 -18 9 -24t36 -6h4q27 0 36.5 6.5t9.5 23.5v26q0 9 9 9h58q9 0 9 -9v-26q0 -91 -122 -91h-4zM465 507q9 0 9 -9v-489q0 -9 -9 -9h-56q-7 0 -12 7l-19 29q-75 -44 -164 -44q-85 0 -121.5 40t-36.5 135v331 q0 9 10 9h91q9 0 9 -9v-318q0 -55 13 -71.5t58 -16.5q65 0 127 25v381q0 9 9 9h92z" />
<glyph unicode="&#x16e;" horiz-adv-x="593" d="M295 696q-58 0 -80 16.5t-22 55.5v18q0 39 22 56t80 17h2q58 0 80.5 -17t22.5 -56v-18q0 -39 -22.5 -55.5t-80.5 -16.5h-2zM295 746h2q29 0 37.5 4.5t8.5 17.5v18q0 13 -8 17.5t-38 4.5h-2q-29 0 -37 -4.5t-8 -17.5v-18q0 -13 8 -17.5t37 -4.5zM61 170v466q0 9 10 9h91 q9 0 9 -9v-466q0 -45 24 -61.5t98 -16.5h6q74 0 98.5 16.5t24.5 61.5v466q0 9 9 9h91q10 0 10 -9v-466q0 -93 -52.5 -135.5t-180.5 -42.5h-6q-127 0 -179.5 42.5t-52.5 135.5z" />
<glyph unicode="&#x16f;" horiz-adv-x="535" d="M266 558q-58 0 -80 16.5t-22 55.5v18q0 39 22 56t80 17h2q58 0 80.5 -17t22.5 -56v-18q0 -39 -22.5 -55.5t-80.5 -16.5h-2zM221 648v-18q0 -13 8 -17.5t37 -4.5h2q29 0 37.5 4.5t8.5 17.5v18q0 13 -8 17.5t-38 4.5h-2q-29 0 -37 -4.5t-8 -17.5zM465 507q9 0 9 -9v-489 q0 -9 -9 -9h-56q-7 0 -12 7l-19 29q-75 -44 -164 -44q-85 0 -121.5 40t-36.5 135v331q0 9 10 9h91q9 0 9 -9v-318q0 -55 13 -71.5t58 -16.5q65 0 127 25v381q0 9 9 9h92z" />
<glyph unicode="&#x170;" horiz-adv-x="593" d="M187 706q-13 0 -8 12l52 104q3 7 10 7h74q13 0 7 -11l-66 -105q-4 -7 -11 -7h-58zM329 706q-11 0 -6 12l51 104q3 7 11 7h73q12 0 7 -11l-66 -105q-4 -7 -11 -7h-59zM61 170v466q0 9 10 9h91q9 0 9 -9v-466q0 -45 24 -61.5t98 -16.5h6q74 0 98.5 16.5t24.5 61.5v466 q0 9 9 9h91q10 0 10 -9v-466q0 -93 -52.5 -135.5t-180.5 -42.5h-6q-127 0 -179.5 42.5t-52.5 135.5z" />
<glyph unicode="&#x171;" horiz-adv-x="535" d="M158 568q-13 0 -8 12l52 104q3 7 10 7h74q12 0 7 -11l-66 -105q-4 -7 -11 -7h-58zM300 568q-11 0 -6 12l51 104q3 7 11 7h73q13 0 7 -11l-66 -105q-4 -7 -11 -7h-59zM465 507q9 0 9 -9v-489q0 -9 -9 -9h-56q-7 0 -12 7l-19 29q-75 -44 -164 -44q-85 0 -121.5 40 t-36.5 135v331q0 9 10 9h91q9 0 9 -9v-318q0 -55 13 -71.5t58 -16.5q65 0 127 25v381q0 9 9 9h92z" />
<glyph unicode="&#x172;" horiz-adv-x="593" d="M522 645q10 0 10 -9v-466q0 -84 -42 -126.5t-142 -49.5l-49 -53q-25 -26 -25 -54v-6q0 -14 7 -19t27 -5h37q9 0 9 -10v-58q0 -9 -9 -9h-35q-122 0 -122 94v6q0 27 12 47.5t43 48.5l19 17q-110 4 -155.5 47t-45.5 130v466q0 9 10 9h91q9 0 9 -9v-466q0 -45 24 -61.5 t98 -16.5h6q74 0 98.5 16.5t24.5 61.5v466q0 9 9 9h91z" />
<glyph unicode="&#x173;" horiz-adv-x="535" d="M465 507q9 0 9 -9v-490q0 -7 -5 -13l-50 -54q-25 -26 -25 -54v-6q0 -14 7 -19t27 -5h37q9 0 9 -10v-58q0 -9 -9 -9h-35q-122 0 -122 94v6q0 27 12 47.5t43 48.5l35 30l-1 1l-19 29q-75 -44 -164 -44q-85 0 -121.5 40t-36.5 135v331q0 9 10 9h91q9 0 9 -9v-318 q0 -55 13 -71.5t58 -16.5q65 0 127 25v381q0 9 9 9h92z" />
<glyph unicode="&#x174;" horiz-adv-x="849" d="M280 706q-6 0 -7.5 4t2.5 8l103 106q5 5 12 5h69q7 0 12 -5l103 -106q4 -4 2.5 -8t-7.5 -4h-80q-7 0 -11 6l-53 65l-54 -65q-5 -6 -12 -6h-79zM825 645q11 0 8 -11l-174 -626q-1 -8 -10 -8h-93q-8 0 -11 8l-82 299q-26 98 -38 178q-13 -80 -39 -178l-82 -299 q-1 -8 -10 -8h-93q-8 0 -11 8l-174 626q-3 11 8 11h98q8 0 10 -8l81 -299q24 -90 35 -161q12 74 36 162l82 298q2 8 11 8h96q8 0 10 -8l82 -298q24 -82 37 -161q11 70 35 160l80 299q2 8 11 8h97z" />
<glyph unicode="&#x175;" horiz-adv-x="747" d="M229 568q-6 0 -7.5 4t2.5 8l103 106q5 5 12 5h69q7 0 12 -5l103 -106q4 -4 2.5 -8t-7.5 -4h-80q-7 0 -11 6l-53 65l-54 -65q-4 -6 -12 -6h-79zM729 507q11 0 8 -10l-139 -489q-2 -8 -10 -8h-111q-8 0 -10 8l-51 176q-28 94 -43 199q-15 -105 -43 -199l-50 -176 q-2 -8 -10 -8h-111q-8 0 -11 8l-138 489q-3 10 8 10h96q8 0 11 -8l52 -201q26 -100 40 -190q14 89 42 190l58 201q1 8 10 8h92q8 0 11 -8l57 -201q27 -93 43 -189q13 88 39 189l53 201q2 8 11 8h96z" />
<glyph unicode="&#x176;" horiz-adv-x="501" d="M106 706q-6 0 -7.5 4t2.5 8l103 106q5 5 12 5h69q7 0 12 -5l103 -106q4 -4 2.5 -8t-7.5 -4h-80q-7 0 -11 6l-53 65l-54 -65q-5 -6 -12 -6h-79zM496 645q5 0 6.5 -3.5t-0.5 -7.5l-196 -396v-229q0 -9 -10 -9h-91q-9 0 -9 9v227l-197 398q-5 11 6 11h100q7 0 10 -7l73 -151 q41 -84 63 -157q21 72 62 157l73 151q3 7 11 7h99z" />
<glyph unicode="&#x177;" horiz-adv-x="464" d="M89 568q-6 0 -7.5 4t2.5 8l103 106q5 5 12 5h69q7 0 12 -5l103 -106q4 -4 2.5 -8t-7.5 -4h-80q-6 0 -11 6l-53 65l-54 -65q-4 -6 -12 -6h-79zM456 507q11 0 8 -10l-243 -690q-3 -8 -11 -8h-94q-12 0 -7 11l71 184l-175 503q-3 10 7 10h97q8 0 11 -8l66 -202 q32 -97 49 -188q17 91 49 188l66 202q3 8 11 8h95z" />
<glyph unicode="&#x178;" horiz-adv-x="501" d="M133 711q-10 0 -10 9v100q0 9 10 9h77q9 0 9 -9v-100q0 -9 -9 -9h-77zM293 711q-10 0 -10 9v100q0 9 10 9h77q9 0 9 -9v-100q0 -9 -9 -9h-77zM496 645q5 0 6.5 -3.5t-0.5 -7.5l-196 -396v-229q0 -9 -10 -9h-91q-9 0 -9 9v227l-197 398q-5 11 6 11h100q7 0 10 -7l73 -151 q41 -84 63 -157q21 72 62 157l73 151q3 7 11 7h99z" />
<glyph unicode="&#x179;" horiz-adv-x="455" d="M165 706q-15 0 -5 12l99 106q4 5 12 5h96q6 0 7.5 -3.5t-3.5 -7.5l-120 -107q-5 -5 -11 -5h-75zM424 100q9 0 9 -9v-82q0 -9 -9 -9h-393q-9 0 -9 9v66q0 7 3 13l206 356q41 69 65 101h-254q-9 0 -9 9v82q0 9 9 9h370q10 0 10 -9v-66q0 -7 -3 -13l-208 -358 q-38 -66 -64 -99h277z" />
<glyph unicode="&#x17a;" horiz-adv-x="410" d="M141 568q-15 0 -5 12l99 106q4 5 12 5h96q6 0 7.5 -3.5t-3.5 -7.5l-120 -107q-5 -5 -11 -5h-75zM378 99q9 0 9 -10v-80q0 -9 -9 -9h-346q-9 0 -9 9v67q0 7 4 12l184 270q22 32 39 50h-208q-9 0 -9 10v80q0 9 9 9h326q9 0 9 -9v-69q0 -6 -3 -12l-184 -270q-22 -32 -38 -48 h226z" />
<glyph unicode="&#x17b;" horiz-adv-x="455" d="M192 711q-10 0 -10 9v100q0 9 10 9h77q9 0 9 -9v-100q0 -9 -9 -9h-77zM424 100q9 0 9 -9v-82q0 -9 -9 -9h-393q-9 0 -9 9v66q0 7 3 13l206 356q41 69 65 101h-254q-9 0 -9 9v82q0 9 9 9h370q10 0 10 -9v-66q0 -7 -3 -13l-208 -358q-38 -66 -64 -99h277z" />
<glyph unicode="&#x17c;" horiz-adv-x="410" d="M168 573q-10 0 -10 9v100q0 9 10 9h77q9 0 9 -9v-100q0 -9 -9 -9h-77zM378 99q9 0 9 -10v-80q0 -9 -9 -9h-346q-9 0 -9 9v67q0 7 4 12l184 270q22 32 39 50h-208q-9 0 -9 10v80q0 9 9 9h326q9 0 9 -9v-69q0 -6 -3 -12l-184 -270q-22 -32 -38 -48h226z" />
<glyph unicode="&#x17d;" horiz-adv-x="455" d="M80 818q-4 4 -2.5 7.5t7.5 3.5h79q8 0 12 -6l54 -64l53 64q5 6 11 6h80q6 0 7.5 -3.5t-2.5 -7.5l-103 -107q-5 -5 -12 -5h-69q-7 0 -12 5zM424 100q9 0 9 -9v-82q0 -9 -9 -9h-393q-9 0 -9 9v66q0 7 3 13l206 356q41 69 65 101h-254q-9 0 -9 9v82q0 9 9 9h370q10 0 10 -9 v-66q0 -7 -3 -13l-208 -358q-38 -66 -64 -99h277z" />
<glyph unicode="&#x17e;" horiz-adv-x="410" d="M56 680q-4 4 -2.5 7.5t7.5 3.5h79q8 0 12 -6l54 -64l53 64q5 6 11 6h80q6 0 7.5 -3.5t-2.5 -7.5l-103 -107q-5 -5 -12 -5h-69q-7 0 -12 5zM378 99q9 0 9 -10v-80q0 -9 -9 -9h-346q-9 0 -9 9v67q0 7 4 12l184 270q22 32 39 50h-208q-9 0 -9 10v80q0 9 9 9h326q9 0 9 -9 v-69q0 -6 -3 -12l-184 -270q-22 -32 -38 -48h226z" />
<glyph unicode="&#x1cd;" horiz-adv-x="562" d="M132 818q-4 4 -2.5 7.5t7.5 3.5h79q8 0 12 -6l54 -64l53 64q5 6 11 6h80q6 0 7.5 -3.5t-2.5 -7.5l-103 -107q-5 -5 -12 -5h-69q-7 0 -12 5zM550 10q3 -10 -7 -10h-96q-8 0 -11 7l-44 131h-222l-44 -131q-3 -7 -12 -7h-95q-11 0 -8 10l217 628q3 7 11 7h84q8 0 11 -7z M203 237h155l-34 102q-31 95 -43 151q-14 -65 -44 -151z" />
<glyph unicode="&#x1ce;" horiz-adv-x="517" d="M112 680q-4 4 -2.5 7.5t7.5 3.5h79q8 0 12 -6l54 -64l53 64q5 6 11 6h80q6 0 7.5 -3.5t-2.5 -7.5l-103 -107q-5 -5 -12 -5h-69q-7 0 -12 5zM262 515q105 0 152 -41.5t47 -126.5v-338q0 -9 -9 -9h-56q-7 0 -12 7l-18 29q-67 -44 -156 -44q-172 0 -172 146v17 q0 69 40.5 101.5t131.5 32.5h142v58q0 38 -19 53.5t-71 15.5h-6q-51 0 -70 -15.5t-19 -52.5v-2q0 -9 -9 -9h-90q-10 0 -10 9v2q0 84 47 125.5t151 41.5h6zM147 138q0 -29 17.5 -41.5t62.5 -12.5q65 0 125 27v96h-147q-31 0 -44.5 -12.5t-13.5 -39.5v-17z" />
<glyph unicode="&#x1fc;" horiz-adv-x="843" d="M498 706q-15 0 -5 12l99 106q4 5 12 5h96q6 0 7.5 -3.5t-3.5 -7.5l-120 -107q-5 -5 -11 -5h-75zM799 545h-284v-169h254q10 0 10 -9v-81q0 -10 -10 -10h-254v-176h284q10 0 10 -9v-82q0 -9 -10 -9h-384q-10 0 -10 9v129h-212l-64 -131q-3 -7 -11 -7h-99q-13 0 -7 11 l308 627q3 7 11 7h468q10 0 10 -9v-82q0 -9 -10 -9zM241 235h164v311h-12z" />
<glyph unicode="&#x1fd;" horiz-adv-x="801" d="M334 568q-15 0 -5 12l99 106q4 5 12 5h96q6 0 7.5 -3.5t-3.5 -7.5l-120 -107q-5 -5 -11 -5h-75zM746 229h-295v-64q0 -42 19.5 -59t75.5 -17h6q56 0 75.5 16.5t19.5 58.5v2q0 9 9 9h90q9 0 9 -9v-2q0 -88 -47 -130t-156 -42h-6q-124 0 -170 56q-75 -56 -172 -56 q-82 0 -124 37.5t-42 108.5v17q0 69 40 102t128 33h136v52q0 41 -18 57.5t-67 16.5h-6q-49 0 -67 -16t-18 -57v-2q0 -9 -9 -9h-91q-9 0 -9 9v2q0 87 46 129.5t148 42.5h6q98 0 141 -48q44 48 148 48h6q109 0 156 -42.5t47 -130.5v-103q0 -10 -9 -10zM546 418 q-56 0 -75.5 -17t-19.5 -59v-36h196v36q0 42 -19.5 59t-75.5 17h-6zM222 84q63 0 124 30q-4 20 -4 51v42h-140q-56 0 -56 -52v-17q0 -28 17.5 -41t58.5 -13z" />
<glyph unicode="&#x1fe;" horiz-adv-x="598" d="M234 706q-15 0 -5 12l99 106q4 5 12 5h96q6 0 7.5 -3.5t-3.5 -7.5l-120 -107q-5 -5 -11 -5h-75zM477 618q64 -40 64 -143v-305q0 -93 -53 -135.5t-186 -42.5h-6q-76 0 -124 13l-27 -54q-4 -7 -11 -7h-44q-5 0 -6.5 3t0.5 8l36 72q-64 42 -64 143v305q0 93 53.5 135.5 t186.5 42.5h6q75 0 123 -13l27 55q3 7 11 7h43q12 0 7 -11zM166 170q0 -26 6 -39l206 416q-27 6 -76 6h-6q-79 0 -104.5 -16.5t-25.5 -61.5v-305zM431 170v305q0 27 -6 39l-207 -416q28 -6 78 -6h6q79 0 104 16.5t25 61.5z" />
<glyph unicode="&#x1ff;" horiz-adv-x="534" d="M202 568q-15 0 -5 12l99 106q4 5 12 5h96q6 0 7.5 -3.5t-3.5 -7.5l-120 -107q-5 -5 -11 -5h-75zM416 485q67 -39 67 -143v-177q0 -89 -49 -131t-164 -42h-6q-49 0 -89 8l-24 -49q-4 -7 -11 -7h-44q-5 0 -6.5 3t0.5 8l32 64q-71 39 -71 146v177q0 89 49 131t164 42h6 q54 0 93 -9l22 43q3 7 11 7h43q13 0 7 -11zM161 165q0 -30 10 -46l146 293q-19 3 -47 3h-6q-61 0 -82 -16t-21 -57v-177zM373 165v177q0 26 -7 41l-144 -289q24 -2 42 -2h6q61 0 82 16t21 57z" />
<glyph unicode="&#x218;" horiz-adv-x="525" d="M32 168v26q0 9 10 9h91q9 0 9 -9v-26q0 -44 23 -60t95 -16h6q71 0 94 16t23 60v23q0 33 -13 48t-53 24l-138 31q-79 18 -110.5 54.5t-31.5 107.5v21q0 91 51 133.5t172 42.5h6q121 0 171.5 -42.5t50.5 -133.5v-26q0 -9 -9 -9h-91q-10 0 -10 9v26q0 44 -22.5 60t-89.5 16 h-6q-68 0 -90.5 -16t-22.5 -60v-21q0 -30 12 -42.5t52 -22.5l139 -31q79 -17 111 -55.5t32 -113.5v-23q0 -91 -51.5 -133.5t-175.5 -42.5h-6q-125 0 -176.5 42.5t-51.5 133.5zM225 -245q-9 0 -9 9v159q0 9 9 9h76q9 0 9 -9v-47q0 -8 -2 -12l-41 -101q-3 -8 -11 -8h-31z" />
<glyph unicode="&#x219;" horiz-adv-x="481" d="M34 135v29q0 10 9 10h90q9 0 9 -10v-29q0 -46 97 -46h6q54 0 74 11.5t20 34.5v13q0 17 -9.5 26t-40.5 17l-133 37q-62 17 -88.5 48.5t-26.5 83.5v13q0 70 46 106t150 36h6q197 0 197 -142v-30q0 -9 -9 -9h-89q-10 0 -10 9v30q0 45 -89 45h-6q-49 0 -68 -11t-19 -34v-13 q0 -16 9.5 -25t41.5 -18l133 -36q62 -17 87.5 -47.5t25.5 -85.5v-13q0 -143 -202 -143h-6q-205 0 -205 143zM203 -245q-9 0 -9 9v159q0 9 9 9h76q9 0 9 -9v-47q0 -8 -2 -12l-41 -101q-3 -8 -11 -8h-31z" />
<glyph unicode="&#x21a;" horiz-adv-x="467" d="M447 645q10 0 10 -9v-82q0 -9 -10 -9h-158v-536q0 -9 -10 -9h-91q-9 0 -9 9v536h-159q-10 0 -10 9v82q0 9 10 9h427zM272 -68q9 0 9 -9v-47q0 -8 -2 -12l-41 -101q-3 -8 -11 -8h-31q-9 0 -9 9v159q0 9 9 9h76z" />
<glyph unicode="&#x21b;" horiz-adv-x="347" d="M316 91q9 0 9 -9v-77q0 -9 -9 -9h-59q-94 0 -133.5 38t-39.5 130v251h-69q-10 0 -10 9v44q0 10 9 11l70 13v144q0 9 10 9h91q9 0 9 -9v-129h120q9 0 9 -9v-74q0 -9 -9 -9h-120v-253q0 -40 16 -55.5t58 -15.5h48zM239 -68q9 0 9 -9v-47q0 -8 -2 -12l-41 -101q-3 -8 -11 -8 h-31q-9 0 -9 9v159q0 9 9 9h76z" />
<glyph unicode="&#x237;" horiz-adv-x="232" d="M-44 -208q-9 0 -9 9v78q0 9 9 9h36q40 0 54.5 16t14.5 60v534q0 9 10 9h91q9 0 9 -9v-541q0 -89 -39 -127t-135 -38h-41z" />
<glyph unicode="&#x2c6;" horiz-adv-x="534" d="M417 580q4 -4 2.5 -8t-7.5 -4h-80q-6 0 -11 6l-53 65l-54 -65q-4 -6 -12 -6h-79q-6 0 -7.5 4t2.5 8l103 106q5 5 12 5h69q7 0 12 -5z" />
<glyph unicode="&#x2c7;" horiz-adv-x="534" d="M412 691q6 0 7.5 -3.5t-2.5 -7.5l-103 -107q-5 -5 -12 -5h-69q-7 0 -12 5l-103 107q-4 4 -2.5 7.5t7.5 3.5h79q8 0 12 -6l54 -64l53 64q5 6 11 6h80z" />
<glyph unicode="&#x2d8;" horiz-adv-x="534" d="M382 691q9 0 9 -9v-26q0 -91 -122 -91h-4q-63 0 -92 22.5t-29 68.5v26q0 9 9 9h58q9 0 9 -9v-26q0 -18 9 -24t36 -6h4q27 0 36.5 6.5t9.5 23.5v26q0 9 9 9h58z" />
<glyph unicode="&#x2d9;" horiz-adv-x="534" d="M229 573q-10 0 -10 9v100q0 9 10 9h77q9 0 9 -9v-100q0 -9 -9 -9h-77z" />
<glyph unicode="&#x2da;" horiz-adv-x="534" d="M266 558q-58 0 -80 16.5t-22 55.5v18q0 39 22 56t80 17h2q58 0 80.5 -17t22.5 -56v-18q0 -39 -22.5 -55.5t-80.5 -16.5h-2zM266 608h2q29 0 37.5 4.5t8.5 17.5v18q0 13 -8 17.5t-38 4.5h-2q-29 0 -37 -4.5t-8 -17.5v-18q0 -13 8 -17.5t37 -4.5z" />
<glyph unicode="&#x2db;" horiz-adv-x="535" d="M274 -220q-122 0 -122 94v6q0 27 12 47.5t43 48.5l72 63l39 -13v-18q0 -7 -5 -13l-50 -54q-25 -26 -25 -54v-6q0 -14 7 -19t27 -5h37q9 0 9 -10v-58q0 -9 -9 -9h-35z" />
<glyph unicode="&#x2dc;" horiz-adv-x="534" d="M337 562q-31 0 -56 17l-70 47q-10 7 -17 7t-7 -11v-39q0 -10 -9 -10h-48q-9 0 -9 10v34q0 38 20.5 59t56.5 21q30 0 56 -17l70 -47q11 -7 16 -7q8 0 8 11v39q0 10 9 10h47q10 0 10 -10v-34q0 -38 -20.5 -59t-56.5 -21z" />
<glyph unicode="&#x2dd;" horiz-adv-x="535" d="M171 568q-13 0 -8 12l52 104q3 7 10 7h74q13 0 7 -11l-66 -105q-4 -7 -11 -7h-58zM313 568q-11 0 -6 12l51 104q3 7 11 7h73q12 0 7 -11l-66 -105q-4 -7 -11 -7h-59z" />
<glyph unicode="&#x300;" horiz-adv-x="0" d="M-274 568q-7 0 -12 5l-119 107q-5 4 -3.5 7.5t8.5 3.5h95q7 0 11 -5l99 -106q10 -12 -5 -12h-74z" />
<glyph unicode="&#x301;" horiz-adv-x="0" d="M-332 568q-15 0 -5 12l99 106q4 5 12 5h96q6 0 7.5 -3.5t-3.5 -7.5l-120 -107q-5 -5 -11 -5h-75z" />
<glyph unicode="&#x302;" horiz-adv-x="0" d="M-117 580q4 -4 2.5 -8t-7.5 -4h-80q-6 0 -11 6l-53 65l-54 -65q-4 -6 -12 -6h-79q-6 0 -7.5 4t2.5 8l103 106q5 5 12 5h69q7 0 12 -5z" />
<glyph unicode="&#x303;" horiz-adv-x="0" d="M-197 562q-31 0 -56 17l-70 47q-10 7 -17 7t-7 -11v-39q0 -10 -9 -10h-48q-9 0 -9 10v34q0 38 20.5 59t56.5 21q30 0 56 -17l70 -47q11 -7 16 -7q8 0 8 11v39q0 10 9 10h47q10 0 10 -10v-34q0 -38 -20.5 -59t-56.5 -21z" />
<glyph unicode="&#x304;" horiz-adv-x="0" d="M-377 576q-10 0 -10 9v60q0 9 10 9h220q10 0 10 -9v-60q0 -9 -10 -9h-220z" />
<glyph unicode="&#x306;" horiz-adv-x="0" d="M-152 691q9 0 9 -9v-26q0 -91 -122 -91h-4q-63 0 -92 22.5t-29 68.5v26q0 9 9 9h58q9 0 9 -9v-26q0 -18 9 -24t36 -6h4q27 0 36.5 6.5t9.5 23.5v26q0 9 9 9h58z" />
<glyph unicode="&#x307;" horiz-adv-x="0" d="M-305 573q-10 0 -10 9v100q0 9 10 9h77q9 0 9 -9v-100q0 -9 -9 -9h-77z" />
<glyph unicode="&#x308;" horiz-adv-x="0" d="M-385 573q-10 0 -10 9v100q0 9 10 9h77q9 0 9 -9v-100q0 -9 -9 -9h-77zM-225 573q-10 0 -10 9v100q0 9 10 9h77q9 0 9 -9v-100q0 -9 -9 -9h-77z" />
<glyph unicode="&#x30a;" horiz-adv-x="0" d="M-268 558q-58 0 -80 16.5t-22 55.5v18q0 39 22 56t80 17h2q58 0 80.5 -17t22.5 -56v-18q0 -39 -22.5 -55.5t-80.5 -16.5h-2zM-268 608h2q29 0 37.5 4.5t8.5 17.5v18q0 13 -8 17.5t-38 4.5h-2q-29 0 -37 -4.5t-8 -17.5v-18q0 -13 8 -17.5t37 -4.5z" />
<glyph unicode="&#x30b;" horiz-adv-x="0" d="M-376 568q-13 0 -8 12l52 104q3 7 10 7h74q12 0 7 -11l-66 -105q-4 -7 -11 -7h-58zM-234 568q-11 0 -6 12l51 104q3 7 11 7h73q13 0 7 -11l-66 -105q-4 -7 -11 -7h-59z" />
<glyph unicode="&#x30c;" horiz-adv-x="0" d="M-122 691q6 0 7.5 -3.5t-2.5 -7.5l-103 -107q-5 -5 -12 -5h-69q-7 0 -12 5l-103 107q-4 4 -2.5 7.5t7.5 3.5h79q8 0 12 -6l54 -64l53 64q5 6 11 6h80z" />
<glyph unicode="&#x312;" horiz-adv-x="0" d="M-305 745h31q8 0 11 -8l41 -101q2 -4 2 -12v-47q0 -9 -9 -9h-76q-9 0 -9 9v159q0 9 9 9z" />
<glyph unicode="&#x326;" horiz-adv-x="0" d="M-305 -245q-9 0 -9 9v159q0 9 9 9h76q9 0 9 -9v-47q0 -8 -2 -12l-41 -101q-3 -8 -11 -8h-31z" />
<glyph unicode="&#x327;" horiz-adv-x="0" d="M-252 -52q55 0 77 -17t22 -58v-16q0 -42 -22 -59.5t-77 -17.5h-92q-9 0 -9 9v45q0 9 9 9h89q17 0 22.5 3.5t5.5 13.5v13q0 11 -5.5 14.5t-22.5 3.5h-88q-11 0 -9 10l16 125h70l-7 -78h21z" />
<glyph unicode="&#x328;" horiz-adv-x="0" d="M-260 -220q-122 0 -122 94v6q0 27 12 47.5t43 48.5l72 63l39 -13v-18q0 -7 -5 -13l-50 -54q-25 -26 -25 -54v-6q0 -14 7 -19t27 -5h37q9 0 9 -10v-58q0 -9 -9 -9h-35z" />
<glyph unicode="&#x335;" horiz-adv-x="0" d="M-312 281q-9 0 -9 9v51q0 10 9 10h293q9 0 9 -10v-51q0 -9 -9 -9h-293z" />
<glyph unicode="&#x336;" horiz-adv-x="0" d="M-547 457q-9 0 -9 9v46q0 10 9 10h528q9 0 9 -10v-46q0 -9 -9 -9h-528z" />
<glyph unicode="&#x337;" horiz-adv-x="0" d="M-406 -56q-5 0 -6.5 3t0.5 8l295 594q3 7 11 7h43q13 0 7 -11l-295 -594q-4 -7 -11 -7h-44z" />
<glyph unicode="&#x338;" horiz-adv-x="0" d="M-479 -56q-11 0 -6 11l368 740q3 7 11 7h43q13 0 7 -11l-368 -740q-4 -7 -11 -7h-44z" />
<glyph unicode="&#x401;" horiz-adv-x="505" d="M145 711q-10 0 -10 9v100q0 9 10 9h77q9 0 9 -9v-100q0 -9 -9 -9h-77zM305 711q-10 0 -10 9v100q0 9 10 9h77q9 0 9 -9v-100q0 -9 -9 -9h-77zM460 545h-284v-169h254q10 0 10 -9v-81q0 -10 -10 -10h-254v-176h284q10 0 10 -9v-82q0 -9 -10 -9h-384q-10 0 -10 9v627 q0 9 10 9h384q10 0 10 -9v-82q0 -9 -10 -9z" />
<glyph unicode="&#x402;" horiz-adv-x="653" d="M430 436q99 0 142 -44.5t43 -144.5v-90q0 -89 -39.5 -127t-134.5 -38h-65q-9 0 -9 9v78q0 9 9 9h59q40 0 55 16.5t15 59.5v66q0 63 -17 84.5t-67 21.5q-73 0 -151 -31v-296q0 -9 -10 -9h-91q-9 0 -9 9v536h-159q-10 0 -10 9v82q0 9 10 9h427q10 0 10 -9v-82q0 -9 -10 -9 h-158v-140q76 31 160 31z" />
<glyph unicode="&#x403;" horiz-adv-x="458" d="M187 706q-15 0 -5 12l99 106q4 5 12 5h96q6 0 7.5 -3.5t-3.5 -7.5l-120 -107q-5 -5 -11 -5h-75zM432 645q10 0 10 -9v-82q0 -9 -10 -9h-256v-536q0 -9 -9 -9h-91q-10 0 -10 9v627q0 9 10 9h356z" />
<glyph unicode="&#x404;" horiz-adv-x="579" d="M427 432q-10 0 -10 9v34q0 45 -24 61.5t-98 16.5h-6q-74 0 -98.5 -16.5t-24.5 -61.5v-105h192q9 0 9 -9v-76q0 -9 -9 -9h-192v-106q0 -45 24.5 -61.5t98.5 -16.5h6q74 0 98 16.5t24 61.5v34q0 9 10 9h91q9 0 9 -9v-34q0 -93 -52 -135.5t-180 -42.5h-6q-128 0 -180.5 42.5 t-52.5 135.5v305q0 93 52.5 135.5t180.5 42.5h6q128 0 180 -42.5t52 -135.5v-34q0 -9 -9 -9h-91z" />
<glyph unicode="&#x405;" horiz-adv-x="525" d="M32 168v26q0 9 10 9h91q9 0 9 -9v-26q0 -44 23 -60t95 -16h6q71 0 94 16t23 60v23q0 33 -13 48t-53 24l-138 31q-79 18 -110.5 54.5t-31.5 107.5v21q0 91 51 133.5t172 42.5h6q121 0 171.5 -42.5t50.5 -133.5v-26q0 -9 -9 -9h-91q-10 0 -10 9v26q0 44 -22.5 60t-89.5 16 h-6q-68 0 -90.5 -16t-22.5 -60v-21q0 -30 12 -42.5t52 -22.5l139 -31q79 -17 111 -55.5t32 -113.5v-23q0 -91 -51.5 -133.5t-175.5 -42.5h-6q-125 0 -176.5 42.5t-51.5 133.5z" />
<glyph unicode="&#x406;" horiz-adv-x="242" d="M76 0q-10 0 -10 9v627q0 9 10 9h91q9 0 9 -9v-627q0 -9 -9 -9h-91z" />
<glyph unicode="&#x407;" horiz-adv-x="242" d="M3 711q-10 0 -10 9v100q0 9 10 9h77q9 0 9 -9v-100q0 -9 -9 -9h-77zM163 711q-10 0 -10 9v100q0 9 10 9h77q9 0 9 -9v-100q0 -9 -9 -9h-77zM76 0q-10 0 -10 9v627q0 9 10 9h91q9 0 9 -9v-627q0 -9 -9 -9h-91z" />
<glyph unicode="&#x408;" horiz-adv-x="504" d="M227 -8q-111 0 -160 43t-49 135v18q0 10 9 10h92q9 0 9 -10v-18q0 -44 20.5 -61t78.5 -17h6q58 0 79 17t21 61v466q0 9 9 9h91q10 0 10 -9v-466q0 -92 -49 -135t-161 -43h-6z" />
<glyph unicode="&#x409;" horiz-adv-x="877" d="M665 405q97 0 140.5 -41t43.5 -126v-71q0 -85 -43.5 -126t-140.5 -41h-250q-10 0 -10 9v536h-173l-16 -287q-6 -111 -26.5 -167.5t-58.5 -77t-110 -20.5h-11q-8 0 -8 10v81q0 9 9 9h10q47 0 63 29.5t22 135.5l19 378q0 9 10 9h371q9 0 9 -9v-231h150zM739 173v59 q0 45 -18.5 59t-80.5 14h-125v-206h125q62 0 80.5 14.5t18.5 59.5z" />
<glyph unicode="&#x40a;" horiz-adv-x="880" d="M668 384q97 0 140.5 -41t43.5 -126v-50q0 -85 -43.5 -126t-140.5 -41h-251q-9 0 -9 9v275h-232v-275q0 -9 -9 -9h-91q-10 0 -10 9v627q0 9 10 9h91q9 0 9 -9v-252h232v252q0 9 9 9h92q9 0 9 -9v-252h150zM742 173v38q0 45 -18.5 59t-80.5 14h-125v-185h125 q62 0 80.5 14.5t18.5 59.5z" />
<glyph unicode="&#x40b;" horiz-adv-x="653" d="M430 436q99 0 142 -44.5t43 -144.5v-238q0 -9 -10 -9h-91q-9 0 -9 9v221q0 63 -17 84.5t-67 21.5q-73 0 -151 -31v-296q0 -9 -10 -9h-91q-9 0 -9 9v536h-159q-10 0 -10 9v82q0 9 10 9h427q10 0 10 -9v-82q0 -9 -10 -9h-158v-140q76 31 160 31z" />
<glyph unicode="&#x40c;" horiz-adv-x="557" d="M218 706q-15 0 -5 12l99 106q4 5 12 5h96q6 0 7.5 -3.5t-3.5 -7.5l-120 -107q-5 -5 -11 -5h-75zM543 11q6 -11 -6 -11h-106q-7 0 -11 6l-172 268h-72v-265q0 -9 -9 -9h-91q-10 0 -10 9v627q0 9 10 9h91q9 0 9 -9v-262h71l169 265q4 6 11 6h106q12 0 6 -11l-200 -309z" />
<glyph unicode="&#x40d;" horiz-adv-x="633" d="M178 818q-5 4 -3.5 7.5t8.5 3.5h95q7 0 11 -5l99 -106q10 -12 -5 -12h-74q-7 0 -12 5zM557 645q10 0 10 -9v-627q0 -9 -10 -9h-91q-9 0 -9 9v291q0 105 5 180q-34 -79 -97 -180l-179 -294q-4 -6 -11 -6h-99q-10 0 -10 9v627q0 9 10 9h91q9 0 9 -9v-291q0 -107 -5 -182 q31 73 97 182l179 294q5 6 11 6h99z" />
<glyph unicode="&#x40e;" horiz-adv-x="486" d="M243 703q-63 0 -92 22.5t-29 68.5v26q0 9 9 9h58q9 0 9 -9v-26q0 -18 9 -24t36 -6h4q27 0 36.5 6.5t9.5 23.5v26q0 9 9 9h58q9 0 9 -9v-26q0 -91 -122 -91h-4zM483 645q12 0 7 -11l-162 -467q-37 -110 -77 -142t-139 -32h-58q-9 0 -9 9v82q0 9 9 9h63q43 0 60.5 8.5 t31.5 39.5l-200 493q-4 11 8 11h90q8 0 11 -8l82 -201q41 -101 60 -185q19 97 51 187l70 200q3 7 11 7h91z" />
<glyph unicode="&#x40f;" horiz-adv-x="593" d="M518 645q9 0 9 -9v-627q0 -9 -9 -9h-170l-8 -128q0 -10 -10 -10h-66q-10 0 -10 10l-8 128h-170q-10 0 -10 9v627q0 9 10 9h91q9 0 9 -9v-536h241v536q0 9 10 9h91z" />
<glyph unicode="&#x410;" horiz-adv-x="562" d="M550 10q3 -10 -7 -10h-96q-8 0 -11 7l-44 131h-222l-44 -131q-3 -7 -12 -7h-95q-11 0 -8 10l217 628q3 7 11 7h84q8 0 11 -7zM203 237h155l-34 102q-31 95 -43 151q-14 -65 -44 -151z" />
<glyph unicode="&#x411;" horiz-adv-x="557" d="M341 385q97 0 140.5 -41t43.5 -126v-51q0 -85 -43.5 -126t-140.5 -41h-265q-10 0 -10 9v627q0 9 10 9h388q9 0 9 -9v-82q0 -9 -9 -9h-289v-160h166zM415 173v39q0 45 -18.5 59t-80.5 14h-141v-186h141q62 0 80.5 14.5t18.5 59.5z" />
<glyph unicode="&#x412;" horiz-adv-x="562" d="M427 328q55 -9 77 -39.5t22 -89.5v-31q0 -86 -43.5 -127t-140.5 -41h-266q-10 0 -10 9v627q0 9 10 9h242q97 0 140.5 -41t43.5 -127v-24q0 -52 -17 -82t-58 -43zM295 546h-120v-171h120q62 0 80.5 14.5t18.5 58.5v24q0 45 -18.5 59.5t-80.5 14.5zM416 173v30 q0 45 -18.5 59t-80.5 14h-142v-177h142q62 0 80.5 14.5t18.5 59.5z" />
<glyph unicode="&#x413;" horiz-adv-x="458" d="M432 645q10 0 10 -9v-82q0 -9 -10 -9h-256v-536q0 -9 -9 -9h-91q-10 0 -10 9v627q0 9 10 9h356z" />
<glyph unicode="&#x414;" horiz-adv-x="598" d="M577 97q9 0 9 -9v-216q0 -10 -9 -10h-58q-9 0 -11 9l-25 129h-375l-25 -129q-2 -9 -11 -9h-58q-9 0 -9 10v216q0 9 9 9h40q34 63 44 120.5t10 174.5v244q0 9 9 9h394q9 0 9 -9v-539h57zM216 548v-156q0 -117 -9.5 -174.5t-39.5 -120.5h245v451h-196z" />
<glyph unicode="&#x415;" horiz-adv-x="505" d="M460 545h-284v-169h254q10 0 10 -9v-81q0 -10 -10 -10h-254v-176h284q10 0 10 -9v-82q0 -9 -10 -9h-384q-10 0 -10 9v627q0 9 10 9h384q10 0 10 -9v-82q0 -9 -10 -9z" />
<glyph unicode="&#x416;" horiz-adv-x="827" d="M813 11q6 -11 -7 -11h-106q-7 0 -11 7l-148 267h-73v-265q0 -9 -9 -9h-91q-10 0 -10 9v265h-72l-148 -267q-4 -7 -11 -7h-106q-13 0 -7 11l178 314l-174 309q-6 11 7 11h105q8 0 11 -7l146 -264h71v262q0 9 10 9h91q9 0 9 -9v-262h72l146 264q3 7 11 7h105q13 0 7 -11 l-175 -309z" />
<glyph unicode="&#x417;" horiz-adv-x="531" d="M400 327q52 -11 73.5 -40t21.5 -88v-29q0 -93 -51 -135.5t-177 -42.5h-6q-125 0 -176 42.5t-51 135.5v27q0 10 10 10h91q9 0 9 -10v-27q0 -45 23.5 -61.5t93.5 -16.5h6q71 0 94.5 16.5t23.5 61.5v29q0 45 -23.5 61t-94.5 16h-75q-9 0 -9 10v81q0 9 9 9h73q67 0 89.5 16.5 t22.5 61.5v21q0 45 -22 61.5t-88 16.5h-6q-65 0 -87 -16.5t-22 -61.5v-30q0 -10 -10 -10h-91q-9 0 -9 10v30q0 92 50 135t169 43h6q120 0 170 -42.5t50 -135.5v-21q0 -58 -20 -87t-67 -40z" />
<glyph unicode="&#x418;" horiz-adv-x="633" d="M557 645q10 0 10 -9v-627q0 -9 -10 -9h-91q-9 0 -9 9v291q0 105 5 180q-34 -79 -97 -180l-179 -294q-4 -6 -11 -6h-99q-10 0 -10 9v627q0 9 10 9h91q9 0 9 -9v-291q0 -107 -5 -182q31 73 97 182l179 294q5 6 11 6h99z" />
<glyph unicode="&#x419;" horiz-adv-x="633" d="M313 703q-63 0 -92 22.5t-29 68.5v26q0 9 9 9h58q9 0 9 -9v-26q0 -18 9 -24t36 -6h4q27 0 36.5 6.5t9.5 23.5v26q0 9 9 9h58q9 0 9 -9v-26q0 -91 -122 -91h-4zM557 645q10 0 10 -9v-627q0 -9 -10 -9h-91q-9 0 -9 9v291q0 105 5 180q-34 -79 -97 -180l-179 -294 q-4 -6 -11 -6h-99q-10 0 -10 9v627q0 9 10 9h91q9 0 9 -9v-291q0 -107 -5 -182q31 73 97 182l179 294q5 6 11 6h99z" />
<glyph unicode="&#x41a;" horiz-adv-x="557" d="M543 11q6 -11 -6 -11h-106q-7 0 -11 6l-172 268h-72v-265q0 -9 -9 -9h-91q-10 0 -10 9v627q0 9 10 9h91q9 0 9 -9v-262h71l169 265q4 6 11 6h106q12 0 6 -11l-200 -309z" />
<glyph unicode="&#x41b;" horiz-adv-x="597" d="M521 645q9 0 9 -9v-627q0 -9 -9 -9h-91q-10 0 -10 9v536h-188l-16 -287q-7 -111 -27 -167.5t-58 -77t-110 -20.5h-11q-8 0 -8 10v81q0 9 9 9h10q47 0 63 29.5t22 135.5l19 378q0 9 10 9h386z" />
<glyph unicode="&#x41c;" horiz-adv-x="735" d="M659 645q10 0 10 -9v-627q0 -9 -10 -9h-88q-9 0 -9 9v257q0 96 6 197q-28 -90 -77 -197l-73 -158q-4 -6 -11 -6h-80q-8 0 -10 6l-73 158q-49 107 -77 197q6 -101 6 -197v-257q0 -9 -9 -9h-88q-10 0 -10 9v627q0 9 10 9h95q7 0 12 -8l142 -309q28 -62 43 -106 q14 44 42 106l142 309q5 8 11 8h96z" />
<glyph unicode="&#x41d;" horiz-adv-x="604" d="M529 645q9 0 9 -9v-627q0 -9 -9 -9h-92q-9 0 -9 9v265h-252v-265q0 -9 -9 -9h-91q-10 0 -10 9v627q0 9 10 9h91q9 0 9 -9v-262h252v262q0 9 9 9h92z" />
<glyph unicode="&#x41e;" horiz-adv-x="598" d="M56 170v305q0 93 53.5 135.5t186.5 42.5h6q133 0 186 -42.5t53 -135.5v-305q0 -93 -53 -135.5t-186 -42.5h-6q-133 0 -186.5 42.5t-53.5 135.5zM166 170q0 -45 25.5 -61.5t104.5 -16.5h6q79 0 104 16.5t25 61.5v305q0 45 -25 61.5t-104 16.5h-6q-79 0 -104.5 -16.5 t-25.5 -61.5v-305z" />
<glyph unicode="&#x41f;" horiz-adv-x="604" d="M529 645q9 0 9 -9v-627q0 -9 -9 -9h-92q-9 0 -9 9v536h-252v-536q0 -9 -9 -9h-91q-10 0 -10 9v627q0 9 10 9h453z" />
<glyph unicode="&#x420;" d="M327 645q93 0 137.5 -43t44.5 -131v-84q0 -88 -44.5 -131t-137.5 -43h-151v-204q0 -9 -9 -9h-91q-10 0 -10 9v627q0 9 10 9h251zM399 387v84q0 45 -18 59.5t-80 14.5h-125v-232h125q62 0 80 14.5t18 59.5z" />
<glyph unicode="&#x421;" horiz-adv-x="564" d="M289 -8q-128 0 -180.5 42.5t-52.5 135.5v305q0 93 52.5 135.5t180.5 42.5h6q128 0 180 -42.5t52 -135.5v-34q0 -9 -9 -9h-91q-10 0 -10 9v34q0 45 -24 61.5t-98 16.5h-6q-74 0 -98.5 -16.5t-24.5 -61.5v-305q0 -45 24.5 -61.5t98.5 -16.5h6q74 0 98 16.5t24 61.5v34 q0 9 10 9h91q9 0 9 -9v-34q0 -93 -52 -135.5t-180 -42.5h-6z" />
<glyph unicode="&#x422;" horiz-adv-x="467" d="M447 645q10 0 10 -9v-82q0 -9 -10 -9h-158v-536q0 -9 -10 -9h-91q-9 0 -9 9v536h-159q-10 0 -10 9v82q0 9 10 9h427z" />
<glyph unicode="&#x423;" horiz-adv-x="486" d="M483 645q12 0 7 -11l-162 -467q-37 -110 -77 -142t-139 -32h-58q-9 0 -9 9v82q0 9 9 9h63q43 0 60.5 8.5t31.5 39.5l-200 493q-4 11 8 11h90q8 0 11 -8l82 -201q41 -101 60 -185q19 97 51 187l70 200q3 7 11 7h91z" />
<glyph unicode="&#x424;" horiz-adv-x="721" d="M442 616q128 0 180.5 -42.5t52.5 -135.5v-231q0 -93 -52.5 -135.5t-180.5 -42.5h-26v-67q0 -9 -10 -9h-91q-9 0 -9 9v67h-27q-128 0 -180.5 42.5t-52.5 135.5v231q0 93 52.5 135.5t180.5 42.5h27v67q0 9 9 9h91q10 0 10 -9v-67h26zM279 129h27v387h-27q-74 0 -98.5 -16.5 t-24.5 -61.5v-231q0 -45 24.5 -61.5t98.5 -16.5zM565 207v231q0 45 -24.5 61.5t-98.5 16.5h-26v-387h26q74 0 98.5 16.5t24.5 61.5z" />
<glyph unicode="&#x425;" d="M517 11q7 -11 -6 -11h-105q-6 0 -11 6l-127 214l-127 -214q-5 -6 -11 -6h-105q-13 0 -7 11l189 315l-184 308q-7 11 6 11h105q6 0 11 -6l123 -207l123 207q4 6 11 6h105q13 0 6 -11l-185 -308z" />
<glyph unicode="&#x426;" horiz-adv-x="606" d="M585 97q9 0 9 -9v-216q0 -10 -9 -10h-58q-9 0 -11 9l-25 129h-415q-10 0 -10 9v627q0 9 10 9h91q9 0 9 -9v-536h242v536q0 9 9 9h91q10 0 10 -9v-539h57z" />
<glyph unicode="&#x427;" horiz-adv-x="552" d="M477 645q9 0 9 -9v-627q0 -9 -9 -9h-92q-9 0 -9 9v221q-76 -31 -160 -31q-99 0 -142 44.5t-43 144.5v248q0 9 9 9h92q9 0 9 -9v-231q0 -63 17 -84.5t67 -21.5q72 0 151 31v306q0 9 9 9h92z" />
<glyph unicode="&#x428;" horiz-adv-x="822" d="M747 645q9 0 9 -9v-627q0 -9 -9 -9h-671q-10 0 -10 9v627q0 9 10 9h91q9 0 9 -9v-536h180v536q0 9 10 9h91q9 0 9 -9v-536h180v536q0 9 10 9h91z" />
<glyph unicode="&#x429;" horiz-adv-x="834" d="M813 97q9 0 9 -9v-216q0 -10 -9 -10h-58q-9 0 -11 9l-25 129h-643q-10 0 -10 9v627q0 9 10 9h91q9 0 9 -9v-536h180v536q0 9 10 9h91q9 0 9 -9v-536h180v536q0 9 10 9h91q9 0 9 -9v-539h57z" />
<glyph unicode="&#x42a;" horiz-adv-x="617" d="M404 405q97 0 140.5 -41t43.5 -126v-71q0 -85 -43.5 -126t-140.5 -41h-270q-10 0 -10 9v540h-123q-9 0 -9 9v78q0 9 9 9h224q9 0 9 -9v-231h170zM478 173v59q0 45 -18.5 59t-80.5 14h-145v-206h145q62 0 80.5 14.5t18.5 59.5z" />
<glyph unicode="&#x42b;" horiz-adv-x="765" d="M326 405q97 0 140.5 -41t43.5 -126v-71q0 -85 -43.5 -126t-140.5 -41h-250q-10 0 -10 9v627q0 9 10 9h91q9 0 9 -9v-231h150zM690 645q9 0 9 -9v-627q0 -9 -9 -9h-91q-10 0 -10 9v627q0 9 10 9h91zM400 173v59q0 45 -18.5 59t-80.5 14h-125v-206h125q62 0 80.5 14.5 t18.5 59.5z" />
<glyph unicode="&#x42c;" horiz-adv-x="558" d="M346 405q97 0 140.5 -41t43.5 -126v-71q0 -85 -43.5 -126t-140.5 -41h-270q-10 0 -10 9v627q0 9 10 9h91q9 0 9 -9v-231h170zM420 173v59q0 45 -18.5 59t-80.5 14h-145v-206h145q62 0 80.5 14.5t18.5 59.5z" />
<glyph unicode="&#x42d;" horiz-adv-x="579" d="M290 653q128 0 180.5 -42.5t52.5 -135.5v-305q0 -93 -52.5 -135.5t-180.5 -42.5h-6q-128 0 -180 42.5t-52 135.5v34q0 9 9 9h91q10 0 10 -9v-34q0 -45 24 -61.5t98 -16.5h6q74 0 98.5 16.5t24.5 61.5v106h-192q-9 0 -9 9v76q0 9 9 9h192v105q0 45 -24.5 61.5t-98.5 16.5 h-6q-74 0 -98 -16.5t-24 -61.5v-34q0 -9 -10 -9h-91q-9 0 -9 9v34q0 93 52 135.5t180 42.5h6z" />
<glyph unicode="&#x42e;" horiz-adv-x="812" d="M524 653q127 0 179 -42.5t52 -135.5v-305q0 -93 -52 -135.5t-179 -42.5h-6q-127 0 -179.5 42.5t-52.5 135.5v106h-110v-267q0 -9 -9 -9h-91q-10 0 -10 9v627q0 9 10 9h91q9 0 9 -9v-266h110v105q0 93 52.5 135.5t179.5 42.5h6zM645 170v305q0 45 -23.5 61.5t-97.5 16.5 h-6q-74 0 -98 -16.5t-24 -61.5v-305q0 -45 24 -61.5t98 -16.5h6q74 0 97.5 16.5t23.5 61.5z" />
<glyph unicode="&#x42f;" horiz-adv-x="555" d="M479 645q9 0 9 -9v-627q0 -9 -9 -9h-91q-10 0 -10 9v217h-95l-120 -219q-4 -7 -11 -7h-105q-14 0 -7 11l128 220q-122 25 -122 169v71q0 88 44.5 131t137.5 43h251zM254 326h124v219h-124q-62 0 -80 -14.5t-18 -59.5v-71q0 -45 18 -59.5t80 -14.5z" />
<glyph unicode="&#x430;" horiz-adv-x="514" d="M261 515q104 0 150.5 -42t46.5 -126v-338q0 -9 -10 -9h-55q-7 0 -11 6l-19 30q-65 -44 -154 -44q-171 0 -171 146v17q0 69 40.5 101.5t131.5 32.5h138v58q0 38 -18.5 53.5t-68.5 15.5h-6q-50 0 -69 -15.5t-19 -52.5v-2q0 -9 -9 -9h-90q-10 0 -10 9v2q0 84 47 125.5 t150 41.5h6zM147 138q0 -29 17.5 -41.5t61.5 -12.5q61 0 122 26v97h-143q-31 0 -44.5 -12.5t-13.5 -39.5v-17z" />
<glyph unicode="&#x431;" horiz-adv-x="534" d="M279 455q112 0 160.5 -42t48.5 -131v-117q0 -89 -49 -131t-164 -42h-6q-115 0 -164 42t-49 131v259q0 86 31 127.5t118 69.5l91 29q46 15 58 23t12 24v2q0 9 9 9h86q9 0 9 -9v-2q0 -58 -19 -81t-86 -45l-112 -36q-64 -20 -78 -38t-14 -77v-21q12 32 37 44t75 12h6z M378 165v117q0 40 -21 56t-82 16h-6q-61 0 -82 -16t-21 -56v-117q0 -41 21 -57t82 -16h6q61 0 82 16t21 57z" />
<glyph unicode="&#x432;" horiz-adv-x="508" d="M388 256q88 -14 88 -99v-19q0 -70 -38.5 -104t-121.5 -34h-245q-10 0 -10 9v489q0 9 10 9h225q83 0 121.5 -34t38.5 -104v-18q0 -77 -68 -95zM289 412h-119v-111h119q32 0 44.5 10t12.5 34v24q0 24 -12 33.5t-45 9.5zM366 138v26q0 24 -12.5 33.5t-44.5 9.5h-139v-112 h139q33 0 45 9.5t12 33.5z" />
<glyph unicode="&#x433;" horiz-adv-x="373" d="M355 507q9 0 9 -9v-82q0 -9 -9 -9h-184v-398q0 -9 -9 -9h-91q-10 0 -10 9v489q0 9 10 9h284z" />
<glyph unicode="&#x434;" horiz-adv-x="534" d="M513 97q9 0 9 -9v-216q0 -10 -9 -10h-58q-9 0 -11 9l-25 129h-314l-25 -129q-2 -9 -11 -9h-58q-9 0 -9 10v216q0 9 9 9h38q24 40 33 84t9 115v202q0 9 10 9h350q10 0 10 -9v-401h52zM201 410v-114q0 -128 -38 -199h188v313h-150z" />
<glyph unicode="&#x435;" horiz-adv-x="525" d="M469 228h-309v-64q0 -42 21 -58.5t81 -16.5h6q61 0 81.5 16.5t20.5 58.5v1q0 9 10 9h89q10 0 10 -9v-1q0 -88 -48.5 -130t-162.5 -42h-6q-114 0 -162.5 42t-48.5 130v179q0 88 49 130t162 42h6q113 0 162 -42t49 -130v-105q0 -10 -10 -10zM262 418q-60 0 -81 -16.5 t-21 -58.5v-35h210v35q0 42 -20.5 58.5t-81.5 16.5h-6z" />
<glyph unicode="&#x436;" horiz-adv-x="704" d="M693 11q7 -11 -6 -11h-104q-9 0 -11 6l-107 202h-58v-199q0 -9 -9 -9h-92q-9 0 -9 9v199h-58l-106 -202q-5 -6 -11 -6h-105q-13 0 -6 11l136 244l-133 241q-3 4 -0.5 7.5t7.5 3.5h105q6 0 11 -6l100 -193h60v190q0 9 9 9h92q9 0 9 -9v-190h60l101 193q2 6 11 6h104 q5 0 7.5 -3.5t-0.5 -7.5l-133 -241z" />
<glyph unicode="&#x437;" horiz-adv-x="481" d="M369 254q43 -7 61 -29.5t18 -72.5v-10q0 -78 -46 -114t-158 -36h-6q-112 0 -158.5 36t-46.5 114v20q0 9 9 9h92q9 0 9 -9v-20q0 -32 18 -43t77 -11h6q58 0 76 11t18 43v10q0 32 -18 43.5t-76 11.5h-63q-10 0 -10 9v76q0 9 10 9h63q54 0 72 12t18 44v9q0 30 -17.5 41.5 t-72.5 11.5h-6q-55 0 -72.5 -11.5t-17.5 -41.5v-20q0 -10 -10 -10h-91q-9 0 -9 10v20q0 76 46 112.5t154 36.5h6q108 0 154 -36.5t46 -112.5v-9q0 -48 -17.5 -71.5t-57.5 -31.5z" />
<glyph unicode="&#x438;" horiz-adv-x="557" d="M487 507q9 0 9 -9v-489q0 -9 -9 -9h-90q-9 0 -9 9v212q0 97 4 140q-24 -54 -52 -99l-159 -256q-5 -6 -11 -6h-99q-10 0 -10 9v489q0 9 10 9h89q10 0 10 -9v-212q0 -82 -4 -139q20 47 52 98l158 256q4 6 11 6h100z" />
<glyph unicode="&#x439;" horiz-adv-x="557" d="M277 565q-63 0 -92 22.5t-29 68.5v26q0 9 9 9h58q9 0 9 -9v-26q0 -18 9 -24t36 -6h4q27 0 36.5 6.5t9.5 23.5v26q0 9 9 9h58q9 0 9 -9v-26q0 -91 -122 -91h-4zM487 507q9 0 9 -9v-489q0 -9 -9 -9h-90q-9 0 -9 9v212q0 97 4 140q-24 -54 -52 -99l-159 -256q-5 -6 -11 -6 h-99q-10 0 -10 9v489q0 9 10 9h89q10 0 10 -9v-212q0 -82 -4 -139q20 47 52 98l158 256q4 6 11 6h100z" />
<glyph unicode="&#x43a;" horiz-adv-x="490" d="M480 11q7 -11 -6 -11h-104q-8 0 -12 6l-132 202h-55v-199q0 -9 -9 -9h-91q-10 0 -10 9v489q0 9 10 9h91q9 0 9 -9v-190h58l125 193q4 6 12 6h104q13 0 6 -11l-160 -241z" />
<glyph unicode="&#x43b;" horiz-adv-x="521" d="M450 507q10 0 10 -9v-489q0 -9 -10 -9h-91q-9 0 -9 9v396h-143l-9 -184q-4 -76 -11.5 -118t-28.5 -68t-52 -34t-87 -8h-4q-10 0 -10 10v81q0 9 10 9h4q42 0 53.5 21t15.5 107l12 277q0 9 9 9h341z" />
<glyph unicode="&#x43c;" horiz-adv-x="673" d="M602 507q9 0 9 -9v-489q0 -9 -9 -9h-87q-9 0 -9 9v219q0 75 5 161q-21 -78 -58 -161l-63 -144q-3 -7 -11 -7h-86q-7 0 -10 7l-63 144q-37 82 -58 160q5 -86 5 -160v-219q0 -9 -9 -9h-87q-10 0 -10 9v489q0 9 10 9h124q7 0 10 -7l95 -213q25 -61 36 -97q8 28 37 97l94 213 q3 7 11 7h124z" />
<glyph unicode="&#x43d;" horiz-adv-x="532" d="M462 507q9 0 9 -9v-489q0 -9 -9 -9h-92q-9 0 -9 9v199h-190v-199q0 -9 -9 -9h-91q-10 0 -10 9v489q0 9 10 9h91q9 0 9 -9v-190h190v190q0 9 9 9h92z" />
<glyph unicode="&#x43e;" horiz-adv-x="534" d="M51 165v177q0 89 49 131t164 42h6q115 0 164 -42t49 -131v-177q0 -89 -49 -131t-164 -42h-6q-115 0 -164 42t-49 131zM161 165q0 -41 21 -57t82 -16h6q61 0 82 16t21 57v177q0 41 -21 57t-82 16h-6q-61 0 -82 -16t-21 -57v-177z" />
<glyph unicode="&#x43f;" horiz-adv-x="532" d="M461 507q10 0 10 -9v-489q0 -9 -10 -9h-91q-9 0 -9 9v398h-190v-398q0 -9 -9 -9h-91q-10 0 -10 9v489q0 9 10 9h390z" />
<glyph unicode="&#x440;" d="M323 515q87 0 124.5 -40.5t37.5 -134.5v-173q0 -94 -37.5 -134.5t-124.5 -40.5q-82 0 -152 37v-220q0 -9 -9 -9h-91q-10 0 -10 9v689q0 9 10 9h55q8 0 12 -7l19 -29q76 44 166 44zM375 327q0 54 -14.5 71t-60.5 17q-66 0 -129 -27v-270q61 -26 129 -26q46 0 60.5 17 t14.5 71v147z" />
<glyph unicode="&#x441;" horiz-adv-x="506" d="M51 165v177q0 88 48.5 130.5t159.5 42.5h6q111 0 159.5 -42.5t48.5 -130.5v-11q0 -10 -10 -10h-91q-9 0 -9 10v11q0 40 -20.5 56.5t-77.5 16.5h-6q-57 0 -77.5 -16.5t-20.5 -56.5v-177q0 -41 20 -57t78 -16h6q58 0 78 16t20 57v11q0 10 9 10h91q10 0 10 -10v-11 q0 -89 -48 -131t-160 -42h-6q-112 0 -160 42t-48 131z" />
<glyph unicode="&#x442;" horiz-adv-x="388" d="M376 507q9 0 9 -9v-82q0 -9 -9 -9h-127v-398q0 -9 -9 -9h-91q-10 0 -10 9v398h-127q-9 0 -9 9v82q0 9 9 9h364z" />
<glyph unicode="&#x443;" horiz-adv-x="464" d="M456 507q11 0 8 -10l-243 -690q-3 -8 -11 -8h-94q-12 0 -7 11l71 184l-175 503q-3 10 7 10h97q8 0 11 -8l66 -202q32 -97 49 -188q17 91 49 188l66 202q3 8 11 8h95z" />
<glyph unicode="&#x444;" horiz-adv-x="685" d="M421 511q115 0 164 -42t49 -131v-169q0 -89 -48.5 -131t-164.5 -42h-23v-187q0 -9 -10 -9h-91q-9 0 -9 9v187h-24q-115 0 -164 42t-49 131v169q0 89 49 131t164 42h24v180q0 9 9 9h91q10 0 10 -9v-180h23zM264 96h24v315h-24q-61 0 -82 -16t-21 -57v-169q0 -41 21 -57 t82 -16zM524 169v169q0 41 -21 57t-82 16h-23v-315h23q61 0 82 16t21 57z" />
<glyph unicode="&#x445;" horiz-adv-x="465" d="M454 13q4 -5 2 -9t-8 -4h-106q-6 0 -11 6l-99 161l-99 -161q-5 -6 -11 -6h-106q-13 0 -5 13l158 247l-149 234q-4 5 -2 9t7 4h106q7 0 11 -6l91 -152l90 152q5 6 11 6h106q12 0 5 -13l-149 -233z" />
<glyph unicode="&#x446;" horiz-adv-x="539" d="M518 97q9 0 9 -9v-216q0 -10 -9 -10h-58q-9 0 -11 9l-25 129h-353q-10 0 -10 9v489q0 9 10 9h91q9 0 9 -9v-398h185v398q0 9 9 9h91q10 0 10 -9v-401h52z" />
<glyph unicode="&#x447;" horiz-adv-x="492" d="M421 507q10 0 10 -9v-489q0 -9 -10 -9h-91q-9 0 -9 9v157q-63 -26 -133 -26q-85 0 -120 37.5t-35 128.5v192q0 9 9 9h92q9 0 9 -9v-178q0 -50 12 -65t48 -15q57 0 118 25v233q0 9 9 9h91z" />
<glyph unicode="&#x448;" horiz-adv-x="746" d="M676 507q9 0 9 -9v-489q0 -9 -9 -9h-605q-10 0 -10 9v489q0 9 10 9h91q9 0 9 -9v-398h147v398q0 9 10 9h91q9 0 9 -9v-398h147v398q0 9 10 9h91z" />
<glyph unicode="&#x449;" horiz-adv-x="758" d="M738 97q9 0 9 -9v-216q0 -10 -9 -10h-58q-9 0 -11 9l-25 129h-573q-10 0 -10 9v489q0 9 10 9h91q9 0 9 -9v-398h147v398q0 9 10 9h91q9 0 9 -9v-398h147v398q0 9 10 9h91q9 0 9 -9v-401h53z" />
<glyph unicode="&#x44a;" horiz-adv-x="554" d="M364 348q83 0 121.5 -35.5t38.5 -107.5v-62q0 -72 -38.5 -107.5t-121.5 -35.5h-245q-10 0 -10 9v403h-103q-9 0 -9 10v76q0 9 9 9h204q9 0 9 -9v-150h145zM414 143v62q0 24 -12 33.5t-45 9.5h-138v-148h138q32 0 44.5 9.5t12.5 33.5z" />
<glyph unicode="&#x44b;" horiz-adv-x="706" d="M306 348q83 0 121.5 -35.5t38.5 -107.5v-62q0 -72 -38.5 -107.5t-121.5 -35.5h-235q-10 0 -10 9v489q0 9 10 9h91q9 0 9 -9v-150h135zM636 507q9 0 9 -9v-489q0 -9 -9 -9h-91q-10 0 -10 9v489q0 9 10 9h91zM356 143v62q0 24 -12 33.5t-45 9.5h-128v-148h128 q32 0 44.5 9.5t12.5 33.5z" />
<glyph unicode="&#x44c;" horiz-adv-x="506" d="M316 348q83 0 121.5 -35.5t38.5 -107.5v-62q0 -72 -38.5 -107.5t-121.5 -35.5h-245q-10 0 -10 9v489q0 9 10 9h91q9 0 9 -9v-150h145zM366 143v62q0 24 -12 33.5t-45 9.5h-138v-148h138q32 0 44.5 9.5t12.5 33.5z" />
<glyph unicode="&#x44d;" horiz-adv-x="510" d="M251 515q111 0 159.5 -42.5t48.5 -130.5v-177q0 -89 -48 -131t-160 -42h-6q-112 0 -160 42t-48 131v11q0 10 10 10h91q9 0 9 -10v-11q0 -41 20 -57t78 -16h6q58 0 78 16t20 57v45h-133q-10 0 -10 9v69q0 9 10 9h133v45q0 40 -20.5 56.5t-77.5 16.5h-6q-57 0 -77.5 -16.5 t-20.5 -56.5v-11q0 -10 -9 -10h-91q-10 0 -10 10v11q0 88 48.5 130.5t159.5 42.5h6z" />
<glyph unicode="&#x44e;" horiz-adv-x="736" d="M482 515q108 0 155 -42.5t47 -130.5v-177q0 -89 -47 -131t-155 -42h-6q-109 0 -156 42t-47 131v41h-102v-197q0 -9 -9 -9h-91q-10 0 -10 9v489q0 9 10 9h91q9 0 9 -9v-197h102v41q0 88 47 130.5t156 42.5h6zM574 165v177q0 40 -19 56.5t-73 16.5h-6q-55 0 -74 -16.5 t-19 -56.5v-177q0 -41 19 -57t74 -16h6q54 0 73 16t19 57z" />
<glyph unicode="&#x44f;" horiz-adv-x="488" d="M417 507q9 0 9 -9v-489q0 -9 -9 -9h-91q-10 0 -10 9v158h-82l-80 -160q-4 -7 -11 -7h-99q-5 0 -7.5 3t0.5 8l88 166q-88 29 -88 140v40q0 150 164 150h216zM206 265h110v145h-110q-33 0 -46 -12t-13 -41v-40q0 -29 13 -40.5t46 -11.5z" />
<glyph unicode="&#x451;" horiz-adv-x="525" d="M146 573q-10 0 -10 9v100q0 9 10 9h77q9 0 9 -9v-100q0 -9 -9 -9h-77zM306 573q-10 0 -10 9v100q0 9 10 9h77q9 0 9 -9v-100q0 -9 -9 -9h-77zM469 228h-309v-64q0 -42 21 -58.5t81 -16.5h6q61 0 81.5 16.5t20.5 58.5v1q0 9 10 9h89q10 0 10 -9v-1q0 -88 -48.5 -130 t-162.5 -42h-6q-114 0 -162.5 42t-48.5 130v179q0 88 49 130t162 42h6q113 0 162 -42t49 -130v-105q0 -10 -10 -10zM262 418q-60 0 -81 -16.5t-21 -58.5v-35h210v35q0 42 -20.5 58.5t-81.5 16.5h-6z" />
<glyph unicode="&#x452;" horiz-adv-x="539" d="M321 471q87 0 124.5 -40.5t37.5 -134.5v-339q0 -89 -39.5 -127t-134.5 -38h-41q-9 0 -9 9v78q0 9 9 9h36q40 0 54.5 16t14.5 60v319q0 54 -14.5 71t-60.5 17q-65 0 -127 -25v-337q0 -9 -9 -9h-91q-10 0 -10 9v539h-34q-9 0 -9 9v51q0 10 9 10h34v73q0 9 10 9h91q9 0 9 -9 v-73h149q9 0 9 -10v-51q0 -9 -9 -9h-149v-115q65 38 150 38z" />
<glyph unicode="&#x453;" horiz-adv-x="373" d="M140 568q-15 0 -5 12l99 106q4 5 12 5h96q6 0 7.5 -3.5t-3.5 -7.5l-120 -107q-5 -5 -11 -5h-75zM355 507q9 0 9 -9v-82q0 -9 -9 -9h-184v-398q0 -9 -9 -9h-91q-10 0 -10 9v489q0 9 10 9h284z" />
<glyph unicode="&#x454;" horiz-adv-x="510" d="M372 321q-9 0 -9 10v11q0 40 -20.5 56.5t-77.5 16.5h-6q-57 0 -77.5 -16.5t-20.5 -56.5v-45h133q10 0 10 -9v-69q0 -9 -10 -9h-133v-45q0 -41 20 -57t78 -16h6q58 0 78 16t20 57v11q0 10 9 10h91q10 0 10 -10v-11q0 -89 -48 -131t-160 -42h-6q-112 0 -160 42t-48 131v177 q0 88 48.5 130.5t159.5 42.5h6q111 0 159.5 -42.5t48.5 -130.5v-11q0 -10 -10 -10h-91z" />
<glyph unicode="&#x455;" horiz-adv-x="481" d="M34 135v29q0 10 9 10h90q9 0 9 -10v-29q0 -46 97 -46h6q54 0 74 11.5t20 34.5v13q0 17 -9.5 26t-40.5 17l-133 37q-62 17 -88.5 48.5t-26.5 83.5v13q0 70 46 106t150 36h6q197 0 197 -142v-30q0 -9 -9 -9h-89q-10 0 -10 9v30q0 45 -89 45h-6q-49 0 -68 -11t-19 -34v-13 q0 -16 9.5 -25t41.5 -18l133 -36q62 -17 87.5 -47.5t25.5 -85.5v-13q0 -143 -202 -143h-6q-205 0 -205 143z" />
<glyph unicode="&#x456;" horiz-adv-x="232" d="M71 573q-10 0 -10 9v100q0 9 10 9h91q9 0 9 -9v-100q0 -9 -9 -9h-91zM71 0q-10 0 -10 9v489q0 9 10 9h91q9 0 9 -9v-489q0 -9 -9 -9h-91z" />
<glyph unicode="&#x457;" horiz-adv-x="232" d="M-2 573q-10 0 -10 9v100q0 9 10 9h77q9 0 9 -9v-100q0 -9 -9 -9h-77zM158 573q-10 0 -10 9v100q0 9 10 9h77q9 0 9 -9v-100q0 -9 -9 -9h-77zM71 0q-10 0 -10 9v489q0 9 10 9h91q9 0 9 -9v-489q0 -9 -9 -9h-91z" />
<glyph unicode="&#x458;" horiz-adv-x="232" d="M71 573q-10 0 -10 9v100q0 9 10 9h91q9 0 9 -9v-100q0 -9 -9 -9h-91zM-44 -208q-9 0 -9 9v78q0 10 9 10h36q40 0 54.5 16t14.5 60v533q0 9 10 9h91q9 0 9 -9v-541q0 -89 -39 -127t-135 -38h-41z" />
<glyph unicode="&#x459;" horiz-adv-x="775" d="M585 348q83 0 122 -35.5t39 -107.5v-62q0 -72 -39 -107.5t-122 -35.5h-235q-9 0 -9 9v396h-134l-9 -184q-4 -76 -11.5 -118t-28.5 -68t-52 -34t-87 -8h-7q-7 0 -7 10v81q0 9 10 9h4q42 0 53.5 21t15.5 107l12 277q0 9 9 9h332q10 0 10 -9v-150h134zM636 143v62 q0 24 -12 33.5t-45 9.5h-128v-148h128q32 0 44.5 9.5t12.5 33.5z" />
<glyph unicode="&#x45a;" horiz-adv-x="785" d="M596 318q83 0 121.5 -35.5t38.5 -107.5v-32q0 -72 -38.5 -107.5t-121.5 -35.5h-236q-9 0 -9 9v209h-180v-209q0 -9 -9 -9h-91q-10 0 -10 9v489q0 9 10 9h91q9 0 9 -9v-180h180v180q0 9 9 9h92q9 0 9 -9v-180h135zM646 143v32q0 24 -12.5 33.5t-44.5 9.5h-128v-118h128 q32 0 44.5 9.5t12.5 33.5z" />
<glyph unicode="&#x45b;" horiz-adv-x="539" d="M321 471q87 0 124.5 -40.5t37.5 -134.5v-287q0 -9 -9 -9h-92q-9 0 -9 9v274q0 54 -14.5 71t-60.5 17q-65 0 -127 -25v-337q0 -9 -9 -9h-91q-10 0 -10 9v539h-34q-9 0 -9 9v51q0 10 9 10h34v73q0 9 10 9h91q9 0 9 -9v-73h149q9 0 9 -10v-51q0 -9 -9 -9h-149v-115 q65 38 150 38z" />
<glyph unicode="&#x45c;" horiz-adv-x="490" d="M185 568q-15 0 -5 12l99 106q4 5 12 5h96q6 0 7.5 -3.5t-3.5 -7.5l-120 -107q-5 -5 -11 -5h-75zM480 11q7 -11 -6 -11h-104q-8 0 -12 6l-132 202h-55v-199q0 -9 -9 -9h-91q-10 0 -10 9v489q0 9 10 9h91q9 0 9 -9v-190h58l125 193q4 6 12 6h104q13 0 6 -11l-160 -241z" />
<glyph unicode="&#x45d;" horiz-adv-x="557" d="M142 680q-5 4 -3.5 7.5t8.5 3.5h95q7 0 11 -5l99 -106q10 -12 -5 -12h-74q-7 0 -12 5zM487 507q9 0 9 -9v-489q0 -9 -9 -9h-90q-9 0 -9 9v212q0 97 4 140q-24 -54 -52 -99l-159 -256q-5 -6 -11 -6h-99q-10 0 -10 9v489q0 9 10 9h89q10 0 10 -9v-212q0 -82 -4 -139 q20 47 52 98l158 256q4 6 11 6h100z" />
<glyph unicode="&#x45e;" horiz-adv-x="464" d="M231 565q-63 0 -92 22.5t-29 68.5v26q0 9 9 9h58q9 0 9 -9v-26q0 -18 9 -24t36 -6h4q27 0 36.5 6.5t9.5 23.5v26q0 9 9 9h58q9 0 9 -9v-26q0 -91 -122 -91h-4zM456 507q11 0 8 -10l-243 -690q-3 -8 -11 -8h-94q-12 0 -7 11l71 184l-175 503q-3 10 7 10h97q8 0 11 -8 l66 -202q32 -97 49 -188q17 91 49 188l66 202q3 8 11 8h95z" />
<glyph unicode="&#x45f;" horiz-adv-x="527" d="M457 507q9 0 9 -9v-489q0 -9 -9 -9h-141l-7 -128q0 -10 -10 -10h-70q-10 0 -10 10l-7 128h-141q-10 0 -10 9v489q0 9 10 9h91q9 0 9 -9v-398h185v398q0 9 10 9h91z" />
<glyph unicode="&#x462;" horiz-adv-x="647" d="M434 405q97 0 140.5 -41t43.5 -126v-71q0 -85 -43.5 -126t-140.5 -41h-270q-9 0 -9 9v482h-149q-9 0 -9 9v75q0 10 9 10h149v68q0 9 9 9h91q10 0 10 -9v-68h182q9 0 9 -10v-75q0 -9 -9 -9h-182v-86h169zM508 173v59q0 45 -18 59t-80 14h-145v-206h145q62 0 80 14.5 t18 59.5z" />
<glyph unicode="&#x463;" d="M346 340q83 0 121.5 -35.5t38.5 -107.5v-54q0 -72 -38.5 -107.5t-121.5 -35.5h-245q-10 0 -10 9v417h-85q-9 0 -9 9v68q0 9 9 9h85v179q0 9 10 9h91q9 0 9 -9v-179h150q10 0 10 -9v-68q0 -9 -10 -9h-150v-86h145zM396 143v54q0 24 -12.5 33.5t-44.5 9.5h-138v-140h138 q32 0 44.5 9.5t12.5 33.5z" />
<glyph unicode="&#x472;" horiz-adv-x="598" d="M302 653q133 0 186 -42.5t53 -135.5v-305q0 -93 -53 -135.5t-186 -42.5h-6q-133 0 -186.5 42.5t-53.5 135.5v305q0 93 53.5 135.5t186.5 42.5h6zM296 553q-79 0 -104.5 -16.5t-25.5 -61.5v-105h265v105q0 45 -25 61.5t-104 16.5h-6zM302 92q79 0 104 16.5t25 61.5v106 h-265v-106q0 -45 25.5 -61.5t104.5 -16.5h6z" />
<glyph unicode="&#x473;" horiz-adv-x="534" d="M270 515q115 0 164 -42t49 -131v-177q0 -89 -49 -131t-164 -42h-6q-115 0 -164 42t-49 131v177q0 89 49 131t164 42h6zM264 415q-61 0 -82 -16t-21 -57v-52h212v52q0 41 -21 57t-82 16h-6zM270 92q61 0 82 16t21 57v52h-212v-52q0 -41 21 -57t82 -16h6z" />
<glyph unicode="&#x474;" horiz-adv-x="552" d="M562 653q10 0 10 -9v-82q0 -9 -10 -9h-11q-28 0 -40 -9.5t-21 -38.5l-158 -498q-3 -7 -12 -7h-98q-8 0 -11 7l-200 627q-3 11 8 11h97q9 0 10 -7l98 -317q32 -108 48 -192q14 81 46 190l58 186q28 91 62 119.5t113 28.5h11z" />
<glyph unicode="&#x475;" horiz-adv-x="487" d="M484 515q9 0 9 -9v-82q0 -9 -9 -9h-10q-20 0 -30.5 -10t-20.5 -39l-127 -359q-3 -7 -11 -7h-98q-8 0 -11 7l-171 490q-3 10 7 10h97q8 0 11 -7l66 -201q36 -119 50 -190q16 81 51 190l23 67q30 94 59.5 121.5t95.5 27.5h19z" />
<glyph unicode="&#x490;" horiz-adv-x="458" d="M432 750q10 0 10 -9v-187q0 -9 -10 -9h-256v-536q0 -9 -9 -9h-91q-10 0 -10 9v627q0 9 10 9h269l21 96q2 9 10 9h56z" />
<glyph unicode="&#x491;" horiz-adv-x="373" d="M355 630q9 0 9 -10v-204q0 -9 -9 -9h-184v-398q0 -9 -9 -9h-91q-10 0 -10 9v489q0 9 10 9h192l25 114q3 9 11 9h56z" />
<glyph unicode="&#x492;" horiz-adv-x="478" d="M452 645q10 0 10 -9v-82q0 -9 -10 -9h-256v-211h196q10 0 10 -9v-76q0 -10 -10 -10h-196v-230q0 -9 -9 -9h-91q-10 0 -10 9v230h-77q-9 0 -9 10v76q0 9 9 9h77v302q0 9 10 9h356z" />
<glyph unicode="&#x493;" horiz-adv-x="387" d="M369 507q9 0 9 -9v-82q0 -9 -9 -9h-184v-107h128q10 0 10 -9v-75q0 -9 -10 -9h-128v-198q0 -9 -9 -9h-91q-10 0 -10 9v198h-60q-9 0 -9 9v75q0 9 9 9h60v198q0 9 10 9h284z" />
<glyph unicode="&#x496;" horiz-adv-x="841" d="M826 97q9 0 9 -9v-216q0 -10 -9 -10h-58q-9 0 -11 9l-25 129h-32q-7 0 -11 7l-148 267h-73v-265q0 -9 -9 -9h-91q-10 0 -10 9v265h-72l-148 -267q-4 -7 -11 -7h-106q-13 0 -7 11l178 314l-174 309q-6 11 7 11h105q8 0 11 -7l146 -264h71v262q0 9 10 9h91q9 0 9 -9v-262 h72l146 264q3 7 11 7h105q13 0 7 -11l-175 -309l130 -228h62z" />
<glyph unicode="&#x497;" horiz-adv-x="714" d="M698 97q9 0 9 -9v-216q0 -10 -9 -10h-58q-9 0 -11 9l-25 129h-21q-9 0 -11 6l-107 202h-58v-199q0 -9 -9 -9h-92q-9 0 -9 9v199h-58l-106 -202q-5 -6 -11 -6h-105q-13 0 -6 11l136 244l-133 241q-3 4 -0.5 7.5t7.5 3.5h105q6 0 11 -6l100 -193h60v190q0 9 9 9h92 q9 0 9 -9v-190h60l101 193q2 6 11 6h104q5 0 7.5 -3.5t-0.5 -7.5l-133 -241l88 -158h53z" />
<glyph unicode="&#x49a;" horiz-adv-x="570" d="M556 97q9 0 9 -9v-216q0 -10 -9 -10h-58q-9 0 -11 9l-25 129h-31q-7 0 -11 6l-172 268h-72v-265q0 -9 -9 -9h-91q-10 0 -10 9v627q0 9 10 9h91q9 0 9 -9v-262h71l169 265q4 6 11 6h106q12 0 6 -11l-200 -309l148 -228h69z" />
<glyph unicode="&#x49b;" horiz-adv-x="501" d="M485 97q9 0 9 -9v-216q0 -10 -9 -10h-58q-9 0 -11 9l-25 129h-21q-8 0 -12 6l-132 202h-55v-199q0 -9 -9 -9h-91q-10 0 -10 9v489q0 9 10 9h91q9 0 9 -9v-190h58l125 193q4 6 12 6h104q13 0 6 -11l-160 -241l106 -158h63z" />
<glyph unicode="&#x4a2;" horiz-adv-x="616" d="M595 97q9 0 9 -9v-216q0 -10 -9 -10h-58q-9 0 -11 9l-25 129h-64q-9 0 -9 9v265h-252v-265q0 -9 -9 -9h-91q-10 0 -10 9v627q0 9 10 9h91q9 0 9 -9v-262h252v262q0 9 9 9h92q9 0 9 -9v-539h57z" />
<glyph unicode="&#x4a3;" horiz-adv-x="544" d="M523 97q9 0 9 -9v-216q0 -10 -9 -10h-58q-9 0 -11 9l-25 129h-59q-9 0 -9 9v199h-190v-199q0 -9 -9 -9h-91q-10 0 -10 9v489q0 9 10 9h91q9 0 9 -9v-190h190v190q0 9 9 9h92q9 0 9 -9v-401h52z" />
<glyph unicode="&#x4ae;" horiz-adv-x="501" d="M496 645q5 0 6.5 -3.5t-0.5 -7.5l-196 -396v-229q0 -9 -10 -9h-91q-9 0 -9 9v227l-197 398q-5 11 6 11h100q7 0 10 -7l73 -151q41 -84 63 -157q21 72 62 157l73 151q3 7 11 7h99z" />
<glyph unicode="&#x4af;" horiz-adv-x="472" d="M460 507q11 0 8 -10l-177 -504v-184q0 -9 -10 -9h-89q-10 0 -10 9v184l-177 504q-3 10 7 10h97q8 0 11 -7l66 -201q36 -119 50 -190q16 81 51 190l65 201q3 7 11 7h97z" />
<glyph unicode="&#x4b0;" horiz-adv-x="501" d="M496 645q5 0 6.5 -3.5t-0.5 -7.5l-172 -348h93q10 0 10 -9v-75q0 -9 -10 -9h-117v-184q0 -9 -10 -9h-91q-9 0 -9 9v184h-118q-9 0 -9 9v75q0 9 9 9h93l-172 348q-5 11 6 11h100q7 0 10 -7l73 -151q41 -84 63 -157q21 72 62 157l73 151q3 7 11 7h99z" />
<glyph unicode="&#x4b1;" horiz-adv-x="472" d="M460 507q11 0 8 -10l-175 -497h123q9 0 9 -9v-75q0 -9 -9 -9h-125v-98q0 -9 -10 -9h-89q-10 0 -10 9v98h-123q-10 0 -10 9v75q0 9 10 9h121l-175 497q-3 10 7 10h97q8 0 11 -7l66 -201q36 -119 50 -190q16 81 51 190l65 201q3 7 11 7h97z" />
<glyph unicode="&#x4b2;" horiz-adv-x="545" d="M531 97q9 0 9 -9v-216q0 -10 -9 -10h-58q-9 0 -11 9l-25 129h-31q-6 0 -11 6l-127 214l-127 -214q-5 -6 -11 -6h-105q-13 0 -7 11l189 315l-184 308q-7 11 6 11h105q6 0 11 -6l123 -207l123 207q4 6 11 6h105q13 0 6 -11l-185 -308l137 -229h66z" />
<glyph unicode="&#x4b3;" horiz-adv-x="474" d="M458 97q9 0 9 -9v-216q0 -10 -9 -10h-58q-9 0 -11 9l-25 129h-22q-6 0 -11 6l-99 161l-99 -161q-5 -6 -11 -6h-106q-13 0 -5 13l158 247l-149 234q-4 5 -2 9t7 4h106q7 0 11 -6l91 -152l90 152q5 6 11 6h106q12 0 5 -13l-149 -233l104 -164h58z" />
<glyph unicode="&#x4b6;" horiz-adv-x="565" d="M545 97q9 0 9 -9v-216q0 -10 -9 -10h-58q-9 0 -11 9l-25 129h-66q-9 0 -9 9v221q-76 -31 -160 -31q-99 0 -142 44.5t-43 144.5v248q0 9 9 9h92q9 0 9 -9v-231q0 -63 17 -84.5t67 -21.5q72 0 151 31v306q0 9 9 9h92q9 0 9 -9v-539h59z" />
<glyph unicode="&#x4b7;" horiz-adv-x="502" d="M482 97q9 0 9 -9v-216q0 -10 -9 -10h-58q-9 0 -11 9l-25 129h-58q-9 0 -9 9v157q-63 -26 -133 -26q-85 0 -120 37.5t-35 128.5v192q0 9 9 9h92q9 0 9 -9v-178q0 -50 12 -65t48 -15q57 0 118 25v233q0 9 9 9h91q10 0 10 -9v-401h51z" />
<glyph unicode="&#x4ba;" horiz-adv-x="559" d="M336 446q99 0 142 -44.5t43 -144.5v-248q0 -9 -9 -9h-92q-9 0 -9 9v231q0 63 -17 84.5t-67 21.5q-72 0 -151 -31v-306q0 -9 -9 -9h-91q-10 0 -10 9v627q0 9 10 9h91q9 0 9 -9v-221q76 31 160 31z" />
<glyph unicode="&#x4bb;" horiz-adv-x="539" d="M321 515q87 0 124.5 -40.5t37.5 -134.5v-331q0 -9 -9 -9h-92q-9 0 -9 9v318q0 54 -14.5 71t-60.5 17q-63 0 -127 -26v-380q0 -9 -9 -9h-91q-10 0 -10 9v682q0 9 10 9h91q9 0 9 -9v-214q65 38 150 38z" />
<glyph unicode="&#x4c0;" horiz-adv-x="242" d="M76 0q-10 0 -10 9v627q0 9 10 9h91q9 0 9 -9v-627q0 -9 -9 -9h-91z" />
<glyph unicode="&#x4c1;" horiz-adv-x="827" d="M411 703q-63 0 -92 22.5t-29 68.5v26q0 9 9 9h58q9 0 9 -9v-26q0 -18 9 -24t36 -6h4q27 0 36.5 6.5t9.5 23.5v26q0 9 9 9h58q9 0 9 -9v-26q0 -91 -122 -91h-4zM813 11q6 -11 -7 -11h-106q-7 0 -11 7l-148 267h-73v-265q0 -9 -9 -9h-91q-10 0 -10 9v265h-72l-148 -267 q-4 -7 -11 -7h-106q-13 0 -7 11l178 314l-174 309q-6 11 7 11h105q8 0 11 -7l146 -264h71v262q0 9 10 9h91q9 0 9 -9v-262h72l146 264q3 7 11 7h105q13 0 7 -11l-175 -309z" />
<glyph unicode="&#x4c2;" horiz-adv-x="704" d="M349 565q-63 0 -92 22.5t-29 68.5v26q0 9 9 9h58q9 0 9 -9v-26q0 -18 9 -24t36 -6h4q27 0 36.5 6.5t9.5 23.5v26q0 9 9 9h58q9 0 9 -9v-26q0 -91 -122 -91h-4zM693 11q7 -11 -6 -11h-104q-9 0 -11 6l-107 202h-58v-199q0 -9 -9 -9h-92q-9 0 -9 9v199h-58l-106 -202 q-5 -6 -11 -6h-105q-13 0 -6 11l136 244l-133 241q-3 4 -0.5 7.5t7.5 3.5h105q6 0 11 -6l100 -193h60v190q0 9 9 9h92q9 0 9 -9v-190h60l101 193q2 6 11 6h104q5 0 7.5 -3.5t-0.5 -7.5l-133 -241z" />
<glyph unicode="&#x4cf;" horiz-adv-x="232" d="M71 0q-10 0 -10 9v489q0 9 10 9h91q9 0 9 -9v-489q0 -9 -9 -9h-91z" />
<glyph unicode="&#x4d0;" horiz-adv-x="562" d="M279 703q-63 0 -92 22.5t-29 68.5v26q0 9 9 9h58q9 0 9 -9v-26q0 -18 9 -24t36 -6h4q27 0 36.5 6.5t9.5 23.5v26q0 9 9 9h58q9 0 9 -9v-26q0 -91 -122 -91h-4zM550 10q3 -10 -7 -10h-96q-8 0 -11 7l-44 131h-222l-44 -131q-3 -7 -12 -7h-95q-11 0 -8 10l217 628q3 7 11 7 h84q8 0 11 -7zM203 237h155l-34 102q-31 95 -43 151q-14 -65 -44 -151z" />
<glyph unicode="&#x4d1;" horiz-adv-x="514" d="M254 565q-63 0 -92 22.5t-29 68.5v26q0 9 9 9h58q9 0 9 -9v-26q0 -18 9 -24t36 -6h4q27 0 36.5 6.5t9.5 23.5v26q0 9 9 9h58q9 0 9 -9v-26q0 -91 -122 -91h-4zM261 515q104 0 150.5 -42t46.5 -126v-338q0 -9 -10 -9h-55q-7 0 -11 6l-19 30q-65 -44 -154 -44 q-171 0 -171 146v17q0 69 40.5 101.5t131.5 32.5h138v58q0 38 -18.5 53.5t-68.5 15.5h-6q-50 0 -69 -15.5t-19 -52.5v-2q0 -9 -9 -9h-90q-10 0 -10 9v2q0 84 47 125.5t150 41.5h6zM147 138q0 -29 17.5 -41.5t61.5 -12.5q61 0 122 26v97h-143q-31 0 -44.5 -12.5t-13.5 -39.5 v-17z" />
<glyph unicode="&#x4d2;" horiz-adv-x="562" d="M164 711q-10 0 -10 9v100q0 9 10 9h77q9 0 9 -9v-100q0 -9 -9 -9h-77zM324 711q-10 0 -10 9v100q0 9 10 9h77q9 0 9 -9v-100q0 -9 -9 -9h-77zM550 10q3 -10 -7 -10h-96q-8 0 -11 7l-44 131h-222l-44 -131q-3 -7 -12 -7h-95q-11 0 -8 10l217 628q3 7 11 7h84q8 0 11 -7z M203 237h155l-34 102q-31 95 -43 151q-14 -65 -44 -151z" />
<glyph unicode="&#x4d3;" horiz-adv-x="514" d="M139 573q-10 0 -10 9v100q0 9 10 9h77q9 0 9 -9v-100q0 -9 -9 -9h-77zM299 573q-10 0 -10 9v100q0 9 10 9h77q9 0 9 -9v-100q0 -9 -9 -9h-77zM261 515q104 0 150.5 -42t46.5 -126v-338q0 -9 -10 -9h-55q-7 0 -11 6l-19 30q-65 -44 -154 -44q-171 0 -171 146v17 q0 69 40.5 101.5t131.5 32.5h138v58q0 38 -18.5 53.5t-68.5 15.5h-6q-50 0 -69 -15.5t-19 -52.5v-2q0 -9 -9 -9h-90q-10 0 -10 9v2q0 84 47 125.5t150 41.5h6zM147 138q0 -29 17.5 -41.5t61.5 -12.5q61 0 122 26v97h-143q-31 0 -44.5 -12.5t-13.5 -39.5v-17z" />
<glyph unicode="&#x4d4;" horiz-adv-x="843" d="M799 545h-284v-169h254q10 0 10 -9v-81q0 -10 -10 -10h-254v-176h284q10 0 10 -9v-82q0 -9 -10 -9h-384q-10 0 -10 9v129h-212l-64 -131q-3 -7 -11 -7h-99q-13 0 -7 11l308 627q3 7 11 7h468q10 0 10 -9v-82q0 -9 -10 -9zM241 235h164v311h-12z" />
<glyph unicode="&#x4d5;" horiz-adv-x="801" d="M746 229h-295v-64q0 -42 19.5 -59t75.5 -17h6q56 0 75.5 16.5t19.5 58.5v2q0 9 9 9h90q9 0 9 -9v-2q0 -88 -47 -130t-156 -42h-6q-124 0 -170 56q-75 -56 -172 -56q-82 0 -124 37.5t-42 108.5v17q0 69 40 102t128 33h136v52q0 41 -18 57.5t-67 16.5h-6q-49 0 -67 -16 t-18 -57v-2q0 -9 -9 -9h-91q-9 0 -9 9v2q0 87 46 129.5t148 42.5h6q98 0 141 -48q44 48 148 48h6q109 0 156 -42.5t47 -130.5v-103q0 -10 -9 -10zM546 418q-56 0 -75.5 -17t-19.5 -59v-36h196v36q0 42 -19.5 59t-75.5 17h-6zM222 84q63 0 124 30q-4 20 -4 51v42h-140 q-56 0 -56 -52v-17q0 -28 17.5 -41t58.5 -13z" />
<glyph unicode="&#x4d6;" horiz-adv-x="505" d="M260 703q-63 0 -92 22.5t-29 68.5v26q0 9 9 9h58q9 0 9 -9v-26q0 -18 9 -24t36 -6h4q27 0 36.5 6.5t9.5 23.5v26q0 9 9 9h58q9 0 9 -9v-26q0 -91 -122 -91h-4zM460 545h-284v-169h254q10 0 10 -9v-81q0 -10 -10 -10h-254v-176h284q10 0 10 -9v-82q0 -9 -10 -9h-384 q-10 0 -10 9v627q0 9 10 9h384q10 0 10 -9v-82q0 -9 -10 -9z" />
<glyph unicode="&#x4d7;" horiz-adv-x="525" d="M261 565q-63 0 -92 22.5t-29 68.5v26q0 9 9 9h58q9 0 9 -9v-26q0 -18 9 -24t36 -6h4q27 0 36.5 6.5t9.5 23.5v26q0 9 9 9h58q9 0 9 -9v-26q0 -91 -122 -91h-4zM469 228h-309v-64q0 -42 21 -58.5t81 -16.5h6q61 0 81.5 16.5t20.5 58.5v1q0 9 10 9h89q10 0 10 -9v-1 q0 -88 -48.5 -130t-162.5 -42h-6q-114 0 -162.5 42t-48.5 130v179q0 88 49 130t162 42h6q113 0 162 -42t49 -130v-105q0 -10 -10 -10zM262 418q-60 0 -81 -16.5t-21 -58.5v-35h210v35q0 42 -20.5 58.5t-81.5 16.5h-6z" />
<glyph unicode="&#x4d8;" horiz-adv-x="585" d="M293 653q130 0 183 -42.5t53 -135.5v-305q0 -93 -53 -135.5t-183 -42.5h-6q-130 0 -183 42.5t-53 135.5v166q0 9 10 9h358v130q0 45 -24.5 61.5t-101.5 16.5h-6q-77 0 -101.5 -16.5t-24.5 -61.5v-14q0 -9 -9 -9h-91q-10 0 -10 9v14q0 93 53 135.5t183 42.5h6zM293 92 q77 0 101.5 16.5t24.5 61.5v76h-258v-76q0 -45 24.5 -61.5t101.5 -16.5h6z" />
<glyph unicode="&#x4d9;" horiz-adv-x="525" d="M263 515q114 0 162.5 -42t48.5 -130v-179q0 -88 -49 -130t-162 -42h-6q-113 0 -162 42t-49 130v105q0 10 10 10h309v64q0 42 -21 58.5t-81 16.5h-6q-61 0 -81.5 -16.5t-20.5 -58.5v-1q0 -9 -10 -9h-89q-10 0 -10 9v1q0 88 48.5 130t162.5 42h6zM263 89q60 0 81 16.5 t21 58.5v35h-210v-35q0 -42 20.5 -58.5t81.5 -16.5h6z" />
<glyph unicode="&#x4da;" horiz-adv-x="585" d="M172 711q-10 0 -10 9v100q0 9 10 9h77q9 0 9 -9v-100q0 -9 -9 -9h-77zM332 711q-10 0 -10 9v100q0 9 10 9h77q9 0 9 -9v-100q0 -9 -9 -9h-77zM293 653q130 0 183 -42.5t53 -135.5v-305q0 -93 -53 -135.5t-183 -42.5h-6q-130 0 -183 42.5t-53 135.5v166q0 9 10 9h358v130 q0 45 -24.5 61.5t-101.5 16.5h-6q-77 0 -101.5 -16.5t-24.5 -61.5v-14q0 -9 -9 -9h-91q-10 0 -10 9v14q0 93 53 135.5t183 42.5h6zM293 92q77 0 101.5 16.5t24.5 61.5v76h-258v-76q0 -45 24.5 -61.5t101.5 -16.5h6z" />
<glyph unicode="&#x4db;" horiz-adv-x="525" d="M143 573q-10 0 -10 9v100q0 9 10 9h77q9 0 9 -9v-100q0 -9 -9 -9h-77zM303 573q-10 0 -10 9v100q0 9 10 9h77q9 0 9 -9v-100q0 -9 -9 -9h-77zM263 515q114 0 162.5 -42t48.5 -130v-179q0 -88 -49 -130t-162 -42h-6q-113 0 -162 42t-49 130v105q0 10 10 10h309v64 q0 42 -21 58.5t-81 16.5h-6q-61 0 -81.5 -16.5t-20.5 -58.5v-1q0 -9 -10 -9h-89q-10 0 -10 9v1q0 88 48.5 130t162.5 42h6zM263 89q60 0 81 16.5t21 58.5v35h-210v-35q0 -42 20.5 -58.5t81.5 -16.5h6z" />
<glyph unicode="&#x4dc;" horiz-adv-x="827" d="M296 711q-10 0 -10 9v100q0 9 10 9h77q9 0 9 -9v-100q0 -9 -9 -9h-77zM456 711q-10 0 -10 9v100q0 9 10 9h77q9 0 9 -9v-100q0 -9 -9 -9h-77zM813 11q6 -11 -7 -11h-106q-7 0 -11 7l-148 267h-73v-265q0 -9 -9 -9h-91q-10 0 -10 9v265h-72l-148 -267q-4 -7 -11 -7h-106 q-13 0 -7 11l178 314l-174 309q-6 11 7 11h105q8 0 11 -7l146 -264h71v262q0 9 10 9h91q9 0 9 -9v-262h72l146 264q3 7 11 7h105q13 0 7 -11l-175 -309z" />
<glyph unicode="&#x4dd;" horiz-adv-x="704" d="M234 573q-10 0 -10 9v100q0 9 10 9h77q9 0 9 -9v-100q0 -9 -9 -9h-77zM394 573q-10 0 -10 9v100q0 9 10 9h77q9 0 9 -9v-100q0 -9 -9 -9h-77zM693 11q7 -11 -6 -11h-104q-9 0 -11 6l-107 202h-58v-199q0 -9 -9 -9h-92q-9 0 -9 9v199h-58l-106 -202q-5 -6 -11 -6h-105 q-13 0 -6 11l136 244l-133 241q-3 4 -0.5 7.5t7.5 3.5h105q6 0 11 -6l100 -193h60v190q0 9 9 9h92q9 0 9 -9v-190h60l101 193q2 6 11 6h104q5 0 7.5 -3.5t-0.5 -7.5l-133 -241z" />
<glyph unicode="&#x4de;" horiz-adv-x="531" d="M146 711q-10 0 -10 9v100q0 9 10 9h77q9 0 9 -9v-100q0 -9 -9 -9h-77zM306 711q-10 0 -10 9v100q0 9 10 9h77q9 0 9 -9v-100q0 -9 -9 -9h-77zM400 327q52 -11 73.5 -40t21.5 -88v-29q0 -93 -51 -135.5t-177 -42.5h-6q-125 0 -176 42.5t-51 135.5v27q0 10 10 10h91 q9 0 9 -10v-27q0 -45 23.5 -61.5t93.5 -16.5h6q71 0 94.5 16.5t23.5 61.5v29q0 45 -23.5 61t-94.5 16h-75q-9 0 -9 10v81q0 9 9 9h73q67 0 89.5 16.5t22.5 61.5v21q0 45 -22 61.5t-88 16.5h-6q-65 0 -87 -16.5t-22 -61.5v-30q0 -10 -10 -10h-91q-9 0 -9 10v30q0 92 50 135 t169 43h6q120 0 170 -42.5t50 -135.5v-21q0 -58 -20 -87t-67 -40z" />
<glyph unicode="&#x4df;" horiz-adv-x="481" d="M120 573q-10 0 -10 9v100q0 9 10 9h77q9 0 9 -9v-100q0 -9 -9 -9h-77zM280 573q-10 0 -10 9v100q0 9 10 9h77q9 0 9 -9v-100q0 -9 -9 -9h-77zM369 254q43 -7 61 -29.5t18 -72.5v-10q0 -78 -46 -114t-158 -36h-6q-112 0 -158.5 36t-46.5 114v20q0 9 9 9h92q9 0 9 -9v-20 q0 -32 18 -43t77 -11h6q58 0 76 11t18 43v10q0 32 -18 43.5t-76 11.5h-63q-10 0 -10 9v76q0 9 10 9h63q54 0 72 12t18 44v9q0 30 -17.5 41.5t-72.5 11.5h-6q-55 0 -72.5 -11.5t-17.5 -41.5v-20q0 -10 -10 -10h-91q-9 0 -9 10v20q0 76 46 112.5t154 36.5h6q108 0 154 -36.5 t46 -112.5v-9q0 -48 -17.5 -71.5t-57.5 -31.5z" />
<glyph unicode="&#x4e2;" horiz-adv-x="633" d="M206 714q-10 0 -10 9v60q0 9 10 9h220q10 0 10 -9v-60q0 -9 -10 -9h-220zM557 645q10 0 10 -9v-627q0 -9 -10 -9h-91q-9 0 -9 9v291q0 105 5 180q-34 -79 -97 -180l-179 -294q-4 -6 -11 -6h-99q-10 0 -10 9v627q0 9 10 9h91q9 0 9 -9v-291q0 -107 -5 -182q31 73 97 182 l179 294q5 6 11 6h99z" />
<glyph unicode="&#x4e3;" horiz-adv-x="557" d="M170 576q-10 0 -10 9v60q0 9 10 9h220q10 0 10 -9v-60q0 -9 -10 -9h-220zM487 507q9 0 9 -9v-489q0 -9 -9 -9h-90q-9 0 -9 9v212q0 97 4 140q-24 -54 -52 -99l-159 -256q-5 -6 -11 -6h-99q-10 0 -10 9v489q0 9 10 9h89q10 0 10 -9v-212q0 -82 -4 -139q20 47 52 98 l158 256q4 6 11 6h100z" />
<glyph unicode="&#x4e4;" horiz-adv-x="633" d="M198 711q-10 0 -10 9v100q0 9 10 9h77q9 0 9 -9v-100q0 -9 -9 -9h-77zM358 711q-10 0 -10 9v100q0 9 10 9h77q9 0 9 -9v-100q0 -9 -9 -9h-77zM557 645q10 0 10 -9v-627q0 -9 -10 -9h-91q-9 0 -9 9v291q0 105 5 180q-34 -79 -97 -180l-179 -294q-4 -6 -11 -6h-99 q-10 0 -10 9v627q0 9 10 9h91q9 0 9 -9v-291q0 -107 -5 -182q31 73 97 182l179 294q5 6 11 6h99z" />
<glyph unicode="&#x4e5;" horiz-adv-x="557" d="M162 573q-10 0 -10 9v100q0 9 10 9h77q9 0 9 -9v-100q0 -9 -9 -9h-77zM322 573q-10 0 -10 9v100q0 9 10 9h77q9 0 9 -9v-100q0 -9 -9 -9h-77zM487 507q9 0 9 -9v-489q0 -9 -9 -9h-90q-9 0 -9 9v212q0 97 4 140q-24 -54 -52 -99l-159 -256q-5 -6 -11 -6h-99q-10 0 -10 9 v489q0 9 10 9h89q10 0 10 -9v-212q0 -82 -4 -139q20 47 52 98l158 256q4 6 11 6h100z" />
<glyph unicode="&#x4e6;" horiz-adv-x="598" d="M181 711q-10 0 -10 9v100q0 9 10 9h77q9 0 9 -9v-100q0 -9 -9 -9h-77zM341 711q-10 0 -10 9v100q0 9 10 9h77q9 0 9 -9v-100q0 -9 -9 -9h-77zM56 170v305q0 93 53.5 135.5t186.5 42.5h6q133 0 186 -42.5t53 -135.5v-305q0 -93 -53 -135.5t-186 -42.5h-6 q-133 0 -186.5 42.5t-53.5 135.5zM166 170q0 -45 25.5 -61.5t104.5 -16.5h6q79 0 104 16.5t25 61.5v305q0 45 -25 61.5t-104 16.5h-6q-79 0 -104.5 -16.5t-25.5 -61.5v-305z" />
<glyph unicode="&#x4e7;" horiz-adv-x="534" d="M149 573q-10 0 -10 9v100q0 9 10 9h77q9 0 9 -9v-100q0 -9 -9 -9h-77zM309 573q-10 0 -10 9v100q0 9 10 9h77q9 0 9 -9v-100q0 -9 -9 -9h-77zM51 165v177q0 89 49 131t164 42h6q115 0 164 -42t49 -131v-177q0 -89 -49 -131t-164 -42h-6q-115 0 -164 42t-49 131zM161 165 q0 -41 21 -57t82 -16h6q61 0 82 16t21 57v177q0 41 -21 57t-82 16h-6q-61 0 -82 -16t-21 -57v-177z" />
<glyph unicode="&#x4e8;" horiz-adv-x="598" d="M302 653q133 0 186 -42.5t53 -135.5v-305q0 -93 -53 -135.5t-186 -42.5h-6q-133 0 -186.5 42.5t-53.5 135.5v305q0 93 53.5 135.5t186.5 42.5h6zM296 553q-79 0 -104.5 -16.5t-25.5 -61.5v-105h265v105q0 45 -25 61.5t-104 16.5h-6zM302 92q79 0 104 16.5t25 61.5v106 h-265v-106q0 -45 25.5 -61.5t104.5 -16.5h6z" />
<glyph unicode="&#x4e9;" horiz-adv-x="534" d="M270 515q115 0 164 -42t49 -131v-177q0 -89 -49 -131t-164 -42h-6q-115 0 -164 42t-49 131v177q0 89 49 131t164 42h6zM264 415q-61 0 -82 -16t-21 -57v-52h212v52q0 41 -21 57t-82 16h-6zM270 92q61 0 82 16t21 57v52h-212v-52q0 -41 21 -57t82 -16h6z" />
<glyph unicode="&#x4ea;" horiz-adv-x="598" d="M181 711q-10 0 -10 9v100q0 9 10 9h77q9 0 9 -9v-100q0 -9 -9 -9h-77zM341 711q-10 0 -10 9v100q0 9 10 9h77q9 0 9 -9v-100q0 -9 -9 -9h-77zM302 653q133 0 186 -42.5t53 -135.5v-305q0 -93 -53 -135.5t-186 -42.5h-6q-133 0 -186.5 42.5t-53.5 135.5v305 q0 93 53.5 135.5t186.5 42.5h6zM296 553q-79 0 -104.5 -16.5t-25.5 -61.5v-105h265v105q0 45 -25 61.5t-104 16.5h-6zM302 92q79 0 104 16.5t25 61.5v106h-265v-106q0 -45 25.5 -61.5t104.5 -16.5h6z" />
<glyph unicode="&#x4eb;" horiz-adv-x="534" d="M149 573q-10 0 -10 9v100q0 9 10 9h77q9 0 9 -9v-100q0 -9 -9 -9h-77zM309 573q-10 0 -10 9v100q0 9 10 9h77q9 0 9 -9v-100q0 -9 -9 -9h-77zM270 515q115 0 164 -42t49 -131v-177q0 -89 -49 -131t-164 -42h-6q-115 0 -164 42t-49 131v177q0 89 49 131t164 42h6zM264 415 q-61 0 -82 -16t-21 -57v-52h212v52q0 41 -21 57t-82 16h-6zM270 92q61 0 82 16t21 57v52h-212v-52q0 -41 21 -57t82 -16h6z" />
<glyph unicode="&#x4ec;" horiz-adv-x="579" d="M169 711q-10 0 -10 9v100q0 9 10 9h77q9 0 9 -9v-100q0 -9 -9 -9h-77zM329 711q-10 0 -10 9v100q0 9 10 9h77q9 0 9 -9v-100q0 -9 -9 -9h-77zM290 653q128 0 180.5 -42.5t52.5 -135.5v-305q0 -93 -52.5 -135.5t-180.5 -42.5h-6q-128 0 -180 42.5t-52 135.5v34q0 9 9 9h91 q10 0 10 -9v-34q0 -45 24 -61.5t98 -16.5h6q74 0 98.5 16.5t24.5 61.5v106h-192q-9 0 -9 9v76q0 9 9 9h192v105q0 45 -24.5 61.5t-98.5 16.5h-6q-74 0 -98 -16.5t-24 -61.5v-34q0 -9 -10 -9h-91q-9 0 -9 9v34q0 93 52 135.5t180 42.5h6z" />
<glyph unicode="&#x4ed;" horiz-adv-x="510" d="M130 573q-10 0 -10 9v100q0 9 10 9h77q9 0 9 -9v-100q0 -9 -9 -9h-77zM290 573q-10 0 -10 9v100q0 9 10 9h77q9 0 9 -9v-100q0 -9 -9 -9h-77zM251 515q111 0 159.5 -42.5t48.5 -130.5v-177q0 -89 -48 -131t-160 -42h-6q-112 0 -160 42t-48 131v11q0 10 10 10h91 q9 0 9 -10v-11q0 -41 20 -57t78 -16h6q58 0 78 16t20 57v45h-133q-10 0 -10 9v69q0 9 10 9h133v45q0 40 -20.5 56.5t-77.5 16.5h-6q-57 0 -77.5 -16.5t-20.5 -56.5v-11q0 -10 -9 -10h-91q-10 0 -10 10v11q0 88 48.5 130.5t159.5 42.5h6z" />
<glyph unicode="&#x4ee;" horiz-adv-x="486" d="M136 714q-10 0 -10 9v60q0 9 10 9h220q10 0 10 -9v-60q0 -9 -10 -9h-220zM483 645q12 0 7 -11l-162 -467q-37 -110 -77 -142t-139 -32h-58q-9 0 -9 9v82q0 9 9 9h63q43 0 60.5 8.5t31.5 39.5l-200 493q-4 11 8 11h90q8 0 11 -8l82 -201q41 -101 60 -185q19 97 51 187 l70 200q3 7 11 7h91z" />
<glyph unicode="&#x4ef;" horiz-adv-x="464" d="M124 576q-10 0 -10 9v60q0 9 10 9h220q10 0 10 -9v-60q0 -9 -10 -9h-220zM456 507q11 0 8 -10l-243 -690q-3 -8 -11 -8h-94q-12 0 -7 11l71 184l-175 503q-3 10 7 10h97q8 0 11 -8l66 -202q32 -97 49 -188q17 91 49 188l66 202q3 8 11 8h95z" />
<glyph unicode="&#x4f0;" horiz-adv-x="486" d="M128 711q-10 0 -10 9v100q0 9 10 9h77q9 0 9 -9v-100q0 -9 -9 -9h-77zM288 711q-10 0 -10 9v100q0 9 10 9h77q9 0 9 -9v-100q0 -9 -9 -9h-77zM483 645q12 0 7 -11l-162 -467q-37 -110 -77 -142t-139 -32h-58q-9 0 -9 9v82q0 9 9 9h63q43 0 60.5 8.5t31.5 39.5l-200 493 q-4 11 8 11h90q8 0 11 -8l82 -201q41 -101 60 -185q19 97 51 187l70 200q3 7 11 7h91z" />
<glyph unicode="&#x4f1;" horiz-adv-x="464" d="M116 573q-10 0 -10 9v100q0 9 10 9h77q9 0 9 -9v-100q0 -9 -9 -9h-77zM276 573q-10 0 -10 9v100q0 9 10 9h77q9 0 9 -9v-100q0 -9 -9 -9h-77zM456 507q11 0 8 -10l-243 -690q-3 -8 -11 -8h-94q-12 0 -7 11l71 184l-175 503q-3 10 7 10h97q8 0 11 -8l66 -202 q32 -97 49 -188q17 91 49 188l66 202q3 8 11 8h95z" />
<glyph unicode="&#x4f2;" horiz-adv-x="486" d="M137 706q-13 0 -8 12l52 104q3 7 10 7h74q13 0 7 -11l-66 -105q-4 -7 -11 -7h-58zM279 706q-11 0 -6 12l51 104q3 7 11 7h73q12 0 7 -11l-66 -105q-4 -7 -11 -7h-59zM483 645q12 0 7 -11l-162 -467q-37 -110 -77 -142t-139 -32h-58q-9 0 -9 9v82q0 9 9 9h63 q43 0 60.5 8.5t31.5 39.5l-200 493q-4 11 8 11h90q8 0 11 -8l82 -201q41 -101 60 -185q19 97 51 187l70 200q3 7 11 7h91z" />
<glyph unicode="&#x4f3;" horiz-adv-x="464" d="M125 568q-13 0 -8 12l52 104q3 7 10 7h74q13 0 7 -11l-66 -105q-4 -7 -11 -7h-58zM267 568q-11 0 -6 12l51 104q3 7 11 7h73q12 0 7 -11l-66 -105q-4 -7 -11 -7h-59zM456 507q11 0 8 -10l-243 -690q-3 -8 -11 -8h-94q-12 0 -7 11l71 184l-175 503q-3 10 7 10h97 q8 0 11 -8l66 -202q32 -97 49 -188q17 91 49 188l66 202q3 8 11 8h95z" />
<glyph unicode="&#x4f4;" horiz-adv-x="552" d="M140 711q-10 0 -10 9v100q0 9 10 9h77q9 0 9 -9v-100q0 -9 -9 -9h-77zM300 711q-10 0 -10 9v100q0 9 10 9h77q9 0 9 -9v-100q0 -9 -9 -9h-77zM477 645q9 0 9 -9v-627q0 -9 -9 -9h-92q-9 0 -9 9v221q-76 -31 -160 -31q-99 0 -142 44.5t-43 144.5v248q0 9 9 9h92q9 0 9 -9 v-231q0 -63 17 -84.5t67 -21.5q72 0 151 31v306q0 9 9 9h92z" />
<glyph unicode="&#x4f5;" horiz-adv-x="492" d="M114 573q-10 0 -10 9v100q0 9 10 9h77q9 0 9 -9v-100q0 -9 -9 -9h-77zM274 573q-10 0 -10 9v100q0 9 10 9h77q9 0 9 -9v-100q0 -9 -9 -9h-77zM421 507q10 0 10 -9v-489q0 -9 -10 -9h-91q-9 0 -9 9v157q-63 -26 -133 -26q-85 0 -120 37.5t-35 128.5v192q0 9 9 9h92 q9 0 9 -9v-178q0 -50 12 -65t48 -15q57 0 118 25v233q0 9 9 9h91z" />
<glyph unicode="&#x4f8;" horiz-adv-x="765" d="M612 720q0 -9 -9 -9h-77q-10 0 -10 9v100q0 9 10 9h77q9 0 9 -9v-100zM763 829q9 0 9 -9v-100q0 -9 -9 -9h-77q-10 0 -10 9v100q0 9 10 9h77zM326 405q97 0 140.5 -41t43.5 -126v-71q0 -85 -43.5 -126t-140.5 -41h-250q-10 0 -10 9v627q0 9 10 9h91q9 0 9 -9v-231h150z M690 645q9 0 9 -9v-627q0 -9 -9 -9h-91q-10 0 -10 9v627q0 9 10 9h91zM400 173v59q0 45 -18.5 59t-80.5 14h-125v-206h125q62 0 80.5 14.5t18.5 59.5z" />
<glyph unicode="&#x4f9;" horiz-adv-x="706" d="M558 582q0 -9 -9 -9h-77q-10 0 -10 9v100q0 9 10 9h77q9 0 9 -9v-100zM709 691q9 0 9 -9v-100q0 -9 -9 -9h-77q-10 0 -10 9v100q0 9 10 9h77zM306 348q83 0 121.5 -35.5t38.5 -107.5v-62q0 -72 -38.5 -107.5t-121.5 -35.5h-235q-10 0 -10 9v489q0 9 10 9h91q9 0 9 -9 v-150h135zM636 507q9 0 9 -9v-489q0 -9 -9 -9h-91q-10 0 -10 9v489q0 9 10 9h91zM356 143v62q0 24 -12 33.5t-45 9.5h-128v-148h128q32 0 44.5 9.5t12.5 33.5z" />
<glyph unicode="&#x1e80;" horiz-adv-x="849" d="M287 818q-5 4 -3.5 7.5t8.5 3.5h95q7 0 11 -5l99 -106q10 -12 -5 -12h-74q-7 0 -12 5zM825 645q11 0 8 -11l-174 -626q-1 -8 -10 -8h-93q-8 0 -11 8l-82 299q-26 98 -38 178q-13 -80 -39 -178l-82 -299q-1 -8 -10 -8h-93q-8 0 -11 8l-174 626q-3 11 8 11h98q8 0 10 -8 l81 -299q24 -90 35 -161q12 74 36 162l82 298q2 8 11 8h96q8 0 10 -8l82 -298q24 -82 37 -161q11 70 35 160l80 299q2 8 11 8h97z" />
<glyph unicode="&#x1e81;" horiz-adv-x="747" d="M236 680q-5 4 -3.5 7.5t8.5 3.5h95q7 0 11 -5l99 -106q10 -12 -5 -12h-74q-7 0 -12 5zM729 507q11 0 8 -10l-139 -489q-2 -8 -10 -8h-111q-8 0 -10 8l-51 176q-28 94 -43 199q-15 -105 -43 -199l-50 -176q-2 -8 -10 -8h-111q-8 0 -11 8l-138 489q-3 10 8 10h96q8 0 11 -8 l52 -201q26 -100 40 -190q14 89 42 190l58 201q1 8 10 8h92q8 0 11 -8l57 -201q27 -93 43 -189q13 88 39 189l53 201q2 8 11 8h96z" />
<glyph unicode="&#x1e82;" horiz-adv-x="849" d="M360 706q-15 0 -5 12l99 106q4 5 12 5h96q6 0 7.5 -3.5t-3.5 -7.5l-120 -107q-5 -5 -11 -5h-75zM825 645q11 0 8 -11l-174 -626q-1 -8 -10 -8h-93q-8 0 -11 8l-82 299q-26 98 -38 178q-13 -80 -39 -178l-82 -299q-1 -8 -10 -8h-93q-8 0 -11 8l-174 626q-3 11 8 11h98 q8 0 10 -8l81 -299q24 -90 35 -161q12 74 36 162l82 298q2 8 11 8h96q8 0 10 -8l82 -298q24 -82 37 -161q11 70 35 160l80 299q2 8 11 8h97z" />
<glyph unicode="&#x1e83;" horiz-adv-x="747" d="M309 568q-15 0 -5 12l99 106q4 5 12 5h96q6 0 7.5 -3.5t-3.5 -7.5l-120 -107q-5 -5 -11 -5h-75zM729 507q11 0 8 -10l-139 -489q-2 -8 -10 -8h-111q-8 0 -10 8l-51 176q-28 94 -43 199q-15 -105 -43 -199l-50 -176q-2 -8 -10 -8h-111q-8 0 -11 8l-138 489q-3 10 8 10h96 q8 0 11 -8l52 -201q26 -100 40 -190q14 89 42 190l58 201q1 8 10 8h92q8 0 11 -8l57 -201q27 -93 43 -189q13 88 39 189l53 201q2 8 11 8h96z" />
<glyph unicode="&#x1e84;" horiz-adv-x="849" d="M307 711q-10 0 -10 9v100q0 9 10 9h77q9 0 9 -9v-100q0 -9 -9 -9h-77zM467 711q-10 0 -10 9v100q0 9 10 9h77q9 0 9 -9v-100q0 -9 -9 -9h-77zM825 645q11 0 8 -11l-174 -626q-1 -8 -10 -8h-93q-8 0 -11 8l-82 299q-26 98 -38 178q-13 -80 -39 -178l-82 -299q-1 -8 -10 -8 h-93q-8 0 -11 8l-174 626q-3 11 8 11h98q8 0 10 -8l81 -299q24 -90 35 -161q12 74 36 162l82 298q2 8 11 8h96q8 0 10 -8l82 -298q24 -82 37 -161q11 70 35 160l80 299q2 8 11 8h97z" />
<glyph unicode="&#x1e85;" horiz-adv-x="747" d="M256 573q-10 0 -10 9v100q0 9 10 9h77q9 0 9 -9v-100q0 -9 -9 -9h-77zM416 573q-10 0 -10 9v100q0 9 10 9h77q9 0 9 -9v-100q0 -9 -9 -9h-77zM729 507q11 0 8 -10l-139 -489q-2 -8 -10 -8h-111q-8 0 -10 8l-51 176q-28 94 -43 199q-15 -105 -43 -199l-50 -176 q-2 -8 -10 -8h-111q-8 0 -11 8l-138 489q-3 10 8 10h96q8 0 11 -8l52 -201q26 -100 40 -190q14 89 42 190l58 201q1 8 10 8h92q8 0 11 -8l57 -201q27 -93 43 -189q13 88 39 189l53 201q2 8 11 8h96z" />
<glyph unicode="&#x1ef2;" horiz-adv-x="501" d="M113 818q-5 4 -3.5 7.5t8.5 3.5h95q7 0 11 -5l99 -106q10 -12 -5 -12h-74q-7 0 -12 5zM496 645q5 0 6.5 -3.5t-0.5 -7.5l-196 -396v-229q0 -9 -10 -9h-91q-9 0 -9 9v227l-197 398q-5 11 6 11h100q7 0 10 -7l73 -151q41 -84 63 -157q21 72 62 157l73 151q3 7 11 7h99z" />
<glyph unicode="&#x1ef3;" horiz-adv-x="464" d="M96 680q-5 4 -3.5 7.5t8.5 3.5h95q7 0 11 -5l99 -106q10 -12 -5 -12h-74q-7 0 -12 5zM456 507q11 0 8 -10l-243 -690q-3 -8 -11 -8h-94q-12 0 -7 11l71 184l-175 503q-3 10 7 10h97q8 0 11 -8l66 -202q32 -97 49 -188q17 91 49 188l66 202q3 8 11 8h95z" />
<glyph unicode="&#x2000;" horiz-adv-x="442" />
<glyph unicode="&#x2001;" horiz-adv-x="884" />
<glyph unicode="&#x2002;" horiz-adv-x="442" />
<glyph unicode="&#x2003;" horiz-adv-x="884" />
<glyph unicode="&#x2004;" horiz-adv-x="294" />
<glyph unicode="&#x2005;" horiz-adv-x="221" />
<glyph unicode="&#x2006;" horiz-adv-x="147" />
<glyph unicode="&#x2007;" horiz-adv-x="147" />
<glyph unicode="&#x2008;" horiz-adv-x="110" />
<glyph unicode="&#x2009;" horiz-adv-x="176" />
<glyph unicode="&#x200a;" horiz-adv-x="49" />
<glyph unicode="&#x2010;" horiz-adv-x="323" d="M31 236q-9 0 -9 9v81q0 10 9 10h261q10 0 10 -10v-81q0 -9 -10 -9h-261z" />
<glyph unicode="&#x2011;" horiz-adv-x="323" d="M31 236q-9 0 -9 9v81q0 10 9 10h261q10 0 10 -10v-81q0 -9 -10 -9h-261z" />
<glyph unicode="&#x2012;" horiz-adv-x="323" d="M31 236q-9 0 -9 9v81q0 10 9 10h261q10 0 10 -10v-81q0 -9 -10 -9h-261z" />
<glyph unicode="&#x2013;" horiz-adv-x="443" d="M31 236q-9 0 -9 9v81q0 10 9 10h381q10 0 10 -10v-81q0 -9 -10 -9h-381z" />
<glyph unicode="&#x2014;" horiz-adv-x="803" d="M31 236q-9 0 -9 9v81q0 10 9 10h741q10 0 10 -10v-81q0 -9 -10 -9h-741z" />
<glyph unicode="&#x2018;" horiz-adv-x="176" d="M42 686h38q8 0 11 -8l49 -137q3 -8 3 -14v-101q0 -9 -10 -9h-91q-9 0 -9 9v251q0 9 9 9z" />
<glyph unicode="&#x2019;" horiz-adv-x="176" d="M134 417h-38q-8 0 -11 8l-49 137q-3 8 -3 14v101q0 9 10 9h91q9 0 9 -9v-251q0 -9 -9 -9z" />
<glyph unicode="&#x201a;" horiz-adv-x="176" d="M42 -153q-9 0 -9 9v251q0 9 9 9h91q10 0 10 -9v-101q0 -7 -3 -14l-49 -137q-3 -8 -11 -8h-38z" />
<glyph unicode="&#x201c;" horiz-adv-x="340" d="M42 686h38q8 0 11 -8l49 -137q3 -8 3 -14v-101q0 -9 -10 -9h-91q-9 0 -9 9v251q0 9 9 9zM207 686h38q8 0 11 -8l49 -137q3 -8 3 -14v-101q0 -9 -10 -9h-91q-9 0 -9 9v251q0 9 9 9z" />
<glyph unicode="&#x201d;" horiz-adv-x="340" d="M133 416h-38q-8 0 -11 8l-49 137q-3 7 -3 14v101q0 9 10 9h91q9 0 9 -9v-251q0 -9 -9 -9zM298 416h-38q-8 0 -11 8l-49 137q-3 7 -3 14v101q0 9 10 9h91q9 0 9 -9v-251q0 -9 -9 -9z" />
<glyph unicode="&#x201e;" horiz-adv-x="340" d="M42 -153q-9 0 -9 9v251q0 9 9 9h91q10 0 10 -9v-101q0 -7 -3 -14l-49 -137q-3 -8 -11 -8h-38zM207 -153q-9 0 -9 9v251q0 9 9 9h91q10 0 10 -9v-101q0 -7 -3 -14l-49 -137q-3 -8 -11 -8h-38z" />
<glyph unicode="&#x2020;" horiz-adv-x="446" d="M403 445q9 0 9 -9v-78q0 -10 -9 -10h-126v-339q0 -9 -9 -9h-90q-9 0 -9 9v339h-127q-9 0 -9 10v78q0 9 9 9h127v191q0 9 9 9h90q9 0 9 -9v-191h126z" />
<glyph unicode="&#x2021;" horiz-adv-x="446" d="M403 485q9 0 9 -9v-78q0 -10 -9 -10h-126v-125h117q9 0 9 -9v-78q0 -10 -9 -10h-117v-157q0 -9 -9 -9h-90q-9 0 -9 9v157h-117q-9 0 -9 10v78q0 9 9 9h117v125h-127q-9 0 -9 10v78q0 9 9 9h127v151q0 9 9 9h90q9 0 9 -9v-151h126z" />
<glyph unicode="&#x2022;" horiz-adv-x="340" d="M92 216q-9 0 -9 9v186q0 10 9 10h156q9 0 9 -10v-186q0 -9 -9 -9h-156z" />
<glyph unicode="&#x2026;" horiz-adv-x="538" d="M42 0q-9 0 -9 9v98q0 9 9 9h93q10 0 10 -9v-98q0 -9 -10 -9h-93zM222 0q-9 0 -9 9v98q0 9 9 9h93q10 0 10 -9v-98q0 -9 -10 -9h-93zM402 0q-9 0 -9 9v98q0 9 9 9h93q10 0 10 -9v-98q0 -9 -10 -9h-93z" />
<glyph unicode="&#x202f;" horiz-adv-x="176" />
<glyph unicode="&#x2030;" horiz-adv-x="1237" d="M184 297q-86 0 -118.5 34.5t-32.5 121.5v44q0 87 32.5 121.5t118.5 34.5h24q85 0 119 -35t34 -121v-44q0 -86 -34 -121t-119 -35h-24zM221 0q-13 0 -7 11l327 627q3 7 11 7h80q5 0 6.5 -3.5t-0.5 -7.5l-326 -627q-4 -7 -11 -7h-80zM184 384h24q34 0 46 13.5t12 55.5v44 q0 42 -12 55.5t-46 13.5h-24q-34 0 -45.5 -13t-11.5 -56v-44q0 -43 11.5 -56t45.5 -13zM643 -8q-86 0 -118.5 34.5t-32.5 121.5v44q0 87 32.5 121.5t118.5 34.5h24q85 0 119 -35t34 -121v-44q0 -86 -34 -121t-119 -35h-24zM1027 -8q-86 0 -118.5 34.5t-32.5 121.5v44 q0 87 32.5 121.5t118.5 34.5h23q86 0 120 -34.5t34 -121.5v-44q0 -87 -34 -121.5t-120 -34.5h-23zM643 79h24q34 0 46 13.5t12 55.5v44q0 42 -12 55.5t-46 13.5h-24q-34 0 -45.5 -13t-11.5 -56v-44q0 -43 11.5 -56t45.5 -13zM1027 79h23q35 0 47 13.5t12 55.5v44 q0 42 -12 55.5t-47 13.5h-23q-34 0 -45.5 -13t-11.5 -56v-44q0 -43 11.5 -56t45.5 -13z" />
<glyph unicode="&#x2039;" horiz-adv-x="296" d="M122 251l132 -167q6 -6 -1 -13l-43 -44q-7 -9 -13 0l-178 218q-7 6 0 13l178 218q5 8 13 0l43 -45q6 -6 1 -13z" />
<glyph unicode="&#x203a;" horiz-adv-x="296" d="M277 258q7 -7 0 -13l-178 -218q-6 -9 -13 0l-43 44q-7 7 -1 13l132 167l-132 167q-5 7 1 13l43 45q8 8 13 0z" />
<glyph unicode="&#x2044;" horiz-adv-x="562" d="M63 0q-12 0 -7 11l362 627q5 7 11 7h70q12 0 6 -11l-361 -627q-4 -7 -11 -7h-70z" />
<glyph unicode="&#x205f;" horiz-adv-x="221" />
<glyph unicode="&#x20ac;" horiz-adv-x="595" d="M318 653q122 0 173 -43t51 -135v-30q0 -10 -9 -10h-92q-9 0 -9 10v30q0 45 -23 61.5t-91 16.5h-6q-69 0 -92 -16.5t-23 -61.5v-42h160q9 0 9 -10v-64q0 -9 -9 -9h-315q-9 0 -9 9v64q0 10 9 10h45v42q0 92 51.5 135t173.5 43h6zM533 207q9 0 9 -10v-27q0 -92 -51 -135 t-173 -43h-6q-122 0 -173.5 43t-51.5 135v42h-45q-9 0 -9 10v64q0 10 9 10h315q9 0 9 -10v-64q0 -10 -9 -10h-160v-42q0 -45 23 -61.5t92 -16.5h6q68 0 91 16.5t23 61.5v27q0 10 9 10h92z" />
<glyph unicode="&#x20bd;" horiz-adv-x="539" d="M333 645q93 0 138 -43t45 -131v-38q0 -88 -44.5 -130.5t-138.5 -42.5h-150v-81h181q9 0 9 -9v-71q0 -9 -9 -9h-181v-81q0 -9 -10 -9h-91q-9 0 -9 9v81h-51q-9 0 -9 9v71q0 9 9 9h51v81h-51q-9 0 -9 9v80q0 9 9 9h51v278q0 9 9 9h251zM406 432v39q0 45 -18.5 59.5 t-80.5 14.5h-124v-187h124q62 0 80.5 14.5t18.5 59.5z" />
<glyph unicode="&#x2116;" horiz-adv-x="1162" d="M893 652q115 0 164 -42t49 -131v-109q0 -89 -49 -131t-164 -42h-6q-115 0 -164 42t-49 131v109q0 89 49 131t164 42h6zM557 645q10 0 10 -9v-627q0 -9 -10 -9h-99q-6 0 -11 6l-179 294q-63 101 -97 180q5 -75 5 -180v-291q0 -9 -9 -9h-91q-10 0 -10 9v627q0 9 10 9h99 q7 0 11 -6l179 -294q66 -109 97 -182q-5 75 -5 182v291q0 9 9 9h91zM996 370v109q0 41 -21 57t-82 16h-6q-61 0 -82 -16t-21 -57v-109q0 -41 21 -57t82 -16h6q61 0 82 16t21 57zM1090 100q10 0 10 -9v-81q0 -10 -10 -10h-400q-10 0 -10 10v81q0 9 10 9h400z" />
<glyph unicode="&#x2122;" horiz-adv-x="845" d="M325 645q10 0 10 -9v-73q0 -9 -10 -9h-97v-245q0 -9 -9 -9h-80q-9 0 -9 9v245h-98q-9 0 -9 9v73q0 9 9 9h293zM790 645q9 0 9 -9v-327q0 -9 -9 -9h-76q-9 0 -9 9v186l-63 -115q-3 -6 -11 -6h-71q-8 0 -11 6l-64 117v-188q0 -9 -9 -9h-75q-10 0 -10 9v327q0 9 10 9h79 q6 0 11 -6l105 -171l104 171q3 6 11 6h79z" />
<glyph unicode="&#x212e;" horiz-adv-x="847" d="M424 22q138 0 228 105h62q-51 -62 -127 -98.5t-163 -36.5q-150 0 -255.5 97t-105.5 234t105.5 233.5t255.5 96.5q149 0 254.5 -96.5t105.5 -233.5q0 -11 -1 -16h-585v-184q90 -101 226 -101zM198 338h451v184q-91 101 -225 101q-136 0 -226 -101v-184z" />
<glyph unicode="&#x2190;" horiz-adv-x="745" d="M686 381q9 0 9 -9v-84q0 -9 -9 -9h-471l139 -141q6 -5 0 -13l-47 -49q-7 -7 -14 0l-237 247q-6 7 0 14l237 247q7 7 14 0l47 -49q5 -7 0 -14l-139 -140h471z" />
<glyph unicode="&#x2191;" horiz-adv-x="745" d="M626 402q7 -7 0 -14l-49 -47q-7 -5 -14 0l-140 139v-471q0 -9 -9 -9h-84q-9 0 -9 9v471l-141 -139q-5 -7 -13 0l-49 47q-7 7 0 14l247 237q7 6 14 0z" />
<glyph unicode="&#x2192;" horiz-adv-x="745" d="M689 331q6 -7 0 -14l-237 -247q-7 -7 -14 0l-47 49q-5 7 0 14l139 140h-471q-9 0 -9 9v84q0 9 9 9h471l-139 141q-7 5 0 13l47 49q7 7 14 0z" />
<glyph unicode="&#x2193;" horiz-adv-x="745" d="M626 257q7 -7 0 -14l-247 -237q-7 -6 -14 0l-247 237q-7 7 0 14l49 47q7 5 14 0l140 -139v471q0 9 9 9h84q9 0 9 -9v-471l141 139q5 6 13 0z" />
<glyph unicode="&#x2194;" horiz-adv-x="745" d="M690 328q6 -6 0 -12l-217 -227q-6 -6 -12 0l-35 37q-6 6 -1 11l136 143h-377l137 -143q5 -5 -1 -11l-36 -37q-6 -6 -12 0l-216 227q-6 6 0 12l216 229q6 6 12 0l35 -36q5 -5 0 -12l-133 -142h374l-133 142q-5 6 0 12l34 36q7 7 12 0z" />
<glyph unicode="&#x2195;" horiz-adv-x="745" d="M570 268l36 -34q7 -7 0 -12l-229 -217q-6 -6 -12 0l-227 217q-6 6 0 12l37 35q6 6 11 1l143 -136v377l-143 -137q-5 -5 -11 1l-37 36q-6 6 0 12l227 216q6 6 12 0l229 -216q6 -6 0 -12l-36 -35q-5 -5 -12 0l-142 133v-374l142 133q6 4 12 0z" />
<glyph unicode="&#x2196;" horiz-adv-x="745" d="M616 149q6 -6 0 -12l-60 -60q-6 -6 -12 0l-334 334l-1 -199q1 -7 -9 -9l-68 -1q-10 0 -10 10l7 342q1 9 10 10l342 7q10 0 10 -10l-1 -68q-1 -8 -10 -10l-197 -1z" />
<glyph unicode="&#x2197;" horiz-adv-x="745" d="M616 542l7 -342q0 -10 -10 -10l-68 1q-8 1 -10 10l-1 197l-333 -333q-6 -6 -12 0l-60 60q-6 6 0 12l334 334l-199 1q-4 -1 -6 1.5t-3 7.5l-1 68q0 10 10 10l342 -7q9 -1 10 -10z" />
<glyph unicode="&#x2198;" horiz-adv-x="745" d="M613 454q10 0 10 -10l-7 -342q-1 -9 -10 -10l-342 -7q-10 0 -10 10l1 68q1 8 10 10l197 1l-333 333q-6 6 0 12l60 60q6 6 12 0l334 -334l1 199q-1 7 9 9z" />
<glyph unicode="&#x2199;" horiz-adv-x="745" d="M616 512q6 -6 0 -12l-334 -334l199 -1q4 1 6 -1.5t3 -7.5l1 -68q0 -10 -10 -10l-342 7q-9 1 -10 10l-7 342q0 10 10 10l68 -1q8 -1 10 -10l1 -197l333 333q6 6 12 0z" />
<glyph unicode="&#x2202;" horiz-adv-x="511" d="M257 653q113 0 162 -43t49 -135v-305q0 -92 -49 -135t-162 -43h-13q-113 0 -162 42.5t-49 132.5v57q0 89 46.5 132t149.5 43h12q49 0 76.5 -13t40.5 -47v136q0 44 -21 61t-80 17h-154q-10 0 -10 9v82q0 9 10 9h154zM358 170v51q0 44 -21 61t-80 17h-13q-59 0 -80 -16.5 t-21 -58.5v-57q0 -44 20.5 -59.5t80.5 -15.5h13q59 0 80 17t21 61z" />
<glyph unicode="&#x2205;" horiz-adv-x="542" d="M500 603q12 0 6 -11l-67 -120q48 -41 48 -130v-177q0 -89 -49 -131t-164 -42h-6q-54 0 -95 9l-51 -91q-5 -7 -12 -7h-68q-13 0 -6 12l67 119q-48 41 -48 131v177q0 89 49 131t164 42h6q56 0 95 -10l51 91q4 7 12 7h68zM165 165q0 -13 1 -19l151 266q-18 3 -43 3h-6 q-61 0 -82 -16t-21 -57v-177zM377 342q0 13 -1 19l-150 -267q24 -2 42 -2h6q61 0 82 16t21 57v177z" />
<glyph unicode="&#x220f;" horiz-adv-x="521" d="M488 645q10 0 10 -9v-71q0 -9 -10 -9h-78v-547q0 -9 -9 -9h-84q-10 0 -10 9v547h-94v-547q0 -9 -9 -9h-84q-10 0 -10 9v547h-78q-9 0 -9 9v71q0 9 9 9h456z" />
<glyph unicode="&#x2211;" horiz-adv-x="394" d="M369 565q0 -9 -9 -9h-224l137 -225q4 -7 0 -14l-137 -226h224q9 0 9 -9v-73q0 -9 -9 -9h-326q-9 0 -9 9v76q0 8 3 12l136 227l-136 226q-3 6 -3 12v74q0 9 9 9h326q9 0 9 -9v-71z" />
<glyph unicode="&#x2212;" horiz-adv-x="500" d="M50 202q-10 0 -10 10v81q0 9 10 9h400q10 0 10 -9v-81q0 -10 -10 -10h-400z" />
<glyph unicode="&#x221a;" horiz-adv-x="437" d="M405 645q11 0 8 -11l-126 -625q-1 -9 -10 -9h-92q-8 0 -11 7l-89 174h-73q-9 0 -9 9v71q0 9 9 9h126q8 0 11 -7l63 -121l100 494q1 9 10 9h83z" />
<glyph unicode="&#x221e;" horiz-adv-x="955" d="M695 501q114 0 163.5 -44t49.5 -140v-127q0 -97 -49.5 -140.5t-163.5 -43.5h-13q-75 0 -114 28t-90 118q-52 -90 -91.5 -118t-114.5 -28h-12q-115 0 -164.5 43.5t-49.5 140.5v127q0 96 49.5 140t164.5 44h12q75 0 114.5 -28.5t90.5 -117.5q52 90 91 118t114 28h13z M383 189l37 65l-37 64q-31 55 -49.5 68.5t-61.5 13.5h-12q-62 0 -83 -17.5t-21 -65.5v-127q0 -48 21 -66t83 -18h12q43 0 61.5 14t49.5 69zM798 190v127q0 48 -20.5 65.5t-82.5 17.5h-13q-43 0 -61 -13.5t-49 -68.5l-37 -64l37 -65q31 -55 49 -69t61 -14h13q62 0 82.5 18 t20.5 66z" />
<glyph unicode="&#x222b;" horiz-adv-x="289" d="M22 0q-9 0 -9 9v71q0 9 9 9h25q46 0 57.5 34.5t-3.5 135.5l-18 126q-36 260 159 260h24q10 0 10 -9v-71q0 -9 -10 -9h-24q-41 0 -50.5 -35t4.5 -136l18 -126q19 -136 -24.5 -197.5t-142.5 -61.5h-25z" />
<glyph unicode="&#x2248;" horiz-adv-x="500" d="M348 268q-39 0 -104 38t-103 38q-40 0 -89 -30q-12 -7 -12 6v76q0 7 7 11q58 34 104 34q40 0 105.5 -38t103.5 -38q42 0 88 30q12 7 12 -6v-75q0 -8 -11 -14q-58 -32 -101 -32zM348 68q-39 0 -104 38t-103 38q-40 0 -89 -30q-12 -7 -12 6v76q0 7 7 11q58 34 104 34 q40 0 105.5 -38t103.5 -38q42 0 88 30q12 7 12 -6v-75q0 -8 -11 -14q-58 -32 -101 -32z" />
<glyph unicode="&#x2260;" horiz-adv-x="500" d="M450 310h-113l-65 -103h178q10 0 10 -9v-81q0 -10 -10 -10h-240l-63 -101q-5 -6 -11 -6h-82q-15 0 -6 12l59 95h-57q-10 0 -10 10v81q0 9 10 9h120l64 103h-184q-10 0 -10 10v81q0 10 10 10h247l56 90q5 6 11 6h82q14 0 6 -12l-52 -84h50q10 0 10 -10v-81q0 -10 -10 -10z " />
<glyph unicode="&#x2264;" horiz-adv-x="500" d="M63 312q-7 3 -7 10v84q0 8 8 11l351 140q11 4 11 -7v-83q0 -8 -7 -11l-231 -90l240 -91q8 -3 8 -11v-83q0 -11 -11 -8zM450 100q10 0 10 -9v-82q0 -9 -10 -9h-400q-10 0 -10 9v82q0 9 10 9h400z" />
<glyph unicode="&#x2265;" horiz-adv-x="500" d="M75 173q-11 -3 -11 8v83q0 8 8 11l240 91l-231 90q-7 3 -7 11v83q0 11 11 7l351 -140q8 -3 8 -11v-84q0 -7 -7 -10zM450 100q10 0 10 -9v-82q0 -9 -10 -9h-400q-10 0 -10 9v82q0 9 10 9h400z" />
<glyph unicode="&#x25ca;" horiz-adv-x="516" d="M496 330q3 -6 0 -13l-183 -311q-5 -6 -11 -6h-88q-8 0 -12 6l-182 311q-5 6 0 14l182 308q4 6 12 6h88q6 0 11 -6zM258 99l131 225l-131 222l-131 -222z" />
<glyph unicode="&#x25fc;" horiz-adv-x="505" d="M0 505h505v-505h-505v505z" />
<glyph unicode="&#xf8ff;" horiz-adv-x="806" d="M80 636q0 9 9 9h628q9 0 9 -9v-627q0 -9 -9 -9h-628q-9 0 -9 9v627zM285 170q0 -9 10 -9h36q10 0 10 9v129h125v-129q0 -9 10 -9h36q9 0 9 9v305q0 9 -9 9h-36q-10 0 -10 -9v-126h-125v126q0 9 -10 9h-36q-10 0 -10 -9v-305z" />
<glyph horiz-adv-x="232" d="M78 573q-10 0 -10 9v100q0 9 10 9h77q9 0 9 -9v-100q0 -9 -9 -9h-77zM71 0q-10 0 -10 9v489q0 9 10 9h91q9 0 9 -9v-489q0 -9 -9 -9h-91z" />
<glyph d="M466 507q9 0 9 -9v-489q0 -9 -9 -9h-56q-7 0 -12 7l-19 29q-75 -44 -166 -44q-87 0 -124.5 40.5t-37.5 134.5v173q0 94 37.5 134.5t124.5 40.5q91 0 166 -44l19 29q5 7 12 7h56zM161 180q0 -54 14.5 -71t60.5 -17q68 0 129 26v270q-63 27 -129 27q-46 0 -60.5 -17 t-14.5 -71v-147z" />
<glyph d="M204 568q-15 0 -5 12l99 106q4 5 12 5h96q6 0 7.5 -3.5t-3.5 -7.5l-120 -107q-5 -5 -11 -5h-75zM466 507q9 0 9 -9v-489q0 -9 -9 -9h-56q-7 0 -12 7l-19 29q-75 -44 -166 -44q-87 0 -124.5 40.5t-37.5 134.5v173q0 94 37.5 134.5t124.5 40.5q91 0 166 -44l19 29q5 7 12 7 h56zM161 180q0 -54 14.5 -71t60.5 -17q68 0 129 26v270q-63 27 -129 27q-46 0 -60.5 -17t-14.5 -71v-147z" />
<glyph d="M266 565q-63 0 -92 22.5t-29 68.5v26q0 9 9 9h58q9 0 9 -9v-26q0 -18 9 -24t36 -6h4q27 0 36.5 6.5t9.5 23.5v26q0 9 9 9h58q9 0 9 -9v-26q0 -91 -122 -91h-4zM466 507q9 0 9 -9v-489q0 -9 -9 -9h-56q-7 0 -12 7l-19 29q-75 -44 -166 -44q-87 0 -124.5 40.5t-37.5 134.5 v173q0 94 37.5 134.5t124.5 40.5q91 0 166 -44l19 29q5 7 12 7h56zM161 180q0 -54 14.5 -71t60.5 -17q68 0 129 26v270q-63 27 -129 27q-46 0 -60.5 -17t-14.5 -71v-147z" />
<glyph d="M119 680q-4 4 -2.5 7.5t7.5 3.5h79q7 0 12 -6l54 -64l53 64q4 6 11 6h80q6 0 7.5 -3.5t-2.5 -7.5l-103 -107q-5 -5 -12 -5h-69q-7 0 -12 5zM466 507q9 0 9 -9v-489q0 -9 -9 -9h-56q-7 0 -12 7l-19 29q-75 -44 -166 -44q-87 0 -124.5 40.5t-37.5 134.5v173 q0 94 37.5 134.5t124.5 40.5q91 0 166 -44l19 29q5 7 12 7h56zM161 180q0 -54 14.5 -71t60.5 -17q68 0 129 26v270q-63 27 -129 27q-46 0 -60.5 -17t-14.5 -71v-147z" />
<glyph d="M124 568q-6 0 -7.5 4t2.5 8l103 106q5 5 12 5h69q7 0 12 -5l103 -106q4 -4 2.5 -8t-7.5 -4h-80q-7 0 -11 6l-53 65l-54 -65q-5 -6 -12 -6h-79zM466 507q9 0 9 -9v-489q0 -9 -9 -9h-56q-7 0 -12 7l-19 29q-75 -44 -166 -44q-87 0 -124.5 40.5t-37.5 134.5v173 q0 94 37.5 134.5t124.5 40.5q91 0 166 -44l19 29q5 7 12 7h56zM161 180q0 -54 14.5 -71t60.5 -17q68 0 129 26v270q-63 27 -129 27q-46 0 -60.5 -17t-14.5 -71v-147z" />
<glyph d="M151 573q-10 0 -10 9v100q0 9 10 9h77q9 0 9 -9v-100q0 -9 -9 -9h-77zM311 573q-10 0 -10 9v100q0 9 10 9h77q9 0 9 -9v-100q0 -9 -9 -9h-77zM466 507q9 0 9 -9v-489q0 -9 -9 -9h-56q-7 0 -12 7l-19 29q-75 -44 -166 -44q-87 0 -124.5 40.5t-37.5 134.5v173 q0 94 37.5 134.5t124.5 40.5q91 0 166 -44l19 29q5 7 12 7h56zM161 180q0 -54 14.5 -71t60.5 -17q68 0 129 26v270q-63 27 -129 27q-46 0 -60.5 -17t-14.5 -71v-147z" />
<glyph d="M131 680q-5 4 -3.5 7.5t8.5 3.5h95q7 0 11 -5l99 -106q10 -12 -5 -12h-74q-7 0 -12 5zM466 507q9 0 9 -9v-489q0 -9 -9 -9h-56q-7 0 -12 7l-19 29q-75 -44 -166 -44q-87 0 -124.5 40.5t-37.5 134.5v173q0 94 37.5 134.5t124.5 40.5q91 0 166 -44l19 29q5 7 12 7h56z M161 180q0 -54 14.5 -71t60.5 -17q68 0 129 26v270q-63 27 -129 27q-46 0 -60.5 -17t-14.5 -71v-147z" />
<glyph d="M159 576q-10 0 -10 9v60q0 9 10 9h220q10 0 10 -9v-60q0 -9 -10 -9h-220zM466 507q9 0 9 -9v-489q0 -9 -9 -9h-56q-7 0 -12 7l-19 29q-75 -44 -166 -44q-87 0 -124.5 40.5t-37.5 134.5v173q0 94 37.5 134.5t124.5 40.5q91 0 166 -44l19 29q5 7 12 7h56zM161 180 q0 -54 14.5 -71t60.5 -17q68 0 129 26v270q-63 27 -129 27q-46 0 -60.5 -17t-14.5 -71v-147z" />
<glyph d="M466 507q9 0 9 -9v-490q0 -7 -5 -13l-50 -54q-25 -26 -25 -54v-6q0 -14 6.5 -19t27.5 -5h37q9 0 9 -10v-58q0 -9 -9 -9h-35q-122 0 -122 94v6q0 27 12 47.5t43 48.5l35 30l-1 1l-19 29q-75 -44 -166 -44q-87 0 -124.5 40.5t-37.5 134.5v173q0 94 37.5 134.5t124.5 40.5 q91 0 166 -44l19 29q5 7 12 7h56zM161 180q0 -54 14.5 -71t60.5 -17q68 0 129 26v270q-63 27 -129 27q-46 0 -60.5 -17t-14.5 -71v-147z" />
<glyph d="M268 558q-58 0 -80 16.5t-22 55.5v18q0 39 22 56t80 17h2q58 0 80.5 -17t22.5 -56v-18q0 -39 -22.5 -55.5t-80.5 -16.5h-2zM223 648v-18q0 -13 8 -17.5t37 -4.5h2q29 0 37.5 4.5t8.5 17.5v18q0 13 -8 17.5t-38 4.5h-2q-29 0 -37 -4.5t-8 -17.5zM466 507q9 0 9 -9v-489 q0 -9 -9 -9h-56q-7 0 -12 7l-19 29q-75 -44 -166 -44q-87 0 -124.5 40.5t-37.5 134.5v173q0 94 37.5 134.5t124.5 40.5q91 0 166 -44l19 29q5 7 12 7h56zM161 180q0 -54 14.5 -71t60.5 -17q68 0 129 26v270q-63 27 -129 27q-46 0 -60.5 -17t-14.5 -71v-147z" />
<glyph d="M132 573q-9 0 -9 10v34q0 38 20.5 59t56.5 21q30 0 56 -17l70 -47q11 -7 16 -7q8 0 8 11v39q0 10 9 10h47q10 0 10 -10v-34q0 -38 -20.5 -59t-56.5 -21q-31 0 -56 17l-70 47q-10 7 -17 7t-7 -11v-39q0 -10 -9 -10h-48zM466 507q9 0 9 -9v-489q0 -9 -9 -9h-56q-7 0 -12 7 l-19 29q-75 -44 -166 -44q-87 0 -124.5 40.5t-37.5 134.5v173q0 94 37.5 134.5t124.5 40.5q91 0 166 -44l19 29q5 7 12 7h56zM161 180q0 -54 14.5 -71t60.5 -17q68 0 129 26v270q-63 27 -129 27q-46 0 -60.5 -17t-14.5 -71v-147z" />
<glyph d="M466 507q9 0 9 -9v-533q0 -90 -49 -131.5t-164 -41.5h-154q-9 0 -9 9v80q0 10 9 10h151q63 0 84.5 15.5t21.5 54.5v68q-70 -37 -152 -37q-87 0 -124.5 40.5t-37.5 134.5v173q0 94 37.5 134.5t124.5 40.5q91 0 166 -44l19 29q5 7 12 7h56zM236 92q68 0 129 26v270 q-63 27 -129 27q-46 0 -60.5 -17t-14.5 -71v-147q0 -54 14.5 -71t60.5 -17z" />
<glyph d="M265 565q-63 0 -92 22.5t-29 68.5v26q0 9 9 9h58q9 0 9 -9v-26q0 -18 9 -24t36 -6h4q27 0 36.5 6.5t9.5 23.5v26q0 9 9 9h58q9 0 9 -9v-26q0 -91 -122 -91h-4zM466 507q9 0 9 -9v-533q0 -90 -49 -131.5t-164 -41.5h-154q-9 0 -9 9v80q0 10 9 10h151q63 0 84.5 15.5 t21.5 54.5v68q-70 -37 -152 -37q-87 0 -124.5 40.5t-37.5 134.5v173q0 94 37.5 134.5t124.5 40.5q91 0 166 -44l19 29q5 7 12 7h56zM236 92q68 0 129 26v270q-63 27 -129 27q-46 0 -60.5 -17t-14.5 -71v-147q0 -54 14.5 -71t60.5 -17z" />
<glyph d="M123 568q-6 0 -7.5 4t2.5 8l103 106q5 5 12 5h69q7 0 12 -5l103 -106q4 -4 2.5 -8t-7.5 -4h-80q-6 0 -11 6l-53 65l-54 -65q-4 -6 -12 -6h-79zM466 507q9 0 9 -9v-533q0 -90 -49 -131.5t-164 -41.5h-154q-9 0 -9 9v80q0 10 9 10h151q63 0 84.5 15.5t21.5 54.5v68 q-70 -37 -152 -37q-87 0 -124.5 40.5t-37.5 134.5v173q0 94 37.5 134.5t124.5 40.5q91 0 166 -44l19 29q5 7 12 7h56zM236 92q68 0 129 26v270q-63 27 -129 27q-46 0 -60.5 -17t-14.5 -71v-147q0 -54 14.5 -71t60.5 -17z" />
<glyph d="M230 568q-9 0 -9 9v159q0 9 9 9h31q8 0 11 -8l41 -101q2 -4 2 -12v-47q0 -9 -9 -9h-76zM466 507q9 0 9 -9v-533q0 -90 -49 -131.5t-164 -41.5h-154q-9 0 -9 9v80q0 10 9 10h151q63 0 84.5 15.5t21.5 54.5v68q-70 -37 -152 -37q-87 0 -124.5 40.5t-37.5 134.5v173 q0 94 37.5 134.5t124.5 40.5q91 0 166 -44l19 29q5 7 12 7h56zM236 92q68 0 129 26v270q-63 27 -129 27q-46 0 -60.5 -17t-14.5 -71v-147q0 -54 14.5 -71t60.5 -17z" />
<glyph d="M230 573q-10 0 -10 9v100q0 9 10 9h77q9 0 9 -9v-100q0 -9 -9 -9h-77zM466 507q9 0 9 -9v-533q0 -90 -49 -131.5t-164 -41.5h-154q-9 0 -9 9v80q0 10 9 10h151q63 0 84.5 15.5t21.5 54.5v68q-70 -37 -152 -37q-87 0 -124.5 40.5t-37.5 134.5v173q0 94 37.5 134.5 t124.5 40.5q91 0 166 -44l19 29q5 7 12 7h56zM236 92q68 0 129 26v270q-63 27 -129 27q-46 0 -60.5 -17t-14.5 -71v-147q0 -54 14.5 -71t60.5 -17z" />
<glyph horiz-adv-x="535" d="M465 507q9 0 9 -9v-533q0 -90 -49 -131.5t-164 -41.5h-154q-9 0 -9 9v80q0 10 9 10h151q62 0 84 15.5t22 54.5v68q-70 -37 -150 -37q-86 0 -122 40t-36 135v331q0 9 10 9h91q9 0 9 -9v-318q0 -55 12.5 -71.5t58.5 -16.5q68 0 127 26v380q0 9 9 9h92z" />
<glyph horiz-adv-x="535" d="M202 568q-15 0 -5 12l99 106q4 5 12 5h96q6 0 7.5 -3.5t-3.5 -7.5l-120 -107q-5 -5 -11 -5h-75zM465 507q9 0 9 -9v-533q0 -90 -49 -131.5t-164 -41.5h-154q-9 0 -9 9v80q0 10 9 10h151q62 0 84 15.5t22 54.5v68q-70 -37 -150 -37q-86 0 -122 40t-36 135v331q0 9 10 9h91 q9 0 9 -9v-318q0 -55 12.5 -71.5t58.5 -16.5q68 0 127 26v380q0 9 9 9h92z" />
<glyph horiz-adv-x="535" d="M122 568q-6 0 -7.5 4t2.5 8l103 106q5 5 12 5h69q7 0 12 -5l103 -106q4 -4 2.5 -8t-7.5 -4h-80q-7 0 -11 6l-53 65l-54 -65q-5 -6 -12 -6h-79zM465 507q9 0 9 -9v-533q0 -90 -49 -131.5t-164 -41.5h-154q-9 0 -9 9v80q0 10 9 10h151q62 0 84 15.5t22 54.5v68 q-70 -37 -150 -37q-86 0 -122 40t-36 135v331q0 9 10 9h91q9 0 9 -9v-318q0 -55 12.5 -71.5t58.5 -16.5q68 0 127 26v380q0 9 9 9h92z" />
<glyph horiz-adv-x="535" d="M149 573q-10 0 -10 9v100q0 9 10 9h77q9 0 9 -9v-100q0 -9 -9 -9h-77zM309 573q-10 0 -10 9v100q0 9 10 9h77q9 0 9 -9v-100q0 -9 -9 -9h-77zM465 507q9 0 9 -9v-533q0 -90 -49 -131.5t-164 -41.5h-154q-9 0 -9 9v80q0 10 9 10h151q62 0 84 15.5t22 54.5v68 q-70 -37 -150 -37q-86 0 -122 40t-36 135v331q0 9 10 9h91q9 0 9 -9v-318q0 -55 12.5 -71.5t58.5 -16.5q68 0 127 26v380q0 9 9 9h92z" />
<glyph horiz-adv-x="535" d="M129 680q-5 4 -3.5 7.5t8.5 3.5h95q7 0 11 -5l99 -106q10 -12 -5 -12h-74q-7 0 -12 5zM465 507q9 0 9 -9v-533q0 -90 -49 -131.5t-164 -41.5h-154q-9 0 -9 9v80q0 10 9 10h151q62 0 84 15.5t22 54.5v68q-70 -37 -150 -37q-86 0 -122 40t-36 135v331q0 9 10 9h91q9 0 9 -9 v-318q0 -55 12.5 -71.5t58.5 -16.5q68 0 127 26v380q0 9 9 9h92z" />
<glyph horiz-adv-x="669" d="M638 91q9 0 9 -9v-77q0 -9 -9 -9h-59q-94 0 -133.5 38t-39.5 130v251h-212v-253q0 -40 16 -55.5t58 -15.5h48q9 0 9 -9v-77q0 -9 -9 -9h-59q-94 0 -133.5 38t-39.5 130v251h-69q-10 0 -10 9v44q0 10 9 11l70 13v144q0 9 10 9h91q9 0 9 -9v-129h212v129q0 9 10 9h91 q9 0 9 -9v-129h120q9 0 9 -9v-74q0 -9 -9 -9h-120v-253q0 -40 16 -55.5t58 -15.5h48z" />
<glyph horiz-adv-x="557" d="M548 97q9 0 9 -9v-216q0 -10 -9 -10h-58q-9 0 -11 9l-25 129h-351l-25 -129q-2 -9 -11 -9h-58q-9 0 -9 10v216q0 9 9 9h47l162 540q3 8 10 8h101q7 0 10 -8l163 -540h46zM169 97h219l-73 255q-23 79 -36 157q-14 -79 -37 -157z" />
<glyph horiz-adv-x="562" d="M550 10q3 -10 -7 -10h-96q-8 0 -11 7l-112 332q-31 95 -43 151q-14 -65 -44 -151l-111 -332q-3 -7 -12 -7h-95q-11 0 -8 10l217 628q3 7 11 7h84q8 0 11 -7z" />
<glyph horiz-adv-x="509" d="M372 329q59 -9 82.5 -41.5t23.5 -99.5v-19q0 -96 -44 -136.5t-159 -40.5h-17q-114 0 -158 40.5t-44 136.5v307q0 96 43 136.5t154 40.5h5q111 0 153.5 -40.5t42.5 -136.5v-11q0 -60 -18.5 -91.5t-63.5 -44.5zM253 554q-55 0 -71.5 -16t-16.5 -68v-94h87q59 0 76.5 16 t17.5 68v10q0 52 -16.5 68t-71.5 16h-5zM368 175v19q0 52 -18 67.5t-80 15.5h-105v-102q0 -52 17 -68t76 -16h17q59 0 76 16t17 68z" />
<glyph horiz-adv-x="482" d="M34 132v13q0 55 26.5 87t87.5 49l133 37q32 9 41.5 17t9.5 23v14q0 23 -19.5 35t-68.5 12h-6q-48 0 -67 -11t-19 -35v-30q0 -9 -9 -9h-90q-9 0 -9 9v30q0 142 196 142h6q103 0 149 -36.5t46 -108.5v-12q0 -52 -26.5 -82t-88.5 -48l-133 -37q-30 -8 -40 -18t-10 -28v-14 q0 -22 20.5 -32.5t74.5 -10.5h6q54 0 75 12t21 35v29q0 10 9 10h90q9 0 9 -10v-29q0 -143 -206 -143h-6q-108 0 -155 34t-47 106z" />
<glyph d="M466 507q9 0 9 -9v-533q0 -90 -49 -131.5t-164 -41.5h-154q-9 0 -9 9v80q0 10 9 10h151q63 0 84.5 15.5t21.5 54.5v68q-70 -37 -152 -37q-87 0 -124.5 40.5t-37.5 134.5v173q0 94 37.5 134.5t124.5 40.5q91 0 166 -44l19 29q5 7 12 7h56zM236 92q68 0 129 26v270 q-63 27 -129 27q-46 0 -60.5 -17t-14.5 -71v-147q0 -54 14.5 -71t60.5 -17z" />
<glyph horiz-adv-x="704" d="M693 11q7 -11 -6 -11h-104q-9 0 -11 6l-107 202h-58v-199q0 -9 -9 -9h-92q-9 0 -9 9v199h-58l-106 -202q-5 -6 -11 -6h-105q-13 0 -6 11l136 244l-133 241q-3 4 -0.5 7.5t7.5 3.5h105q6 0 11 -6l100 -193h60v383q0 9 9 9h92q9 0 9 -9v-383h60l101 193q2 6 11 6h104 q5 0 7.5 -3.5t-0.5 -7.5l-133 -241z" />
<glyph horiz-adv-x="481" d="M369 254q43 -7 61 -29.5t18 -72.5v-10q0 -78 -46 -114t-158 -36h-6q-112 0 -158.5 36t-46.5 114v20q0 9 9 9h92q9 0 9 -9v-20q0 -32 18 -43t77 -11h6q58 0 76 11t18 43v10q0 32 -18 43.5t-76 11.5h-63q-10 0 -10 9v76q0 9 10 9h63q54 0 72 12t18 44v9q0 30 -17.5 41.5 t-72.5 11.5h-6q-55 0 -72.5 -11.5t-17.5 -41.5v-20q0 -10 -10 -10h-91q-9 0 -9 10v20q0 76 46 112.5t154 36.5h6q108 0 154 -36.5t46 -112.5v-9q0 -48 -17.5 -71.5t-57.5 -31.5z" />
<glyph horiz-adv-x="535" d="M465 507q9 0 9 -9v-489q0 -9 -9 -9h-56q-7 0 -12 7l-19 29q-75 -44 -164 -44q-85 0 -121.5 40t-36.5 135v331q0 9 10 9h91q9 0 9 -9v-318q0 -55 13 -71.5t58 -16.5q65 0 127 25v381q0 9 9 9h92z" />
<glyph horiz-adv-x="535" d="M264 565q-63 0 -92 22.5t-29 68.5v26q0 9 9 9h58q9 0 9 -9v-26q0 -18 9 -24t36 -6h4q27 0 36.5 6.5t9.5 23.5v26q0 9 9 9h58q9 0 9 -9v-26q0 -91 -122 -91h-4zM465 507q9 0 9 -9v-489q0 -9 -9 -9h-56q-7 0 -12 7l-19 29q-75 -44 -164 -44q-85 0 -121.5 40t-36.5 135v331 q0 9 10 9h91q9 0 9 -9v-318q0 -55 13 -71.5t58 -16.5q65 0 127 25v381q0 9 9 9h92z" />
<glyph horiz-adv-x="535" d="M129 680q-5 4 -3.5 7.5t8.5 3.5h95q7 0 11 -5l99 -106q10 -12 -5 -12h-74q-7 0 -12 5zM465 507q9 0 9 -9v-489q0 -9 -9 -9h-56q-7 0 -12 7l-19 29q-75 -44 -164 -44q-85 0 -121.5 40t-36.5 135v331q0 9 10 9h91q9 0 9 -9v-318q0 -55 13 -71.5t58 -16.5q65 0 127 25v381 q0 9 9 9h92z" />
<glyph horiz-adv-x="490" d="M480 11q7 -11 -6 -11h-104q-8 0 -12 6l-132 202h-55v-199q0 -9 -9 -9h-91q-10 0 -10 9v682q0 9 10 9h91q9 0 9 -9v-383h58l125 193q4 6 12 6h104q13 0 6 -11l-160 -241z" />
<glyph horiz-adv-x="472" d="M468 10q3 -10 -8 -10h-97q-7 0 -11 7l-65 201q-35 109 -51 190q-14 -71 -50 -190l-66 -201q-2 -7 -11 -7h-97q-10 0 -7 10l171 490q3 7 11 7h98q8 0 11 -7z" />
<glyph horiz-adv-x="539" d="M321 515q87 0 124.5 -40.5t37.5 -134.5v-331q0 -9 -9 -9h-92q-9 0 -9 9v318q0 54 -14.5 71t-60.5 17q-63 0 -127 -26v-380q0 -9 -9 -9h-91q-10 0 -10 9v489q0 9 10 9h55q7 0 11 -6l19 -30q75 44 165 44z" />
<glyph horiz-adv-x="822" d="M612 515q81 0 117.5 -40.5t36.5 -134.5v-331q0 -9 -10 -9h-91q-9 0 -9 9v318q0 54 -13.5 71t-54.5 17q-62 0 -121 -26q3 -22 3 -49v-331q0 -9 -10 -9h-91q-9 0 -9 9v318q0 54 -13.5 71t-54.5 17q-62 0 -121 -26v-380q0 -9 -9 -9h-91q-10 0 -10 9v489q0 9 10 9h55 q8 0 11 -6l19 -30q75 44 160 44q91 0 125 -50q80 50 171 50z" />
<glyph horiz-adv-x="547" d="M526 97q9 0 9 -9v-216q0 -10 -9 -10h-58q-9 0 -11 9l-25 129h-23q-7 0 -12 7l-19 29q-75 -44 -164 -44q-85 0 -121.5 40t-36.5 135v331q0 9 10 9h91q9 0 9 -9v-318q0 -55 13 -71.5t58 -16.5q65 0 127 25v381q0 9 9 9h92q9 0 9 -9v-401h52z" />
<glyph horiz-adv-x="822" d="M751 507q10 0 10 -9v-489q0 -9 -10 -9h-55q-8 0 -11 6l-19 30q-75 -44 -160 -44q-91 0 -125 50q-80 -50 -171 -50q-81 0 -117.5 40.5t-36.5 134.5v331q0 9 10 9h91q9 0 9 -9v-318q0 -54 13.5 -71t54.5 -17q62 0 121 26q-3 23 -3 49v331q0 9 10 9h91q9 0 9 -9v-318 q0 -54 13.5 -71t54.5 -17q62 0 121 26v380q0 9 9 9h91z" />
<glyph horiz-adv-x="834" d="M813 97q9 0 9 -9v-216q0 -10 -9 -10h-58q-9 0 -11 9l-25 129h-23q-8 0 -11 6l-19 30q-75 -44 -160 -44q-91 0 -125 50q-80 -50 -171 -50q-81 0 -117.5 40.5t-36.5 134.5v331q0 9 10 9h91q9 0 9 -9v-318q0 -54 13.5 -71t54.5 -17q62 0 121 26q-3 23 -3 49v331q0 9 10 9h91 q9 0 9 -9v-318q0 -54 13.5 -71t54.5 -17q62 0 121 26v380q0 9 9 9h91q10 0 10 -9v-401h52z" />
<glyph horiz-adv-x="500" d="M311 348q83 0 121.5 -35.5t38.5 -107.5v-62q0 -72 -38.5 -107.5t-121.5 -35.5h-94q-83 0 -122 35.5t-39 107.5v355q0 9 10 9h91q9 0 9 -9v-192q11 24 33 33t63 9h49zM361 143v62q0 24 -12 33.5t-45 9.5h-81q-33 0 -45 -9.5t-12 -33.5v-62q0 -24 12.5 -33.5t44.5 -9.5h81 q32 0 44.5 9.5t12.5 33.5z" />
<glyph horiz-adv-x="549" d="M359 348q83 0 121.5 -35.5t38.5 -107.5v-62q0 -72 -38.5 -107.5t-121.5 -35.5h-94q-83 0 -122 35.5t-39 107.5v269h-103q-9 0 -9 10v76q0 9 9 9h204q9 0 9 -9v-192q11 24 33 33t63 9h49zM409 143v62q0 24 -12 33.5t-45 9.5h-81q-33 0 -45 -9.5t-12 -33.5v-62 q0 -24 12.5 -33.5t44.5 -9.5h81q32 0 44.5 9.5t12.5 33.5z" />
<glyph horiz-adv-x="736" d="M482 515q108 0 155 -42.5t47 -130.5v-177q0 -89 -47 -131t-155 -42h-6q-109 0 -156 42t-47 131v41h-102v-197q0 -9 -9 -9h-91q-10 0 -10 9v682q0 9 10 9h91q9 0 9 -9v-390h102v41q0 88 47 130.5t156 42.5h6zM574 165v177q0 40 -19 56.5t-73 16.5h-6q-55 0 -74 -16.5 t-19 -56.5v-177q0 -41 19 -57t74 -16h6q54 0 73 16t19 57z" />
<glyph horiz-adv-x="597" d="M61 170v305q0 93 52.5 135.5t181.5 42.5h6q129 0 182 -42.5t53 -135.5v-305q0 -93 -53 -135.5t-182 -42.5h-6q-129 0 -181.5 42.5t-52.5 135.5zM171 170q0 -45 24.5 -61.5t99.5 -16.5h6q76 0 100.5 16.5t24.5 61.5v305q0 45 -24.5 61.5t-100.5 16.5h-6q-75 0 -99.5 -16.5 t-24.5 -61.5v-305z" />
<glyph horiz-adv-x="440" d="M400 101q9 0 9 -10v-82q0 -9 -9 -9h-354q-10 0 -10 9v82q0 10 10 10h136v437l-124 -63q-5 -3 -8.5 -0.5t-3.5 7.5v84q0 8 7 11l123 65q6 3 13 3h94q9 0 9 -9v-535h108z" />
<glyph horiz-adv-x="563" d="M245 239q-48 -11 -63.5 -27.5t-15.5 -53.5v-58h336q9 0 9 -9v-82q0 -9 -9 -9h-436q-10 0 -10 9v156q0 75 34 114t115 57l122 27q46 9 60.5 25.5t14.5 54.5v37q0 41 -23 57t-89 16h-6q-66 0 -88.5 -16t-22.5 -57v-35q0 -10 -10 -10h-91q-9 0 -9 10v35q0 86 52 129.5 t169 43.5h6q117 0 169 -43.5t52 -129.5v-37q0 -79 -31.5 -119.5t-109.5 -57.5z" />
<glyph horiz-adv-x="554" d="M407 327q55 -11 76.5 -40.5t21.5 -87.5v-29q0 -93 -51 -135.5t-176 -42.5h-6q-126 0 -177 42.5t-51 135.5v27q0 10 10 10h91q9 0 9 -10v-27q0 -45 23.5 -61.5t94.5 -16.5h6q70 0 93.5 16.5t23.5 61.5v29q0 45 -23.5 61.5t-93.5 16.5h-73q-9 0 -9 9v81q0 9 9 9h70 q67 0 89.5 16.5t22.5 61.5v21q0 45 -22 61.5t-87 16.5h-6q-66 0 -88 -16.5t-22 -61.5v-30q0 -10 -10 -10h-91q-9 0 -9 10v30q0 93 50 135.5t170 42.5h6q119 0 169 -43t50 -135v-21q0 -57 -19.5 -86t-70.5 -41z" />
<glyph horiz-adv-x="535" d="M501 234q9 0 9 -10v-76q0 -9 -9 -9h-67v-130q0 -9 -9 -9h-90q-9 0 -9 9v130h-292q-9 0 -9 9v79q0 6 4 13l292 399q6 6 12 6h92q9 0 9 -9v-402h67zM144 234h182v249z" />
<glyph horiz-adv-x="560" d="M302 403q110 0 158.5 -43t48.5 -135v-55q0 -93 -51.5 -135.5t-172.5 -42.5h-6q-121 0 -172 42.5t-51 135.5v27q0 10 10 10h91q9 0 9 -10v-27q0 -45 23 -61.5t90 -16.5h6q68 0 91 16.5t23 61.5v55q0 45 -22.5 61.5t-87.5 16.5h-154q-10 0 -16 6l-41 31q-6 4 -6 12v284 q0 9 9 9h403q9 0 9 -9v-82q0 -9 -9 -9h-304v-142h122z" />
<glyph horiz-adv-x="585" d="M313 399q118 0 167 -42.5t49 -135.5v-51q0 -93 -52 -135.5t-179 -42.5h-6q-126 0 -178.5 42.5t-52.5 135.5v305q0 93 52 135.5t176 42.5h6q125 0 176.5 -42.5t51.5 -135.5v-24q0 -9 -9 -9h-91q-10 0 -10 9v24q0 45 -23.5 61.5t-94.5 16.5h-6q-71 0 -94.5 -16.5 t-23.5 -61.5v-140q14 36 45.5 50t90.5 14h6zM419 170v51q0 45 -24 61.5t-97 16.5h-6q-73 0 -97 -16.5t-24 -61.5v-51q0 -45 24 -61.5t97 -16.5h6q73 0 97 16.5t24 61.5z" />
<glyph horiz-adv-x="443" d="M417 644q10 0 10 -9v-86q0 -6 -3 -12l-223 -531q-2 -7 -10 -7h-94q-11 0 -8 11l226 534h-279q-9 0 -9 9v82q0 9 9 9h381z" />
<glyph horiz-adv-x="594" d="M436 329q58 -13 80 -43t22 -85v-31q0 -93 -53 -135.5t-185 -42.5h-6q-131 0 -184.5 42.5t-53.5 135.5v31q0 55 22 85t80 43q-51 13 -71.5 43t-20.5 83v22q0 91 52 133.5t176 42.5h6q125 0 176.5 -42.5t51.5 -133.5v-22q0 -53 -20.5 -83t-71.5 -43zM176 477v-22 q0 -44 23.5 -60.5t94.5 -16.5h6q71 0 94.5 16.5t23.5 60.5v22q0 44 -23.5 60t-94.5 16h-6q-71 0 -94.5 -16t-23.5 -60zM428 170v31q0 45 -24.5 61t-103.5 16h-6q-79 0 -103.5 -16t-24.5 -61v-31q0 -45 25 -61.5t103 -16.5h6q78 0 103 16.5t25 61.5z" />
<glyph horiz-adv-x="583" d="M292 653q126 0 178 -42.5t52 -135.5v-305q0 -93 -51.5 -135.5t-175.5 -42.5h-6q-124 0 -175.5 43t-51.5 135v20q0 10 10 10h91q9 0 9 -10v-20q0 -45 23.5 -61.5t93.5 -16.5h6q70 0 93.5 16.5t23.5 61.5v133q-14 -35 -45 -48.5t-90 -13.5h-6q-116 0 -165.5 43t-49.5 135 v56q0 93 52 135.5t178 42.5h6zM292 342q73 0 96.5 16t23.5 61v56q0 45 -24 61.5t-96 16.5h-6q-72 0 -96 -16.5t-24 -61.5v-56q0 -45 23.5 -61t96.5 -16h6z" />
<glyph horiz-adv-x="600" d="M63 170v305q0 93 52.5 135.5t181.5 42.5h6q129 0 182 -42.5t53 -135.5v-305q0 -93 -53 -135.5t-182 -42.5h-6q-129 0 -181.5 42.5t-52.5 135.5zM173 170q0 -45 24.5 -61.5t99.5 -16.5h6q76 0 100.5 16.5t24.5 61.5v305q0 45 -24.5 61.5t-100.5 16.5h-6q-75 0 -99.5 -16.5 t-24.5 -61.5v-305z" />
</font>
</defs>
</svg>
