<?xml version="1.0" standalone="no"?>
<!DOCTYPE svg PUBLIC "-//W3C//DTD SVG 1.1//EN" "http://www.w3.org/Graphics/SVG/1.1/DTD/svg11.dtd" >
<svg xmlns="http://www.w3.org/2000/svg">
<metadata></metadata>
<defs>
<font id="roganmedium" horiz-adv-x="531" >
<font-face units-per-em="1000" ascent="750" descent="-250" />
<missing-glyph horiz-adv-x="208" />
<glyph unicode="ff" horiz-adv-x="635" d="M626 708q9 0 9 -8v-52q0 -8 -9 -8h-48q-51 0 -68.5 -19.5t-17.5 -74.5v-44h130q9 0 9 -8v-51q0 -9 -9 -9h-130v-426q0 -8 -8 -8h-63q-9 0 -9 8v426h-231v-426q0 -8 -8 -8h-63q-9 0 -9 8v426h-84q-8 0 -8 9v28q0 9 8 10l84 12v46q0 94 35.5 131.5t123.5 37.5h55q9 0 9 -8 v-52q0 -8 -9 -8h-48q-51 0 -68.5 -19.5t-17.5 -74.5v-44h231v37q0 94 35.5 131.5t123.5 37.5h55z" />
<glyph unicode="fft" horiz-adv-x="937" d="M906 66q8 0 8 -8v-54q0 -8 -8 -8h-51q-85 0 -121 34.5t-36 120.5v283h-206v-426q0 -8 -8 -8h-63q-9 0 -9 8v426h-231v-426q0 -8 -8 -8h-63q-9 0 -9 8v426h-84q-8 0 -8 9v28q0 9 8 10l84 12v46q0 94 35.5 131.5t123.5 37.5h55q9 0 9 -8v-52q0 -8 -9 -8h-48 q-51 0 -68.5 -19.5t-17.5 -74.5v-44h231v37q0 94 35.5 131.5t123.5 37.5h55q9 0 9 -8v-52q0 -8 -9 -8h-48q-51 0 -68.5 -19.5t-17.5 -74.5v-44h206v135q0 8 9 8h63q8 0 8 -8v-135h126q8 0 8 -8v-51q0 -9 -8 -9h-126v-279q0 -51 17.5 -70t65.5 -19h45z" />
<glyph unicode="ft" horiz-adv-x="626" d="M595 66q8 0 8 -8v-54q0 -8 -8 -8h-51q-85 0 -121 34.5t-36 120.5v283h-206v-426q0 -8 -8 -8h-63q-9 0 -9 8v426h-84q-8 0 -8 9v28q0 9 8 10l84 12v46q0 94 35.5 131.5t123.5 37.5h55q9 0 9 -8v-52q0 -8 -9 -8h-48q-51 0 -68.5 -19.5t-17.5 -74.5v-44h206v135q0 8 9 8h63 q8 0 8 -8v-135h126q8 0 8 -8v-51q0 -9 -8 -9h-126v-279q0 -51 17.5 -70t65.5 -19h45z" />
<glyph unicode="&#xd;" horiz-adv-x="250" />
<glyph unicode=" "  horiz-adv-x="208" />
<glyph unicode="&#x09;" horiz-adv-x="208" />
<glyph unicode="&#xa0;" horiz-adv-x="208" />
<glyph unicode="!" horiz-adv-x="225" d="M94 182q-9 0 -9 8l-13 447q0 8 8 8h64q9 0 9 -8l-14 -447q0 -8 -8 -8h-37zM79 0q-8 0 -8 8v82q0 9 8 9h67q9 0 9 -9v-82q0 -8 -9 -8h-67z" />
<glyph unicode="&#x22;" horiz-adv-x="289" d="M69 445q-8 0 -9 7l-21 122q-1 7 -1 13v81q0 9 8 9h58q8 0 8 -9v-81q0 -6 -1 -13l-21 -122q-3 -7 -9 -7h-12zM208 445q-8 0 -9 7l-21 122q-1 7 -1 13v81q0 9 8 9h58q8 0 8 -9v-81q0 -6 -1 -13l-21 -122q-3 -7 -9 -7h-12z" />
<glyph unicode="#" horiz-adv-x="617" d="M553 392h-83l-21 -138h104q9 0 9 -8v-51q0 -8 -9 -8h-114l-28 -180q-1 -7 -9 -7h-59q-9 0 -8 8l28 179h-150l-28 -180q-1 -7 -9 -7h-59q-9 0 -8 8l28 179h-73q-9 0 -9 8v51q0 8 9 8h83l22 138h-105q-9 0 -9 8v51q0 8 9 8h115l28 179q2 7 8 7h59q9 0 8 -8l-27 -178h150 l28 179q2 7 8 7h59q9 0 8 -8l-27 -178h72q9 0 9 -8v-51q0 -8 -9 -8zM373 254l22 138h-151l-21 -138h150z" />
<glyph unicode="$" horiz-adv-x="551" d="M356 349q79 -17 110 -53t31 -110v-27q0 -81 -41.5 -121t-141.5 -45v-65q0 -8 -9 -8h-59q-9 0 -9 8v65q-99 6 -139.5 46t-40.5 120v31q0 8 8 8h63q9 0 9 -8v-31q0 -47 20.5 -68t79.5 -25v232l-37 8q-76 17 -107 53t-31 107v20q0 80 40 120t135 46v65q0 8 9 8h59q9 0 9 -8 v-65q97 -6 137 -45.5t40 -120.5v-31q0 -8 -8 -8h-63q-9 0 -9 8v31q0 47 -20 68t-77 25v-221zM228 377l9 -2v204q-56 -4 -75.5 -25.5t-19.5 -67.5v-20q0 -41 16.5 -59t69.5 -30zM417 159v27q0 44 -17 61.5t-73 30.5l-13 3v-215q61 4 82 25t21 68z" />
<glyph unicode="%" horiz-adv-x="817" d="M177 297q-75 0 -107 32.5t-32 108.5v74q0 76 32 108.5t107 32.5h26q75 0 107.5 -32.5t32.5 -108.5v-74q0 -76 -32.5 -108.5t-107.5 -32.5h-26zM214 0q-4 0 -6 3t0 7l328 629q3 6 9 6h58q11 0 6 -10l-328 -629q-3 -6 -9 -6h-58zM177 361h26q39 0 54.5 16t15.5 61v74 q0 45 -15.5 61t-54.5 16h-26q-39 0 -54.5 -16t-15.5 -61v-74q0 -45 15.5 -61t54.5 -16zM613 -8q-75 0 -107 32.5t-32 108.5v74q0 76 32 108.5t107 32.5h26q76 0 108 -32.5t32 -108.5v-74q0 -76 -32 -108.5t-108 -32.5h-26zM613 56h26q40 0 55.5 16t15.5 61v74q0 45 -15.5 61 t-55.5 16h-26q-39 0 -54.5 -16t-15.5 -61v-74q0 -45 15.5 -61t54.5 -16z" />
<glyph unicode="&#x26;" horiz-adv-x="636" d="M620 10q3 -2 3.5 -4.5t-1.5 -4t-6 -1.5h-72q-7 0 -11 4l-51 48q-40 -60 -190 -60h-6q-131 0 -182 40t-51 129v36q0 65 28 99t98 44q-50 50 -65.5 80t-15.5 69v7q0 79 46 118t152 39h6q107 0 152 -40.5t45 -127.5v-29q0 -9 -8 -9h-62q-9 0 -9 9v29q0 53 -24.5 74t-93.5 21 h-6q-68 0 -93 -19.5t-25 -64.5v-7q0 -29 13 -51.5t55 -63.5l203 -194v130q0 8 9 8h54q9 0 9 -8v-142q0 -34 -7 -56zM292 65q112 0 139 36l-202 190q-56 -3 -76 -24.5t-20 -69.5v-36q0 -54 29.5 -75t123.5 -21h6z" />
<glyph unicode="'" horiz-adv-x="150" d="M69 445q-8 0 -9 7l-21 122q-1 7 -1 13v81q0 9 8 9h58q8 0 8 -9v-81q0 -6 -1 -13l-21 -122q-3 -7 -9 -7h-12z" />
<glyph unicode="(" horiz-adv-x="255" d="M180 -128q-6 0 -10 5q-123 177 -123 413t123 413q4 5 10 5h59q12 0 5 -10q-120 -176 -120 -408q0 -233 120 -408q7 -10 -5 -10h-59z" />
<glyph unicode=")" horiz-adv-x="255" d="M75 -128h-59q-12 0 -5 10q120 175 120 408q0 232 -120 408q-7 10 5 10h59q6 0 10 -5q123 -177 123 -413t-123 -413q-4 -5 -10 -5z" />
<glyph unicode="*" horiz-adv-x="496" d="M457 502q3 -9 -6 -11l-162 -38l110 -125q5 -7 -2 -12l-51 -38q-7 -6 -12 2l-88 143l-84 -142q-5 -7 -12 -2l-52 37q-9 5 -2 12l109 126l-161 36q-8 2 -6 10l19 63q2 8 12 5l152 -64l-14 164q-1 9 7 9h66q8 0 8 -9l-15 -167l153 67q8 3 11 -5z" />
<glyph unicode="+" horiz-adv-x="500" d="M445 288q8 0 8 -8v-57q0 -8 -8 -8h-155v-169q0 -9 -8 -9h-63q-9 0 -9 9v169h-155q-8 0 -8 8v57q0 8 8 8h155v167q0 9 9 9h63q8 0 8 -9v-167h155z" />
<glyph unicode="," horiz-adv-x="155" d="M46 -141q-8 0 -8 8v223q0 9 8 9h62q9 0 9 -9v-85q0 -7 -2 -11l-35 -128q-4 -7 -10 -7h-24z" />
<glyph unicode="-" horiz-adv-x="328" d="M32 249q-8 0 -8 8v56q0 9 8 9h263q9 0 9 -9v-56q0 -8 -9 -8h-263z" />
<glyph unicode="." horiz-adv-x="159" d="M46 0q-8 0 -8 8v82q0 9 8 9h67q9 0 9 -9v-82q0 -8 -9 -8h-67z" />
<glyph unicode="/" horiz-adv-x="384" d="M18 -72q-11 0 -7 9l282 757q3 6 10 6h62q12 0 8 -9l-283 -757q-2 -6 -9 -6h-63z" />
<glyph unicode="0" horiz-adv-x="592" d="M70 161v323q0 88 49.5 128.5t173.5 40.5h6q124 0 173.5 -40.5t49.5 -128.5v-323q0 -88 -49.5 -128.5t-173.5 -40.5h-6q-124 0 -173.5 40.5t-49.5 128.5zM150 161q0 -54 28.5 -75t114.5 -21h6q86 0 114.5 21t28.5 75v323q0 54 -28.5 75t-114.5 21h-6q-86 0 -114.5 -21 t-28.5 -75v-323z" />
<glyph unicode="1" horiz-adv-x="443" d="M395 74q8 0 8 -9v-57q0 -8 -8 -8h-341q-9 0 -9 8v57q0 9 9 9h143v493l-131 -68q-10 -5 -10 6v60q0 6 6 9l130 69q3 2 11 2h66q8 0 8 -8v-563h118z" />
<glyph unicode="2" horiz-adv-x="559" d="M240 253q-58 -13 -76.5 -32t-18.5 -63v-85h345q8 0 8 -8v-57q0 -8 -8 -8h-416q-9 0 -9 8v155q0 72 32 108t111 53l124 28q54 12 70.5 30.5t16.5 62.5v42q0 51 -27 72t-105 21h-6q-77 0 -103.5 -21t-26.5 -73v-33q0 -9 -9 -9h-63q-8 0 -8 9v33q0 85 48 126t162 41h6 q114 0 162.5 -40.5t48.5 -125.5v-42q0 -74 -30 -111t-104 -53z" />
<glyph unicode="3" horiz-adv-x="559" d="M397 328q55 -12 77 -43t22 -90v-34q0 -88 -48 -128.5t-168 -40.5h-6q-120 0 -168 40.5t-48 128.5v23q0 9 9 9h63q8 0 8 -9v-23q0 -54 27.5 -75t108.5 -21h6q81 0 108.5 21t27.5 75v34q0 54 -27.5 75t-108.5 21h-70q-9 0 -9 8v56q0 8 9 8h65q80 0 107 21.5t27 74.5v25 q0 54 -26 75t-103 21h-6q-77 0 -103 -21t-26 -75v-31q0 -9 -9 -9h-63q-8 0 -8 9v31q0 88 47 128.5t162 40.5h6q115 0 162 -40.5t47 -128.5v-25q0 -57 -20.5 -88t-71.5 -43z" />
<glyph unicode="4" horiz-adv-x="530" d="M490 220q9 0 9 -9v-52q0 -9 -9 -9h-69v-142q0 -8 -8 -8h-62q-8 0 -8 8v142h-303q-8 0 -8 9v55q0 5 3 11l303 415q5 5 11 5h64q8 0 8 -8v-417h69zM119 220h224v307z" />
<glyph unicode="5" horiz-adv-x="555" d="M295 390q107 0 153.5 -40t46.5 -129v-60q0 -89 -48.5 -129t-163.5 -40h-6q-115 0 -163.5 40t-48.5 129v23q0 9 9 9h63q8 0 8 -9v-23q0 -55 27 -75.5t105 -20.5h6q78 0 105 20.5t27 75.5v60q0 55 -25.5 75.5t-98.5 20.5h-164q-7 0 -14 6l-28 24q-5 4 -5 10v280q0 8 8 8 h384q8 0 8 -8v-57q0 -8 -8 -8h-313v-182h136z" />
<glyph unicode="6" horiz-adv-x="580" d="M300 388q119 0 166.5 -40t47.5 -128v-59q0 -89 -48.5 -129t-170.5 -40h-6q-121 0 -170 40.5t-49 128.5v323q0 88 48.5 128.5t167.5 40.5h6q120 0 168 -40.5t48 -128.5v-29q0 -8 -8 -8h-63q-9 0 -9 8v29q0 54 -27 75t-109 21h-6q-81 0 -108.5 -21t-27.5 -75v-156 q15 34 48 47t96 13h6zM434 161v59q0 53 -27.5 74t-111.5 21h-6q-83 0 -111 -21t-28 -74v-59q0 -54 28 -75t111 -21h6q84 0 111.5 21t27.5 75z" />
<glyph unicode="7" horiz-adv-x="439" d="M412 645q8 0 8 -8v-60q0 -5 -2 -11l-237 -560q-2 -6 -10 -6h-65q-10 0 -7 10l240 562h-302q-8 0 -8 8v57q0 8 8 8h375z" />
<glyph unicode="8" horiz-adv-x="589" d="M419 329q59 -12 81.5 -43t22.5 -89v-36q0 -89 -50 -129t-176 -40h-6q-126 0 -176 40t-50 129v36q0 58 23 89t81 43q-52 13 -73 44t-21 87v25q0 88 48.5 128t167.5 40h6q119 0 167.5 -40t48.5 -128v-25q0 -56 -21 -87t-73 -44zM155 485v-25q0 -53 27.5 -74t108.5 -21h6 q82 0 109 21t27 74v25q0 53 -27 74t-109 21h-6q-81 0 -108.5 -21t-27.5 -74zM443 161v36q0 54 -28.5 74.5t-117.5 20.5h-6q-88 0 -117 -20.5t-29 -74.5v-36q0 -54 29 -75t117 -21h6q89 0 117.5 21t28.5 75z" />
<glyph unicode="9" horiz-adv-x="578" d="M289 653q121 0 169.5 -40.5t48.5 -128.5v-323q0 -88 -48 -128.5t-167 -40.5h-6q-118 0 -166.5 40.5t-48.5 128.5v21q0 9 9 9h63q8 0 8 -9v-21q0 -54 27 -75t108 -21h6q81 0 108 21t27 75v147q-15 -32 -48.5 -44.5t-94.5 -12.5h-6q-117 0 -165 40.5t-48 128.5v64 q0 88 49 128.5t169 40.5h6zM289 325q83 0 110.5 20.5t27.5 74.5v64q0 54 -27.5 75t-110.5 21h-6q-83 0 -110.5 -21t-27.5 -75v-64q0 -54 27.5 -74.5t110.5 -20.5h6z" />
<glyph unicode=":" horiz-adv-x="179" d="M56 404q-8 0 -8 8v82q0 9 8 9h67q9 0 9 -9v-82q0 -8 -9 -8h-67zM56 0q-8 0 -8 8v82q0 9 8 9h67q9 0 9 -9v-82q0 -8 -9 -8h-67z" />
<glyph unicode=";" horiz-adv-x="179" d="M56 404q-8 0 -8 8v82q0 9 8 9h67q9 0 9 -9v-82q0 -8 -9 -8h-67zM56 -141q-8 0 -8 8v223q0 9 8 9h62q9 0 9 -9v-85q0 -7 -2 -11l-35 -128q-4 -7 -10 -7h-24z" />
<glyph unicode="&#x3c;" horiz-adv-x="500" d="M443 384q0 -8 -7 -11l-287 -123l287 -123q7 -3 7 -10v-60q0 -11 -9 -6l-370 158q-7 3 -7 10v62q0 7 7 10l370 158q9 5 9 -6v-59z" />
<glyph unicode="=" horiz-adv-x="500" d="M55 314q-8 0 -8 9v56q0 9 8 9h390q8 0 8 -9v-56q0 -9 -8 -9h-390zM55 120q-8 0 -8 8v57q0 8 8 8h390q8 0 8 -8v-57q0 -8 -8 -8h-390z" />
<glyph unicode="&#x3e;" horiz-adv-x="500" d="M436 291q7 -3 7 -10v-62q0 -7 -7 -10l-370 -158q-9 -5 -9 6v60q0 7 7 10l287 123l-287 123q-7 3 -7 11v59q0 11 9 6z" />
<glyph unicode="?" horiz-adv-x="450" d="M44 449q-9 0 -9 8v28q0 86 45 127t147 41h6q102 0 147 -39.5t45 -118.5v-13q0 -69 -23 -102.5t-84 -53.5l-45 -14q-38 -11 -48 -28.5t-10 -69.5v-24q0 -8 -8 -8h-62q-9 0 -9 8v24q0 76 21.5 109.5t81.5 52.5l44 14q41 13 52.5 30t11.5 62v13q0 45 -24.5 65t-89.5 20h-6 q-65 0 -89 -21.5t-24 -73.5v-28q0 -8 -9 -8h-61zM142 0q-8 0 -8 8v82q0 9 8 9h67q9 0 9 -9v-82q0 -8 -9 -8h-67z" />
<glyph unicode="@" horiz-adv-x="784" d="M409 607q186 0 250.5 -53t64.5 -201v-183q0 -68 -27.5 -98t-88.5 -30h-11q-71 0 -97 41q-64 -41 -140 -41q-65 0 -99.5 29t-34.5 82v16q0 104 132 104h125v62q0 36 -16.5 48.5t-68.5 12.5h-6q-51 0 -67.5 -12.5t-16.5 -48.5v-5q0 -8 -9 -8h-50q-9 0 -9 8v5q0 64 35.5 94 t116.5 30h6q82 0 117.5 -30t35.5 -94v-159q0 -47 8.5 -61t37.5 -14h11q28 0 38 14.5t10 60.5v177q0 80 -19 119t-70.5 55.5t-157.5 16.5h-34q-106 0 -157 -16.5t-70 -55t-19 -119.5v-213q0 -73 18.5 -110t71 -54.5t156.5 -17.5h162q9 0 9 -9v-47q0 -8 -9 -8h-162 q-125 0 -193.5 25t-95 76.5t-26.5 144.5v213q0 148 64.5 201t250.5 53h34zM372 100q58 0 114 28q-3 18 -3 42v51h-128q-61 0 -61 -52v-16q0 -53 78 -53z" />
<glyph unicode="A" horiz-adv-x="543" d="M528 9q3 -9 -7 -9h-66q-8 0 -10 6l-52 152h-243l-52 -152q-2 -6 -10 -6h-66q-10 0 -7 9l218 630q2 6 9 6h59q8 0 10 -6zM175 231h193l-46 136q-33 96 -50 168q-18 -72 -51 -168z" />
<glyph unicode="B" horiz-adv-x="558" d="M416 330q53 -11 75.5 -41.5t22.5 -88.5v-40q0 -80 -42.5 -120t-138.5 -40h-249q-9 0 -9 8v629q0 8 9 8h225q97 0 139.5 -39.5t42.5 -120.5v-31q0 -52 -17.5 -81.5t-57.5 -42.5zM290 572h-135v-209h135q73 0 97 18t24 71v31q0 53 -24 71t-97 18zM434 162v39q0 53 -24 71 t-97 18h-158v-217h158q73 0 97 18t24 71z" />
<glyph unicode="C" horiz-adv-x="560" d="M287 -8q-123 0 -172.5 40.5t-49.5 128.5v323q0 88 49.5 128.5t172.5 40.5h6q123 0 172 -40t49 -129v-39q0 -8 -8 -8h-63q-9 0 -9 8v39q0 54 -28 75t-113 21h-6q-85 0 -113.5 -21t-28.5 -75v-323q0 -54 28.5 -75t113.5 -21h6q85 0 113 21t28 75v39q0 8 9 8h63q8 0 8 -8 v-39q0 -89 -49 -129t-172 -40h-6z" />
<glyph unicode="D" horiz-adv-x="581" d="M300 645q118 0 167 -40t49 -125v-315q0 -85 -49 -125t-167 -40h-216q-9 0 -9 8v629q0 8 9 8h216zM436 165v315q0 53 -30 72.5t-122 19.5h-129v-499h129q92 0 122 19.5t30 72.5z" />
<glyph unicode="E" horiz-adv-x="497" d="M449 572h-294v-209h264q8 0 8 -8v-56q0 -9 -8 -9h-264v-217h294q8 0 8 -8v-57q0 -8 -8 -8h-365q-9 0 -9 8v629q0 8 9 8h365q8 0 8 -8v-57q0 -8 -8 -8z" />
<glyph unicode="F" horiz-adv-x="467" d="M434 645q9 0 9 -8v-57q0 -9 -9 -9h-279v-217h259q9 0 9 -9v-56q0 -9 -9 -9h-259v-272q0 -8 -8 -8h-63q-9 0 -9 8v629q0 8 9 8h350z" />
<glyph unicode="G" horiz-adv-x="582" d="M450 457q-8 0 -8 8v19q0 54 -29 75t-116 21h-6q-88 0 -117 -21t-29 -75v-323q0 -54 29 -75t117 -21h6q87 0 116 21t29 75v100h-129q-8 0 -8 8v56q0 8 8 8h201q8 0 8 -8v-164q0 -89 -50 -129t-175 -40h-6q-126 0 -176 40t-50 129v323q0 89 50 129t176 40h6q125 0 175 -40 t50 -129v-19q0 -8 -8 -8h-64z" />
<glyph unicode="H" horiz-adv-x="601" d="M518 645q8 0 8 -8v-629q0 -8 -8 -8h-64q-8 0 -8 8v280h-291v-280q0 -8 -8 -8h-63q-9 0 -9 8v629q0 8 9 8h63q8 0 8 -8v-276h291v276q0 8 8 8h64z" />
<glyph unicode="I" horiz-adv-x="231" d="M84 0q-9 0 -9 8v629q0 8 9 8h63q8 0 8 -8v-629q0 -8 -8 -8h-63z" />
<glyph unicode="J" horiz-adv-x="497" d="M222 -8q-108 0 -153.5 40.5t-45.5 128.5v20q0 9 8 9h63q9 0 9 -9v-20q0 -54 24.5 -75t94.5 -21h6q69 0 94 21.5t25 74.5v476q0 8 8 8h63q9 0 9 -8v-476q0 -87 -46 -128t-153 -41h-6z" />
<glyph unicode="K" horiz-adv-x="551" d="M532 11q6 -11 -6 -11h-76q-6 0 -10 7l-169 305l-116 -140v-164q0 -8 -8 -8h-63q-9 0 -9 8v629q0 8 9 8h63q8 0 8 -8v-354l277 357q4 5 11 5h76q13 0 5 -10l-198 -255z" />
<glyph unicode="L" horiz-adv-x="454" d="M421 73q9 0 9 -8v-57q0 -8 -9 -8h-337q-9 0 -9 8v629q0 8 9 8h63q8 0 8 -8v-564h266z" />
<glyph unicode="M" horiz-adv-x="732" d="M648 645q8 0 8 -8v-629q0 -8 -8 -8h-62q-8 0 -8 8v299q0 122 5 209q-31 -94 -87 -209l-93 -191q-3 -6 -10 -6h-55q-7 0 -10 6l-92 191q-59 125 -87 206q5 -106 5 -206v-299q0 -8 -9 -8h-61q-9 0 -9 8v629q0 8 9 8h67q7 0 11 -7l160 -335q28 -57 44 -105q14 40 43 105 l161 335q3 7 10 7h68z" />
<glyph unicode="N" horiz-adv-x="630" d="M546 645q8 0 8 -8v-629q0 -8 -8 -8h-69q-7 0 -9 5l-211 336q-70 111 -106 187q4 -74 4 -187v-333q0 -8 -8 -8h-63q-9 0 -9 8v629q0 8 9 8h68q8 0 10 -5l211 -336q68 -108 106 -188q-5 74 -5 188v333q0 8 9 8h63z" />
<glyph unicode="O" horiz-adv-x="594" d="M65 161v323q0 89 50.5 129t178.5 40h6q128 0 178 -40t50 -129v-323q0 -89 -50 -129t-178 -40h-6q-128 0 -178.5 40t-50.5 129zM145 161q0 -54 29.5 -75t119.5 -21h6q90 0 119 21t29 75v323q0 54 -29 75t-119 21h-6q-90 0 -119.5 -21t-29.5 -75v-323z" />
<glyph unicode="P" horiz-adv-x="525" d="M316 645q94 0 137 -40t43 -124v-91q0 -84 -43 -124t-137 -40h-161v-218q0 -8 -8 -8h-63q-9 0 -9 8v629q0 8 9 8h232zM416 390v91q0 53 -24 72t-96 19h-141v-272h141q73 0 96.5 19t23.5 71z" />
<glyph unicode="Q" horiz-adv-x="594" d="M300 653q128 0 178 -40t50 -129v-323q0 -82 -42 -122t-146 -46l96 -127q8 -8 -2 -14l-39 -31q-8 -5 -14 2l-125 170q-106 6 -148.5 46t-42.5 122v323q0 89 50.5 129t178.5 40h6zM448 161v323q0 54 -29 75t-119 21h-6q-90 0 -119.5 -21t-29.5 -75v-323q0 -54 29.5 -75 t119.5 -21h6q90 0 119 21t29 75z" />
<glyph unicode="R" horiz-adv-x="551" d="M501 11q6 -11 -6 -11h-71q-7 0 -11 6l-121 233h-137v-231q0 -8 -8 -8h-63q-9 0 -9 8v629q0 8 9 8h229q96 0 139.5 -39.5t43.5 -124.5v-78q0 -135 -119 -159zM155 572v-259h140q74 0 97.5 18.5t23.5 71.5v78q0 54 -23.5 72.5t-97.5 18.5h-140z" />
<glyph unicode="S" horiz-adv-x="518" d="M39 159v31q0 8 8 8h63q9 0 9 -8v-31q0 -53 27.5 -73.5t109.5 -20.5h6q82 0 109.5 20.5t27.5 73.5v27q0 44 -17 61.5t-73 30.5l-127 28q-76 17 -107 53t-31 107v20q0 87 48 127t164 40h6q116 0 163.5 -40t47.5 -127v-31q0 -8 -8 -8h-63q-9 0 -9 8v31q0 52 -26.5 73 t-104.5 21h-6q-78 0 -105 -21t-27 -73v-20q0 -41 16.5 -59t69.5 -30l128 -28q79 -17 110 -53t31 -110v-27q0 -87 -48.5 -127t-168.5 -40h-6q-120 0 -168.5 40t-48.5 127z" />
<glyph unicode="T" horiz-adv-x="463" d="M440 645q9 0 9 -8v-57q0 -8 -9 -8h-168v-564q0 -8 -9 -8h-63q-8 0 -8 8v564h-169q-9 0 -9 8v57q0 8 9 8h417z" />
<glyph unicode="U" horiz-adv-x="591" d="M70 161v476q0 8 9 8h63q8 0 8 -8v-476q0 -54 28.5 -75t113.5 -21h6q86 0 114.5 21t28.5 75v476q0 8 8 8h63q9 0 9 -8v-476q0 -88 -49.5 -128.5t-173.5 -40.5h-6q-123 0 -172.5 40.5t-49.5 128.5z" />
<glyph unicode="V" horiz-adv-x="532" d="M509 645q10 0 7 -10l-205 -626q-3 -9 -11 -9h-69q-7 0 -10 9l-206 626q-3 10 7 10h67q7 0 9 -7l113 -348q34 -101 55 -198q19 90 54 198l113 348q2 7 10 7h66z" />
<glyph unicode="W" horiz-adv-x="835" d="M808 645q9 0 6 -10l-176 -628q-1 -7 -9 -7h-64q-8 0 -10 7l-93 332q-30 108 -44 193q-16 -85 -45 -193l-93 -332q-2 -7 -9 -7h-65q-7 0 -9 7l-176 628q-3 10 6 10h68q8 0 9 -7l92 -332q30 -108 43 -181q12 69 42 181l93 332q1 7 10 7h68q8 0 9 -7l93 -332q27 -92 43 -180 q15 86 42 180l92 332q2 7 10 7h67z" />
<glyph unicode="X" horiz-adv-x="513" d="M491 10q5 -10 -5 -10h-73q-7 0 -10 5l-146 244l-147 -244q-3 -5 -9 -5h-73q-11 0 -6 10l191 317l-186 308q-5 10 5 10h73q7 0 10 -5l142 -237l141 237q5 5 10 5h73q12 0 5 -10l-186 -309z" />
<glyph unicode="Y" horiz-adv-x="485" d="M476 645q11 0 6 -10l-199 -394v-233q0 -8 -9 -8h-63q-8 0 -8 8v231l-200 396q-5 10 6 10h68q6 0 9 -6l87 -175q46 -92 70 -161q23 69 69 161l87 175q3 6 9 6h68z" />
<glyph unicode="Z" horiz-adv-x="447" d="M415 73q8 0 8 -8v-57q0 -8 -8 -8h-383q-8 0 -8 8v47q0 5 3 11l231 403q38 66 66 103h-281q-9 0 -9 8v57q0 8 9 8h361q9 0 9 -8v-47q0 -5 -3 -11l-235 -408q-36 -62 -63 -98h303z" />
<glyph unicode="[" horiz-adv-x="281" d="M259 642h-108v-704h108q8 0 8 -9v-49q0 -8 -8 -8h-175q-9 0 -9 8v820q0 8 9 8h175q8 0 8 -8v-49q0 -9 -8 -9z" />
<glyph unicode="\" horiz-adv-x="384" d="M366 -72h-63q-7 0 -9 6l-283 757q-4 9 8 9h62q7 0 10 -6l282 -757q4 -9 -7 -9z" />
<glyph unicode="]" horiz-adv-x="281" d="M197 708q9 0 9 -8v-820q0 -8 -9 -8h-175q-8 0 -8 8v49q0 9 8 9h108v704h-108q-8 0 -8 9v49q0 8 8 8h175z" />
<glyph unicode="^" horiz-adv-x="445" d="M411 442q9 -12 -4 -12h-66q-7 0 -12 7l-106 145l-107 -145q-5 -7 -12 -7h-66q-11 0 -6 9l149 201q4 5 11 5h61q7 0 11 -5z" />
<glyph unicode="_" horiz-adv-x="366" d="M8 -111q-8 0 -8 8v55q0 8 8 8h350q8 0 8 -8v-55q0 -8 -8 -8h-350z" />
<glyph unicode="`" horiz-adv-x="534" d="M242 569q-6 0 -11 4l-111 102q-4 4 -2.5 7t7.5 3h71q6 0 10 -4l97 -102q4 -4 2.5 -7t-6.5 -3h-57z" />
<glyph unicode="a" horiz-adv-x="516" d="M260 510q101 0 145.5 -40t44.5 -123v-339q0 -8 -8 -8h-37q-7 0 -10 6l-19 30q-71 -44 -161 -44q-169 0 -169 142v15q0 69 39 101t128 32h158v65q0 50 -23.5 70t-87.5 20h-6q-63 0 -86.5 -20t-23.5 -68v-2q0 -9 -9 -9h-62q-8 0 -8 9v2q0 82 44 121.5t145 39.5h6zM126 134 q0 -39 22 -56t77 -17q79 0 146 35v122h-163q-46 0 -64 -16t-18 -53v-15z" />
<glyph unicode="b" horiz-adv-x="533" d="M314 510q85 0 122 -39.5t37 -130.5v-178q0 -91 -37 -130.5t-122 -39.5q-91 0 -169 43l-19 -30q-3 -5 -10 -5h-37q-9 0 -9 8v684q0 8 9 8h63q8 0 8 -8v-222q77 40 164 40zM393 328q0 65 -18.5 87t-77.5 22q-75 0 -147 -32v-307q70 -33 147 -33q58 0 77 22t19 87v154z" />
<glyph unicode="c" horiz-adv-x="504" d="M60 159v184q0 86 45.5 126.5t152.5 40.5h6q106 0 151 -40.5t45 -126.5v-8q0 -9 -8 -9h-63q-8 0 -8 9v8q0 52 -24.5 73t-92.5 21h-6q-69 0 -93.5 -21t-24.5 -73v-184q0 -52 24.5 -73t93.5 -21h6q68 0 92.5 21t24.5 73v8q0 9 8 9h63q8 0 8 -9v-8q0 -86 -45 -126.5 t-151 -40.5h-6q-107 0 -152.5 40.5t-45.5 126.5z" />
<glyph unicode="d" horiz-adv-x="533" d="M455 700q8 0 8 -8v-684q0 -8 -8 -8h-38q-6 0 -9 5l-20 30q-78 -43 -168 -43q-85 0 -122.5 39.5t-37.5 130.5v178q0 91 37.5 130.5t122.5 39.5q86 0 163 -40v222q0 8 8 8h64zM140 174q0 -65 19 -87t77 -22q76 0 147 33v307q-72 32 -147 32q-59 0 -77.5 -22t-18.5 -87v-154 z" />
<glyph unicode="e" horiz-adv-x="522" d="M458 233h-318v-74q0 -53 25 -74t96 -21h6q71 0 95.5 20.5t24.5 72.5v2q0 8 9 8h62q8 0 8 -8v-2q0 -85 -45.5 -125t-153.5 -40h-6q-109 0 -155 40.5t-46 126.5v185q0 86 46 126t155 40h6q108 0 153.5 -40t45.5 -126v-102q0 -9 -8 -9zM261 438q-71 0 -96 -21t-25 -73v-47 h247v47q0 52 -24.5 73t-95.5 21h-6z" />
<glyph unicode="f" horiz-adv-x="324" d="M315 708q9 0 9 -8v-52q0 -8 -9 -8h-48q-51 0 -68.5 -19.5t-17.5 -74.5v-44h130q9 0 9 -8v-51q0 -9 -9 -9h-130v-426q0 -8 -8 -8h-63q-9 0 -9 8v426h-84q-8 0 -8 9v28q0 9 8 10l84 12v46q0 94 35.5 131.5t123.5 37.5h55z" />
<glyph unicode="g" horiz-adv-x="509" d="M358 57q68 0 100 -29.5t32 -91.5v-25q0 -67 -48 -96t-176 -29h-6q-126 0 -174 29t-48 96v17q0 68 48 91q-30 25 -30 69v6q0 62 49 83q-48 34 -48 114v73q0 76 44 111t149 35h230q9 0 9 -8v-29q0 -8 -10 -9l-80 -9q29 -12 40 -33t11 -58v-73q0 -76 -44.5 -111t-149.5 -35 h-6q-54 0 -91 9q-30 -12 -30 -53v-5q0 -22 13.5 -30.5t54.5 -8.5h161zM133 364v-73q0 -43 23.5 -59.5t93.5 -16.5h6q70 0 93.5 16.5t23.5 59.5v73q0 43 -23.5 59.5t-93.5 16.5h-6q-70 0 -93.5 -16.5t-23.5 -59.5zM413 -89v25q0 31 -13.5 42.5t-54.5 11.5h-157q-31 0 -53 6 q-20 -20 -20 -62v-23q0 -33 27 -44t118 -11h6q93 0 120 11t27 44z" />
<glyph unicode="h" horiz-adv-x="536" d="M312 510q85 0 122 -39.5t37 -130.5v-332q0 -8 -8 -8h-64q-8 0 -8 8v320q0 65 -18.5 87t-77.5 22q-74 0 -145 -31v-398q0 -8 -8 -8h-63q-9 0 -9 8v684q0 8 9 8h63q8 0 8 -8v-223q74 41 162 41z" />
<glyph unicode="i" horiz-adv-x="221" d="M79 580q-9 0 -9 9v88q0 8 9 8h63q8 0 8 -8v-88q0 -9 -8 -9h-63zM79 0q-9 0 -9 8v486q0 8 9 8h63q8 0 8 -8v-486q0 -8 -8 -8h-63z" />
<glyph unicode="j" horiz-adv-x="221" d="M79 580q-9 0 -9 9v88q0 8 9 8h63q8 0 8 -8v-88q0 -9 -8 -9h-63zM-35 -208q-8 0 -8 8v54q0 9 8 9h26q46 0 62.5 19t16.5 73v539q0 8 9 8h63q8 0 8 -8v-547q0 -85 -34.5 -120t-121.5 -35h-29z" />
<glyph unicode="k" horiz-adv-x="480" d="M464 10q3 -4 1.5 -7t-6.5 -3h-74q-7 0 -10 5l-136 240l-89 -97v-140q0 -8 -8 -8h-63q-9 0 -9 8v684q0 8 9 8h63q8 0 8 -8v-443l215 249q4 4 10 4h78q12 0 4 -10l-163 -186z" />
<glyph unicode="l" horiz-adv-x="221" d="M79 0q-9 0 -9 8v684q0 8 9 8h63q8 0 8 -8v-684q0 -8 -8 -8h-63z" />
<glyph unicode="m" horiz-adv-x="823" d="M607 510q79 0 115 -40t36 -130v-332q0 -8 -9 -8h-63q-8 0 -8 8v320q0 65 -17.5 87t-70.5 22q-75 0 -139 -34q5 -30 5 -63v-332q0 -8 -9 -8h-63q-8 0 -8 8v320q0 65 -17.5 87t-70.5 22q-73 0 -138 -33v-396q0 -8 -8 -8h-63q-9 0 -9 8v486q0 8 9 8h37q7 0 10 -5l19 -30 q76 43 160 43q91 0 125 -53q85 53 177 53z" />
<glyph unicode="n" horiz-adv-x="536" d="M312 510q85 0 122 -39.5t37 -130.5v-332q0 -8 -8 -8h-64q-8 0 -8 8v320q0 65 -18.5 87t-77.5 22q-74 0 -145 -31v-398q0 -8 -8 -8h-63q-9 0 -9 8v486q0 8 9 8h37q7 0 10 -5l18 -29q79 42 168 42z" />
<glyph unicode="o" d="M60 159v184q0 86 46.5 126.5t156.5 40.5h6q110 0 156 -40.5t46 -126.5v-184q0 -86 -46 -126.5t-156 -40.5h-6q-110 0 -156.5 40.5t-46.5 126.5zM140 159q0 -52 25 -73t98 -21h6q72 0 97 21t25 73v184q0 52 -25 73t-97 21h-6q-73 0 -98 -21t-25 -73v-184z" />
<glyph unicode="p" horiz-adv-x="533" d="M314 510q85 0 122 -39.5t37 -130.5v-178q0 -91 -37 -130.5t-122 -39.5q-88 0 -164 41v-225q0 -8 -8 -8h-63q-9 0 -9 8v686q0 8 9 8h37q7 0 10 -5l19 -30q78 43 169 43zM393 328q0 65 -18.5 87t-77.5 22q-75 0 -147 -32v-307q70 -33 147 -33q58 0 77 22t19 87v154z" />
<glyph unicode="q" horiz-adv-x="533" d="M455 502q8 0 8 -8v-686q0 -8 -8 -8h-64q-8 0 -8 8v225q-76 -41 -163 -41q-85 0 -122.5 39.5t-37.5 130.5v178q0 91 37.5 130.5t122.5 39.5q90 0 168 -43l19 30q4 5 10 5h38zM236 65q76 0 147 33v307q-72 32 -147 32q-59 0 -77.5 -22t-18.5 -87v-154q0 -65 19 -87t77 -22z " />
<glyph unicode="r" horiz-adv-x="322" d="M301 510q8 0 8 -8v-57q0 -8 -8 -8h-16q-84 0 -135 -40v-389q0 -8 -8 -8h-63q-9 0 -9 8v486q0 8 9 8h36q8 0 11 -6l20 -37q57 51 139 51h16z" />
<glyph unicode="s" horiz-adv-x="474" d="M41 126v33q0 8 9 8h62q8 0 8 -8v-33q0 -32 26 -47t89 -15h6q63 0 88 15t25 47v15q0 25 -12 37.5t-52 23.5l-129 36q-62 18 -87.5 47t-25.5 78v14q0 133 186 133h6q186 0 186 -133v-33q0 -9 -8 -9h-62q-9 0 -9 9v33q0 31 -23.5 46t-83.5 15h-6q-60 0 -83 -14.5t-23 -46.5 v-14q0 -24 12.5 -35.5t53.5 -23.5l129 -35q60 -16 85 -46t25 -82v-15q0 -134 -192 -134h-6q-194 0 -194 134z" />
<glyph unicode="t" horiz-adv-x="334" d="M303 66q8 0 8 -8v-54q0 -8 -8 -8h-51q-85 0 -121 34.5t-36 120.5v283h-79q-9 0 -9 9v29q0 8 8 9l80 12v144q0 8 9 8h63q8 0 8 -8v-135h126q8 0 8 -8v-51q0 -9 -8 -9h-126v-279q0 -51 17.5 -70t65.5 -19h45z" />
<glyph unicode="u" horiz-adv-x="532" d="M454 502q8 0 8 -8v-486q0 -8 -8 -8h-38q-6 0 -10 6l-19 29q-78 -43 -166 -43q-84 0 -120 39.5t-36 130.5v332q0 8 9 8h63q8 0 8 -8v-320q0 -65 18 -87t75 -22q74 0 144 32v397q0 8 8 8h64z" />
<glyph unicode="v" horiz-adv-x="458" d="M442 502q10 0 7 -9l-175 -487q-2 -6 -10 -6h-70q-8 0 -10 6l-175 487q-3 9 7 9h66q8 0 10 -6l78 -223q42 -127 59 -197q17 70 59 197l78 223q2 6 10 6h66z" />
<glyph unicode="w" horiz-adv-x="734" d="M713 502q10 0 7 -9l-147 -486q-1 -7 -9 -7h-76q-7 0 -10 7l-61 204q-34 109 -50 202q-16 -93 -50 -202l-61 -204q-3 -7 -9 -7h-77q-6 0 -9 7l-146 486q-3 9 6 9h66q8 0 10 -7l64 -218q32 -110 48 -194q17 84 49 194l66 218q2 7 10 7h66q8 0 10 -7l66 -218 q34 -118 49 -196q17 88 48 196l64 218q2 7 10 7h66z" />
<glyph unicode="x" horiz-adv-x="445" d="M429 12q4 -5 2.5 -8.5t-6.5 -3.5h-73q-6 0 -10 5l-120 188l-120 -188q-4 -5 -9 -5h-73q-5 0 -6.5 3.5t2.5 8.5l160 245l-152 233q-4 5 -2.5 8.5t6.5 3.5h73q6 0 10 -5l112 -176l111 176q4 5 10 5h73q12 0 4 -12l-152 -233z" />
<glyph unicode="y" horiz-adv-x="453" d="M441 502q11 0 7 -9l-249 -688q-3 -7 -10 -7h-64q-12 0 -7 10l70 187l-179 498q-4 9 7 9h66q7 0 9 -6l80 -225q40 -119 58 -194q17 71 58 195l79 224q2 6 10 6h65z" />
<glyph unicode="z" horiz-adv-x="409" d="M373 73q9 0 9 -9v-56q0 -8 -9 -8h-337q-8 0 -8 8v49q0 5 3 11l211 312q22 32 39 49h-235q-8 0 -8 9v56q0 8 8 8h317q9 0 9 -8v-50q0 -5 -3 -11l-211 -312q-22 -32 -39 -48h254z" />
<glyph unicode="{" horiz-adv-x="310" d="M193 420q0 -67 -19.5 -95t-72.5 -35q53 -7 72.5 -35.5t19.5 -95.5v-134q0 -49 17.5 -68t62.5 -19h15q9 0 9 -9v-49q0 -8 -9 -8h-17q-84 0 -119 34t-35 114v143q0 52 -18 72.5t-65 20.5h-2q-8 0 -8 8v50q0 9 8 9h2q47 0 65 20t18 73v144q0 80 35 114t119 34h17q9 0 9 -8 v-49q0 -9 -9 -9h-15q-45 0 -62.5 -19t-17.5 -68v-135z" />
<glyph unicode="|" horiz-adv-x="225" d="M84 -80q-9 0 -9 8v789q0 8 9 8h57q8 0 8 -8v-789q0 -8 -8 -8h-57z" />
<glyph unicode="}" horiz-adv-x="310" d="M278 323q8 0 8 -9v-50q0 -8 -8 -8h-2q-47 0 -65 -20.5t-18 -72.5v-143q0 -80 -35 -114t-119 -34h-17q-9 0 -9 8v49q0 9 9 9h15q45 0 62.5 19t17.5 68v134q0 67 19.5 95.5t72.5 35.5q-53 7 -72.5 35t-19.5 95v135q0 49 -17.5 68t-62.5 19h-15q-9 0 -9 9v49q0 8 9 8h17 q84 0 119 -34t35 -114v-144q0 -53 18 -73t65 -20h2z" />
<glyph unicode="~" horiz-adv-x="500" d="M347 180q-39 0 -101.5 38t-99.5 38q-41 0 -89 -31q-10 -7 -10 5v52q0 7 5 10q56 35 100 35q40 0 102.5 -38t100.5 -38q42 0 88 30q10 7 10 -5v-52q0 -7 -9 -12q-54 -32 -97 -32z" />
<glyph unicode="&#xa1;" horiz-adv-x="225" d="M79 502h67q9 0 9 -8v-82q0 -9 -9 -9h-67q-8 0 -8 9v82q0 8 8 8zM94 320h37q8 0 8 -8l14 -447q0 -8 -9 -8h-64q-8 0 -8 8l13 447q0 8 9 8z" />
<glyph unicode="&#xa2;" horiz-adv-x="545" d="M406 399q-8 0 -8 9v8q0 45 -17.5 66.5t-65.5 26.5v-370q48 5 65.5 26.5t17.5 66.5v8q0 9 8 9h63q8 0 8 -9v-8q0 -79 -37.5 -119.5t-124.5 -46.5v-88q0 -8 -8 -8h-58q-8 0 -8 8v88q-88 6 -126 46.5t-38 119.5v184q0 79 38 119.5t126 46.5v85q0 8 8 8h58q8 0 8 -8v-85 q87 -6 124.5 -46.5t37.5 -119.5v-8q0 -9 -8 -9h-63zM157 232q0 -45 17.5 -66.5t66.5 -26.5v370q-49 -5 -66.5 -26.5t-17.5 -66.5v-184z" />
<glyph unicode="&#xa3;" horiz-adv-x="542" d="M486 181q9 0 9 -9v-3q0 -88 -46.5 -128.5t-151.5 -40.5h-251q-8 0 -8 8v57q0 8 8 8h47v209h-47q-8 0 -8 8v53q0 9 8 9h47v144q0 79 45.5 118t147.5 39h6q102 0 146.5 -39.5t44.5 -121.5v-39q0 -9 -8 -9h-62q-9 0 -9 9v39q0 47 -24 67.5t-88 20.5h-6q-65 0 -89 -20 t-24 -67v-141h192q9 0 9 -9v-53q0 -8 -9 -8h-192v-209h116q74 0 100 21t26 75v3q0 9 8 9h63z" />
<glyph unicode="&#xa4;" horiz-adv-x="573" d="M439 157l80 -120q2 -4 0.5 -7t-6.5 -3h-69q-5 0 -9 5l-65 97q-32 -5 -67 -5h-32q-35 0 -68 5l-64 -97q-4 -5 -10 -5h-69q-4 0 -6 3t0 7l80 120q-42 34 -42 118v96q0 84 42 118l-80 119q-2 4 0 7t6 3h69q6 0 10 -5l64 -96q33 5 68 5h32q35 0 68 -5l64 96q4 5 9 5h69 q5 0 6.5 -3t-0.5 -7l-80 -119q43 -33 43 -118v-96q0 -85 -43 -118zM271 196h32q60 0 81 16t21 63v96q0 47 -21 63t-81 16h-32q-61 0 -81.5 -16t-20.5 -63v-96q0 -47 20.5 -63t81.5 -16z" />
<glyph unicode="&#xa5;" horiz-adv-x="515" d="M477 645q9 0 6 -10l-155 -331h101q9 0 9 -9v-48q0 -8 -9 -8h-131v-76h131q9 0 9 -9v-48q0 -8 -9 -8h-131v-90q0 -8 -9 -8h-63q-8 0 -8 8v90h-132q-9 0 -9 8v48q0 9 9 9h132v76h-132q-9 0 -9 8v48q0 9 9 9h101l-155 332q-4 9 6 9h68q8 0 11 -7l141 -309l140 309q2 7 10 7 h69z" />
<glyph unicode="&#xa6;" horiz-adv-x="225" d="M84 395q-9 0 -9 8v314q0 8 9 8h57q8 0 8 -8v-314q0 -8 -8 -8h-57zM84 -80q-9 0 -9 8v294q0 8 9 8h57q8 0 8 -8v-294q0 -8 -8 -8h-57z" />
<glyph unicode="&#xa7;" horiz-adv-x="508" d="M380 293q-8 0 -8 8v20q0 25 -12 36.5t-47 15.5l-137 17q-118 15 -118 122v7q0 66 45 100t148 34h6q103 0 148 -34t45 -101v-13q0 -8 -9 -8h-61q-8 0 -8 8v13q0 37 -22 50t-93 13h-6q-71 0 -92.5 -12.5t-21.5 -49.5v-7q0 -28 12.5 -38.5t55.5 -16.5l137 -17 q61 -8 84.5 -34t23.5 -85v-20q0 -8 -9 -8h-61zM251 -8q-103 0 -148 34t-45 101v13q0 8 8 8h61q9 0 9 -8v-13q0 -37 22 -50t93 -13h6q71 0 92.5 12.5t21.5 49.5v7q0 28 -12.5 38.5t-55.5 16.5l-137 17q-61 8 -84.5 34t-23.5 85v20q0 8 8 8h61q9 0 9 -8v-20q0 -25 12 -36.5 t47 -15.5l137 -17q118 -15 118 -122v-7q0 -66 -45 -100t-148 -34h-6z" />
<glyph unicode="&#xa8;" d="M162 580q-9 0 -9 9v88q0 8 9 8h58q9 0 9 -8v-88q0 -9 -9 -9h-58zM312 580q-9 0 -9 9v88q0 8 9 8h58q9 0 9 -8v-88q0 -9 -9 -9h-58z" />
<glyph unicode="&#xa9;" horiz-adv-x="701" d="M348 -8q-113 0 -175.5 19.5t-85 55t-22.5 96.5v319q0 61 22.5 96.5t85 55t175.5 19.5h6q113 0 175 -19.5t84.5 -55t22.5 -96.5v-319q0 -61 -22.5 -96.5t-84.5 -55t-175 -19.5h-6zM348 52h6q131 0 174.5 26t43.5 86v319q0 59 -43.5 84.5t-174.5 25.5h-6q-90 0 -139 -13.5 t-64 -35.5t-15 -61v-319q0 -40 15 -62.5t64 -36t139 -13.5zM350 139q-77 0 -110 28t-33 88v136q0 60 33 88t110 28h4q79 0 111.5 -27.5t32.5 -88.5v-12q0 -8 -8 -8h-45q-8 0 -8 8v12q0 34 -17.5 47t-65.5 13h-4q-47 0 -64 -13t-17 -47v-136q0 -34 17 -47t64 -13h4 q48 0 65.5 13t17.5 47v6q0 9 8 9h45q8 0 8 -9v-6q0 -61 -32.5 -88.5t-111.5 -27.5h-4z" />
<glyph unicode="&#xab;" horiz-adv-x="478" d="M102 247l131 -168q6 -6 0 -12l-32 -32q-7 -7 -12 0l-166 206q-6 6 0 12l166 206q5 7 12 0l32 -32q5 -5 0 -12zM296 247l131 -168q6 -6 0 -12l-32 -32q-7 -7 -12 0l-166 206q-6 6 0 12l166 206q5 7 12 0l32 -32q5 -5 0 -12z" />
<glyph unicode="&#xac;" horiz-adv-x="500" d="M445 328q8 0 8 -8v-185q0 -8 -8 -8h-63q-9 0 -9 8v120h-318q-8 0 -8 8v57q0 8 8 8h390z" />
<glyph unicode="&#xad;" horiz-adv-x="328" d="M32 249q-8 0 -8 8v56q0 9 8 9h263q9 0 9 -9v-56q0 -8 -9 -8h-263z" />
<glyph unicode="&#xae;" horiz-adv-x="701" d="M354 653q113 0 175 -19.5t84.5 -55t22.5 -96.5v-319q0 -61 -22.5 -96.5t-84.5 -55t-175 -19.5h-6q-113 0 -175.5 19.5t-85 55t-22.5 96.5v319q0 61 22.5 96.5t85 55t175.5 19.5h6zM572 164v319q0 59 -43.5 84.5t-174.5 25.5h-6q-90 0 -139 -13.5t-64 -35.5t-15 -61v-319 q0 -40 15 -62.5t64 -36t139 -13.5h6q131 0 174.5 26t43.5 86zM366 497q126 0 126 -95v-35q0 -72 -70 -89l67 -120q7 -11 -6 -11h-47q-7 0 -10 6l-65 119h-79v-116q0 -9 -8 -9h-45q-8 0 -8 9v333q0 8 8 8h137zM431 367v35q0 40 -61 40h-88v-115h88q61 0 61 40z" />
<glyph unicode="&#xaf;" d="M161 581q-9 0 -9 9v45q0 8 9 8h209q9 0 9 -8v-45q0 -9 -9 -9h-209z" />
<glyph unicode="&#xb0;" horiz-adv-x="350" d="M162 377q-65 0 -94.5 28t-29.5 88v43q0 60 29.5 88.5t94.5 28.5h25q65 0 95.5 -28.5t30.5 -88.5v-43q0 -60 -30.5 -88t-95.5 -28h-25zM162 436h25q34 0 48.5 12.5t14.5 44.5v43q0 32 -14.5 45t-48.5 13h-25q-33 0 -47 -12.5t-14 -45.5v-43q0 -32 13.5 -44.5t47.5 -12.5z " />
<glyph unicode="&#xb1;" horiz-adv-x="500" d="M445 381q8 0 8 -9v-56q0 -9 -8 -9h-155v-137q0 -8 -8 -8h-63q-9 0 -9 8v137h-155q-8 0 -8 9v56q0 9 8 9h155v135q0 9 9 9h63q8 0 8 -9v-135h155zM445 73q8 0 8 -8v-57q0 -8 -8 -8h-390q-8 0 -8 8v57q0 8 8 8h390z" />
<glyph unicode="&#xb4;" d="M252 569q-6 0 -7.5 3t2.5 7l97 102q4 4 11 4h72q3 0 5 -1.5t1.5 -4t-3.5 -4.5l-111 -102q-6 -4 -10 -4h-57z" />
<glyph unicode="&#xb6;" horiz-adv-x="600" d="M559 645q8 0 8 -8v-48q0 -8 -8 -8h-59v-573q0 -8 -9 -8h-60q-9 0 -9 8v573h-115v-573q0 -8 -8 -8h-61q-8 0 -8 8v276h-54q-73 0 -105.5 33t-32.5 105v86q0 72 32.5 104.5t105.5 32.5h383zM230 349v232h-54q-38 0 -53.5 -15.5t-15.5 -57.5v-86q0 -42 15.5 -57.5 t53.5 -15.5h54z" />
<glyph unicode="&#xb7;" horiz-adv-x="159" d="M46 250q-8 0 -8 8v82q0 9 8 9h67q9 0 9 -9v-82q0 -8 -9 -8h-67z" />
<glyph unicode="&#xb8;" horiz-adv-x="534" d="M291 -61q48 0 68 -15.5t20 -54.5v-11q0 -39 -20 -54.5t-68 -15.5h-87q-8 0 -8 8v34q0 8 8 8h86q19 0 26 4.5t7 16.5v11q0 12 -7 17t-26 5h-85q-9 0 -7 9l18 118h54l-11 -80h32z" />
<glyph unicode="&#xbb;" horiz-adv-x="478" d="M261 253q6 -6 0 -12l-166 -206q-5 -7 -12 0l-32 32q-6 6 0 12l131 168l-131 168q-5 7 0 12l32 32q7 7 12 0zM455 253q6 -6 0 -12l-166 -206q-5 -7 -12 0l-32 32q-6 6 0 12l131 168l-131 168q-5 7 0 12l32 32q7 7 12 0z" />
<glyph unicode="&#xbc;" horiz-adv-x="630" d="M252 331q0 -9 -9 -9h-185q-8 0 -8 9v40q0 9 8 9h65v204l-57 -29q-9 -5 -9 7v42q0 6 6 9l54 29q5 3 14 3h46q9 0 9 -8v-257h57q9 0 9 -9v-40zM544 645q11 0 5 -10l-361 -628q-4 -7 -11 -7h-52q-11 0 -7 10l363 628q4 7 10 7h53zM572 118q8 0 8 -8v-36q0 -8 -8 -8h-29v-58 q0 -8 -8 -8h-42q-9 0 -9 8v58h-144q-9 0 -9 8v41q0 5 3 10l134 192q3 6 10 6h57q8 0 8 -9v-196h29zM396 118h88v129z" />
<glyph unicode="&#xbd;" horiz-adv-x="665" d="M252 331q0 -9 -9 -9h-185q-8 0 -8 9v40q0 9 8 9h65v204l-57 -29q-9 -5 -9 7v42q0 6 6 9l54 29q5 3 14 3h46q9 0 9 -8v-257h57q9 0 9 -9v-40zM543 645q11 0 5 -10l-361 -628q-4 -7 -11 -7h-52q-11 0 -7 10l363 628q4 7 10 7h53zM480 116q-22 -5 -28.5 -11.5t-6.5 -24.5 v-23h162q8 0 8 -8v-41q0 -8 -8 -8h-216q-9 0 -9 8v72q0 38 17.5 58.5t58.5 28.5l61 13q21 5 27.5 13t6.5 28v17q0 19 -9.5 25.5t-41.5 6.5h-3q-31 0 -40.5 -6.5t-9.5 -25.5v-15q0 -8 -9 -8h-45q-9 0 -9 8v15q0 89 113 89h3q113 0 113 -89v-17q0 -41 -16 -61.5t-56 -29.5z " />
<glyph unicode="&#xbe;" horiz-adv-x="638" d="M169 325h-3q-64 0 -90 22t-26 70v12q0 8 8 8h45q9 0 9 -8v-12q0 -22 10 -28.5t44 -6.5h3q34 0 44 6.5t10 28.5v12q0 20 -10 27t-44 7h-33q-9 0 -9 8v36q0 8 9 8h33q30 0 39 7t9 28v12q0 21 -9 28t-39 7h-3q-31 0 -40 -7t-9 -28v-12q0 -9 -8 -9h-45q-9 0 -9 9v12 q0 48 25.5 69.5t85.5 21.5h3q60 0 85 -21.5t25 -69.5v-11q0 -29 -8.5 -43t-31.5 -19q27 -4 36.5 -18t9.5 -44v-10q0 -48 -26.5 -70t-89.5 -22zM552 645q11 0 5 -10l-361 -628q-4 -7 -11 -7h-52q-11 0 -7 10l363 628q4 7 10 7h53zM580 118q8 0 8 -8v-36q0 -8 -8 -8h-29v-58 q0 -8 -8 -8h-43q-8 0 -8 8v58h-145q-8 0 -8 8v41q0 5 3 10l133 192q5 6 11 6h57q8 0 8 -9v-196h29zM404 118h88v129z" />
<glyph unicode="&#xbf;" horiz-adv-x="440" d="M308 502q8 0 8 -8v-82q0 -9 -8 -9h-67q-9 0 -9 9v82q0 8 9 8h67zM406 53q9 0 9 -8v-28q0 -86 -45 -127t-147 -41h-6q-102 0 -147 39.5t-45 118.5v13q0 69 23 102.5t84 53.5l45 14q38 11 48 28.5t10 69.5v24q0 8 8 8h62q9 0 9 -8v-24q0 -76 -21.5 -109.5t-81.5 -52.5 l-44 -14q-41 -13 -52.5 -30t-11.5 -62v-13q0 -45 24.5 -65t89.5 -20h6q65 0 89 21.5t24 73.5v28q0 8 9 8h61z" />
<glyph unicode="&#xc0;" horiz-adv-x="543" d="M261 716l-111 102q-4 4 -2.5 7t7.5 3h71q6 0 10 -4l97 -102q4 -4 2.5 -7t-6.5 -3h-57q-6 0 -11 4zM528 9q3 -9 -7 -9h-66q-8 0 -10 6l-52 152h-243l-52 -152q-2 -6 -10 -6h-66q-10 0 -7 9l218 630q2 6 9 6h59q8 0 10 -6zM175 231h193l-46 136q-33 96 -50 168 q-18 -72 -51 -168z" />
<glyph unicode="&#xc1;" horiz-adv-x="543" d="M220 712q-6 0 -7.5 3t2.5 7l97 102q4 4 11 4h72q3 0 5 -1.5t1.5 -4t-3.5 -4.5l-111 -102q-6 -4 -10 -4h-57zM528 9q3 -9 -7 -9h-66q-8 0 -10 6l-52 152h-243l-52 -152q-2 -6 -10 -6h-66q-10 0 -7 9l218 630q2 6 9 6h59q8 0 10 -6zM175 231h193l-46 136q-33 96 -50 168 q-18 -72 -51 -168z" />
<glyph unicode="&#xc2;" horiz-adv-x="543" d="M144 712q-5 0 -7 3t2 7l97 102q4 4 11 4h50q6 0 10 -4l97 -102q4 -4 2.5 -7t-7.5 -3h-57q-6 0 -11 6l-59 69l-59 -69q-5 -6 -12 -6h-57zM528 9q3 -9 -7 -9h-66q-8 0 -10 6l-52 152h-243l-52 -152q-2 -6 -10 -6h-66q-10 0 -7 9l218 630q2 6 9 6h59q8 0 10 -6zM175 231h193 l-46 136q-33 96 -50 168q-18 -72 -51 -168z" />
<glyph unicode="&#xc3;" horiz-adv-x="543" d="M141 720q-8 0 -8 9v30q0 34 18 53t48 19q29 0 56 -18l68 -46q15 -9 22 -9q13 0 13 19v34q0 9 8 9h36q9 0 9 -9v-31q0 -34 -17.5 -52.5t-48.5 -18.5q-29 0 -56 18l-68 45q-13 10 -23 10q-12 0 -12 -19v-34q0 -9 -9 -9h-36zM528 9q3 -9 -7 -9h-66q-8 0 -10 6l-52 152h-243 l-52 -152q-2 -6 -10 -6h-66q-10 0 -7 9l218 630q2 6 9 6h59q8 0 10 -6zM175 231h193l-46 136q-33 96 -50 168q-18 -72 -51 -168z" />
<glyph unicode="&#xc4;" horiz-adv-x="543" d="M167 723q-9 0 -9 9v88q0 8 9 8h58q9 0 9 -8v-88q0 -9 -9 -9h-58zM317 723q-9 0 -9 9v88q0 8 9 8h58q9 0 9 -8v-88q0 -9 -9 -9h-58zM528 9q3 -9 -7 -9h-66q-8 0 -10 6l-52 152h-243l-52 -152q-2 -6 -10 -6h-66q-10 0 -7 9l218 630q2 6 9 6h59q8 0 10 -6zM175 231h193 l-46 136q-33 96 -50 168q-18 -72 -51 -168z" />
<glyph unicode="&#xc5;" horiz-adv-x="543" d="M271 703q-53 0 -73 15t-20 51v17q0 36 20 51t73 15h2q52 0 72.5 -15.5t20.5 -50.5v-17q0 -35 -20.5 -50.5t-72.5 -15.5h-2zM223 784v-14q0 -16 8.5 -21t39.5 -5h2q31 0 39.5 5t8.5 21v14q0 16 -8.5 21t-39.5 5h-2q-31 0 -39.5 -5t-8.5 -21zM528 9q3 -9 -7 -9h-66 q-8 0 -10 6l-52 152h-243l-52 -152q-2 -6 -10 -6h-66q-10 0 -7 9l218 630q2 6 9 6h59q8 0 10 -6zM175 231h193l-46 136q-33 96 -50 168q-18 -72 -51 -168z" />
<glyph unicode="&#xc6;" horiz-adv-x="830" d="M783 572h-294v-209h264q8 0 8 -8v-56q0 -9 -8 -9h-264v-217h294q8 0 8 -8v-57q0 -8 -8 -8h-365q-9 0 -9 8v148h-229l-78 -150q-2 -6 -10 -6h-70q-11 0 -6 10l327 629q3 6 10 6h430q8 0 8 -8v-57q0 -8 -8 -8zM217 228h192v344h-13z" />
<glyph unicode="&#xc7;" horiz-adv-x="560" d="M443 437q-9 0 -9 8v39q0 54 -28 75t-113 21h-6q-85 0 -113.5 -21t-28.5 -75v-323q0 -54 28.5 -75t113.5 -21h6q85 0 113 21t28 75v39q0 8 9 8h63q8 0 8 -8v-39q0 -89 -49 -129t-172 -40h-6h-1l-7 -53h32q48 0 68 -15.5t20 -54.5v-11q0 -39 -20 -54.5t-68 -15.5h-87 q-8 0 -8 8v34q0 8 8 8h86q19 0 26 4.5t7 16.5v11q0 12 -7 17t-26 5h-85q-9 0 -7 9l14 93q-92 9 -129.5 49t-37.5 118v323q0 88 49.5 128.5t172.5 40.5h6q123 0 172 -40t49 -129v-39q0 -8 -8 -8h-63z" />
<glyph unicode="&#xc8;" horiz-adv-x="497" d="M251 716l-111 102q-4 4 -2.5 7t7.5 3h71q6 0 10 -4l97 -102q4 -4 2.5 -7t-6.5 -3h-57q-6 0 -11 4zM449 572h-294v-209h264q8 0 8 -8v-56q0 -9 -8 -9h-264v-217h294q8 0 8 -8v-57q0 -8 -8 -8h-365q-9 0 -9 8v629q0 8 9 8h365q8 0 8 -8v-57q0 -8 -8 -8z" />
<glyph unicode="&#xc9;" horiz-adv-x="497" d="M210 712q-6 0 -7.5 3t2.5 7l97 102q4 4 11 4h72q3 0 5 -1.5t1.5 -4t-3.5 -4.5l-111 -102q-6 -4 -10 -4h-57zM449 572h-294v-209h264q8 0 8 -8v-56q0 -9 -8 -9h-264v-217h294q8 0 8 -8v-57q0 -8 -8 -8h-365q-9 0 -9 8v629q0 8 9 8h365q8 0 8 -8v-57q0 -8 -8 -8z" />
<glyph unicode="&#xca;" horiz-adv-x="497" d="M134 712q-5 0 -7 3t2 7l97 102q4 4 11 4h50q6 0 10 -4l97 -102q4 -4 2.5 -7t-7.5 -3h-57q-6 0 -11 6l-59 69l-59 -69q-5 -6 -12 -6h-57zM449 572h-294v-209h264q8 0 8 -8v-56q0 -9 -8 -9h-264v-217h294q8 0 8 -8v-57q0 -8 -8 -8h-365q-9 0 -9 8v629q0 8 9 8h365q8 0 8 -8 v-57q0 -8 -8 -8z" />
<glyph unicode="&#xcb;" horiz-adv-x="497" d="M157 723q-9 0 -9 9v88q0 8 9 8h58q9 0 9 -8v-88q0 -9 -9 -9h-58zM307 723q-9 0 -9 9v88q0 8 9 8h58q9 0 9 -8v-88q0 -9 -9 -9h-58zM449 572h-294v-209h264q8 0 8 -8v-56q0 -9 -8 -9h-264v-217h294q8 0 8 -8v-57q0 -8 -8 -8h-365q-9 0 -9 8v629q0 8 9 8h365q8 0 8 -8v-57 q0 -8 -8 -8z" />
<glyph unicode="&#xcc;" horiz-adv-x="231" d="M115 712q-6 0 -11 4l-111 102q-4 4 -2.5 7t7.5 3h71q6 0 10 -4l97 -102q4 -4 2.5 -7t-6.5 -3h-57zM84 0q-9 0 -9 8v629q0 8 9 8h63q8 0 8 -8v-629q0 -8 -8 -8h-63z" />
<glyph unicode="&#xcd;" horiz-adv-x="231" d="M63 712q-6 0 -7.5 3t2.5 7l97 102q4 4 11 4h72q3 0 5 -1.5t1.5 -4t-3.5 -4.5l-111 -102q-6 -4 -10 -4h-57zM84 0q-9 0 -9 8v629q0 8 9 8h63q8 0 8 -8v-629q0 -8 -8 -8h-63z" />
<glyph unicode="&#xce;" horiz-adv-x="231" d="M247 722q4 -4 2.5 -7t-7.5 -3h-57q-6 0 -11 6l-59 69l-59 -69q-4 -6 -12 -6h-57q-5 0 -7 3t2 7l97 102q4 4 11 4h50q6 0 10 -4zM147 645q8 0 8 -8v-629q0 -8 -8 -8h-63q-9 0 -9 8v629q0 8 9 8h63z" />
<glyph unicode="&#xcf;" horiz-adv-x="231" d="M10 723q-9 0 -9 9v88q0 8 9 8h58q9 0 9 -8v-88q0 -9 -9 -9h-58zM160 723q-9 0 -9 9v88q0 8 9 8h58q9 0 9 -8v-88q0 -9 -9 -9h-58zM84 0q-9 0 -9 8v629q0 8 9 8h63q8 0 8 -8v-629q0 -8 -8 -8h-63z" />
<glyph unicode="&#xd0;" horiz-adv-x="581" d="M300 645q118 0 167 -40t49 -125v-315q0 -85 -49 -125t-167 -40h-216q-9 0 -9 8v291h-47q-8 0 -8 8v38q0 9 8 9h47v283q0 8 9 8h216zM436 165v315q0 53 -30 72.5t-122 19.5h-129v-218h149q8 0 8 -9v-38q0 -8 -8 -8h-149v-226h129q92 0 122 19.5t30 72.5z" />
<glyph unicode="&#xd1;" horiz-adv-x="630" d="M184 720q-8 0 -8 9v30q0 34 18 53t48 19q29 0 56 -18l68 -46q15 -9 22 -9q13 0 13 19v34q0 9 8 9h36q9 0 9 -9v-31q0 -34 -17.5 -52.5t-48.5 -18.5q-29 0 -56 18l-68 45q-13 10 -23 10q-12 0 -12 -19v-34q0 -9 -9 -9h-36zM546 645q8 0 8 -8v-629q0 -8 -8 -8h-69 q-7 0 -9 5l-211 336q-70 111 -106 187q4 -74 4 -187v-333q0 -8 -8 -8h-63q-9 0 -9 8v629q0 8 9 8h68q8 0 10 -5l211 -336q68 -108 106 -188q-5 74 -5 188v333q0 8 9 8h63z" />
<glyph unicode="&#xd2;" horiz-adv-x="594" d="M297 712q-6 0 -11 4l-111 102q-4 4 -2.5 7t7.5 3h71q6 0 10 -4l97 -102q4 -4 2.5 -7t-6.5 -3h-57zM65 161v323q0 89 50.5 129t178.5 40h6q128 0 178 -40t50 -129v-323q0 -89 -50 -129t-178 -40h-6q-128 0 -178.5 40t-50.5 129zM145 161q0 -54 29.5 -75t119.5 -21h6 q90 0 119 21t29 75v323q0 54 -29 75t-119 21h-6q-90 0 -119.5 -21t-29.5 -75v-323z" />
<glyph unicode="&#xd3;" horiz-adv-x="594" d="M245 712q-6 0 -7.5 3t2.5 7l97 102q4 4 11 4h72q3 0 5 -1.5t1.5 -4t-3.5 -4.5l-111 -102q-6 -4 -10 -4h-57zM65 161v323q0 89 50.5 129t178.5 40h6q128 0 178 -40t50 -129v-323q0 -89 -50 -129t-178 -40h-6q-128 0 -178.5 40t-50.5 129zM145 161q0 -54 29.5 -75 t119.5 -21h6q90 0 119 21t29 75v323q0 54 -29 75t-119 21h-6q-90 0 -119.5 -21t-29.5 -75v-323z" />
<glyph unicode="&#xd4;" horiz-adv-x="594" d="M169 712q-5 0 -7 3t2 7l97 102q4 4 11 4h50q6 0 10 -4l97 -102q4 -4 2.5 -7t-7.5 -3h-57q-6 0 -11 6l-59 69l-59 -69q-4 -6 -12 -6h-57zM300 653q128 0 178 -40t50 -129v-323q0 -89 -50 -129t-178 -40h-6q-128 0 -178.5 40t-50.5 129v323q0 89 50.5 129t178.5 40h6z M448 161v323q0 54 -29 75t-119 21h-6q-90 0 -119.5 -21t-29.5 -75v-323q0 -54 29.5 -75t119.5 -21h6q90 0 119 21t29 75z" />
<glyph unicode="&#xd5;" horiz-adv-x="594" d="M370 709q-29 0 -56 18l-68 45q-13 10 -23 10q-12 0 -12 -19v-34q0 -9 -9 -9h-36q-8 0 -8 9v30q0 34 18 53t48 19q29 0 56 -18l68 -46q15 -9 22 -9q13 0 13 19v34q0 9 8 9h36q9 0 9 -9v-31q0 -34 -17.5 -52.5t-48.5 -18.5zM65 161v323q0 89 50.5 129t178.5 40h6 q128 0 178 -40t50 -129v-323q0 -89 -50 -129t-178 -40h-6q-128 0 -178.5 40t-50.5 129zM145 161q0 -54 29.5 -75t119.5 -21h6q90 0 119 21t29 75v323q0 54 -29 75t-119 21h-6q-90 0 -119.5 -21t-29.5 -75v-323z" />
<glyph unicode="&#xd6;" horiz-adv-x="594" d="M192 723q-9 0 -9 9v88q0 8 9 8h58q9 0 9 -8v-88q0 -9 -9 -9h-58zM342 723q-9 0 -9 9v88q0 8 9 8h58q9 0 9 -8v-88q0 -9 -9 -9h-58zM65 161v323q0 89 50.5 129t178.5 40h6q128 0 178 -40t50 -129v-323q0 -89 -50 -129t-178 -40h-6q-128 0 -178.5 40t-50.5 129zM145 161 q0 -54 29.5 -75t119.5 -21h6q90 0 119 21t29 75v323q0 54 -29 75t-119 21h-6q-90 0 -119.5 -21t-29.5 -75v-323z" />
<glyph unicode="&#xd7;" horiz-adv-x="500" d="M423 379q7 -7 0 -13l-118 -118l116 -116q6 -6 0 -12l-40 -40q-6 -6 -12 0l-116 116l-119 -119q-7 -5 -12 0l-45 44q-6 6 0 13l119 119l-116 116q-6 6 0 12l40 40q6 6 12 0l116 -116l119 118q5 5 11 0z" />
<glyph unicode="&#xd8;" horiz-adv-x="594" d="M472 617q56 -38 56 -133v-323q0 -89 -50 -129t-178 -40h-6q-75 0 -125 14l-26 -52q-3 -6 -10 -6h-40q-11 0 -6 10l35 70q-57 38 -57 133v323q0 89 50.5 129t178.5 40h6q77 0 125 -15l26 52q3 6 10 6h39q11 0 6 -10zM145 161q0 -41 13 -60l234 470q-33 9 -92 9h-6 q-90 0 -119.5 -21t-29.5 -75v-323zM448 161v323q0 40 -13 59l-233 -469q33 -9 92 -9h6q90 0 119 21t29 75z" />
<glyph unicode="&#xd9;" horiz-adv-x="591" d="M295 712q-6 0 -11 4l-111 102q-4 4 -2.5 7t7.5 3h71q6 0 10 -4l97 -102q4 -4 2.5 -7t-6.5 -3h-57zM70 161v476q0 8 9 8h63q8 0 8 -8v-476q0 -54 28.5 -75t113.5 -21h6q86 0 114.5 21t28.5 75v476q0 8 8 8h63q9 0 9 -8v-476q0 -88 -49.5 -128.5t-173.5 -40.5h-6 q-123 0 -172.5 40.5t-49.5 128.5z" />
<glyph unicode="&#xda;" horiz-adv-x="591" d="M243 712q-6 0 -7.5 3t2.5 7l97 102q4 4 11 4h72q3 0 5 -1.5t1.5 -4t-3.5 -4.5l-111 -102q-6 -4 -10 -4h-57zM70 161v476q0 8 9 8h63q8 0 8 -8v-476q0 -54 28.5 -75t113.5 -21h6q86 0 114.5 21t28.5 75v476q0 8 8 8h63q9 0 9 -8v-476q0 -88 -49.5 -128.5t-173.5 -40.5h-6 q-123 0 -172.5 40.5t-49.5 128.5z" />
<glyph unicode="&#xdb;" horiz-adv-x="591" d="M167 712q-5 0 -7 3t2 7l97 102q4 4 11 4h50q6 0 10 -4l97 -102q4 -4 2.5 -7t-7.5 -3h-57q-6 0 -11 6l-59 69l-59 -69q-4 -6 -12 -6h-57zM512 645q9 0 9 -8v-476q0 -88 -49.5 -128.5t-173.5 -40.5h-6q-123 0 -172.5 40.5t-49.5 128.5v476q0 8 9 8h63q8 0 8 -8v-476 q0 -54 28.5 -75t113.5 -21h6q86 0 114.5 21t28.5 75v476q0 8 8 8h63z" />
<glyph unicode="&#xdc;" horiz-adv-x="591" d="M190 723q-9 0 -9 9v88q0 8 9 8h58q9 0 9 -8v-88q0 -9 -9 -9h-58zM340 723q-9 0 -9 9v88q0 8 9 8h58q9 0 9 -8v-88q0 -9 -9 -9h-58zM70 161v476q0 8 9 8h63q8 0 8 -8v-476q0 -54 28.5 -75t113.5 -21h6q86 0 114.5 21t28.5 75v476q0 8 8 8h63q9 0 9 -8v-476 q0 -88 -49.5 -128.5t-173.5 -40.5h-6q-123 0 -172.5 40.5t-49.5 128.5z" />
<glyph unicode="&#xdd;" horiz-adv-x="485" d="M191 712q-6 0 -7.5 3t2.5 7l97 102q4 4 11 4h72q3 0 5 -1.5t1.5 -4t-3.5 -4.5l-111 -102q-6 -4 -10 -4h-57zM476 645q11 0 6 -10l-199 -394v-233q0 -8 -9 -8h-63q-8 0 -8 8v231l-200 396q-5 10 6 10h68q6 0 9 -6l87 -175q46 -92 70 -161q23 69 69 161l87 175q3 6 9 6h68z " />
<glyph unicode="&#xde;" horiz-adv-x="525" d="M315 539q94 0 137.5 -40t43.5 -124v-90q0 -84 -43.5 -124.5t-137.5 -40.5h-160v-112q0 -8 -8 -8h-63q-9 0 -9 8v629q0 8 9 8h63q8 0 8 -8v-98h160zM416 285v90q0 52 -24 71.5t-97 19.5h-140v-272h140q73 0 97 19t24 72z" />
<glyph unicode="&#xdf;" horiz-adv-x="561" d="M372 -8q-161 0 -161 132v34q0 8 8 8h60q9 0 9 -8v-34q0 -32 19 -46t65 -14h6q46 0 65 13.5t19 46.5v22q0 27 -15 41t-60 30l-62 22q-58 19 -82.5 46t-24.5 69v13q0 69 76 104l56 24q32 14 45.5 28t13.5 33v19q0 60 -118 60h-6q-79 0 -107.5 -25t-28.5 -79v-523 q0 -8 -9 -8h-61q-9 0 -9 8v523q0 91 51 134t164 43h6q195 0 195 -133v-19q0 -41 -22.5 -69t-75.5 -52l-52 -23q-41 -18 -41 -45v-13q0 -15 13 -25.5t50 -23.5l62 -22q66 -23 92.5 -53.5t26.5 -83.5v-22q0 -132 -161 -132h-6z" />
<glyph unicode="&#xe0;" horiz-adv-x="516" d="M249 573l-111 102q-4 4 -2.5 7t7.5 3h71q6 0 10 -4l97 -102q4 -4 2.5 -7t-6.5 -3h-57q-6 0 -11 4zM260 510q101 0 145.5 -40t44.5 -123v-339q0 -8 -8 -8h-37q-7 0 -10 6l-19 30q-71 -44 -161 -44q-169 0 -169 142v15q0 69 39 101t128 32h158v65q0 50 -23.5 70t-87.5 20 h-6q-63 0 -86.5 -20t-23.5 -68v-2q0 -9 -9 -9h-62q-8 0 -8 9v2q0 82 44 121.5t145 39.5h6zM126 134q0 -39 22 -56t77 -17q79 0 146 35v122h-163q-46 0 -64 -16t-18 -53v-15z" />
<glyph unicode="&#xe1;" horiz-adv-x="516" d="M208 569q-6 0 -7.5 3t2.5 7l97 102q4 4 11 4h72q3 0 5 -1.5t1.5 -4t-3.5 -4.5l-111 -102q-6 -4 -10 -4h-57zM260 510q101 0 145.5 -40t44.5 -123v-339q0 -8 -8 -8h-37q-7 0 -10 6l-19 30q-71 -44 -161 -44q-169 0 -169 142v15q0 69 39 101t128 32h158v65q0 50 -23.5 70 t-87.5 20h-6q-63 0 -86.5 -20t-23.5 -68v-2q0 -9 -9 -9h-62q-8 0 -8 9v2q0 82 44 121.5t145 39.5h6zM126 134q0 -39 22 -56t77 -17q79 0 146 35v122h-163q-46 0 -64 -16t-18 -53v-15z" />
<glyph unicode="&#xe2;" horiz-adv-x="516" d="M132 569q-5 0 -7 3t2 7l97 102q4 4 11 4h50q6 0 10 -4l97 -102q4 -4 2.5 -7t-7.5 -3h-57q-6 0 -11 6l-59 69l-59 -69q-5 -6 -12 -6h-57zM260 510q101 0 145.5 -40t44.5 -123v-339q0 -8 -8 -8h-37q-7 0 -10 6l-19 30q-71 -44 -161 -44q-169 0 -169 142v15q0 69 39 101 t128 32h158v65q0 50 -23.5 70t-87.5 20h-6q-63 0 -86.5 -20t-23.5 -68v-2q0 -9 -9 -9h-62q-8 0 -8 9v2q0 82 44 121.5t145 39.5h6zM126 134q0 -39 22 -56t77 -17q79 0 146 35v122h-163q-46 0 -64 -16t-18 -53v-15z" />
<glyph unicode="&#xe3;" horiz-adv-x="516" d="M129 577q-8 0 -8 9v30q0 34 18 53t48 19q29 0 56 -18l68 -46q15 -9 22 -9q13 0 13 19v34q0 9 8 9h36q9 0 9 -9v-31q0 -34 -17.5 -52.5t-48.5 -18.5q-29 0 -56 18l-68 45q-13 10 -23 10q-12 0 -12 -19v-34q0 -9 -9 -9h-36zM260 510q101 0 145.5 -40t44.5 -123v-339 q0 -8 -8 -8h-37q-7 0 -10 6l-19 30q-71 -44 -161 -44q-169 0 -169 142v15q0 69 39 101t128 32h158v65q0 50 -23.5 70t-87.5 20h-6q-63 0 -86.5 -20t-23.5 -68v-2q0 -9 -9 -9h-62q-8 0 -8 9v2q0 82 44 121.5t145 39.5h6zM126 134q0 -39 22 -56t77 -17q79 0 146 35v122h-163 q-46 0 -64 -16t-18 -53v-15z" />
<glyph unicode="&#xe4;" horiz-adv-x="516" d="M155 580q-9 0 -9 9v88q0 8 9 8h58q9 0 9 -8v-88q0 -9 -9 -9h-58zM305 580q-9 0 -9 9v88q0 8 9 8h58q9 0 9 -8v-88q0 -9 -9 -9h-58zM260 510q101 0 145.5 -40t44.5 -123v-339q0 -8 -8 -8h-37q-7 0 -10 6l-19 30q-71 -44 -161 -44q-169 0 -169 142v15q0 69 39 101t128 32 h158v65q0 50 -23.5 70t-87.5 20h-6q-63 0 -86.5 -20t-23.5 -68v-2q0 -9 -9 -9h-62q-8 0 -8 9v2q0 82 44 121.5t145 39.5h6zM126 134q0 -39 22 -56t77 -17q79 0 146 35v122h-163q-46 0 -64 -16t-18 -53v-15z" />
<glyph unicode="&#xe5;" horiz-adv-x="516" d="M259 560q-53 0 -73 15t-20 51v17q0 36 20 51t73 15h2q52 0 72.5 -15.5t20.5 -50.5v-17q0 -35 -20.5 -50.5t-72.5 -15.5h-2zM211 641v-14q0 -16 8.5 -21t39.5 -5h2q31 0 39.5 5t8.5 21v14q0 16 -8.5 21t-39.5 5h-2q-31 0 -39.5 -5t-8.5 -21zM260 510q101 0 145.5 -40 t44.5 -123v-339q0 -8 -8 -8h-37q-7 0 -10 6l-19 30q-71 -44 -161 -44q-169 0 -169 142v15q0 69 39 101t128 32h158v65q0 50 -23.5 70t-87.5 20h-6q-63 0 -86.5 -20t-23.5 -68v-2q0 -9 -9 -9h-62q-8 0 -8 9v2q0 82 44 121.5t145 39.5h6zM126 134q0 -39 22 -56t77 -17 q79 0 146 35v122h-163q-46 0 -64 -16t-18 -53v-15z" />
<glyph unicode="&#xe6;" horiz-adv-x="806" d="M743 232h-303v-73q0 -53 23.5 -74t89.5 -21h6q66 0 89.5 21t23.5 72v2q0 9 9 9h62q8 0 8 -9v-2q0 -85 -44.5 -125t-147.5 -40h-6q-118 0 -162 56q-83 -56 -182 -56q-163 0 -163 142v15q0 68 39 101t126 33h150v60q0 52 -22.5 73t-83.5 21h-6q-61 0 -83.5 -20.5 t-22.5 -71.5v-3q0 -8 -8 -8h-62q-9 0 -9 8v3q0 84 43 124.5t142 40.5h6q108 0 147 -58q39 58 151 58h6q103 0 147.5 -40.5t44.5 -126.5v-102q0 -9 -8 -9zM553 438q-66 0 -89.5 -21t-23.5 -74v-48h232v48q0 53 -23.5 74t-89.5 21h-6zM220 61q74 0 147 40q-6 26 -6 58v59h-153 q-45 0 -64 -16.5t-19 -52.5v-15q0 -38 22 -55.5t73 -17.5z" />
<glyph unicode="&#xe7;" horiz-adv-x="504" d="M389 326q-8 0 -8 9v8q0 52 -24.5 73t-92.5 21h-6q-69 0 -93.5 -21t-24.5 -73v-184q0 -52 24.5 -73t93.5 -21h6q68 0 92.5 21t24.5 73v8q0 9 8 9h63q8 0 8 -9v-8q0 -86 -45 -126.5t-151 -40.5h-6h-1l-7 -53h32q48 0 68 -15.5t20 -54.5v-11q0 -39 -20 -54.5t-68 -15.5h-87 q-8 0 -8 8v34q0 8 8 8h86q19 0 26 4.5t7 16.5v11q0 12 -7 17t-26 5h-85q-8 0 -7 9l14 94q-76 10 -109.5 49.5t-33.5 114.5v184q0 86 45.5 126.5t152.5 40.5h6q106 0 151 -40.5t45 -126.5v-8q0 -9 -8 -9h-63z" />
<glyph unicode="&#xe8;" horiz-adv-x="522" d="M252 573l-111 102q-4 4 -2.5 7t7.5 3h71q6 0 10 -4l97 -102q4 -4 2.5 -7t-6.5 -3h-57q-6 0 -11 4zM458 233h-318v-74q0 -53 25 -74t96 -21h6q71 0 95.5 20.5t24.5 72.5v2q0 8 9 8h62q8 0 8 -8v-2q0 -85 -45.5 -125t-153.5 -40h-6q-109 0 -155 40.5t-46 126.5v185 q0 86 46 126t155 40h6q108 0 153.5 -40t45.5 -126v-102q0 -9 -8 -9zM261 438q-71 0 -96 -21t-25 -73v-47h247v47q0 52 -24.5 73t-95.5 21h-6z" />
<glyph unicode="&#xe9;" horiz-adv-x="522" d="M211 569q-6 0 -7.5 3t2.5 7l97 102q4 4 11 4h72q3 0 5 -1.5t1.5 -4t-3.5 -4.5l-111 -102q-6 -4 -10 -4h-57zM458 233h-318v-74q0 -53 25 -74t96 -21h6q71 0 95.5 20.5t24.5 72.5v2q0 8 9 8h62q8 0 8 -8v-2q0 -85 -45.5 -125t-153.5 -40h-6q-109 0 -155 40.5t-46 126.5 v185q0 86 46 126t155 40h6q108 0 153.5 -40t45.5 -126v-102q0 -9 -8 -9zM261 438q-71 0 -96 -21t-25 -73v-47h247v47q0 52 -24.5 73t-95.5 21h-6z" />
<glyph unicode="&#xea;" horiz-adv-x="522" d="M135 569q-5 0 -7 3t2 7l97 102q4 4 11 4h50q6 0 10 -4l97 -102q4 -4 2.5 -7t-7.5 -3h-57q-6 0 -11 6l-59 69l-59 -69q-4 -6 -12 -6h-57zM458 233h-318v-74q0 -53 25 -74t96 -21h6q71 0 95.5 20.5t24.5 72.5v2q0 8 9 8h62q8 0 8 -8v-2q0 -85 -45.5 -125t-153.5 -40h-6 q-109 0 -155 40.5t-46 126.5v185q0 86 46 126t155 40h6q108 0 153.5 -40t45.5 -126v-102q0 -9 -8 -9zM261 438q-71 0 -96 -21t-25 -73v-47h247v47q0 52 -24.5 73t-95.5 21h-6z" />
<glyph unicode="&#xeb;" horiz-adv-x="522" d="M158 580q-9 0 -9 9v88q0 8 9 8h58q9 0 9 -8v-88q0 -9 -9 -9h-58zM308 580q-9 0 -9 9v88q0 8 9 8h58q9 0 9 -8v-88q0 -9 -9 -9h-58zM458 233h-318v-74q0 -53 25 -74t96 -21h6q71 0 95.5 20.5t24.5 72.5v2q0 8 9 8h62q8 0 8 -8v-2q0 -85 -45.5 -125t-153.5 -40h-6 q-109 0 -155 40.5t-46 126.5v185q0 86 46 126t155 40h6q108 0 153.5 -40t45.5 -126v-102q0 -9 -8 -9zM261 438q-71 0 -96 -21t-25 -73v-47h247v47q0 52 -24.5 73t-95.5 21h-6z" />
<glyph unicode="&#xec;" horiz-adv-x="221" d="M111 569q-6 0 -11 4l-111 102q-4 4 -2.5 7t7.5 3h71q6 0 10 -4l97 -102q4 -4 2.5 -7t-6.5 -3h-57zM79 0q-9 0 -9 8v486q0 8 9 8h63q8 0 8 -8v-486q0 -8 -8 -8h-63z" />
<glyph unicode="&#xed;" horiz-adv-x="221" d="M59 569q-6 0 -7.5 3t2.5 7l97 102q4 4 11 4h72q3 0 5 -1.5t1.5 -4t-3.5 -4.5l-111 -102q-6 -4 -10 -4h-57zM79 0q-9 0 -9 8v486q0 8 9 8h63q8 0 8 -8v-486q0 -8 -8 -8h-63z" />
<glyph unicode="&#xee;" horiz-adv-x="221" d="M243 579q4 -4 2.5 -7t-7.5 -3h-57q-6 0 -11 6l-59 69l-59 -69q-4 -6 -12 -6h-57q-5 0 -7 3t2 7l97 102q4 4 11 4h50q6 0 10 -4zM142 502q8 0 8 -8v-486q0 -8 -8 -8h-63q-9 0 -9 8v486q0 8 9 8h63z" />
<glyph unicode="&#xef;" horiz-adv-x="221" d="M6 580q-9 0 -9 9v88q0 8 9 8h58q9 0 9 -8v-88q0 -9 -9 -9h-58zM156 580q-9 0 -9 9v88q0 8 9 8h58q9 0 9 -8v-88q0 -9 -9 -9h-58zM79 0q-9 0 -9 8v486q0 8 9 8h63q8 0 8 -8v-486q0 -8 -8 -8h-63z" />
<glyph unicode="&#xf0;" horiz-adv-x="538" d="M495 727q4 3 7 1.5t3 -6.5v-39q0 -6 -5 -11l-80 -59q53 -68 53 -190v-264q0 -86 -46.5 -126.5t-157.5 -40.5h-6q-110 0 -156.5 40.5t-46.5 126.5v125q0 90 40 130.5t124 40.5q86 0 169 -46v14q0 98 -33 145l-87 -65q-4 -4 -7 -2t-3 7v39q0 5 5 10l58 44q-55 37 -182 37 h-4q-9 0 -9 8v54q0 8 9 8h4q163 0 243 -62zM393 344q-77 37 -153 37q-58 0 -79 -22.5t-21 -85.5v-114q0 -52 25 -73t98 -21h6q73 0 98.5 21t25.5 73v185z" />
<glyph unicode="&#xf1;" horiz-adv-x="536" d="M138 577q-8 0 -8 9v30q0 34 18 53t48 19q29 0 56 -18l68 -46q15 -9 22 -9q13 0 13 19v34q0 9 8 9h36q9 0 9 -9v-31q0 -34 -17.5 -52.5t-48.5 -18.5q-29 0 -56 18l-68 45q-13 10 -23 10q-12 0 -12 -19v-34q0 -9 -9 -9h-36zM312 510q85 0 122 -39.5t37 -130.5v-332 q0 -8 -8 -8h-64q-8 0 -8 8v320q0 65 -18.5 87t-77.5 22q-74 0 -145 -31v-398q0 -8 -8 -8h-63q-9 0 -9 8v486q0 8 9 8h37q7 0 10 -5l18 -29q79 42 168 42z" />
<glyph unicode="&#xf2;" d="M266 569q-6 0 -11 4l-111 102q-4 4 -2.5 7t7.5 3h71q6 0 10 -4l97 -102q4 -4 2.5 -7t-6.5 -3h-57zM60 159v184q0 86 46.5 126.5t156.5 40.5h6q110 0 156 -40.5t46 -126.5v-184q0 -86 -46 -126.5t-156 -40.5h-6q-110 0 -156.5 40.5t-46.5 126.5zM140 159q0 -52 25 -73 t98 -21h6q72 0 97 21t25 73v184q0 52 -25 73t-97 21h-6q-73 0 -98 -21t-25 -73v-184z" />
<glyph unicode="&#xf3;" d="M214 569q-6 0 -7.5 3t2.5 7l97 102q4 4 11 4h72q3 0 5 -1.5t1.5 -4t-3.5 -4.5l-111 -102q-6 -4 -10 -4h-57zM60 159v184q0 86 46.5 126.5t156.5 40.5h6q110 0 156 -40.5t46 -126.5v-184q0 -86 -46 -126.5t-156 -40.5h-6q-110 0 -156.5 40.5t-46.5 126.5zM140 159 q0 -52 25 -73t98 -21h6q72 0 97 21t25 73v184q0 52 -25 73t-97 21h-6q-73 0 -98 -21t-25 -73v-184z" />
<glyph unicode="&#xf4;" d="M138 569q-5 0 -7 3t2 7l97 102q4 4 11 4h50q6 0 10 -4l97 -102q4 -4 2.5 -7t-7.5 -3h-57q-6 0 -11 6l-59 69l-59 -69q-5 -6 -12 -6h-57zM269 510q110 0 156 -40.5t46 -126.5v-184q0 -86 -46 -126.5t-156 -40.5h-6q-110 0 -156.5 40.5t-46.5 126.5v184q0 86 46.5 126.5 t156.5 40.5h6zM391 159v184q0 52 -25 73t-97 21h-6q-73 0 -98 -21t-25 -73v-184q0 -52 25 -73t98 -21h6q72 0 97 21t25 73z" />
<glyph unicode="&#xf5;" d="M339 566q-29 0 -56 18l-68 45q-13 10 -23 10q-12 0 -12 -19v-34q0 -9 -9 -9h-36q-8 0 -8 9v30q0 34 18 53t48 19q29 0 56 -18l68 -46q15 -9 22 -9q13 0 13 19v34q0 9 8 9h36q9 0 9 -9v-31q0 -34 -17.5 -52.5t-48.5 -18.5zM60 159v184q0 86 46.5 126.5t156.5 40.5h6 q110 0 156 -40.5t46 -126.5v-184q0 -86 -46 -126.5t-156 -40.5h-6q-110 0 -156.5 40.5t-46.5 126.5zM140 159q0 -52 25 -73t98 -21h6q72 0 97 21t25 73v184q0 52 -25 73t-97 21h-6q-73 0 -98 -21t-25 -73v-184z" />
<glyph unicode="&#xf6;" d="M161 580q-9 0 -9 9v88q0 8 9 8h58q9 0 9 -8v-88q0 -9 -9 -9h-58zM311 580q-9 0 -9 9v88q0 8 9 8h58q9 0 9 -8v-88q0 -9 -9 -9h-58zM60 159v184q0 86 46.5 126.5t156.5 40.5h6q110 0 156 -40.5t46 -126.5v-184q0 -86 -46 -126.5t-156 -40.5h-6q-110 0 -156.5 40.5 t-46.5 126.5zM140 159q0 -52 25 -73t98 -21h6q72 0 97 21t25 73v184q0 52 -25 73t-97 21h-6q-73 0 -98 -21t-25 -73v-184z" />
<glyph unicode="&#xf7;" horiz-adv-x="500" d="M217 370q-8 0 -8 8v82q0 9 8 9h68q8 0 8 -9v-82q0 -8 -8 -8h-68zM55 215q-8 0 -8 8v57q0 8 8 8h390q8 0 8 -8v-57q0 -8 -8 -8h-390zM217 33q-8 0 -8 9v81q0 9 8 9h68q8 0 8 -9v-81q0 -9 -8 -9h-68z" />
<glyph unicode="&#xf8;" d="M409 481q62 -38 62 -138v-184q0 -86 -46 -126.5t-156 -40.5h-6q-53 0 -91 9l-23 -46q-3 -6 -10 -6h-40q-11 0 -6 9l31 62q-64 38 -64 139v184q0 86 46.5 126.5t156.5 40.5h6q56 0 93 -10l22 45q3 6 10 6h39q11 0 6 -9zM140 159q0 -46 19 -68l169 341q-27 5 -59 5h-6 q-73 0 -98 -21t-25 -73v-184zM391 159v184q0 47 -18 66l-167 -340q20 -4 57 -4h6q72 0 97 21t25 73z" />
<glyph unicode="&#xf9;" horiz-adv-x="532" d="M252 573l-111 102q-4 4 -2.5 7t7.5 3h71q6 0 10 -4l97 -102q4 -4 2.5 -7t-6.5 -3h-57q-6 0 -11 4zM454 502q8 0 8 -8v-486q0 -8 -8 -8h-38q-6 0 -10 6l-19 29q-78 -43 -166 -43q-84 0 -120 39.5t-36 130.5v332q0 8 9 8h63q8 0 8 -8v-320q0 -65 18 -87t75 -22q74 0 144 32 v397q0 8 8 8h64z" />
<glyph unicode="&#xfa;" horiz-adv-x="532" d="M211 569q-6 0 -7.5 3t2.5 7l97 102q4 4 11 4h72q3 0 5 -1.5t1.5 -4t-3.5 -4.5l-111 -102q-6 -4 -10 -4h-57zM454 502q8 0 8 -8v-486q0 -8 -8 -8h-38q-6 0 -10 6l-19 29q-78 -43 -166 -43q-84 0 -120 39.5t-36 130.5v332q0 8 9 8h63q8 0 8 -8v-320q0 -65 18 -87t75 -22 q74 0 144 32v397q0 8 8 8h64z" />
<glyph unicode="&#xfb;" horiz-adv-x="532" d="M135 569q-5 0 -7 3t2 7l97 102q4 4 11 4h50q6 0 10 -4l97 -102q4 -4 2.5 -7t-7.5 -3h-57q-6 0 -11 6l-59 69l-59 -69q-4 -6 -12 -6h-57zM454 502q8 0 8 -8v-486q0 -8 -8 -8h-38q-6 0 -10 6l-19 29q-78 -43 -166 -43q-84 0 -120 39.5t-36 130.5v332q0 8 9 8h63q8 0 8 -8 v-320q0 -65 18 -87t75 -22q74 0 144 32v397q0 8 8 8h64z" />
<glyph unicode="&#xfc;" horiz-adv-x="532" d="M158 580q-9 0 -9 9v88q0 8 9 8h58q9 0 9 -8v-88q0 -9 -9 -9h-58zM308 580q-9 0 -9 9v88q0 8 9 8h58q9 0 9 -8v-88q0 -9 -9 -9h-58zM454 502q8 0 8 -8v-486q0 -8 -8 -8h-38q-6 0 -10 6l-19 29q-78 -43 -166 -43q-84 0 -120 39.5t-36 130.5v332q0 8 9 8h63q8 0 8 -8v-320 q0 -65 18 -87t75 -22q74 0 144 32v397q0 8 8 8h64z" />
<glyph unicode="&#xfd;" horiz-adv-x="453" d="M177 569q-6 0 -7.5 3t2.5 7l97 102q4 4 11 4h72q3 0 5 -1.5t1.5 -4t-3.5 -4.5l-111 -102q-6 -4 -10 -4h-57zM441 502q11 0 7 -9l-249 -688q-3 -7 -10 -7h-64q-12 0 -7 10l70 187l-179 498q-4 9 7 9h66q7 0 9 -6l80 -225q40 -119 58 -194q17 71 58 195l79 224q2 6 10 6h65 z" />
<glyph unicode="&#xfe;" horiz-adv-x="533" d="M314 510q85 0 122 -39.5t37 -130.5v-178q0 -91 -37 -130.5t-122 -39.5q-88 0 -164 41v-225q0 -8 -8 -8h-63q-9 0 -9 8v884q0 8 9 8h63q8 0 8 -8v-222q77 40 164 40zM393 328q0 65 -18.5 87t-77.5 22q-75 0 -147 -32v-307q70 -33 147 -33q58 0 77 22t19 87v154z" />
<glyph unicode="&#xff;" horiz-adv-x="453" d="M124 580q-9 0 -9 9v88q0 8 9 8h58q9 0 9 -8v-88q0 -9 -9 -9h-58zM274 580q-9 0 -9 9v88q0 8 9 8h58q9 0 9 -8v-88q0 -9 -9 -9h-58zM441 502q11 0 7 -9l-249 -688q-3 -7 -10 -7h-64q-12 0 -7 10l70 187l-179 498q-4 9 7 9h66q7 0 9 -6l80 -225q40 -119 58 -194 q17 71 58 195l79 224q2 6 10 6h65z" />
<glyph unicode="&#x100;" horiz-adv-x="543" d="M167 724q-9 0 -9 9v45q0 8 9 8h209q9 0 9 -8v-45q0 -9 -9 -9h-209zM528 9q3 -9 -7 -9h-66q-8 0 -10 6l-52 152h-243l-52 -152q-2 -6 -10 -6h-66q-10 0 -7 9l218 630q2 6 9 6h59q8 0 10 -6zM175 231h193l-46 136q-33 96 -50 168q-18 -72 -51 -168z" />
<glyph unicode="&#x101;" horiz-adv-x="516" d="M155 581q-9 0 -9 9v45q0 8 9 8h209q9 0 9 -8v-45q0 -9 -9 -9h-209zM260 510q101 0 145.5 -40t44.5 -123v-339q0 -8 -8 -8h-37q-7 0 -10 6l-19 30q-71 -44 -161 -44q-169 0 -169 142v15q0 69 39 101t128 32h158v65q0 50 -23.5 70t-87.5 20h-6q-63 0 -86.5 -20t-23.5 -68 v-2q0 -9 -9 -9h-62q-8 0 -8 9v2q0 82 44 121.5t145 39.5h6zM126 134q0 -39 22 -56t77 -17q79 0 146 35v122h-163q-46 0 -64 -16t-18 -53v-15z" />
<glyph unicode="&#x102;" horiz-adv-x="543" d="M270 709q-59 0 -85 20.5t-26 66.5v24q0 8 8 8h41q8 0 8 -8v-24q0 -22 11 -30.5t43 -8.5h4q32 0 43 8.5t11 30.5v24q0 8 8 8h41q8 0 8 -8v-24q0 -45 -26 -66t-85 -21h-4zM528 9q3 -9 -7 -9h-66q-8 0 -10 6l-52 152h-243l-52 -152q-2 -6 -10 -6h-66q-10 0 -7 9l218 630 q2 6 9 6h59q8 0 10 -6zM175 231h193l-46 136q-33 96 -50 168q-18 -72 -51 -168z" />
<glyph unicode="&#x103;" horiz-adv-x="516" d="M258 566q-59 0 -85 20.5t-26 66.5v24q0 8 8 8h41q8 0 8 -8v-24q0 -22 11 -30.5t43 -8.5h4q32 0 43 8.5t11 30.5v24q0 8 8 8h41q8 0 8 -8v-24q0 -45 -26 -66t-85 -21h-4zM260 510q101 0 145.5 -40t44.5 -123v-339q0 -8 -8 -8h-37q-7 0 -10 6l-19 30q-71 -44 -161 -44 q-169 0 -169 142v15q0 69 39 101t128 32h158v65q0 50 -23.5 70t-87.5 20h-6q-63 0 -86.5 -20t-23.5 -68v-2q0 -9 -9 -9h-62q-8 0 -8 9v2q0 82 44 121.5t145 39.5h6zM126 134q0 -39 22 -56t77 -17q79 0 146 35v122h-163q-46 0 -64 -16t-18 -53v-15z" />
<glyph unicode="&#x104;" horiz-adv-x="543" d="M522 -154q9 0 9 -9v-41q0 -8 -9 -8h-35q-108 0 -108 85v6q0 26 11.5 45.5t44.5 48.5l31 27h-11q-8 0 -10 6l-52 152h-243l-52 -152q-2 -6 -10 -6h-66q-10 0 -7 9l218 630q2 6 9 6h59q8 0 10 -6l217 -630q3 -8 -5 -17l-44 -46q-22 -22 -29 -34.5t-7 -29.5v-6 q0 -17 9 -23.5t35 -6.5h35zM175 231h193l-46 136q-33 96 -50 168q-18 -72 -51 -168z" />
<glyph unicode="&#x105;" horiz-adv-x="516" d="M260 510q101 0 145.5 -40t44.5 -123v-339q0 -7 -6 -14l-46 -48q-22 -22 -29 -34.5t-7 -29.5v-6q0 -17 9 -23.5t35 -6.5h35q9 0 9 -9v-41q0 -8 -9 -8h-35q-108 0 -108 85v6q0 26 11.5 45.5t44.5 48.5l40 35l-18 28q-71 -44 -161 -44q-169 0 -169 142v15q0 69 39 101 t128 32h158v65q0 50 -23.5 70t-87.5 20h-6q-63 0 -86.5 -20t-23.5 -68v-2q0 -9 -9 -9h-62q-8 0 -8 9v2q0 82 44 121.5t145 39.5h6zM126 134q0 -39 22 -56t77 -17q79 0 146 35v122h-163q-46 0 -64 -16t-18 -53v-15z" />
<glyph unicode="&#x106;" horiz-adv-x="560" d="M238 712q-6 0 -7.5 3t2.5 7l97 102q4 4 11 4h72q3 0 5 -1.5t1.5 -4t-3.5 -4.5l-111 -102q-6 -4 -10 -4h-57zM287 -8q-123 0 -172.5 40.5t-49.5 128.5v323q0 88 49.5 128.5t172.5 40.5h6q123 0 172 -40t49 -129v-39q0 -8 -8 -8h-63q-9 0 -9 8v39q0 54 -28 75t-113 21h-6 q-85 0 -113.5 -21t-28.5 -75v-323q0 -54 28.5 -75t113.5 -21h6q85 0 113 21t28 75v39q0 8 9 8h63q8 0 8 -8v-39q0 -89 -49 -129t-172 -40h-6z" />
<glyph unicode="&#x107;" horiz-adv-x="504" d="M209 569q-6 0 -7.5 3t2.5 7l97 102q4 4 11 4h72q3 0 5 -1.5t1.5 -4t-3.5 -4.5l-111 -102q-6 -4 -10 -4h-57zM60 159v184q0 86 45.5 126.5t152.5 40.5h6q106 0 151 -40.5t45 -126.5v-8q0 -9 -8 -9h-63q-8 0 -8 9v8q0 52 -24.5 73t-92.5 21h-6q-69 0 -93.5 -21t-24.5 -73 v-184q0 -52 24.5 -73t93.5 -21h6q68 0 92.5 21t24.5 73v8q0 9 8 9h63q8 0 8 -9v-8q0 -86 -45 -126.5t-151 -40.5h-6q-107 0 -152.5 40.5t-45.5 126.5z" />
<glyph unicode="&#x108;" horiz-adv-x="560" d="M162 712q-5 0 -7 3t2 7l97 102q4 4 11 4h50q6 0 10 -4l97 -102q4 -4 2.5 -7t-7.5 -3h-57q-6 0 -11 6l-59 69l-59 -69q-5 -6 -12 -6h-57zM443 437q-9 0 -9 8v39q0 54 -28 75t-113 21h-6q-85 0 -113.5 -21t-28.5 -75v-323q0 -54 28.5 -75t113.5 -21h6q85 0 113 21t28 75v39 q0 8 9 8h63q8 0 8 -8v-39q0 -89 -49 -129t-172 -40h-6q-123 0 -172.5 40.5t-49.5 128.5v323q0 88 49.5 128.5t172.5 40.5h6q123 0 172 -40t49 -129v-39q0 -8 -8 -8h-63z" />
<glyph unicode="&#x109;" horiz-adv-x="504" d="M133 569q-5 0 -7 3t2 7l97 102q4 4 11 4h50q6 0 10 -4l97 -102q4 -4 2.5 -7t-7.5 -3h-57q-6 0 -11 6l-59 69l-59 -69q-4 -6 -12 -6h-57zM389 326q-8 0 -8 9v8q0 52 -24.5 73t-92.5 21h-6q-69 0 -93.5 -21t-24.5 -73v-184q0 -52 24.5 -73t93.5 -21h6q68 0 92.5 21t24.5 73 v8q0 9 8 9h63q8 0 8 -9v-8q0 -86 -45 -126.5t-151 -40.5h-6q-107 0 -152.5 40.5t-45.5 126.5v184q0 86 45.5 126.5t152.5 40.5h6q106 0 151 -40.5t45 -126.5v-8q0 -9 -8 -9h-63z" />
<glyph unicode="&#x10a;" horiz-adv-x="560" d="M260 723q-9 0 -9 9v88q0 8 9 8h58q9 0 9 -8v-88q0 -9 -9 -9h-58zM287 -8q-123 0 -172.5 40.5t-49.5 128.5v323q0 88 49.5 128.5t172.5 40.5h6q123 0 172 -40t49 -129v-39q0 -8 -8 -8h-63q-9 0 -9 8v39q0 54 -28 75t-113 21h-6q-85 0 -113.5 -21t-28.5 -75v-323 q0 -54 28.5 -75t113.5 -21h6q85 0 113 21t28 75v39q0 8 9 8h63q8 0 8 -8v-39q0 -89 -49 -129t-172 -40h-6z" />
<glyph unicode="&#x10b;" horiz-adv-x="504" d="M231 580q-9 0 -9 9v88q0 8 9 8h58q9 0 9 -8v-88q0 -9 -9 -9h-58zM60 159v184q0 86 45.5 126.5t152.5 40.5h6q106 0 151 -40.5t45 -126.5v-8q0 -9 -8 -9h-63q-8 0 -8 9v8q0 52 -24.5 73t-92.5 21h-6q-69 0 -93.5 -21t-24.5 -73v-184q0 -52 24.5 -73t93.5 -21h6 q68 0 92.5 21t24.5 73v8q0 9 8 9h63q8 0 8 -9v-8q0 -86 -45 -126.5t-151 -40.5h-6q-107 0 -152.5 40.5t-45.5 126.5z" />
<glyph unicode="&#x10c;" horiz-adv-x="560" d="M254 716l-97 102q-4 4 -2 7t7 3h57q7 0 12 -6l59 -69l59 69q5 6 11 6h57q6 0 7.5 -3t-2.5 -7l-97 -102q-4 -4 -10 -4h-50q-7 0 -11 4zM443 437q-9 0 -9 8v39q0 54 -28 75t-113 21h-6q-85 0 -113.5 -21t-28.5 -75v-323q0 -54 28.5 -75t113.5 -21h6q85 0 113 21t28 75v39 q0 8 9 8h63q8 0 8 -8v-39q0 -89 -49 -129t-172 -40h-6q-123 0 -172.5 40.5t-49.5 128.5v323q0 88 49.5 128.5t172.5 40.5h6q123 0 172 -40t49 -129v-39q0 -8 -8 -8h-63z" />
<glyph unicode="&#x10d;" horiz-adv-x="504" d="M225 573l-97 102q-4 4 -2 7t7 3h57q8 0 12 -6l59 -69l59 69q5 6 11 6h57q6 0 7.5 -3t-2.5 -7l-97 -102q-4 -4 -10 -4h-50q-7 0 -11 4zM389 326q-8 0 -8 9v8q0 52 -24.5 73t-92.5 21h-6q-69 0 -93.5 -21t-24.5 -73v-184q0 -52 24.5 -73t93.5 -21h6q68 0 92.5 21t24.5 73v8 q0 9 8 9h63q8 0 8 -9v-8q0 -86 -45 -126.5t-151 -40.5h-6q-107 0 -152.5 40.5t-45.5 126.5v184q0 86 45.5 126.5t152.5 40.5h6q106 0 151 -40.5t45 -126.5v-8q0 -9 -8 -9h-63z" />
<glyph unicode="&#x10e;" horiz-adv-x="581" d="M240 716l-97 102q-4 4 -2 7t7 3h57q7 0 12 -6l59 -69l59 69q5 6 11 6h57q6 0 7.5 -3t-2.5 -7l-97 -102q-4 -4 -10 -4h-50q-7 0 -11 4zM300 645q118 0 167 -40t49 -125v-315q0 -85 -49 -125t-167 -40h-216q-9 0 -9 8v629q0 8 9 8h216zM436 165v315q0 53 -30 72.5 t-122 19.5h-129v-499h129q92 0 122 19.5t30 72.5z" />
<glyph unicode="&#x10f;" horiz-adv-x="533" d="M591 713q8 0 8 -9v-47q0 -7 -1 -10l-32 -96q-1 -7 -9 -7h-21q-8 0 -8 8v152q0 9 8 9h55zM454 700q9 0 9 -8v-684q0 -8 -9 -8h-37q-7 0 -10 5l-19 30q-78 -43 -169 -43q-85 0 -122 39.5t-37 130.5v178q0 91 37 130.5t122 39.5q87 0 164 -40v222q0 8 8 8h63zM140 174 q0 -65 19 -87t77 -22q76 0 147 33v307q-72 32 -147 32q-59 0 -77.5 -22t-18.5 -87v-154z" />
<glyph unicode="&#x110;" horiz-adv-x="581" d="M300 645q118 0 167 -40t49 -125v-315q0 -85 -49 -125t-167 -40h-216q-9 0 -9 8v291h-47q-8 0 -8 8v38q0 9 8 9h47v283q0 8 9 8h216zM436 165v315q0 53 -30 72.5t-122 19.5h-129v-218h149q8 0 8 -9v-38q0 -8 -8 -8h-149v-226h129q92 0 122 19.5t30 72.5z" />
<glyph unicode="&#x111;" horiz-adv-x="533" d="M508 645q8 0 8 -9v-38q0 -8 -8 -8h-45v-582q0 -8 -8 -8h-38q-6 0 -9 5l-20 30q-78 -43 -168 -43q-85 0 -122.5 39.5t-37.5 130.5v178q0 91 37.5 130.5t122.5 39.5q86 0 163 -40v120h-151q-8 0 -8 8v38q0 9 8 9h151v47q0 8 8 8h64q8 0 8 -8v-47h45zM140 174q0 -65 19 -87 t77 -22q76 0 147 33v307q-72 32 -147 32q-59 0 -77.5 -22t-18.5 -87v-154z" />
<glyph unicode="&#x112;" horiz-adv-x="497" d="M157 724q-9 0 -9 9v45q0 8 9 8h209q9 0 9 -8v-45q0 -9 -9 -9h-209zM449 572h-294v-209h264q8 0 8 -8v-56q0 -9 -8 -9h-264v-217h294q8 0 8 -8v-57q0 -8 -8 -8h-365q-9 0 -9 8v629q0 8 9 8h365q8 0 8 -8v-57q0 -8 -8 -8z" />
<glyph unicode="&#x113;" horiz-adv-x="522" d="M158 581q-9 0 -9 9v45q0 8 9 8h209q9 0 9 -8v-45q0 -9 -9 -9h-209zM458 233h-318v-74q0 -53 25 -74t96 -21h6q71 0 95.5 20.5t24.5 72.5v2q0 8 9 8h62q8 0 8 -8v-2q0 -85 -45.5 -125t-153.5 -40h-6q-109 0 -155 40.5t-46 126.5v185q0 86 46 126t155 40h6q108 0 153.5 -40 t45.5 -126v-102q0 -9 -8 -9zM261 438q-71 0 -96 -21t-25 -73v-47h247v47q0 52 -24.5 73t-95.5 21h-6z" />
<glyph unicode="&#x114;" horiz-adv-x="497" d="M260 709q-59 0 -85 20.5t-26 66.5v24q0 8 8 8h41q8 0 8 -8v-24q0 -22 11 -30.5t43 -8.5h4q32 0 43 8.5t11 30.5v24q0 8 8 8h41q8 0 8 -8v-24q0 -45 -26 -66t-85 -21h-4zM449 572h-294v-209h264q8 0 8 -8v-56q0 -9 -8 -9h-264v-217h294q8 0 8 -8v-57q0 -8 -8 -8h-365 q-9 0 -9 8v629q0 8 9 8h365q8 0 8 -8v-57q0 -8 -8 -8z" />
<glyph unicode="&#x115;" horiz-adv-x="522" d="M261 566q-59 0 -85 20.5t-26 66.5v24q0 8 8 8h41q8 0 8 -8v-24q0 -22 11 -30.5t43 -8.5h4q32 0 43 8.5t11 30.5v24q0 8 8 8h41q8 0 8 -8v-24q0 -45 -26 -66t-85 -21h-4zM458 233h-318v-74q0 -53 25 -74t96 -21h6q71 0 95.5 20.5t24.5 72.5v2q0 8 9 8h62q8 0 8 -8v-2 q0 -85 -45.5 -125t-153.5 -40h-6q-109 0 -155 40.5t-46 126.5v185q0 86 46 126t155 40h6q108 0 153.5 -40t45.5 -126v-102q0 -9 -8 -9zM261 438q-71 0 -96 -21t-25 -73v-47h247v47q0 52 -24.5 73t-95.5 21h-6z" />
<glyph unicode="&#x116;" horiz-adv-x="497" d="M232 723q-9 0 -9 9v88q0 8 9 8h58q9 0 9 -8v-88q0 -9 -9 -9h-58zM449 572h-294v-209h264q8 0 8 -8v-56q0 -9 -8 -9h-264v-217h294q8 0 8 -8v-57q0 -8 -8 -8h-365q-9 0 -9 8v629q0 8 9 8h365q8 0 8 -8v-57q0 -8 -8 -8z" />
<glyph unicode="&#x117;" horiz-adv-x="522" d="M233 580q-9 0 -9 9v88q0 8 9 8h58q9 0 9 -8v-88q0 -9 -9 -9h-58zM458 233h-318v-74q0 -53 25 -74t96 -21h6q71 0 95.5 20.5t24.5 72.5v2q0 8 9 8h62q8 0 8 -8v-2q0 -85 -45.5 -125t-153.5 -40h-6q-109 0 -155 40.5t-46 126.5v185q0 86 46 126t155 40h6q108 0 153.5 -40 t45.5 -126v-102q0 -9 -8 -9zM261 438q-71 0 -96 -21t-25 -73v-47h247v47q0 52 -24.5 73t-95.5 21h-6z" />
<glyph unicode="&#x118;" horiz-adv-x="497" d="M449 572h-294v-209h264q8 0 8 -8v-56q0 -9 -8 -9h-264v-217h294q8 0 8 -8v-57q0 -7 -6 -14l-46 -48q-22 -22 -29 -34.5t-7 -29.5v-6q0 -17 9 -23.5t35 -6.5h35q9 0 9 -9v-41q0 -8 -9 -8h-35q-108 0 -108 85v6q0 26 11.5 45.5t44.5 48.5l31 27h-308q-9 0 -9 8v629q0 8 9 8 h365q8 0 8 -8v-57q0 -8 -8 -8z" />
<glyph unicode="&#x119;" horiz-adv-x="522" d="M458 233h-318v-74q0 -53 25 -74t96 -21h6q71 0 95.5 20.5t24.5 72.5v2q0 8 9 8h62q8 0 8 -8v-2q0 -69 -29 -108t-96 -51q-2 -2 -3 -4l-46 -48q-22 -22 -29 -34.5t-7 -29.5v-6q0 -17 9 -23.5t35 -6.5h35q9 0 9 -9v-41q0 -8 -9 -8h-35q-108 0 -108 85v6q0 26 11.5 45.5 t44.5 48.5l22 19h-3h-6q-109 0 -155 40.5t-46 126.5v185q0 86 46 126t155 40h6q108 0 153.5 -40t45.5 -126v-102q0 -9 -8 -9zM261 438q-71 0 -96 -21t-25 -73v-47h247v47q0 52 -24.5 73t-95.5 21h-6z" />
<glyph unicode="&#x11a;" horiz-adv-x="497" d="M226 716l-97 102q-4 4 -2 7t7 3h57q7 0 12 -6l59 -69l59 69q5 6 11 6h57q6 0 7.5 -3t-2.5 -7l-97 -102q-4 -4 -10 -4h-50q-7 0 -11 4zM449 572h-294v-209h264q8 0 8 -8v-56q0 -9 -8 -9h-264v-217h294q8 0 8 -8v-57q0 -8 -8 -8h-365q-9 0 -9 8v629q0 8 9 8h365q8 0 8 -8 v-57q0 -8 -8 -8z" />
<glyph unicode="&#x11b;" horiz-adv-x="522" d="M227 573l-97 102q-4 4 -2 7t7 3h57q8 0 12 -6l59 -69l59 69q5 6 11 6h57q6 0 7.5 -3t-2.5 -7l-97 -102q-4 -4 -10 -4h-50q-7 0 -11 4zM458 233h-318v-74q0 -53 25 -74t96 -21h6q71 0 95.5 20.5t24.5 72.5v2q0 8 9 8h62q8 0 8 -8v-2q0 -85 -45.5 -125t-153.5 -40h-6 q-109 0 -155 40.5t-46 126.5v185q0 86 46 126t155 40h6q108 0 153.5 -40t45.5 -126v-102q0 -9 -8 -9zM261 438q-71 0 -96 -21t-25 -73v-47h247v47q0 52 -24.5 73t-95.5 21h-6z" />
<glyph unicode="&#x11c;" horiz-adv-x="582" d="M164 712q-5 0 -7 3t2 7l97 102q4 4 11 4h50q6 0 10 -4l97 -102q4 -4 2.5 -7t-7.5 -3h-57q-6 0 -11 6l-59 69l-59 -69q-5 -6 -12 -6h-57zM450 457q-8 0 -8 8v19q0 54 -29 75t-116 21h-6q-88 0 -117 -21t-29 -75v-323q0 -54 29 -75t117 -21h6q87 0 116 21t29 75v100h-129 q-8 0 -8 8v56q0 8 8 8h201q8 0 8 -8v-164q0 -89 -50 -129t-175 -40h-6q-126 0 -176 40t-50 129v323q0 89 50 129t176 40h6q125 0 175 -40t50 -129v-19q0 -8 -8 -8h-64z" />
<glyph unicode="&#x11d;" horiz-adv-x="509" d="M136 569q-5 0 -7 3t2 7l97 102q4 4 11 4h50q6 0 10 -4l97 -102q4 -4 2.5 -7t-7.5 -3h-57q-6 0 -11 6l-59 69l-59 -69q-5 -6 -12 -6h-57zM358 57q68 0 100 -29.5t32 -91.5v-25q0 -67 -48 -96t-176 -29h-6q-126 0 -174 29t-48 96v17q0 68 48 91q-30 25 -30 69v6q0 62 49 83 q-48 34 -48 114v73q0 76 44 111t149 35h230q9 0 9 -8v-29q0 -8 -10 -9l-80 -9q29 -12 40 -33t11 -58v-73q0 -76 -44.5 -111t-149.5 -35h-6q-54 0 -91 9q-30 -12 -30 -53v-5q0 -22 13.5 -30.5t54.5 -8.5h161zM133 364v-73q0 -43 23.5 -59.5t93.5 -16.5h6q70 0 93.5 16.5 t23.5 59.5v73q0 43 -23.5 59.5t-93.5 16.5h-6q-70 0 -93.5 -16.5t-23.5 -59.5zM413 -89v25q0 31 -13.5 42.5t-54.5 11.5h-157q-31 0 -53 6q-20 -20 -20 -62v-23q0 -33 27 -44t118 -11h6q93 0 120 11t27 44z" />
<glyph unicode="&#x11e;" horiz-adv-x="582" d="M290 709q-59 0 -85 20.5t-26 66.5v24q0 8 8 8h41q8 0 8 -8v-24q0 -22 11 -30.5t43 -8.5h4q32 0 43 8.5t11 30.5v24q0 8 8 8h41q8 0 8 -8v-24q0 -45 -26 -66t-85 -21h-4zM450 457q-8 0 -8 8v19q0 54 -29 75t-116 21h-6q-88 0 -117 -21t-29 -75v-323q0 -54 29 -75t117 -21 h6q87 0 116 21t29 75v100h-129q-8 0 -8 8v56q0 8 8 8h201q8 0 8 -8v-164q0 -89 -50 -129t-175 -40h-6q-126 0 -176 40t-50 129v323q0 89 50 129t176 40h6q125 0 175 -40t50 -129v-19q0 -8 -8 -8h-64z" />
<glyph unicode="&#x11f;" horiz-adv-x="509" d="M262 566q-59 0 -85 20.5t-26 66.5v24q0 8 8 8h41q8 0 8 -8v-24q0 -22 11 -30.5t43 -8.5h4q32 0 43 8.5t11 30.5v24q0 8 8 8h41q8 0 8 -8v-24q0 -45 -26 -66t-85 -21h-4zM358 57q68 0 100 -29.5t32 -91.5v-25q0 -67 -48 -96t-176 -29h-6q-126 0 -174 29t-48 96v17 q0 68 48 91q-30 25 -30 69v6q0 62 49 83q-48 34 -48 114v73q0 76 44 111t149 35h230q9 0 9 -8v-29q0 -8 -10 -9l-80 -9q29 -12 40 -33t11 -58v-73q0 -76 -44.5 -111t-149.5 -35h-6q-54 0 -91 9q-30 -12 -30 -53v-5q0 -22 13.5 -30.5t54.5 -8.5h161zM133 364v-73 q0 -43 23.5 -59.5t93.5 -16.5h6q70 0 93.5 16.5t23.5 59.5v73q0 43 -23.5 59.5t-93.5 16.5h-6q-70 0 -93.5 -16.5t-23.5 -59.5zM413 -89v25q0 31 -13.5 42.5t-54.5 11.5h-157q-31 0 -53 6q-20 -20 -20 -62v-23q0 -33 27 -44t118 -11h6q93 0 120 11t27 44z" />
<glyph unicode="&#x120;" horiz-adv-x="582" d="M262 723q-9 0 -9 9v88q0 8 9 8h58q9 0 9 -8v-88q0 -9 -9 -9h-58zM450 457q-8 0 -8 8v19q0 54 -29 75t-116 21h-6q-88 0 -117 -21t-29 -75v-323q0 -54 29 -75t117 -21h6q87 0 116 21t29 75v100h-129q-8 0 -8 8v56q0 8 8 8h201q8 0 8 -8v-164q0 -89 -50 -129t-175 -40h-6 q-126 0 -176 40t-50 129v323q0 89 50 129t176 40h6q125 0 175 -40t50 -129v-19q0 -8 -8 -8h-64z" />
<glyph unicode="&#x121;" horiz-adv-x="509" d="M234 580q-9 0 -9 9v88q0 8 9 8h58q9 0 9 -8v-88q0 -9 -9 -9h-58zM358 57q68 0 100 -29.5t32 -91.5v-25q0 -67 -48 -96t-176 -29h-6q-126 0 -174 29t-48 96v17q0 68 48 91q-30 25 -30 69v6q0 62 49 83q-48 34 -48 114v73q0 76 44 111t149 35h230q9 0 9 -8v-29q0 -8 -10 -9 l-80 -9q29 -12 40 -33t11 -58v-73q0 -76 -44.5 -111t-149.5 -35h-6q-54 0 -91 9q-30 -12 -30 -53v-5q0 -22 13.5 -30.5t54.5 -8.5h161zM133 364v-73q0 -43 23.5 -59.5t93.5 -16.5h6q70 0 93.5 16.5t23.5 59.5v73q0 43 -23.5 59.5t-93.5 16.5h-6q-70 0 -93.5 -16.5 t-23.5 -59.5zM413 -89v25q0 31 -13.5 42.5t-54.5 11.5h-157q-31 0 -53 6q-20 -20 -20 -62v-23q0 -33 27 -44t118 -11h6q93 0 120 11t27 44z" />
<glyph unicode="&#x122;" horiz-adv-x="582" d="M450 457q-8 0 -8 8v19q0 54 -29 75t-116 21h-6q-88 0 -117 -21t-29 -75v-323q0 -54 29 -75t117 -21h6q87 0 116 21t29 75v100h-129q-8 0 -8 8v56q0 8 8 8h201q8 0 8 -8v-164q0 -89 -50 -129t-175 -40h-6q-126 0 -176 40t-50 129v323q0 89 50 129t176 40h6q125 0 175 -40 t50 -129v-19q0 -8 -8 -8h-64zM321 -69q8 0 8 -9v-47q0 -7 -1 -10l-32 -96q-1 -7 -9 -7h-21q-8 0 -8 8v152q0 9 8 9h55z" />
<glyph unicode="&#x123;" horiz-adv-x="509" d="M236 568q-8 0 -8 9v152q0 8 8 8h21q8 0 9 -7l32 -96q1 -3 1 -10v-47q0 -9 -8 -9h-55zM358 57q68 0 100 -29.5t32 -91.5v-25q0 -67 -48 -96t-176 -29h-6q-126 0 -174 29t-48 96v17q0 68 48 91q-30 25 -30 69v6q0 62 49 83q-48 34 -48 114v73q0 76 44 111t149 35h230 q9 0 9 -8v-29q0 -8 -10 -9l-80 -9q29 -12 40 -33t11 -58v-73q0 -76 -44.5 -111t-149.5 -35h-6q-54 0 -91 9q-30 -12 -30 -53v-5q0 -22 13.5 -30.5t54.5 -8.5h161zM133 364v-73q0 -43 23.5 -59.5t93.5 -16.5h6q70 0 93.5 16.5t23.5 59.5v73q0 43 -23.5 59.5t-93.5 16.5h-6 q-70 0 -93.5 -16.5t-23.5 -59.5zM413 -89v25q0 31 -13.5 42.5t-54.5 11.5h-157q-31 0 -53 6q-20 -20 -20 -62v-23q0 -33 27 -44t118 -11h6q93 0 120 11t27 44z" />
<glyph unicode="&#x124;" horiz-adv-x="601" d="M173 712q-5 0 -7 3t2 7l97 102q4 4 11 4h50q6 0 10 -4l97 -102q4 -4 2.5 -7t-7.5 -3h-57q-6 0 -11 6l-59 69l-59 -69q-4 -6 -12 -6h-57zM518 645q8 0 8 -8v-629q0 -8 -8 -8h-64q-8 0 -8 8v280h-291v-280q0 -8 -8 -8h-63q-9 0 -9 8v629q0 8 9 8h63q8 0 8 -8v-276h291v276 q0 8 8 8h64z" />
<glyph unicode="&#x125;" horiz-adv-x="536" d="M171 773l-59 69l-59 -69q-5 -6 -12 -6h-57q-5 0 -7 3t2 7l97 102q4 4 11 4h50q6 0 10 -4l97 -102q4 -4 2.5 -7t-7.5 -3h-57q-6 0 -11 6zM312 510q85 0 122 -39.5t37 -130.5v-332q0 -8 -8 -8h-64q-8 0 -8 8v320q0 65 -18.5 87t-77.5 22q-74 0 -145 -31v-398q0 -8 -8 -8 h-63q-9 0 -9 8v684q0 8 9 8h63q8 0 8 -8v-223q74 41 162 41z" />
<glyph unicode="&#x126;" horiz-adv-x="601" d="M554 515q8 0 8 -9v-41q0 -8 -8 -8h-28v-449q0 -8 -8 -8h-64q-8 0 -8 8v280h-291v-280q0 -8 -8 -8h-63q-9 0 -9 8v449h-27q-8 0 -8 8v41q0 9 8 9h27v122q0 8 9 8h63q8 0 8 -8v-122h291v122q0 8 8 8h64q8 0 8 -8v-122h28zM446 361v96h-291v-96h291z" />
<glyph unicode="&#x127;" horiz-adv-x="536" d="M312 510q85 0 122 -39.5t37 -130.5v-332q0 -8 -8 -8h-64q-8 0 -8 8v320q0 65 -18.5 87t-77.5 22q-74 0 -145 -31v-398q0 -8 -8 -8h-63q-9 0 -9 8v582h-39q-8 0 -8 8v38q0 9 8 9h39v47q0 8 9 8h63q8 0 8 -8v-47h157q8 0 8 -9v-38q0 -8 -8 -8h-157v-121q74 41 162 41z" />
<glyph unicode="&#x128;" horiz-adv-x="231" d="M188 709q-29 0 -56 18l-68 45q-13 10 -23 10q-12 0 -12 -19v-34q0 -9 -9 -9h-36q-8 0 -8 9v30q0 34 18 53t48 19q29 0 56 -18l68 -46q15 -9 22 -9q13 0 13 19v34q0 9 8 9h36q9 0 9 -9v-31q0 -34 -17.5 -52.5t-48.5 -18.5zM84 0q-9 0 -9 8v629q0 8 9 8h63q8 0 8 -8v-629 q0 -8 -8 -8h-63z" />
<glyph unicode="&#x129;" horiz-adv-x="221" d="M184 566q-29 0 -56 18l-68 45q-13 10 -23 10q-12 0 -12 -19v-34q0 -9 -9 -9h-36q-8 0 -8 9v30q0 34 18 53t48 19q29 0 56 -18l68 -46q15 -9 22 -9q13 0 13 19v34q0 9 8 9h36q9 0 9 -9v-31q0 -34 -17.5 -52.5t-48.5 -18.5zM79 0q-9 0 -9 8v486q0 8 9 8h63q8 0 8 -8v-486 q0 -8 -8 -8h-63z" />
<glyph unicode="&#x12a;" horiz-adv-x="231" d="M10 724q-9 0 -9 9v45q0 8 9 8h209q9 0 9 -8v-45q0 -9 -9 -9h-209zM84 0q-9 0 -9 8v629q0 8 9 8h63q8 0 8 -8v-629q0 -8 -8 -8h-63z" />
<glyph unicode="&#x12b;" horiz-adv-x="221" d="M6 581q-9 0 -9 9v45q0 8 9 8h209q9 0 9 -8v-45q0 -9 -9 -9h-209zM79 0q-9 0 -9 8v486q0 8 9 8h63q8 0 8 -8v-486q0 -8 -8 -8h-63z" />
<glyph unicode="&#x12c;" horiz-adv-x="231" d="M220 828q8 0 8 -8v-24q0 -45 -26 -66t-85 -21h-4q-59 0 -85 20.5t-26 66.5v24q0 8 8 8h41q8 0 8 -8v-24q0 -22 11 -30.5t43 -8.5h4q32 0 43 8.5t11 30.5v24q0 8 8 8h41zM84 0q-9 0 -9 8v629q0 8 9 8h63q8 0 8 -8v-629q0 -8 -8 -8h-63z" />
<glyph unicode="&#x12d;" horiz-adv-x="221" d="M216 685q8 0 8 -8v-24q0 -45 -26 -66t-85 -21h-4q-59 0 -85 20.5t-26 66.5v24q0 8 8 8h41q8 0 8 -8v-24q0 -22 11 -30.5t43 -8.5h4q32 0 43 8.5t11 30.5v24q0 8 8 8h41zM79 0q-9 0 -9 8v486q0 8 9 8h63q8 0 8 -8v-486q0 -8 -8 -8h-63z" />
<glyph unicode="&#x12e;" horiz-adv-x="231" d="M147 645q8 0 8 -8v-629q0 -7 -6 -14l-46 -48q-22 -22 -29 -34.5t-7 -29.5v-6q0 -17 9 -23.5t35 -6.5h35q9 0 9 -9v-41q0 -8 -9 -8h-35q-108 0 -108 85v6q0 26 11.5 45.5t44.5 48.5l31 27h-6q-9 0 -9 8v629q0 8 9 8h63z" />
<glyph unicode="&#x12f;" horiz-adv-x="221" d="M142 685q8 0 8 -8v-88q0 -9 -8 -9h-63q-9 0 -9 9v88q0 8 9 8h63zM142 502q8 0 8 -8v-486q0 -7 -6 -14l-46 -48q-22 -22 -29 -34.5t-7 -29.5v-6q0 -17 9 -23.5t35 -6.5h35q9 0 9 -9v-41q0 -8 -9 -8h-35q-108 0 -108 85v6q0 26 11.5 45.5t44.5 48.5l31 27h-6q-9 0 -9 8v486 q0 8 9 8h63z" />
<glyph unicode="&#x130;" horiz-adv-x="231" d="M85 723q-9 0 -9 9v88q0 8 9 8h58q9 0 9 -8v-88q0 -9 -9 -9h-58zM84 0q-9 0 -9 8v629q0 8 9 8h63q8 0 8 -8v-629q0 -8 -8 -8h-63z" />
<glyph unicode="&#x131;" horiz-adv-x="221" d="M79 0q-9 0 -9 8v486q0 8 9 8h63q8 0 8 -8v-486q0 -8 -8 -8h-63z" />
<glyph unicode="&#x132;" horiz-adv-x="718" d="M84 0q-9 0 -9 8v629q0 8 9 8h63q8 0 8 -8v-629q0 -8 -8 -8h-63zM443 -8q-108 0 -153.5 40.5t-45.5 128.5v20q0 9 8 9h63q9 0 9 -9v-20q0 -54 24.5 -75t94.5 -21h6q69 0 94 21.5t25 74.5v476q0 8 8 8h63q9 0 9 -8v-476q0 -87 -46 -128t-153 -41h-6z" />
<glyph unicode="&#x133;" horiz-adv-x="442" d="M79 580q-9 0 -9 9v88q0 8 9 8h63q8 0 8 -8v-88q0 -9 -8 -9h-63zM300 580q-9 0 -9 9v88q0 8 9 8h63q8 0 8 -8v-88q0 -9 -8 -9h-63zM79 0q-9 0 -9 8v486q0 8 9 8h63q8 0 8 -8v-486q0 -8 -8 -8h-63zM186 -208q-8 0 -8 8v54q0 9 8 9h26q46 0 62.5 19t16.5 73v539q0 8 9 8h63 q8 0 8 -8v-547q0 -85 -34.5 -120t-121.5 -35h-29z" />
<glyph unicode="&#x134;" horiz-adv-x="497" d="M519 722q4 -4 2.5 -7t-7.5 -3h-57q-6 0 -11 6l-59 69l-59 -69q-4 -6 -12 -6h-57q-5 0 -7 3t2 7l97 102q4 4 11 4h50q6 0 10 -4zM418 645q9 0 9 -8v-476q0 -87 -46 -128t-153 -41h-6q-108 0 -153.5 40.5t-45.5 128.5v20q0 9 8 9h63q9 0 9 -9v-20q0 -54 24.5 -75t94.5 -21 h6q69 0 94 21.5t25 74.5v476q0 8 8 8h63z" />
<glyph unicode="&#x135;" horiz-adv-x="221" d="M243 579q4 -4 2.5 -7t-7.5 -3h-57q-6 0 -11 6l-59 69l-59 -69q-4 -6 -12 -6h-57q-5 0 -7 3t2 7l97 102q4 4 11 4h50q6 0 10 -4zM142 502q8 0 8 -8v-547q0 -85 -34.5 -120t-121.5 -35h-29q-8 0 -8 8v53q0 8 8 8h26q46 0 62.5 19t16.5 73v541q0 8 9 8h63z" />
<glyph unicode="&#x136;" horiz-adv-x="551" d="M532 11q6 -11 -6 -11h-76q-6 0 -10 7l-169 305l-116 -140v-164q0 -8 -8 -8h-63q-9 0 -9 8v629q0 8 9 8h63q8 0 8 -8v-354l277 357q4 5 11 5h76q13 0 5 -10l-198 -255zM305 -69q8 0 8 -9v-47q0 -7 -1 -10l-32 -96q-1 -7 -9 -7h-21q-8 0 -8 8v152q0 9 8 9h55z" />
<glyph unicode="&#x137;" horiz-adv-x="480" d="M464 10q3 -4 1.5 -7t-6.5 -3h-74q-7 0 -10 5l-136 240l-89 -97v-140q0 -8 -8 -8h-63q-9 0 -9 8v684q0 8 9 8h63q8 0 8 -8v-443l215 249q4 4 10 4h78q12 0 4 -10l-163 -186zM273 -69q8 0 8 -9v-47q0 -7 -1 -10l-32 -96q-1 -7 -9 -7h-21q-8 0 -8 8v152q0 9 8 9h55z" />
<glyph unicode="&#x138;" horiz-adv-x="480" d="M464 10q3 -4 1.5 -7t-6.5 -3h-74q-7 0 -10 5l-136 240l-89 -97v-140q0 -8 -8 -8h-63q-9 0 -9 8v486q0 8 9 8h63q8 0 8 -8v-245l215 249q4 4 10 4h78q12 0 4 -10l-163 -186z" />
<glyph unicode="&#x139;" horiz-adv-x="454" d="M181 712q-6 0 -7.5 3t2.5 7l97 102q4 4 11 4h72q3 0 5 -1.5t1.5 -4t-3.5 -4.5l-111 -102q-6 -4 -10 -4h-57zM421 73q9 0 9 -8v-57q0 -8 -9 -8h-337q-9 0 -9 8v629q0 8 9 8h63q8 0 8 -8v-564h266z" />
<glyph unicode="&#x13a;" horiz-adv-x="221" d="M58 767q-6 0 -7.5 3t2.5 7l97 102q4 4 11 4h72q3 0 5 -1.5t1.5 -4t-3.5 -4.5l-111 -102q-6 -4 -10 -4h-57zM79 0q-9 0 -9 8v684q0 8 9 8h63q8 0 8 -8v-684q0 -8 -8 -8h-63z" />
<glyph unicode="&#x13b;" horiz-adv-x="454" d="M421 73q9 0 9 -8v-57q0 -8 -9 -8h-337q-9 0 -9 8v629q0 8 9 8h63q8 0 8 -8v-564h266zM260 -69q8 0 8 -9v-47q0 -7 -1 -10l-32 -96q-1 -7 -9 -7h-21q-8 0 -8 8v152q0 9 8 9h55z" />
<glyph unicode="&#x13c;" horiz-adv-x="221" d="M79 0q-9 0 -9 8v684q0 8 9 8h63q8 0 8 -8v-684q0 -8 -8 -8h-63zM83 -238q-8 0 -8 8v152q0 9 8 9h55q8 0 8 -9v-47q0 -7 -1 -10l-32 -96q-1 -7 -9 -7h-21z" />
<glyph unicode="&#x13d;" horiz-adv-x="454" d="M295 465q-8 0 -8 8v223q0 9 8 9h62q9 0 9 -9v-85q0 -7 -2 -11l-35 -128q-3 -7 -10 -7h-24zM421 73q9 0 9 -8v-57q0 -8 -9 -8h-337q-9 0 -9 8v629q0 8 9 8h63q8 0 8 -8v-564h266z" />
<glyph unicode="&#x13e;" horiz-adv-x="221" d="M224 544q-8 0 -8 8v152q0 9 8 9h55q8 0 8 -9v-47q0 -7 -1 -10l-32 -96q-1 -7 -9 -7h-21zM79 0q-9 0 -9 8v684q0 8 9 8h63q8 0 8 -8v-684q0 -8 -8 -8h-63z" />
<glyph unicode="&#x13f;" horiz-adv-x="454" d="M421 73q9 0 9 -8v-57q0 -8 -9 -8h-337q-9 0 -9 8v629q0 8 9 8h63q8 0 8 -8v-564h266zM263 278q-8 0 -8 8v82q0 9 8 9h67q9 0 9 -9v-82q0 -8 -9 -8h-67z" />
<glyph unicode="&#x140;" horiz-adv-x="347" d="M79 0q-9 0 -9 8v684q0 8 9 8h63q8 0 8 -8v-684q0 -8 -8 -8h-63zM235 277q-8 0 -8 8v82q0 9 8 9h67q9 0 9 -9v-82q0 -8 -9 -8h-67z" />
<glyph unicode="&#x141;" horiz-adv-x="454" d="M421 73q9 0 9 -8v-57q0 -8 -9 -8h-337q-9 0 -9 8v207l-54 -29q-11 -6 -11 6v52q0 7 7 10l58 31v352q0 8 9 8h63q8 0 8 -8v-310l169 90q4 3 7 1t3 -7v-52q0 -5 -6 -10l-173 -92v-184h266z" />
<glyph unicode="&#x142;" horiz-adv-x="279" d="M257 431q5 3 7.5 1t2.5 -7v-53q0 -6 -5 -10l-83 -54v-300q0 -8 -8 -8h-63q-9 0 -9 8v247l-77 -50q-4 -3 -7 -1t-3 7v54q0 5 5 9l82 54v364q0 8 9 8h63q8 0 8 -8v-312z" />
<glyph unicode="&#x143;" horiz-adv-x="630" d="M263 712q-6 0 -7.5 3t2.5 7l97 102q4 4 11 4h72q3 0 5 -1.5t1.5 -4t-3.5 -4.5l-111 -102q-6 -4 -10 -4h-57zM546 645q8 0 8 -8v-629q0 -8 -8 -8h-69q-7 0 -9 5l-211 336q-70 111 -106 187q4 -74 4 -187v-333q0 -8 -8 -8h-63q-9 0 -9 8v629q0 8 9 8h68q8 0 10 -5l211 -336 q68 -108 106 -188q-5 74 -5 188v333q0 8 9 8h63z" />
<glyph unicode="&#x144;" horiz-adv-x="536" d="M217 569q-6 0 -7.5 3t2.5 7l97 102q4 4 11 4h72q3 0 5 -1.5t1.5 -4t-3.5 -4.5l-111 -102q-6 -4 -10 -4h-57zM312 510q85 0 122 -39.5t37 -130.5v-332q0 -8 -8 -8h-64q-8 0 -8 8v320q0 65 -18.5 87t-77.5 22q-74 0 -145 -31v-398q0 -8 -8 -8h-63q-9 0 -9 8v486q0 8 9 8h37 q7 0 10 -5l18 -29q79 42 168 42z" />
<glyph unicode="&#x145;" horiz-adv-x="630" d="M546 645q8 0 8 -8v-629q0 -8 -8 -8h-69q-7 0 -9 5l-211 336q-70 111 -106 187q4 -74 4 -187v-333q0 -8 -8 -8h-63q-9 0 -9 8v629q0 8 9 8h68q8 0 10 -5l211 -336q68 -108 106 -188q-5 74 -5 188v333q0 8 9 8h63zM342 -69q8 0 8 -9v-47q0 -7 -1 -10l-32 -96q-1 -7 -9 -7 h-21q-8 0 -8 8v152q0 9 8 9h55z" />
<glyph unicode="&#x146;" horiz-adv-x="536" d="M312 510q85 0 122 -39.5t37 -130.5v-332q0 -8 -8 -8h-64q-8 0 -8 8v320q0 65 -18.5 87t-77.5 22q-74 0 -145 -31v-398q0 -8 -8 -8h-63q-9 0 -9 8v486q0 8 9 8h37q7 0 10 -5l18 -29q79 42 168 42zM296 -69q8 0 8 -9v-47q0 -7 -1 -10l-32 -96q-1 -7 -9 -7h-21q-8 0 -8 8 v152q0 9 8 9h55z" />
<glyph unicode="&#x147;" horiz-adv-x="630" d="M279 716l-97 102q-4 4 -2 7t7 3h57q8 0 12 -6l59 -69l59 69q5 6 11 6h57q6 0 7.5 -3t-2.5 -7l-97 -102q-4 -4 -10 -4h-50q-7 0 -11 4zM546 645q8 0 8 -8v-629q0 -8 -8 -8h-69q-7 0 -9 5l-211 336q-70 111 -106 187q4 -74 4 -187v-333q0 -8 -8 -8h-63q-9 0 -9 8v629 q0 8 9 8h68q8 0 10 -5l211 -336q68 -108 106 -188q-5 74 -5 188v333q0 8 9 8h63z" />
<glyph unicode="&#x148;" horiz-adv-x="536" d="M233 573l-97 102q-4 4 -2 7t7 3h57q8 0 12 -6l59 -69l59 69q5 6 11 6h57q6 0 7.5 -3t-2.5 -7l-97 -102q-4 -4 -10 -4h-50q-7 0 -11 4zM312 510q85 0 122 -39.5t37 -130.5v-332q0 -8 -8 -8h-64q-8 0 -8 8v320q0 65 -18.5 87t-77.5 22q-74 0 -145 -31v-398q0 -8 -8 -8h-63 q-9 0 -9 8v486q0 8 9 8h37q7 0 10 -5l18 -29q79 42 168 42z" />
<glyph unicode="&#x14a;" horiz-adv-x="628" d="M544 645q8 0 8 -8v-696q0 -149 -170 -149h-47q-8 0 -8 8v57q0 8 8 8h47q48 0 68.5 18.5t20.5 56.5v60l-214 341q-70 111 -106 187q4 -74 4 -187v-333q0 -8 -8 -8h-63q-9 0 -9 8v629q0 8 9 8h68q8 0 10 -5l211 -336q72 -115 104 -183q-5 72 -5 183v333q0 8 9 8h63z" />
<glyph unicode="&#x14b;" horiz-adv-x="536" d="M312 510q85 0 122 -39.5t37 -130.5v-393q0 -85 -35 -120t-121 -35h-29q-9 0 -9 8v53q0 8 9 8h25q47 0 63.5 19t16.5 73v375q0 65 -18.5 87t-77.5 22q-74 0 -145 -31v-398q0 -8 -8 -8h-63q-9 0 -9 8v486q0 8 9 8h37q7 0 10 -5l18 -29q79 42 168 42z" />
<glyph unicode="&#x14c;" horiz-adv-x="594" d="M192 724q-9 0 -9 9v45q0 8 9 8h209q9 0 9 -8v-45q0 -9 -9 -9h-209zM65 161v323q0 89 50.5 129t178.5 40h6q128 0 178 -40t50 -129v-323q0 -89 -50 -129t-178 -40h-6q-128 0 -178.5 40t-50.5 129zM145 161q0 -54 29.5 -75t119.5 -21h6q90 0 119 21t29 75v323q0 54 -29 75 t-119 21h-6q-90 0 -119.5 -21t-29.5 -75v-323z" />
<glyph unicode="&#x14d;" d="M161 581q-9 0 -9 9v45q0 8 9 8h209q9 0 9 -8v-45q0 -9 -9 -9h-209zM60 159v184q0 86 46.5 126.5t156.5 40.5h6q110 0 156 -40.5t46 -126.5v-184q0 -86 -46 -126.5t-156 -40.5h-6q-110 0 -156.5 40.5t-46.5 126.5zM140 159q0 -52 25 -73t98 -21h6q72 0 97 21t25 73v184 q0 52 -25 73t-97 21h-6q-73 0 -98 -21t-25 -73v-184z" />
<glyph unicode="&#x14e;" horiz-adv-x="594" d="M402 828q8 0 8 -8v-24q0 -45 -26 -66t-85 -21h-4q-59 0 -85 20.5t-26 66.5v24q0 8 8 8h41q8 0 8 -8v-24q0 -22 11 -30.5t43 -8.5h4q32 0 43 8.5t11 30.5v24q0 8 8 8h41zM65 161v323q0 89 50.5 129t178.5 40h6q128 0 178 -40t50 -129v-323q0 -89 -50 -129t-178 -40h-6 q-128 0 -178.5 40t-50.5 129zM145 161q0 -54 29.5 -75t119.5 -21h6q90 0 119 21t29 75v323q0 54 -29 75t-119 21h-6q-90 0 -119.5 -21t-29.5 -75v-323z" />
<glyph unicode="&#x14f;" d="M371 685q8 0 8 -8v-24q0 -45 -26 -66t-85 -21h-4q-59 0 -85 20.5t-26 66.5v24q0 8 8 8h41q8 0 8 -8v-24q0 -22 11 -30.5t43 -8.5h4q32 0 43 8.5t11 30.5v24q0 8 8 8h41zM60 159v184q0 86 46.5 126.5t156.5 40.5h6q110 0 156 -40.5t46 -126.5v-184q0 -86 -46 -126.5 t-156 -40.5h-6q-110 0 -156.5 40.5t-46.5 126.5zM140 159q0 -52 25 -73t98 -21h6q72 0 97 21t25 73v184q0 52 -25 73t-97 21h-6q-73 0 -98 -21t-25 -73v-184z" />
<glyph unicode="&#x150;" horiz-adv-x="594" d="M198 712q-5 0 -7 3t0 7l53 100q3 6 9 6h58q5 0 7 -3t0 -7l-65 -101q-4 -5 -10 -5h-45zM332 712q-4 0 -6 3t0 7l52 100q3 6 10 6h58q4 0 6 -3t0 -7l-65 -101q-4 -5 -9 -5h-46zM65 161v323q0 89 50.5 129t178.5 40h6q128 0 178 -40t50 -129v-323q0 -89 -50 -129t-178 -40 h-6q-128 0 -178.5 40t-50.5 129zM145 161q0 -54 29.5 -75t119.5 -21h6q90 0 119 21t29 75v323q0 54 -29 75t-119 21h-6q-90 0 -119.5 -21t-29.5 -75v-323z" />
<glyph unicode="&#x151;" d="M167 569q-5 0 -7 3t0 7l53 100q3 6 9 6h58q5 0 7 -3t0 -7l-65 -101q-4 -5 -10 -5h-45zM301 569q-5 0 -6.5 3t0.5 7l52 100q3 6 10 6h58q5 0 6.5 -3t-0.5 -7l-65 -101q-4 -5 -9 -5h-46zM60 159v184q0 86 46.5 126.5t156.5 40.5h6q110 0 156 -40.5t46 -126.5v-184 q0 -86 -46 -126.5t-156 -40.5h-6q-110 0 -156.5 40.5t-46.5 126.5zM140 159q0 -52 25 -73t98 -21h6q72 0 97 21t25 73v184q0 52 -25 73t-97 21h-6q-73 0 -98 -21t-25 -73v-184z" />
<glyph unicode="&#x152;" horiz-adv-x="861" d="M813 572h-294v-209h264q8 0 8 -8v-56q0 -9 -8 -9h-264v-217h294q8 0 8 -8v-57q0 -8 -8 -8h-365h-1q-88 -8 -149 -8h-4q-128 0 -178.5 40t-50.5 129v323q0 89 50.5 129t178.5 40h4q61 0 149 -8h1h365q8 0 8 -8v-57q0 -8 -8 -8zM294 65h4q42 0 141 8v499q-99 8 -141 8h-4 q-90 0 -119.5 -21t-29.5 -75v-323q0 -54 29.5 -75t119.5 -21z" />
<glyph unicode="&#x153;" horiz-adv-x="828" d="M764 233h-303v-74q0 -53 23.5 -74t89.5 -21h6q66 0 90 21t24 74v1q0 8 8 8h62q9 0 9 -8v-1q0 -86 -44.5 -126.5t-148.5 -40.5h-6q-114 0 -154 58q-39 -58 -156 -58h-6q-107 0 -152.5 40.5t-45.5 126.5v184q0 86 45.5 126.5t152.5 40.5h6q117 0 157 -57q39 57 153 57h6 q104 0 148.5 -40.5t44.5 -126.5v-101q0 -9 -9 -9zM574 438q-66 0 -89.5 -21t-23.5 -74v-46h233v46q0 53 -24 74t-90 21h-6zM381 159v184q0 52 -24.5 73t-92.5 21h-6q-69 0 -93.5 -21t-24.5 -73v-184q0 -52 24.5 -73t93.5 -21h6q68 0 92.5 21t24.5 73z" />
<glyph unicode="&#x154;" horiz-adv-x="551" d="M221 712q-6 0 -7.5 3t2.5 7l97 102q4 4 11 4h72q3 0 5 -1.5t1.5 -4t-3.5 -4.5l-111 -102q-6 -4 -10 -4h-57zM501 11q6 -11 -6 -11h-71q-7 0 -11 6l-121 233h-137v-231q0 -8 -8 -8h-63q-9 0 -9 8v629q0 8 9 8h229q96 0 139.5 -39.5t43.5 -124.5v-78q0 -135 -119 -159z M155 572v-259h140q74 0 97.5 18.5t23.5 71.5v78q0 54 -23.5 72.5t-97.5 18.5h-140z" />
<glyph unicode="&#x155;" horiz-adv-x="322" d="M308 685q3 0 5 -1.5t1.5 -4t-3.5 -4.5l-111 -102q-6 -4 -10 -4h-57q-6 0 -7.5 3t2.5 7l97 102q4 4 11 4h72zM301 510q8 0 8 -8v-57q0 -8 -8 -8h-16q-84 0 -135 -40v-389q0 -8 -8 -8h-63q-9 0 -9 8v486q0 8 9 8h36q8 0 11 -6l20 -37q57 51 139 51h16z" />
<glyph unicode="&#x156;" horiz-adv-x="551" d="M501 11q6 -11 -6 -11h-71q-7 0 -11 6l-121 233h-137v-231q0 -8 -8 -8h-63q-9 0 -9 8v629q0 8 9 8h229q96 0 139.5 -39.5t43.5 -124.5v-78q0 -135 -119 -159zM155 572v-259h140q74 0 97.5 18.5t23.5 71.5v78q0 54 -23.5 72.5t-97.5 18.5h-140zM305 -69q8 0 8 -9v-47 q0 -7 -1 -10l-32 -96q-1 -7 -9 -7h-21q-8 0 -8 8v152q0 9 8 9h55z" />
<glyph unicode="&#x157;" horiz-adv-x="322" d="M301 510q8 0 8 -8v-57q0 -8 -8 -8h-16q-84 0 -135 -40v-389q0 -8 -8 -8h-63q-9 0 -9 8v486q0 8 9 8h36q8 0 11 -6l20 -37q57 51 139 51h16zM136 -69q8 0 8 -9v-47q0 -7 -1 -10l-32 -96q-1 -7 -9 -7h-21q-8 0 -8 8v152q0 9 8 9h55z" />
<glyph unicode="&#x158;" horiz-adv-x="551" d="M237 716l-97 102q-4 4 -2 7t7 3h57q8 0 12 -6l59 -69l59 69q5 6 11 6h57q6 0 7.5 -3t-2.5 -7l-97 -102q-4 -4 -10 -4h-50q-7 0 -11 4zM501 11q6 -11 -6 -11h-71q-7 0 -11 6l-121 233h-137v-231q0 -8 -8 -8h-63q-9 0 -9 8v629q0 8 9 8h229q96 0 139.5 -39.5t43.5 -124.5 v-78q0 -135 -119 -159zM155 572v-259h140q74 0 97.5 18.5t23.5 71.5v78q0 54 -23.5 72.5t-97.5 18.5h-140z" />
<glyph unicode="&#x159;" horiz-adv-x="322" d="M312 685q6 0 7.5 -3t-2.5 -7l-97 -102q-4 -4 -10 -4h-50q-7 0 -11 4l-97 102q-4 4 -2 7t7 3h57q8 0 12 -6l59 -69l59 69q5 6 11 6h57zM301 510q8 0 8 -8v-57q0 -8 -8 -8h-16q-84 0 -135 -40v-389q0 -8 -8 -8h-63q-9 0 -9 8v486q0 8 9 8h36q8 0 11 -6l20 -37q57 51 139 51 h16z" />
<glyph unicode="&#x15a;" horiz-adv-x="518" d="M207 712q-6 0 -7.5 3t2.5 7l97 102q4 4 11 4h72q3 0 5 -1.5t1.5 -4t-3.5 -4.5l-111 -102q-6 -4 -10 -4h-57zM39 159v31q0 8 8 8h63q9 0 9 -8v-31q0 -53 27.5 -73.5t109.5 -20.5h6q82 0 109.5 20.5t27.5 73.5v27q0 44 -17 61.5t-73 30.5l-127 28q-76 17 -107 53t-31 107 v20q0 87 48 127t164 40h6q116 0 163.5 -40t47.5 -127v-31q0 -8 -8 -8h-63q-9 0 -9 8v31q0 52 -26.5 73t-104.5 21h-6q-78 0 -105 -21t-27 -73v-20q0 -41 16.5 -59t69.5 -30l128 -28q79 -17 110 -53t31 -110v-27q0 -87 -48.5 -127t-168.5 -40h-6q-120 0 -168.5 40t-48.5 127z " />
<glyph unicode="&#x15b;" horiz-adv-x="474" d="M186 569q-6 0 -7.5 3t2.5 7l97 102q4 4 11 4h72q3 0 5 -1.5t1.5 -4t-3.5 -4.5l-111 -102q-6 -4 -10 -4h-57zM41 126v33q0 8 9 8h62q8 0 8 -8v-33q0 -32 26 -47t89 -15h6q63 0 88 15t25 47v15q0 25 -12 37.5t-52 23.5l-129 36q-62 18 -87.5 47t-25.5 78v14q0 133 186 133 h6q186 0 186 -133v-33q0 -9 -8 -9h-62q-9 0 -9 9v33q0 31 -23.5 46t-83.5 15h-6q-60 0 -83 -14.5t-23 -46.5v-14q0 -24 12.5 -35.5t53.5 -23.5l129 -35q60 -16 85 -46t25 -82v-15q0 -134 -192 -134h-6q-194 0 -194 134z" />
<glyph unicode="&#x15c;" horiz-adv-x="518" d="M131 712q-5 0 -7 3t2 7l97 102q4 4 11 4h50q6 0 10 -4l97 -102q4 -4 2.5 -7t-7.5 -3h-57q-6 0 -11 6l-59 69l-59 -69q-4 -6 -12 -6h-57zM338 349q79 -17 110 -53t31 -110v-27q0 -87 -48.5 -127t-168.5 -40h-6q-120 0 -168.5 40t-48.5 127v31q0 8 8 8h63q9 0 9 -8v-31 q0 -53 27.5 -73.5t109.5 -20.5h6q82 0 109.5 20.5t27.5 73.5v27q0 44 -17 61.5t-73 30.5l-127 28q-76 17 -107 53t-31 107v20q0 87 48 127t164 40h6q116 0 163.5 -40t47.5 -127v-31q0 -8 -8 -8h-63q-9 0 -9 8v31q0 52 -26.5 73t-104.5 21h-6q-78 0 -105 -21t-27 -73v-20 q0 -41 16.5 -59t69.5 -30z" />
<glyph unicode="&#x15d;" horiz-adv-x="474" d="M110 569q-5 0 -7 3t2 7l97 102q4 4 11 4h50q6 0 10 -4l97 -102q4 -4 2.5 -7t-7.5 -3h-57q-6 0 -11 6l-59 69l-59 -69q-5 -6 -12 -6h-57zM323 269q60 -16 85 -46t25 -82v-15q0 -134 -192 -134h-6q-194 0 -194 134v33q0 8 9 8h62q8 0 8 -8v-33q0 -32 26 -47t89 -15h6 q63 0 88 15t25 47v15q0 25 -12 37.5t-52 23.5l-129 36q-62 18 -87.5 47t-25.5 78v14q0 133 186 133h6q186 0 186 -133v-33q0 -9 -8 -9h-62q-9 0 -9 9v33q0 31 -23.5 46t-83.5 15h-6q-60 0 -83 -14.5t-23 -46.5v-14q0 -24 12.5 -35.5t53.5 -23.5z" />
<glyph unicode="&#x15e;" horiz-adv-x="518" d="M338 349q79 -17 110 -53t31 -110v-27q0 -87 -48.5 -127t-168.5 -40h-6h-1l-7 -53h32q48 0 68 -15.5t20 -54.5v-11q0 -39 -20 -54.5t-68 -15.5h-87q-8 0 -8 8v34q0 8 8 8h86q19 0 26 4.5t7 16.5v11q0 12 -7 17t-26 5h-85q-8 0 -7 9l14 93q-89 9 -125.5 48.5t-36.5 116.5 v31q0 8 8 8h63q9 0 9 -8v-31q0 -53 27.5 -73.5t109.5 -20.5h6q82 0 109.5 20.5t27.5 73.5v27q0 44 -17 61.5t-73 30.5l-127 28q-76 17 -107 53t-31 107v20q0 87 48 127t164 40h6q116 0 163.5 -40t47.5 -127v-31q0 -8 -8 -8h-63q-9 0 -9 8v31q0 52 -26.5 73t-104.5 21h-6 q-78 0 -105 -21t-27 -73v-20q0 -41 16.5 -59t69.5 -30z" />
<glyph unicode="&#x15f;" horiz-adv-x="474" d="M323 269q60 -16 85 -46t25 -82v-15q0 -134 -192 -134h-6h-2l-7 -53h32q48 0 68 -15.5t20 -54.5v-11q0 -39 -20 -54.5t-68 -15.5h-87q-8 0 -8 8v34q0 8 8 8h86q19 0 26 4.5t7 16.5v11q0 12 -7 17t-26 5h-85q-8 0 -7 9l14 94q-138 18 -138 131v33q0 8 9 8h62q8 0 8 -8v-33 q0 -32 26 -47t89 -15h6q63 0 88 15t25 47v15q0 25 -12 37.5t-52 23.5l-129 36q-62 18 -87.5 47t-25.5 78v14q0 133 186 133h6q186 0 186 -133v-33q0 -9 -8 -9h-62q-9 0 -9 9v33q0 31 -23.5 46t-83.5 15h-6q-60 0 -83 -14.5t-23 -46.5v-14q0 -24 12.5 -35.5t53.5 -23.5z" />
<glyph unicode="&#x160;" horiz-adv-x="518" d="M223 716l-97 102q-4 4 -2 7t7 3h57q8 0 12 -6l59 -69l59 69q5 6 11 6h57q6 0 7.5 -3t-2.5 -7l-97 -102q-4 -4 -10 -4h-50q-7 0 -11 4zM338 349q79 -17 110 -53t31 -110v-27q0 -87 -48.5 -127t-168.5 -40h-6q-120 0 -168.5 40t-48.5 127v31q0 8 8 8h63q9 0 9 -8v-31 q0 -53 27.5 -73.5t109.5 -20.5h6q82 0 109.5 20.5t27.5 73.5v27q0 44 -17 61.5t-73 30.5l-127 28q-76 17 -107 53t-31 107v20q0 87 48 127t164 40h6q116 0 163.5 -40t47.5 -127v-31q0 -8 -8 -8h-63q-9 0 -9 8v31q0 52 -26.5 73t-104.5 21h-6q-78 0 -105 -21t-27 -73v-20 q0 -41 16.5 -59t69.5 -30z" />
<glyph unicode="&#x161;" horiz-adv-x="474" d="M202 573l-97 102q-4 4 -2 7t7 3h57q7 0 12 -6l59 -69l59 69q5 6 11 6h57q6 0 7.5 -3t-2.5 -7l-97 -102q-4 -4 -10 -4h-50q-7 0 -11 4zM323 269q60 -16 85 -46t25 -82v-15q0 -134 -192 -134h-6q-194 0 -194 134v33q0 8 9 8h62q8 0 8 -8v-33q0 -32 26 -47t89 -15h6 q63 0 88 15t25 47v15q0 25 -12 37.5t-52 23.5l-129 36q-62 18 -87.5 47t-25.5 78v14q0 133 186 133h6q186 0 186 -133v-33q0 -9 -8 -9h-62q-9 0 -9 9v33q0 31 -23.5 46t-83.5 15h-6q-60 0 -83 -14.5t-23 -46.5v-14q0 -24 12.5 -35.5t53.5 -23.5z" />
<glyph unicode="&#x162;" horiz-adv-x="463" d="M440 645q9 0 9 -8v-57q0 -8 -9 -8h-168v-564q0 -8 -9 -8h-63q-8 0 -8 8v564h-169q-9 0 -9 8v57q0 8 9 8h417zM259 -69q8 0 8 -9v-47q0 -7 -1 -10l-32 -96q-1 -7 -9 -7h-21q-8 0 -8 8v152q0 9 8 9h55z" />
<glyph unicode="&#x163;" horiz-adv-x="334" d="M303 66q8 0 8 -8v-54q0 -8 -8 -8h-51q-85 0 -121 34.5t-36 120.5v283h-79q-9 0 -9 9v29q0 8 8 9l80 12v144q0 8 9 8h63q8 0 8 -8v-135h126q8 0 8 -8v-51q0 -9 -8 -9h-126v-279q0 -51 17.5 -70t65.5 -19h45zM227 -69q8 0 8 -9v-47q0 -7 -1 -10l-32 -96q-1 -7 -9 -7h-21 q-8 0 -8 8v152q0 9 8 9h55z" />
<glyph unicode="&#x164;" horiz-adv-x="463" d="M196 716l-97 102q-4 4 -2 7t7 3h57q7 0 12 -6l59 -69l59 69q5 6 11 6h57q6 0 7.5 -3t-2.5 -7l-97 -102q-4 -4 -10 -4h-50q-7 0 -11 4zM440 645q9 0 9 -8v-57q0 -8 -9 -8h-168v-564q0 -8 -9 -8h-63q-8 0 -8 8v564h-169q-9 0 -9 8v57q0 8 9 8h417z" />
<glyph unicode="&#x165;" horiz-adv-x="333" d="M304 757q8 0 8 -9v-47q0 -7 -1 -10l-32 -96q-1 -7 -9 -7h-21q-8 0 -8 8v152q0 9 8 9h55zM303 66q8 0 8 -8v-54q0 -8 -8 -8h-51q-85 0 -121 34.5t-36 120.5v283h-79q-9 0 -9 9v29q0 8 8 9l80 12v144q0 8 9 8h63q8 0 8 -8v-135h126q8 0 8 -8v-51q0 -9 -8 -9h-126v-279 q0 -51 17.5 -70t65.5 -19h45z" />
<glyph unicode="&#x166;" horiz-adv-x="463" d="M440 645q9 0 9 -8v-57q0 -8 -9 -8h-168v-215h97q8 0 8 -9v-38q0 -8 -8 -8h-97v-294q0 -8 -9 -8h-63q-8 0 -8 8v294h-99q-8 0 -8 8v38q0 9 8 9h99v215h-169q-9 0 -9 8v57q0 8 9 8h417z" />
<glyph unicode="&#x167;" horiz-adv-x="334" d="M303 66q8 0 8 -8v-54q0 -8 -8 -8h-51q-85 0 -121 34.5t-36 120.5v109h-74q-8 0 -8 8v38q0 9 8 9h74v119h-79q-9 0 -9 9v29q0 8 8 9l80 12v144q0 8 9 8h63q8 0 8 -8v-135h126q8 0 8 -8v-51q0 -9 -8 -9h-126v-119h122q8 0 8 -9v-38q0 -8 -8 -8h-122v-105q0 -51 17.5 -70 t65.5 -19h45z" />
<glyph unicode="&#x168;" horiz-adv-x="591" d="M368 709q-29 0 -56 18l-68 45q-13 10 -23 10q-12 0 -12 -19v-34q0 -9 -9 -9h-36q-8 0 -8 9v30q0 34 18 53t48 19q29 0 56 -18l68 -46q15 -9 22 -9q13 0 13 19v34q0 9 8 9h36q9 0 9 -9v-31q0 -34 -17.5 -52.5t-48.5 -18.5zM70 161v476q0 8 9 8h63q8 0 8 -8v-476 q0 -54 28.5 -75t113.5 -21h6q86 0 114.5 21t28.5 75v476q0 8 8 8h63q9 0 9 -8v-476q0 -88 -49.5 -128.5t-173.5 -40.5h-6q-123 0 -172.5 40.5t-49.5 128.5z" />
<glyph unicode="&#x169;" horiz-adv-x="532" d="M132 577q-8 0 -8 9v30q0 34 18 53t48 19q29 0 56 -18l68 -46q15 -9 22 -9q13 0 13 19v34q0 9 8 9h36q9 0 9 -9v-31q0 -34 -17.5 -52.5t-48.5 -18.5q-29 0 -56 18l-68 45q-13 10 -23 10q-12 0 -12 -19v-34q0 -9 -9 -9h-36zM454 502q8 0 8 -8v-486q0 -8 -8 -8h-38 q-6 0 -10 6l-19 29q-78 -43 -166 -43q-84 0 -120 39.5t-36 130.5v332q0 8 9 8h63q8 0 8 -8v-320q0 -65 18 -87t75 -22q74 0 144 32v397q0 8 8 8h64z" />
<glyph unicode="&#x16a;" horiz-adv-x="591" d="M190 724q-9 0 -9 9v45q0 8 9 8h209q9 0 9 -8v-45q0 -9 -9 -9h-209zM70 161v476q0 8 9 8h63q8 0 8 -8v-476q0 -54 28.5 -75t113.5 -21h6q86 0 114.5 21t28.5 75v476q0 8 8 8h63q9 0 9 -8v-476q0 -88 -49.5 -128.5t-173.5 -40.5h-6q-123 0 -172.5 40.5t-49.5 128.5z" />
<glyph unicode="&#x16b;" horiz-adv-x="532" d="M158 581q-9 0 -9 9v45q0 8 9 8h209q9 0 9 -8v-45q0 -9 -9 -9h-209zM454 502q8 0 8 -8v-486q0 -8 -8 -8h-38q-6 0 -10 6l-19 29q-78 -43 -166 -43q-84 0 -120 39.5t-36 130.5v332q0 8 9 8h63q8 0 8 -8v-320q0 -65 18 -87t75 -22q74 0 144 32v397q0 8 8 8h64z" />
<glyph unicode="&#x16c;" horiz-adv-x="591" d="M400 828q8 0 8 -8v-24q0 -45 -26 -66t-85 -21h-4q-59 0 -85 20.5t-26 66.5v24q0 8 8 8h41q8 0 8 -8v-24q0 -22 11 -30.5t43 -8.5h4q32 0 43 8.5t11 30.5v24q0 8 8 8h41zM70 161v476q0 8 9 8h63q8 0 8 -8v-476q0 -54 28.5 -75t113.5 -21h6q86 0 114.5 21t28.5 75v476 q0 8 8 8h63q9 0 9 -8v-476q0 -88 -49.5 -128.5t-173.5 -40.5h-6q-123 0 -172.5 40.5t-49.5 128.5z" />
<glyph unicode="&#x16d;" horiz-adv-x="532" d="M261 566q-59 0 -85 20.5t-26 66.5v24q0 8 8 8h41q8 0 8 -8v-24q0 -22 11 -30.5t43 -8.5h4q32 0 43 8.5t11 30.5v24q0 8 8 8h41q8 0 8 -8v-24q0 -45 -26 -66t-85 -21h-4zM454 502q8 0 8 -8v-486q0 -8 -8 -8h-38q-6 0 -10 6l-19 29q-78 -43 -166 -43q-84 0 -120 39.5 t-36 130.5v332q0 8 9 8h63q8 0 8 -8v-320q0 -65 18 -87t75 -22q74 0 144 32v397q0 8 8 8h64z" />
<glyph unicode="&#x16e;" horiz-adv-x="591" d="M294 703q-53 0 -73 15t-20 51v17q0 36 20 51t73 15h2q52 0 72.5 -15.5t20.5 -50.5v-17q0 -35 -20.5 -50.5t-72.5 -15.5h-2zM294 744h2q31 0 39.5 5t8.5 21v14q0 16 -8.5 21t-39.5 5h-2q-31 0 -39.5 -5t-8.5 -21v-14q0 -16 8.5 -21t39.5 -5zM70 161v476q0 8 9 8h63 q8 0 8 -8v-476q0 -54 28.5 -75t113.5 -21h6q86 0 114.5 21t28.5 75v476q0 8 8 8h63q9 0 9 -8v-476q0 -88 -49.5 -128.5t-173.5 -40.5h-6q-123 0 -172.5 40.5t-49.5 128.5z" />
<glyph unicode="&#x16f;" horiz-adv-x="532" d="M262 560q-53 0 -73 15t-20 51v17q0 36 20 51t73 15h2q52 0 72.5 -15.5t20.5 -50.5v-17q0 -35 -20.5 -50.5t-72.5 -15.5h-2zM214 641v-14q0 -16 8.5 -21t39.5 -5h2q31 0 39.5 5t8.5 21v14q0 16 -8.5 21t-39.5 5h-2q-31 0 -39.5 -5t-8.5 -21zM454 502q8 0 8 -8v-486 q0 -8 -8 -8h-38q-6 0 -10 6l-19 29q-78 -43 -166 -43q-84 0 -120 39.5t-36 130.5v332q0 8 9 8h63q8 0 8 -8v-320q0 -65 18 -87t75 -22q74 0 144 32v397q0 8 8 8h64z" />
<glyph unicode="&#x170;" horiz-adv-x="591" d="M196 712q-5 0 -7 3t0 7l53 100q3 6 9 6h58q5 0 7 -3t0 -7l-65 -101q-4 -5 -10 -5h-45zM330 712q-4 0 -6 3t0 7l52 100q3 6 10 6h58q4 0 6 -3t0 -7l-65 -101q-4 -5 -9 -5h-46zM70 161v476q0 8 9 8h63q8 0 8 -8v-476q0 -54 28.5 -75t113.5 -21h6q86 0 114.5 21t28.5 75v476 q0 8 8 8h63q9 0 9 -8v-476q0 -88 -49.5 -128.5t-173.5 -40.5h-6q-123 0 -172.5 40.5t-49.5 128.5z" />
<glyph unicode="&#x171;" horiz-adv-x="532" d="M164 569q-5 0 -7 3t0 7l53 100q3 6 9 6h58q5 0 7 -3t0 -7l-65 -101q-4 -5 -10 -5h-45zM298 569q-4 0 -6 3t0 7l52 100q3 6 10 6h58q4 0 6 -3t0 -7l-65 -101q-4 -5 -9 -5h-46zM454 502q8 0 8 -8v-486q0 -8 -8 -8h-38q-6 0 -10 6l-19 29q-78 -43 -166 -43q-84 0 -120 39.5 t-36 130.5v332q0 8 9 8h63q8 0 8 -8v-320q0 -65 18 -87t75 -22q74 0 144 32v397q0 8 8 8h64z" />
<glyph unicode="&#x172;" horiz-adv-x="591" d="M512 645q9 0 9 -8v-476q0 -80 -40 -120t-137 -47l-46 -48q-22 -22 -29 -34.5t-7 -29.5v-6q0 -17 9 -23.5t35 -6.5h35q9 0 9 -9v-41q0 -8 -9 -8h-35q-108 0 -108 85v6q0 26 11.5 45.5t44.5 48.5l22 19q-114 3 -160 43.5t-46 125.5v476q0 8 9 8h63q8 0 8 -8v-476 q0 -54 28.5 -75t113.5 -21h6q86 0 114.5 21t28.5 75v476q0 8 8 8h63z" />
<glyph unicode="&#x173;" horiz-adv-x="532" d="M454 502q8 0 8 -8v-486q0 -7 -6 -14l-46 -48q-22 -22 -29 -34.5t-7 -29.5v-6q0 -17 9 -23.5t35 -6.5h35q9 0 9 -9v-41q0 -8 -9 -8h-35q-108 0 -108 85v6q0 26 11.5 45.5t44.5 48.5l39 34l-18 28q-78 -43 -166 -43q-84 0 -120 39.5t-36 130.5v332q0 8 9 8h63q8 0 8 -8 v-320q0 -65 18 -87t75 -22q74 0 144 32v397q0 8 8 8h64z" />
<glyph unicode="&#x174;" horiz-adv-x="835" d="M290 712q-5 0 -7 3t2 7l97 102q4 4 11 4h50q6 0 10 -4l97 -102q4 -4 2.5 -7t-7.5 -3h-57q-6 0 -11 6l-59 69l-59 -69q-5 -6 -12 -6h-57zM808 645q9 0 6 -10l-176 -628q-1 -7 -9 -7h-64q-8 0 -10 7l-93 332q-30 108 -44 193q-16 -85 -45 -193l-93 -332q-2 -7 -9 -7h-65 q-7 0 -9 7l-176 628q-3 10 6 10h68q8 0 9 -7l92 -332q30 -108 43 -181q12 69 42 181l93 332q1 7 10 7h68q8 0 9 -7l93 -332q27 -92 43 -180q15 86 42 180l92 332q2 7 10 7h67z" />
<glyph unicode="&#x175;" horiz-adv-x="734" d="M239 569q-5 0 -7 3t2 7l97 102q4 4 11 4h50q6 0 10 -4l97 -102q4 -4 2.5 -7t-7.5 -3h-57q-6 0 -11 6l-59 69l-59 -69q-4 -6 -12 -6h-57zM713 502q10 0 7 -9l-147 -486q-1 -7 -9 -7h-76q-7 0 -10 7l-61 204q-34 109 -50 202q-16 -93 -50 -202l-61 -204q-3 -7 -9 -7h-77 q-6 0 -9 7l-146 486q-3 9 6 9h66q8 0 10 -7l64 -218q32 -110 48 -194q17 84 49 194l66 218q2 7 10 7h66q8 0 10 -7l66 -218q34 -118 49 -196q17 88 48 196l64 218q2 7 10 7h66z" />
<glyph unicode="&#x176;" horiz-adv-x="485" d="M115 712q-5 0 -7 3t2 7l97 102q4 4 11 4h50q6 0 10 -4l97 -102q4 -4 2.5 -7t-7.5 -3h-57q-6 0 -11 6l-59 69l-59 -69q-4 -6 -12 -6h-57zM476 645q11 0 6 -10l-199 -394v-233q0 -8 -9 -8h-63q-8 0 -8 8v231l-200 396q-5 10 6 10h68q6 0 9 -6l87 -175q46 -92 70 -161 q23 69 69 161l87 175q3 6 9 6h68z" />
<glyph unicode="&#x177;" horiz-adv-x="453" d="M101 569q-5 0 -7 3t2 7l97 102q4 4 11 4h50q6 0 10 -4l97 -102q4 -4 2.5 -7t-7.5 -3h-57q-6 0 -11 6l-59 69l-59 -69q-4 -6 -12 -6h-57zM441 502q11 0 7 -9l-249 -688q-3 -7 -10 -7h-64q-12 0 -7 10l70 187l-179 498q-4 9 7 9h66q7 0 9 -6l80 -225q40 -119 58 -194 q17 71 58 195l79 224q2 6 10 6h65z" />
<glyph unicode="&#x178;" horiz-adv-x="485" d="M138 723q-9 0 -9 9v88q0 8 9 8h58q9 0 9 -8v-88q0 -9 -9 -9h-58zM288 723q-9 0 -9 9v88q0 8 9 8h58q9 0 9 -8v-88q0 -9 -9 -9h-58zM476 645q11 0 6 -10l-199 -394v-233q0 -8 -9 -8h-63q-8 0 -8 8v231l-200 396q-5 10 6 10h68q6 0 9 -6l87 -175q46 -92 70 -161 q23 69 69 161l87 175q3 6 9 6h68z" />
<glyph unicode="&#x179;" horiz-adv-x="447" d="M173 712q-6 0 -7.5 3t2.5 7l97 102q4 4 11 4h72q3 0 5 -1.5t1.5 -4t-3.5 -4.5l-111 -102q-6 -4 -10 -4h-57zM415 73q8 0 8 -8v-57q0 -8 -8 -8h-383q-8 0 -8 8v47q0 5 3 11l231 403q38 66 66 103h-281q-9 0 -9 8v57q0 8 9 8h361q9 0 9 -8v-47q0 -5 -3 -11l-235 -408 q-36 -62 -63 -98h303z" />
<glyph unicode="&#x17a;" horiz-adv-x="409" d="M153 569q-6 0 -7.5 3t2.5 7l97 102q4 4 11 4h72q3 0 5 -1.5t1.5 -4t-3.5 -4.5l-111 -102q-6 -4 -10 -4h-57zM373 73q9 0 9 -9v-56q0 -8 -9 -8h-337q-8 0 -8 8v49q0 5 3 11l211 312q22 32 39 49h-235q-8 0 -8 9v56q0 8 8 8h317q9 0 9 -8v-50q0 -5 -3 -11l-211 -312 q-22 -32 -39 -48h254z" />
<glyph unicode="&#x17b;" horiz-adv-x="447" d="M195 723q-9 0 -9 9v88q0 8 9 8h58q9 0 9 -8v-88q0 -9 -9 -9h-58zM415 73q8 0 8 -8v-57q0 -8 -8 -8h-383q-8 0 -8 8v47q0 5 3 11l231 403q38 66 66 103h-281q-9 0 -9 8v57q0 8 9 8h361q9 0 9 -8v-47q0 -5 -3 -11l-235 -408q-36 -62 -63 -98h303z" />
<glyph unicode="&#x17c;" horiz-adv-x="409" d="M175 580q-9 0 -9 9v88q0 8 9 8h58q9 0 9 -8v-88q0 -9 -9 -9h-58zM373 73q9 0 9 -9v-56q0 -8 -9 -8h-337q-8 0 -8 8v49q0 5 3 11l211 312q22 32 39 49h-235q-8 0 -8 9v56q0 8 8 8h317q9 0 9 -8v-50q0 -5 -3 -11l-211 -312q-22 -32 -39 -48h254z" />
<glyph unicode="&#x17d;" horiz-adv-x="447" d="M189 716l-97 102q-4 4 -2 7t7 3h57q8 0 12 -6l59 -69l59 69q5 6 11 6h57q6 0 7.5 -3t-2.5 -7l-97 -102q-4 -4 -10 -4h-50q-7 0 -11 4zM415 73q8 0 8 -8v-57q0 -8 -8 -8h-383q-8 0 -8 8v47q0 5 3 11l231 403q38 66 66 103h-281q-9 0 -9 8v57q0 8 9 8h361q9 0 9 -8v-47 q0 -5 -3 -11l-235 -408q-36 -62 -63 -98h303z" />
<glyph unicode="&#x17e;" horiz-adv-x="409" d="M169 573l-97 102q-4 4 -2 7t7 3h57q8 0 12 -6l59 -69l59 69q5 6 11 6h57q6 0 7.5 -3t-2.5 -7l-97 -102q-4 -4 -10 -4h-50q-7 0 -11 4zM373 73q9 0 9 -9v-56q0 -8 -9 -8h-337q-8 0 -8 8v49q0 5 3 11l211 312q22 32 39 49h-235q-8 0 -8 9v56q0 8 8 8h317q9 0 9 -8v-50 q0 -5 -3 -11l-211 -312q-22 -32 -39 -48h254z" />
<glyph unicode="&#x1cd;" horiz-adv-x="543" d="M236 716l-97 102q-4 4 -2 7t7 3h57q7 0 12 -6l59 -69l59 69q5 6 11 6h57q6 0 7.5 -3t-2.5 -7l-97 -102q-4 -4 -10 -4h-50q-7 0 -11 4zM528 9q3 -9 -7 -9h-66q-8 0 -10 6l-52 152h-243l-52 -152q-2 -6 -10 -6h-66q-10 0 -7 9l218 630q2 6 9 6h59q8 0 10 -6zM175 231h193 l-46 136q-33 96 -50 168q-18 -72 -51 -168z" />
<glyph unicode="&#x1ce;" horiz-adv-x="516" d="M224 573l-97 102q-4 4 -2 7t7 3h57q7 0 12 -6l59 -69l59 69q5 6 11 6h57q6 0 7.5 -3t-2.5 -7l-97 -102q-4 -4 -10 -4h-50q-7 0 -11 4zM260 510q101 0 145.5 -40t44.5 -123v-339q0 -8 -8 -8h-37q-7 0 -10 6l-19 30q-71 -44 -161 -44q-169 0 -169 142v15q0 69 39 101 t128 32h158v65q0 50 -23.5 70t-87.5 20h-6q-63 0 -86.5 -20t-23.5 -68v-2q0 -9 -9 -9h-62q-8 0 -8 9v2q0 82 44 121.5t145 39.5h6zM126 134q0 -39 22 -56t77 -17q79 0 146 35v122h-163q-46 0 -64 -16t-18 -53v-15z" />
<glyph unicode="&#x1fc;" horiz-adv-x="830" d="M515 712q-6 0 -7.5 3t2.5 7l97 102q4 4 11 4h72q3 0 5 -1.5t1.5 -4t-3.5 -4.5l-111 -102q-6 -4 -10 -4h-57zM783 572h-294v-209h264q8 0 8 -8v-56q0 -9 -8 -9h-264v-217h294q8 0 8 -8v-57q0 -8 -8 -8h-365q-9 0 -9 8v148h-229l-78 -150q-2 -6 -10 -6h-70q-11 0 -6 10 l327 629q3 6 10 6h430q8 0 8 -8v-57q0 -8 -8 -8zM217 228h192v344h-13z" />
<glyph unicode="&#x1fd;" horiz-adv-x="806" d="M349 569q-6 0 -7.5 3t2.5 7l97 102q4 4 11 4h72q3 0 5 -1.5t1.5 -4t-3.5 -4.5l-111 -102q-6 -4 -10 -4h-57zM743 232h-303v-73q0 -53 23.5 -74t89.5 -21h6q66 0 89.5 21t23.5 72v2q0 9 9 9h62q8 0 8 -9v-2q0 -85 -44.5 -125t-147.5 -40h-6q-118 0 -162 56 q-83 -56 -182 -56q-163 0 -163 142v15q0 68 39 101t126 33h150v60q0 52 -22.5 73t-83.5 21h-6q-61 0 -83.5 -20.5t-22.5 -71.5v-3q0 -8 -8 -8h-62q-9 0 -9 8v3q0 84 43 124.5t142 40.5h6q108 0 147 -58q39 58 151 58h6q103 0 147.5 -40.5t44.5 -126.5v-102q0 -9 -8 -9z M553 438q-66 0 -89.5 -21t-23.5 -74v-48h232v48q0 53 -23.5 74t-89.5 21h-6zM220 61q74 0 147 40q-6 26 -6 58v59h-153q-45 0 -64 -16.5t-19 -52.5v-15q0 -38 22 -55.5t73 -17.5z" />
<glyph unicode="&#x1fe;" horiz-adv-x="594" d="M245 712q-6 0 -7.5 3t2.5 7l97 102q4 4 11 4h72q3 0 5 -1.5t1.5 -4t-3.5 -4.5l-111 -102q-6 -4 -10 -4h-57zM472 617q56 -38 56 -133v-323q0 -89 -50 -129t-178 -40h-6q-75 0 -125 14l-26 -52q-3 -6 -10 -6h-40q-11 0 -6 10l35 70q-57 38 -57 133v323q0 89 50.5 129 t178.5 40h6q77 0 125 -15l26 52q3 6 10 6h39q11 0 6 -10zM145 161q0 -41 13 -60l234 470q-33 9 -92 9h-6q-90 0 -119.5 -21t-29.5 -75v-323zM448 161v323q0 40 -13 59l-233 -469q33 -9 92 -9h6q90 0 119 21t29 75z" />
<glyph unicode="&#x1ff;" d="M214 569q-6 0 -7.5 3t2.5 7l97 102q4 4 11 4h72q3 0 5 -1.5t1.5 -4t-3.5 -4.5l-111 -102q-6 -4 -10 -4h-57zM409 481q62 -38 62 -138v-184q0 -86 -46 -126.5t-156 -40.5h-6q-53 0 -91 9l-23 -46q-3 -6 -10 -6h-40q-11 0 -6 9l31 62q-64 38 -64 139v184q0 86 46.5 126.5 t156.5 40.5h6q56 0 93 -10l22 45q3 6 10 6h39q11 0 6 -9zM140 159q0 -46 19 -68l169 341q-27 5 -59 5h-6q-73 0 -98 -21t-25 -73v-184zM391 159v184q0 47 -18 66l-167 -340q20 -4 57 -4h6q72 0 97 21t25 73z" />
<glyph unicode="&#x218;" horiz-adv-x="518" d="M39 159v31q0 8 8 8h63q9 0 9 -8v-31q0 -53 27.5 -73.5t109.5 -20.5h6q82 0 109.5 20.5t27.5 73.5v27q0 44 -17 61.5t-73 30.5l-127 28q-76 17 -107 53t-31 107v20q0 87 48 127t164 40h6q116 0 163.5 -40t47.5 -127v-31q0 -8 -8 -8h-63q-9 0 -9 8v31q0 52 -26.5 73 t-104.5 21h-6q-78 0 -105 -21t-27 -73v-20q0 -41 16.5 -59t69.5 -30l128 -28q79 -17 110 -53t31 -110v-27q0 -87 -48.5 -127t-168.5 -40h-6q-120 0 -168.5 40t-48.5 127zM231 -238q-8 0 -8 8v152q0 9 8 9h55q8 0 8 -9v-47q0 -7 -1 -10l-32 -96q-1 -7 -9 -7h-21z" />
<glyph unicode="&#x219;" horiz-adv-x="474" d="M41 126v33q0 8 9 8h62q8 0 8 -8v-33q0 -32 26 -47t89 -15h6q63 0 88 15t25 47v15q0 25 -12 37.5t-52 23.5l-129 36q-62 18 -87.5 47t-25.5 78v14q0 133 186 133h6q186 0 186 -133v-33q0 -9 -8 -9h-62q-9 0 -9 9v33q0 31 -23.5 46t-83.5 15h-6q-60 0 -83 -14.5t-23 -46.5 v-14q0 -24 12.5 -35.5t53.5 -23.5l129 -35q60 -16 85 -46t25 -82v-15q0 -134 -192 -134h-6q-194 0 -194 134zM209 -238q-8 0 -8 8v152q0 9 8 9h55q8 0 8 -9v-47q0 -7 -1 -10l-32 -96q-1 -7 -9 -7h-21z" />
<glyph unicode="&#x21a;" horiz-adv-x="463" d="M440 645q9 0 9 -8v-57q0 -8 -9 -8h-168v-564q0 -8 -9 -8h-63q-8 0 -8 8v564h-169q-9 0 -9 8v57q0 8 9 8h417zM259 -69q8 0 8 -9v-47q0 -7 -1 -10l-32 -96q-1 -7 -9 -7h-21q-8 0 -8 8v152q0 9 8 9h55z" />
<glyph unicode="&#x21b;" horiz-adv-x="334" d="M303 66q8 0 8 -8v-54q0 -8 -8 -8h-51q-85 0 -121 34.5t-36 120.5v283h-79q-9 0 -9 9v29q0 8 8 9l80 12v144q0 8 9 8h63q8 0 8 -8v-135h126q8 0 8 -8v-51q0 -9 -8 -9h-126v-279q0 -51 17.5 -70t65.5 -19h45zM227 -69q8 0 8 -9v-47q0 -7 -1 -10l-32 -96q-1 -7 -9 -7h-21 q-8 0 -8 8v152q0 9 8 9h55z" />
<glyph unicode="&#x237;" horiz-adv-x="221" d="M-35 -208q-8 0 -8 8v53q0 8 8 8h26q46 0 62.5 19t16.5 73v541q0 8 9 8h63q8 0 8 -8v-547q0 -85 -34.5 -120t-121.5 -35h-29z" />
<glyph unicode="&#x2c6;" d="M398 579q4 -4 2.5 -7t-7.5 -3h-57q-6 0 -11 6l-59 69l-59 -69q-5 -6 -12 -6h-57q-5 0 -7 3t2 7l97 102q4 4 11 4h50q6 0 10 -4z" />
<glyph unicode="&#x2c7;" d="M393 685q6 0 7.5 -3t-2.5 -7l-97 -102q-4 -4 -10 -4h-50q-7 0 -11 4l-97 102q-4 4 -2 7t7 3h57q7 0 12 -6l59 -69l59 69q5 6 11 6h57z" />
<glyph unicode="&#x2d8;" d="M371 685q8 0 8 -8v-24q0 -45 -26 -66t-85 -21h-4q-59 0 -85 20.5t-26 66.5v24q0 8 8 8h41q8 0 8 -8v-24q0 -22 11 -30.5t43 -8.5h4q32 0 43 8.5t11 30.5v24q0 8 8 8h41z" />
<glyph unicode="&#x2d9;" d="M237 580q-9 0 -9 9v88q0 8 9 8h58q9 0 9 -8v-88q0 -9 -9 -9h-58z" />
<glyph unicode="&#x2da;" d="M265 560q-53 0 -73 15t-20 51v17q0 36 20 51t73 15h2q52 0 72.5 -15.5t20.5 -50.5v-17q0 -35 -20.5 -50.5t-72.5 -15.5h-2zM265 601h2q31 0 39.5 5t8.5 21v14q0 16 -8.5 21t-39.5 5h-2q-31 0 -39.5 -5t-8.5 -21v-14q0 -16 8.5 -21t39.5 -5z" />
<glyph unicode="&#x2db;" horiz-adv-x="534" d="M267 -212q-108 0 -108 85v6q0 26 11.5 45.5t44.5 48.5l65 57l31 -4v-16q0 -9 -6 -16l-46 -48q-22 -22 -29 -34.5t-7 -29.5v-6q0 -17 9 -23.5t35 -6.5h35q9 0 9 -9v-41q0 -8 -9 -8h-35z" />
<glyph unicode="&#x2dc;" d="M339 566q-29 0 -56 18l-68 45q-13 10 -23 10q-12 0 -12 -19v-34q0 -9 -9 -9h-36q-8 0 -8 9v30q0 34 18 53t48 19q29 0 56 -18l68 -46q15 -9 22 -9q13 0 13 19v34q0 9 8 9h36q9 0 9 -9v-31q0 -34 -17.5 -52.5t-48.5 -18.5z" />
<glyph unicode="&#x2dd;" horiz-adv-x="534" d="M199 569q-5 0 -7 3t0 7l53 100q3 6 9 6h58q5 0 7 -3t0 -7l-65 -101q-4 -5 -10 -5h-45zM333 569q-5 0 -6.5 3t0.5 7l52 100q3 6 10 6h58q5 0 6.5 -3t-0.5 -7l-65 -101q-4 -5 -9 -5h-46z" />
<glyph unicode="&#x300;" horiz-adv-x="0" d="M-265 569q-6 0 -11 4l-111 102q-4 4 -2.5 7t7.5 3h71q6 0 10 -4l97 -102q4 -4 2.5 -7t-6.5 -3h-57z" />
<glyph unicode="&#x301;" horiz-adv-x="0" d="M-317 569q-6 0 -7.5 3t2.5 7l97 102q4 4 11 4h72q3 0 5 -1.5t1.5 -4t-3.5 -4.5l-111 -102q-6 -4 -10 -4h-57z" />
<glyph unicode="&#x302;" horiz-adv-x="0" d="M-133 579q4 -4 2.5 -7t-7.5 -3h-57q-6 0 -11 6l-59 69l-59 -69q-4 -6 -12 -6h-57q-5 0 -7 3t2 7l97 102q4 4 11 4h50q6 0 10 -4z" />
<glyph unicode="&#x303;" horiz-adv-x="0" d="M-192 566q-29 0 -56 18l-68 45q-13 10 -23 10q-12 0 -12 -19v-34q0 -9 -9 -9h-36q-8 0 -8 9v30q0 34 18 53t48 19q29 0 56 -18l68 -46q15 -9 22 -9q13 0 13 19v34q0 9 8 9h36q9 0 9 -9v-31q0 -34 -17.5 -52.5t-48.5 -18.5z" />
<glyph unicode="&#x304;" horiz-adv-x="0" d="M-370 581q-9 0 -9 9v45q0 8 9 8h209q9 0 9 -8v-45q0 -9 -9 -9h-209z" />
<glyph unicode="&#x306;" horiz-adv-x="0" d="M-160 685q8 0 8 -8v-24q0 -45 -26 -66t-85 -21h-4q-59 0 -85 20.5t-26 66.5v24q0 8 8 8h41q8 0 8 -8v-24q0 -22 11 -30.5t43 -8.5h4q32 0 43 8.5t11 30.5v24q0 8 8 8h41z" />
<glyph unicode="&#x307;" horiz-adv-x="0" d="M-295 580q-9 0 -9 9v88q0 8 9 8h58q9 0 9 -8v-88q0 -9 -9 -9h-58z" />
<glyph unicode="&#x308;" horiz-adv-x="0" d="M-370 580q-9 0 -9 9v88q0 8 9 8h58q9 0 9 -8v-88q0 -9 -9 -9h-58zM-220 580q-9 0 -9 9v88q0 8 9 8h58q9 0 9 -8v-88q0 -9 -9 -9h-58z" />
<glyph unicode="&#x30a;" horiz-adv-x="0" d="M-266 560q-53 0 -73 15t-20 51v17q0 36 20 51t73 15h2q52 0 72.5 -15.5t20.5 -50.5v-17q0 -35 -20.5 -50.5t-72.5 -15.5h-2zM-266 601h2q31 0 39.5 5t8.5 21v14q0 16 -8.5 21t-39.5 5h-2q-31 0 -39.5 -5t-8.5 -21v-14q0 -16 8.5 -21t39.5 -5z" />
<glyph unicode="&#x30b;" horiz-adv-x="0" d="M-364 569q-5 0 -7 3t0 7l53 100q3 6 9 6h58q5 0 7 -3t0 -7l-65 -101q-4 -5 -10 -5h-45zM-230 569q-4 0 -6 3t0 7l52 100q3 6 10 6h58q4 0 6 -3t0 -7l-65 -101q-4 -5 -9 -5h-46z" />
<glyph unicode="&#x30c;" horiz-adv-x="0" d="M-138 685q6 0 7.5 -3t-2.5 -7l-97 -102q-4 -4 -10 -4h-50q-7 0 -11 4l-97 102q-4 4 -2 7t7 3h57q8 0 12 -6l59 -69l59 69q5 6 11 6h57z" />
<glyph unicode="&#x312;" horiz-adv-x="0" d="M-293 737h21q8 0 9 -7l32 -96q1 -3 1 -10v-47q0 -9 -8 -9h-55q-8 0 -8 9v152q0 8 8 8z" />
<glyph unicode="&#x326;" horiz-adv-x="0" d="M-293 -238q-8 0 -8 8v152q0 9 8 9h55q8 0 8 -9v-47q0 -7 -1 -10l-32 -96q-1 -7 -9 -7h-21z" />
<glyph unicode="&#x327;" horiz-adv-x="0" d="M-257 -61q48 0 68 -15.5t20 -54.5v-11q0 -39 -20 -54.5t-68 -15.5h-87q-8 0 -8 8v34q0 8 8 8h86q19 0 26 4.5t7 16.5v11q0 12 -7 17t-26 5h-85q-9 0 -7 9l18 118h54l-11 -80h32z" />
<glyph unicode="&#x328;" horiz-adv-x="0" d="M-264 -212q-108 0 -108 85v6q0 26 11.5 45.5t44.5 48.5l65 57l31 -4v-16q0 -9 -6 -16l-46 -48q-22 -22 -29 -34.5t-7 -29.5v-6q0 -17 9 -23.5t35 -6.5h35q9 0 9 -9v-41q0 -8 -9 -8h-35z" />
<glyph unicode="&#x335;" horiz-adv-x="0" d="M-294 300q-8 0 -8 8v38q0 9 8 9h276q8 0 8 -9v-38q0 -8 -8 -8h-276z" />
<glyph unicode="&#x336;" horiz-adv-x="0" d="M-524 455q-8 0 -8 8v41q0 9 8 9h506q8 0 8 -9v-41q0 -8 -8 -8h-506z" />
<glyph unicode="&#x337;" horiz-adv-x="0" d="M-396 -51q-11 0 -6 9l291 587q3 6 10 6h39q11 0 6 -9l-290 -587q-3 -6 -10 -6h-40z" />
<glyph unicode="&#x338;" horiz-adv-x="0" d="M-469 -51q-11 0 -6 10l364 732q3 6 10 6h39q11 0 6 -10l-363 -732q-3 -6 -10 -6h-40z" />
<glyph unicode="&#x401;" horiz-adv-x="497" d="M157 723q-9 0 -9 9v88q0 8 9 8h58q9 0 9 -8v-88q0 -9 -9 -9h-58zM307 723q-9 0 -9 9v88q0 8 9 8h58q9 0 9 -8v-88q0 -9 -9 -9h-58zM449 572h-294v-209h264q8 0 8 -8v-56q0 -9 -8 -9h-264v-217h294q8 0 8 -8v-57q0 -8 -8 -8h-365q-9 0 -9 8v629q0 8 9 8h365q8 0 8 -8v-57 q0 -8 -8 -8z" />
<glyph unicode="&#x402;" horiz-adv-x="648" d="M429 423q92 0 134 -42t42 -134v-100q0 -85 -35 -120t-121 -35h-57q-8 0 -8 8v53q0 8 8 8h53q47 0 63.5 19t16.5 73v82q0 67 -21.5 91t-79.5 24q-83 0 -172 -40v-302q0 -8 -9 -8h-63q-8 0 -8 8v564h-169q-9 0 -9 8v57q0 8 9 8h417q9 0 9 -8v-57q0 -8 -9 -8h-168v-188 q86 39 177 39z" />
<glyph unicode="&#x403;" horiz-adv-x="453" d="M196 712q-6 0 -7.5 3t2.5 7l97 102q4 4 11 4h72q3 0 5 -1.5t1.5 -4t-3.5 -4.5l-111 -102q-6 -4 -10 -4h-57zM425 645q9 0 9 -8v-57q0 -8 -9 -8h-270v-564q0 -8 -8 -8h-63q-9 0 -9 8v629q0 8 9 8h341z" />
<glyph unicode="&#x404;" horiz-adv-x="575" d="M443 437q-9 0 -9 8v39q0 54 -28 75t-113 21h-6q-85 0 -113.5 -21t-28.5 -75v-126h214q8 0 8 -8v-54q0 -8 -8 -8h-214v-127q0 -54 28.5 -75t113.5 -21h6q85 0 113 21t28 75v39q0 8 9 8h63q8 0 8 -8v-39q0 -89 -49 -129t-172 -40h-6q-123 0 -172.5 40.5t-49.5 128.5v323 q0 88 49.5 128.5t172.5 40.5h6q123 0 172 -40t49 -129v-39q0 -8 -8 -8h-63z" />
<glyph unicode="&#x405;" horiz-adv-x="518" d="M39 159v31q0 8 8 8h63q9 0 9 -8v-31q0 -53 27.5 -73.5t109.5 -20.5h6q82 0 109.5 20.5t27.5 73.5v27q0 44 -17 61.5t-73 30.5l-127 28q-76 17 -107 53t-31 107v20q0 87 48 127t164 40h6q116 0 163.5 -40t47.5 -127v-31q0 -8 -8 -8h-63q-9 0 -9 8v31q0 52 -26.5 73 t-104.5 21h-6q-78 0 -105 -21t-27 -73v-20q0 -41 16.5 -59t69.5 -30l128 -28q79 -17 110 -53t31 -110v-27q0 -87 -48.5 -127t-168.5 -40h-6q-120 0 -168.5 40t-48.5 127z" />
<glyph unicode="&#x406;" horiz-adv-x="231" d="M84 0q-9 0 -9 8v629q0 8 9 8h63q8 0 8 -8v-629q0 -8 -8 -8h-63z" />
<glyph unicode="&#x407;" horiz-adv-x="231" d="M10 723q-9 0 -9 9v88q0 8 9 8h58q9 0 9 -8v-88q0 -9 -9 -9h-58zM160 723q-9 0 -9 9v88q0 8 9 8h58q9 0 9 -8v-88q0 -9 -9 -9h-58zM84 0q-9 0 -9 8v629q0 8 9 8h63q8 0 8 -8v-629q0 -8 -8 -8h-63z" />
<glyph unicode="&#x408;" horiz-adv-x="497" d="M222 -8q-108 0 -153.5 40.5t-45.5 128.5v20q0 9 8 9h63q9 0 9 -9v-20q0 -54 24.5 -75t94.5 -21h6q69 0 94 21.5t25 74.5v476q0 8 8 8h63q9 0 9 -8v-476q0 -87 -46 -128t-153 -41h-6z" />
<glyph unicode="&#x409;" horiz-adv-x="872" d="M658 392q96 0 138.5 -39.5t42.5 -119.5v-73q0 -80 -42.5 -120t-138.5 -40h-233q-9 0 -9 8v564h-211l-18 -321q-6 -107 -23.5 -161.5t-51 -74.5t-95.5 -20h-7q-6 0 -6 9v58q0 8 8 8h5q34 0 50.5 12t25.5 50t14 119l20 386q0 8 9 8h352q8 0 8 -8v-245h162zM759 162v69 q0 52 -24 70t-97 18h-142v-246h142q73 0 97 18t24 71z" />
<glyph unicode="&#x40a;" horiz-adv-x="881" d="M667 371q97 0 139.5 -39.5t42.5 -119.5v-52q0 -81 -42.5 -120.5t-139.5 -39.5h-233q-8 0 -8 8v290h-271v-290q0 -8 -8 -8h-63q-9 0 -9 8v629q0 8 9 8h63q8 0 8 -8v-266h271v266q0 8 8 8h64q8 0 8 -8v-266h161zM769 162v48q0 52 -24 70t-97 18h-142v-225h142q73 0 97 18.5 t24 70.5z" />
<glyph unicode="&#x40b;" horiz-adv-x="648" d="M429 423q92 0 134 -42t42 -134v-239q0 -8 -9 -8h-63q-8 0 -8 8v227q0 67 -21.5 91t-79.5 24q-83 0 -172 -40v-302q0 -8 -9 -8h-63q-8 0 -8 8v564h-169q-9 0 -9 8v57q0 8 9 8h417q9 0 9 -8v-57q0 -8 -9 -8h-168v-188q86 39 177 39z" />
<glyph unicode="&#x40c;" horiz-adv-x="544" d="M227 712q-6 0 -7.5 3t2.5 7l97 102q4 4 11 4h72q3 0 5 -1.5t1.5 -4t-3.5 -4.5l-111 -102q-6 -4 -10 -4h-57zM526 10q6 -10 -6 -10h-72q-6 0 -10 5l-184 283h-99v-280q0 -8 -8 -8h-63q-9 0 -9 8v629q0 8 9 8h63q8 0 8 -8v-276h99l181 279q4 5 9 5h72q12 0 6 -10l-202 -310 z" />
<glyph unicode="&#x40d;" horiz-adv-x="630" d="M304 716l-111 102q-4 4 -2.5 7t7.5 3h71q6 0 10 -4l97 -102q4 -4 2.5 -7t-6.5 -3h-57q-6 0 -11 4zM546 645q9 0 9 -8v-629q0 -8 -9 -8h-63q-8 0 -8 8v333q0 113 4 187q-36 -76 -106 -187l-211 -336q-2 -5 -9 -5h-69q-8 0 -8 8v629q0 8 8 8h63q9 0 9 -8v-333 q0 -114 -5 -188q38 80 106 188l211 336q2 5 10 5h68z" />
<glyph unicode="&#x40e;" horiz-adv-x="481" d="M243 709q-59 0 -85 20.5t-26 66.5v24q0 8 8 8h41q8 0 8 -8v-24q0 -22 11 -30.5t43 -8.5h4q32 0 43 8.5t11 30.5v24q0 8 8 8h41q8 0 8 -8v-24q0 -45 -26 -66t-85 -21h-4zM477 645q10 0 6 -10l-181 -487q-35 -97 -70.5 -125.5t-118.5 -28.5h-53q-8 0 -8 9v56q0 9 8 9h58 q44 0 64 14t37 58l-203 495q-3 10 6 10h62q8 0 11 -7l96 -234q41 -100 66 -191q23 93 59 191l88 235q2 6 10 6h63z" />
<glyph unicode="&#x40f;" horiz-adv-x="591" d="M507 645q9 0 9 -8v-629q0 -8 -9 -8h-173l-7 -127q0 -9 -8 -9h-46q-9 0 -9 9l-7 127h-173q-9 0 -9 8v629q0 8 9 8h63q8 0 8 -8v-564h281v564q0 8 8 8h63z" />
<glyph unicode="&#x410;" horiz-adv-x="543" d="M528 9q3 -9 -7 -9h-66q-8 0 -10 6l-52 152h-243l-52 -152q-2 -6 -10 -6h-66q-10 0 -7 9l218 630q2 6 9 6h59q8 0 10 -6zM175 231h193l-46 136q-33 96 -50 168q-18 -72 -51 -168z" />
<glyph unicode="&#x411;" horiz-adv-x="553" d="M332 372q97 0 139 -39.5t42 -119.5v-53q0 -81 -42 -120.5t-139 -39.5h-248q-9 0 -9 8v629q0 8 9 8h373q9 0 9 -8v-57q0 -8 -9 -8h-302v-200h177zM433 162v49q0 52 -24 70t-97 18h-157v-226h157q73 0 97 18t24 71z" />
<glyph unicode="&#x412;" horiz-adv-x="558" d="M416 330q53 -11 75.5 -41.5t22.5 -88.5v-40q0 -80 -42.5 -120t-138.5 -40h-249q-9 0 -9 8v629q0 8 9 8h225q97 0 139.5 -39.5t42.5 -120.5v-31q0 -52 -17.5 -81.5t-57.5 -42.5zM290 572h-135v-209h135q73 0 97 18t24 71v31q0 53 -24 71t-97 18zM434 162v39q0 53 -24 71 t-97 18h-158v-217h158q73 0 97 18t24 71z" />
<glyph unicode="&#x413;" horiz-adv-x="453" d="M425 645q9 0 9 -8v-57q0 -8 -9 -8h-270v-564q0 -8 -8 -8h-63q-9 0 -9 8v629q0 8 9 8h341z" />
<glyph unicode="&#x414;" horiz-adv-x="583" d="M561 72q8 0 8 -8v-191q0 -9 -8 -9h-41q-8 0 -10 8l-17 128h-412l-17 -128q-2 -8 -10 -8h-41q-8 0 -8 9v191q0 8 8 8h39q32 54 43.5 115t11.5 173v277q0 8 9 8h376q9 0 9 -8v-565h60zM186 573v-213q0 -111 -11 -172.5t-40 -115.5h287v501h-236z" />
<glyph unicode="&#x415;" horiz-adv-x="497" d="M449 572h-294v-209h264q8 0 8 -8v-56q0 -9 -8 -9h-264v-217h294q8 0 8 -8v-57q0 -8 -8 -8h-365q-9 0 -9 8v629q0 8 9 8h365q8 0 8 -8v-57q0 -8 -8 -8z" />
<glyph unicode="&#x416;" horiz-adv-x="804" d="M786 10q4 -10 -7 -10h-72q-7 0 -10 6l-156 282h-99v-280q0 -8 -8 -8h-63q-9 0 -9 8v280h-99l-156 -282q-3 -6 -9 -6h-73q-12 0 -6 10l177 315l-173 310q-6 10 6 10h72q6 0 9 -6l153 -278h99v276q0 8 9 8h63q8 0 8 -8v-276h99l153 278q3 6 10 6h71q11 0 7 -10l-174 -310z " />
<glyph unicode="&#x417;" horiz-adv-x="526" d="M383 328q54 -12 76 -42.5t22 -90.5v-34q0 -88 -48 -128.5t-168 -40.5h-6q-120 0 -168 40.5t-48 128.5v23q0 9 9 9h63q8 0 8 -9v-23q0 -54 27.5 -75t108.5 -21h6q81 0 108.5 21t27.5 75v34q0 54 -27.5 74.5t-108.5 20.5h-78q-8 0 -8 9v56q0 8 8 8h73q80 0 107 21.5 t27 74.5v25q0 54 -26 75t-103 21h-6q-77 0 -103 -21t-26 -75v-31q0 -9 -9 -9h-63q-8 0 -8 9v31q0 88 47 128.5t162 40.5h6q115 0 162 -40.5t47 -128.5v-25q0 -58 -20.5 -88t-70.5 -43z" />
<glyph unicode="&#x418;" horiz-adv-x="630" d="M546 645q9 0 9 -8v-629q0 -8 -9 -8h-63q-8 0 -8 8v333q0 113 4 187q-36 -76 -106 -187l-211 -336q-2 -5 -9 -5h-69q-8 0 -8 8v629q0 8 8 8h63q9 0 9 -8v-333q0 -114 -5 -188q38 80 106 188l211 336q2 5 10 5h68z" />
<glyph unicode="&#x419;" horiz-adv-x="630" d="M313 709q-59 0 -85 20.5t-26 66.5v24q0 8 8 8h41q8 0 8 -8v-24q0 -22 11 -30.5t43 -8.5h4q32 0 43 8.5t11 30.5v24q0 8 8 8h41q8 0 8 -8v-24q0 -45 -26 -66t-85 -21h-4zM546 645q9 0 9 -8v-629q0 -8 -9 -8h-63q-8 0 -8 8v333q0 113 4 187q-36 -76 -106 -187l-211 -336 q-2 -5 -9 -5h-69q-8 0 -8 8v629q0 8 8 8h63q9 0 9 -8v-333q0 -114 -5 -188q38 80 106 188l211 336q2 5 10 5h68z" />
<glyph unicode="&#x41a;" horiz-adv-x="544" d="M526 10q6 -10 -6 -10h-72q-6 0 -10 5l-184 283h-99v-280q0 -8 -8 -8h-63q-9 0 -9 8v629q0 8 9 8h63q8 0 8 -8v-276h99l181 279q4 5 9 5h72q12 0 6 -10l-202 -310z" />
<glyph unicode="&#x41b;" horiz-adv-x="587" d="M503 645q8 0 8 -8v-629q0 -8 -8 -8h-63q-9 0 -9 8v564h-226l-18 -321q-6 -107 -24 -161.5t-51 -74.5t-95 -20h-7q-6 0 -6 9v58q0 8 8 8h5q50 0 67 32t23 149l19 386q0 8 9 8h368z" />
<glyph unicode="&#x41c;" horiz-adv-x="732" d="M648 645q8 0 8 -8v-629q0 -8 -8 -8h-62q-8 0 -8 8v299q0 122 5 209q-31 -94 -87 -209l-93 -191q-3 -6 -10 -6h-55q-7 0 -10 6l-92 191q-59 125 -87 206q5 -106 5 -206v-299q0 -8 -9 -8h-61q-9 0 -9 8v629q0 8 9 8h67q7 0 11 -7l160 -335q28 -57 44 -105q14 40 43 105 l161 335q3 7 10 7h68z" />
<glyph unicode="&#x41d;" horiz-adv-x="601" d="M518 645q8 0 8 -8v-629q0 -8 -8 -8h-64q-8 0 -8 8v280h-291v-280q0 -8 -8 -8h-63q-9 0 -9 8v629q0 8 9 8h63q8 0 8 -8v-276h291v276q0 8 8 8h64z" />
<glyph unicode="&#x41e;" horiz-adv-x="594" d="M65 161v323q0 89 50.5 129t178.5 40h6q128 0 178 -40t50 -129v-323q0 -89 -50 -129t-178 -40h-6q-128 0 -178.5 40t-50.5 129zM145 161q0 -54 29.5 -75t119.5 -21h6q90 0 119 21t29 75v323q0 54 -29 75t-119 21h-6q-90 0 -119.5 -21t-29.5 -75v-323z" />
<glyph unicode="&#x41f;" horiz-adv-x="601" d="M518 645q8 0 8 -8v-629q0 -8 -8 -8h-64q-8 0 -8 8v564h-291v-564q0 -8 -8 -8h-63q-9 0 -9 8v629q0 8 9 8h434z" />
<glyph unicode="&#x420;" horiz-adv-x="525" d="M316 645q94 0 137 -40t43 -124v-91q0 -84 -43 -124t-137 -40h-161v-218q0 -8 -8 -8h-63q-9 0 -9 8v629q0 8 9 8h232zM416 390v91q0 53 -24 72t-96 19h-141v-272h141q73 0 96.5 19t23.5 71z" />
<glyph unicode="&#x421;" horiz-adv-x="560" d="M287 -8q-123 0 -172.5 40.5t-49.5 128.5v323q0 88 49.5 128.5t172.5 40.5h6q123 0 172 -40t49 -129v-39q0 -8 -8 -8h-63q-9 0 -9 8v39q0 54 -28 75t-113 21h-6q-85 0 -113.5 -21t-28.5 -75v-323q0 -54 28.5 -75t113.5 -21h6q85 0 113 21t28 75v39q0 8 9 8h63q8 0 8 -8 v-39q0 -89 -49 -129t-172 -40h-6z" />
<glyph unicode="&#x422;" horiz-adv-x="463" d="M440 645q9 0 9 -8v-57q0 -8 -9 -8h-168v-564q0 -8 -9 -8h-63q-8 0 -8 8v564h-169q-9 0 -9 8v57q0 8 9 8h417z" />
<glyph unicode="&#x423;" horiz-adv-x="481" d="M477 645q10 0 6 -10l-181 -487q-35 -97 -70.5 -125.5t-118.5 -28.5h-53q-8 0 -8 9v56q0 9 8 9h58q44 0 64 14t37 58l-203 495q-3 10 6 10h62q8 0 11 -7l96 -234q41 -100 66 -191q23 93 59 191l88 235q2 6 10 6h63z" />
<glyph unicode="&#x424;" horiz-adv-x="707" d="M432 613q122 0 171 -40.5t49 -128.5v-243q0 -88 -49 -128.5t-171 -40.5h-38v-66q0 -8 -9 -8h-63q-8 0 -8 8v66h-39q-122 0 -171 40.5t-49 128.5v243q0 88 49 128.5t171 40.5h39v66q0 8 8 8h63q9 0 9 -8v-66h38zM275 106h39v433h-39q-84 0 -112 -20.5t-28 -74.5v-243 q0 -54 28 -74.5t112 -20.5zM572 201v243q0 54 -28 74.5t-112 20.5h-38v-433h38q84 0 112 20.5t28 74.5z" />
<glyph unicode="&#x425;" horiz-adv-x="513" d="M491 10q5 -10 -5 -10h-73q-7 0 -10 5l-146 244l-147 -244q-3 -5 -9 -5h-73q-11 0 -6 10l191 317l-186 308q-5 10 5 10h73q7 0 10 -5l142 -237l141 237q5 5 10 5h73q12 0 5 -10l-186 -309z" />
<glyph unicode="&#x426;" horiz-adv-x="598" d="M576 72q8 0 8 -8v-191q0 -9 -8 -9h-41q-8 0 -10 8l-17 128h-424q-9 0 -9 8v629q0 8 9 8h63q8 0 8 -8v-564h280v564q0 8 9 8h63q8 0 8 -8v-565h61z" />
<glyph unicode="&#x427;" horiz-adv-x="545" d="M461 645q8 0 8 -8v-629q0 -8 -8 -8h-63q-9 0 -9 8v243q-86 -39 -178 -39t-133.5 42t-41.5 134v249q0 8 8 8h63q9 0 9 -8v-237q0 -67 21.5 -91t79.5 -24q83 0 172 40v312q0 8 9 8h63z" />
<glyph unicode="&#x428;" horiz-adv-x="820" d="M736 645q9 0 9 -8v-629q0 -8 -9 -8h-652q-9 0 -9 8v629q0 8 9 8h63q8 0 8 -8v-564h215v564q0 8 9 8h63q8 0 8 -8v-564h215v564q0 8 8 8h63z" />
<glyph unicode="&#x429;" horiz-adv-x="827" d="M805 72q8 0 8 -8v-191q0 -9 -8 -9h-41q-8 0 -10 8l-17 128h-653q-9 0 -9 8v629q0 8 9 8h63q8 0 8 -8v-564h215v564q0 8 9 8h63q8 0 8 -8v-564h215v564q0 8 8 8h63q9 0 9 -8v-565h60z" />
<glyph unicode="&#x42a;" horiz-adv-x="607" d="M393 392q96 0 138.5 -39.5t42.5 -119.5v-73q0 -80 -42.5 -120t-138.5 -40h-253q-9 0 -9 8v565h-129q-8 0 -8 8v56q0 8 8 8h201q8 0 8 -8v-245h182zM494 162v69q0 52 -24 70t-97 18h-162v-246h162q73 0 97 18t24 71z" />
<glyph unicode="&#x42b;" horiz-adv-x="743" d="M317 392q96 0 138.5 -39.5t42.5 -119.5v-73q0 -80 -42.5 -120t-138.5 -40h-233q-9 0 -9 8v629q0 8 9 8h63q8 0 8 -8v-245h162zM659 645q8 0 8 -8v-629q0 -8 -8 -8h-63q-9 0 -9 8v629q0 8 9 8h63zM418 162v69q0 52 -24 70t-97 18h-142v-246h142q73 0 97 18t24 71z" />
<glyph unicode="&#x42c;" horiz-adv-x="551" d="M337 392q96 0 138.5 -39.5t42.5 -119.5v-73q0 -80 -42.5 -120t-138.5 -40h-253q-9 0 -9 8v629q0 8 9 8h63q8 0 8 -8v-245h182zM438 162v69q0 52 -24 70t-97 18h-162v-246h162q73 0 97 18t24 71z" />
<glyph unicode="&#x42d;" horiz-adv-x="575" d="M288 653q123 0 172.5 -40.5t49.5 -128.5v-323q0 -88 -49.5 -128.5t-172.5 -40.5h-6q-123 0 -172 40t-49 129v39q0 8 8 8h63q9 0 9 -8v-39q0 -54 28 -75t113 -21h6q85 0 113.5 21t28.5 75v127h-214q-8 0 -8 8v54q0 8 8 8h214v126q0 54 -28.5 75t-113.5 21h-6 q-85 0 -113 -21t-28 -75v-39q0 -8 -9 -8h-63q-8 0 -8 8v39q0 89 49 129t172 40h6z" />
<glyph unicode="&#x42e;" horiz-adv-x="790" d="M504 653q122 0 171 -40t49 -129v-323q0 -89 -49 -129t-171 -40h-6q-122 0 -171.5 40.5t-49.5 128.5v126h-122v-279q0 -8 -8 -8h-63q-9 0 -9 8v629q0 8 9 8h63q8 0 8 -8v-278h122v125q0 88 49.5 128.5t171.5 40.5h6zM644 161v323q0 54 -27.5 75t-112.5 21h-6 q-85 0 -113 -21t-28 -75v-323q0 -54 28 -75t113 -21h6q85 0 112.5 21t27.5 75z" />
<glyph unicode="&#x42f;" horiz-adv-x="550" d="M466 645q8 0 8 -8v-629q0 -8 -8 -8h-63q-9 0 -9 8v231h-127l-130 -233q-3 -6 -10 -6h-73q-5 0 -7 3t0 7l133 233q-65 10 -95.5 49.5t-30.5 110.5v78q0 84 43.5 124t137.5 40h231zM255 313h139v259h-139q-73 0 -97 -19t-24 -72v-78q0 -52 24 -71t97 -19z" />
<glyph unicode="&#x430;" horiz-adv-x="511" d="M258 510q99 0 143 -40t44 -123v-339q0 -8 -8 -8h-37q-6 0 -10 5l-19 30q-72 -43 -158 -43q-167 0 -167 142v15q0 69 38.5 101t127.5 32h153v65q0 50 -22.5 70t-84.5 20h-6q-62 0 -85 -20t-23 -68v-2q0 -9 -9 -9h-62q-8 0 -8 9v2q0 82 43.5 121.5t143.5 39.5h6zM126 134 q0 -39 21.5 -56t75.5 -17q73 0 142 33v124h-158q-45 0 -63 -16t-18 -53v-15z" />
<glyph unicode="&#x431;" d="M275 457q109 0 155 -40.5t46 -126.5v-131q0 -86 -46 -126.5t-156 -40.5h-6q-110 0 -156.5 40.5t-46.5 126.5v267q0 82 31 123t111 67l98 31q46 14 59.5 24t13.5 27v2q0 8 8 8h61q8 0 8 -8v-2q0 -46 -19 -68t-80 -41l-112 -36q-68 -22 -85 -44.5t-17 -86.5v-18 q13 29 42.5 41t84.5 12h6zM396 159v131q0 52 -25 72.5t-97 20.5h-6q-73 0 -98 -20.5t-25 -72.5v-131q0 -52 25 -73t98 -21h6q72 0 97 21t25 73z" />
<glyph unicode="&#x432;" horiz-adv-x="503" d="M380 255q44 -8 63 -32t19 -67v-26q0 -130 -149 -130h-234q-9 0 -9 8v486q0 8 9 8h214q77 0 113 -32.5t36 -97.5v-23q0 -74 -62 -94zM287 431h-137v-143h137q42 0 58.5 13t16.5 46v25q0 33 -16 46t-59 13zM382 130v29q0 32 -16.5 45t-58.5 13h-157v-145h157q42 0 58.5 13 t16.5 45z" />
<glyph unicode="&#x433;" horiz-adv-x="370" d="M351 502q8 0 8 -8v-57q0 -8 -8 -8h-201v-421q0 -8 -8 -8h-63q-9 0 -9 8v486q0 8 9 8h272z" />
<glyph unicode="&#x434;" horiz-adv-x="520" d="M498 72q8 0 8 -8v-191q0 -9 -8 -9h-41q-8 0 -10 8l-17 128h-350l-17 -128q-2 -8 -10 -8h-41q-8 0 -8 9v191q0 8 8 8h39q25 41 34.5 87t9.5 123v212q0 8 9 8h330q8 0 8 -8v-422h56zM175 431v-149q0 -138 -39 -210h226v359h-187z" />
<glyph unicode="&#x435;" horiz-adv-x="522" d="M458 233h-318v-74q0 -53 25 -74t96 -21h6q71 0 95.5 20.5t24.5 72.5v2q0 8 9 8h62q8 0 8 -8v-2q0 -85 -45.5 -125t-153.5 -40h-6q-109 0 -155 40.5t-46 126.5v185q0 86 46 126t155 40h6q108 0 153.5 -40t45.5 -126v-102q0 -9 -8 -9zM261 438q-71 0 -96 -21t-25 -73v-47 h247v47q0 52 -24.5 73t-95.5 21h-6z" />
<glyph unicode="&#x436;" horiz-adv-x="671" d="M656 10q3 -4 1.5 -7t-6.5 -3h-73q-8 0 -10 5l-119 214h-73v-211q0 -8 -9 -8h-63q-8 0 -8 8v211h-74l-118 -214q-5 -5 -10 -5h-74q-11 0 -5 10l141 244l-137 238q-3 4 -1.5 7t6.5 3h74q5 0 10 -5l113 -204h75v201q0 8 8 8h63q9 0 9 -8v-201h75l113 204q2 5 10 5h73 q4 0 6 -3t0 -7l-137 -238z" />
<glyph unicode="&#x437;" horiz-adv-x="482" d="M356 253q44 -9 63 -33.5t19 -73.5v-11q0 -75 -44 -109t-150 -34h-6q-106 0 -150 34t-44 109v21q0 8 8 8h63q9 0 9 -8v-21q0 -41 22.5 -56t91.5 -15h6q68 0 91 15t23 56v11q0 41 -23 56t-91 15h-60q-9 0 -9 8v55q0 8 9 8h60q65 0 87 15.5t22 56.5v8q0 40 -22 55t-87 15h-6 q-65 0 -87 -15t-22 -55v-21q0 -9 -8 -9h-63q-9 0 -9 9v21q0 74 43.5 108t145.5 34h6q102 0 145.5 -34t43.5 -108v-8q0 -49 -17.5 -73.5t-59.5 -33.5z" />
<glyph unicode="&#x438;" horiz-adv-x="549" d="M470 502q9 0 9 -8v-486q0 -8 -9 -8h-62q-9 0 -9 8v235q0 86 4 150q-31 -59 -74 -123l-173 -265q-4 -5 -10 -5h-67q-9 0 -9 8v486q0 8 9 8h62q9 0 9 -8v-235q0 -86 -4 -150q27 52 75 123l172 265q4 5 10 5h67z" />
<glyph unicode="&#x439;" horiz-adv-x="549" d="M275 566q-59 0 -85 20.5t-26 66.5v24q0 8 8 8h41q8 0 8 -8v-24q0 -22 11 -30.5t43 -8.5h4q32 0 43 8.5t11 30.5v24q0 8 8 8h41q8 0 8 -8v-24q0 -45 -26 -66t-85 -21h-4zM470 502q9 0 9 -8v-486q0 -8 -9 -8h-62q-9 0 -9 8v235q0 86 4 150q-31 -59 -74 -123l-173 -265 q-4 -5 -10 -5h-67q-9 0 -9 8v486q0 8 9 8h62q9 0 9 -8v-235q0 -86 -4 -150q27 52 75 123l172 265q4 5 10 5h67z" />
<glyph unicode="&#x43a;" horiz-adv-x="473" d="M458 10q7 -10 -5 -10h-73q-7 0 -11 5l-146 214h-73v-211q0 -8 -8 -8h-63q-9 0 -9 8v486q0 8 9 8h63q8 0 8 -8v-201h77l138 204q4 5 11 5h73q12 0 5 -10l-164 -239z" />
<glyph unicode="&#x43b;" horiz-adv-x="516" d="M437 502q9 0 9 -8v-486q0 -8 -9 -8h-63q-8 0 -8 8v417h-180l-11 -208q-4 -74 -11.5 -115t-26 -66.5t-44.5 -33t-72 -7.5h-5q-9 0 -9 9v56q0 8 9 8h5q44 0 56.5 24.5t17.5 124.5l14 277q0 8 8 8h320z" />
<glyph unicode="&#x43c;" horiz-adv-x="650" d="M571 502q8 0 8 -8v-486q0 -8 -8 -8h-61q-8 0 -8 8v240q0 75 5 149q-26 -71 -65 -149l-78 -159q-3 -7 -10 -7h-59q-6 0 -9 7l-79 159q-45 95 -63 148q4 -77 4 -148v-240q0 -8 -9 -8h-60q-9 0 -9 8v486q0 8 9 8h79q6 0 9 -6l121 -246q26 -56 37 -87q13 39 37 87l120 246 q3 6 10 6h79z" />
<glyph unicode="&#x43d;" horiz-adv-x="529" d="M451 502q8 0 8 -8v-486q0 -8 -8 -8h-64q-8 0 -8 8v211h-229v-211q0 -8 -8 -8h-63q-9 0 -9 8v486q0 8 9 8h63q8 0 8 -8v-201h229v201q0 8 8 8h64z" />
<glyph unicode="&#x43e;" d="M60 159v184q0 86 46.5 126.5t156.5 40.5h6q110 0 156 -40.5t46 -126.5v-184q0 -86 -46 -126.5t-156 -40.5h-6q-110 0 -156.5 40.5t-46.5 126.5zM140 159q0 -52 25 -73t98 -21h6q72 0 97 21t25 73v184q0 52 -25 73t-97 21h-6q-73 0 -98 -21t-25 -73v-184z" />
<glyph unicode="&#x43f;" horiz-adv-x="529" d="M450 502q8 0 8 -8v-486q0 -8 -8 -8h-63q-9 0 -9 8v421h-228v-421q0 -8 -8 -8h-63q-9 0 -9 8v486q0 8 9 8h371z" />
<glyph unicode="&#x440;" horiz-adv-x="533" d="M314 510q85 0 122 -39.5t37 -130.5v-178q0 -91 -37 -130.5t-122 -39.5q-88 0 -164 41v-225q0 -8 -8 -8h-63q-9 0 -9 8v686q0 8 9 8h37q7 0 10 -5l19 -30q78 43 169 43zM393 328q0 65 -18.5 87t-77.5 22q-75 0 -147 -32v-307q70 -33 147 -33q58 0 77 22t19 87v154z" />
<glyph unicode="&#x441;" horiz-adv-x="504" d="M60 159v184q0 86 45.5 126.5t152.5 40.5h6q106 0 151 -40.5t45 -126.5v-8q0 -9 -8 -9h-63q-8 0 -8 9v8q0 52 -24.5 73t-92.5 21h-6q-69 0 -93.5 -21t-24.5 -73v-184q0 -52 24.5 -73t93.5 -21h6q68 0 92.5 21t24.5 73v8q0 9 8 9h63q8 0 8 -9v-8q0 -86 -45 -126.5 t-151 -40.5h-6q-107 0 -152.5 40.5t-45.5 126.5z" />
<glyph unicode="&#x442;" horiz-adv-x="377" d="M364 502q8 0 8 -8v-57q0 -8 -8 -8h-136v-421q0 -8 -8 -8h-63q-9 0 -9 8v421h-135q-9 0 -9 8v57q0 8 9 8h351z" />
<glyph unicode="&#x443;" horiz-adv-x="453" d="M441 502q11 0 7 -9l-249 -688q-3 -7 -10 -7h-64q-12 0 -7 10l70 187l-179 498q-4 9 7 9h66q7 0 9 -6l80 -225q40 -119 58 -194q17 71 58 195l79 224q2 6 10 6h65z" />
<glyph unicode="&#x444;" horiz-adv-x="672" d="M410 506q110 0 156 -40.5t46 -126.5v-176q0 -86 -46 -126.5t-156 -40.5h-34v-188q0 -8 -9 -8h-62q-8 0 -8 8v188h-34q-110 0 -156.5 40.5t-46.5 126.5v176q0 86 46.5 126.5t156.5 40.5h34v186q0 8 8 8h62q9 0 9 -8v-186h34zM263 69h34v364h-34q-73 0 -98 -21t-25 -73 v-176q0 -52 25 -73t98 -21zM532 163v176q0 52 -25 73t-97 21h-34v-364h34q72 0 97 21t25 73z" />
<glyph unicode="&#x445;" horiz-adv-x="445" d="M429 12q4 -5 2.5 -8.5t-6.5 -3.5h-73q-6 0 -10 5l-120 188l-120 -188q-4 -5 -9 -5h-73q-5 0 -6.5 3.5t2.5 8.5l160 245l-152 233q-4 5 -2.5 8.5t6.5 3.5h73q6 0 10 -5l112 -176l111 176q4 5 10 5h73q12 0 4 -12l-152 -233z" />
<glyph unicode="&#x446;" d="M509 72q8 0 8 -8v-191q0 -9 -8 -9h-41q-8 0 -10 8l-17 128h-362q-9 0 -9 8v486q0 8 9 8h63q8 0 8 -8v-421h223v421q0 8 9 8h63q8 0 8 -8v-422h56z" />
<glyph unicode="&#x447;" horiz-adv-x="484" d="M405 502q9 0 9 -8v-486q0 -8 -9 -8h-63q-8 0 -8 8v174q-75 -35 -151 -35q-79 0 -112 36t-33 121v190q0 8 8 8h63q9 0 9 -8v-179q0 -58 14.5 -76t58.5 -18q68 0 143 34v239q0 8 8 8h63z" />
<glyph unicode="&#x448;" horiz-adv-x="744" d="M665 502q9 0 9 -8v-486q0 -8 -9 -8h-586q-9 0 -9 8v486q0 8 9 8h63q8 0 8 -8v-421h182v421q0 8 9 8h63q8 0 8 -8v-421h182v421q0 8 8 8h63z" />
<glyph unicode="&#x449;" horiz-adv-x="751" d="M730 72q8 0 8 -8v-191q0 -9 -8 -9h-41q-8 0 -10 8l-17 128h-583q-9 0 -9 8v486q0 8 9 8h63q8 0 8 -8v-421h182v421q0 8 9 8h63q8 0 8 -8v-421h182v421q0 8 8 8h63q9 0 9 -8v-422h56z" />
<glyph unicode="&#x44a;" horiz-adv-x="542" d="M359 331q149 0 149 -132v-67q0 -132 -149 -132h-234q-9 0 -9 8v423h-109q-8 0 -8 8v55q0 8 8 8h181q8 0 8 -8v-163h163zM428 132v67q0 32 -16.5 45t-58.5 13h-157v-184h157q42 0 58.5 13t16.5 46z" />
<glyph unicode="&#x44b;" horiz-adv-x="685" d="M303 331q149 0 149 -132v-67q0 -132 -149 -132h-224q-9 0 -9 8v486q0 8 9 8h63q8 0 8 -8v-163h153zM607 502q8 0 8 -8v-486q0 -8 -8 -8h-63q-9 0 -9 8v486q0 8 9 8h63zM372 132v67q0 32 -16.5 45t-58.5 13h-147v-184h147q42 0 58.5 13t16.5 46z" />
<glyph unicode="&#x44c;" horiz-adv-x="496" d="M313 331q149 0 149 -132v-67q0 -132 -149 -132h-234q-9 0 -9 8v486q0 8 9 8h63q8 0 8 -8v-163h163zM382 132v67q0 32 -16.5 45t-58.5 13h-157v-184h157q42 0 58.5 13t16.5 46z" />
<glyph unicode="&#x44d;" horiz-adv-x="508" d="M250 510q107 0 152.5 -40.5t45.5 -126.5v-184q0 -86 -45.5 -126.5t-152.5 -40.5h-6q-106 0 -151 40.5t-45 126.5v8q0 9 8 9h63q8 0 8 -9v-8q0 -52 24.5 -73t92.5 -21h6q69 0 93.5 21t24.5 73v58h-161q-9 0 -9 9v51q0 8 9 8h161v58q0 52 -24.5 73t-93.5 21h-6 q-68 0 -92.5 -21t-24.5 -73v-8q0 -9 -8 -9h-63q-8 0 -8 9v8q0 86 45 126.5t151 40.5h6z" />
<glyph unicode="&#x44e;" horiz-adv-x="719" d="M466 510q103 0 147.5 -40.5t44.5 -126.5v-184q0 -86 -44.5 -126.5t-147.5 -40.5h-6q-103 0 -147.5 40.5t-44.5 126.5v56h-118v-207q0 -8 -8 -8h-63q-9 0 -9 8v486q0 8 9 8h63q8 0 8 -8v-207h118v56q0 86 44.5 126.5t147.5 40.5h6zM578 159v184q0 52 -23.5 73t-88.5 21h-6 q-66 0 -89 -21t-23 -73v-184q0 -52 23 -73t89 -21h6q65 0 88.5 21t23.5 73z" />
<glyph unicode="&#x44f;" horiz-adv-x="484" d="M405 502q8 0 8 -8v-486q0 -8 -8 -8h-63q-9 0 -9 8v172h-112l-90 -174q-3 -6 -9 -6h-70q-5 0 -7 3t1 7l94 176q-94 23 -94 133v44q0 70 37 104.5t117 34.5h205zM205 252h128v178h-128q-45 0 -62 -14.5t-17 -52.5v-44q0 -38 17 -52.5t62 -14.5z" />
<glyph unicode="&#x451;" horiz-adv-x="522" d="M158 580q-9 0 -9 9v88q0 8 9 8h58q9 0 9 -8v-88q0 -9 -9 -9h-58zM308 580q-9 0 -9 9v88q0 8 9 8h58q9 0 9 -8v-88q0 -9 -9 -9h-58zM458 233h-318v-74q0 -53 25 -74t96 -21h6q71 0 95.5 20.5t24.5 72.5v2q0 8 9 8h62q8 0 8 -8v-2q0 -85 -45.5 -125t-153.5 -40h-6 q-109 0 -155 40.5t-46 126.5v185q0 86 46 126t155 40h6q108 0 153.5 -40t45.5 -126v-102q0 -9 -8 -9zM261 438q-71 0 -96 -21t-25 -73v-47h247v47q0 52 -24.5 73t-95.5 21h-6z" />
<glyph unicode="&#x452;" horiz-adv-x="536" d="M312 476q85 0 122 -40t37 -131v-358q0 -85 -35 -120t-121 -35h-29q-8 0 -8 8v53q0 8 8 8h25q47 0 63.5 19t16.5 73v341q0 65 -18.5 86.5t-77.5 21.5q-77 0 -145 -31v-363q0 -8 -8 -8h-63q-9 0 -9 8v560h-39q-8 0 -8 8v38q0 9 8 9h39v69q0 8 9 8h63q8 0 8 -8v-69h157 q8 0 8 -9v-38q0 -8 -8 -8h-157v-134q74 42 162 42z" />
<glyph unicode="&#x453;" horiz-adv-x="370" d="M155 569q-6 0 -7.5 3t2.5 7l97 102q4 4 11 4h72q3 0 5 -1.5t1.5 -4t-3.5 -4.5l-111 -102q-6 -4 -10 -4h-57zM351 502q8 0 8 -8v-57q0 -8 -8 -8h-201v-421q0 -8 -8 -8h-63q-9 0 -9 8v486q0 8 9 8h272z" />
<glyph unicode="&#x454;" horiz-adv-x="508" d="M389 326q-8 0 -8 9v8q0 52 -24.5 73t-92.5 21h-6q-69 0 -93.5 -21t-24.5 -73v-58h161q9 0 9 -8v-51q0 -9 -9 -9h-161v-58q0 -52 24.5 -73t93.5 -21h6q68 0 92.5 21t24.5 73v8q0 9 8 9h63q8 0 8 -9v-8q0 -86 -45 -126.5t-151 -40.5h-6q-107 0 -152.5 40.5t-45.5 126.5v184 q0 86 45.5 126.5t152.5 40.5h6q106 0 151 -40.5t45 -126.5v-8q0 -9 -8 -9h-63z" />
<glyph unicode="&#x455;" horiz-adv-x="474" d="M41 126v33q0 8 9 8h62q8 0 8 -8v-33q0 -32 26 -47t89 -15h6q63 0 88 15t25 47v15q0 25 -12 37.5t-52 23.5l-129 36q-62 18 -87.5 47t-25.5 78v14q0 133 186 133h6q186 0 186 -133v-33q0 -9 -8 -9h-62q-9 0 -9 9v33q0 31 -23.5 46t-83.5 15h-6q-60 0 -83 -14.5t-23 -46.5 v-14q0 -24 12.5 -35.5t53.5 -23.5l129 -35q60 -16 85 -46t25 -82v-15q0 -134 -192 -134h-6q-194 0 -194 134z" />
<glyph unicode="&#x456;" horiz-adv-x="221" d="M79 580q-9 0 -9 9v88q0 8 9 8h63q8 0 8 -8v-88q0 -9 -8 -9h-63zM79 0q-9 0 -9 8v486q0 8 9 8h63q8 0 8 -8v-486q0 -8 -8 -8h-63z" />
<glyph unicode="&#x457;" horiz-adv-x="221" d="M6 580q-9 0 -9 9v88q0 8 9 8h58q9 0 9 -8v-88q0 -9 -9 -9h-58zM156 580q-9 0 -9 9v88q0 8 9 8h58q9 0 9 -8v-88q0 -9 -9 -9h-58zM79 0q-9 0 -9 8v486q0 8 9 8h63q8 0 8 -8v-486q0 -8 -8 -8h-63z" />
<glyph unicode="&#x458;" horiz-adv-x="221" d="M79 580q-9 0 -9 9v88q0 8 9 8h63q8 0 8 -8v-88q0 -9 -8 -9h-63zM-35 -208q-8 0 -8 8v54q0 9 8 9h26q46 0 62.5 19t16.5 73v539q0 8 9 8h63q8 0 8 -8v-547q0 -85 -34.5 -120t-121.5 -35h-29z" />
<glyph unicode="&#x459;" horiz-adv-x="770" d="M587 331q150 0 150 -132v-67q0 -132 -150 -132h-224q-8 0 -8 8v417h-169l-11 -208q-4 -74 -11.5 -115t-26 -66.5t-44.5 -33t-72 -7.5h-7q-7 0 -7 9v56q0 8 9 8h5q44 0 56.5 24.5t17.5 124.5l14 277q0 8 8 8h309q9 0 9 -8v-163h152zM657 132v67q0 32 -16.5 45t-58.5 13 h-147v-184h147q42 0 58.5 13t16.5 46z" />
<glyph unicode="&#x45a;" horiz-adv-x="784" d="M601 303q150 0 150 -132v-39q0 -132 -150 -132h-224q-8 0 -8 8v221h-219v-221q0 -8 -8 -8h-63q-9 0 -9 8v486q0 8 9 8h63q8 0 8 -8v-191h219v191q0 8 8 8h64q8 0 8 -8v-191h152zM671 132v39q0 32 -16.5 45t-58.5 13h-147v-156h147q42 0 58.5 13t16.5 46z" />
<glyph unicode="&#x45b;" horiz-adv-x="536" d="M312 476q85 0 122 -40t37 -131v-297q0 -8 -8 -8h-64q-8 0 -8 8v286q0 65 -18.5 86.5t-77.5 21.5q-77 0 -145 -31v-363q0 -8 -8 -8h-63q-9 0 -9 8v560h-39q-8 0 -8 8v38q0 9 8 9h39v69q0 8 9 8h63q8 0 8 -8v-69h157q8 0 8 -9v-38q0 -8 -8 -8h-157v-134q74 42 162 42z" />
<glyph unicode="&#x45c;" horiz-adv-x="473" d="M191 569q-6 0 -7.5 3t2.5 7l97 102q4 4 11 4h72q3 0 5 -1.5t1.5 -4t-3.5 -4.5l-111 -102q-6 -4 -10 -4h-57zM458 10q7 -10 -5 -10h-73q-7 0 -11 5l-146 214h-73v-211q0 -8 -8 -8h-63q-9 0 -9 8v486q0 8 9 8h63q8 0 8 -8v-201h77l138 204q4 5 11 5h73q12 0 5 -10 l-164 -239z" />
<glyph unicode="&#x45d;" horiz-adv-x="549" d="M266 573l-111 102q-4 4 -2.5 7t7.5 3h71q6 0 10 -4l97 -102q4 -4 2.5 -7t-6.5 -3h-57q-6 0 -11 4zM470 502q9 0 9 -8v-486q0 -8 -9 -8h-62q-9 0 -9 8v235q0 86 4 150q-31 -59 -74 -123l-173 -265q-4 -5 -10 -5h-67q-9 0 -9 8v486q0 8 9 8h62q9 0 9 -8v-235q0 -86 -4 -150 q27 52 75 123l172 265q4 5 10 5h67z" />
<glyph unicode="&#x45e;" horiz-adv-x="453" d="M227 566q-59 0 -85 20.5t-26 66.5v24q0 8 8 8h41q8 0 8 -8v-24q0 -22 11 -30.5t43 -8.5h4q32 0 43 8.5t11 30.5v24q0 8 8 8h41q8 0 8 -8v-24q0 -45 -26 -66t-85 -21h-4zM441 502q11 0 7 -9l-249 -688q-3 -7 -10 -7h-64q-12 0 -7 10l70 187l-179 498q-4 9 7 9h66q7 0 9 -6 l80 -225q40 -119 58 -194q17 71 58 195l79 224q2 6 10 6h65z" />
<glyph unicode="&#x45f;" horiz-adv-x="525" d="M446 502q9 0 9 -8v-486q0 -8 -9 -8h-144l-7 -127q0 -9 -9 -9h-47q-9 0 -9 9l-6 127h-145q-9 0 -9 8v486q0 8 9 8h63q8 0 8 -8v-421h225v421q0 8 8 8h63z" />
<glyph unicode="&#x462;" horiz-adv-x="637" d="M423 392q96 0 138.5 -39.5t42.5 -119.5v-73q0 -80 -42.5 -120t-138.5 -40h-253q-8 0 -8 8v494h-155q-8 0 -8 9v53q0 8 8 8h155v77q0 8 8 8h63q9 0 9 -8v-77h194q9 0 9 -8v-53q0 -9 -9 -9h-194v-110h181zM524 162v69q0 52 -24 70t-97 18h-161v-246h161q73 0 97 18t24 71z " />
<glyph unicode="&#x463;" horiz-adv-x="526" d="M343 325q149 0 149 -132v-61q0 -132 -149 -132h-234q-9 0 -9 8v430h-93q-8 0 -8 8v50q0 8 8 8h93v188q0 8 9 8h63q8 0 8 -8v-188h162q9 0 9 -8v-50q0 -8 -9 -8h-162v-113h163zM412 132v61q0 32 -16.5 45t-58.5 13h-157v-178h157q42 0 58.5 13t16.5 46z" />
<glyph unicode="&#x472;" horiz-adv-x="594" d="M300 653q128 0 178 -40t50 -129v-323q0 -89 -50 -129t-178 -40h-6q-128 0 -178.5 40t-50.5 129v323q0 89 50.5 129t178.5 40h6zM294 580q-90 0 -119.5 -21t-29.5 -75v-127h303v127q0 54 -29 75t-119 21h-6zM300 65q90 0 119 21t29 75v128h-303v-128q0 -54 29.5 -75 t119.5 -21h6z" />
<glyph unicode="&#x473;" d="M269 510q110 0 156 -40.5t46 -126.5v-184q0 -86 -46 -126.5t-156 -40.5h-6q-110 0 -156.5 40.5t-46.5 126.5v184q0 86 46.5 126.5t156.5 40.5h6zM263 437q-73 0 -98 -21t-25 -73v-60h251v60q0 52 -25 73t-97 21h-6zM269 65q72 0 97 21t25 73v60h-251v-60q0 -52 25 -73 t98 -21h6z" />
<glyph unicode="&#x474;" horiz-adv-x="541" d="M554 653q9 0 9 -8v-57q0 -8 -9 -8h-12q-25 0 -38.5 -12t-23.5 -44l-170 -518q-2 -6 -10 -6h-69q-7 0 -9 6l-207 629q-3 10 7 10h67q7 0 9 -6l113 -349q34 -101 55 -198q19 90 54 198l77 234q24 77 54 103t91 26h12z" />
<glyph unicode="&#x475;" horiz-adv-x="471" d="M471 510q9 0 9 -8v-57q0 -8 -9 -8h-10q-20 0 -29 -8.5t-19 -36.5l-139 -386q-2 -6 -10 -6h-70q-8 0 -10 6l-175 487q-3 9 7 9h66q8 0 10 -6l78 -223q42 -127 59 -197q17 70 59 197l43 119q25 75 48.5 96.5t75.5 21.5h16z" />
<glyph unicode="&#x490;" horiz-adv-x="453" d="M425 750q9 0 9 -8v-162q0 -8 -9 -8h-270v-564q0 -8 -8 -8h-63q-9 0 -9 8v629q0 8 9 8h278l15 97q1 8 9 8h39z" />
<glyph unicode="&#x491;" horiz-adv-x="370" d="M351 623q8 0 8 -8v-178q0 -8 -8 -8h-201v-421q0 -8 -8 -8h-63q-9 0 -9 8v486q0 8 9 8h206l17 113q2 8 10 8h39z" />
<glyph unicode="&#x492;" horiz-adv-x="473" d="M445 645q9 0 9 -8v-57q0 -8 -9 -8h-270v-243h204q9 0 9 -8v-55q0 -8 -9 -8h-204v-250q0 -8 -8 -8h-63q-9 0 -9 8v250h-87q-8 0 -8 8v55q0 8 8 8h87v308q0 8 9 8h341z" />
<glyph unicode="&#x493;" horiz-adv-x="376" d="M357 502q8 0 8 -8v-57q0 -8 -8 -8h-201v-143h146q8 0 8 -8v-52q0 -8 -8 -8h-146v-210q0 -8 -8 -8h-63q-9 0 -9 8v210h-60q-9 0 -9 8v52q0 8 9 8h60v208q0 8 9 8h272z" />
<glyph unicode="&#x496;" horiz-adv-x="818" d="M804 72q8 0 8 -8v-191q0 -9 -8 -9h-41q-8 0 -10 8l-17 128h-29q-7 0 -10 6l-156 282h-99v-280q0 -8 -8 -8h-63q-9 0 -9 8v280h-99l-156 -282q-3 -6 -9 -6h-73q-12 0 -6 10l177 315l-173 310q-6 10 6 10h72q6 0 9 -6l153 -278h99v276q0 8 9 8h63q8 0 8 -8v-276h99l153 278 q3 6 10 6h71q11 0 7 -10l-174 -310l143 -253h53z" />
<glyph unicode="&#x497;" horiz-adv-x="683" d="M666 72q8 0 8 -8v-191q0 -9 -8 -9h-41q-8 0 -10 8l-17 128h-22q-7 2 -8 5l-119 214h-73v-211q0 -8 -9 -8h-63q-8 0 -8 8v211h-74l-118 -214q-5 -5 -10 -5h-74q-11 0 -5 10l141 244l-137 238q-3 4 -1.5 7t6.5 3h74q5 0 10 -5l113 -204h75v201q0 8 8 8h63q9 0 9 -8v-201h75 l113 204q2 5 10 5h73q4 0 6 -3t0 -7l-137 -238l104 -182h46z" />
<glyph unicode="&#x49a;" horiz-adv-x="559" d="M546 72q8 0 8 -8v-191q0 -9 -8 -9h-41q-8 0 -10 8l-17 128h-30q-6 0 -10 5l-184 283h-99v-280q0 -8 -8 -8h-63q-9 0 -9 8v629q0 8 9 8h63q8 0 8 -8v-276h99l181 279q4 5 9 5h72q12 0 6 -10l-202 -310l165 -253h61z" />
<glyph unicode="&#x49b;" horiz-adv-x="485" d="M468 72q8 0 8 -8v-191q0 -9 -8 -9h-41q-8 0 -10 8l-17 128h-22q-6 0 -9 5l-146 214h-73v-211q0 -8 -8 -8h-63q-9 0 -9 8v486q0 8 9 8h63q8 0 8 -8v-201h77l138 204q4 5 11 5h73q12 0 5 -10l-164 -239l125 -181h53z" />
<glyph unicode="&#x4a2;" horiz-adv-x="609" d="M587 72q8 0 8 -8v-191q0 -9 -8 -9h-41q-8 0 -10 8l-17 128h-65q-8 0 -8 8v280h-291v-280q0 -8 -8 -8h-63q-9 0 -9 8v629q0 8 9 8h63q8 0 8 -8v-276h291v276q0 8 8 8h64q8 0 8 -8v-565h61z" />
<glyph unicode="&#x4a3;" horiz-adv-x="537" d="M515 72q8 0 8 -8v-191q0 -9 -8 -9h-41q-8 0 -10 8l-17 128h-60q-8 0 -8 8v211h-229v-211q0 -8 -8 -8h-63q-9 0 -9 8v486q0 8 9 8h63q8 0 8 -8v-201h229v201q0 8 8 8h64q8 0 8 -8v-422h56z" />
<glyph unicode="&#x4ae;" horiz-adv-x="485" d="M476 645q11 0 6 -10l-199 -394v-233q0 -8 -9 -8h-63q-8 0 -8 8v231l-200 396q-5 10 6 10h68q6 0 9 -6l87 -175q46 -92 70 -161q23 69 69 161l87 175q3 6 9 6h68z" />
<glyph unicode="&#x4af;" horiz-adv-x="458" d="M442 502q11 0 7 -9l-181 -504v-181q0 -8 -9 -8h-59q-9 0 -9 8v181l-182 504q-4 9 7 9h66q8 0 10 -6l78 -223q42 -127 59 -197q17 70 59 197l78 223q2 6 10 6h66z" />
<glyph unicode="&#x4b0;" horiz-adv-x="485" d="M476 645q11 0 6 -10l-182 -361h108q9 0 9 -8v-52q0 -8 -9 -8h-125v-198q0 -8 -9 -8h-63q-8 0 -8 8v198h-126q-8 0 -8 8v52q0 8 8 8h108l-182 361q-5 10 6 10h68q6 0 9 -6l87 -175q46 -92 70 -161q23 69 69 161l87 175q3 6 9 6h68z" />
<glyph unicode="&#x4b1;" horiz-adv-x="458" d="M442 502q11 0 7 -9l-177 -493h133q8 0 8 -8v-52q0 -8 -8 -8h-137v-124q0 -8 -9 -8h-59q-9 0 -9 8v124h-134q-9 0 -9 8v52q0 8 9 8h130l-178 493q-4 9 7 9h66q8 0 10 -6l78 -223q42 -127 59 -197q17 70 59 197l78 223q2 6 10 6h66z" />
<glyph unicode="&#x4b2;" horiz-adv-x="524" d="M511 72q8 0 8 -8v-191q0 -9 -8 -9h-41q-8 0 -10 8l-17 128h-30q-7 0 -10 5l-146 244l-147 -244q-3 -5 -9 -5h-73q-11 0 -6 10l191 317l-186 308q-5 10 5 10h73q7 0 10 -5l142 -237l141 237q5 5 10 5h73q12 0 5 -10l-186 -309l153 -254h58z" />
<glyph unicode="&#x4b3;" horiz-adv-x="458" d="M441 72q8 0 8 -8v-191q0 -9 -8 -9h-41q-8 0 -10 8l-17 128h-22q-5 0 -9 5l-120 188l-120 -188q-4 -5 -9 -5h-73q-5 0 -6.5 3.5t2.5 8.5l160 245l-152 233q-4 5 -2.5 8.5t6.5 3.5h73q6 0 10 -5l112 -176l111 176q4 5 10 5h73q12 0 4 -12l-152 -233l121 -185h51z" />
<glyph unicode="&#x4b6;" horiz-adv-x="552" d="M531 72q8 0 8 -8v-191q0 -9 -8 -9h-41q-8 0 -10 8l-17 128h-65q-9 0 -9 8v243q-86 -39 -178 -39t-133.5 42t-41.5 134v249q0 8 8 8h63q9 0 9 -8v-237q0 -67 21.5 -91t79.5 -24q83 0 172 40v312q0 8 9 8h63q8 0 8 -8v-565h62z" />
<glyph unicode="&#x4b7;" horiz-adv-x="491" d="M469 72q8 0 8 -8v-191q0 -9 -8 -9h-41q-8 0 -10 8l-17 128h-59q-8 0 -8 8v174q-75 -35 -151 -35q-79 0 -112 36t-33 121v190q0 8 8 8h63q9 0 9 -8v-179q0 -58 14.5 -76t58.5 -18q68 0 143 34v239q0 8 8 8h63q9 0 9 -8v-422h55z" />
<glyph unicode="&#x4ba;" horiz-adv-x="552" d="M333 433q92 0 134 -42t42 -134v-249q0 -8 -8 -8h-64q-8 0 -8 8v237q0 67 -21.5 91t-79.5 24q-84 0 -173 -40v-312q0 -8 -8 -8h-63q-9 0 -9 8v629q0 8 9 8h63q8 0 8 -8v-243q86 39 178 39z" />
<glyph unicode="&#x4bb;" horiz-adv-x="536" d="M312 510q85 0 122 -39.5t37 -130.5v-332q0 -8 -8 -8h-64q-8 0 -8 8v320q0 65 -18.5 87t-77.5 22q-74 0 -145 -31v-398q0 -8 -8 -8h-63q-9 0 -9 8v684q0 8 9 8h63q8 0 8 -8v-223q74 41 162 41z" />
<glyph unicode="&#x4c0;" horiz-adv-x="231" d="M84 0q-9 0 -9 8v629q0 8 9 8h63q8 0 8 -8v-629q0 -8 -8 -8h-63z" />
<glyph unicode="&#x4c1;" horiz-adv-x="804" d="M401 709q-59 0 -85 20.5t-26 66.5v24q0 8 8 8h41q8 0 8 -8v-24q0 -22 11 -30.5t43 -8.5h4q32 0 43 8.5t11 30.5v24q0 8 8 8h41q8 0 8 -8v-24q0 -45 -26 -66t-85 -21h-4zM786 10q4 -10 -7 -10h-72q-7 0 -10 6l-156 282h-99v-280q0 -8 -8 -8h-63q-9 0 -9 8v280h-99 l-156 -282q-3 -6 -9 -6h-73q-12 0 -6 10l177 315l-173 310q-6 10 6 10h72q6 0 9 -6l153 -278h99v276q0 8 9 8h63q8 0 8 -8v-276h99l153 278q3 6 10 6h71q11 0 7 -10l-174 -310z" />
<glyph unicode="&#x4c2;" horiz-adv-x="671" d="M333 566q-59 0 -85 20.5t-26 66.5v24q0 8 8 8h41q8 0 8 -8v-24q0 -22 11 -30.5t43 -8.5h4q32 0 43 8.5t11 30.5v24q0 8 8 8h41q8 0 8 -8v-24q0 -45 -26 -66t-85 -21h-4zM656 10q3 -4 1.5 -7t-6.5 -3h-73q-8 0 -10 5l-119 214h-73v-211q0 -8 -9 -8h-63q-8 0 -8 8v211h-74 l-118 -214q-5 -5 -10 -5h-74q-11 0 -5 10l141 244l-137 238q-3 4 -1.5 7t6.5 3h74q5 0 10 -5l113 -204h75v201q0 8 8 8h63q9 0 9 -8v-201h75l113 204q2 5 10 5h73q4 0 6 -3t0 -7l-137 -238z" />
<glyph unicode="&#x4cf;" horiz-adv-x="221" d="M79 0q-9 0 -9 8v486q0 8 9 8h63q8 0 8 -8v-486q0 -8 -8 -8h-63z" />
<glyph unicode="&#x4d0;" horiz-adv-x="543" d="M270 709q-59 0 -85 20.5t-26 66.5v24q0 8 8 8h41q8 0 8 -8v-24q0 -22 11 -30.5t43 -8.5h4q32 0 43 8.5t11 30.5v24q0 8 8 8h41q8 0 8 -8v-24q0 -45 -26 -66t-85 -21h-4zM528 9q3 -9 -7 -9h-66q-8 0 -10 6l-52 152h-243l-52 -152q-2 -6 -10 -6h-66q-10 0 -7 9l218 630 q2 6 9 6h59q8 0 10 -6zM175 231h193l-46 136q-33 96 -50 168q-18 -72 -51 -168z" />
<glyph unicode="&#x4d1;" horiz-adv-x="511" d="M254 566q-59 0 -85 20.5t-26 66.5v24q0 8 8 8h41q8 0 8 -8v-24q0 -22 11 -30.5t43 -8.5h4q32 0 43 8.5t11 30.5v24q0 8 8 8h41q8 0 8 -8v-24q0 -45 -26 -66t-85 -21h-4zM258 510q99 0 143 -40t44 -123v-339q0 -8 -8 -8h-37q-6 0 -10 5l-19 30q-72 -43 -158 -43 q-167 0 -167 142v15q0 69 38.5 101t127.5 32h153v65q0 50 -22.5 70t-84.5 20h-6q-62 0 -85 -20t-23 -68v-2q0 -9 -9 -9h-62q-8 0 -8 9v2q0 82 43.5 121.5t143.5 39.5h6zM126 134q0 -39 21.5 -56t75.5 -17q73 0 142 33v124h-158q-45 0 -63 -16t-18 -53v-15z" />
<glyph unicode="&#x4d2;" horiz-adv-x="543" d="M167 723q-9 0 -9 9v88q0 8 9 8h58q9 0 9 -8v-88q0 -9 -9 -9h-58zM317 723q-9 0 -9 9v88q0 8 9 8h58q9 0 9 -8v-88q0 -9 -9 -9h-58zM528 9q3 -9 -7 -9h-66q-8 0 -10 6l-52 152h-243l-52 -152q-2 -6 -10 -6h-66q-10 0 -7 9l218 630q2 6 9 6h59q8 0 10 -6zM175 231h193 l-46 136q-33 96 -50 168q-18 -72 -51 -168z" />
<glyph unicode="&#x4d3;" horiz-adv-x="511" d="M151 580q-9 0 -9 9v88q0 8 9 8h58q9 0 9 -8v-88q0 -9 -9 -9h-58zM301 580q-9 0 -9 9v88q0 8 9 8h58q9 0 9 -8v-88q0 -9 -9 -9h-58zM258 510q99 0 143 -40t44 -123v-339q0 -8 -8 -8h-37q-6 0 -10 5l-19 30q-72 -43 -158 -43q-167 0 -167 142v15q0 69 38.5 101t127.5 32 h153v65q0 50 -22.5 70t-84.5 20h-6q-62 0 -85 -20t-23 -68v-2q0 -9 -9 -9h-62q-8 0 -8 9v2q0 82 43.5 121.5t143.5 39.5h6zM126 134q0 -39 21.5 -56t75.5 -17q73 0 142 33v124h-158q-45 0 -63 -16t-18 -53v-15z" />
<glyph unicode="&#x4d4;" horiz-adv-x="830" d="M783 572h-294v-209h264q8 0 8 -8v-56q0 -9 -8 -9h-264v-217h294q8 0 8 -8v-57q0 -8 -8 -8h-365q-9 0 -9 8v148h-229l-78 -150q-2 -6 -10 -6h-70q-11 0 -6 10l327 629q3 6 10 6h430q8 0 8 -8v-57q0 -8 -8 -8zM217 228h192v344h-13z" />
<glyph unicode="&#x4d5;" horiz-adv-x="806" d="M743 232h-303v-73q0 -53 23.5 -74t89.5 -21h6q66 0 89.5 21t23.5 72v2q0 9 9 9h62q8 0 8 -9v-2q0 -85 -44.5 -125t-147.5 -40h-6q-118 0 -162 56q-83 -56 -182 -56q-163 0 -163 142v15q0 68 39 101t126 33h150v60q0 52 -22.5 73t-83.5 21h-6q-61 0 -83.5 -20.5 t-22.5 -71.5v-3q0 -8 -8 -8h-62q-9 0 -9 8v3q0 84 43 124.5t142 40.5h6q108 0 147 -58q39 58 151 58h6q103 0 147.5 -40.5t44.5 -126.5v-102q0 -9 -8 -9zM553 438q-66 0 -89.5 -21t-23.5 -74v-48h232v48q0 53 -23.5 74t-89.5 21h-6zM220 61q74 0 147 40q-6 26 -6 58v59h-153 q-45 0 -64 -16.5t-19 -52.5v-15q0 -38 22 -55.5t73 -17.5z" />
<glyph unicode="&#x4d6;" horiz-adv-x="497" d="M260 709q-59 0 -85 20.5t-26 66.5v24q0 8 8 8h41q8 0 8 -8v-24q0 -22 11 -30.5t43 -8.5h4q32 0 43 8.5t11 30.5v24q0 8 8 8h41q8 0 8 -8v-24q0 -45 -26 -66t-85 -21h-4zM449 572h-294v-209h264q8 0 8 -8v-56q0 -9 -8 -9h-264v-217h294q8 0 8 -8v-57q0 -8 -8 -8h-365 q-9 0 -9 8v629q0 8 9 8h365q8 0 8 -8v-57q0 -8 -8 -8z" />
<glyph unicode="&#x4d7;" horiz-adv-x="522" d="M261 566q-59 0 -85 20.5t-26 66.5v24q0 8 8 8h41q8 0 8 -8v-24q0 -22 11 -30.5t43 -8.5h4q32 0 43 8.5t11 30.5v24q0 8 8 8h41q8 0 8 -8v-24q0 -45 -26 -66t-85 -21h-4zM458 233h-318v-74q0 -53 25 -74t96 -21h6q71 0 95.5 20.5t24.5 72.5v2q0 8 9 8h62q8 0 8 -8v-2 q0 -85 -45.5 -125t-153.5 -40h-6q-109 0 -155 40.5t-46 126.5v185q0 86 46 126t155 40h6q108 0 153.5 -40t45.5 -126v-102q0 -9 -8 -9zM261 438q-71 0 -96 -21t-25 -73v-47h247v47q0 52 -24.5 73t-95.5 21h-6z" />
<glyph unicode="&#x4d8;" horiz-adv-x="582" d="M292 653q125 0 175 -40t50 -129v-323q0 -89 -50 -129t-175 -40h-6q-126 0 -176 40t-50 129v164q0 8 9 8h368v151q0 54 -29 75t-116 21h-6q-88 0 -117 -21t-29 -75v-19q0 -8 -8 -8h-63q-9 0 -9 8v19q0 89 50 129t176 40h6zM292 65q87 0 116 21t29 75v99h-297v-99 q0 -54 29 -75t117 -21h6z" />
<glyph unicode="&#x4d9;" horiz-adv-x="522" d="M261 510q109 0 155 -40.5t46 -126.5v-185q0 -86 -46 -126t-155 -40h-6q-108 0 -153.5 40t-45.5 126v102q0 9 8 9h318v74q0 53 -25 74t-96 21h-6q-71 0 -95.5 -20.5t-24.5 -72.5v-2q0 -8 -9 -8h-62q-8 0 -8 8v2q0 85 45.5 125t153.5 40h6zM261 64q71 0 96 21t25 73v47 h-247v-47q0 -52 24.5 -73t95.5 -21h6z" />
<glyph unicode="&#x4da;" horiz-adv-x="582" d="M184 723q-9 0 -9 9v88q0 8 9 8h58q9 0 9 -8v-88q0 -9 -9 -9h-58zM334 723q-9 0 -9 9v88q0 8 9 8h58q9 0 9 -8v-88q0 -9 -9 -9h-58zM292 653q125 0 175 -40t50 -129v-323q0 -89 -50 -129t-175 -40h-6q-126 0 -176 40t-50 129v164q0 8 9 8h368v151q0 54 -29 75t-116 21h-6 q-88 0 -117 -21t-29 -75v-19q0 -8 -8 -8h-63q-9 0 -9 8v19q0 89 50 129t176 40h6zM292 65q87 0 116 21t29 75v99h-297v-99q0 -54 29 -75t117 -21h6z" />
<glyph unicode="&#x4db;" horiz-adv-x="522" d="M154 580q-9 0 -9 9v88q0 8 9 8h58q9 0 9 -8v-88q0 -9 -9 -9h-58zM304 580q-9 0 -9 9v88q0 8 9 8h58q9 0 9 -8v-88q0 -9 -9 -9h-58zM261 510q109 0 155 -40.5t46 -126.5v-185q0 -86 -46 -126t-155 -40h-6q-108 0 -153.5 40t-45.5 126v102q0 9 8 9h318v74q0 53 -25 74 t-96 21h-6q-71 0 -95.5 -20.5t-24.5 -72.5v-2q0 -8 -9 -8h-62q-8 0 -8 8v2q0 85 45.5 125t153.5 40h6zM261 64q71 0 96 21t25 73v47h-247v-47q0 -52 24.5 -73t95.5 -21h6z" />
<glyph unicode="&#x4dc;" horiz-adv-x="804" d="M298 723q-9 0 -9 9v88q0 8 9 8h58q9 0 9 -8v-88q0 -9 -9 -9h-58zM448 723q-9 0 -9 9v88q0 8 9 8h58q9 0 9 -8v-88q0 -9 -9 -9h-58zM786 10q4 -10 -7 -10h-72q-7 0 -10 6l-156 282h-99v-280q0 -8 -8 -8h-63q-9 0 -9 8v280h-99l-156 -282q-3 -6 -9 -6h-73q-12 0 -6 10 l177 315l-173 310q-6 10 6 10h72q6 0 9 -6l153 -278h99v276q0 8 9 8h63q8 0 8 -8v-276h99l153 278q3 6 10 6h71q11 0 7 -10l-174 -310z" />
<glyph unicode="&#x4dd;" horiz-adv-x="671" d="M230 580q-9 0 -9 9v88q0 8 9 8h58q9 0 9 -8v-88q0 -9 -9 -9h-58zM380 580q-9 0 -9 9v88q0 8 9 8h58q9 0 9 -8v-88q0 -9 -9 -9h-58zM656 10q3 -4 1.5 -7t-6.5 -3h-73q-8 0 -10 5l-119 214h-73v-211q0 -8 -9 -8h-63q-8 0 -8 8v211h-74l-118 -214q-5 -5 -10 -5h-74 q-11 0 -5 10l141 244l-137 238q-3 4 -1.5 7t6.5 3h74q5 0 10 -5l113 -204h75v201q0 8 8 8h63q9 0 9 -8v-201h75l113 204q2 5 10 5h73q4 0 6 -3t0 -7l-137 -238z" />
<glyph unicode="&#x4de;" horiz-adv-x="526" d="M157 723q-9 0 -9 9v88q0 8 9 8h58q9 0 9 -8v-88q0 -9 -9 -9h-58zM307 723q-9 0 -9 9v88q0 8 9 8h58q9 0 9 -8v-88q0 -9 -9 -9h-58zM383 328q54 -12 76 -42.5t22 -90.5v-34q0 -88 -48 -128.5t-168 -40.5h-6q-120 0 -168 40.5t-48 128.5v23q0 9 9 9h63q8 0 8 -9v-23 q0 -54 27.5 -75t108.5 -21h6q81 0 108.5 21t27.5 75v34q0 54 -27.5 74.5t-108.5 20.5h-78q-8 0 -8 9v56q0 8 8 8h73q80 0 107 21.5t27 74.5v25q0 54 -26 75t-103 21h-6q-77 0 -103 -21t-26 -75v-31q0 -9 -9 -9h-63q-8 0 -8 9v31q0 88 47 128.5t162 40.5h6q115 0 162 -40.5 t47 -128.5v-25q0 -58 -20.5 -88t-70.5 -43z" />
<glyph unicode="&#x4df;" horiz-adv-x="482" d="M135 580q-9 0 -9 9v88q0 8 9 8h58q9 0 9 -8v-88q0 -9 -9 -9h-58zM285 580q-9 0 -9 9v88q0 8 9 8h58q9 0 9 -8v-88q0 -9 -9 -9h-58zM356 253q44 -9 63 -33.5t19 -73.5v-11q0 -75 -44 -109t-150 -34h-6q-106 0 -150 34t-44 109v21q0 8 8 8h63q9 0 9 -8v-21q0 -41 22.5 -56 t91.5 -15h6q68 0 91 15t23 56v11q0 41 -23 56t-91 15h-60q-9 0 -9 8v55q0 8 9 8h60q65 0 87 15.5t22 56.5v8q0 40 -22 55t-87 15h-6q-65 0 -87 -15t-22 -55v-21q0 -9 -8 -9h-63q-9 0 -9 9v21q0 74 43.5 108t145.5 34h6q102 0 145.5 -34t43.5 -108v-8q0 -49 -17.5 -73.5 t-59.5 -33.5z" />
<glyph unicode="&#x4e2;" horiz-adv-x="630" d="M210 724q-9 0 -9 9v45q0 8 9 8h209q9 0 9 -8v-45q0 -9 -9 -9h-209zM546 645q9 0 9 -8v-629q0 -8 -9 -8h-63q-8 0 -8 8v333q0 113 4 187q-36 -76 -106 -187l-211 -336q-2 -5 -9 -5h-69q-8 0 -8 8v629q0 8 8 8h63q9 0 9 -8v-333q0 -114 -5 -188q38 80 106 188l211 336 q2 5 10 5h68z" />
<glyph unicode="&#x4e3;" horiz-adv-x="549" d="M172 581q-9 0 -9 9v45q0 8 9 8h209q9 0 9 -8v-45q0 -9 -9 -9h-209zM470 502q9 0 9 -8v-486q0 -8 -9 -8h-62q-9 0 -9 8v235q0 86 4 150q-31 -59 -74 -123l-173 -265q-4 -5 -10 -5h-67q-9 0 -9 8v486q0 8 9 8h62q9 0 9 -8v-235q0 -86 -4 -150q27 52 75 123l172 265 q4 5 10 5h67z" />
<glyph unicode="&#x4e4;" horiz-adv-x="630" d="M210 723q-9 0 -9 9v88q0 8 9 8h58q9 0 9 -8v-88q0 -9 -9 -9h-58zM360 723q-9 0 -9 9v88q0 8 9 8h58q9 0 9 -8v-88q0 -9 -9 -9h-58zM546 645q9 0 9 -8v-629q0 -8 -9 -8h-63q-8 0 -8 8v333q0 113 4 187q-36 -76 -106 -187l-211 -336q-2 -5 -9 -5h-69q-8 0 -8 8v629q0 8 8 8 h63q9 0 9 -8v-333q0 -114 -5 -188q38 80 106 188l211 336q2 5 10 5h68z" />
<glyph unicode="&#x4e5;" horiz-adv-x="549" d="M172 580q-9 0 -9 9v88q0 8 9 8h58q9 0 9 -8v-88q0 -9 -9 -9h-58zM322 580q-9 0 -9 9v88q0 8 9 8h58q9 0 9 -8v-88q0 -9 -9 -9h-58zM470 502q9 0 9 -8v-486q0 -8 -9 -8h-62q-9 0 -9 8v235q0 86 4 150q-31 -59 -74 -123l-173 -265q-4 -5 -10 -5h-67q-9 0 -9 8v486q0 8 9 8 h62q9 0 9 -8v-235q0 -86 -4 -150q27 52 75 123l172 265q4 5 10 5h67z" />
<glyph unicode="&#x4e6;" horiz-adv-x="594" d="M192 723q-9 0 -9 9v88q0 8 9 8h58q9 0 9 -8v-88q0 -9 -9 -9h-58zM342 723q-9 0 -9 9v88q0 8 9 8h58q9 0 9 -8v-88q0 -9 -9 -9h-58zM65 161v323q0 89 50.5 129t178.5 40h6q128 0 178 -40t50 -129v-323q0 -89 -50 -129t-178 -40h-6q-128 0 -178.5 40t-50.5 129zM145 161 q0 -54 29.5 -75t119.5 -21h6q90 0 119 21t29 75v323q0 54 -29 75t-119 21h-6q-90 0 -119.5 -21t-29.5 -75v-323z" />
<glyph unicode="&#x4e7;" d="M161 580q-9 0 -9 9v88q0 8 9 8h58q9 0 9 -8v-88q0 -9 -9 -9h-58zM311 580q-9 0 -9 9v88q0 8 9 8h58q9 0 9 -8v-88q0 -9 -9 -9h-58zM60 159v184q0 86 46.5 126.5t156.5 40.5h6q110 0 156 -40.5t46 -126.5v-184q0 -86 -46 -126.5t-156 -40.5h-6q-110 0 -156.5 40.5 t-46.5 126.5zM140 159q0 -52 25 -73t98 -21h6q72 0 97 21t25 73v184q0 52 -25 73t-97 21h-6q-73 0 -98 -21t-25 -73v-184z" />
<glyph unicode="&#x4e8;" horiz-adv-x="594" d="M300 653q128 0 178 -40t50 -129v-323q0 -89 -50 -129t-178 -40h-6q-128 0 -178.5 40t-50.5 129v323q0 89 50.5 129t178.5 40h6zM294 580q-90 0 -119.5 -21t-29.5 -75v-127h303v127q0 54 -29 75t-119 21h-6zM300 65q90 0 119 21t29 75v128h-303v-128q0 -54 29.5 -75 t119.5 -21h6z" />
<glyph unicode="&#x4e9;" d="M269 510q110 0 156 -40.5t46 -126.5v-184q0 -86 -46 -126.5t-156 -40.5h-6q-110 0 -156.5 40.5t-46.5 126.5v184q0 86 46.5 126.5t156.5 40.5h6zM263 437q-73 0 -98 -21t-25 -73v-60h251v60q0 52 -25 73t-97 21h-6zM269 65q72 0 97 21t25 73v60h-251v-60q0 -52 25 -73 t98 -21h6z" />
<glyph unicode="&#x4ea;" horiz-adv-x="594" d="M192 723q-9 0 -9 9v88q0 8 9 8h58q9 0 9 -8v-88q0 -9 -9 -9h-58zM342 723q-9 0 -9 9v88q0 8 9 8h58q9 0 9 -8v-88q0 -9 -9 -9h-58zM300 653q128 0 178 -40t50 -129v-323q0 -89 -50 -129t-178 -40h-6q-128 0 -178.5 40t-50.5 129v323q0 89 50.5 129t178.5 40h6zM294 580 q-90 0 -119.5 -21t-29.5 -75v-127h303v127q0 54 -29 75t-119 21h-6zM300 65q90 0 119 21t29 75v128h-303v-128q0 -54 29.5 -75t119.5 -21h6z" />
<glyph unicode="&#x4eb;" d="M161 580q-9 0 -9 9v88q0 8 9 8h58q9 0 9 -8v-88q0 -9 -9 -9h-58zM311 580q-9 0 -9 9v88q0 8 9 8h58q9 0 9 -8v-88q0 -9 -9 -9h-58zM269 510q110 0 156 -40.5t46 -126.5v-184q0 -86 -46 -126.5t-156 -40.5h-6q-110 0 -156.5 40.5t-46.5 126.5v184q0 86 46.5 126.5 t156.5 40.5h6zM263 437q-73 0 -98 -21t-25 -73v-60h251v60q0 52 -25 73t-97 21h-6zM269 65q72 0 97 21t25 73v60h-251v-60q0 -52 25 -73t98 -21h6z" />
<glyph unicode="&#x4ec;" horiz-adv-x="575" d="M180 723q-9 0 -9 9v88q0 8 9 8h58q9 0 9 -8v-88q0 -9 -9 -9h-58zM330 723q-9 0 -9 9v88q0 8 9 8h58q9 0 9 -8v-88q0 -9 -9 -9h-58zM288 653q123 0 172.5 -40.5t49.5 -128.5v-323q0 -88 -49.5 -128.5t-172.5 -40.5h-6q-123 0 -172 40t-49 129v39q0 8 8 8h63q9 0 9 -8v-39 q0 -54 28 -75t113 -21h6q85 0 113.5 21t28.5 75v127h-214q-8 0 -8 8v54q0 8 8 8h214v126q0 54 -28.5 75t-113.5 21h-6q-85 0 -113 -21t-28 -75v-39q0 -8 -9 -8h-63q-8 0 -8 8v39q0 89 49 129t172 40h6z" />
<glyph unicode="&#x4ed;" horiz-adv-x="508" d="M142 580q-9 0 -9 9v88q0 8 9 8h58q9 0 9 -8v-88q0 -9 -9 -9h-58zM292 580q-9 0 -9 9v88q0 8 9 8h58q9 0 9 -8v-88q0 -9 -9 -9h-58zM250 510q107 0 152.5 -40.5t45.5 -126.5v-184q0 -86 -45.5 -126.5t-152.5 -40.5h-6q-106 0 -151 40.5t-45 126.5v8q0 9 8 9h63q8 0 8 -9 v-8q0 -52 24.5 -73t92.5 -21h6q69 0 93.5 21t24.5 73v58h-161q-9 0 -9 9v51q0 8 9 8h161v58q0 52 -24.5 73t-93.5 21h-6q-68 0 -92.5 -21t-24.5 -73v-8q0 -9 -8 -9h-63q-8 0 -8 9v8q0 86 45 126.5t151 40.5h6z" />
<glyph unicode="&#x4ee;" horiz-adv-x="481" d="M140 724q-9 0 -9 9v45q0 8 9 8h209q9 0 9 -8v-45q0 -9 -9 -9h-209zM477 645q10 0 6 -10l-181 -487q-35 -97 -70.5 -125.5t-118.5 -28.5h-53q-8 0 -8 9v56q0 9 8 9h58q44 0 64 14t37 58l-203 495q-3 10 6 10h62q8 0 11 -7l96 -234q41 -100 66 -191q23 93 59 191l88 235 q2 6 10 6h63z" />
<glyph unicode="&#x4ef;" horiz-adv-x="453" d="M124 581q-9 0 -9 9v45q0 8 9 8h209q9 0 9 -8v-45q0 -9 -9 -9h-209zM441 502q11 0 7 -9l-249 -688q-3 -7 -10 -7h-64q-12 0 -7 10l70 187l-179 498q-4 9 7 9h66q7 0 9 -6l80 -225q40 -119 58 -194q17 71 58 195l79 224q2 6 10 6h65z" />
<glyph unicode="&#x4f0;" horiz-adv-x="481" d="M140 723q-9 0 -9 9v88q0 8 9 8h58q9 0 9 -8v-88q0 -9 -9 -9h-58zM290 723q-9 0 -9 9v88q0 8 9 8h58q9 0 9 -8v-88q0 -9 -9 -9h-58zM477 645q10 0 6 -10l-181 -487q-35 -97 -70.5 -125.5t-118.5 -28.5h-53q-8 0 -8 9v56q0 9 8 9h58q44 0 64 14t37 58l-203 495q-3 10 6 10 h62q8 0 11 -7l96 -234q41 -100 66 -191q23 93 59 191l88 235q2 6 10 6h63z" />
<glyph unicode="&#x4f1;" horiz-adv-x="453" d="M124 580q-9 0 -9 9v88q0 8 9 8h58q9 0 9 -8v-88q0 -9 -9 -9h-58zM274 580q-9 0 -9 9v88q0 8 9 8h58q9 0 9 -8v-88q0 -9 -9 -9h-58zM441 502q11 0 7 -9l-249 -688q-3 -7 -10 -7h-64q-12 0 -7 10l70 187l-179 498q-4 9 7 9h66q7 0 9 -6l80 -225q40 -119 58 -194 q17 71 58 195l79 224q2 6 10 6h65z" />
<glyph unicode="&#x4f2;" horiz-adv-x="481" d="M146 712q-5 0 -7 3t0 7l53 100q3 6 9 6h58q5 0 7 -3t0 -7l-65 -101q-4 -5 -10 -5h-45zM280 712q-4 0 -6 3t0 7l52 100q3 6 10 6h58q4 0 6 -3t0 -7l-65 -101q-4 -5 -9 -5h-46zM477 645q10 0 6 -10l-181 -487q-35 -97 -70.5 -125.5t-118.5 -28.5h-53q-8 0 -8 9v56q0 9 8 9 h58q44 0 64 14t37 58l-203 495q-3 10 6 10h62q8 0 11 -7l96 -234q41 -100 66 -191q23 93 59 191l88 235q2 6 10 6h63z" />
<glyph unicode="&#x4f3;" horiz-adv-x="453" d="M130 569q-5 0 -7 3t0 7l53 100q3 6 9 6h58q5 0 7 -3t0 -7l-65 -101q-4 -5 -10 -5h-45zM264 569q-4 0 -6 3t0 7l52 100q3 6 10 6h58q4 0 6 -3t0 -7l-65 -101q-4 -5 -9 -5h-46zM441 502q11 0 7 -9l-249 -688q-3 -7 -10 -7h-64q-12 0 -7 10l70 187l-179 498q-4 9 7 9h66 q7 0 9 -6l80 -225q40 -119 58 -194q17 71 58 195l79 224q2 6 10 6h65z" />
<glyph unicode="&#x4f4;" horiz-adv-x="545" d="M147 723q-9 0 -9 9v88q0 8 9 8h58q9 0 9 -8v-88q0 -9 -9 -9h-58zM297 723q-9 0 -9 9v88q0 8 9 8h58q9 0 9 -8v-88q0 -9 -9 -9h-58zM461 645q8 0 8 -8v-629q0 -8 -8 -8h-63q-9 0 -9 8v243q-86 -39 -178 -39t-133.5 42t-41.5 134v249q0 8 8 8h63q9 0 9 -8v-237 q0 -67 21.5 -91t79.5 -24q83 0 172 40v312q0 8 9 8h63z" />
<glyph unicode="&#x4f5;" horiz-adv-x="484" d="M120 580q-9 0 -9 9v88q0 8 9 8h58q9 0 9 -8v-88q0 -9 -9 -9h-58zM270 580q-9 0 -9 9v88q0 8 9 8h58q9 0 9 -8v-88q0 -9 -9 -9h-58zM405 502q9 0 9 -8v-486q0 -8 -9 -8h-63q-8 0 -8 8v174q-75 -35 -151 -35q-79 0 -112 36t-33 121v190q0 8 8 8h63q9 0 9 -8v-179 q0 -58 14.5 -76t58.5 -18q68 0 143 34v239q0 8 8 8h63z" />
<glyph unicode="&#x4f8;" horiz-adv-x="743" d="M589 820v-88q0 -9 -9 -9h-58q-9 0 -9 9v88q0 8 9 8h58q9 0 9 -8zM730 828q9 0 9 -8v-88q0 -9 -9 -9h-58q-9 0 -9 9v88q0 8 9 8h58zM317 392q96 0 138.5 -39.5t42.5 -119.5v-73q0 -80 -42.5 -120t-138.5 -40h-233q-9 0 -9 8v629q0 8 9 8h63q8 0 8 -8v-245h162zM659 645 q8 0 8 -8v-629q0 -8 -8 -8h-63q-9 0 -9 8v629q0 8 9 8h63zM418 162v69q0 52 -24 70t-97 18h-142v-246h142q73 0 97 18t24 71z" />
<glyph unicode="&#x4f9;" horiz-adv-x="685" d="M538 589q0 -9 -9 -9h-58q-9 0 -9 9v88q0 8 9 8h58q9 0 9 -8v-88zM679 685q9 0 9 -8v-88q0 -9 -9 -9h-58q-9 0 -9 9v88q0 8 9 8h58zM303 331q149 0 149 -132v-67q0 -132 -149 -132h-224q-9 0 -9 8v486q0 8 9 8h63q8 0 8 -8v-163h153zM607 502q8 0 8 -8v-486q0 -8 -8 -8 h-63q-9 0 -9 8v486q0 8 9 8h63zM372 132v67q0 32 -16.5 45t-58.5 13h-147v-184h147q42 0 58.5 13t16.5 46z" />
<glyph unicode="&#x1e80;" horiz-adv-x="835" d="M407 716l-111 102q-4 4 -2.5 7t7.5 3h71q6 0 10 -4l97 -102q4 -4 2.5 -7t-6.5 -3h-57q-6 0 -11 4zM808 645q9 0 6 -10l-176 -628q-1 -7 -9 -7h-64q-8 0 -10 7l-93 332q-30 108 -44 193q-16 -85 -45 -193l-93 -332q-2 -7 -9 -7h-65q-7 0 -9 7l-176 628q-3 10 6 10h68 q8 0 9 -7l92 -332q30 -108 43 -181q12 69 42 181l93 332q1 7 10 7h68q8 0 9 -7l93 -332q27 -92 43 -180q15 86 42 180l92 332q2 7 10 7h67z" />
<glyph unicode="&#x1e81;" horiz-adv-x="734" d="M356 573l-111 102q-4 4 -2.5 7t7.5 3h71q6 0 10 -4l97 -102q4 -4 2.5 -7t-6.5 -3h-57q-6 0 -11 4zM713 502q10 0 7 -9l-147 -486q-1 -7 -9 -7h-76q-7 0 -10 7l-61 204q-34 109 -50 202q-16 -93 -50 -202l-61 -204q-3 -7 -9 -7h-77q-6 0 -9 7l-146 486q-3 9 6 9h66 q8 0 10 -7l64 -218q32 -110 48 -194q17 84 49 194l66 218q2 7 10 7h66q8 0 10 -7l66 -218q34 -118 49 -196q17 88 48 196l64 218q2 7 10 7h66z" />
<glyph unicode="&#x1e82;" horiz-adv-x="835" d="M366 712q-6 0 -7.5 3t2.5 7l97 102q4 4 11 4h72q3 0 5 -1.5t1.5 -4t-3.5 -4.5l-111 -102q-6 -4 -10 -4h-57zM808 645q9 0 6 -10l-176 -628q-1 -7 -9 -7h-64q-8 0 -10 7l-93 332q-30 108 -44 193q-16 -85 -45 -193l-93 -332q-2 -7 -9 -7h-65q-7 0 -9 7l-176 628 q-3 10 6 10h68q8 0 9 -7l92 -332q30 -108 43 -181q12 69 42 181l93 332q1 7 10 7h68q8 0 9 -7l93 -332q27 -92 43 -180q15 86 42 180l92 332q2 7 10 7h67z" />
<glyph unicode="&#x1e83;" horiz-adv-x="734" d="M315 569q-6 0 -7.5 3t2.5 7l97 102q4 4 11 4h72q3 0 5 -1.5t1.5 -4t-3.5 -4.5l-111 -102q-6 -4 -10 -4h-57zM713 502q10 0 7 -9l-147 -486q-1 -7 -9 -7h-76q-7 0 -10 7l-61 204q-34 109 -50 202q-16 -93 -50 -202l-61 -204q-3 -7 -9 -7h-77q-6 0 -9 7l-146 486q-3 9 6 9 h66q8 0 10 -7l64 -218q32 -110 48 -194q17 84 49 194l66 218q2 7 10 7h66q8 0 10 -7l66 -218q34 -118 49 -196q17 88 48 196l64 218q2 7 10 7h66z" />
<glyph unicode="&#x1e84;" horiz-adv-x="835" d="M313 723q-9 0 -9 9v88q0 8 9 8h58q9 0 9 -8v-88q0 -9 -9 -9h-58zM463 723q-9 0 -9 9v88q0 8 9 8h58q9 0 9 -8v-88q0 -9 -9 -9h-58zM808 645q9 0 6 -10l-176 -628q-1 -7 -9 -7h-64q-8 0 -10 7l-93 332q-30 108 -44 193q-16 -85 -45 -193l-93 -332q-2 -7 -9 -7h-65 q-7 0 -9 7l-176 628q-3 10 6 10h68q8 0 9 -7l92 -332q30 -108 43 -181q12 69 42 181l93 332q1 7 10 7h68q8 0 9 -7l93 -332q27 -92 43 -180q15 86 42 180l92 332q2 7 10 7h67z" />
<glyph unicode="&#x1e85;" horiz-adv-x="734" d="M262 580q-9 0 -9 9v88q0 8 9 8h58q9 0 9 -8v-88q0 -9 -9 -9h-58zM412 580q-9 0 -9 9v88q0 8 9 8h58q9 0 9 -8v-88q0 -9 -9 -9h-58zM713 502q10 0 7 -9l-147 -486q-1 -7 -9 -7h-76q-7 0 -10 7l-61 204q-34 109 -50 202q-16 -93 -50 -202l-61 -204q-3 -7 -9 -7h-77 q-6 0 -9 7l-146 486q-3 9 6 9h66q8 0 10 -7l64 -218q32 -110 48 -194q17 84 49 194l66 218q2 7 10 7h66q8 0 10 -7l66 -218q34 -118 49 -196q17 88 48 196l64 218q2 7 10 7h66z" />
<glyph unicode="&#x1ef2;" horiz-adv-x="485" d="M232 716l-111 102q-4 4 -2.5 7t7.5 3h71q6 0 10 -4l97 -102q4 -4 2.5 -7t-6.5 -3h-57q-6 0 -11 4zM476 645q11 0 6 -10l-199 -394v-233q0 -8 -9 -8h-63q-8 0 -8 8v231l-200 396q-5 10 6 10h68q6 0 9 -6l87 -175q46 -92 70 -161q23 69 69 161l87 175q3 6 9 6h68z" />
<glyph unicode="&#x1ef3;" horiz-adv-x="453" d="M218 573l-111 102q-4 4 -2.5 7t7.5 3h71q6 0 10 -4l97 -102q4 -4 2.5 -7t-6.5 -3h-57q-6 0 -11 4zM441 502q11 0 7 -9l-249 -688q-3 -7 -10 -7h-64q-12 0 -7 10l70 187l-179 498q-4 9 7 9h66q7 0 9 -6l80 -225q40 -119 58 -194q17 71 58 195l79 224q2 6 10 6h65z" />
<glyph unicode="&#x2000;" horiz-adv-x="441" />
<glyph unicode="&#x2001;" horiz-adv-x="883" />
<glyph unicode="&#x2002;" horiz-adv-x="441" />
<glyph unicode="&#x2003;" horiz-adv-x="883" />
<glyph unicode="&#x2004;" horiz-adv-x="294" />
<glyph unicode="&#x2005;" horiz-adv-x="220" />
<glyph unicode="&#x2006;" horiz-adv-x="147" />
<glyph unicode="&#x2007;" horiz-adv-x="147" />
<glyph unicode="&#x2008;" horiz-adv-x="110" />
<glyph unicode="&#x2009;" horiz-adv-x="176" />
<glyph unicode="&#x200a;" horiz-adv-x="49" />
<glyph unicode="&#x2010;" horiz-adv-x="328" d="M32 249q-8 0 -8 8v56q0 9 8 9h263q9 0 9 -9v-56q0 -8 -9 -8h-263z" />
<glyph unicode="&#x2011;" horiz-adv-x="328" d="M32 249q-8 0 -8 8v56q0 9 8 9h263q9 0 9 -9v-56q0 -8 -9 -8h-263z" />
<glyph unicode="&#x2012;" horiz-adv-x="328" d="M32 249q-8 0 -8 8v56q0 9 8 9h263q9 0 9 -9v-56q0 -8 -9 -8h-263z" />
<glyph unicode="&#x2013;" horiz-adv-x="448" d="M32 249q-8 0 -8 8v56q0 9 8 9h383q9 0 9 -9v-56q0 -8 -9 -8h-383z" />
<glyph unicode="&#x2014;" horiz-adv-x="808" d="M32 249q-8 0 -8 8v56q0 9 8 9h743q9 0 9 -9v-56q0 -8 -9 -8h-743z" />
<glyph unicode="&#x2018;" horiz-adv-x="155" d="M46 664h24q6 0 10 -7l35 -128q2 -4 2 -11v-85q0 -9 -9 -9h-62q-8 0 -8 9v223q0 8 8 8z" />
<glyph unicode="&#x2019;" horiz-adv-x="155" d="M109 424h-24q-7 0 -10 7l-35 128q-2 4 -2 11v85q0 9 9 9h62q8 0 8 -9v-223q0 -8 -8 -8z" />
<glyph unicode="&#x201a;" horiz-adv-x="155" d="M46 -141q-8 0 -8 8v223q0 9 8 9h62q9 0 9 -9v-85q0 -7 -2 -11l-35 -128q-4 -7 -10 -7h-24z" />
<glyph unicode="&#x201c;" horiz-adv-x="296" d="M46 664h24q6 0 10 -7l35 -128q2 -4 2 -11v-85q0 -9 -9 -9h-62q-8 0 -8 9v223q0 8 8 8zM188 664h24q6 0 10 -7l35 -128q2 -4 2 -11v-85q0 -9 -9 -9h-62q-8 0 -8 9v223q0 8 8 8z" />
<glyph unicode="&#x201d;" horiz-adv-x="296" d="M108 424h-24q-6 0 -10 7l-35 128q-2 4 -2 11v85q0 9 9 9h62q8 0 8 -9v-223q0 -8 -8 -8zM250 424h-24q-6 0 -10 7l-35 128q-2 4 -2 11v85q0 9 9 9h62q8 0 8 -9v-223q0 -8 -8 -8z" />
<glyph unicode="&#x201e;" horiz-adv-x="296" d="M46 -141q-8 0 -8 8v223q0 9 8 9h62q9 0 9 -9v-85q0 -7 -2 -11l-35 -128q-4 -7 -10 -7h-24zM188 -141q-8 0 -8 8v223q0 9 8 9h62q9 0 9 -9v-85q0 -7 -2 -11l-35 -128q-4 -7 -10 -7h-24z" />
<glyph unicode="&#x2020;" horiz-adv-x="442" d="M396 432q8 0 8 -9v-54q0 -8 -8 -8h-136v-353q0 -8 -8 -8h-62q-8 0 -8 8v353h-136q-8 0 -8 8v54q0 9 8 9h136v205q0 8 8 8h62q8 0 8 -8v-205h136z" />
<glyph unicode="&#x2021;" horiz-adv-x="442" d="M396 472q8 0 8 -9v-54q0 -8 -8 -8h-136v-151h123q8 0 8 -9v-54q0 -8 -8 -8h-123v-171q0 -8 -8 -8h-62q-8 0 -8 8v171h-123q-8 0 -8 8v54q0 9 8 9h123v151h-136q-8 0 -8 8v54q0 9 8 9h136v165q0 8 8 8h62q8 0 8 -8v-165h136z" />
<glyph unicode="&#x2022;" horiz-adv-x="323" d="M96 228q-8 0 -8 8v160q0 9 8 9h131q8 0 8 -9v-160q0 -8 -8 -8h-131z" />
<glyph unicode="&#x2026;" horiz-adv-x="519" d="M46 0q-8 0 -8 8v82q0 9 8 9h67q9 0 9 -9v-82q0 -8 -9 -8h-67zM226 0q-8 0 -8 8v82q0 9 8 9h67q9 0 9 -9v-82q0 -8 -9 -8h-67zM406 0q-8 0 -8 8v82q0 9 8 9h67q9 0 9 -9v-82q0 -8 -9 -8h-67z" />
<glyph unicode="&#x202f;" horiz-adv-x="176" />
<glyph unicode="&#x2030;" horiz-adv-x="1192" d="M177 297q-75 0 -107 32.5t-32 108.5v74q0 76 32 108.5t107 32.5h26q75 0 107.5 -32.5t32.5 -108.5v-74q0 -76 -32.5 -108.5t-107.5 -32.5h-26zM214 0q-4 0 -6 3t0 7l328 629q3 6 9 6h58q11 0 6 -10l-328 -629q-3 -6 -9 -6h-58zM177 361h26q39 0 54.5 16t15.5 61v74 q0 45 -15.5 61t-54.5 16h-26q-39 0 -54.5 -16t-15.5 -61v-74q0 -45 15.5 -61t54.5 -16zM613 -8q-75 0 -107 32.5t-32 108.5v74q0 76 32 108.5t107 32.5h26q76 0 108 -32.5t32 -108.5v-74q0 -76 -32 -108.5t-108 -32.5h-26zM988 -8q-75 0 -107 32.5t-32 108.5v74 q0 76 32 108.5t107 32.5h25q76 0 108.5 -32.5t32.5 -108.5v-74q0 -76 -32.5 -108.5t-108.5 -32.5h-25zM613 56h26q40 0 55.5 16t15.5 61v74q0 45 -15.5 61t-55.5 16h-26q-39 0 -54.5 -16t-15.5 -61v-74q0 -45 15.5 -61t54.5 -16zM988 56h25q40 0 55.5 16t15.5 61v74 q0 45 -15.5 61t-55.5 16h-25q-39 0 -54.5 -16t-15.5 -61v-74q0 -45 15.5 -61t54.5 -16z" />
<glyph unicode="&#x2039;" horiz-adv-x="284" d="M102 247l131 -168q6 -6 0 -12l-32 -32q-7 -7 -12 0l-166 206q-6 6 0 12l166 206q5 7 12 0l32 -32q5 -5 0 -12z" />
<glyph unicode="&#x203a;" horiz-adv-x="284" d="M261 253q6 -6 0 -12l-166 -206q-5 -7 -12 0l-32 32q-6 6 0 12l131 168l-131 168q-5 7 0 12l32 32q7 7 12 0z" />
<glyph unicode="&#x2044;" horiz-adv-x="543" d="M62 0q-11 0 -7 10l363 628q4 7 10 7h53q11 0 5 -10l-361 -628q-4 -7 -11 -7h-52z" />
<glyph unicode="&#x205f;" horiz-adv-x="220" />
<glyph unicode="&#x20ac;" horiz-adv-x="583" d="M454 444q-9 0 -9 9v31q0 54 -26.5 75t-105.5 21h-6q-80 0 -106.5 -21t-26.5 -75v-60h186q8 0 8 -9v-47q0 -8 -8 -8h-186v-74h186q8 0 8 -9v-46q0 -9 -8 -9h-186v-61q0 -54 26.5 -75t106.5 -21h6q79 0 105.5 21t26.5 75v23q0 9 9 9h63q8 0 8 -9v-23q0 -88 -47.5 -128.5 t-164.5 -40.5h-6q-117 0 -165 40.5t-48 128.5v61h-48q-8 0 -8 9v46q0 9 8 9h48v74h-48q-8 0 -8 8v47q0 9 8 9h48v60q0 88 48 128.5t165 40.5h6q117 0 164.5 -40.5t47.5 -128.5v-31q0 -9 -8 -9h-63z" />
<glyph unicode="&#x20bd;" horiz-adv-x="532" d="M323 645q94 0 137.5 -40t43.5 -124v-50q0 -84 -43.5 -124t-137.5 -40h-160v-91h194q8 0 8 -8v-52q0 -8 -8 -8h-194v-100q0 -8 -9 -8h-63q-8 0 -8 8v100h-57q-8 0 -8 8v52q0 8 8 8h57v91h-57q-8 0 -8 9v56q0 8 8 8h57v297q0 8 8 8h232zM424 431v50q0 52 -24 71.5t-97 19.5 h-140v-232h140q73 0 97 19.5t24 71.5z" />
<glyph unicode="&#x2116;" horiz-adv-x="1147" d="M880 653q110 0 156 -40.5t46 -126.5v-135q0 -86 -46 -126.5t-156 -40.5h-6q-110 0 -156.5 40.5t-46.5 126.5v135q0 86 46.5 126.5t156.5 40.5h6zM546 645q8 0 8 -8v-629q0 -8 -8 -8h-69q-7 0 -9 5l-211 336q-70 111 -106 187q4 -74 4 -187v-333q0 -8 -8 -8h-63q-9 0 -9 8 v629q0 8 9 8h68q8 0 10 -5l211 -336q68 -108 106 -188q-5 74 -5 188v333q0 8 9 8h63zM1002 351v135q0 52 -25 72.5t-97 20.5h-6q-73 0 -98 -20.5t-25 -72.5v-135q0 -52 25 -73t98 -21h6q72 0 97 21t25 73zM1072 73q8 0 8 -8v-57q0 -8 -8 -8h-390q-8 0 -8 8v57q0 8 8 8h390z " />
<glyph unicode="&#x2122;" horiz-adv-x="826" d="M318 645q9 0 9 -8v-51q0 -8 -9 -8h-104v-270q0 -8 -8 -8h-56q-9 0 -9 8v270h-105q-8 0 -8 8v51q0 8 8 8h282zM762 645q8 0 8 -8v-329q0 -8 -8 -8h-53q-9 0 -9 8v218l-87 -147q-3 -5 -10 -5h-51q-8 0 -10 5l-88 148v-219q0 -8 -8 -8h-53q-9 0 -9 8v329q0 8 9 8h58 q6 0 9 -5l118 -191l117 191q3 5 9 5h58z" />
<glyph unicode="&#x212e;" horiz-adv-x="856" d="M429 22q138 0 228 105h62q-51 -62 -127 -98.5t-163 -36.5q-150 0 -255.5 97t-105.5 234t105.5 233.5t255.5 96.5q149 0 254.5 -96.5t105.5 -233.5q0 -11 -1 -16h-585v-184q90 -101 226 -101zM203 338h451v184q-91 101 -225 101q-136 0 -226 -101v-184z" />
<glyph unicode="&#x2190;" horiz-adv-x="745" d="M687 363q8 0 8 -8v-60q0 -8 -8 -8h-516l158 -164q5 -5 -1 -12l-30 -31q-7 -7 -13 0l-230 239q-6 6 0 12l230 239q6 7 13 0l30 -31q6 -7 0 -13l-157 -163h516z" />
<glyph unicode="&#x2191;" horiz-adv-x="745" d="M617 410q7 -6 0 -13l-31 -30q-7 -6 -13 0l-163 157v-516q0 -8 -8 -8h-60q-8 0 -8 8v516l-164 -158q-5 -5 -12 1l-31 30q-7 7 0 13l239 230q6 6 12 0z" />
<glyph unicode="&#x2192;" horiz-adv-x="745" d="M691 330q6 -6 0 -12l-230 -239q-6 -7 -13 0l-30 31q-6 7 0 13l157 163h-516q-8 0 -8 8v60q0 8 8 8h516l-158 164q-5 5 1 12l30 31q7 7 13 0z" />
<glyph unicode="&#x2193;" horiz-adv-x="745" d="M617 248q7 -7 0 -13l-239 -230q-6 -6 -12 0l-239 230q-7 6 0 13l31 30q7 6 13 0l163 -157v516q0 8 8 8h60q8 0 8 -8v-516l164 158q5 5 12 -1z" />
<glyph unicode="&#x2194;" horiz-adv-x="745" d="M689 328q6 -6 0 -12l-208 -218q-6 -6 -12 0l-26 27q-6 6 -1 11l144 152h-426l144 -152q5 -5 -1 -11l-27 -27q-6 -6 -12 0l-208 218q-6 6 0 12l208 220q5 7 12 0l26 -27q6 -6 0 -12l-139 -149h419l-139 149q-6 6 0 12l26 27q7 7 12 0z" />
<glyph unicode="&#x2195;" horiz-adv-x="745" d="M570 252l27 -26q7 -7 0 -12l-220 -208q-6 -6 -12 0l-218 208q-6 6 0 12l27 26q6 6 11 1l152 -144v426l-152 -144q-5 -5 -11 1l-27 27q-6 6 0 12l218 208q6 6 12 0l220 -208q7 -5 0 -12l-27 -26q-6 -6 -12 0l-149 139v-419l149 139q6 6 12 0z" />
<glyph unicode="&#x2196;" horiz-adv-x="745" d="M612 132q6 -6 0 -12l-42 -42q-6 -6 -11 0l-366 365l-4 -228q0 -6 -9 -8h-43q-11 0 -9 9l6 331q0 9 9 9l331 6q10 2 10 -9l-1 -43q-2 -9 -9 -9l-227 -4z" />
<glyph unicode="&#x2197;" horiz-adv-x="745" d="M617 211q2 -10 -9 -10l-43 1q-9 2 -9 9l-4 227l-365 -365q-6 -6 -12 0l-42 42q-6 6 0 11l365 366l-228 4q-6 0 -8 9v43q0 4 2.5 7t6.5 2l331 -6q9 0 9 -9z" />
<glyph unicode="&#x2198;" horiz-adv-x="745" d="M608 436q11 0 9 -9l-6 -331q0 -9 -9 -9l-331 -6q-10 -2 -10 9l1 43q2 9 9 9l227 4l-365 365q-6 6 0 12l42 42q6 6 11 0l366 -365l4 228q0 6 9 8h43z" />
<glyph unicode="&#x2199;" horiz-adv-x="745" d="M611 519q6 -6 0 -11l-365 -366l228 -4q6 0 8 -9v-43q0 -4 -2.5 -7t-6.5 -2l-331 6q-9 0 -9 9l-6 331q-2 10 9 10l43 -1q9 -2 9 -9l4 -227l365 365q6 6 12 0z" />
<glyph unicode="&#x2202;" horiz-adv-x="492" d="M247 653q106 0 151.5 -41t45.5 -128v-323q0 -87 -45 -128t-147 -41h-22q-102 0 -147 39.5t-45 121.5v74q0 82 44 121.5t143 39.5h21q49 0 76.5 -12t41.5 -42v150q0 53 -24.5 74.5t-92.5 21.5h-143q-9 0 -9 8v57q0 8 9 8h143zM364 161v59q0 52 -24 73.5t-88 21.5h-22 q-65 0 -88.5 -20t-23.5 -68v-74q0 -52 22.5 -70t89.5 -18h22q65 0 88.5 21.5t23.5 74.5z" />
<glyph unicode="&#x2205;" horiz-adv-x="554" d="M499 601q12 0 6 -10l-69 -122q46 -38 46 -126v-184q0 -86 -46 -126.5t-156 -40.5h-6q-60 0 -100 12l-54 -96q-4 -7 -11 -7h-54q-13 0 -6 10l68 121q-46 39 -46 127v184q0 86 46.5 126.5t156.5 40.5h6q60 0 100 -12l54 96q4 7 11 7h54zM151 159q0 -34 9 -52l182 324 q-24 6 -62 6h-6q-73 0 -98 -21t-25 -73v-184zM402 343q0 32 -8 51l-182 -324q27 -5 62 -5h6q72 0 97 21t25 73v184z" />
<glyph unicode="&#x220f;" horiz-adv-x="504" d="M467 645q9 0 9 -8v-49q0 -9 -9 -9h-80v-571q0 -8 -9 -8h-60q-9 0 -9 8v571h-115v-571q0 -8 -8 -8h-61q-8 0 -8 8v571h-81q-8 0 -8 9v49q0 8 8 8h431z" />
<glyph unicode="&#x2211;" horiz-adv-x="395" d="M363 588q0 -9 -8 -9h-242l150 -249q4 -7 0 -14l-150 -249h242q8 0 8 -8v-51q0 -8 -8 -8h-315q-8 0 -8 8v54q0 6 3 10l150 251l-150 251q-3 6 -3 11v52q0 8 8 8h315q8 0 8 -8v-49z" />
<glyph unicode="&#x2212;" horiz-adv-x="500" d="M55 215q-8 0 -8 8v57q0 8 8 8h390q8 0 8 -8v-57q0 -8 -8 -8h-390z" />
<glyph unicode="&#x221a;" horiz-adv-x="432" d="M392 645q10 0 7 -10l-126 -625q-3 -10 -9 -10h-66q-6 0 -9 6l-102 198h-71q-8 0 -8 9v49q0 8 8 8h109q6 0 9 -6l83 -160l108 531q1 10 9 10h58z" />
<glyph unicode="&#x221e;" horiz-adv-x="950" d="M694 487q108 0 154 -41t46 -130v-131q0 -89 -46 -130t-154 -41h-9q-74 0 -112 27.5t-87 115.5l-11 19l-11 -19q-49 -87 -87 -115t-113 -28h-8q-109 0 -155 41t-46 130v131q0 89 46 130t155 41h8q75 0 113 -28t87 -115l11 -19l11 19q49 88 87 115.5t112 27.5h9zM395 184 l38 67l-38 66q-36 64 -57.5 80t-73.5 16h-8q-71 0 -96 -21t-25 -76v-131q0 -55 25 -76.5t96 -21.5h8q51 0 73 16.5t58 80.5zM814 185v131q0 55 -24.5 76t-95.5 21h-9q-51 0 -73 -16t-57 -80l-38 -66l38 -67q35 -64 57 -80.5t73 -16.5h9q71 0 95.5 21.5t24.5 76.5z" />
<glyph unicode="&#x222b;" horiz-adv-x="280" d="M26 0q-8 0 -8 8v49q0 9 8 9h16q57 0 72 41t-2 152l-18 126q-36 260 143 260h16q9 0 9 -8v-49q0 -9 -9 -9h-16q-48 0 -62 -41.5t1 -152.5l18 -126q19 -138 -17.5 -198.5t-134.5 -60.5h-16z" />
<glyph unicode="&#x2248;" horiz-adv-x="500" d="M347 271q-39 0 -101.5 38t-99.5 38q-41 0 -89 -31q-10 -7 -10 5v52q0 7 5 10q56 35 100 35q40 0 102.5 -38t100.5 -38q42 0 88 30q10 7 10 -5v-52q0 -7 -9 -12q-54 -32 -97 -32zM347 84q-39 0 -101.5 38t-99.5 38q-41 0 -89 -31q-10 -7 -10 5v52q0 7 5 10q56 35 100 35 q40 0 102.5 -38t100.5 -38q42 0 88 30q10 7 10 -5v-52q0 -7 -9 -12q-54 -32 -97 -32z" />
<glyph unicode="&#x2260;" horiz-adv-x="500" d="M445 314h-115l-79 -121h194q8 0 8 -8v-57q0 -8 -8 -8h-242l-75 -115q-4 -5 -10 -5h-59q-13 0 -4 12l71 108h-71q-8 0 -8 8v57q0 8 8 8h118l79 121h-197q-8 0 -8 9v56q0 9 8 9h246l71 109q4 5 10 5h59q12 0 4 -12l-67 -102h67q8 0 8 -9v-56q0 -9 -8 -9z" />
<glyph unicode="&#x2264;" horiz-adv-x="500" d="M64 304q-5 2 -5 9v58q0 8 7 11l346 138q10 4 10 -6v-58q0 -8 -6 -10l-260 -103l268 -103q8 -3 8 -10v-58q0 -11 -10 -7zM445 73q8 0 8 -8v-57q0 -8 -8 -8h-390q-8 0 -8 8v57q0 8 8 8h390z" />
<glyph unicode="&#x2265;" horiz-adv-x="500" d="M78 165q-10 -4 -10 7v58q0 7 8 10l268 103l-260 103q-6 2 -6 10v58q0 10 10 6l346 -138q7 -3 7 -11v-58q0 -7 -5 -9zM445 73q8 0 8 -8v-57q0 -8 -8 -8h-390q-8 0 -8 8v57q0 8 8 8h390z" />
<glyph unicode="&#x25ca;" horiz-adv-x="505" d="M476 329q3 -5 0 -11l-184 -313q-3 -5 -9 -5h-61q-7 0 -10 5l-183 311q-4 7 0 14l183 310q2 5 10 5h61q7 0 9 -5zM252 74l147 249l-147 248l-146 -248z" />
<glyph unicode="&#x25fc;" horiz-adv-x="500" d="M0 500h500v-500h-500v500z" />
<glyph unicode="&#xf8ff;" horiz-adv-x="806" d="M80 637q0 8 8 8h630q8 0 8 -8v-629q0 -8 -8 -8h-630q-8 0 -8 8v629zM290 169q0 -8 9 -8h23q9 0 9 8v137h145v-137q0 -8 9 -8h22q9 0 9 8v307q0 8 -9 8h-22q-9 0 -9 -8v-134h-145v134q0 8 -9 8h-23q-9 0 -9 -8v-307z" />
<glyph horiz-adv-x="221" d="M81 580q-9 0 -9 9v88q0 8 9 8h58q9 0 9 -8v-88q0 -9 -9 -9h-58zM79 0q-9 0 -9 8v486q0 8 9 8h63q8 0 8 -8v-486q0 -8 -8 -8h-63z" />
<glyph horiz-adv-x="533" d="M455 502q8 0 8 -8v-486q0 -8 -8 -8h-38q-6 0 -10 6l-18 30q-79 -44 -169 -44q-85 0 -122.5 39.5t-37.5 130.5v178q0 91 37.5 130.5t122.5 39.5q89 0 169 -43l18 30q4 5 10 5h38zM140 174q0 -65 19 -87t77 -22q76 0 147 33v307q-72 32 -147 32q-59 0 -77.5 -22t-18.5 -87 v-154z" />
<glyph horiz-adv-x="533" d="M216 569q-6 0 -7.5 3t2.5 7l97 102q4 4 11 4h72q3 0 5 -1.5t1.5 -4t-3.5 -4.5l-111 -102q-6 -4 -10 -4h-57zM455 502q8 0 8 -8v-486q0 -8 -8 -8h-38q-6 0 -10 6l-18 30q-79 -44 -169 -44q-85 0 -122.5 39.5t-37.5 130.5v178q0 91 37.5 130.5t122.5 39.5q89 0 169 -43 l18 30q4 5 10 5h38zM140 174q0 -65 19 -87t77 -22q76 0 147 33v307q-72 32 -147 32q-59 0 -77.5 -22t-18.5 -87v-154z" />
<glyph horiz-adv-x="533" d="M266 566q-59 0 -85 20.5t-26 66.5v24q0 8 8 8h41q8 0 8 -8v-24q0 -22 11 -30.5t43 -8.5h4q32 0 43 8.5t11 30.5v24q0 8 8 8h41q8 0 8 -8v-24q0 -45 -26 -66t-85 -21h-4zM455 502q8 0 8 -8v-486q0 -8 -8 -8h-38q-6 0 -10 6l-18 30q-79 -44 -169 -44q-85 0 -122.5 39.5 t-37.5 130.5v178q0 91 37.5 130.5t122.5 39.5q89 0 169 -43l18 30q4 5 10 5h38zM140 174q0 -65 19 -87t77 -22q76 0 147 33v307q-72 32 -147 32q-59 0 -77.5 -22t-18.5 -87v-154z" />
<glyph horiz-adv-x="533" d="M232 573l-97 102q-4 4 -2 7t7 3h57q7 0 12 -6l59 -69l59 69q5 6 11 6h57q6 0 7.5 -3t-2.5 -7l-97 -102q-4 -4 -10 -4h-50q-7 0 -11 4zM455 502q8 0 8 -8v-486q0 -8 -8 -8h-38q-6 0 -10 6l-18 30q-79 -44 -169 -44q-85 0 -122.5 39.5t-37.5 130.5v178q0 91 37.5 130.5 t122.5 39.5q89 0 169 -43l18 30q4 5 10 5h38zM140 174q0 -65 19 -87t77 -22q76 0 147 33v307q-72 32 -147 32q-59 0 -77.5 -22t-18.5 -87v-154z" />
<glyph horiz-adv-x="533" d="M140 569q-5 0 -7 3t2 7l97 102q4 4 11 4h50q6 0 10 -4l97 -102q4 -4 2.5 -7t-7.5 -3h-57q-6 0 -11 6l-59 69l-59 -69q-5 -6 -12 -6h-57zM455 502q8 0 8 -8v-486q0 -8 -8 -8h-38q-6 0 -10 6l-18 30q-79 -44 -169 -44q-85 0 -122.5 39.5t-37.5 130.5v178q0 91 37.5 130.5 t122.5 39.5q89 0 169 -43l18 30q4 5 10 5h38zM140 174q0 -65 19 -87t77 -22q76 0 147 33v307q-72 32 -147 32q-59 0 -77.5 -22t-18.5 -87v-154z" />
<glyph horiz-adv-x="533" d="M163 580q-9 0 -9 9v88q0 8 9 8h58q9 0 9 -8v-88q0 -9 -9 -9h-58zM313 580q-9 0 -9 9v88q0 8 9 8h58q9 0 9 -8v-88q0 -9 -9 -9h-58zM455 502q8 0 8 -8v-486q0 -8 -8 -8h-38q-6 0 -10 6l-18 30q-79 -44 -169 -44q-85 0 -122.5 39.5t-37.5 130.5v178q0 91 37.5 130.5 t122.5 39.5q89 0 169 -43l18 30q4 5 10 5h38zM140 174q0 -65 19 -87t77 -22q76 0 147 33v307q-72 32 -147 32q-59 0 -77.5 -22t-18.5 -87v-154z" />
<glyph horiz-adv-x="533" d="M257 573l-111 102q-4 4 -2.5 7t7.5 3h71q6 0 10 -4l97 -102q4 -4 2.5 -7t-6.5 -3h-57q-6 0 -11 4zM455 502q8 0 8 -8v-486q0 -8 -8 -8h-38q-6 0 -10 6l-18 30q-79 -44 -169 -44q-85 0 -122.5 39.5t-37.5 130.5v178q0 91 37.5 130.5t122.5 39.5q89 0 169 -43l18 30 q4 5 10 5h38zM140 174q0 -65 19 -87t77 -22q76 0 147 33v307q-72 32 -147 32q-59 0 -77.5 -22t-18.5 -87v-154z" />
<glyph horiz-adv-x="533" d="M163 581q-9 0 -9 9v45q0 8 9 8h209q9 0 9 -8v-45q0 -9 -9 -9h-209zM455 502q8 0 8 -8v-486q0 -8 -8 -8h-38q-6 0 -10 6l-18 30q-79 -44 -169 -44q-85 0 -122.5 39.5t-37.5 130.5v178q0 91 37.5 130.5t122.5 39.5q89 0 169 -43l18 30q4 5 10 5h38zM140 174q0 -65 19 -87 t77 -22q76 0 147 33v307q-72 32 -147 32q-59 0 -77.5 -22t-18.5 -87v-154z" />
<glyph horiz-adv-x="533" d="M455 502q8 0 8 -8v-486q0 -7 -6 -14l-46 -48q-22 -22 -29 -34.5t-7 -29.5v-6q0 -17 9 -23.5t35 -6.5h35q9 0 9 -9v-41q0 -8 -9 -8h-35q-108 0 -108 85v6q0 26 11.5 45.5t44.5 48.5l39 34l-17 29q-79 -44 -169 -44q-85 0 -122.5 39.5t-37.5 130.5v178q0 91 37.5 130.5 t122.5 39.5q89 0 169 -43l18 30q4 5 10 5h38zM140 174q0 -65 19 -87t77 -22q76 0 147 33v307q-72 32 -147 32q-59 0 -77.5 -22t-18.5 -87v-154z" />
<glyph horiz-adv-x="533" d="M267 560q-53 0 -73 15t-20 51v17q0 36 20 51t73 15h2q52 0 72.5 -15.5t20.5 -50.5v-17q0 -35 -20.5 -50.5t-72.5 -15.5h-2zM219 641v-14q0 -16 8.5 -21t39.5 -5h2q31 0 39.5 5t8.5 21v14q0 16 -8.5 21t-39.5 5h-2q-31 0 -39.5 -5t-8.5 -21zM455 502q8 0 8 -8v-486 q0 -8 -8 -8h-38q-6 0 -10 6l-18 30q-79 -44 -169 -44q-85 0 -122.5 39.5t-37.5 130.5v178q0 91 37.5 130.5t122.5 39.5q89 0 169 -43l18 30q4 5 10 5h38zM140 174q0 -65 19 -87t77 -22q76 0 147 33v307q-72 32 -147 32q-59 0 -77.5 -22t-18.5 -87v-154z" />
<glyph horiz-adv-x="533" d="M137 577q-8 0 -8 9v30q0 34 18 53t48 19q29 0 56 -18l68 -46q15 -9 22 -9q13 0 13 19v34q0 9 8 9h36q9 0 9 -9v-31q0 -34 -17.5 -52.5t-48.5 -18.5q-29 0 -56 18l-68 45q-13 10 -23 10q-12 0 -12 -19v-34q0 -9 -9 -9h-36zM455 502q8 0 8 -8v-486q0 -8 -8 -8h-38 q-6 0 -10 6l-18 30q-79 -44 -169 -44q-85 0 -122.5 39.5t-37.5 130.5v178q0 91 37.5 130.5t122.5 39.5q89 0 169 -43l18 30q4 5 10 5h38zM140 174q0 -65 19 -87t77 -22q76 0 147 33v307q-72 32 -147 32q-59 0 -77.5 -22t-18.5 -87v-154z" />
<glyph horiz-adv-x="533" d="M455 502q8 0 8 -8v-535q0 -88 -46.5 -127.5t-155.5 -39.5h-148q-8 0 -8 8v56q0 9 8 9h140q76 0 103 20t27 68v80q-76 -41 -163 -41q-85 0 -122.5 39.5t-37.5 130.5v178q0 91 37.5 130.5t122.5 39.5q89 0 169 -43l18 30q5 5 10 5h38zM236 65q76 0 147 33v307 q-72 32 -147 32q-59 0 -77.5 -22t-18.5 -87v-154q0 -65 19 -87t77 -22z" />
<glyph horiz-adv-x="533" d="M265 566q-59 0 -85 20.5t-26 66.5v24q0 8 8 8h41q8 0 8 -8v-24q0 -22 11 -30.5t43 -8.5h4q32 0 43 8.5t11 30.5v24q0 8 8 8h41q8 0 8 -8v-24q0 -45 -26 -66t-85 -21h-4zM455 502q8 0 8 -8v-535q0 -88 -46.5 -127.5t-155.5 -39.5h-148q-8 0 -8 8v56q0 9 8 9h140 q76 0 103 20t27 68v80q-76 -41 -163 -41q-85 0 -122.5 39.5t-37.5 130.5v178q0 91 37.5 130.5t122.5 39.5q89 0 169 -43l18 30q5 5 10 5h38zM236 65q76 0 147 33v307q-72 32 -147 32q-59 0 -77.5 -22t-18.5 -87v-154q0 -65 19 -87t77 -22z" />
<glyph horiz-adv-x="533" d="M139 569q-5 0 -7 3t2 7l97 102q4 4 11 4h50q6 0 10 -4l97 -102q4 -4 2.5 -7t-7.5 -3h-57q-6 0 -11 6l-59 69l-59 -69q-4 -6 -12 -6h-57zM455 502q8 0 8 -8v-535q0 -88 -46.5 -127.5t-155.5 -39.5h-148q-8 0 -8 8v56q0 9 8 9h140q76 0 103 20t27 68v80q-76 -41 -163 -41 q-85 0 -122.5 39.5t-37.5 130.5v178q0 91 37.5 130.5t122.5 39.5q89 0 169 -43l18 30q5 5 10 5h38zM236 65q76 0 147 33v307q-72 32 -147 32q-59 0 -77.5 -22t-18.5 -87v-154q0 -65 19 -87t77 -22z" />
<glyph horiz-adv-x="533" d="M239 568q-8 0 -8 9v152q0 8 8 8h21q8 0 9 -7l32 -96q1 -3 1 -10v-47q0 -9 -8 -9h-55zM455 502q8 0 8 -8v-535q0 -88 -46.5 -127.5t-155.5 -39.5h-148q-8 0 -8 8v56q0 9 8 9h140q76 0 103 20t27 68v80q-76 -41 -163 -41q-85 0 -122.5 39.5t-37.5 130.5v178 q0 91 37.5 130.5t122.5 39.5q89 0 169 -43l18 30q5 5 10 5h38zM236 65q76 0 147 33v307q-72 32 -147 32q-59 0 -77.5 -22t-18.5 -87v-154q0 -65 19 -87t77 -22z" />
<glyph horiz-adv-x="533" d="M237 580q-9 0 -9 9v88q0 8 9 8h58q9 0 9 -8v-88q0 -9 -9 -9h-58zM455 502q8 0 8 -8v-535q0 -88 -46.5 -127.5t-155.5 -39.5h-148q-8 0 -8 8v56q0 9 8 9h140q76 0 103 20t27 68v80q-76 -41 -163 -41q-85 0 -122.5 39.5t-37.5 130.5v178q0 91 37.5 130.5t122.5 39.5 q89 0 169 -43l18 30q5 5 10 5h38zM236 65q76 0 147 33v307q-72 32 -147 32q-59 0 -77.5 -22t-18.5 -87v-154q0 -65 19 -87t77 -22z" />
<glyph horiz-adv-x="532" d="M454 502q8 0 8 -8v-535q0 -88 -46.5 -127.5t-155.5 -39.5h-148q-8 0 -8 8v56q0 9 8 9h140q76 0 103 20t27 68v79q-75 -40 -161 -40q-84 0 -120 39.5t-36 130.5v332q0 8 9 8h63q8 0 8 -8v-320q0 -65 18 -87t75 -22q74 0 144 32v397q0 8 8 8h64z" />
<glyph horiz-adv-x="532" d="M212 569q-6 0 -7.5 3t2.5 7l97 102q4 4 11 4h72q3 0 5 -1.5t1.5 -4t-3.5 -4.5l-111 -102q-6 -4 -10 -4h-57zM454 502q8 0 8 -8v-535q0 -88 -46.5 -127.5t-155.5 -39.5h-148q-8 0 -8 8v56q0 9 8 9h140q76 0 103 20t27 68v79q-75 -40 -161 -40q-84 0 -120 39.5t-36 130.5 v332q0 8 9 8h63q8 0 8 -8v-320q0 -65 18 -87t75 -22q74 0 144 32v397q0 8 8 8h64z" />
<glyph horiz-adv-x="532" d="M136 569q-5 0 -7 3t2 7l97 102q4 4 11 4h50q6 0 10 -4l97 -102q4 -4 2.5 -7t-7.5 -3h-57q-6 0 -11 6l-59 69l-59 -69q-5 -6 -12 -6h-57zM454 502q8 0 8 -8v-535q0 -88 -46.5 -127.5t-155.5 -39.5h-148q-8 0 -8 8v56q0 9 8 9h140q76 0 103 20t27 68v79q-75 -40 -161 -40 q-84 0 -120 39.5t-36 130.5v332q0 8 9 8h63q8 0 8 -8v-320q0 -65 18 -87t75 -22q74 0 144 32v397q0 8 8 8h64z" />
<glyph horiz-adv-x="532" d="M159 580q-9 0 -9 9v88q0 8 9 8h58q9 0 9 -8v-88q0 -9 -9 -9h-58zM309 580q-9 0 -9 9v88q0 8 9 8h58q9 0 9 -8v-88q0 -9 -9 -9h-58zM454 502q8 0 8 -8v-535q0 -88 -46.5 -127.5t-155.5 -39.5h-148q-8 0 -8 8v56q0 9 8 9h140q76 0 103 20t27 68v79q-75 -40 -161 -40 q-84 0 -120 39.5t-36 130.5v332q0 8 9 8h63q8 0 8 -8v-320q0 -65 18 -87t75 -22q74 0 144 32v397q0 8 8 8h64z" />
<glyph horiz-adv-x="532" d="M253 573l-111 102q-4 4 -2.5 7t7.5 3h71q6 0 10 -4l97 -102q4 -4 2.5 -7t-6.5 -3h-57q-6 0 -11 4zM454 502q8 0 8 -8v-535q0 -88 -46.5 -127.5t-155.5 -39.5h-148q-8 0 -8 8v56q0 9 8 9h140q76 0 103 20t27 68v79q-75 -40 -161 -40q-84 0 -120 39.5t-36 130.5v332 q0 8 9 8h63q8 0 8 -8v-320q0 -65 18 -87t75 -22q74 0 144 32v397q0 8 8 8h64z" />
<glyph horiz-adv-x="646" d="M615 66q8 0 8 -8v-54q0 -8 -8 -8h-51q-85 0 -121 34.5t-36 120.5v283h-232v-279q0 -51 17.5 -70t65.5 -19h45q8 0 8 -8v-54q0 -8 -8 -8h-51q-85 0 -121 34.5t-36 120.5v283h-79q-9 0 -9 9v29q0 8 8 9l80 12v144q0 8 9 8h63q8 0 8 -8v-135h232v135q0 8 9 8h63q8 0 8 -8 v-135h126q8 0 8 -8v-51q0 -9 -8 -9h-126v-279q0 -51 17.5 -70t65.5 -19h45z" />
<glyph horiz-adv-x="538" d="M530 72q8 0 8 -8v-191q0 -9 -8 -9h-41q-8 0 -10 8l-17 128h-386l-17 -128q-2 -8 -10 -8h-41q-8 0 -8 9v191q0 8 8 8h43l176 566q2 7 9 7h66q7 0 9 -7l176 -566h43zM134 72h270l-95 314q-29 96 -40 154q-11 -58 -40 -154z" />
<glyph horiz-adv-x="543" d="M528 9q3 -9 -7 -9h-66q-8 0 -10 6l-123 361q-33 96 -50 168q-18 -72 -51 -168l-123 -361q-2 -6 -10 -6h-66q-10 0 -7 9l218 630q1 6 9 6h59q8 0 10 -6z" />
<glyph horiz-adv-x="505" d="M362 332q56 -10 80 -43t24 -97v-30q0 -93 -42.5 -131.5t-153.5 -38.5h-8q-111 0 -154 38.5t-43 131.5v321q0 93 41 131.5t144 38.5h9q103 0 143.5 -38.5t40.5 -131.5v-16q0 -58 -18.5 -90t-62.5 -45zM250 580q-63 0 -84 -20t-21 -79v-115h112q64 0 85 19.5t21 79.5v16 q0 59 -20.5 79t-83.5 20h-9zM386 164v30q0 60 -23 79.5t-95 19.5h-123v-129q0 -60 22.5 -79.5t94.5 -19.5h8q72 0 94 19.5t22 79.5z" />
<glyph horiz-adv-x="476" d="M41 125v13q0 52 26 82.5t86 47.5l129 37q41 12 53.5 22.5t12.5 32.5v15q0 32 -24 47.5t-83 15.5h-6q-58 0 -81 -14.5t-23 -46.5v-33q0 -9 -8 -9h-62q-8 0 -8 9v33q0 133 183 133h6q98 0 142 -34.5t44 -101.5v-14q0 -49 -25.5 -76.5t-87.5 -45.5l-129 -36q-39 -11 -52 -25 t-13 -39v-14q0 -31 25.5 -45.5t89.5 -14.5h6q63 0 88.5 15t25.5 47v33q0 8 8 8h62q9 0 9 -8v-33q0 -134 -195 -134h-6q-103 0 -148 32.5t-45 100.5z" />
<glyph horiz-adv-x="533" d="M455 502q8 0 8 -8v-535q0 -88 -46.5 -127.5t-155.5 -39.5h-148q-8 0 -8 8v56q0 9 8 9h140q76 0 103 20t27 68v80q-76 -41 -163 -41q-85 0 -122.5 39.5t-37.5 130.5v178q0 91 37.5 130.5t122.5 39.5q89 0 169 -43l18 30q5 5 10 5h38zM236 65q76 0 147 33v307 q-72 32 -147 32q-59 0 -77.5 -22t-18.5 -87v-154q0 -65 19 -87t77 -22z" />
<glyph horiz-adv-x="671" d="M656 10q3 -4 1.5 -7t-6.5 -3h-73q-8 0 -10 5l-119 214h-73v-211q0 -8 -9 -8h-63q-8 0 -8 8v211h-74l-118 -214q-5 -5 -10 -5h-74q-11 0 -5 10l141 244l-137 238q-3 4 -1.5 7t6.5 3h74q5 0 10 -5l113 -204h75v399q0 8 8 8h63q9 0 9 -8v-399h75l113 204q2 5 10 5h73 q4 0 6 -3t0 -7l-137 -238z" />
<glyph horiz-adv-x="482" d="M356 253q44 -9 63 -33.5t19 -73.5v-11q0 -75 -44 -109t-150 -34h-6q-106 0 -150 34t-44 109v21q0 8 8 8h63q9 0 9 -8v-21q0 -41 22.5 -56t91.5 -15h6q68 0 91 15t23 56v11q0 41 -23 56t-91 15h-60q-9 0 -9 8v55q0 8 9 8h60q65 0 87 15.5t22 56.5v8q0 40 -22 55t-87 15h-6 q-65 0 -87 -15t-22 -55v-21q0 -9 -8 -9h-63q-9 0 -9 9v21q0 74 43.5 108t145.5 34h6q102 0 145.5 -34t43.5 -108v-8q0 -49 -17.5 -73.5t-59.5 -33.5z" />
<glyph horiz-adv-x="532" d="M454 502q8 0 8 -8v-486q0 -8 -8 -8h-38q-6 0 -10 6l-19 29q-78 -43 -166 -43q-84 0 -120 39.5t-36 130.5v332q0 8 9 8h63q8 0 8 -8v-320q0 -65 18 -87t75 -22q74 0 144 32v397q0 8 8 8h64z" />
<glyph horiz-adv-x="532" d="M261 566q-59 0 -85 20.5t-26 66.5v24q0 8 8 8h41q8 0 8 -8v-24q0 -22 11 -30.5t43 -8.5h4q32 0 43 8.5t11 30.5v24q0 8 8 8h41q8 0 8 -8v-24q0 -45 -26 -66t-85 -21h-4zM454 502q8 0 8 -8v-486q0 -8 -8 -8h-38q-6 0 -10 6l-19 29q-78 -43 -166 -43q-84 0 -120 39.5 t-36 130.5v332q0 8 9 8h63q8 0 8 -8v-320q0 -65 18 -87t75 -22q74 0 144 32v397q0 8 8 8h64z" />
<glyph horiz-adv-x="532" d="M252 573l-111 102q-4 4 -2.5 7t7.5 3h71q6 0 10 -4l97 -102q4 -4 2.5 -7t-6.5 -3h-57q-6 0 -11 4zM454 502q8 0 8 -8v-486q0 -8 -8 -8h-38q-6 0 -10 6l-19 29q-78 -43 -166 -43q-84 0 -120 39.5t-36 130.5v332q0 8 9 8h63q8 0 8 -8v-320q0 -65 18 -87t75 -22q74 0 144 32 v397q0 8 8 8h64z" />
<glyph horiz-adv-x="473" d="M458 10q7 -10 -5 -10h-73q-7 0 -11 5l-146 214h-73v-211q0 -8 -8 -8h-63q-9 0 -9 8v684q0 8 9 8h63q8 0 8 -8v-399h77l138 204q4 5 11 5h73q12 0 5 -10l-164 -239z" />
<glyph horiz-adv-x="458" d="M449 9q3 -9 -7 -9h-66q-8 0 -10 6l-78 223q-42 127 -59 197q-17 -70 -59 -197l-78 -223q-2 -6 -10 -6h-66q-10 0 -7 9l175 487q2 6 10 6h70q8 0 10 -6z" />
<glyph horiz-adv-x="536" d="M312 510q85 0 122 -39.5t37 -130.5v-332q0 -8 -8 -8h-64q-8 0 -8 8v320q0 65 -18.5 87t-77.5 22q-74 0 -145 -31v-398q0 -8 -8 -8h-63q-9 0 -9 8v486q0 8 9 8h37q7 0 10 -5l18 -29q79 42 168 42z" />
<glyph horiz-adv-x="823" d="M607 510q79 0 115 -40t36 -130v-332q0 -8 -9 -8h-63q-8 0 -8 8v320q0 65 -17.5 87t-70.5 22q-75 0 -139 -34q5 -30 5 -63v-332q0 -8 -9 -8h-63q-8 0 -8 8v320q0 65 -17.5 87t-70.5 22q-73 0 -138 -33v-396q0 -8 -8 -8h-63q-9 0 -9 8v486q0 8 9 8h37q7 0 10 -5l19 -30 q76 43 160 43q91 0 125 -53q85 53 177 53z" />
<glyph horiz-adv-x="540" d="M518 72q8 0 8 -8v-191q0 -9 -8 -9h-41q-8 0 -10 8l-17 128h-34q-6 0 -10 6l-19 29q-78 -43 -166 -43q-84 0 -120 39.5t-36 130.5v332q0 8 9 8h63q8 0 8 -8v-320q0 -65 18 -87t75 -22q74 0 144 32v397q0 8 8 8h64q8 0 8 -8v-422h56z" />
<glyph horiz-adv-x="823" d="M744 502q9 0 9 -8v-486q0 -8 -9 -8h-37q-7 0 -10 5l-19 30q-76 -43 -160 -43q-91 0 -125 53q-85 -53 -177 -53q-79 0 -115 40t-36 130v332q0 8 9 8h63q8 0 8 -8v-320q0 -65 17.5 -87t70.5 -22q75 0 139 34q-5 30 -5 63v332q0 8 9 8h63q8 0 8 -8v-320q0 -65 17.5 -87 t70.5 -22q73 0 138 33v396q0 8 8 8h63z" />
<glyph horiz-adv-x="831" d="M809 72q8 0 8 -8v-191q0 -9 -8 -9h-41q-8 0 -10 8l-17 128h-34q-7 0 -10 5l-19 30q-76 -43 -160 -43q-91 0 -125 53q-85 -53 -177 -53q-79 0 -115 40t-36 130v332q0 8 9 8h63q8 0 8 -8v-320q0 -65 17.5 -87t70.5 -22q75 0 139 34q-5 30 -5 63v332q0 8 9 8h63q8 0 8 -8 v-320q0 -65 17.5 -87t70.5 -22q73 0 138 33v396q0 8 8 8h63q9 0 9 -8v-422h56z" />
<glyph horiz-adv-x="490" d="M307 331q149 0 149 -132v-67q0 -132 -149 -132h-92q-150 0 -150 132v362q0 8 9 8h63q8 0 8 -8v-198q20 35 92 35h70zM376 132v67q0 33 -16 45.5t-59 12.5h-81q-42 0 -58.5 -13t-16.5 -45v-67q0 -33 16.5 -46t58.5 -13h81q43 0 59 13t16 46z" />
<glyph horiz-adv-x="536" d="M353 331q149 0 149 -132v-67q0 -132 -149 -132h-92q-150 0 -150 132v299h-109q-8 0 -8 8v55q0 8 8 8h181q8 0 8 -8v-198q20 35 92 35h70zM422 132v67q0 33 -16 45.5t-59 12.5h-81q-42 0 -58.5 -13t-16.5 -45v-67q0 -33 16.5 -46t58.5 -13h81q43 0 59 13t16 46z" />
<glyph horiz-adv-x="719" d="M466 510q103 0 147.5 -40.5t44.5 -126.5v-184q0 -86 -44.5 -126.5t-147.5 -40.5h-6q-103 0 -147.5 40.5t-44.5 126.5v56h-118v-207q0 -8 -8 -8h-63q-9 0 -9 8v684q0 8 9 8h63q8 0 8 -8v-405h118v56q0 86 44.5 126.5t147.5 40.5h6zM578 159v184q0 52 -23.5 73t-88.5 21h-6 q-66 0 -89 -21t-23 -73v-184q0 -52 23 -73t89 -21h6q65 0 88.5 21t23.5 73z" />
<glyph horiz-adv-x="592" d="M70 161v323q0 88 49.5 128.5t173.5 40.5h6q124 0 173.5 -40.5t49.5 -128.5v-323q0 -88 -49.5 -128.5t-173.5 -40.5h-6q-124 0 -173.5 40.5t-49.5 128.5zM150 161q0 -54 28.5 -75t114.5 -21h6q86 0 114.5 21t28.5 75v323q0 54 -28.5 75t-114.5 21h-6q-86 0 -114.5 -21 t-28.5 -75v-323z" />
<glyph horiz-adv-x="443" d="M395 74q8 0 8 -9v-57q0 -8 -8 -8h-341q-9 0 -9 8v57q0 9 9 9h143v493l-131 -68q-10 -5 -10 6v60q0 6 6 9l130 69q3 2 11 2h66q8 0 8 -8v-563h118z" />
<glyph horiz-adv-x="559" d="M240 253q-58 -13 -76.5 -32t-18.5 -63v-85h345q8 0 8 -8v-57q0 -8 -8 -8h-416q-9 0 -9 8v155q0 72 32 108t111 53l124 28q54 12 70.5 30.5t16.5 62.5v42q0 51 -27 72t-105 21h-6q-77 0 -103.5 -21t-26.5 -73v-33q0 -9 -9 -9h-63q-8 0 -8 9v33q0 85 48 126t162 41h6 q114 0 162.5 -40.5t48.5 -125.5v-42q0 -74 -30 -111t-104 -53z" />
<glyph horiz-adv-x="559" d="M397 328q55 -12 77 -43t22 -90v-34q0 -88 -48 -128.5t-168 -40.5h-6q-120 0 -168 40.5t-48 128.5v23q0 9 9 9h63q8 0 8 -9v-23q0 -54 27.5 -75t108.5 -21h6q81 0 108.5 21t27.5 75v34q0 54 -27.5 75t-108.5 21h-70q-9 0 -9 8v56q0 8 9 8h65q80 0 107 21.5t27 74.5v25 q0 54 -26 75t-103 21h-6q-77 0 -103 -21t-26 -75v-31q0 -9 -9 -9h-63q-8 0 -8 9v31q0 88 47 128.5t162 40.5h6q115 0 162 -40.5t47 -128.5v-25q0 -57 -20.5 -88t-71.5 -43z" />
<glyph horiz-adv-x="530" d="M490 220q9 0 9 -9v-52q0 -9 -9 -9h-69v-142q0 -8 -8 -8h-62q-8 0 -8 8v142h-303q-8 0 -8 9v55q0 5 3 11l303 415q5 5 11 5h64q8 0 8 -8v-417h69zM119 220h224v307z" />
<glyph horiz-adv-x="555" d="M295 390q107 0 153.5 -40t46.5 -129v-60q0 -89 -48.5 -129t-163.5 -40h-6q-115 0 -163.5 40t-48.5 129v23q0 9 9 9h63q8 0 8 -9v-23q0 -55 27 -75.5t105 -20.5h6q78 0 105 20.5t27 75.5v60q0 55 -25.5 75.5t-98.5 20.5h-164q-7 0 -14 6l-28 24q-5 4 -5 10v280q0 8 8 8 h384q8 0 8 -8v-57q0 -8 -8 -8h-313v-182h136z" />
<glyph horiz-adv-x="580" d="M300 388q119 0 166.5 -40t47.5 -128v-59q0 -89 -48.5 -129t-170.5 -40h-6q-121 0 -170 40.5t-49 128.5v323q0 88 48.5 128.5t167.5 40.5h6q120 0 168 -40.5t48 -128.5v-29q0 -8 -8 -8h-63q-9 0 -9 8v29q0 54 -27 75t-109 21h-6q-81 0 -108.5 -21t-27.5 -75v-156 q15 34 48 47t96 13h6zM434 161v59q0 53 -27.5 74t-111.5 21h-6q-83 0 -111 -21t-28 -74v-59q0 -54 28 -75t111 -21h6q84 0 111.5 21t27.5 75z" />
<glyph horiz-adv-x="439" d="M412 644q8 0 8 -8v-60q0 -5 -2 -11l-237 -560q-2 -6 -10 -6h-65q-10 0 -7 10l240 562h-302q-8 0 -8 8v57q0 8 8 8h375z" />
<glyph horiz-adv-x="589" d="M419 329q59 -12 81.5 -43t22.5 -89v-36q0 -89 -50 -129t-176 -40h-6q-126 0 -176 40t-50 129v36q0 58 23 89t81 43q-52 13 -73 44t-21 87v25q0 88 48.5 128t167.5 40h6q119 0 167.5 -40t48.5 -128v-25q0 -56 -21 -87t-73 -44zM155 485v-25q0 -53 27.5 -74t108.5 -21h6 q82 0 109 21t27 74v25q0 53 -27 74t-109 21h-6q-81 0 -108.5 -21t-27.5 -74zM443 161v36q0 54 -28.5 74.5t-117.5 20.5h-6q-88 0 -117 -20.5t-29 -74.5v-36q0 -54 29 -75t117 -21h6q89 0 117.5 21t28.5 75z" />
<glyph horiz-adv-x="578" d="M289 653q121 0 169.5 -40.5t48.5 -128.5v-323q0 -88 -48 -128.5t-167 -40.5h-6q-118 0 -166.5 40.5t-48.5 128.5v21q0 9 9 9h63q8 0 8 -9v-21q0 -54 27 -75t108 -21h6q81 0 108 21t27 75v147q-15 -32 -48.5 -44.5t-94.5 -12.5h-6q-117 0 -165 40.5t-48 128.5v64 q0 88 49 128.5t169 40.5h6zM289 325q83 0 110.5 20.5t27.5 74.5v64q0 54 -27.5 75t-110.5 21h-6q-83 0 -110.5 -21t-27.5 -75v-64q0 -54 27.5 -74.5t110.5 -20.5h6z" />
<glyph horiz-adv-x="600" d="M74 161v323q0 88 49.5 128.5t173.5 40.5h6q124 0 173.5 -40.5t49.5 -128.5v-323q0 -88 -49.5 -128.5t-173.5 -40.5h-6q-124 0 -173.5 40.5t-49.5 128.5zM154 161q0 -54 28.5 -75t114.5 -21h6q86 0 114.5 21t28.5 75v323q0 54 -28.5 75t-114.5 21h-6q-86 0 -114.5 -21 t-28.5 -75v-323z" />
<glyph horiz-adv-x="600" d="M485 74q8 0 8 -9v-57q0 -8 -8 -8h-341q-9 0 -9 8v57q0 9 9 9h143v493l-131 -68q-10 -5 -10 6v60q0 6 6 9l130 69q3 2 11 2h66q8 0 8 -8v-563h118z" />
<glyph horiz-adv-x="600" d="M271 253q-58 -13 -76.5 -32t-18.5 -63v-85h345q8 0 8 -8v-57q0 -8 -8 -8h-416q-9 0 -9 8v155q0 72 32 108t111 53l124 28q54 12 70.5 30.5t16.5 62.5v42q0 51 -27 72t-105 21h-6q-77 0 -103.5 -21t-26.5 -73v-33q0 -9 -9 -9h-63q-8 0 -8 9v33q0 85 48 126t162 41h6 q114 0 162.5 -40.5t48.5 -125.5v-42q0 -74 -30 -111t-104 -53z" />
<glyph horiz-adv-x="600" d="M424 328q55 -12 77 -43t22 -90v-34q0 -88 -48 -128.5t-168 -40.5h-6q-120 0 -168 40.5t-48 128.5v23q0 9 9 9h63q8 0 8 -9v-23q0 -54 27.5 -75t108.5 -21h6q81 0 108.5 21t27.5 75v34q0 54 -27.5 75t-108.5 21h-70q-9 0 -9 8v56q0 8 9 8h65q80 0 107 21.5t27 74.5v25 q0 54 -26 75t-103 21h-6q-77 0 -103 -21t-26 -75v-31q0 -9 -9 -9h-63q-8 0 -8 9v31q0 88 47 128.5t162 40.5h6q115 0 162 -40.5t47 -128.5v-25q0 -57 -20.5 -88t-71.5 -43z" />
<glyph horiz-adv-x="600" d="M522 220q9 0 9 -9v-52q0 -9 -9 -9h-69v-142q0 -8 -8 -8h-62q-8 0 -8 8v142h-303q-8 0 -8 9v55q0 5 3 11l303 415q5 5 11 5h64q8 0 8 -8v-417h69zM151 220h224v307z" />
<glyph horiz-adv-x="600" d="M326 390q108 0 154 -40t46 -129v-60q0 -89 -48.5 -129t-163.5 -40h-6q-115 0 -163.5 40t-48.5 129v23q0 9 9 9h63q8 0 8 -9v-23q0 -55 27 -75.5t105 -20.5h6q78 0 105 20.5t27 75.5v60q0 55 -25.5 75.5t-98.5 20.5h-164q-7 0 -14 6l-28 24q-5 4 -5 10v280q0 8 8 8h384 q8 0 8 -8v-57q0 -8 -8 -8h-313v-182h136z" />
<glyph horiz-adv-x="600" d="M318 388q119 0 166.5 -40t47.5 -128v-59q0 -89 -48.5 -129t-170.5 -40h-6q-121 0 -170 40.5t-49 128.5v323q0 88 48.5 128.5t167.5 40.5h6q120 0 168 -40.5t48 -128.5v-29q0 -8 -8 -8h-63q-9 0 -9 8v29q0 54 -27 75t-109 21h-6q-81 0 -108.5 -21t-27.5 -75v-156 q15 34 48 47t96 13h6zM452 161v59q0 53 -27.5 74t-111.5 21h-6q-83 0 -111 -21t-28 -74v-59q0 -54 28 -75t111 -21h6q84 0 111.5 21t27.5 75z" />
<glyph horiz-adv-x="600" d="M499 645q8 0 8 -8v-60q0 -5 -2 -11l-237 -560q-2 -6 -10 -6h-65q-10 0 -7 10l240 562h-302q-8 0 -8 8v57q0 8 8 8h375z" />
<glyph horiz-adv-x="600" d="M425 329q59 -12 81.5 -43t22.5 -89v-36q0 -89 -50 -129t-176 -40h-6q-126 0 -176 40t-50 129v36q0 58 23 89t81 43q-52 13 -73 44t-21 87v25q0 88 48.5 128t167.5 40h6q119 0 167.5 -40t48.5 -128v-25q0 -56 -21 -87t-73 -44zM161 485v-25q0 -53 27.5 -74t108.5 -21h6 q82 0 109 21t27 74v25q0 53 -27 74t-109 21h-6q-81 0 -108.5 -21t-27.5 -74zM449 161v36q0 54 -28.5 74.5t-117.5 20.5h-6q-88 0 -117 -20.5t-29 -74.5v-36q0 -54 29 -75t117 -21h6q89 0 117.5 21t28.5 75z" />
<glyph horiz-adv-x="600" d="M307 653q121 0 169.5 -40.5t48.5 -128.5v-323q0 -88 -48 -128.5t-167 -40.5h-6q-118 0 -166.5 40.5t-48.5 128.5v21q0 9 9 9h63q8 0 8 -9v-21q0 -54 27 -75t108 -21h6q81 0 108 21t27 75v147q-15 -32 -48.5 -44.5t-94.5 -12.5h-6q-117 0 -165 40.5t-48 128.5v64 q0 88 49 128.5t169 40.5h6zM307 325q83 0 110.5 20.5t27.5 74.5v64q0 54 -27.5 75t-110.5 21h-6q-83 0 -110.5 -21t-27.5 -75v-64q0 -54 27.5 -74.5t110.5 -20.5h6z" />
<glyph horiz-adv-x="384" d="M366 -72h-63q-7 0 -9 6l-283 757q-4 9 8 9h62q7 0 10 -6l282 -757q4 -9 -7 -9z" />
<glyph horiz-adv-x="159" d="M46 275q-8 0 -8 8v82q0 9 8 9h67q9 0 9 -9v-82q0 -8 -9 -8h-67z" />
<glyph horiz-adv-x="323" d="M96 228q-8 0 -8 8v160q0 9 8 9h131q8 0 8 -9v-160q0 -8 -8 -8h-131z" />
<glyph horiz-adv-x="225" d="M94 182q-9 0 -9 8l-13 447q0 8 8 8h64q9 0 9 -8l-14 -447q0 -8 -8 -8h-37zM79 0q-8 0 -8 8v82q0 9 8 9h67q9 0 9 -9v-82q0 -8 -9 -8h-67z" />
<glyph horiz-adv-x="225" d="M79 645h67q9 0 9 -8v-82q0 -9 -9 -9h-67q-8 0 -8 9v82q0 8 8 8zM94 463h37q8 0 8 -8l14 -447q0 -8 -9 -8h-64q-8 0 -8 8l13 447q0 8 9 8z" />
<glyph horiz-adv-x="450" d="M44 449q-9 0 -9 8v28q0 86 45 127t147 41h6q102 0 147 -39.5t45 -118.5v-13q0 -69 -23 -102.5t-84 -53.5l-45 -14q-38 -11 -48 -28.5t-10 -69.5v-24q0 -8 -8 -8h-62q-9 0 -9 8v24q0 76 21.5 109.5t81.5 52.5l44 14q41 13 52.5 30t11.5 62v13q0 45 -24.5 65t-89.5 20h-6 q-65 0 -89 -21.5t-24 -73.5v-28q0 -8 -9 -8h-61zM142 0q-8 0 -8 8v82q0 9 8 9h67q9 0 9 -9v-82q0 -8 -9 -8h-67z" />
<glyph horiz-adv-x="440" d="M308 645q8 0 8 -8v-82q0 -9 -8 -9h-67q-9 0 -9 9v82q0 8 9 8h67zM406 196q9 0 9 -8v-28q0 -86 -45 -127t-147 -41h-6q-102 0 -147 39.5t-45 118.5v13q0 69 23 102.5t84 53.5l45 14q38 11 48 28.5t10 69.5v24q0 8 8 8h62q9 0 9 -8v-24q0 -76 -21.5 -109.5t-81.5 -52.5 l-44 -14q-41 -13 -52.5 -30t-11.5 -62v-13q0 -45 24.5 -65t89.5 -20h6q65 0 89 21.5t24 73.5v28q0 8 9 8h61z" />
<glyph horiz-adv-x="384" d="M18 -72q-10 0 -7 10l282 756q3 6 10 6h62q12 0 8 -9l-283 -757q-2 -6 -9 -6h-63z" />
</font>
</defs>
</svg>
