<?xml version="1.0" standalone="no"?>
<!DOCTYPE svg PUBLIC "-//W3C//DTD SVG 1.1//EN" "http://www.w3.org/Graphics/SVG/1.1/DTD/svg11.dtd" >
<svg xmlns="http://www.w3.org/2000/svg">
<metadata></metadata>
<defs>
<font id="rogansemibold_italic" horiz-adv-x="535" >
<font-face units-per-em="1000" ascent="750" descent="-250" />
<missing-glyph horiz-adv-x="205" />
<glyph unicode="ff" horiz-adv-x="648" d="M703 708q8 0 7 -9l-8 -62q-1 -9 -11 -9h-51q-48 0 -66 -17.5t-25 -67.5l-5 -38h126q10 0 8 -9l-9 -62q-1 -9 -10 -9h-127l-59 -416q-1 -9 -10 -9h-77q-9 0 -8 10l59 415h-222l-59 -416q-2 -9 -10 -9h-77q-9 0 -8 10l59 415h-79q-9 0 -8 9l5 36q1 8 10 10l82 13l6 44 q13 95 56 133t135 38h59q8 0 7 -9l-8 -62q-1 -9 -11 -9h-51q-48 0 -66 -17.5t-25 -67.5l-5 -38h221l5 32q13 95 56 133t135 38h59z" />
<glyph unicode="fft" horiz-adv-x="954" d="M957 505q9 0 7 -9l-8 -62q-2 -9 -10 -9h-124l-37 -266q-7 -49 6.5 -64.5t60.5 -15.5h47q9 0 8 -9l-10 -65q-1 -9 -10 -9h-54q-90 0 -123 36t-20 123l38 270h-196l-59 -416q-1 -9 -10 -9h-77q-9 0 -8 10l59 415h-222l-59 -416q-2 -9 -10 -9h-77q-9 0 -8 10l59 415h-79 q-9 0 -8 9l5 36q1 8 10 10l82 13l6 44q13 95 56 133t135 38h59q8 0 7 -9l-8 -62q-1 -9 -11 -9h-51q-48 0 -66 -17.5t-25 -67.5l-5 -38h221l5 32q13 95 56 133t135 38h59q8 0 7 -9l-8 -62q-1 -9 -11 -9h-51q-48 0 -66 -17.5t-25 -67.5l-5 -38h195l18 131q1 9 11 9h78 q8 0 6 -9l-18 -131h123z" />
<glyph unicode="ft" horiz-adv-x="637" d="M639 505q9 0 7 -9l-8 -62q-2 -9 -10 -9h-124l-37 -266q-7 -49 6.5 -64.5t60.5 -15.5h47q9 0 8 -9l-10 -65q-1 -9 -10 -9h-54q-90 0 -123 36t-20 123l38 270h-195l-59 -416q-2 -9 -10 -9h-77q-9 0 -8 10l59 415h-79q-9 0 -8 9l5 36q1 8 10 10l82 13l6 44q13 95 56 133 t135 38h59q8 0 7 -9l-8 -62q-1 -9 -11 -9h-51q-48 0 -66 -17.5t-25 -67.5l-5 -38h194l18 131q1 9 11 9h78q8 0 6 -9l-18 -131h123z" />
<glyph unicode="&#xd;" horiz-adv-x="250" />
<glyph unicode=" "  horiz-adv-x="205" />
<glyph unicode="&#x09;" horiz-adv-x="205" />
<glyph unicode="&#xa0;" horiz-adv-x="205" />
<glyph unicode="!" horiz-adv-x="229" d="M82 185q-9 0 -8 9l46 442q2 9 11 9h78q9 0 7 -9l-77 -442q-1 -9 -11 -9h-46zM39 0q-9 0 -8 9l13 90q2 9 10 9h80q8 0 7 -9l-12 -90q-1 -9 -10 -9h-80z" />
<glyph unicode="&#x22;" horiz-adv-x="306" d="M97 444q-7 0 -8 8l-7 123q-1 7 0 13l13 87q1 9 10 9h69q10 0 8 -9l-13 -87q-1 -8 -3 -13l-42 -123q-3 -8 -10 -8h-17zM245 444q-7 0 -8 8l-7 123q-1 7 0 13l13 87q1 9 10 9h69q10 0 8 -9l-13 -87q-1 -8 -3 -13l-42 -123q-3 -8 -10 -8h-17z" />
<glyph unicode="#" horiz-adv-x="614" d="M585 465q8 0 7 -8l-8 -62q-2 -9 -10 -9h-80l-37 -126h99q10 0 8 -9l-9 -62q-1 -8 -11 -8h-111l-51 -173q-3 -8 -10 -8h-72q-10 0 -7 9l51 172h-137l-51 -173q-3 -8 -10 -8h-72q-10 0 -7 9l51 172h-69q-8 0 -7 8l9 62q1 9 10 9h80l38 126h-100q-9 0 -8 9l8 62q1 8 11 8 h112l51 172q1 8 10 8h72q10 0 7 -9l-51 -171h137l51 172q1 8 10 8h72q10 0 7 -9l-51 -171h68zM367 260l38 126h-137l-37 -126h136z" />
<glyph unicode="$" horiz-adv-x="552" d="M379 651q93 -7 127 -48t22 -124l-3 -26q-1 -9 -10 -9h-77q-10 0 -8 9l3 26q7 46 -6.5 64t-59.5 22l-29 -203l36 -8q77 -18 103.5 -55t15.5 -110l-4 -25q-12 -82 -58 -123t-145 -48l-9 -64q-1 -9 -10 -9h-75q-10 0 -8 9l9 65q-95 7 -130 48t-24 121l4 29q1 9 10 9h77 q10 0 8 -9l-4 -29q-6 -41 8.5 -59.5t62.5 -22.5l30 212l-32 8q-74 17 -101 54t-17 106l3 21q12 80 57.5 121t140.5 48l9 65q1 9 10 9h75q8 0 8 -9zM246 383h2l26 181q-47 -5 -66.5 -23.5t-24.5 -58.5l-3 -21q-5 -38 6.5 -52.5t59.5 -25.5zM332 271l-7 2l-27 -192q50 4 70 23 t26 60l4 25q6 40 -6 55.5t-60 26.5z" />
<glyph unicode="%" horiz-adv-x="835" d="M187 297q-79 0 -107 33.5t-17 114.5l8 59q11 82 48.5 115.5t117.5 33.5h25q80 0 108.5 -34t17.5 -115l-9 -59q-11 -81 -49 -114.5t-118 -33.5h-25zM183 0q-12 0 -5 11l415 628q5 6 12 6h68q11 0 5 -11l-415 -628q-6 -6 -12 -6h-68zM197 373h25q37 0 53 14.5t22 57.5l8 59 q6 47 -5 60t-49 13h-25q-36 0 -51.5 -14.5t-21.5 -58.5l-8 -59q-6 -47 4.5 -59.5t47.5 -12.5zM591 -8q-79 0 -107 34t-17 114l8 59q11 82 48.5 115.5t117.5 33.5h25q80 0 108.5 -34t17.5 -115l-8 -59q-11 -81 -49 -114.5t-119 -33.5h-25zM601 68h25q37 0 53 14.5t22 57.5 l8 59q7 47 -4.5 60t-49.5 13h-25q-36 0 -51 -14.5t-22 -58.5l-8 -59q-6 -47 4.5 -59.5t47.5 -12.5z" />
<glyph unicode="&#x26;" horiz-adv-x="640" d="M593 11q4 -5 2 -8t-8 -3h-87q-6 0 -11 4l-39 42q-48 -54 -195 -54h-6q-132 0 -179.5 41t-35.5 129l5 36q9 63 41 96.5t103 44.5q-41 49 -52.5 78.5t-6.5 65.5l2 10q11 80 64.5 120t162.5 40h6q110 0 151 -42t28 -132l-3 -25q-1 -9 -10 -9h-75q-9 0 -8 9l3 25q7 54 -12 71 t-86 17h-6q-65 0 -90.5 -16.5t-31.5 -57.5l-1 -7q-4 -28 3.5 -47.5t38.5 -52.5l177 -194l17 120q2 9 10 9h65q9 0 8 -9l-20 -143q-6 -37 -16 -56zM267 79q98 0 129 26l-164 179q-51 -4 -71.5 -23t-26.5 -63l-5 -36q-8 -51 17 -67t115 -16h6z" />
<glyph unicode="'" horiz-adv-x="158" d="M97 444q-7 0 -8 8l-7 123q-1 7 0 13l13 87q1 9 10 9h69q10 0 8 -9l-13 -87q-1 -8 -3 -13l-42 -123q-3 -8 -10 -8h-17z" />
<glyph unicode="(" horiz-adv-x="263" d="M126 -128q-8 0 -10 5q-101 175 -67 413q32 235 181 413q4 5 11 5h70q13 0 5 -11q-146 -178 -177 -407q-33 -231 62 -407q5 -11 -7 -11h-68z" />
<glyph unicode=")" horiz-adv-x="263" d="M148 708q8 0 10 -5q101 -175 67 -413q-32 -235 -181 -413q-4 -5 -11 -5h-70q-13 0 -5 11q146 178 177 407q33 231 -62 407q-5 11 7 11h68z" />
<glyph unicode="*" horiz-adv-x="508" d="M507 497q2 -9 -8 -11l-168 -36l94 -122q4 -7 -4 -13l-68 -47q-9 -5 -12 3l-66 145l-101 -144q-9 -7 -14 -2l-57 45q-7 7 0 13l128 124l-156 33q-8 2 -5 11l34 76q3 9 12 5l143 -67l6 164q0 10 9 10h80q9 0 7 -10l-41 -165l161 68q8 3 12 -5z" />
<glyph unicode="+" horiz-adv-x="500" d="M453 295q9 0 8 -9l-9 -69q-1 -8 -11 -8h-149l-23 -166q-1 -9 -11 -9h-77q-9 0 -7 9l23 166h-151q-8 0 -7 8l9 69q1 9 10 9h151l23 163q1 9 10 9h77q9 0 8 -9l-23 -163h149z" />
<glyph unicode="," horiz-adv-x="165" d="M-12 -147q-8 0 -7 9l33 237q2 9 10 9h77q9 0 7 -9l-13 -94q-1 -7 -4 -12l-61 -133q-3 -7 -11 -7h-31z" />
<glyph unicode="-" horiz-adv-x="325" d="M30 242q-8 0 -8 9l10 69q2 9 10 9h263q9 0 7 -9l-10 -69q0 -9 -10 -9h-262z" />
<glyph unicode="." horiz-adv-x="168" d="M9 0q-9 0 -8 9l13 90q2 9 10 9h80q8 0 7 -9l-12 -90q-1 -9 -10 -9h-80z" />
<glyph unicode="/" horiz-adv-x="394" d="M-29 -72q-13 0 -6 10l387 755q4 7 12 7h77q11 0 6 -10l-388 -755q-4 -7 -11 -7h-77z" />
<glyph unicode="0" horiz-adv-x="596" d="M54 164l44 316q12 90 69.5 131.5t183.5 41.5h6q126 0 171.5 -42t33.5 -131l-44 -315q-12 -90 -69.5 -131.5t-184.5 -41.5h-6q-125 0 -170.5 41.5t-33.5 130.5zM149 164q-8 -52 15.5 -68.5t106.5 -16.5h6q81 0 110 18.5t36 67.5l44 315q8 53 -15 69.5t-107 16.5h-6 q-81 0 -110 -18.5t-36 -67.5z" />
<glyph unicode="1" horiz-adv-x="442" d="M374 87q8 0 7 -9l-9 -69q-2 -9 -10 -9h-348q-8 0 -7 9l9 69q2 9 10 9h140l66 465l-137 -65q-5 -2 -7.5 -0.5t-1.5 6.5l9 72q1 7 8 11l136 67q4 2 12 2h80q9 0 7 -9l-77 -549h113z" />
<glyph unicode="2" horiz-adv-x="561" d="M345 653q115 0 160 -42.5t33 -126.5l-6 -40q-11 -77 -47 -115.5t-115 -55.5l-129 -27q-55 -12 -74 -29t-25 -58l-10 -72h341q9 0 7 -9l-9 -69q-1 -9 -10 -9h-427q-8 0 -7 11l21 152q11 74 48 111t122 56l126 27q54 12 71 28.5t22 58.5l6 40q7 49 -14.5 65.5t-95.5 16.5 h-6q-72 0 -99 -19t-34 -67l-5 -31q-1 -9 -10 -9h-77q-10 0 -8 9l5 31q12 87 68.5 130t171.5 43h6z" />
<glyph unicode="3" horiz-adv-x="556" d="M335 653q117 0 160 -42.5t30 -130.5l-3 -22q-9 -59 -34.5 -89t-82.5 -42q59 -11 77.5 -41t9.5 -89l-4 -33q-13 -90 -68.5 -131t-177.5 -41h-6q-121 0 -165 42.5t-32 131.5l4 25q2 9 10 9h77q10 0 8 -9l-4 -25q-8 -53 14 -70t100 -17h6q76 0 104 18.5t35 66.5l4 33 q8 52 -14 69.5t-100 17.5h-71q-10 0 -8 9l10 68q2 9 10 9h67q74 0 101.5 19t34.5 69l3 22q8 52 -13 69t-94 17h-6q-72 0 -98.5 -19t-33.5 -70l-4 -28q-1 -9 -11 -9h-77q-9 0 -7 9l4 28q13 93 67 134.5t172 41.5h6z" />
<glyph unicode="4" horiz-adv-x="533" d="M492 227q10 0 8 -9l-9 -65q-2 -9 -10 -9h-68l-19 -135q-2 -9 -10 -9h-76q-10 0 -8 9l19 135h-297q-10 0 -8 9l9 68q1 5 6 11l355 407q5 6 13 6h77q9 0 8 -10l-57 -408h67zM132 227h199l38 273z" />
<glyph unicode="5" horiz-adv-x="558" d="M534 645q8 0 6 -9l-9 -69q-1 -9 -10 -9h-309l-22 -161h129q108 0 149.5 -41.5t29.5 -132.5l-8 -57q-13 -93 -68 -133.5t-174 -40.5h-6q-117 0 -161.5 41.5t-31.5 132.5l3 25q2 9 11 9h77q8 0 7 -9l-3 -25q-8 -55 13.5 -71t96.5 -16h6q73 0 100.5 18.5t34.5 68.5l8 57 q8 54 -13 70.5t-93 16.5h-158q-8 0 -14 6l-31 28q-5 5 -4 11l39 281q1 9 11 9h394z" />
<glyph unicode="6" horiz-adv-x="583" d="M350 653q122 0 166 -42t31 -132l-3 -26q-2 -9 -10 -9h-77q-9 0 -8 9l3 26q8 53 -14 70t-100 17h-6q-76 0 -104 -18.5t-35 -67.5l-20 -146q19 34 53 47t95 13h6q117 0 160 -42t30 -133l-7 -54q-13 -91 -69.5 -132t-180.5 -41h-6q-123 0 -168 41.5t-32 131.5l44 315 q12 90 68 131.5t178 41.5h6zM298 307q-71 0 -100.5 -15.5t-38.5 -54.5l-10 -72q-8 -53 14.5 -69.5t102.5 -16.5h6q79 0 107.5 18.5t35.5 67.5l7 54q8 55 -14.5 71.5t-103.5 16.5h-6z" />
<glyph unicode="7" horiz-adv-x="441" d="M470 645q8 0 7 -9l-10 -73q-1 -6 -4 -11l-306 -545q-5 -7 -12 -7h-81q-11 0 -6 10l310 548h-289q-9 0 -7 9l9 69q1 9 11 9h378z" />
<glyph unicode="8" horiz-adv-x="592" d="M355 653q121 0 165.5 -41.5t32.5 -129.5l-4 -25q-8 -54 -32.5 -84t-76.5 -44q56 -12 74 -43t9 -89l-4 -32q-14 -93 -70.5 -133t-186.5 -40h-6q-128 0 -174 42t-33 131l4 32q9 58 35.5 89t85.5 43q-50 14 -66.5 44t-8.5 84l4 25q13 91 68 131t178 40h6zM458 482 q8 52 -14 68t-101 16h-6q-77 0 -104.5 -18t-34.5 -66l-4 -25q-7 -52 15 -68.5t101 -16.5h6q76 0 103.5 18.5t34.5 66.5zM428 197q8 54 -15.5 71t-109.5 17h-6q-83 0 -112.5 -18.5t-36.5 -69.5l-4 -32q-8 -54 15 -70t109 -16h6q84 0 113.5 18.5t36.5 67.5z" />
<glyph unicode="9" horiz-adv-x="581" d="M347 653q123 0 167.5 -41.5t32.5 -131.5l-44 -315q-13 -92 -68.5 -132.5t-177.5 -40.5h-6q-120 0 -164.5 42t-31.5 131l3 21q2 9 10 9h77q9 0 8 -9l-3 -21q-8 -53 14 -69.5t99 -16.5h6q76 0 104 18.5t35 67.5l20 140q-20 -33 -54 -46t-94 -13h-6q-116 0 -159 42t-31 130 l9 62q12 90 68.5 131.5t179.5 41.5h6zM443 418l9 62q7 53 -15 69.5t-102 16.5h-6q-78 0 -106 -18.5t-35 -67.5l-9 -62q-7 -53 15 -69t102 -16h6q78 0 106 18.5t35 66.5z" />
<glyph unicode=":" horiz-adv-x="188" d="M75 397q-9 0 -8 9l13 90q2 9 10 9h80q8 0 7 -9l-12 -90q-1 -9 -10 -9h-80zM19 0q-9 0 -8 9l13 90q2 9 10 9h80q8 0 7 -9l-12 -90q-1 -9 -10 -9h-80z" />
<glyph unicode=";" horiz-adv-x="188" d="M75 397q-9 0 -8 9l13 90q2 9 10 9h80q8 0 7 -9l-12 -90q-1 -9 -10 -9h-80zM-2 -147q-8 0 -7 9l33 237q2 9 10 9h77q9 0 7 -9l-13 -94q-1 -7 -4 -12l-61 -133q-3 -7 -11 -7h-31z" />
<glyph unicode="&#x3c;" horiz-adv-x="500" d="M465 461q5 2 8 0t2 -7l-11 -76q0 -8 -9 -11l-287 -116l254 -115q7 -3 7 -11l-11 -73q-2 -12 -11 -7l-352 160q-8 3 -6 11l10 74q2 9 9 11z" />
<glyph unicode="=" horiz-adv-x="500" d="M61 312q-9 0 -8 9l10 69q1 9 10 9h395q10 0 8 -9l-10 -69q-2 -9 -10 -9h-395zM33 114q-8 0 -8 8l10 69q1 9 10 9h395q10 0 8 -9l-10 -69q0 -8 -10 -8h-395z" />
<glyph unicode="&#x3e;" horiz-adv-x="500" d="M445 300q8 -3 6 -11l-10 -74q-2 -9 -9 -11l-397 -160q-5 -2 -8 0t-2 7l11 76q0 8 9 11l287 116l-254 115q-7 3 -7 11l11 73q2 12 11 7z" />
<glyph unicode="?" horiz-adv-x="454" d="M67 449q-9 0 -7 9l3 25q12 88 64 129t158 41h6q104 0 145.5 -40.5t30.5 -120.5l-2 -14q-10 -70 -37.5 -103.5t-95.5 -53.5l-47 -14q-37 -11 -48 -26.5t-18 -64.5l-3 -22q-2 -9 -10 -9h-76q-10 0 -8 9l3 22q12 81 37.5 113.5t92.5 52.5l46 14q41 12 53.5 26t17.5 56l2 14 q7 44 -13 59t-82 15h-6q-61 0 -86 -18.5t-31 -64.5l-4 -25q-2 -9 -10 -9h-75zM102 0q-9 0 -8 9l13 90q1 9 10 9h80q9 0 7 -9l-12 -90q-1 -9 -10 -9h-80z" />
<glyph unicode="@" horiz-adv-x="787" d="M464 609q184 0 243 -57t38 -208l-25 -175q-9 -66 -42 -96.5t-98 -30.5h-11q-73 0 -94 43q-68 -43 -144 -43q-66 0 -97 29t-23 85l2 14q15 105 149 105h120l8 55q5 37 -8.5 47t-62.5 10h-5q-47 0 -63.5 -12t-21.5 -45l-1 -7q-1 -8 -10 -8h-60q-9 0 -8 8l1 7q9 66 49.5 97 t122.5 31h5q83 0 115 -31t23 -97l-21 -151q-6 -47 -0.5 -58t33.5 -11h12q26 0 36.5 12.5t16.5 53.5l24 168q6 43 6.5 71.5t-7.5 51t-22 35t-41.5 20.5t-61.5 10.5t-87 2.5h-41q-101 0 -153.5 -17t-77 -56t-35.5 -118l-27 -195q-17 -113 24 -148t190 -35h163q9 0 8 -9l-8 -54 q-2 -10 -11 -10h-163q-182 0 -241.5 57.5t-39.5 198.5l27 195q21 151 95.5 208t259.5 57h40zM349 108q59 0 116 25q0 19 3 43l6 40h-124q-53 0 -59 -46l-2 -14q-4 -27 9.5 -37.5t50.5 -10.5z" />
<glyph unicode="A" horiz-adv-x="552" d="M505 10q1 -10 -9 -10h-76q-9 0 -10 7l-28 141h-237l-68 -141q-3 -7 -11 -7h-81q-10 0 -6 10l305 628q4 7 12 7h71q9 0 10 -7zM186 234h179l-24 119q-16 77 -25 170q-24 -69 -73 -170z" />
<glyph unicode="B" horiz-adv-x="560" d="M369 645q184 0 160 -163l-4 -29q-8 -52 -29 -81.5t-64 -42.5q53 -10 71 -40.5t10 -89.5l-5 -33q-12 -86 -60.5 -126t-145.5 -40h-258q-9 0 -7 10l87 626q2 9 11 9h234zM435 479q7 49 -12 64.5t-88 15.5h-126l-27 -190h127q67 0 90.5 16t31.5 65zM418 202q7 49 -12 65 t-86 16h-150l-28 -197h150q67 0 90.5 16.5t30.5 63.5z" />
<glyph unicode="C" horiz-adv-x="562" d="M251 -8q-125 0 -170 41.5t-32 130.5l44 316q12 90 69 131.5t182 41.5h6q123 0 169.5 -42t33.5 -131l-5 -37q-2 -9 -10 -9h-78q-8 0 -7 9l5 37q8 53 -15 69.5t-105 16.5h-6q-80 0 -108.5 -18.5t-35.5 -67.5l-44 -316q-7 -50 16 -67.5t104 -17.5h6q80 0 108.5 18.5 t35.5 68.5l5 36q1 9 10 9h77q10 0 8 -9l-5 -36q-13 -91 -69.5 -132.5t-182.5 -41.5h-6z" />
<glyph unicode="D" horiz-adv-x="583" d="M355 645q119 0 164.5 -41.5t33.5 -128.5l-43 -304q-12 -89 -68 -130t-178 -41h-220q-9 0 -7 10l87 626q2 9 11 9h220zM458 475q8 52 -16.5 67.5t-112.5 15.5h-121l-66 -471h120q86 0 116.5 18t36.5 66z" />
<glyph unicode="E" horiz-adv-x="501" d="M510 645q8 0 7 -9l-9 -69q-2 -9 -11 -9h-289l-26 -188h259q9 0 8 -9l-10 -69q-1 -9 -10 -9h-259l-27 -196h288q9 0 8 -9l-10 -69q-1 -9 -10 -9h-375q-8 0 -7 9l87 627q2 9 11 9h375z" />
<glyph unicode="F" horiz-adv-x="470" d="M493 645q9 0 7 -9l-10 -69q0 -9 -10 -9h-272l-27 -198h252q8 0 8 -9l-10 -69q-1 -9 -11 -9h-251l-37 -263q-1 -10 -11 -10h-77q-8 0 -7 10l87 626q2 9 11 9h358z" />
<glyph unicode="G" horiz-adv-x="584" d="M354 653q127 0 173 -42t33 -133l-2 -15q-2 -9 -11 -9h-77q-8 0 -7 9l2 15q8 55 -15.5 71.5t-108.5 16.5h-6q-82 0 -111 -18.5t-36 -67.5l-44 -316q-8 -51 15.5 -68t107.5 -17h6q82 0 111 18.5t36 68.5l13 89h-122q-8 0 -7 8l10 68q1 8 10 8h207q10 0 8 -8l-23 -164 q-13 -92 -70.5 -133.5t-184.5 -41.5h-6q-127 0 -172.5 41.5t-33.5 130.5l44 316q12 90 69.5 131.5t185.5 41.5h6z" />
<glyph unicode="H" horiz-adv-x="603" d="M579 645q8 0 7 -9l-89 -626q-1 -10 -10 -10h-77q-9 0 -8 10l39 271h-271l-38 -271q-1 -10 -11 -10h-76q-9 0 -8 10l88 626q1 9 11 9h77q8 0 7 -9l-38 -268h271l38 268q1 9 10 9h78z" />
<glyph unicode="I" horiz-adv-x="237" d="M45 0q-9 0 -8 10l88 626q1 9 11 9h77q8 0 7 -9l-88 -626q-1 -10 -11 -10h-76z" />
<glyph unicode="J" horiz-adv-x="500" d="M188 -8q-108 0 -150 42.5t-30 132.5l3 18q1 9 10 9h77q10 0 8 -9l-3 -18q-7 -53 12.5 -70.5t84.5 -17.5h6q64 0 89 19t32 68l66 470q1 9 11 9h77q9 0 7 -9l-66 -470q-12 -90 -65 -132t-163 -42h-6z" />
<glyph unicode="K" horiz-adv-x="556" d="M582 645q3 0 5 -1.5t1.5 -4t-3.5 -5.5l-231 -253l152 -370q5 -11 -8 -11h-87q-7 0 -10 7l-121 295l-125 -127l-23 -165q-1 -10 -11 -10h-76q-9 0 -8 10l88 626q1 9 11 9h77q8 0 7 -9l-46 -329l303 333q5 5 12 5h93z" />
<glyph unicode="L" horiz-adv-x="457" d="M402 87q8 0 7 -9l-9 -69q-2 -9 -11 -9h-344q-9 0 -8 10l88 626q1 9 11 9h77q8 0 7 -9l-77 -549h259z" />
<glyph unicode="M" horiz-adv-x="733" d="M709 645q9 0 8 -10l-89 -626q-2 -9 -10 -9h-75q-9 0 -7 9l39 278q16 115 34 202q-47 -100 -111 -202l-107 -175q-4 -6 -11 -6h-67q-8 0 -10 6l-58 175q-38 115 -54 201q-9 -111 -23 -201l-39 -278q-1 -9 -10 -9h-75q-8 0 -7 9l87 626q2 10 11 10h80q7 0 10 -7l106 -323 q20 -59 28 -104q25 53 57 104l197 323q4 7 12 7h84z" />
<glyph unicode="N" horiz-adv-x="631" d="M607 645q10 0 8 -8l-89 -627q-1 -10 -10 -10h-83q-6 0 -10 6l-151 314q-53 114 -75 186q-7 -90 -21 -183l-44 -314q-1 -9 -11 -9h-77q-8 0 -7 9l87 626q1 10 11 10h84q7 0 9 -6l151 -315q53 -112 75 -184q2 31 22 184l44 312q2 9 10 9h77z" />
<glyph unicode="O" horiz-adv-x="596" d="M49 164l44 316q12 90 70 131.5t188 41.5h6q129 0 175.5 -41.5t34.5 -131.5l-44 -315q-13 -90 -71 -131.5t-188 -41.5h-6q-129 0 -175.5 41.5t-33.5 130.5zM144 164q-8 -52 16 -68.5t111 -16.5h6q84 0 114 18.5t37 67.5l44 315q8 53 -16 69.5t-111 16.5h-6 q-84 0 -114 -18.5t-37 -67.5z" />
<glyph unicode="P" horiz-adv-x="531" d="M377 645q181 0 157 -169l-12 -87q-12 -87 -61.5 -128t-143.5 -41h-155l-30 -210q-1 -10 -11 -10h-76q-9 0 -8 10l88 626q1 9 11 9h241zM439 476q7 52 -11 67t-87 15h-132l-35 -252h131q68 0 91.5 17t30.5 66z" />
<glyph unicode="Q" horiz-adv-x="596" d="M357 653q129 0 175.5 -41.5t34.5 -131.5l-44 -315q-12 -82 -59.5 -123t-151.5 -48l78 -125q5 -8 -4 -14l-54 -38q-9 -6 -13 2l-103 174q-104 7 -141.5 48t-25.5 123l44 316q12 90 70 131.5t188 41.5h6zM472 480q8 53 -16 69.5t-111 16.5h-6q-84 0 -114 -18.5t-37 -67.5 l-44 -316q-8 -52 16 -68.5t111 -16.5h6q84 0 114 18.5t37 67.5z" />
<glyph unicode="R" horiz-adv-x="554" d="M375 645q94 0 132.5 -41.5t26.5 -129.5l-11 -72q-10 -73 -43.5 -112t-95.5 -51l90 -228q5 -11 -8 -11h-84q-8 0 -10 7l-83 226h-126l-31 -223q-1 -10 -11 -10h-76q-9 0 -8 10l88 626q1 9 11 9h239zM439 474q7 54 -11 69t-88 15h-131l-34 -239h132q68 0 91 16.5t30 66.5z " />
<glyph unicode="S" horiz-adv-x="521" d="M221 -8q-122 0 -166 41.5t-32 129.5l4 29q1 9 10 9h77q10 0 8 -9l-4 -29q-7 -49 15.5 -66.5t99.5 -17.5h6q77 0 105 18.5t34 66.5l4 25q6 40 -6 55.5t-60 26.5l-129 30q-74 17 -101 54t-17 106l3 21q13 88 68.5 129.5t173.5 41.5h6q118 0 161.5 -41.5t30.5 -132.5l-3 -26 q-1 -9 -10 -9h-77q-10 0 -8 9l3 26q8 54 -13 70.5t-96 16.5h-6q-73 0 -100.5 -18.5t-34.5 -65.5l-3 -21q-5 -38 6.5 -52.5t59.5 -25.5l128 -29q77 -18 103.5 -55t15.5 -110l-4 -25q-12 -90 -67.5 -131t-178.5 -41h-6z" />
<glyph unicode="T" horiz-adv-x="465" d="M499 645q9 0 7 -9l-9 -69q-1 -9 -10 -9h-164l-77 -550q-1 -8 -11 -8h-76q-9 0 -8 8l77 550h-164q-8 0 -7 9l9 69q2 9 11 9h422z" />
<glyph unicode="U" horiz-adv-x="592" d="M257 -8q-124 0 -170 41.5t-33 131.5l66 471q2 9 11 9h77q8 0 7 -9l-66 -471q-8 -52 15.5 -69t104.5 -17h6q80 0 108.5 18.5t35.5 67.5l66 471q1 9 11 9h77q9 0 7 -9l-66 -471q-12 -90 -69 -131.5t-182 -41.5h-6z" />
<glyph unicode="V" horiz-adv-x="537" d="M572 645q10 0 5 -10l-290 -626q-5 -9 -12 -9h-84q-7 0 -10 9l-114 626q-2 10 9 10h78q8 0 9 -7l59 -333q19 -101 23 -197q32 95 78 197l153 333q4 7 11 7h85z" />
<glyph unicode="W" horiz-adv-x="842" d="M872 645q9 0 5 -10l-263 -628q-3 -7 -11 -7h-78q-8 0 -9 7l-43 316q-14 104 -16 187q-27 -91 -68 -187l-131 -316q-4 -7 -11 -7h-79q-8 0 -9 7l-87 628q-1 10 9 10h79q8 0 9 -7l42 -316q13 -109 14 -180q24 80 67 181l131 315q3 7 11 7h81q8 0 9 -7l43 -315 q13 -109 14 -178q27 86 65 177l131 316q3 7 11 7h84z" />
<glyph unicode="X" horiz-adv-x="525" d="M549 645q12 0 4 -11l-229 -308l146 -315q5 -11 -7 -11h-84q-7 0 -9 6l-105 229l-169 -229q-5 -6 -11 -6h-94q-11 0 -5 11l235 316l-143 307q-5 11 8 11h83q7 0 9 -6l102 -224l166 224q4 6 11 6h92z" />
<glyph unicode="Y" horiz-adv-x="494" d="M541 645q11 0 5 -11l-253 -396l-32 -227q-2 -11 -11 -11h-77q-9 0 -7 11l32 227l-143 396q-3 11 8 11h78q7 0 9 -6l57 -163q30 -87 44 -163q28 62 89 163l103 163q4 6 11 6h87z" />
<glyph unicode="Z" horiz-adv-x="451" d="M464 645q8 0 7 -9l-8 -57q-2 -9 -4 -11l-275 -383q-52 -72 -76 -98h288q8 0 7 -9l-9 -69q-2 -9 -10 -9h-388q-8 0 -7 9l7 57q1 4 5 11l272 380q50 69 80 101h-268q-9 0 -7 9l9 69q1 9 11 9h366z" />
<glyph unicode="[" horiz-adv-x="288" d="M331 708q9 0 7 -9l-8 -60q-2 -9 -10 -9h-106l-96 -680h106q10 0 8 -9l-8 -60q-1 -9 -11 -9h-186q-10 0 -8 12l115 815q2 9 10 9h187z" />
<glyph unicode="\" horiz-adv-x="391" d="M333 -72h-79q-6 0 -7 5l-177 762q1 5 6 5h79q5 0 6 -5l177 -762q1 -5 -5 -5z" />
<glyph unicode="]" horiz-adv-x="288" d="M272 708q10 0 8 -12l-115 -815q-1 -9 -10 -9h-187q-8 0 -7 9l8 60q1 9 10 9h106l96 680h-106q-9 0 -8 9l8 60q1 9 11 9h186z" />
<glyph unicode="^" horiz-adv-x="450" d="M448 442q3 -5 1.5 -8.5t-7.5 -3.5h-76q-8 0 -12 7l-79 135l-118 -135q-6 -7 -13 -7h-85q-5 0 -6.5 3t1.5 7l177 200q4 5 12 5h76q7 0 11 -5z" />
<glyph unicode="_" horiz-adv-x="373" d="M-43 -119q-9 0 -8 9l9 65q2 9 10 9h355q9 0 8 -9l-9 -65q-2 -9 -10 -9h-355z" />
<glyph unicode="`" d="M290 569q-6 0 -10 4l-101 104q-4 5 -1.5 8t8.5 3h83q5 0 9 -4l84 -105q4 -4 1.5 -7t-7.5 -3h-66z" />
<glyph unicode="a" d="M496 505q8 0 7 -9l-68 -484q-2 -12 -10 -12h-47q-6 0 -10 6l-15 31q-83 -45 -172 -45q-85 0 -118 40.5t-20 131.5l25 174q13 95 56 135t128 40q91 0 161 -46l24 31q6 7 12 7h47zM140 177q-8 -62 5 -80t64 -18q79 0 145 31l40 286q-61 30 -134 30q-52 0 -71.5 -19.5 t-27.5 -79.5z" />
<glyph unicode="b" d="M355 513q86 0 118.5 -41t18.5 -132l-24 -174q-13 -95 -56 -134.5t-129 -39.5q-90 0 -162 45l-23 -32q-5 -5 -12 -5h-46q-10 0 -8 11l96 680q1 9 10 9h77q9 0 8 -9l-31 -218q77 40 163 40zM395 328q9 61 -4.5 79.5t-64.5 18.5q-73 0 -145 -30l-40 -288q59 -29 134 -29 q52 0 71.5 19.5t27.5 79.5z" />
<glyph unicode="c" horiz-adv-x="505" d="M222 -8q-109 0 -150.5 41t-28.5 127l25 183q12 88 65 129t162 41h6q108 0 149 -41.5t29 -128.5l-1 -10q-1 -9 -10 -9h-76q-10 0 -9 9l2 10q7 51 -12 67t-84 16h-6q-63 0 -88.5 -18.5t-31.5 -64.5l-25 -183q-7 -49 12 -65t84 -16h6q63 0 88 19t31 66l2 10q1 8 10 8h76 q9 0 8 -8l-1 -10q-13 -90 -65 -131t-161 -41h-6z" />
<glyph unicode="d" d="M523 700q9 0 8 -9l-97 -683q-1 -8 -9 -8h-47q-6 0 -9 5l-16 32q-83 -45 -172 -45q-85 0 -118 40.5t-20 131.5l25 174q13 95 56 135t128 40q87 0 153 -41l31 219q1 9 10 9h77zM140 177q-8 -62 5 -80t64 -18q78 0 145 30l40 287q-61 30 -134 30q-52 0 -71.5 -19.5 t-27.5 -79.5z" />
<glyph unicode="e" horiz-adv-x="523" d="M304 513q110 0 151.5 -41t29.5 -129l-14 -104q-1 -8 -11 -8h-313l-10 -70q-7 -49 13 -66.5t87 -17.5h6q65 0 91 18.5t31 61.5l1 7q1 9 11 9h74q10 0 9 -9l-1 -7q-12 -84 -64.5 -124.5t-163.5 -40.5h-6q-110 0 -152 41t-30 128l25 182q13 88 66 129t164 41h6zM162 343 l-5 -40h229l5 40q8 54 -10.5 69.5t-88.5 15.5h-6q-66 0 -91.5 -18.5t-32.5 -66.5z" />
<glyph unicode="f" horiz-adv-x="331" d="M386 708q8 0 7 -9l-8 -62q-1 -9 -11 -9h-51q-48 0 -66 -17.5t-25 -67.5l-5 -38h126q9 0 8 -9l-9 -62q-2 -9 -10 -9h-127l-59 -416q-2 -9 -10 -9h-77q-9 0 -8 10l59 415h-79q-9 0 -8 9l5 36q1 8 10 10l82 13l6 44q13 95 56 133t135 38h59z" />
<glyph unicode="g" d="M496 505q8 0 7 -9l-75 -534q-13 -90 -65.5 -130t-165.5 -40h-151q-8 0 -7 9l9 68q2 9 10 9h145q69 0 96.5 18.5t33.5 63.5l10 72q-77 -40 -162 -40t-118 40.5t-20 131.5l25 174q13 95 56 135t128 40q91 0 161 -46l24 31q6 7 12 7h47zM209 79q78 0 145 30l40 287 q-61 30 -134 30q-52 0 -71.5 -19.5t-27.5 -79.5l-21 -150q-8 -62 5 -80t64 -18z" />
<glyph unicode="h" horiz-adv-x="538" d="M353 513q86 0 118 -40t19 -132l-46 -332q-1 -9 -11 -9h-77q-8 0 -7 9l44 318q9 61 -4.5 80t-65.5 19q-71 0 -141 -29l-55 -386q-2 -11 -10 -11h-77q-10 0 -8 11l96 680q2 9 10 9h77q9 0 8 -9l-31 -218q76 40 161 40z" />
<glyph unicode="i" horiz-adv-x="227" d="M121 577q-9 0 -8 10l13 92q2 9 10 9h77q9 0 8 -9l-13 -92q-1 -10 -11 -10h-76zM39 0q-8 0 -7 11l68 483q2 11 10 11h77q10 0 8 -11l-68 -483q-1 -11 -11 -11h-77z" />
<glyph unicode="j" horiz-adv-x="227" d="M121 577q-9 0 -8 10l13 92q2 9 10 9h77q9 0 8 -9l-13 -92q-1 -10 -11 -10h-76zM-104 -208q-10 0 -8 9l10 66q2 9 10 9h31q43 0 60.5 17t24.5 65l76 538q2 9 10 9h77q9 0 8 -9l-77 -545q-12 -86 -54 -122.5t-133 -36.5h-35z" />
<glyph unicode="k" horiz-adv-x="485" d="M496 505q3 0 5 -1.5t1.5 -4.5t-3.5 -5l-187 -187l127 -296q5 -11 -8 -11h-84q-8 0 -10 6l-97 231l-94 -89l-19 -137q-2 -11 -10 -11h-77q-10 0 -8 11l96 680q2 9 10 9h77q9 0 8 -9l-59 -420l227 229q5 5 11 5h94z" />
<glyph unicode="l" horiz-adv-x="227" d="M40 0q-10 0 -8 11l96 680q2 9 10 9h77q9 0 8 -9l-96 -680q-2 -11 -10 -11h-77z" />
<glyph unicode="m" horiz-adv-x="823" d="M647 513q79 0 109.5 -40.5t17.5 -131.5l-46 -332q-2 -9 -11 -9h-77q-8 0 -7 9l44 318q9 60 -3.5 79.5t-59.5 19.5q-68 0 -135 -30q0 -28 -4 -55l-46 -332q-1 -9 -11 -9h-77q-9 0 -7 9l44 318q9 60 -3.5 79.5t-59.5 19.5q-65 0 -134 -28l-54 -389q-1 -9 -11 -9h-77 q-9 0 -7 9l68 485q2 11 10 11h47q7 0 9 -6l15 -31q83 45 167 45q90 0 117 -52q90 52 182 52z" />
<glyph unicode="n" horiz-adv-x="538" d="M353 513q86 0 118 -40t19 -132l-47 -332q-1 -9 -10 -9h-78q-8 0 -7 9l45 318q8 61 -5.5 80t-65.5 19q-72 0 -140 -28l-55 -389q-1 -9 -11 -9h-77q-8 0 -7 9l68 483q2 13 10 13h47q6 0 9 -6l15 -31q83 45 172 45z" />
<glyph unicode="o" horiz-adv-x="533" d="M43 162l25 178q12 90 65.5 131.5t166.5 41.5h6q112 0 154 -42t30 -131l-26 -178q-12 -88 -65 -129t-166 -41h-6q-111 0 -153.5 41.5t-30.5 128.5zM138 162q-7 -49 13 -66t88 -17h6q67 0 92.5 18.5t31.5 64.5l26 178q7 51 -13 68.5t-88 17.5h-6q-67 0 -92.5 -19t-32.5 -67 z" />
<glyph unicode="p" horiz-adv-x="536" d="M356 513q85 0 117.5 -41t19.5 -132l-25 -174q-13 -95 -56 -134.5t-128 -39.5t-154 39l-31 -222q-1 -9 -10 -9h-77q-9 0 -8 9l96 683q1 13 11 13h46q7 0 10 -7l14 -31q83 46 175 46zM396 328q8 61 -5.5 79.5t-64.5 18.5q-73 0 -145 -30l-40 -288q61 -29 134 -29 q53 0 72 19.5t27 79.5z" />
<glyph unicode="q" d="M496 505q9 0 7 -13l-96 -683q-1 -9 -10 -9h-78q-8 0 -7 9l31 223q-77 -40 -162 -40t-118 40.5t-20 131.5l25 174q13 95 56 135t128 40q91 0 162 -46l23 31q6 7 12 7h47zM209 79q79 0 145 31l40 286q-61 30 -134 30q-52 0 -71.5 -19.5t-27.5 -79.5l-21 -150q-8 -62 5 -80 t64 -18z" />
<glyph unicode="r" horiz-adv-x="326" d="M341 513q5 0 7.5 -2t1.5 -6l-10 -70q-1 -9 -10 -9h-19q-77 0 -131 -36l-53 -381q-1 -9 -11 -9h-77q-9 0 -7 9l68 484q2 12 10 12h46q7 0 10 -7l16 -37q63 52 142 52h17z" />
<glyph unicode="s" horiz-adv-x="478" d="M200 -8q-103 0 -145.5 36t-33.5 101l4 33q1 8 10 8h76q9 0 8 -8l-5 -33q-4 -26 17.5 -39t80.5 -13h6q58 0 82.5 13t28.5 40l2 14q3 23 -5.5 33.5t-43.5 19.5l-126 36q-60 18 -82 48t-14 80l2 14q19 138 210 138h6q99 0 140 -36t32 -101l-4 -32q-1 -9 -10 -9h-76 q-9 0 -8 9l5 32q4 28 -16 40t-75 12h-6q-54 0 -77 -13t-27 -40l-2 -14q-3 -20 6 -30t46 -21l125 -35q59 -17 80.5 -47t13.5 -84l-2 -14q-19 -138 -217 -138h-6z" />
<glyph unicode="t" horiz-adv-x="340" d="M343 505q9 0 7 -9l-8 -62q-2 -9 -10 -9h-124l-37 -266q-7 -49 6.5 -64.5t60.5 -15.5h47q9 0 8 -9l-10 -65q-1 -9 -10 -9h-54q-90 0 -123 36t-20 123l38 270h-75q-9 0 -8 9l6 36q1 9 9 10l77 13l20 143q1 9 11 9h78q8 0 6 -9l-18 -131h123z" />
<glyph unicode="u" horiz-adv-x="534" d="M495 505q9 0 7 -9l-68 -484q-2 -12 -10 -12h-47q-7 0 -10 7l-13 29q-85 -44 -172 -44q-84 0 -115.5 40t-18.5 132l47 332q1 9 10 9h77q10 0 8 -9l-45 -318q-8 -61 4 -80t63 -19q72 0 140 28l55 389q1 9 10 9h78z" />
<glyph unicode="v" horiz-adv-x="465" d="M486 505q11 0 6 -10l-241 -488q-3 -7 -12 -7h-84q-8 0 -9 7l-105 488q-2 10 9 10h77q9 0 10 -7l41 -212q22 -113 29 -197q31 90 83 197l101 212q3 7 12 7h83z" />
<glyph unicode="w" horiz-adv-x="739" d="M756 505q11 0 6 -10l-211 -487q-4 -8 -11 -8h-94q-8 0 -9 8l-29 189q-15 100 -18 203q-28 -93 -75 -203l-82 -189q-4 -8 -11 -8h-94q-7 0 -8 8l-74 487q-2 10 9 10h78q7 0 9 -8l29 -210q14 -108 16 -196q33 104 74 196l92 210q3 8 11 8h78q8 0 9 -8l32 -210 q16 -106 19 -193q33 106 71 193l88 210q5 8 11 8h84z" />
<glyph unicode="x" horiz-adv-x="455" d="M464 505q14 0 2 -13l-183 -233l125 -247q3 -5 0.5 -8.5t-7.5 -3.5h-84q-8 0 -10 6l-85 175l-135 -175q-5 -6 -12 -6h-92q-13 0 -3 12l193 246l-118 234q-6 13 7 13h84q6 0 9 -6l80 -166l124 166q5 6 11 6h94z" />
<glyph unicode="y" d="M496 505q8 0 7 -9l-75 -534q-13 -90 -65.5 -130t-165.5 -40h-151q-8 0 -7 9l9 68q2 9 10 9h145q69 0 96.5 18.5t33.5 63.5l10 70q-79 -38 -161 -38q-84 0 -115.5 40t-18.5 132l47 332q1 9 10 9h77q10 0 8 -9l-45 -318q-8 -61 4 -80t63 -19q74 0 142 29l54 386q1 11 14 11 h74z" />
<glyph unicode="z" horiz-adv-x="410" d="M401 505q9 0 8 -9l-9 -60q-2 -9 -5 -12l-238 -290q-26 -32 -44 -48h239q10 0 8 -9l-9 -68q-1 -9 -11 -9h-341q-9 0 -8 9l9 58q2 8 4 11l238 291q32 37 47 50h-221q-10 0 -8 9l9 68q1 9 11 9h321z" />
<glyph unicode="{" horiz-adv-x="317" d="M359 708q9 0 8 -9l-8 -60q-1 -9 -10 -9h-19q-41 0 -59 -16t-25 -60l-19 -136q-9 -64 -33.5 -92.5t-81.5 -35.5q55 -8 71 -36.5t7 -94.5l-19 -135q-6 -45 7.5 -59.5t55.5 -14.5h19q9 0 7 -9l-8 -60q-1 -9 -10 -9h-24q-85 0 -116.5 34.5t-20.5 114.5l20 142q7 48 -8.5 67.5 t-59.5 19.5h-2q-9 0 -7 9l8 61q2 9 10 9h2q44 0 65 19t27 64l21 146q11 79 53 114.5t126 35.5h23z" />
<glyph unicode="|" horiz-adv-x="229" d="M33 -80q-9 0 -8 9l111 787q0 9 10 9h70q8 0 8 -9l-111 -787q-1 -9 -10 -9h-70z" />
<glyph unicode="}" horiz-adv-x="317" d="M296 330q8 0 7 -9l-8 -61q-1 -9 -10 -9h-2q-44 0 -65 -19t-27 -64l-21 -146q-11 -79 -53 -114.5t-126 -35.5h-23q-9 0 -8 9l8 60q2 9 10 9h19q41 0 59 16t25 60l19 136q9 64 33.5 92.5t81.5 35.5q-55 8 -71 36.5t-7 94.5l19 135q6 45 -7.5 59.5t-55.5 14.5h-19q-8 0 -7 9 l8 60q1 9 10 9h24q85 0 116.5 -34.5t20.5 -114.5l-20 -142q-7 -48 8.5 -67.5t59.5 -19.5h2z" />
<glyph unicode="~" horiz-adv-x="500" d="M337 174q-39 0 -97.5 38t-96.5 38q-41 0 -93 -31q-5 -3 -8 -1.5t-2 6.5l9 64q0 6 7 11q62 34 107 34q39 0 98 -38t97 -38q42 0 93 31q4 3 7.5 1t2.5 -7l-9 -64q-2 -7 -12 -13q-62 -31 -103 -31z" />
<glyph unicode="&#xa1;" horiz-adv-x="229" d="M190 505q9 0 8 -9l-13 -90q-1 -9 -10 -9h-80q-9 0 -7 9l12 90q1 9 10 9h80zM147 320q9 0 8 -9l-46 -442q-1 -9 -11 -9h-78q-8 0 -7 9l77 442q1 9 11 9h46z" />
<glyph unicode="&#xa2;" horiz-adv-x="552" d="M373 584q84 -7 115.5 -48.5t20.5 -119.5l-1 -10q-1 -9 -10 -9h-76q-10 0 -9 9l2 10q5 42 -6 59.5t-48 21.5l-48 -342q38 5 54.5 24t21.5 58l2 10q1 8 10 8h76q9 0 8 -8l-1 -10q-12 -81 -54.5 -122t-129.5 -48l-12 -88q-2 -9 -10 -9h-73q-9 0 -8 9l12 88q-84 7 -115.5 48 t-20.5 118l25 183q11 78 54 119.5t130 48.5l12 82q2 9 10 9h73q9 0 8 -9zM168 233q-5 -41 6 -58t48 -21l48 342q-38 -5 -55 -24t-22 -56z" />
<glyph unicode="&#xa3;" horiz-adv-x="548" d="M349 653q107 0 147 -40.5t28 -127.5l-5 -36q-1 -9 -10 -9h-77q-8 0 -7 9l5 36q7 48 -12 64.5t-81 16.5h-6q-61 0 -85.5 -18t-31.5 -64l-18 -126h178q10 0 8 -9l-9 -65q-1 -8 -10 -8h-178l-27 -189h113q66 0 92.5 19t32.5 66l1 7q1 9 11 9h77q9 0 7 -9l-1 -7 q-12 -90 -65 -131t-161 -41h-256q-9 0 -8 9l10 69q2 9 10 9h42l27 189h-43q-8 0 -7 8l9 65q1 9 10 9h43l18 130q12 84 64.5 124.5t158.5 40.5h6z" />
<glyph unicode="&#xa4;" horiz-adv-x="585" d="M579 621q5 0 6.5 -3t-1.5 -7l-100 -122q36 -36 24 -118l-13 -96q-11 -83 -57 -118l64 -123q2 -4 -0.5 -7t-7.5 -3h-81q-7 0 -9 5l-51 96q-24 -4 -61 -4h-35q-31 0 -56 3l-76 -95q-5 -5 -12 -5h-87q-5 0 -6.5 3t1.5 7l100 124q-34 34 -23 117l13 96q12 83 57 118l-65 122 q-2 4 0.5 7t7.5 3h81q6 0 10 -5l50 -95q25 4 62 4h35q31 0 55 -3l77 94q4 5 11 5h87zM269 206h35q53 0 73.5 14t26.5 55l13 96q6 44 -9.5 56.5t-70.5 12.5h-35q-54 0 -74 -14t-26 -55l-13 -96q-6 -44 9.5 -56.5t70.5 -12.5z" />
<glyph unicode="&#xa5;" horiz-adv-x="527" d="M546 645q10 0 5 -11l-194 -319h93q8 0 8 -9l-8 -59q-1 -8 -11 -8h-129l-10 -69h130q8 0 7 -9l-8 -58q-1 -9 -10 -9h-129l-12 -85q-2 -9 -11 -9h-77q-8 0 -7 9l12 85h-130q-10 0 -8 9l9 58q2 9 10 9h129l10 69h-130q-8 0 -7 8l8 59q2 9 10 9h93l-105 320q-3 10 9 10h78 q9 0 10 -7l92 -296l176 296q4 7 12 7h85z" />
<glyph unicode="&#xa6;" horiz-adv-x="229" d="M100 395q-10 0 -8 9l44 312q0 9 10 9h70q8 0 8 -9l-44 -312q-2 -9 -10 -9h-70zM33 -80q-9 0 -8 9l41 292q2 9 10 9h70q10 0 8 -9l-41 -292q-1 -9 -10 -9h-70z" />
<glyph unicode="&#xa7;" horiz-adv-x="513" d="M380 295q-8 0 -7 9l3 21q3 23 -5.5 31.5t-44.5 12.5l-126 16q-66 8 -91.5 38.5t-17.5 85.5l1 7q19 137 218 137h6q104 0 145.5 -35.5t32.5 -103.5l-1 -11q-1 -9 -10 -9h-74q-9 0 -8 9l1 11q5 36 -12.5 45.5t-85.5 9.5h-6q-65 0 -86.5 -11t-26.5 -42l-1 -7 q-4 -27 5.5 -34.5t52.5 -12.5l126 -16q65 -9 86.5 -35.5t13.5 -85.5l-3 -21q-1 -9 -10 -9h-75zM217 -8q-105 0 -146.5 35.5t-32.5 103.5l2 11q2 9 10 9h74q9 0 8 -10l-2 -11q-4 -31 15 -42.5t84 -11.5h6q65 0 86.5 11t25.5 42l1 7q4 25 -6 33.5t-51 13.5l-125 16 q-66 9 -87.5 35.5t-13.5 86.5l3 21q1 8 10 8h74q9 0 8 -8l-3 -21q-4 -25 5 -32.5t45 -12.5l126 -16q65 -8 90.5 -38.5t17.5 -85.5l-1 -7q-20 -137 -217 -137h-6z" />
<glyph unicode="&#xa8;" horiz-adv-x="533" d="M200 577q-9 0 -8 9l14 93q1 9 10 9h68q9 0 8 -9l-14 -93q-1 -9 -10 -9h-68zM356 577q-9 0 -8 9l14 93q1 9 10 9h68q9 0 8 -9l-14 -93q-1 -9 -10 -9h-68z" />
<glyph unicode="&#xa9;" horiz-adv-x="703" d="M312 -8q-115 0 -175.5 20t-78.5 57t-8 101l42 305q13 96 79 137t234 41h6q114 0 175 -20t79 -57t9 -101l-43 -305q-14 -97 -79.5 -137.5t-233.5 -40.5h-6zM322 62h6q90 0 139 13t67 35t23 61l42 305q6 43 -6 64.5t-56 32.5t-136 11h-6q-89 0 -138.5 -13.5t-67 -35 t-22.5 -59.5l-43 -305q-6 -44 5.5 -65.5t56 -32.5t136.5 -11zM335 139q-77 0 -106.5 29t-21.5 89l18 131q9 63 46.5 91t115.5 28h4q78 0 108 -28.5t22 -87.5l-2 -14q-1 -9 -11 -9h-52q-8 0 -7 9l2 14q4 32 -9.5 42t-59.5 10h-4q-43 0 -60.5 -12t-21.5 -43l-19 -131 q-4 -33 9 -43.5t58 -10.5h4q44 0 61.5 11t21.5 41l2 11q1 10 10 10h52q9 0 8 -10l-2 -11q-8 -61 -45 -88.5t-117 -27.5h-4z" />
<glyph unicode="&#xab;" horiz-adv-x="497" d="M117 243l105 -162q4 -6 -3 -12l-43 -37q-8 -8 -12 0l-142 212q-5 6 2 13l202 212q7 7 12 0l37 -44q4 -6 -2 -12zM478 425q4 -6 -2 -12l-156 -170l105 -162q5 -6 -3 -12l-43 -37q-7 -8 -12 0l-142 212q-5 6 2 13l202 212q7 7 12 0z" />
<glyph unicode="&#xac;" horiz-adv-x="500" d="M459 335q9 0 8 -9l-27 -194q-1 -8 -11 -8h-77q-8 0 -7 8l16 117h-309q-8 0 -8 8l10 69q2 9 10 9h395z" />
<glyph unicode="&#xad;" horiz-adv-x="325" d="M30 242q-8 0 -8 9l10 69q2 9 10 9h263q9 0 7 -9l-10 -69q0 -9 -10 -9h-262z" />
<glyph unicode="&#xae;" horiz-adv-x="703" d="M411 653q114 0 175 -20t79 -57t9 -101l-43 -305q-14 -97 -79.5 -137.5t-233.5 -40.5h-6q-115 0 -175.5 20t-78.5 57t-8 101l42 305q13 96 79 137t234 41h6zM599 476q6 43 -6 64.5t-56 32.5t-136 11h-6q-89 0 -138.5 -13.5t-67 -35t-22.5 -59.5l-43 -305q-6 -44 5.5 -65.5 t56 -32.5t136.5 -11h6q90 0 139 13t67 35t23 61zM402 497q66 0 93.5 -24t20.5 -73l-5 -35q-12 -75 -81 -90l49 -117q4 -11 -8 -11h-55q-8 0 -10 7l-46 115h-68l-15 -111q-1 -11 -11 -11h-50q-11 0 -9 13l46 328q1 9 10 9h139zM446 400q2 19 -8 26.5t-39 7.5h-84l-14 -103h83 q52 0 57 34z" />
<glyph unicode="&#xaf;" horiz-adv-x="533" d="M205 578q-9 0 -8 9l7 53q2 9 11 9h215q8 0 7 -9l-7 -53q-2 -9 -10 -9h-215z" />
<glyph unicode="&#xb0;" horiz-adv-x="353" d="M180 370q-66 0 -92.5 29t-18.5 90l6 43q8 63 43 92t102 29h25q67 0 93.5 -29t18.5 -92l-6 -43q-9 -63 -44 -91t-102 -28h-25zM190 440h25q30 0 44 11t18 38l6 43q4 32 -6.5 41.5t-41.5 9.5h-24q-31 0 -44.5 -10.5t-17.5 -40.5l-6 -43q-4 -31 6 -40t41 -9z" />
<glyph unicode="&#xb1;" horiz-adv-x="500" d="M469 402q9 0 7 -9l-9 -68q-1 -9 -11 -9h-149l-19 -132q-2 -9 -10 -9h-77q-10 0 -8 9l19 132h-151q-9 0 -7 9l9 68q1 9 10 9h151l18 131q2 9 10 9h77q9 0 8 -9l-18 -131h150zM424 87q10 0 8 -9l-10 -69q-2 -9 -10 -9h-395q-9 0 -7 9l9 69q1 9 10 9h395z" />
<glyph unicode="&#xb4;" horiz-adv-x="533" d="M279 569q-6 0 -7 3t3 7l113 105q5 4 12 4h84q6 0 6.5 -3t-4.5 -8l-130 -104q-5 -4 -11 -4h-66z" />
<glyph unicode="&#xb6;" horiz-adv-x="603" d="M620 645q8 0 7 -9l-8 -58q-2 -9 -11 -9h-54l-78 -560q-2 -9 -11 -9h-72q-9 0 -8 9l79 560h-105l-78 -560q-1 -9 -11 -9h-72q-10 0 -8 9l38 271h-46q-76 0 -105 33.5t-18 106.5l12 85q11 73 49 106.5t114 33.5h386zM239 355l30 214h-47q-34 0 -49 -13.5t-21 -50.5l-12 -85 q-5 -37 6.5 -51t45.5 -14h47z" />
<glyph unicode="&#xb7;" horiz-adv-x="169" d="M45 250q-9 0 -8 9l13 90q2 9 10 9h80q8 0 7 -9l-12 -90q-1 -9 -10 -9h-80z" />
<glyph unicode="&#xb8;" d="M247 -57q52 0 70.5 -15.5t12.5 -56.5l-3 -18q-5 -38 -28.5 -53.5t-74.5 -15.5h-89q-9 0 -8 9l6 39q1 9 10 9h88q18 0 24.5 3.5t7.5 13.5l2 14q1 12 -4 15.5t-23 3.5h-87q-10 0 -7 10l34 121h62l-20 -79h27z" />
<glyph unicode="&#xbb;" horiz-adv-x="497" d="M271 255q5 -6 -2 -13l-202 -212q-7 -7 -12 0l-37 44q-4 6 2 12l156 170l-105 162q-5 6 3 12l43 37q7 7 12 0zM474 255q5 -6 -2 -13l-202 -212q-7 -7 -12 0l-37 44q-4 6 2 12l156 170l-105 162q-4 6 3 12l43 37q8 7 12 0z" />
<glyph unicode="&#xbc;" horiz-adv-x="643" d="M267 331q-1 -9 -10 -9h-188q-9 0 -8 9l7 47q2 9 10 9h62l26 189l-59 -28q-5 -2 -7.5 0t-1.5 7l7 48q1 7 7 10l58 29q6 3 15 3h54q8 0 7 -8l-35 -250h55q9 0 8 -9zM608 645q11 0 3 -11l-449 -627q-6 -7 -12 -7h-61q-13 0 -5 10l451 628q4 7 11 7h62zM565 121q9 0 8 -9 l-5 -40q-1 -9 -10 -9h-27l-8 -54q-1 -9 -11 -9h-48q-10 0 -8 9l8 54h-142q-9 0 -8 9l7 46q1 6 5 11l149 188q6 6 11 6h71q9 0 8 -12l-26 -190h26zM393 121h79l17 122z" />
<glyph unicode="&#xbd;" horiz-adv-x="677" d="M267 331q-1 -9 -10 -9h-188q-9 0 -8 9l7 47q2 9 10 9h62l26 189l-59 -28q-5 -2 -7.5 0t-1.5 7l7 48q1 7 7 10l58 29q6 3 15 3h54q8 0 7 -8l-35 -250h55q9 0 8 -9zM607 645q11 0 3 -11l-449 -627q-6 -7 -12 -7h-61q-13 0 -5 10l451 628q4 7 11 7h62zM520 327q60 0 85 -24 t19 -68l-2 -14q-6 -42 -25 -63.5t-61 -29.5l-65 -14q-22 -5 -29 -11t-9 -22l-3 -16h162q8 0 7 -9l-6 -47q-1 -9 -11 -9h-223q-9 0 -8 10l10 68q5 40 26.5 62t65.5 31l63 13q21 4 27 11t9 26l2 14q3 18 -5 23t-38 5h-3q-29 0 -38.5 -5.5t-12.5 -23.5l-1 -11q-2 -9 -10 -9h-53 q-9 0 -8 9l2 11q12 93 130 93h3z" />
<glyph unicode="&#xbe;" horiz-adv-x="657" d="M184 325h-3q-64 0 -89 22.5t-19 68.5l2 11q1 9 9 9h52q9 0 8 -9l-1 -11q-3 -19 5 -23.5t42 -4.5h3q32 0 41.5 6t12.5 25l1 10q3 20 -5 25.5t-41 5.5h-34q-10 0 -8 9l6 40q2 9 10 9h35q28 0 37 6.5t12 25.5l1 10q3 20 -4 25t-36 5h-3q-29 0 -38 -6t-12 -24l-1 -11 q-1 -8 -11 -8h-51q-9 0 -8 8l2 11q7 49 36 71t92 22h3q61 0 84.5 -22.5t16.5 -70.5l-1 -7q-4 -30 -15.5 -44.5t-38.5 -19.5q28 -4 37 -18.5t5 -44.5l-1 -7q-8 -51 -38 -72.5t-95 -21.5zM623 645q11 0 3 -11l-449 -627q-6 -7 -12 -7h-61q-13 0 -5 10l451 628q4 7 11 7h62z M580 121q9 0 8 -9l-6 -40q-1 -9 -10 -9h-27l-8 -54q-1 -9 -10 -9h-49q-8 0 -7 9l8 54h-142q-9 0 -8 9l6 46q1 6 5 11l149 188q6 6 12 6h71q10 0 8 -12l-27 -190h27zM407 121h80l17 123z" />
<glyph unicode="&#xbf;" horiz-adv-x="444" d="M352 505q9 0 8 -9l-13 -90q-1 -9 -10 -9h-80q-9 0 -7 9l12 90q1 9 10 9h80zM387 56q9 0 7 -9l-3 -25q-12 -88 -64 -129t-158 -41h-6q-104 0 -145.5 40.5t-30.5 120.5l2 14q10 70 37.5 103.5t95.5 53.5l47 14q37 11 48 26.5t18 64.5l3 22q2 9 10 9h76q10 0 8 -9l-3 -22 q-12 -81 -37.5 -113.5t-92.5 -52.5l-46 -14q-41 -12 -53.5 -26t-17.5 -56l-2 -14q-7 -44 13 -59t82 -15h6q61 0 86 18.5t31 64.5l4 25q2 9 10 9h75z" />
<glyph unicode="&#xc0;" horiz-adv-x="552" d="M327 713l-101 104q-4 5 -1.5 8t8.5 3h83q5 0 9 -4l84 -105q4 -4 1.5 -7t-7.5 -3h-66q-6 0 -10 4zM505 10q1 -10 -9 -10h-76q-9 0 -10 7l-28 141h-237l-68 -141q-3 -7 -11 -7h-81q-10 0 -6 10l305 628q4 7 12 7h71q9 0 10 -7zM186 234h179l-24 119q-16 77 -25 170 q-24 -69 -73 -170z" />
<glyph unicode="&#xc1;" horiz-adv-x="552" d="M283 709q-6 0 -7 3t3 7l113 105q5 4 12 4h84q6 0 6.5 -3t-4.5 -8l-130 -104q-5 -4 -11 -4h-66zM505 10q1 -10 -9 -10h-76q-9 0 -10 7l-28 141h-237l-68 -141q-3 -7 -11 -7h-81q-10 0 -6 10l305 628q4 7 12 7h71q9 0 10 -7zM186 234h179l-24 119q-16 77 -25 170 q-24 -69 -73 -170z" />
<glyph unicode="&#xc2;" horiz-adv-x="552" d="M205 709q-6 0 -7 3t4 7l114 105q7 4 12 4h60q6 0 10 -4l85 -105q4 -4 2 -7t-8 -3h-65q-6 0 -10 6l-47 67l-67 -67q-6 -6 -13 -6h-70zM505 10q1 -10 -9 -10h-76q-9 0 -10 7l-28 141h-237l-68 -141q-3 -7 -11 -7h-81q-10 0 -6 10l305 628q4 7 12 7h71q9 0 10 -7zM186 234 h179l-24 119q-16 77 -25 170q-24 -69 -73 -170z" />
<glyph unicode="&#xc3;" horiz-adv-x="552" d="M208 715q-8 0 -7 9l4 32q10 76 81 76q33 0 54 -17l63 -46q9 -8 18 -8q10 0 13 16l5 35q1 9 10 9h41q9 0 8 -9l-4 -31q-11 -77 -81 -77q-31 0 -55 17l-62 47q-11 8 -18 8q-10 0 -13 -17l-5 -35q-1 -9 -10 -9h-42zM505 10q1 -10 -9 -10h-76q-9 0 -10 7l-28 141h-237 l-68 -141q-3 -7 -11 -7h-81q-10 0 -6 10l305 628q4 7 12 7h71q9 0 10 -7zM186 234h179l-24 119q-16 77 -25 170q-24 -69 -73 -170z" />
<glyph unicode="&#xc4;" horiz-adv-x="552" d="M229 717q-9 0 -8 9l14 93q1 9 10 9h68q9 0 8 -9l-14 -93q-1 -9 -10 -9h-68zM385 717q-9 0 -8 9l14 93q1 9 10 9h68q9 0 8 -9l-14 -93q-1 -9 -10 -9h-68zM505 10q1 -10 -9 -10h-76q-9 0 -10 7l-28 141h-237l-68 -141q-3 -7 -11 -7h-81q-10 0 -6 10l305 628q4 7 12 7h71 q9 0 10 -7zM186 234h179l-24 119q-16 77 -25 170q-24 -69 -73 -170z" />
<glyph unicode="&#xc5;" horiz-adv-x="552" d="M338 699q-55 0 -74 16t-13 53l2 18q5 37 29 53t79 16h2q54 0 73.5 -16t14.5 -53l-2 -18q-6 -38 -29.5 -53.5t-79.5 -15.5h-2zM302 767q-2 -14 5 -18t38 -4h2q30 0 39.5 4.5t11.5 17.5l2 17q2 16 -5.5 20.5t-38.5 4.5h-2q-30 0 -39 -5t-11 -20zM505 10q1 -10 -9 -10h-76 q-9 0 -10 7l-28 141h-237l-68 -141q-3 -7 -11 -7h-81q-10 0 -6 10l305 628q4 7 12 7h71q9 0 10 -7zM186 234h179l-24 119q-16 77 -25 170q-24 -69 -73 -170z" />
<glyph unicode="&#xc6;" horiz-adv-x="836" d="M845 645q9 0 7 -9l-9 -69q-1 -9 -11 -9h-289l-26 -188h259q10 0 8 -9l-10 -69q-2 -9 -10 -9h-259l-27 -196h288q10 0 8 -9l-10 -69q-2 -9 -10 -9h-375q-9 0 -7 9l19 138h-218l-91 -141q-5 -6 -11 -6h-87q-11 0 -5 11l406 628q4 6 12 6h448zM228 232h175l45 327h-9z" />
<glyph unicode="&#xc7;" horiz-adv-x="562" d="M350 653q123 0 169.5 -42t33.5 -131l-5 -37q-2 -9 -10 -9h-78q-8 0 -7 9l5 37q8 53 -15 69.5t-105 16.5h-6q-80 0 -108.5 -18.5t-35.5 -67.5l-44 -316q-7 -50 16 -67.5t104 -17.5h6q80 0 108.5 18.5t35.5 68.5l5 36q1 9 10 9h77q10 0 8 -9l-5 -36q-13 -91 -69.5 -132.5 t-182.5 -41.5h-3l-13 -49h27q52 0 70.5 -15.5t12.5 -56.5l-3 -18q-5 -38 -28.5 -53.5t-74.5 -15.5h-89q-9 0 -8 9l6 39q2 9 10 9h88q18 0 24.5 3.5t7.5 13.5l2 14q1 12 -4 15.5t-23 3.5h-87q-10 0 -7 10l26 94q-89 9 -121.5 50t-20.5 119l44 316q12 90 69 131.5t182 41.5h6z " />
<glyph unicode="&#xc8;" horiz-adv-x="501" d="M313 713l-101 104q-4 5 -1.5 8t8.5 3h83q5 0 9 -4l84 -105q4 -4 1.5 -7t-7.5 -3h-66q-6 0 -10 4zM510 645q8 0 7 -9l-9 -69q-2 -9 -11 -9h-289l-26 -188h259q9 0 8 -9l-10 -69q-1 -9 -10 -9h-259l-27 -196h288q9 0 8 -9l-10 -69q-1 -9 -10 -9h-375q-8 0 -7 9l87 627 q2 9 11 9h375z" />
<glyph unicode="&#xc9;" horiz-adv-x="501" d="M269 709q-6 0 -7 3t3 7l113 105q5 4 12 4h84q6 0 6.5 -3t-4.5 -8l-130 -104q-5 -4 -11 -4h-66zM510 645q8 0 7 -9l-9 -69q-2 -9 -11 -9h-289l-26 -188h259q9 0 8 -9l-10 -69q-1 -9 -10 -9h-259l-27 -196h288q9 0 8 -9l-10 -69q-1 -9 -10 -9h-375q-8 0 -7 9l87 627 q2 9 11 9h375z" />
<glyph unicode="&#xca;" horiz-adv-x="501" d="M191 709q-6 0 -7 3t4 7l114 105q7 4 12 4h60q6 0 10 -4l85 -105q4 -4 2 -7t-8 -3h-65q-6 0 -10 6l-47 67l-67 -67q-6 -6 -13 -6h-70zM510 645q8 0 7 -9l-9 -69q-2 -9 -11 -9h-289l-26 -188h259q9 0 8 -9l-10 -69q-1 -9 -10 -9h-259l-27 -196h288q9 0 8 -9l-10 -69 q-1 -9 -10 -9h-375q-8 0 -7 9l87 627q2 9 11 9h375z" />
<glyph unicode="&#xcb;" horiz-adv-x="501" d="M215 717q-9 0 -8 9l14 93q1 9 10 9h68q9 0 8 -9l-14 -93q-1 -9 -10 -9h-68zM371 717q-9 0 -8 9l14 93q1 9 10 9h68q9 0 8 -9l-14 -93q-1 -9 -10 -9h-68zM510 645q8 0 7 -9l-9 -69q-2 -9 -11 -9h-289l-26 -188h259q9 0 8 -9l-10 -69q-1 -9 -10 -9h-259l-27 -196h288 q9 0 8 -9l-10 -69q-1 -9 -10 -9h-375q-8 0 -7 9l87 627q2 9 11 9h375z" />
<glyph unicode="&#xcc;" horiz-adv-x="237" d="M179 709q-6 0 -10 4l-101 104q-4 5 -1.5 8t8.5 3h83q5 0 9 -4l84 -105q4 -4 1.5 -7t-7.5 -3h-66zM45 0q-9 0 -8 10l88 626q1 9 11 9h77q8 0 7 -9l-88 -626q-1 -10 -11 -10h-76z" />
<glyph unicode="&#xcd;" horiz-adv-x="237" d="M125 709q-6 0 -7 3t3 7l113 105q5 4 12 4h84q6 0 6.5 -3t-4.5 -8l-130 -104q-5 -4 -11 -4h-66zM45 0q-9 0 -8 10l88 626q1 9 11 9h77q8 0 7 -9l-88 -626q-1 -10 -11 -10h-76z" />
<glyph unicode="&#xce;" horiz-adv-x="237" d="M325 719q4 -4 2 -7t-8 -3h-65q-6 0 -10 6l-47 67l-67 -67q-6 -6 -13 -6h-70q-6 0 -7 3t4 7l114 105q7 4 12 4h60q6 0 10 -4zM213 645q8 0 7 -9l-88 -626q-1 -10 -11 -10h-76q-9 0 -8 10l88 626q1 9 11 9h77z" />
<glyph unicode="&#xcf;" horiz-adv-x="237" d="M71 717q-9 0 -8 9l14 93q1 9 10 9h68q9 0 8 -9l-14 -93q-1 -9 -10 -9h-68zM227 717q-9 0 -8 9l14 93q1 9 10 9h68q9 0 8 -9l-14 -93q-1 -9 -10 -9h-68zM45 0q-9 0 -8 10l88 626q1 9 11 9h77q8 0 7 -9l-88 -626q-1 -10 -11 -10h-76z" />
<glyph unicode="&#xd0;" horiz-adv-x="583" d="M355 645q119 0 164.5 -41.5t33.5 -128.5l-43 -304q-12 -89 -68 -130t-178 -41h-220q-9 0 -7 10l39 283h-42q-10 0 -8 9l7 45q1 9 10 9h42l39 280q2 9 11 9h220zM458 475q8 52 -16.5 67.5t-112.5 15.5h-121l-28 -202h147q9 0 8 -9l-7 -45q-2 -9 -10 -9h-147l-29 -206h120 q86 0 116.5 18t36.5 66z" />
<glyph unicode="&#xd1;" horiz-adv-x="631" d="M247 715q-8 0 -7 9l4 32q10 76 81 76q33 0 54 -17l63 -46q9 -8 18 -8q10 0 13 16l5 35q1 9 10 9h41q9 0 8 -9l-4 -31q-11 -77 -81 -77q-31 0 -55 17l-62 47q-11 8 -18 8q-10 0 -13 -17l-5 -35q-1 -9 -10 -9h-42zM607 645q10 0 8 -8l-89 -627q-1 -10 -10 -10h-83 q-6 0 -10 6l-151 314q-53 114 -75 186q-7 -90 -21 -183l-44 -314q-1 -9 -11 -9h-77q-8 0 -7 9l87 626q1 10 11 10h84q7 0 9 -6l151 -315q53 -112 75 -184q2 31 22 184l44 312q2 9 10 9h77z" />
<glyph unicode="&#xd2;" horiz-adv-x="596" d="M358 709q-6 0 -10 4l-101 104q-4 5 -1.5 8t8.5 3h83q5 0 9 -4l84 -105q4 -4 1.5 -7t-7.5 -3h-66zM49 164l44 316q12 90 70 131.5t188 41.5h6q129 0 175.5 -41.5t34.5 -131.5l-44 -315q-13 -90 -71 -131.5t-188 -41.5h-6q-129 0 -175.5 41.5t-33.5 130.5zM144 164 q-8 -52 16 -68.5t111 -16.5h6q84 0 114 18.5t37 67.5l44 315q8 53 -16 69.5t-111 16.5h-6q-84 0 -114 -18.5t-37 -67.5z" />
<glyph unicode="&#xd3;" horiz-adv-x="596" d="M304 709q-6 0 -7 3t3 7l113 105q5 4 12 4h84q6 0 6.5 -3t-4.5 -8l-130 -104q-5 -4 -11 -4h-66zM49 164l44 316q12 90 70 131.5t188 41.5h6q129 0 175.5 -41.5t34.5 -131.5l-44 -315q-13 -90 -71 -131.5t-188 -41.5h-6q-129 0 -175.5 41.5t-33.5 130.5zM144 164 q-8 -52 16 -68.5t111 -16.5h6q84 0 114 18.5t37 67.5l44 315q8 53 -16 69.5t-111 16.5h-6q-84 0 -114 -18.5t-37 -67.5z" />
<glyph unicode="&#xd4;" horiz-adv-x="596" d="M226 709q-6 0 -7 3t4 7l114 105q7 4 12 4h60q6 0 10 -4l85 -105q4 -4 2 -7t-8 -3h-65q-6 0 -10 6l-47 67l-67 -67q-6 -6 -13 -6h-70zM357 653q129 0 175.5 -41.5t34.5 -131.5l-44 -315q-13 -90 -71 -131.5t-188 -41.5h-6q-129 0 -175.5 41.5t-33.5 130.5l44 316 q12 90 70 131.5t188 41.5h6zM472 480q8 53 -16 69.5t-111 16.5h-6q-84 0 -114 -18.5t-37 -67.5l-44 -316q-8 -52 16 -68.5t111 -16.5h6q84 0 114 18.5t37 67.5z" />
<glyph unicode="&#xd5;" horiz-adv-x="596" d="M434 704q-31 0 -55 17l-62 47q-11 8 -18 8q-10 0 -13 -17l-5 -35q-1 -9 -10 -9h-42q-8 0 -7 9l4 32q10 76 81 76q33 0 54 -17l63 -46q9 -8 18 -8q10 0 13 16l5 35q1 9 10 9h41q9 0 8 -9l-4 -31q-11 -77 -81 -77zM49 164l44 316q12 90 70 131.5t188 41.5h6 q129 0 175.5 -41.5t34.5 -131.5l-44 -315q-13 -90 -71 -131.5t-188 -41.5h-6q-129 0 -175.5 41.5t-33.5 130.5zM144 164q-8 -52 16 -68.5t111 -16.5h6q84 0 114 18.5t37 67.5l44 315q8 53 -16 69.5t-111 16.5h-6q-84 0 -114 -18.5t-37 -67.5z" />
<glyph unicode="&#xd6;" horiz-adv-x="596" d="M250 717q-9 0 -8 9l14 93q1 9 10 9h68q9 0 8 -9l-14 -93q-1 -9 -10 -9h-68zM406 717q-9 0 -8 9l14 93q1 9 10 9h68q9 0 8 -9l-14 -93q-1 -9 -10 -9h-68zM49 164l44 316q12 90 70 131.5t188 41.5h6q129 0 175.5 -41.5t34.5 -131.5l-44 -315q-13 -90 -71 -131.5t-188 -41.5 h-6q-129 0 -175.5 41.5t-33.5 130.5zM144 164q-8 -52 16 -68.5t111 -16.5h6q84 0 114 18.5t37 67.5l44 315q8 53 -16 69.5t-111 16.5h-6q-84 0 -114 -18.5t-37 -67.5z" />
<glyph unicode="&#xd7;" horiz-adv-x="500" d="M447 376q7 -5 -1 -13l-133 -116l97 -113q7 -7 -2 -13l-54 -47q-6 -7 -13 0l-97 112l-132 -116q-9 -6 -13 0l-47 54q-6 7 2 13l133 117l-98 113q-5 5 2 13l54 47q7 7 13 0l97 -113l133 117q8 6 12 0z" />
<glyph unicode="&#xd8;" horiz-adv-x="596" d="M566 699q12 0 5 -11l-45 -71q55 -41 41 -137l-44 -315q-13 -90 -71 -131.5t-188 -41.5h-6q-74 0 -122 14l-34 -54q-4 -7 -12 -7h-41q-11 0 -5 11l46 72q-55 39 -41 136l44 316q12 90 70 131.5t188 41.5h6q74 0 122 -14l34 53q6 7 12 7h41zM144 164q-5 -32 1 -49l284 445 q-30 6 -84 6h-6q-84 0 -114 -18.5t-37 -67.5zM472 480q5 33 -1 51l-284 -446q30 -6 84 -6h6q84 0 114 18.5t37 67.5z" />
<glyph unicode="&#xd9;" horiz-adv-x="592" d="M357 709q-6 0 -10 4l-101 104q-4 5 -1.5 8t8.5 3h83q5 0 9 -4l84 -105q4 -4 1.5 -7t-7.5 -3h-66zM257 -8q-124 0 -170 41.5t-33 131.5l66 471q2 9 11 9h77q8 0 7 -9l-66 -471q-8 -52 15.5 -69t104.5 -17h6q80 0 108.5 18.5t35.5 67.5l66 471q1 9 11 9h77q9 0 7 -9 l-66 -471q-12 -90 -69 -131.5t-182 -41.5h-6z" />
<glyph unicode="&#xda;" horiz-adv-x="592" d="M303 709q-6 0 -7 3t3 7l113 105q5 4 12 4h84q6 0 6.5 -3t-4.5 -8l-130 -104q-5 -4 -11 -4h-66zM257 -8q-124 0 -170 41.5t-33 131.5l66 471q2 9 11 9h77q8 0 7 -9l-66 -471q-8 -52 15.5 -69t104.5 -17h6q80 0 108.5 18.5t35.5 67.5l66 471q1 9 11 9h77q9 0 7 -9l-66 -471 q-12 -90 -69 -131.5t-182 -41.5h-6z" />
<glyph unicode="&#xdb;" horiz-adv-x="592" d="M225 709q-6 0 -7 3t4 7l114 105q7 4 12 4h60q6 0 10 -4l85 -105q4 -4 2 -7t-8 -3h-65q-6 0 -10 6l-47 67l-67 -67q-6 -6 -13 -6h-70zM573 645q9 0 7 -9l-66 -471q-12 -90 -69 -131.5t-182 -41.5h-6q-124 0 -170 41.5t-33 131.5l66 471q2 9 11 9h77q8 0 7 -9l-66 -471 q-8 -52 15.5 -69t104.5 -17h6q80 0 108.5 18.5t35.5 67.5l66 471q1 9 11 9h77z" />
<glyph unicode="&#xdc;" horiz-adv-x="592" d="M249 717q-9 0 -8 9l14 93q1 9 10 9h68q9 0 8 -9l-14 -93q-1 -9 -10 -9h-68zM405 717q-9 0 -8 9l14 93q1 9 10 9h68q9 0 8 -9l-14 -93q-1 -9 -10 -9h-68zM257 -8q-124 0 -170 41.5t-33 131.5l66 471q2 9 11 9h77q8 0 7 -9l-66 -471q-8 -52 15.5 -69t104.5 -17h6 q80 0 108.5 18.5t35.5 67.5l66 471q1 9 11 9h77q9 0 7 -9l-66 -471q-12 -90 -69 -131.5t-182 -41.5h-6z" />
<glyph unicode="&#xdd;" horiz-adv-x="494" d="M254 709q-6 0 -7 3t3 7l113 105q5 4 12 4h84q6 0 6.5 -3t-4.5 -8l-130 -104q-5 -4 -11 -4h-66zM541 645q11 0 5 -11l-253 -396l-32 -227q-2 -11 -11 -11h-77q-9 0 -7 11l32 227l-143 396q-3 11 8 11h78q7 0 9 -6l57 -163q30 -87 44 -163q28 62 89 163l103 163q4 6 11 6 h87z" />
<glyph unicode="&#xde;" horiz-adv-x="531" d="M362 544q181 0 157 -169l-12 -87q-12 -87 -61.5 -128.5t-143.5 -41.5h-155l-15 -108q-1 -10 -11 -10h-76q-9 0 -8 10l88 626q1 9 11 9h77q8 0 7 -9l-13 -92h155zM424 375q7 52 -11 67t-87 15h-131l-36 -252h132q68 0 91.5 17t29.5 66z" />
<glyph unicode="&#xdf;" horiz-adv-x="567" d="M341 -8q-83 0 -119 36t-27 103l4 29q1 9 11 9h72q8 0 7 -9l-4 -29q-4 -31 11 -43t57 -12h6q41 0 59 12.5t23 43.5l3 17q4 26 -5.5 37t-50.5 26l-69 27q-52 19 -71 46t-13 70l2 11q5 41 26 64.5t65 41.5l64 27q29 12 41.5 24t15.5 31l2 15q4 27 -18.5 40t-84.5 13h-6 q-76 0 -107 -23t-38 -73l-73 -517q-2 -9 -10 -9h-75q-9 0 -7 9l72 517q14 93 72.5 137.5t177.5 44.5h6q101 0 146.5 -36t35.5 -103l-2 -15q-6 -45 -31.5 -73.5t-82.5 -52.5l-55 -23q-25 -11 -33.5 -19t-10.5 -23l-2 -11q-2 -12 7 -21.5t37 -19.5l68 -26q63 -24 84.5 -54 t13.5 -82l-2 -17q-20 -140 -186 -140h-6z" />
<glyph unicode="&#xe0;" d="M299 573l-101 104q-4 5 -1.5 8t8.5 3h83q5 0 9 -4l84 -105q4 -4 1.5 -7t-7.5 -3h-66q-6 0 -10 4zM496 505q8 0 7 -9l-68 -484q-2 -12 -10 -12h-47q-6 0 -10 6l-15 31q-83 -45 -172 -45q-85 0 -118 40.5t-20 131.5l25 174q13 95 56 135t128 40q91 0 161 -46l24 31 q6 7 12 7h47zM140 177q-8 -62 5 -80t64 -18q79 0 145 31l40 286q-61 30 -134 30q-52 0 -71.5 -19.5t-27.5 -79.5z" />
<glyph unicode="&#xe1;" d="M255 569q-6 0 -7 3t3 7l113 105q5 4 12 4h84q6 0 6.5 -3t-4.5 -8l-130 -104q-5 -4 -11 -4h-66zM496 505q8 0 7 -9l-68 -484q-2 -12 -10 -12h-47q-6 0 -10 6l-15 31q-83 -45 -172 -45q-85 0 -118 40.5t-20 131.5l25 174q13 95 56 135t128 40q91 0 161 -46l24 31q6 7 12 7 h47zM140 177q-8 -62 5 -80t64 -18q79 0 145 31l40 286q-61 30 -134 30q-52 0 -71.5 -19.5t-27.5 -79.5z" />
<glyph unicode="&#xe2;" d="M177 569q-6 0 -7 3t4 7l114 105q7 4 12 4h60q6 0 10 -4l85 -105q4 -4 2 -7t-8 -3h-65q-6 0 -10 6l-47 67l-67 -67q-6 -6 -13 -6h-70zM496 505q8 0 7 -9l-68 -484q-2 -12 -10 -12h-47q-6 0 -10 6l-15 31q-83 -45 -172 -45q-85 0 -118 40.5t-20 131.5l25 174q13 95 56 135 t128 40q91 0 161 -46l24 31q6 7 12 7h47zM140 177q-8 -62 5 -80t64 -18q79 0 145 31l40 286q-61 30 -134 30q-52 0 -71.5 -19.5t-27.5 -79.5z" />
<glyph unicode="&#xe3;" d="M180 575q-8 0 -7 9l4 32q10 76 81 76q33 0 54 -17l63 -46q9 -8 18 -8q10 0 13 16l5 35q1 9 10 9h41q9 0 8 -9l-4 -31q-11 -77 -81 -77q-31 0 -55 17l-62 47q-11 8 -18 8q-10 0 -13 -17l-5 -35q-1 -9 -10 -9h-42zM496 505q8 0 7 -9l-68 -484q-2 -12 -10 -12h-47 q-6 0 -10 6l-15 31q-83 -45 -172 -45q-85 0 -118 40.5t-20 131.5l25 174q13 95 56 135t128 40q91 0 161 -46l24 31q6 7 12 7h47zM140 177q-8 -62 5 -80t64 -18q79 0 145 31l40 286q-61 30 -134 30q-52 0 -71.5 -19.5t-27.5 -79.5z" />
<glyph unicode="&#xe4;" d="M201 577q-9 0 -8 9l14 93q1 9 10 9h68q9 0 8 -9l-14 -93q-1 -9 -10 -9h-68zM357 577q-9 0 -8 9l14 93q1 9 10 9h68q9 0 8 -9l-14 -93q-1 -9 -10 -9h-68zM496 505q8 0 7 -9l-68 -484q-2 -12 -10 -12h-47q-6 0 -10 6l-15 31q-83 -45 -172 -45q-85 0 -118 40.5t-20 131.5 l25 174q13 95 56 135t128 40q91 0 161 -46l24 31q6 7 12 7h47zM140 177q-8 -62 5 -80t64 -18q79 0 145 31l40 286q-61 30 -134 30q-52 0 -71.5 -19.5t-27.5 -79.5z" />
<glyph unicode="&#xe5;" d="M310 559q-55 0 -74 16t-13 53l2 18q5 37 29 53t79 16h2q54 0 73.5 -16t14.5 -53l-2 -18q-6 -38 -29.5 -53.5t-79.5 -15.5h-2zM274 627q-2 -14 5 -18t38 -4h2q30 0 39.5 4.5t11.5 17.5l2 17q2 16 -5.5 20.5t-38.5 4.5h-2q-30 0 -39 -5t-11 -20zM496 505q8 0 7 -9l-68 -484 q-2 -12 -10 -12h-47q-6 0 -10 6l-15 31q-83 -45 -172 -45q-85 0 -118 40.5t-20 131.5l25 174q13 95 56 135t128 40q91 0 161 -46l24 31q6 7 12 7h47zM140 177q-8 -62 5 -80t64 -18q79 0 145 31l40 286q-61 30 -134 30q-52 0 -71.5 -19.5t-27.5 -79.5z" />
<glyph unicode="&#xe6;" horiz-adv-x="804" d="M591 513q106 0 146.5 -41.5t28.5 -128.5l-15 -104q-1 -8 -11 -8h-297l-10 -71q-8 -48 11 -65.5t81 -17.5h5q61 0 85.5 18.5t30.5 61.5l1 7q1 9 11 9h74q10 0 9 -9l-1 -7q-12 -84 -63.5 -124.5t-158.5 -40.5h-5q-120 0 -158 54q-81 -54 -179 -54q-85 0 -123 36.5 t-28 106.5l3 17q10 69 54 101.5t132 32.5h142l8 57q7 47 -10.5 65.5t-72.5 18.5h-6q-55 0 -78 -18t-29 -61q-1 -13 -11 -13h-75q-9 0 -8 13q12 84 62.5 124.5t150.5 40.5h5q104 0 137 -53q50 53 157 53h5zM458 343l-5 -40h213l6 40q7 53 -11 69t-82 16h-5q-61 0 -85 -19 t-31 -66zM195 73q72 0 141 33q-3 22 2 54l7 52h-146q-37 0 -54.5 -14t-22.5 -46l-2 -17q-5 -35 11 -48.5t64 -13.5z" />
<glyph unicode="&#xe7;" horiz-adv-x="505" d="M301 513q108 0 149 -41.5t29 -128.5l-1 -10q-1 -9 -10 -9h-76q-10 0 -9 9l2 10q7 51 -12 67t-84 16h-6q-63 0 -88.5 -18.5t-31.5 -64.5l-25 -183q-7 -49 12 -65t84 -16h6q63 0 88 19t31 66l2 10q1 8 10 8h76q9 0 8 -8l-1 -10q-13 -90 -65 -131t-161 -41h-3l-13 -49h27 q52 0 70.5 -15.5t12.5 -56.5l-3 -18q-5 -38 -28.5 -53.5t-74.5 -15.5h-89q-9 0 -8 9l6 39q1 9 10 9h88q18 0 24.5 3.5t7.5 13.5l2 14q1 12 -4 15.5t-23 3.5h-87q-10 0 -7 10l27 95q-75 10 -103 50t-17 114l25 183q12 88 65 129t162 41h6z" />
<glyph unicode="&#xe8;" horiz-adv-x="523" d="M294 573l-101 104q-4 5 -1.5 8t8.5 3h83q5 0 9 -4l84 -105q4 -4 1.5 -7t-7.5 -3h-66q-6 0 -10 4zM304 513q110 0 151.5 -41t29.5 -129l-14 -104q-1 -8 -11 -8h-313l-10 -70q-7 -49 13 -66.5t87 -17.5h6q65 0 91 18.5t31 61.5l1 7q1 9 11 9h74q10 0 9 -9l-1 -7 q-12 -84 -64.5 -124.5t-163.5 -40.5h-6q-110 0 -152 41t-30 128l25 182q13 88 66 129t164 41h6zM162 343l-5 -40h229l5 40q8 54 -10.5 69.5t-88.5 15.5h-6q-66 0 -91.5 -18.5t-32.5 -66.5z" />
<glyph unicode="&#xe9;" horiz-adv-x="523" d="M250 569q-6 0 -7 3t3 7l113 105q5 4 12 4h84q6 0 6.5 -3t-4.5 -8l-130 -104q-5 -4 -11 -4h-66zM304 513q110 0 151.5 -41t29.5 -129l-14 -104q-1 -8 -11 -8h-313l-10 -70q-7 -49 13 -66.5t87 -17.5h6q65 0 91 18.5t31 61.5l1 7q1 9 11 9h74q10 0 9 -9l-1 -7 q-12 -84 -64.5 -124.5t-163.5 -40.5h-6q-110 0 -152 41t-30 128l25 182q13 88 66 129t164 41h6zM162 343l-5 -40h229l5 40q8 54 -10.5 69.5t-88.5 15.5h-6q-66 0 -91.5 -18.5t-32.5 -66.5z" />
<glyph unicode="&#xea;" horiz-adv-x="523" d="M172 569q-6 0 -7 3t4 7l114 105q7 4 12 4h60q6 0 10 -4l85 -105q4 -4 2 -7t-8 -3h-65q-6 0 -10 6l-47 67l-67 -67q-6 -6 -13 -6h-70zM304 513q110 0 151.5 -41t29.5 -129l-14 -104q-1 -8 -11 -8h-313l-10 -70q-7 -49 13 -66.5t87 -17.5h6q65 0 91 18.5t31 61.5l1 7 q1 9 11 9h74q10 0 9 -9l-1 -7q-12 -84 -64.5 -124.5t-163.5 -40.5h-6q-110 0 -152 41t-30 128l25 182q13 88 66 129t164 41h6zM162 343l-5 -40h229l5 40q8 54 -10.5 69.5t-88.5 15.5h-6q-66 0 -91.5 -18.5t-32.5 -66.5z" />
<glyph unicode="&#xeb;" horiz-adv-x="523" d="M196 577q-9 0 -8 9l14 93q1 9 10 9h68q9 0 8 -9l-14 -93q-1 -9 -10 -9h-68zM352 577q-9 0 -8 9l14 93q1 9 10 9h68q9 0 8 -9l-14 -93q-1 -9 -10 -9h-68zM304 513q110 0 151.5 -41t29.5 -129l-14 -104q-1 -8 -11 -8h-313l-10 -70q-7 -49 13 -66.5t87 -17.5h6q65 0 91 18.5 t31 61.5l1 7q1 9 11 9h74q10 0 9 -9l-1 -7q-12 -84 -64.5 -124.5t-163.5 -40.5h-6q-110 0 -152 41t-30 128l25 182q13 88 66 129t164 41h6zM162 343l-5 -40h229l5 40q8 54 -10.5 69.5t-88.5 15.5h-6q-66 0 -91.5 -18.5t-32.5 -66.5z" />
<glyph unicode="&#xec;" horiz-adv-x="227" d="M154 569q-6 0 -10 4l-101 104q-4 5 -1.5 8t8.5 3h83q5 0 9 -4l84 -105q4 -4 1.5 -7t-7.5 -3h-66zM39 0q-8 0 -7 11l68 483q2 11 10 11h77q10 0 8 -11l-68 -483q-1 -11 -11 -11h-77z" />
<glyph unicode="&#xed;" horiz-adv-x="227" d="M100 569q-6 0 -7 3t3 7l113 105q5 4 12 4h84q6 0 6.5 -3t-4.5 -8l-130 -104q-5 -4 -11 -4h-66zM39 0q-8 0 -7 11l68 483q2 11 10 11h77q10 0 8 -11l-68 -483q-1 -11 -11 -11h-77z" />
<glyph unicode="&#xee;" horiz-adv-x="227" d="M300 579q4 -4 2 -7t-8 -3h-65q-6 0 -10 6l-47 67l-67 -67q-6 -6 -13 -6h-70q-6 0 -7 3t4 7l114 105q7 4 12 4h60q6 0 10 -4zM187 505q10 0 8 -11l-68 -483q-1 -11 -11 -11h-77q-8 0 -7 11l68 483q2 11 10 11h77z" />
<glyph unicode="&#xef;" horiz-adv-x="227" d="M46 577q-9 0 -8 9l14 93q1 9 10 9h68q9 0 8 -9l-14 -93q-1 -9 -10 -9h-68zM202 577q-9 0 -8 9l14 93q1 9 10 9h68q9 0 8 -9l-14 -93q-1 -9 -10 -9h-68zM39 0q-8 0 -7 11l68 483q2 11 10 11h77q10 0 8 -11l-68 -483q-1 -11 -11 -11h-77z" />
<glyph unicode="&#xf0;" horiz-adv-x="539" d="M565 730q5 3 8 1.5t2 -6.5l-6 -44q-1 -7 -7 -11l-85 -58q43 -66 26 -187l-37 -263q-12 -87 -66 -128.5t-167 -41.5h-6q-113 0 -154.5 41t-29.5 128l17 118q13 92 57.5 132.5t129.5 40.5q87 0 158 -45l3 18q12 93 -9 134l-97 -67q-4 -3 -7.5 -1t-2.5 7l6 43q1 6 7 12 l62 42q-47 31 -174 31h-6q-9 0 -7 9l8 64q2 9 11 9h6q167 0 239 -60zM246 79q67 0 92.5 18.5t32.5 64.5l24 169q-65 34 -141 34q-52 0 -72.5 -19.5t-28.5 -78.5l-15 -109q-7 -45 13.5 -62t88.5 -17h6z" />
<glyph unicode="&#xf1;" horiz-adv-x="538" d="M181 575q-8 0 -7 9l4 32q10 76 81 76q33 0 54 -17l63 -46q9 -8 18 -8q10 0 13 16l5 35q1 9 10 9h41q9 0 8 -9l-4 -31q-11 -77 -81 -77q-31 0 -55 17l-62 47q-11 8 -18 8q-10 0 -13 -17l-5 -35q-1 -9 -10 -9h-42zM353 513q86 0 118 -40t19 -132l-47 -332q-1 -9 -10 -9h-78 q-8 0 -7 9l45 318q8 61 -5.5 80t-65.5 19q-72 0 -140 -28l-55 -389q-1 -9 -11 -9h-77q-8 0 -7 9l68 483q2 13 10 13h47q6 0 9 -6l15 -31q83 45 172 45z" />
<glyph unicode="&#xf2;" horiz-adv-x="533" d="M307 569q-6 0 -10 4l-101 104q-4 5 -1.5 8t8.5 3h83q5 0 9 -4l84 -105q4 -4 1.5 -7t-7.5 -3h-66zM43 162l25 178q12 90 65.5 131.5t166.5 41.5h6q112 0 154 -42t30 -131l-26 -178q-12 -88 -65 -129t-166 -41h-6q-111 0 -153.5 41.5t-30.5 128.5zM138 162q-7 -49 13 -66 t88 -17h6q67 0 92.5 18.5t31.5 64.5l26 178q7 51 -13 68.5t-88 17.5h-6q-67 0 -92.5 -19t-32.5 -67z" />
<glyph unicode="&#xf3;" horiz-adv-x="533" d="M253 569q-6 0 -7 3t3 7l113 105q5 4 12 4h84q6 0 6.5 -3t-4.5 -8l-130 -104q-5 -4 -11 -4h-66zM43 162l25 178q12 90 65.5 131.5t166.5 41.5h6q112 0 154 -42t30 -131l-26 -178q-12 -88 -65 -129t-166 -41h-6q-111 0 -153.5 41.5t-30.5 128.5zM138 162q-7 -49 13 -66 t88 -17h6q67 0 92.5 18.5t31.5 64.5l26 178q7 51 -13 68.5t-88 17.5h-6q-67 0 -92.5 -19t-32.5 -67z" />
<glyph unicode="&#xf4;" horiz-adv-x="533" d="M175 569q-6 0 -7 3t4 7l114 105q7 4 12 4h60q6 0 10 -4l85 -105q4 -4 2 -7t-8 -3h-65q-6 0 -10 6l-47 67l-67 -67q-6 -6 -13 -6h-70zM306 513q112 0 154 -42t30 -131l-26 -178q-12 -88 -65 -129t-166 -41h-6q-111 0 -153.5 41.5t-30.5 128.5l25 178q12 90 65.5 131.5 t166.5 41.5h6zM395 340q7 51 -13 68.5t-88 17.5h-6q-67 0 -92.5 -19t-32.5 -67l-25 -178q-7 -49 13 -66t88 -17h6q67 0 92.5 18.5t31.5 64.5z" />
<glyph unicode="&#xf5;" horiz-adv-x="533" d="M383 564q-31 0 -55 17l-62 47q-11 8 -18 8q-10 0 -13 -17l-5 -35q-1 -9 -10 -9h-42q-8 0 -7 9l4 32q10 76 81 76q33 0 54 -17l63 -46q9 -8 18 -8q10 0 13 16l5 35q1 9 10 9h41q9 0 8 -9l-4 -31q-11 -77 -81 -77zM43 162l25 178q12 90 65.5 131.5t166.5 41.5h6 q112 0 154 -42t30 -131l-26 -178q-12 -88 -65 -129t-166 -41h-6q-111 0 -153.5 41.5t-30.5 128.5zM138 162q-7 -49 13 -66t88 -17h6q67 0 92.5 18.5t31.5 64.5l26 178q7 51 -13 68.5t-88 17.5h-6q-67 0 -92.5 -19t-32.5 -67z" />
<glyph unicode="&#xf6;" horiz-adv-x="533" d="M199 577q-9 0 -8 9l14 93q1 9 10 9h68q9 0 8 -9l-14 -93q-1 -9 -10 -9h-68zM355 577q-9 0 -8 9l14 93q1 9 10 9h68q9 0 8 -9l-14 -93q-1 -9 -10 -9h-68zM43 162l25 178q12 90 65.5 131.5t166.5 41.5h6q112 0 154 -42t30 -131l-26 -178q-12 -88 -65 -129t-166 -41h-6 q-111 0 -153.5 41.5t-30.5 128.5zM138 162q-7 -49 13 -66t88 -17h6q67 0 92.5 18.5t31.5 64.5l26 178q7 51 -13 68.5t-88 17.5h-6q-67 0 -92.5 -19t-32.5 -67z" />
<glyph unicode="&#xf7;" horiz-adv-x="500" d="M228 370q-8 0 -8 8l13 90q0 9 10 9h81q8 0 7 -9l-13 -90q0 -8 -10 -8h-80zM46 209q-9 0 -7 8l9 69q2 9 10 9h395q9 0 8 -9l-9 -69q-1 -8 -11 -8h-395zM180 26q-10 0 -8 9l13 90q1 9 10 9h80q9 0 8 -9l-13 -90q-2 -9 -10 -9h-80z" />
<glyph unicode="&#xf8;" horiz-adv-x="533" d="M446 483q58 -40 44 -143l-26 -178q-12 -88 -65 -129t-166 -41h-6q-52 0 -88 9l-31 -48q-4 -7 -12 -7h-41q-11 0 -5 11l40 63q-61 40 -47 142l25 178q12 90 65.5 131.5t166.5 41.5h6q56 0 92 -10l28 44q4 7 11 7h42q11 0 5 -11zM138 162q-6 -41 6 -58l203 319q-21 3 -53 3 h-6q-67 0 -92.5 -19t-32.5 -67zM395 340q5 41 -4 57l-201 -315q19 -3 49 -3h6q67 0 92.5 18.5t31.5 64.5z" />
<glyph unicode="&#xf9;" horiz-adv-x="534" d="M295 573l-101 104q-4 5 -1.5 8t8.5 3h83q5 0 9 -4l84 -105q4 -4 1.5 -7t-7.5 -3h-66q-6 0 -10 4zM495 505q9 0 7 -9l-68 -484q-2 -12 -10 -12h-47q-7 0 -10 7l-13 29q-85 -44 -172 -44q-84 0 -115.5 40t-18.5 132l47 332q1 9 10 9h77q10 0 8 -9l-45 -318q-8 -61 4 -80 t63 -19q72 0 140 28l55 389q1 9 10 9h78z" />
<glyph unicode="&#xfa;" horiz-adv-x="534" d="M251 569q-6 0 -7 3t3 7l113 105q5 4 12 4h84q6 0 6.5 -3t-4.5 -8l-130 -104q-5 -4 -11 -4h-66zM495 505q9 0 7 -9l-68 -484q-2 -12 -10 -12h-47q-7 0 -10 7l-13 29q-85 -44 -172 -44q-84 0 -115.5 40t-18.5 132l47 332q1 9 10 9h77q10 0 8 -9l-45 -318q-8 -61 4 -80 t63 -19q72 0 140 28l55 389q1 9 10 9h78z" />
<glyph unicode="&#xfb;" horiz-adv-x="534" d="M173 569q-6 0 -7 3t4 7l114 105q7 4 12 4h60q6 0 10 -4l85 -105q4 -4 2 -7t-8 -3h-65q-6 0 -10 6l-47 67l-67 -67q-6 -6 -13 -6h-70zM495 505q9 0 7 -9l-68 -484q-2 -12 -10 -12h-47q-7 0 -10 7l-13 29q-85 -44 -172 -44q-84 0 -115.5 40t-18.5 132l47 332q1 9 10 9h77 q10 0 8 -9l-45 -318q-8 -61 4 -80t63 -19q72 0 140 28l55 389q1 9 10 9h78z" />
<glyph unicode="&#xfc;" horiz-adv-x="534" d="M197 577q-9 0 -8 9l14 93q1 9 10 9h68q9 0 8 -9l-14 -93q-1 -9 -10 -9h-68zM353 577q-9 0 -8 9l14 93q1 9 10 9h68q9 0 8 -9l-14 -93q-1 -9 -10 -9h-68zM495 505q9 0 7 -9l-68 -484q-2 -12 -10 -12h-47q-7 0 -10 7l-13 29q-85 -44 -172 -44q-84 0 -115.5 40t-18.5 132 l47 332q1 9 10 9h77q10 0 8 -9l-45 -318q-8 -61 4 -80t63 -19q72 0 140 28l55 389q1 9 10 9h78z" />
<glyph unicode="&#xfd;" d="M252 569q-6 0 -7 3t3 7l113 105q5 4 12 4h84q6 0 6.5 -3t-4.5 -8l-130 -104q-5 -4 -11 -4h-66zM496 505q8 0 7 -9l-75 -534q-13 -90 -65.5 -130t-165.5 -40h-151q-8 0 -7 9l9 68q2 9 10 9h145q69 0 96.5 18.5t33.5 63.5l10 70q-79 -38 -161 -38q-84 0 -115.5 40 t-18.5 132l47 332q1 9 10 9h77q10 0 8 -9l-45 -318q-8 -61 4 -80t63 -19q74 0 142 29l54 386q1 11 14 11h74z" />
<glyph unicode="&#xfe;" horiz-adv-x="536" d="M356 513q85 0 117.5 -41t19.5 -132l-25 -174q-13 -95 -56 -134.5t-128 -39.5q-86 0 -154 40l-31 -223q-1 -9 -11 -9h-77q-9 0 -7 9l123 879q2 12 13 12h73q11 0 9 -12l-30 -215q77 40 164 40zM396 328q8 61 -5.5 79.5t-64.5 18.5q-73 0 -145 -30l-40 -288q61 -29 134 -29 q53 0 72 19.5t27 79.5z" />
<glyph unicode="&#xff;" d="M198 577q-9 0 -8 9l14 93q1 9 10 9h68q9 0 8 -9l-14 -93q-1 -9 -10 -9h-68zM354 577q-9 0 -8 9l14 93q1 9 10 9h68q9 0 8 -9l-14 -93q-1 -9 -10 -9h-68zM496 505q8 0 7 -9l-75 -534q-13 -90 -65.5 -130t-165.5 -40h-151q-8 0 -7 9l9 68q2 9 10 9h145q69 0 96.5 18.5 t33.5 63.5l10 70q-79 -38 -161 -38q-84 0 -115.5 40t-18.5 132l47 332q1 9 10 9h77q10 0 8 -9l-45 -318q-8 -61 4 -80t63 -19q74 0 142 29l54 386q1 11 14 11h74z" />
<glyph unicode="&#x100;" horiz-adv-x="552" d="M235 718q-9 0 -8 9l7 53q2 9 11 9h215q8 0 7 -9l-7 -53q-2 -9 -10 -9h-215zM505 10q1 -10 -9 -10h-76q-9 0 -10 7l-28 141h-237l-68 -141q-3 -7 -11 -7h-81q-10 0 -6 10l305 628q4 7 12 7h71q9 0 10 -7zM186 234h179l-24 119q-16 77 -25 170q-24 -69 -73 -170z" />
<glyph unicode="&#x101;" d="M207 578q-9 0 -8 9l7 53q2 9 11 9h215q8 0 7 -9l-7 -53q-2 -9 -10 -9h-215zM496 505q8 0 7 -9l-68 -484q-2 -12 -10 -12h-47q-6 0 -10 6l-15 31q-83 -45 -172 -45q-85 0 -118 40.5t-20 131.5l25 174q13 95 56 135t128 40q91 0 161 -46l24 31q6 7 12 7h47zM140 177 q-8 -62 5 -80t64 -18q79 0 145 31l40 286q-61 30 -134 30q-52 0 -71.5 -19.5t-27.5 -79.5z" />
<glyph unicode="&#x102;" horiz-adv-x="552" d="M338 705q-61 0 -86.5 22t-17.5 68l4 24q1 9 11 9h49q8 0 7 -9l-3 -24q-4 -23 4.5 -29t39.5 -6h4q29 0 40.5 7.5t14.5 26.5l3 25q1 9 10 9h50q8 0 7 -9l-3 -25q-13 -89 -130 -89h-4zM505 10q1 -10 -9 -10h-76q-9 0 -10 7l-28 141h-237l-68 -141q-3 -7 -11 -7h-81 q-10 0 -6 10l305 628q4 7 12 7h71q9 0 10 -7zM186 234h179l-24 119q-16 77 -25 170q-24 -69 -73 -170z" />
<glyph unicode="&#x103;" d="M310 565q-61 0 -86.5 22t-17.5 68l4 24q1 9 11 9h49q8 0 7 -9l-3 -24q-4 -23 4.5 -29t39.5 -6h4q29 0 40.5 7.5t14.5 26.5l3 25q1 9 10 9h50q8 0 7 -9l-3 -25q-13 -89 -130 -89h-4zM496 505q8 0 7 -9l-68 -484q-2 -12 -10 -12h-47q-6 0 -10 6l-15 31q-83 -45 -172 -45 q-85 0 -118 40.5t-20 131.5l25 174q13 95 56 135t128 40q91 0 161 -46l24 31q6 7 12 7h47zM140 177q-8 -62 5 -80t64 -18q79 0 145 31l40 286q-61 30 -134 30q-52 0 -71.5 -19.5t-27.5 -79.5z" />
<glyph unicode="&#x104;" horiz-adv-x="553" d="M505 10q2 -8 -10 -20l-51 -47q-22 -20 -29 -31t-9 -27l-1 -7q-3 -17 3.5 -22t31.5 -5h36q8 0 7 -9l-7 -49q-1 -9 -10 -9h-35q-59 0 -84 22t-19 67l1 7q4 26 18.5 45.5t50.5 48.5l33 26h-11q-9 0 -10 7l-28 141h-237l-68 -141q-3 -7 -11 -7h-81q-10 0 -6 10l305 628 q4 7 12 7h71q9 0 10 -7zM186 234h179l-24 119q-16 77 -25 170q-24 -69 -73 -170z" />
<glyph unicode="&#x105;" d="M496 505q8 0 7 -9l-66 -470l-2 -15q-1 -9 -10 -17l-54 -51q-22 -20 -29.5 -31t-9.5 -27l-1 -7q-2 -17 4.5 -22t30.5 -5h36q9 0 8 -9l-7 -49q-1 -9 -10 -9h-35q-59 0 -84 22t-19 67l1 7q4 27 18 46t51 48l42 33l-14 30q-83 -45 -172 -45q-85 0 -118 40.5t-20 131.5l25 174 q13 95 56 135t128 40q91 0 161 -46l24 31q6 7 12 7h47zM140 177q-8 -62 5 -80t64 -18q79 0 145 31l40 286q-61 30 -134 30q-52 0 -71.5 -19.5t-27.5 -79.5z" />
<glyph unicode="&#x106;" horiz-adv-x="562" d="M297 709q-6 0 -7 3t3 7l113 105q5 4 12 4h84q6 0 6.5 -3t-4.5 -8l-130 -104q-5 -4 -11 -4h-66zM251 -8q-125 0 -170 41.5t-32 130.5l44 316q12 90 69 131.5t182 41.5h6q123 0 169.5 -42t33.5 -131l-5 -37q-2 -9 -10 -9h-78q-8 0 -7 9l5 37q8 53 -15 69.5t-105 16.5h-6 q-80 0 -108.5 -18.5t-35.5 -67.5l-44 -316q-7 -50 16 -67.5t104 -17.5h6q80 0 108.5 18.5t35.5 68.5l5 36q1 9 10 9h77q10 0 8 -9l-5 -36q-13 -91 -69.5 -132.5t-182.5 -41.5h-6z" />
<glyph unicode="&#x107;" horiz-adv-x="505" d="M248 569q-6 0 -7 3t3 7l113 105q5 4 12 4h84q6 0 6.5 -3t-4.5 -8l-130 -104q-5 -4 -11 -4h-66zM222 -8q-109 0 -150.5 41t-28.5 127l25 183q12 88 65 129t162 41h6q108 0 149 -41.5t29 -128.5l-1 -10q-1 -9 -10 -9h-76q-10 0 -9 9l2 10q7 51 -12 67t-84 16h-6 q-63 0 -88.5 -18.5t-31.5 -64.5l-25 -183q-7 -49 12 -65t84 -16h6q63 0 88 19t31 66l2 10q1 8 10 8h76q9 0 8 -8l-1 -10q-13 -90 -65 -131t-161 -41h-6z" />
<glyph unicode="&#x108;" horiz-adv-x="562" d="M219 709q-6 0 -7 3t4 7l114 105q7 4 12 4h60q6 0 10 -4l85 -105q4 -4 2 -7t-8 -3h-65q-6 0 -10 6l-47 67l-67 -67q-6 -6 -13 -6h-70zM350 653q123 0 169.5 -42t33.5 -131l-5 -37q-2 -9 -10 -9h-78q-8 0 -7 9l5 37q8 53 -15 69.5t-105 16.5h-6q-80 0 -108.5 -18.5 t-35.5 -67.5l-44 -316q-7 -50 16 -67.5t104 -17.5h6q80 0 108.5 18.5t35.5 68.5l5 36q1 9 10 9h77q10 0 8 -9l-5 -36q-13 -91 -69.5 -132.5t-182.5 -41.5h-6q-125 0 -170 41.5t-32 130.5l44 316q12 90 69 131.5t182 41.5h6z" />
<glyph unicode="&#x109;" horiz-adv-x="505" d="M170 569q-6 0 -7 3t4 7l114 105q7 4 12 4h60q6 0 10 -4l85 -105q4 -4 2 -7t-8 -3h-65q-6 0 -10 6l-47 67l-67 -67q-6 -6 -13 -6h-70zM301 513q108 0 149 -41.5t29 -128.5l-1 -10q-1 -9 -10 -9h-76q-10 0 -9 9l2 10q7 51 -12 67t-84 16h-6q-63 0 -88.5 -18.5t-31.5 -64.5 l-25 -183q-7 -49 12 -65t84 -16h6q63 0 88 19t31 66l2 10q1 8 10 8h76q9 0 8 -8l-1 -10q-13 -90 -65 -131t-161 -41h-6q-109 0 -150.5 41t-28.5 127l25 183q12 88 65 129t162 41h6z" />
<glyph unicode="&#x10a;" horiz-adv-x="562" d="M321 717q-9 0 -8 9l14 93q1 9 10 9h68q9 0 8 -9l-14 -93q-1 -9 -10 -9h-68zM251 -8q-125 0 -170 41.5t-32 130.5l44 316q12 90 69 131.5t182 41.5h6q123 0 169.5 -42t33.5 -131l-5 -37q-2 -9 -10 -9h-78q-8 0 -7 9l5 37q8 53 -15 69.5t-105 16.5h-6q-80 0 -108.5 -18.5 t-35.5 -67.5l-44 -316q-7 -50 16 -67.5t104 -17.5h6q80 0 108.5 18.5t35.5 68.5l5 36q1 9 10 9h77q10 0 8 -9l-5 -36q-13 -91 -69.5 -132.5t-182.5 -41.5h-6z" />
<glyph unicode="&#x10b;" horiz-adv-x="505" d="M272 577q-9 0 -8 9l14 93q1 9 10 9h68q9 0 8 -9l-14 -93q-1 -9 -10 -9h-68zM222 -8q-109 0 -150.5 41t-28.5 127l25 183q12 88 65 129t162 41h6q108 0 149 -41.5t29 -128.5l-1 -10q-1 -9 -10 -9h-76q-10 0 -9 9l2 10q7 51 -12 67t-84 16h-6q-63 0 -88.5 -18.5 t-31.5 -64.5l-25 -183q-7 -49 12 -65t84 -16h6q63 0 88 19t31 66l2 10q1 8 10 8h76q9 0 8 -8l-1 -10q-13 -90 -65 -131t-161 -41h-6z" />
<glyph unicode="&#x10c;" horiz-adv-x="562" d="M315 713l-86 104q-7 11 7 11h65q7 0 10 -6l48 -69l67 69q5 6 12 6h70q14 0 3 -11l-115 -104q-4 -4 -11 -4h-60q-7 0 -10 4zM350 653q123 0 169.5 -42t33.5 -131l-5 -37q-2 -9 -10 -9h-78q-8 0 -7 9l5 37q8 53 -15 69.5t-105 16.5h-6q-80 0 -108.5 -18.5t-35.5 -67.5 l-44 -316q-7 -50 16 -67.5t104 -17.5h6q80 0 108.5 18.5t35.5 68.5l5 36q1 9 10 9h77q10 0 8 -9l-5 -36q-13 -91 -69.5 -132.5t-182.5 -41.5h-6q-125 0 -170 41.5t-32 130.5l44 316q12 90 69 131.5t182 41.5h6z" />
<glyph unicode="&#x10d;" horiz-adv-x="505" d="M266 573l-86 104q-7 11 7 11h65q7 0 10 -6l48 -69l67 69q5 6 12 6h70q14 0 3 -11l-115 -104q-4 -4 -11 -4h-60q-7 0 -10 4zM301 513q108 0 149 -41.5t29 -128.5l-1 -10q-1 -9 -10 -9h-76q-10 0 -9 9l2 10q7 51 -12 67t-84 16h-6q-63 0 -88.5 -18.5t-31.5 -64.5l-25 -183 q-7 -49 12 -65t84 -16h6q63 0 88 19t31 66l2 10q1 8 10 8h76q9 0 8 -8l-1 -10q-13 -90 -65 -131t-161 -41h-6q-109 0 -150.5 41t-28.5 127l25 183q12 88 65 129t162 41h6z" />
<glyph unicode="&#x10e;" horiz-adv-x="583" d="M301 713l-86 104q-7 11 7 11h65q7 0 10 -6l48 -69l67 69q5 6 12 6h70q14 0 3 -11l-115 -104q-4 -4 -11 -4h-60q-7 0 -10 4zM355 645q119 0 164.5 -41.5t33.5 -128.5l-43 -304q-12 -89 -68 -130t-178 -41h-220q-9 0 -7 10l87 626q2 9 11 9h220zM458 475q8 52 -16.5 67.5 t-112.5 15.5h-121l-66 -471h120q86 0 116.5 18t36.5 66z" />
<glyph unicode="&#x10f;" horiz-adv-x="536" d="M670 717q8 0 7 -9l-6 -47q-1 -3 -2 -6.5t-1 -4.5l-51 -98q-4 -8 -11 -8h-26q-8 0 -8 9l22 155q1 9 11 9h65zM523 700q9 0 8 -9l-97 -683q-1 -8 -9 -8h-47q-6 0 -9 5l-16 32q-83 -45 -172 -45q-85 0 -118 40.5t-20 131.5l25 174q13 95 56 135t128 40q87 0 153 -41l31 219 q1 9 10 9h77zM140 177q-8 -62 5 -80t64 -18q78 0 145 30l40 287q-61 30 -134 30q-52 0 -71.5 -19.5t-27.5 -79.5z" />
<glyph unicode="&#x110;" horiz-adv-x="583" d="M355 645q119 0 164.5 -41.5t33.5 -128.5l-43 -304q-12 -89 -68 -130t-178 -41h-220q-9 0 -7 10l39 283h-42q-10 0 -8 9l7 45q1 9 10 9h42l39 280q2 9 11 9h220zM458 475q8 52 -16.5 67.5t-112.5 15.5h-121l-28 -202h147q9 0 8 -9l-7 -45q-2 -9 -10 -9h-147l-29 -206h120 q86 0 116.5 18t36.5 66z" />
<glyph unicode="&#x111;" d="M566 645q10 0 8 -9l-7 -45q-1 -9 -10 -9h-41l-82 -574q-1 -8 -9 -8h-47q-6 0 -9 5l-16 32q-83 -45 -172 -45q-85 0 -118 40.5t-20 131.5l25 174q13 95 56 135t128 40q87 0 153 -41l16 110h-148q-9 0 -8 9l7 45q2 9 10 9h148l6 46q1 9 10 9h77q9 0 8 -9l-7 -46h42z M140 177q-8 -62 5 -80t64 -18q78 0 145 30l40 287q-61 30 -134 30q-52 0 -71.5 -19.5t-27.5 -79.5z" />
<glyph unicode="&#x112;" horiz-adv-x="501" d="M221 718q-9 0 -8 9l7 53q2 9 11 9h215q8 0 7 -9l-7 -53q-2 -9 -10 -9h-215zM510 645q8 0 7 -9l-9 -69q-2 -9 -11 -9h-289l-26 -188h259q9 0 8 -9l-10 -69q-1 -9 -10 -9h-259l-27 -196h288q9 0 8 -9l-10 -69q-1 -9 -10 -9h-375q-8 0 -7 9l87 627q2 9 11 9h375z" />
<glyph unicode="&#x113;" horiz-adv-x="523" d="M202 578q-10 0 -8 9l7 53q1 9 11 9h215q9 0 7 -9l-7 -53q-1 -9 -10 -9h-215zM304 513q110 0 151.5 -41t29.5 -129l-14 -104q-1 -8 -11 -8h-313l-10 -70q-7 -49 13 -66.5t87 -17.5h6q65 0 91 18.5t31 61.5l1 7q1 9 11 9h74q10 0 9 -9l-1 -7q-12 -84 -64.5 -124.5 t-163.5 -40.5h-6q-110 0 -152 41t-30 128l25 182q13 88 66 129t164 41h6zM162 343l-5 -40h229l5 40q8 54 -10.5 69.5t-88.5 15.5h-6q-66 0 -91.5 -18.5t-32.5 -66.5z" />
<glyph unicode="&#x114;" horiz-adv-x="501" d="M324 705q-61 0 -86.5 22t-17.5 68l4 24q1 9 11 9h49q8 0 7 -9l-3 -24q-4 -23 4.5 -29t39.5 -6h4q29 0 40.5 7.5t14.5 26.5l3 25q1 9 10 9h50q8 0 7 -9l-3 -25q-13 -89 -130 -89h-4zM510 645q8 0 7 -9l-9 -69q-2 -9 -11 -9h-289l-26 -188h259q9 0 8 -9l-10 -69 q-1 -9 -10 -9h-259l-27 -196h288q9 0 8 -9l-10 -69q-1 -9 -10 -9h-375q-8 0 -7 9l87 627q2 9 11 9h375z" />
<glyph unicode="&#x115;" horiz-adv-x="523" d="M305 565q-61 0 -86.5 22t-17.5 68l4 24q1 9 11 9h49q8 0 7 -9l-3 -24q-4 -23 4.5 -29t39.5 -6h4q29 0 40.5 7.5t14.5 26.5l3 25q1 9 10 9h50q8 0 7 -9l-3 -25q-13 -89 -130 -89h-4zM304 513q110 0 151.5 -41t29.5 -129l-14 -104q-1 -8 -11 -8h-313l-10 -70 q-7 -49 13 -66.5t87 -17.5h6q65 0 91 18.5t31 61.5l1 7q1 9 11 9h74q10 0 9 -9l-1 -7q-12 -84 -64.5 -124.5t-163.5 -40.5h-6q-110 0 -152 41t-30 128l25 182q13 88 66 129t164 41h6zM162 343l-5 -40h229l5 40q8 54 -10.5 69.5t-88.5 15.5h-6q-66 0 -91.5 -18.5t-32.5 -66.5 z" />
<glyph unicode="&#x116;" horiz-adv-x="501" d="M293 717q-9 0 -8 9l14 93q1 9 10 9h68q9 0 8 -9l-14 -93q-1 -9 -10 -9h-68zM510 645q8 0 7 -9l-9 -69q-2 -9 -11 -9h-289l-26 -188h259q9 0 8 -9l-10 -69q-1 -9 -10 -9h-259l-27 -196h288q9 0 8 -9l-10 -69q-1 -9 -10 -9h-375q-8 0 -7 9l87 627q2 9 11 9h375z" />
<glyph unicode="&#x117;" horiz-adv-x="523" d="M274 577q-9 0 -8 9l14 93q1 9 10 9h68q9 0 8 -9l-14 -93q-1 -9 -10 -9h-68zM304 513q110 0 151.5 -41t29.5 -129l-14 -104q-1 -8 -11 -8h-313l-10 -70q-7 -49 13 -66.5t87 -17.5h6q65 0 91 18.5t31 61.5l1 7q1 9 11 9h74q10 0 9 -9l-1 -7q-12 -84 -64.5 -124.5 t-163.5 -40.5h-6q-110 0 -152 41t-30 128l25 182q13 88 66 129t164 41h6zM162 343l-5 -40h229l5 40q8 54 -10.5 69.5t-88.5 15.5h-6q-66 0 -91.5 -18.5t-32.5 -66.5z" />
<glyph unicode="&#x118;" horiz-adv-x="501" d="M510 645q8 0 7 -9l-9 -69q-2 -9 -11 -9h-289l-26 -188h259q9 0 8 -9l-10 -69q-1 -9 -10 -9h-259l-27 -196h288q9 0 8 -9l-10 -69l-1 -4q-1 -4 -9 -11l-54 -51q-22 -20 -29.5 -31t-9.5 -27l-1 -7q-2 -17 4.5 -22t30.5 -5h36q9 0 8 -9l-7 -49q-1 -9 -10 -9h-35 q-59 0 -84 22t-19 67l1 7q4 27 18 46t51 48l33 26h-308q-8 0 -7 9l87 627q2 9 11 9h375z" />
<glyph unicode="&#x119;" horiz-adv-x="523" d="M304 513q110 0 151.5 -41t29.5 -129l-14 -104q-1 -8 -11 -8h-313l-10 -70q-7 -49 13 -66.5t87 -17.5h6q65 0 91 18.5t31 61.5l1 7q1 9 11 9h74q10 0 9 -9l-1 -7q-9 -68 -45.5 -107.5t-108.5 -51.5l-4 -4l-54 -51q-22 -20 -29.5 -31t-9.5 -27l-1 -7q-2 -17 4.5 -22 t30.5 -5h36q9 0 8 -9l-7 -49q-1 -9 -10 -9h-35q-59 0 -84 22t-19 67l1 7q4 27 18 46t51 48l23 18q-109 0 -151 41t-30 128l25 182q13 88 66 129t164 41h6zM162 343l-5 -40h229l5 40q8 54 -10.5 69.5t-88.5 15.5h-6q-66 0 -91.5 -18.5t-32.5 -66.5z" />
<glyph unicode="&#x11a;" horiz-adv-x="501" d="M287 713l-86 104q-7 11 7 11h65q7 0 10 -6l48 -69l67 69q5 6 12 6h70q14 0 3 -11l-115 -104q-4 -4 -11 -4h-60q-7 0 -10 4zM510 645q8 0 7 -9l-9 -69q-2 -9 -11 -9h-289l-26 -188h259q9 0 8 -9l-10 -69q-1 -9 -10 -9h-259l-27 -196h288q9 0 8 -9l-10 -69q-1 -9 -10 -9 h-375q-8 0 -7 9l87 627q2 9 11 9h375z" />
<glyph unicode="&#x11b;" horiz-adv-x="523" d="M268 573l-86 104q-7 11 7 11h65q7 0 10 -6l48 -69l67 69q5 6 12 6h70q14 0 3 -11l-115 -104q-4 -4 -11 -4h-60q-7 0 -10 4zM304 513q110 0 151.5 -41t29.5 -129l-14 -104q-1 -8 -11 -8h-313l-10 -70q-7 -49 13 -66.5t87 -17.5h6q65 0 91 18.5t31 61.5l1 7q1 9 11 9h74 q10 0 9 -9l-1 -7q-12 -84 -64.5 -124.5t-163.5 -40.5h-6q-110 0 -152 41t-30 128l25 182q13 88 66 129t164 41h6zM162 343l-5 -40h229l5 40q8 54 -10.5 69.5t-88.5 15.5h-6q-66 0 -91.5 -18.5t-32.5 -66.5z" />
<glyph unicode="&#x11c;" horiz-adv-x="584" d="M221 709q-6 0 -7 3t4 7l114 105q7 4 12 4h60q6 0 10 -4l85 -105q4 -4 2 -7t-8 -3h-65q-6 0 -10 6l-47 67l-67 -67q-6 -6 -13 -6h-70zM354 653q127 0 173 -42t33 -133l-2 -15q-2 -9 -11 -9h-77q-8 0 -7 9l2 15q8 55 -15.5 71.5t-108.5 16.5h-6q-82 0 -111 -18.5t-36 -67.5 l-44 -316q-8 -51 15.5 -68t107.5 -17h6q82 0 111 18.5t36 68.5l13 89h-122q-8 0 -7 8l10 68q1 8 10 8h207q10 0 8 -8l-23 -164q-13 -92 -70.5 -133.5t-184.5 -41.5h-6q-127 0 -172.5 41.5t-33.5 130.5l44 316q12 90 69.5 131.5t185.5 41.5h6z" />
<glyph unicode="&#x11d;" d="M176 569q-6 0 -7 3t4 7l114 105q7 4 12 4h60q6 0 10 -4l85 -105q4 -4 2 -7t-8 -3h-65q-6 0 -10 6l-47 67l-67 -67q-6 -6 -13 -6h-70zM496 505q8 0 7 -9l-75 -534q-13 -90 -65.5 -130t-165.5 -40h-151q-8 0 -7 9l9 68q2 9 10 9h145q69 0 96.5 18.5t33.5 63.5l10 72 q-77 -40 -162 -40t-118 40.5t-20 131.5l25 174q13 95 56 135t128 40q91 0 161 -46l24 31q6 7 12 7h47zM209 79q78 0 145 30l40 287q-61 30 -134 30q-52 0 -71.5 -19.5t-27.5 -79.5l-21 -150q-8 -62 5 -80t64 -18z" />
<glyph unicode="&#x11e;" horiz-adv-x="584" d="M354 705q-61 0 -86.5 22t-17.5 68l4 24q1 9 11 9h49q8 0 7 -9l-3 -24q-4 -23 4.5 -29t39.5 -6h4q29 0 40.5 7.5t14.5 26.5l3 25q1 9 10 9h50q8 0 7 -9l-3 -25q-13 -89 -130 -89h-4zM354 653q127 0 173 -42t33 -133l-2 -15q-2 -9 -11 -9h-77q-8 0 -7 9l2 15 q8 55 -15.5 71.5t-108.5 16.5h-6q-82 0 -111 -18.5t-36 -67.5l-44 -316q-8 -51 15.5 -68t107.5 -17h6q82 0 111 18.5t36 68.5l13 89h-122q-8 0 -7 8l10 68q1 8 10 8h207q10 0 8 -8l-23 -164q-13 -92 -70.5 -133.5t-184.5 -41.5h-6q-127 0 -172.5 41.5t-33.5 130.5l44 316 q12 90 69.5 131.5t185.5 41.5h6z" />
<glyph unicode="&#x11f;" d="M309 565q-61 0 -86.5 22t-17.5 68l4 24q1 9 11 9h49q8 0 7 -9l-3 -24q-4 -23 4.5 -29t39.5 -6h4q29 0 40.5 7.5t14.5 26.5l3 25q1 9 10 9h50q8 0 7 -9l-3 -25q-13 -89 -130 -89h-4zM496 505q8 0 7 -9l-75 -534q-13 -90 -65.5 -130t-165.5 -40h-151q-8 0 -7 9l9 68 q2 9 10 9h145q69 0 96.5 18.5t33.5 63.5l10 72q-77 -40 -162 -40t-118 40.5t-20 131.5l25 174q13 95 56 135t128 40q91 0 161 -46l24 31q6 7 12 7h47zM209 79q78 0 145 30l40 287q-61 30 -134 30q-52 0 -71.5 -19.5t-27.5 -79.5l-21 -150q-8 -62 5 -80t64 -18z" />
<glyph unicode="&#x120;" horiz-adv-x="584" d="M323 717q-9 0 -8 9l14 93q1 9 10 9h68q9 0 8 -9l-14 -93q-1 -9 -10 -9h-68zM354 653q127 0 173 -42t33 -133l-2 -15q-2 -9 -11 -9h-77q-8 0 -7 9l2 15q8 55 -15.5 71.5t-108.5 16.5h-6q-82 0 -111 -18.5t-36 -67.5l-44 -316q-8 -51 15.5 -68t107.5 -17h6q82 0 111 18.5 t36 68.5l13 89h-122q-8 0 -7 8l10 68q1 8 10 8h207q10 0 8 -8l-23 -164q-13 -92 -70.5 -133.5t-184.5 -41.5h-6q-127 0 -172.5 41.5t-33.5 130.5l44 316q12 90 69.5 131.5t185.5 41.5h6z" />
<glyph unicode="&#x121;" d="M278 577q-9 0 -8 9l14 93q1 9 10 9h68q9 0 8 -9l-14 -93q-1 -9 -10 -9h-68zM496 505q8 0 7 -9l-75 -534q-13 -90 -65.5 -130t-165.5 -40h-151q-8 0 -7 9l9 68q2 9 10 9h145q69 0 96.5 18.5t33.5 63.5l10 72q-77 -40 -162 -40t-118 40.5t-20 131.5l25 174q13 95 56 135 t128 40q91 0 161 -46l24 31q6 7 12 7h47zM209 79q78 0 145 30l40 287q-61 30 -134 30q-52 0 -71.5 -19.5t-27.5 -79.5l-21 -150q-8 -62 5 -80t64 -18z" />
<glyph unicode="&#x122;" horiz-adv-x="584" d="M354 653q127 0 173 -42t33 -133l-2 -15q-2 -9 -11 -9h-77q-8 0 -7 9l2 15q8 55 -15.5 71.5t-108.5 16.5h-6q-82 0 -111 -18.5t-36 -67.5l-44 -316q-8 -51 15.5 -68t107.5 -17h6q82 0 111 18.5t36 68.5l13 89h-122q-8 0 -7 8l10 68q1 8 10 8h207q10 0 8 -8l-23 -164 q-13 -92 -70.5 -133.5t-184.5 -41.5h-6q-127 0 -172.5 41.5t-33.5 130.5l44 316q12 90 69.5 131.5t185.5 41.5h6zM282 -69q8 0 7 -9l-6 -47q-1 -3 -2 -6.5t-1 -4.5l-51 -98q-4 -8 -11 -8h-26q-8 0 -8 9l22 155q1 9 11 9h65z" />
<glyph unicode="&#x123;" d="M279 569q-8 0 -8 8l22 156q1 9 11 9h25q8 0 9 -8l23 -98q1 -6 0 -12l-7 -47q0 -8 -9 -8h-66zM496 505q8 0 7 -9l-75 -534q-13 -90 -65.5 -130t-165.5 -40h-151q-8 0 -7 9l9 68q2 9 10 9h145q69 0 96.5 18.5t33.5 63.5l10 72q-77 -40 -162 -40t-118 40.5t-20 131.5l25 174 q13 95 56 135t128 40q91 0 161 -46l24 31q6 7 12 7h47zM209 79q78 0 145 30l40 287q-61 30 -134 30q-52 0 -71.5 -19.5t-27.5 -79.5l-21 -150q-8 -62 5 -80t64 -18z" />
<glyph unicode="&#x124;" horiz-adv-x="603" d="M230 709q-6 0 -7 3t4 7l114 105q7 4 12 4h60q6 0 10 -4l85 -105q4 -4 2 -7t-8 -3h-65q-6 0 -10 6l-47 67l-67 -67q-6 -6 -13 -6h-70zM579 645q8 0 7 -9l-89 -626q-1 -10 -10 -10h-77q-9 0 -8 10l39 271h-271l-38 -271q-1 -10 -11 -10h-76q-9 0 -8 10l88 626q1 9 11 9h77 q8 0 7 -9l-38 -268h271l38 268q1 9 10 9h78z" />
<glyph unicode="&#x125;" horiz-adv-x="538" d="M51 764q-6 0 -7 3t4 7l114 105q7 4 12 4h60q6 0 10 -4l85 -105q4 -4 2 -7t-8 -3h-65q-6 0 -10 6l-47 67l-67 -67q-6 -6 -13 -6h-70zM353 513q86 0 118 -40t19 -132l-46 -332q-1 -9 -11 -9h-77q-8 0 -7 9l44 318q9 61 -4.5 80t-65.5 19q-71 0 -141 -29l-55 -386 q-2 -11 -10 -11h-77q-10 0 -8 11l96 680q2 9 10 9h77q9 0 8 -9l-31 -218q76 40 161 40z" />
<glyph unicode="&#x126;" horiz-adv-x="603" d="M597 522q9 0 8 -9l-6 -43q-1 -9 -10 -9h-28l-64 -451q-1 -10 -10 -10h-77q-9 0 -8 10l39 271h-271l-38 -271q-1 -10 -11 -10h-76q-9 0 -8 10l63 451h-27q-9 0 -8 9l6 43q1 9 10 9h28l16 114q1 9 11 9h77q8 0 7 -9l-16 -114h271l16 114q1 9 10 9h78q8 0 7 -9l-16 -114h27z M453 368l13 93h-271l-13 -93h271z" />
<glyph unicode="&#x127;" horiz-adv-x="538" d="M353 513q86 0 118 -40t19 -132l-46 -332q-1 -9 -11 -9h-77q-8 0 -7 9l44 318q9 61 -4.5 80t-65.5 19q-71 0 -141 -29l-55 -386q-2 -11 -10 -11h-77q-10 0 -8 11l81 571h-37q-10 0 -8 9l7 45q1 9 10 9h37l6 46q2 9 10 9h77q9 0 8 -9l-6 -46h152q9 0 8 -9l-7 -45 q-2 -9 -10 -9h-152l-16 -109q76 40 161 40z" />
<glyph unicode="&#x128;" horiz-adv-x="237" d="M255 704q-31 0 -55 17l-62 47q-11 8 -18 8q-10 0 -13 -17l-5 -35q-1 -9 -10 -9h-42q-8 0 -7 9l4 32q10 76 81 76q33 0 54 -17l63 -46q9 -8 18 -8q10 0 13 16l5 35q1 9 10 9h41q9 0 8 -9l-4 -31q-11 -77 -81 -77zM45 0q-9 0 -8 10l88 626q1 9 11 9h77q8 0 7 -9l-88 -626 q-1 -10 -11 -10h-76z" />
<glyph unicode="&#x129;" horiz-adv-x="227" d="M230 564q-31 0 -55 17l-62 47q-11 8 -18 8q-10 0 -13 -17l-5 -35q-1 -9 -10 -9h-42q-8 0 -7 9l4 32q10 76 81 76q33 0 54 -17l63 -46q9 -8 18 -8q10 0 13 16l5 35q1 9 10 9h41q9 0 8 -9l-4 -31q-11 -77 -81 -77zM39 0q-8 0 -7 11l68 483q2 11 10 11h77q10 0 8 -11 l-68 -483q-1 -11 -11 -11h-77z" />
<glyph unicode="&#x12a;" horiz-adv-x="237" d="M77 718q-9 0 -8 9l7 53q2 9 11 9h215q8 0 7 -9l-7 -53q-2 -9 -10 -9h-215zM45 0q-9 0 -8 10l88 626q1 9 11 9h77q8 0 7 -9l-88 -626q-1 -10 -11 -10h-76z" />
<glyph unicode="&#x12b;" horiz-adv-x="227" d="M52 578q-10 0 -8 9l7 53q1 9 11 9h215q9 0 7 -9l-7 -53q-1 -9 -10 -9h-215zM39 0q-8 0 -7 11l68 483q2 11 10 11h77q10 0 8 -11l-68 -483q-1 -11 -11 -11h-77z" />
<glyph unicode="&#x12c;" horiz-adv-x="237" d="M310 828q8 0 7 -9l-3 -25q-13 -89 -130 -89h-4q-61 0 -86.5 22t-17.5 68l4 24q1 9 11 9h49q8 0 7 -9l-3 -24q-4 -23 4.5 -29t39.5 -6h4q29 0 40.5 7.5t14.5 26.5l3 25q1 9 10 9h50zM45 0q-9 0 -8 10l88 626q1 9 11 9h77q8 0 7 -9l-88 -626q-1 -10 -11 -10h-76z" />
<glyph unicode="&#x12d;" horiz-adv-x="227" d="M285 688q8 0 7 -9l-3 -25q-13 -89 -130 -89h-4q-61 0 -86.5 22t-17.5 68l4 24q1 9 11 9h49q8 0 7 -9l-3 -24q-4 -23 4.5 -29t39.5 -6h4q29 0 40.5 7.5t14.5 26.5l3 25q1 9 10 9h50zM39 0q-8 0 -7 11l68 483q2 11 10 11h77q10 0 8 -11l-68 -483q-1 -11 -11 -11h-77z" />
<glyph unicode="&#x12e;" horiz-adv-x="237" d="M213 645q8 0 7 -9l-88 -626q0 -2 -3 -8l-8 -8l-54 -51q-22 -20 -29.5 -31t-9.5 -27l-1 -7q-2 -17 4.5 -22t30.5 -5h36q9 0 8 -9l-7 -49q-1 -9 -10 -9h-35q-59 0 -84 22t-19 67l1 7q4 27 18 46t51 48l33 26h-9q-9 0 -8 10l88 626q1 9 11 9h77z" />
<glyph unicode="&#x12f;" horiz-adv-x="227" d="M213 688q9 0 8 -9l-13 -92q-1 -10 -11 -10h-76q-9 0 -8 10l13 92q2 9 10 9h77zM187 505q10 0 8 -11l-68 -483q-1 -9 -10 -17l-54 -51q-22 -20 -29.5 -31t-9.5 -27l-1 -7q-2 -17 4.5 -22t30.5 -5h36q9 0 8 -9l-7 -49q-1 -9 -10 -9h-35q-59 0 -84 22t-19 67l1 7q4 27 18 46 t51 48l33 26h-11q-8 0 -7 11l68 483q2 11 10 11h77z" />
<glyph unicode="&#x130;" horiz-adv-x="237" d="M149 717q-9 0 -8 9l14 93q1 9 10 9h68q9 0 8 -9l-14 -93q-1 -9 -10 -9h-68zM45 0q-9 0 -8 10l88 626q1 9 11 9h77q8 0 7 -9l-88 -626q-1 -10 -11 -10h-76z" />
<glyph unicode="&#x131;" horiz-adv-x="227" d="M39 0q-8 0 -7 11l68 483q2 11 10 11h77q10 0 8 -11l-68 -483q-1 -11 -11 -11h-77z" />
<glyph unicode="&#x132;" horiz-adv-x="727" d="M45 0q-9 0 -8 10l88 626q1 9 11 9h77q8 0 7 -9l-88 -626q-1 -10 -11 -10h-76zM415 -8q-108 0 -150 42.5t-30 132.5l3 18q2 9 10 9h77q9 0 8 -9l-3 -18q-7 -53 12.5 -70.5t84.5 -17.5h6q64 0 89 19t32 68l66 470q2 9 11 9h77q8 0 7 -9l-66 -470q-12 -90 -65 -132t-163 -42 h-6z" />
<glyph unicode="&#x133;" horiz-adv-x="454" d="M121 577q-9 0 -8 10l13 92q2 9 10 9h77q9 0 8 -9l-13 -92q-1 -10 -11 -10h-76zM348 577q-9 0 -8 10l13 92q1 9 10 9h77q10 0 8 -9l-13 -92q-1 -10 -11 -10h-76zM39 0q-8 0 -7 11l68 483q2 11 10 11h77q10 0 8 -11l-68 -483q-1 -11 -11 -11h-77zM123 -208q-9 0 -8 9l10 66 q1 9 10 9h31q43 0 60.5 17t24.5 65l76 538q1 9 10 9h77q10 0 8 -9l-77 -545q-12 -86 -54 -122.5t-133 -36.5h-35z" />
<glyph unicode="&#x134;" horiz-adv-x="500" d="M594 719q4 -4 2 -7t-8 -3h-65q-6 0 -10 6l-47 67l-67 -67q-6 -6 -13 -6h-70q-6 0 -7 3t4 7l114 105q7 4 12 4h60q6 0 10 -4zM481 645q9 0 7 -9l-66 -470q-12 -90 -65 -132t-163 -42h-6q-108 0 -150 42.5t-30 132.5l3 18q1 9 10 9h77q10 0 8 -9l-3 -18q-7 -53 12.5 -70.5 t84.5 -17.5h6q64 0 89 19t32 68l66 470q1 9 11 9h77z" />
<glyph unicode="&#x135;" horiz-adv-x="227" d="M300 579q4 -4 2 -7t-8 -3h-65q-6 0 -10 6l-47 67l-67 -67q-6 -6 -13 -6h-70q-6 0 -7 3t4 7l114 105q7 4 12 4h60q6 0 10 -4zM187 505q9 0 8 -9l-77 -545q-12 -86 -54 -122.5t-133 -36.5h-35q-10 0 -8 9l10 66q2 9 10 9h31q43 0 60.5 17t24.5 65l76 538q2 9 10 9h77z" />
<glyph unicode="&#x136;" horiz-adv-x="556" d="M582 645q3 0 5 -1.5t1.5 -4t-3.5 -5.5l-231 -253l152 -370q5 -11 -8 -11h-87q-7 0 -10 7l-121 295l-125 -127l-23 -165q-1 -10 -11 -10h-76q-9 0 -8 10l88 626q1 9 11 9h77q8 0 7 -9l-46 -329l303 333q5 5 12 5h93zM268 -69q8 0 7 -9l-6 -47q-1 -3 -2 -6.5t-1 -4.5 l-51 -98q-4 -8 -11 -8h-26q-8 0 -8 9l22 155q1 9 11 9h65z" />
<glyph unicode="&#x137;" horiz-adv-x="485" d="M496 505q3 0 5 -1.5t1.5 -4.5t-3.5 -5l-187 -187l127 -296q5 -11 -8 -11h-84q-8 0 -10 6l-97 231l-94 -89l-19 -137q-2 -11 -10 -11h-77q-10 0 -8 11l96 680q2 9 10 9h77q9 0 8 -9l-59 -420l227 229q5 5 11 5h94zM235 -69q8 0 7 -9l-6 -47q-1 -3 -2 -6.5t-1 -4.5l-51 -98 q-4 -8 -11 -8h-26q-8 0 -8 9l22 155q1 9 11 9h65z" />
<glyph unicode="&#x138;" horiz-adv-x="485" d="M496 505q3 0 5 -1.5t1.5 -4.5t-3.5 -5l-187 -187l127 -296q5 -11 -8 -11h-84q-8 0 -10 6l-97 231l-94 -89l-19 -137q-1 -11 -11 -11h-77q-8 0 -7 11l68 485q2 9 10 9h77q9 0 8 -9l-32 -225l228 229q5 5 11 5h94z" />
<glyph unicode="&#x139;" horiz-adv-x="457" d="M445 828q6 0 6.5 -3t-4.5 -8l-130 -104q-5 -4 -11 -4h-66q-6 0 -7 3t3 7l113 105q5 4 12 4h84zM402 87q8 0 7 -9l-9 -69q-2 -9 -11 -9h-344q-9 0 -8 10l88 626q1 9 11 9h77q8 0 7 -9l-77 -549h259z" />
<glyph unicode="&#x13a;" horiz-adv-x="227" d="M127 764q-6 0 -7 3t3 7l113 105q5 4 12 4h84q6 0 6.5 -3.5t-4.5 -7.5l-130 -104q-5 -4 -11 -4h-66zM40 0q-10 0 -8 11l96 680q2 9 10 9h77q9 0 8 -9l-96 -680q-2 -11 -10 -11h-77z" />
<glyph unicode="&#x13b;" horiz-adv-x="457" d="M402 87q8 0 7 -9l-9 -69q-2 -9 -11 -9h-344q-9 0 -8 10l88 626q1 9 11 9h77q8 0 7 -9l-77 -549h259zM221 -69q8 0 7 -9l-6 -47q-1 -3 -2 -6.5t-1 -4.5l-51 -98q-4 -8 -11 -8h-26q-8 0 -8 9l22 155q1 9 11 9h65z" />
<glyph unicode="&#x13c;" horiz-adv-x="227" d="M40 0q-10 0 -8 11l96 680q2 9 10 9h77q9 0 8 -9l-96 -680q-2 -11 -10 -11h-77zM11 -242q-8 0 -8 9l22 155q1 9 11 9h65q8 0 7 -9l-6 -47q-1 -3 -2 -6.5t-1 -4.5l-51 -98q-4 -8 -11 -8h-26z" />
<glyph unicode="&#x13d;" horiz-adv-x="457" d="M436 708q8 0 7 -9l-13 -94q-1 -7 -4 -12l-61 -133q-3 -7 -11 -7h-31q-9 0 -7 9l33 237q1 9 10 9h77zM402 87q8 0 7 -9l-9 -69q-2 -9 -11 -9h-344q-9 0 -8 10l88 626q1 9 11 9h77q8 0 7 -9l-77 -549h259z" />
<glyph unicode="&#x13e;" horiz-adv-x="227" d="M271 544q-8 0 -8 9l22 155q1 9 11 9h65q8 0 7 -9l-6 -47q-1 -3 -2 -6.5t-1 -4.5l-51 -98q-4 -8 -11 -8h-26zM40 0q-10 0 -8 11l96 680q2 9 10 9h77q9 0 8 -9l-96 -680q-2 -11 -10 -11h-77z" />
<glyph unicode="&#x13f;" horiz-adv-x="457" d="M402 87q8 0 7 -9l-9 -69q-2 -9 -11 -9h-344q-9 0 -8 10l88 626q1 9 11 9h77q8 0 7 -9l-77 -549h259zM269 275q-9 0 -8 9l13 90q2 9 10 9h80q8 0 7 -9l-12 -90q-1 -9 -10 -9h-80z" />
<glyph unicode="&#x140;" horiz-adv-x="364" d="M40 0q-10 0 -8 11l96 680q2 9 10 9h77q9 0 8 -9l-96 -680q-2 -11 -10 -11h-77zM245 274q-9 0 -8 9l13 90q2 9 10 9h80q8 0 7 -9l-12 -90q-1 -9 -10 -9h-80z" />
<glyph unicode="&#x141;" horiz-adv-x="457" d="M402 87q8 0 7 -9l-9 -69q-2 -9 -11 -9h-344q-9 0 -8 10l28 201l-55 -27q-5 -3 -8 -1t-2 7l9 61q2 8 8 11l60 30l48 344q1 9 11 9h77q8 0 7 -9l-41 -294l170 85q5 2 8 0t2 -7l-9 -61q-1 -7 -8 -10l-175 -87l-24 -175h259z" />
<glyph unicode="&#x142;" horiz-adv-x="290" d="M293 438q5 4 8 2t2 -8l-9 -65q-1 -7 -7 -11l-87 -52l-41 -293q-2 -11 -10 -11h-77q-10 0 -8 11l33 232l-82 -49q-5 -4 -8.5 -2t-2.5 8l10 65q2 8 7 11l88 52l51 363q2 9 10 9h77q9 0 8 -9l-42 -301z" />
<glyph unicode="&#x143;" horiz-adv-x="631" d="M322 709q-6 0 -7 3t3 7l113 105q5 4 12 4h84q6 0 6.5 -3t-4.5 -8l-130 -104q-5 -4 -11 -4h-66zM607 645q10 0 8 -8l-89 -627q-1 -10 -10 -10h-83q-6 0 -10 6l-151 314q-53 114 -75 186q-7 -90 -21 -183l-44 -314q-1 -9 -11 -9h-77q-8 0 -7 9l87 626q1 10 11 10h84 q7 0 9 -6l151 -315q53 -112 75 -184q2 31 22 184l44 312q2 9 10 9h77z" />
<glyph unicode="&#x144;" horiz-adv-x="538" d="M256 569q-6 0 -7 3t3 7l113 105q5 4 12 4h84q6 0 6.5 -3t-4.5 -8l-130 -104q-5 -4 -11 -4h-66zM353 513q86 0 118 -40t19 -132l-47 -332q-1 -9 -10 -9h-78q-8 0 -7 9l45 318q8 61 -5.5 80t-65.5 19q-72 0 -140 -28l-55 -389q-1 -9 -11 -9h-77q-8 0 -7 9l68 483 q2 13 10 13h47q6 0 9 -6l15 -31q83 45 172 45z" />
<glyph unicode="&#x145;" horiz-adv-x="631" d="M607 645q10 0 8 -8l-89 -627q-1 -10 -10 -10h-83q-6 0 -10 6l-151 314q-53 114 -75 186q-7 -90 -21 -183l-44 -314q-1 -9 -11 -9h-77q-8 0 -7 9l87 626q1 10 11 10h84q7 0 9 -6l151 -315q53 -112 75 -184q2 31 22 184l44 312q2 9 10 9h77zM303 -69q8 0 7 -9l-6 -47 q-1 -3 -2 -6.5t-1 -4.5l-51 -98q-4 -8 -11 -8h-26q-8 0 -8 9l22 155q1 9 11 9h65z" />
<glyph unicode="&#x146;" horiz-adv-x="538" d="M353 513q86 0 118 -40t19 -132l-47 -332q-1 -9 -10 -9h-78q-8 0 -7 9l45 318q8 61 -5.5 80t-65.5 19q-72 0 -140 -28l-55 -389q-1 -9 -11 -9h-77q-8 0 -7 9l68 483q2 13 10 13h47q6 0 9 -6l15 -31q83 45 172 45zM257 -69q8 0 7 -9l-6 -47q-1 -3 -2 -6.5t-1 -4.5l-51 -98 q-4 -8 -11 -8h-26q-8 0 -8 9l22 155q1 9 11 9h65z" />
<glyph unicode="&#x147;" horiz-adv-x="631" d="M340 713l-86 104q-7 11 7 11h65q7 0 10 -6l48 -69l67 69q5 6 12 6h70q14 0 3 -11l-115 -104q-4 -4 -11 -4h-60q-7 0 -10 4zM607 645q10 0 8 -8l-89 -627q-1 -10 -10 -10h-83q-6 0 -10 6l-151 314q-53 114 -75 186q-7 -90 -21 -183l-44 -314q-1 -9 -11 -9h-77q-8 0 -7 9 l87 626q1 10 11 10h84q7 0 9 -6l151 -315q53 -112 75 -184q2 31 22 184l44 312q2 9 10 9h77z" />
<glyph unicode="&#x148;" horiz-adv-x="538" d="M274 573l-86 104q-7 11 7 11h65q7 0 10 -6l48 -69l67 69q5 6 12 6h70q14 0 3 -11l-115 -104q-4 -4 -11 -4h-60q-7 0 -10 4zM353 513q86 0 118 -40t19 -132l-47 -332q-1 -9 -10 -9h-78q-8 0 -7 9l45 318q8 61 -5.5 80t-65.5 19q-72 0 -140 -28l-55 -389q-1 -9 -11 -9h-77 q-8 0 -7 9l68 483q2 13 10 13h47q6 0 9 -6l15 -31q83 45 172 45z" />
<glyph unicode="&#x14a;" horiz-adv-x="629" d="M605 645q9 0 7 -9l-89 -636l-8 -55q-21 -153 -196 -153h-53q-10 0 -8 9l10 69q2 9 10 9h53q79 0 86 64l8 59l-153 318q-54 116 -75 185q-6 -70 -22 -185l-43 -311q-2 -9 -11 -9h-77q-8 0 -7 9l87 627q2 9 11 9h84q8 0 10 -6l150 -315q48 -98 74 -179q4 48 21 179l43 312 q1 9 11 9h77z" />
<glyph unicode="&#x14b;" horiz-adv-x="538" d="M353 513q86 0 118 -40t19 -132l-47 -332l-8 -57q-12 -86 -54.5 -123t-132.5 -37h-36q-10 0 -8 9l9 65q1 9 11 9h31q43 0 60.5 17.5t24.5 65.5l8 51l45 318q8 61 -5.5 80t-65.5 19q-72 0 -140 -28l-55 -389q-1 -9 -11 -9h-77q-8 0 -7 9l68 483q2 13 10 13h47q6 0 9 -6 l15 -31q83 45 172 45z" />
<glyph unicode="&#x14c;" horiz-adv-x="596" d="M256 718q-10 0 -8 9l7 53q1 9 11 9h215q9 0 7 -9l-7 -53q-1 -9 -10 -9h-215zM49 164l44 316q12 90 70 131.5t188 41.5h6q129 0 175.5 -41.5t34.5 -131.5l-44 -315q-13 -90 -71 -131.5t-188 -41.5h-6q-129 0 -175.5 41.5t-33.5 130.5zM144 164q-8 -52 16 -68.5t111 -16.5 h6q84 0 114 18.5t37 67.5l44 315q8 53 -16 69.5t-111 16.5h-6q-84 0 -114 -18.5t-37 -67.5z" />
<glyph unicode="&#x14d;" horiz-adv-x="533" d="M205 578q-9 0 -8 9l7 53q2 9 11 9h215q8 0 7 -9l-7 -53q-2 -9 -10 -9h-215zM43 162l25 178q12 90 65.5 131.5t166.5 41.5h6q112 0 154 -42t30 -131l-26 -178q-12 -88 -65 -129t-166 -41h-6q-111 0 -153.5 41.5t-30.5 128.5zM138 162q-7 -49 13 -66t88 -17h6 q67 0 92.5 18.5t31.5 64.5l26 178q7 51 -13 68.5t-88 17.5h-6q-67 0 -92.5 -19t-32.5 -67z" />
<glyph unicode="&#x14e;" horiz-adv-x="596" d="M489 828q8 0 7 -9l-3 -25q-13 -89 -130 -89h-4q-61 0 -86.5 22t-17.5 68l4 24q1 9 11 9h49q8 0 7 -9l-3 -24q-4 -23 4.5 -29t39.5 -6h4q29 0 40.5 7.5t14.5 26.5l3 25q1 9 10 9h50zM49 164l44 316q12 90 70 131.5t188 41.5h6q129 0 175.5 -41.5t34.5 -131.5l-44 -315 q-13 -90 -71 -131.5t-188 -41.5h-6q-129 0 -175.5 41.5t-33.5 130.5zM144 164q-8 -52 16 -68.5t111 -16.5h6q84 0 114 18.5t37 67.5l44 315q8 53 -16 69.5t-111 16.5h-6q-84 0 -114 -18.5t-37 -67.5z" />
<glyph unicode="&#x14f;" horiz-adv-x="533" d="M438 688q8 0 7 -9l-3 -25q-13 -89 -130 -89h-4q-61 0 -86.5 22t-17.5 68l4 24q1 9 11 9h49q8 0 7 -9l-3 -24q-4 -23 4.5 -29t39.5 -6h4q29 0 40.5 7.5t14.5 26.5l3 25q1 9 10 9h50zM43 162l25 178q12 90 65.5 131.5t166.5 41.5h6q112 0 154 -42t30 -131l-26 -178 q-12 -88 -65 -129t-166 -41h-6q-111 0 -153.5 41.5t-30.5 128.5zM138 162q-7 -49 13 -66t88 -17h6q67 0 92.5 18.5t31.5 64.5l26 178q7 51 -13 68.5t-88 17.5h-6q-67 0 -92.5 -19t-32.5 -67z" />
<glyph unicode="&#x150;" horiz-adv-x="596" d="M258 709q-5 0 -6.5 3t1.5 7l66 103q5 6 11 6h66q12 0 5 -11l-79 -103q-5 -5 -12 -5h-52zM397 709q-5 0 -6.5 3t1.5 7l66 103q4 6 11 6h66q13 0 4 -11l-79 -103q-4 -5 -11 -5h-52zM49 164l44 316q12 90 70 131.5t188 41.5h6q129 0 175.5 -41.5t34.5 -131.5l-44 -315 q-13 -90 -71 -131.5t-188 -41.5h-6q-129 0 -175.5 41.5t-33.5 130.5zM144 164q-8 -52 16 -68.5t111 -16.5h6q84 0 114 18.5t37 67.5l44 315q8 53 -16 69.5t-111 16.5h-6q-84 0 -114 -18.5t-37 -67.5z" />
<glyph unicode="&#x151;" horiz-adv-x="533" d="M207 569q-5 0 -6.5 3t1.5 7l66 103q4 6 11 6h66q12 0 5 -11l-79 -103q-5 -5 -12 -5h-52zM346 569q-5 0 -6.5 3t1.5 7l66 103q5 6 11 6h66q13 0 4 -11l-79 -103q-4 -5 -11 -5h-52zM43 162l25 178q12 90 65.5 131.5t166.5 41.5h6q112 0 154 -42t30 -131l-26 -178 q-12 -88 -65 -129t-166 -41h-6q-111 0 -153.5 41.5t-30.5 128.5zM138 162q-7 -49 13 -66t88 -17h6q67 0 92.5 18.5t31.5 64.5l26 178q7 51 -13 68.5t-88 17.5h-6q-67 0 -92.5 -19t-32.5 -67z" />
<glyph unicode="&#x152;" horiz-adv-x="862" d="M871 645q9 0 7 -9l-9 -69q-1 -9 -11 -9h-289l-26 -188h259q10 0 8 -9l-10 -69q-2 -9 -10 -9h-259l-27 -196h288q10 0 8 -9l-10 -69q-2 -9 -10 -9h-375q-81 -8 -142 -8h-5q-130 0 -176 41.5t-33 131.5l43 313q13 92 71 133.5t188 41.5h5q61 0 140 -8h375zM271 79h4 q58 0 134 8l65 471q-72 8 -131 8h-4q-85 0 -114.5 -18.5t-37.5 -69.5l-43 -313q-7 -51 17 -68.5t110 -17.5z" />
<glyph unicode="&#x153;" horiz-adv-x="827" d="M614 513q106 0 146.5 -41.5t28.5 -128.5l-15 -104q-1 -8 -10 -8h-300l-10 -71q-7 -47 12 -65t81 -18h5q62 0 87 18.5t30 61.5l1 7q1 9 11 9h74q10 0 9 -9l-1 -7q-12 -84 -64 -124.5t-159 -40.5h-5q-108 0 -145 52q-49 -52 -162 -52h-6q-108 0 -149.5 41t-29.5 127l25 183 q12 88 65 129t162 41h6q113 0 148 -53q49 53 159 53h6zM480 343l-6 -40h215l6 40q7 52 -11 68.5t-81 16.5h-6q-61 0 -85.5 -18.5t-31.5 -66.5zM240 79q63 0 88 18t31 63l26 183q6 46 -13.5 64.5t-82.5 18.5h-6q-63 0 -88.5 -19t-31.5 -64l-25 -183q-7 -48 12 -64.5t84 -16.5 h6z" />
<glyph unicode="&#x154;" horiz-adv-x="554" d="M280 709q-6 0 -7 3t3 7l113 105q5 4 12 4h84q6 0 6.5 -3t-4.5 -8l-130 -104q-5 -4 -11 -4h-66zM375 645q94 0 132.5 -41.5t26.5 -129.5l-11 -72q-10 -73 -43.5 -112t-95.5 -51l90 -228q5 -11 -8 -11h-84q-8 0 -10 7l-83 226h-126l-31 -223q-1 -10 -11 -10h-76q-9 0 -8 10 l88 626q1 9 11 9h239zM439 474q7 54 -11 69t-88 15h-131l-34 -239h132q68 0 91 16.5t30 66.5z" />
<glyph unicode="&#x155;" horiz-adv-x="326" d="M377 688q6 0 6.5 -3t-4.5 -8l-130 -104q-5 -4 -11 -4h-66q-6 0 -7 3t3 7l113 105q5 4 12 4h84zM341 513q5 0 7.5 -2t1.5 -6l-10 -70q-1 -9 -10 -9h-19q-77 0 -131 -36l-53 -381q-1 -9 -11 -9h-77q-9 0 -7 9l68 484q2 12 10 12h46q7 0 10 -7l16 -37q63 52 142 52h17z" />
<glyph unicode="&#x156;" horiz-adv-x="554" d="M375 645q94 0 132.5 -41.5t26.5 -129.5l-11 -72q-10 -73 -43.5 -112t-95.5 -51l90 -228q5 -11 -8 -11h-84q-8 0 -10 7l-83 226h-126l-31 -223q-1 -10 -11 -10h-76q-9 0 -8 10l88 626q1 9 11 9h239zM439 474q7 54 -11 69t-88 15h-131l-34 -239h132q68 0 91 16.5t30 66.5z M267 -69q8 0 7 -9l-6 -47q-1 -3 -2 -6.5t-1 -4.5l-51 -98q-4 -8 -11 -8h-26q-8 0 -8 9l22 155q1 9 11 9h65z" />
<glyph unicode="&#x157;" horiz-adv-x="326" d="M341 513q5 0 7.5 -2t1.5 -6l-10 -70q-1 -9 -10 -9h-19q-77 0 -131 -36l-53 -381q-1 -9 -11 -9h-77q-9 0 -7 9l68 484q2 12 10 12h46q7 0 10 -7l16 -37q63 52 142 52h17zM100 -69q8 0 7 -9l-6 -47q-1 -3 -2 -6.5t-1 -4.5l-51 -98q-4 -8 -11 -8h-26q-8 0 -8 9l22 155 q1 9 11 9h65z" />
<glyph unicode="&#x158;" horiz-adv-x="554" d="M298 713l-86 104q-7 11 7 11h65q7 0 10 -6l48 -69l67 69q5 6 12 6h70q14 0 3 -11l-115 -104q-4 -4 -11 -4h-60q-7 0 -10 4zM375 645q94 0 132.5 -41.5t26.5 -129.5l-11 -72q-10 -73 -43.5 -112t-95.5 -51l90 -228q5 -11 -8 -11h-84q-8 0 -10 7l-83 226h-126l-31 -223 q-1 -10 -11 -10h-76q-9 0 -8 10l88 626q1 9 11 9h239zM439 474q7 54 -11 69t-88 15h-131l-34 -239h132q68 0 91 16.5t30 66.5z" />
<glyph unicode="&#x159;" horiz-adv-x="326" d="M383 688q14 0 3 -11l-115 -104q-4 -4 -11 -4h-60q-7 0 -10 4l-86 104q-7 11 7 11h65q7 0 10 -6l48 -69l67 69q5 6 12 6h70zM341 513q5 0 7.5 -2t1.5 -6l-10 -70q-1 -9 -10 -9h-19q-77 0 -131 -36l-53 -381q-1 -9 -11 -9h-77q-9 0 -7 9l68 484q2 12 10 12h46q7 0 10 -7 l16 -37q63 52 142 52h17z" />
<glyph unicode="&#x15a;" horiz-adv-x="521" d="M267 709q-6 0 -7 3t3 7l113 105q5 4 12 4h84q6 0 6.5 -3t-4.5 -8l-130 -104q-5 -4 -11 -4h-66zM221 -8q-122 0 -166 41.5t-32 129.5l4 29q1 9 10 9h77q10 0 8 -9l-4 -29q-7 -49 15.5 -66.5t99.5 -17.5h6q77 0 105 18.5t34 66.5l4 25q6 40 -6 55.5t-60 26.5l-129 30 q-74 17 -101 54t-17 106l3 21q13 88 68.5 129.5t173.5 41.5h6q118 0 161.5 -41.5t30.5 -132.5l-3 -26q-1 -9 -10 -9h-77q-10 0 -8 9l3 26q8 54 -13 70.5t-96 16.5h-6q-73 0 -100.5 -18.5t-34.5 -65.5l-3 -21q-5 -38 6.5 -52.5t59.5 -25.5l128 -29q77 -18 103.5 -55 t15.5 -110l-4 -25q-12 -90 -67.5 -131t-178.5 -41h-6z" />
<glyph unicode="&#x15b;" horiz-adv-x="478" d="M226 569q-6 0 -7 3t3 7l113 105q5 4 12 4h84q6 0 6.5 -3t-4.5 -8l-130 -104q-5 -4 -11 -4h-66zM200 -8q-103 0 -145.5 36t-33.5 101l4 33q1 8 10 8h76q9 0 8 -8l-5 -33q-4 -26 17.5 -39t80.5 -13h6q58 0 82.5 13t28.5 40l2 14q3 23 -5.5 33.5t-43.5 19.5l-126 36 q-60 18 -82 48t-14 80l2 14q19 138 210 138h6q99 0 140 -36t32 -101l-4 -32q-1 -9 -10 -9h-76q-9 0 -8 9l5 32q4 28 -16 40t-75 12h-6q-54 0 -77 -13t-27 -40l-2 -14q-3 -20 6 -30t46 -21l125 -35q59 -17 80.5 -47t13.5 -84l-2 -14q-19 -138 -217 -138h-6z" />
<glyph unicode="&#x15c;" horiz-adv-x="521" d="M189 709q-6 0 -7 3t4 7l114 105q7 4 12 4h60q6 0 10 -4l85 -105q4 -4 2 -7t-8 -3h-65q-6 0 -10 6l-47 67l-67 -67q-6 -6 -13 -6h-70zM320 653q118 0 161.5 -41.5t30.5 -132.5l-3 -26q-1 -9 -10 -9h-77q-10 0 -8 9l3 26q8 54 -13 70.5t-96 16.5h-6q-73 0 -100.5 -18.5 t-34.5 -65.5l-3 -21q-5 -38 6.5 -52.5t59.5 -25.5l128 -29q77 -18 103.5 -55t15.5 -110l-4 -25q-12 -90 -67.5 -131t-178.5 -41h-6q-122 0 -166 41.5t-32 129.5l4 29q1 9 10 9h77q10 0 8 -9l-4 -29q-7 -49 15.5 -66.5t99.5 -17.5h6q77 0 105 18.5t34 66.5l4 25q6 40 -6 55.5 t-60 26.5l-129 30q-74 17 -101 54t-17 106l3 21q13 88 68.5 129.5t173.5 41.5h6z" />
<glyph unicode="&#x15d;" horiz-adv-x="478" d="M148 569q-6 0 -7 3t4 7l114 105q7 4 12 4h60q6 0 10 -4l85 -105q4 -4 2 -7t-8 -3h-65q-6 0 -10 6l-47 67l-67 -67q-6 -6 -13 -6h-70zM278 513q99 0 140 -36t32 -101l-4 -32q-1 -9 -10 -9h-76q-9 0 -8 9l5 32q4 28 -16 40t-75 12h-6q-54 0 -77 -13t-27 -40l-2 -14 q-3 -20 6 -30t46 -21l125 -35q59 -17 80.5 -47t13.5 -84l-2 -14q-19 -138 -217 -138h-6q-103 0 -145.5 36t-33.5 101l4 33q1 8 10 8h76q9 0 8 -8l-5 -33q-4 -26 17.5 -39t80.5 -13h6q58 0 82.5 13t28.5 40l2 14q3 23 -5.5 33.5t-43.5 19.5l-126 36q-60 18 -82 48t-14 80 l2 14q19 138 210 138h6z" />
<glyph unicode="&#x15e;" horiz-adv-x="521" d="M320 653q118 0 161.5 -41.5t30.5 -132.5l-3 -26q-1 -9 -10 -9h-77q-10 0 -8 9l3 26q8 54 -13 70.5t-96 16.5h-6q-73 0 -100.5 -18.5t-34.5 -65.5l-3 -21q-5 -38 6.5 -52.5t59.5 -25.5l128 -29q77 -18 103.5 -55t15.5 -110l-4 -25q-12 -90 -67.5 -131t-178.5 -41h-3 l-13 -49h27q52 0 70.5 -15.5t12.5 -56.5l-3 -18q-5 -38 -28.5 -53.5t-74.5 -15.5h-89q-9 0 -8 9l6 39q2 9 10 9h88q18 0 24.5 3.5t7.5 13.5l2 14q1 12 -4 15.5t-23 3.5h-87q-10 0 -7 10l26 94q-86 9 -117.5 50t-20.5 118l4 29q1 9 10 9h77q10 0 8 -9l-4 -29 q-7 -49 15.5 -66.5t99.5 -17.5h6q77 0 105 18.5t34 66.5l4 25q6 40 -6 55.5t-60 26.5l-129 30q-74 17 -101 54t-17 106l3 21q13 88 68.5 129.5t173.5 41.5h6z" />
<glyph unicode="&#x15f;" horiz-adv-x="478" d="M278 513q99 0 140 -36t32 -101l-4 -32q-1 -9 -10 -9h-76q-9 0 -8 9l5 32q4 28 -16 40t-75 12h-6q-54 0 -77 -13t-27 -40l-2 -14q-3 -20 6 -30t46 -21l125 -35q59 -17 80.5 -47t13.5 -84l-2 -14q-19 -138 -217 -138h-4l-13 -49h27q52 0 70.5 -15.5t12.5 -56.5l-3 -18 q-5 -38 -28.5 -53.5t-74.5 -15.5h-89q-9 0 -8 9l6 39q2 9 10 9h88q18 0 24.5 3.5t7.5 13.5l2 14q1 12 -4 15.5t-23 3.5h-87q-10 0 -7 10l27 95q-135 20 -119 133l4 33q1 8 10 8h76q9 0 8 -8l-5 -33q-4 -26 17.5 -39t80.5 -13h6q58 0 82.5 13t28.5 40l2 14q3 23 -5.5 33.5 t-43.5 19.5l-126 36q-60 18 -82 48t-14 80l2 14q19 138 210 138h6z" />
<glyph unicode="&#x160;" horiz-adv-x="521" d="M285 713l-86 104q-7 11 7 11h65q7 0 10 -6l48 -69l67 69q5 6 12 6h70q14 0 3 -11l-115 -104q-4 -4 -11 -4h-60q-7 0 -10 4zM320 653q118 0 161.5 -41.5t30.5 -132.5l-3 -26q-1 -9 -10 -9h-77q-10 0 -8 9l3 26q8 54 -13 70.5t-96 16.5h-6q-73 0 -100.5 -18.5t-34.5 -65.5 l-3 -21q-5 -38 6.5 -52.5t59.5 -25.5l128 -29q77 -18 103.5 -55t15.5 -110l-4 -25q-12 -90 -67.5 -131t-178.5 -41h-6q-122 0 -166 41.5t-32 129.5l4 29q1 9 10 9h77q10 0 8 -9l-4 -29q-7 -49 15.5 -66.5t99.5 -17.5h6q77 0 105 18.5t34 66.5l4 25q6 40 -6 55.5t-60 26.5 l-129 30q-74 17 -101 54t-17 106l3 21q13 88 68.5 129.5t173.5 41.5h6z" />
<glyph unicode="&#x161;" horiz-adv-x="478" d="M244 573l-86 104q-7 11 7 11h65q7 0 10 -6l48 -69l67 69q5 6 12 6h70q14 0 3 -11l-115 -104q-4 -4 -11 -4h-60q-7 0 -10 4zM278 513q99 0 140 -36t32 -101l-4 -32q-1 -9 -10 -9h-76q-9 0 -8 9l5 32q4 28 -16 40t-75 12h-6q-54 0 -77 -13t-27 -40l-2 -14q-3 -20 6 -30 t46 -21l125 -35q59 -17 80.5 -47t13.5 -84l-2 -14q-19 -138 -217 -138h-6q-103 0 -145.5 36t-33.5 101l4 33q1 8 10 8h76q9 0 8 -8l-5 -33q-4 -26 17.5 -39t80.5 -13h6q58 0 82.5 13t28.5 40l2 14q3 23 -5.5 33.5t-43.5 19.5l-126 36q-60 18 -82 48t-14 80l2 14 q19 138 210 138h6z" />
<glyph unicode="&#x162;" horiz-adv-x="465" d="M499 645q9 0 7 -9l-9 -69q-1 -9 -10 -9h-164l-77 -550q-1 -8 -11 -8h-76q-9 0 -8 8l77 550h-164q-8 0 -7 9l9 69q2 9 11 9h422zM220 -69q8 0 7 -9l-6 -47q-1 -3 -2 -6.5t-1 -4.5l-51 -98q-4 -8 -11 -8h-26q-8 0 -8 9l22 155q1 9 11 9h65z" />
<glyph unicode="&#x163;" horiz-adv-x="340" d="M343 505q9 0 7 -9l-8 -62q-2 -9 -10 -9h-124l-37 -266q-7 -49 6.5 -64.5t60.5 -15.5h47q9 0 8 -9l-10 -65q-1 -9 -10 -9h-54q-90 0 -123 36t-20 123l38 270h-75q-9 0 -8 9l6 36q1 9 9 10l77 13l20 143q1 9 11 9h78q8 0 6 -9l-18 -131h123zM188 -69q8 0 7 -9l-6 -47 q-1 -3 -2 -6.5t-1 -4.5l-51 -98q-4 -8 -11 -8h-26q-8 0 -8 9l22 155q1 9 11 9h65z" />
<glyph unicode="&#x164;" horiz-adv-x="465" d="M257 713l-86 104q-7 11 7 11h65q7 0 10 -6l48 -69l67 69q5 6 12 6h70q14 0 3 -11l-115 -104q-4 -4 -11 -4h-60q-7 0 -10 4zM499 645q9 0 7 -9l-9 -69q-1 -9 -10 -9h-164l-77 -550q-1 -8 -11 -8h-76q-9 0 -8 8l77 550h-164q-8 0 -7 9l9 69q2 9 11 9h422z" />
<glyph unicode="&#x165;" horiz-adv-x="340" d="M392 763q8 0 7 -9l-6 -47q-1 -3 -2 -6.5t-1 -4.5l-51 -98q-4 -8 -11 -8h-26q-8 0 -8 9l22 155q1 9 11 9h65zM343 505q9 0 7 -9l-8 -62q-2 -9 -10 -9h-124l-37 -266q-7 -49 6.5 -64.5t60.5 -15.5h47q9 0 8 -9l-10 -65q-1 -9 -10 -9h-54q-90 0 -123 36t-20 123l38 270h-75 q-9 0 -8 9l6 36q1 9 9 10l77 13l20 143q1 9 11 9h78q8 0 6 -9l-18 -131h123z" />
<glyph unicode="&#x166;" horiz-adv-x="465" d="M499 645q9 0 7 -9l-9 -69q-1 -9 -10 -9h-164l-28 -201h94q9 0 8 -9l-7 -45q-2 -9 -10 -9h-94l-40 -286q-1 -8 -11 -8h-76q-9 0 -8 8l40 286h-95q-10 0 -8 9l7 45q1 9 10 9h95l28 201h-164q-8 0 -7 9l9 69q2 9 11 9h422z" />
<glyph unicode="&#x167;" horiz-adv-x="340" d="M343 505q9 0 7 -9l-8 -62q-2 -9 -10 -9h-124l-15 -112h124q9 0 8 -9l-7 -45q-2 -9 -10 -9h-124l-13 -91q-7 -49 6.5 -64.5t60.5 -15.5h47q9 0 8 -9l-10 -65q-1 -9 -10 -9h-54q-90 0 -123 36t-20 123l13 95h-65q-10 0 -8 9l7 45q1 9 10 9h65l16 112h-75q-9 0 -8 9l6 36 q1 9 9 10l77 13l20 143q1 9 11 9h78q8 0 6 -9l-18 -131h123z" />
<glyph unicode="&#x168;" horiz-adv-x="592" d="M433 704q-31 0 -55 17l-62 47q-11 8 -18 8q-10 0 -13 -17l-5 -35q-1 -9 -10 -9h-42q-8 0 -7 9l4 32q10 76 81 76q33 0 54 -17l63 -46q9 -8 18 -8q10 0 13 16l5 35q1 9 10 9h41q9 0 8 -9l-4 -31q-11 -77 -81 -77zM257 -8q-124 0 -170 41.5t-33 131.5l66 471q2 9 11 9h77 q8 0 7 -9l-66 -471q-8 -52 15.5 -69t104.5 -17h6q80 0 108.5 18.5t35.5 67.5l66 471q1 9 11 9h77q9 0 7 -9l-66 -471q-12 -90 -69 -131.5t-182 -41.5h-6z" />
<glyph unicode="&#x169;" horiz-adv-x="534" d="M176 575q-8 0 -7 9l4 32q10 76 81 76q33 0 54 -17l63 -46q9 -8 18 -8q10 0 13 16l5 35q1 9 10 9h41q9 0 8 -9l-4 -31q-11 -77 -81 -77q-31 0 -55 17l-62 47q-11 8 -18 8q-10 0 -13 -17l-5 -35q-1 -9 -10 -9h-42zM495 505q9 0 7 -9l-68 -484q-2 -12 -10 -12h-47 q-7 0 -10 7l-13 29q-85 -44 -172 -44q-84 0 -115.5 40t-18.5 132l47 332q1 9 10 9h77q10 0 8 -9l-45 -318q-8 -61 4 -80t63 -19q72 0 140 28l55 389q1 9 10 9h78z" />
<glyph unicode="&#x16a;" horiz-adv-x="592" d="M255 718q-9 0 -8 9l7 53q2 9 11 9h215q8 0 7 -9l-7 -53q-2 -9 -10 -9h-215zM257 -8q-124 0 -170 41.5t-33 131.5l66 471q2 9 11 9h77q8 0 7 -9l-66 -471q-8 -52 15.5 -69t104.5 -17h6q80 0 108.5 18.5t35.5 67.5l66 471q1 9 11 9h77q9 0 7 -9l-66 -471 q-12 -90 -69 -131.5t-182 -41.5h-6z" />
<glyph unicode="&#x16b;" horiz-adv-x="534" d="M203 578q-9 0 -8 9l7 53q2 9 11 9h215q8 0 7 -9l-7 -53q-2 -9 -10 -9h-215zM495 505q9 0 7 -9l-68 -484q-2 -12 -10 -12h-47q-7 0 -10 7l-13 29q-85 -44 -172 -44q-84 0 -115.5 40t-18.5 132l47 332q1 9 10 9h77q10 0 8 -9l-45 -318q-8 -61 4 -80t63 -19q72 0 140 28 l55 389q1 9 10 9h78z" />
<glyph unicode="&#x16c;" horiz-adv-x="592" d="M488 828q8 0 7 -9l-3 -25q-13 -89 -130 -89h-4q-61 0 -86.5 22t-17.5 68l4 24q1 9 11 9h49q8 0 7 -9l-3 -24q-4 -23 4.5 -29t39.5 -6h4q29 0 40.5 7.5t14.5 26.5l3 25q1 9 10 9h50zM257 -8q-124 0 -170 41.5t-33 131.5l66 471q2 9 11 9h77q8 0 7 -9l-66 -471 q-8 -52 15.5 -69t104.5 -17h6q80 0 108.5 18.5t35.5 67.5l66 471q1 9 11 9h77q9 0 7 -9l-66 -471q-12 -90 -69 -131.5t-182 -41.5h-6z" />
<glyph unicode="&#x16d;" horiz-adv-x="534" d="M306 565q-61 0 -86.5 22t-17.5 68l4 24q1 9 11 9h49q8 0 7 -9l-3 -24q-4 -23 4.5 -29t39.5 -6h4q29 0 40.5 7.5t14.5 26.5l3 25q1 9 10 9h50q8 0 7 -9l-3 -25q-13 -89 -130 -89h-4zM495 505q9 0 7 -9l-68 -484q-2 -12 -10 -12h-47q-7 0 -10 7l-13 29q-85 -44 -172 -44 q-84 0 -115.5 40t-18.5 132l47 332q1 9 10 9h77q10 0 8 -9l-45 -318q-8 -61 4 -80t63 -19q72 0 140 28l55 389q1 9 10 9h78z" />
<glyph unicode="&#x16e;" horiz-adv-x="592" d="M358 699q-55 0 -74 16t-13 53l2 18q5 37 29 53t79 16h2q54 0 73.5 -16t14.5 -53l-2 -18q-6 -38 -29.5 -53.5t-79.5 -15.5h-2zM365 745h2q30 0 39.5 4.5t11.5 17.5l2 17q2 16 -5.5 20.5t-38.5 4.5h-2q-30 0 -39 -5t-11 -20l-2 -17q-2 -14 5 -18t38 -4zM257 -8 q-124 0 -170 41.5t-33 131.5l66 471q2 9 11 9h77q8 0 7 -9l-66 -471q-8 -52 15.5 -69t104.5 -17h6q80 0 108.5 18.5t35.5 67.5l66 471q1 9 11 9h77q9 0 7 -9l-66 -471q-12 -90 -69 -131.5t-182 -41.5h-6z" />
<glyph unicode="&#x16f;" horiz-adv-x="534" d="M306 559q-55 0 -74 16t-13 53l2 18q5 37 29 53t79 16h2q54 0 73.5 -16t14.5 -53l-2 -18q-6 -38 -29.5 -53.5t-79.5 -15.5h-2zM270 627q-2 -14 5 -18t38 -4h2q30 0 39.5 4.5t11.5 17.5l2 17q2 16 -5.5 20.5t-38.5 4.5h-2q-30 0 -39 -5t-11 -20zM495 505q9 0 7 -9l-68 -484 q-2 -12 -10 -12h-47q-7 0 -10 7l-13 29q-85 -44 -172 -44q-84 0 -115.5 40t-18.5 132l47 332q1 9 10 9h77q10 0 8 -9l-45 -318q-8 -61 4 -80t63 -19q72 0 140 28l55 389q1 9 10 9h78z" />
<glyph unicode="&#x170;" horiz-adv-x="592" d="M257 709q-5 0 -6.5 3t1.5 7l66 103q4 6 11 6h66q12 0 5 -11l-79 -103q-5 -5 -12 -5h-52zM396 709q-5 0 -6.5 3t1.5 7l66 103q4 6 11 6h66q13 0 4 -11l-79 -103q-4 -5 -11 -5h-52zM257 -8q-124 0 -170 41.5t-33 131.5l66 471q2 9 11 9h77q8 0 7 -9l-66 -471 q-8 -52 15.5 -69t104.5 -17h6q80 0 108.5 18.5t35.5 67.5l66 471q1 9 11 9h77q9 0 7 -9l-66 -471q-12 -90 -69 -131.5t-182 -41.5h-6z" />
<glyph unicode="&#x171;" horiz-adv-x="534" d="M205 569q-5 0 -6.5 3t1.5 7l66 103q4 6 11 6h66q12 0 5 -11l-79 -103q-5 -5 -12 -5h-52zM344 569q-5 0 -6.5 3t1.5 7l66 103q5 6 11 6h66q13 0 4 -11l-79 -103q-4 -5 -11 -5h-52zM495 505q9 0 7 -9l-68 -484q-2 -12 -10 -12h-47q-7 0 -10 7l-13 29q-85 -44 -172 -44 q-84 0 -115.5 40t-18.5 132l47 332q1 9 10 9h77q10 0 8 -9l-45 -318q-8 -61 4 -80t63 -19q72 0 140 28l55 389q1 9 10 9h78z" />
<glyph unicode="&#x172;" horiz-adv-x="592" d="M573 645q9 0 7 -9l-66 -471q-12 -82 -59 -123.5t-147 -48.5l-53 -50q-22 -20 -29.5 -31t-9.5 -27l-1 -7q-2 -17 4.5 -22t30.5 -5h36q9 0 8 -9l-7 -49q-1 -9 -10 -9h-35q-59 0 -84 22t-19 67l1 7q4 27 18 46t51 48l23 18q-110 4 -150 46t-28 127l66 471q2 9 11 9h77 q8 0 7 -9l-66 -471q-8 -52 15.5 -69t104.5 -17h6q80 0 108.5 18.5t35.5 67.5l66 471q1 9 11 9h77z" />
<glyph unicode="&#x173;" horiz-adv-x="534" d="M495 505q9 0 7 -9l-66 -470l-2 -15q-1 -9 -10 -17l-54 -51q-22 -20 -29.5 -31t-9.5 -27l-1 -7q-2 -17 4.5 -22t30.5 -5h36q9 0 8 -9l-7 -49q-1 -9 -10 -9h-35q-59 0 -84 22t-19 67l1 7q4 27 18 46t51 48l43 34l-13 28q-85 -44 -172 -44q-84 0 -115.5 40t-18.5 132l47 332 q1 9 10 9h77q10 0 8 -9l-45 -318q-8 -61 4 -80t63 -19q72 0 140 28l55 389q1 9 10 9h78z" />
<glyph unicode="&#x174;" horiz-adv-x="842" d="M350 709q-6 0 -7 3t4 7l114 105q7 4 12 4h60q6 0 10 -4l85 -105q4 -4 2 -7t-8 -3h-65q-6 0 -10 6l-47 67l-67 -67q-6 -6 -13 -6h-70zM872 645q9 0 5 -10l-263 -628q-3 -7 -11 -7h-78q-8 0 -9 7l-43 316q-14 104 -16 187q-27 -91 -68 -187l-131 -316q-4 -7 -11 -7h-79 q-8 0 -9 7l-87 628q-1 10 9 10h79q8 0 9 -7l42 -316q13 -109 14 -180q24 80 67 181l131 315q3 7 11 7h81q8 0 9 -7l43 -315q13 -109 14 -178q27 86 65 177l131 316q3 7 11 7h84z" />
<glyph unicode="&#x175;" horiz-adv-x="739" d="M278 569q-6 0 -7 3t4 7l114 105q7 4 12 4h60q6 0 10 -4l85 -105q4 -4 2 -7t-8 -3h-65q-6 0 -10 6l-47 67l-67 -67q-6 -6 -13 -6h-70zM756 505q11 0 6 -10l-211 -487q-4 -8 -11 -8h-94q-8 0 -9 8l-29 189q-15 100 -18 203q-28 -93 -75 -203l-82 -189q-4 -8 -11 -8h-94 q-7 0 -8 8l-74 487q-2 10 9 10h78q7 0 9 -8l29 -210q14 -108 16 -196q33 104 74 196l92 210q3 8 11 8h78q8 0 9 -8l32 -210q16 -106 19 -193q33 106 71 193l88 210q5 8 11 8h84z" />
<glyph unicode="&#x176;" horiz-adv-x="494" d="M176 709q-6 0 -7 3t4 7l114 105q7 4 12 4h60q6 0 10 -4l85 -105q4 -4 2 -7t-8 -3h-65q-6 0 -10 6l-47 67l-67 -67q-6 -6 -13 -6h-70zM541 645q11 0 5 -11l-253 -396l-32 -227q-2 -11 -11 -11h-77q-9 0 -7 11l32 227l-143 396q-3 11 8 11h78q7 0 9 -6l57 -163 q30 -87 44 -163q28 62 89 163l103 163q4 6 11 6h87z" />
<glyph unicode="&#x177;" d="M174 569q-6 0 -7 3t4 7l114 105q7 4 12 4h60q6 0 10 -4l85 -105q4 -4 2 -7t-8 -3h-65q-6 0 -10 6l-47 67l-67 -67q-6 -6 -13 -6h-70zM496 505q8 0 7 -9l-75 -534q-13 -90 -65.5 -130t-165.5 -40h-151q-8 0 -7 9l9 68q2 9 10 9h145q69 0 96.5 18.5t33.5 63.5l10 70 q-79 -38 -161 -38q-84 0 -115.5 40t-18.5 132l47 332q1 9 10 9h77q10 0 8 -9l-45 -318q-8 -61 4 -80t63 -19q74 0 142 29l54 386q1 11 14 11h74z" />
<glyph unicode="&#x178;" horiz-adv-x="494" d="M200 717q-9 0 -8 9l14 93q1 9 10 9h68q9 0 8 -9l-14 -93q-1 -9 -10 -9h-68zM356 717q-9 0 -8 9l14 93q1 9 10 9h68q9 0 8 -9l-14 -93q-1 -9 -10 -9h-68zM541 645q11 0 5 -11l-253 -396l-32 -227q-2 -11 -11 -11h-77q-9 0 -7 11l32 227l-143 396q-3 11 8 11h78q7 0 9 -6 l57 -163q30 -87 44 -163q28 62 89 163l103 163q4 6 11 6h87z" />
<glyph unicode="&#x179;" horiz-adv-x="451" d="M234 709q-6 0 -7 3t3 7l113 105q5 4 12 4h84q6 0 6.5 -3t-4.5 -8l-130 -104q-5 -4 -11 -4h-66zM464 645q8 0 7 -9l-8 -57q-2 -9 -4 -11l-275 -383q-52 -72 -76 -98h288q8 0 7 -9l-9 -69q-2 -9 -10 -9h-388q-8 0 -7 9l7 57q1 4 5 11l272 380q50 69 80 101h-268q-9 0 -7 9 l9 69q1 9 11 9h366z" />
<glyph unicode="&#x17a;" horiz-adv-x="410" d="M192 569q-6 0 -7 3t3 7l113 105q5 4 12 4h84q6 0 6.5 -3t-4.5 -8l-130 -104q-5 -4 -11 -4h-66zM401 505q9 0 8 -9l-9 -60q-2 -9 -5 -12l-238 -290q-26 -32 -44 -48h239q10 0 8 -9l-9 -68q-1 -9 -11 -9h-341q-9 0 -8 9l9 58q2 8 4 11l238 291q32 37 47 50h-221q-10 0 -8 9 l9 68q1 9 11 9h321z" />
<glyph unicode="&#x17b;" horiz-adv-x="451" d="M258 717q-9 0 -8 9l14 93q1 9 10 9h68q9 0 8 -9l-14 -93q-1 -9 -10 -9h-68zM464 645q8 0 7 -9l-8 -57q-2 -9 -4 -11l-275 -383q-52 -72 -76 -98h288q8 0 7 -9l-9 -69q-2 -9 -10 -9h-388q-8 0 -7 9l7 57q1 4 5 11l272 380q50 69 80 101h-268q-9 0 -7 9l9 69q1 9 11 9h366z " />
<glyph unicode="&#x17c;" horiz-adv-x="410" d="M216 577q-9 0 -8 9l14 93q1 9 10 9h68q9 0 8 -9l-14 -93q-1 -9 -10 -9h-68zM401 505q9 0 8 -9l-9 -60q-2 -9 -5 -12l-238 -290q-26 -32 -44 -48h239q10 0 8 -9l-9 -68q-1 -9 -11 -9h-341q-9 0 -8 9l9 58q2 8 4 11l238 291q32 37 47 50h-221q-10 0 -8 9l9 68q1 9 11 9h321 z" />
<glyph unicode="&#x17d;" horiz-adv-x="451" d="M252 713l-86 104q-7 11 7 11h65q7 0 10 -6l48 -69l67 69q5 6 12 6h70q14 0 3 -11l-115 -104q-4 -4 -11 -4h-60q-7 0 -10 4zM464 645q8 0 7 -9l-8 -57q-2 -9 -4 -11l-275 -383q-52 -72 -76 -98h288q8 0 7 -9l-9 -69q-2 -9 -10 -9h-388q-8 0 -7 9l7 57q1 4 5 11l272 380 q50 69 80 101h-268q-9 0 -7 9l9 69q1 9 11 9h366z" />
<glyph unicode="&#x17e;" horiz-adv-x="410" d="M210 573l-86 104q-7 11 7 11h65q7 0 10 -6l48 -69l67 69q5 6 12 6h70q14 0 3 -11l-115 -104q-4 -4 -11 -4h-60q-7 0 -10 4zM401 505q9 0 8 -9l-9 -60q-2 -9 -5 -12l-238 -290q-26 -32 -44 -48h239q10 0 8 -9l-9 -68q-1 -9 -11 -9h-341q-9 0 -8 9l9 58q2 8 4 11l238 291 q32 37 47 50h-221q-10 0 -8 9l9 68q1 9 11 9h321z" />
<glyph unicode="&#x1cd;" horiz-adv-x="552" d="M301 713l-86 104q-7 11 7 11h65q7 0 10 -6l48 -69l67 69q5 6 12 6h70q14 0 3 -11l-115 -104q-4 -4 -11 -4h-60q-7 0 -10 4zM505 10q1 -10 -9 -10h-76q-9 0 -10 7l-28 141h-237l-68 -141q-3 -7 -11 -7h-81q-10 0 -6 10l305 628q4 7 12 7h71q9 0 10 -7zM186 234h179 l-24 119q-16 77 -25 170q-24 -69 -73 -170z" />
<glyph unicode="&#x1ce;" d="M273 573l-86 104q-7 11 7 11h65q7 0 10 -6l48 -69l67 69q5 6 12 6h70q14 0 3 -11l-115 -104q-4 -4 -11 -4h-60q-7 0 -10 4zM496 505q8 0 7 -9l-68 -484q-2 -12 -10 -12h-47q-6 0 -10 6l-15 31q-83 -45 -172 -45q-85 0 -118 40.5t-20 131.5l25 174q13 95 56 135t128 40 q91 0 161 -46l24 31q6 7 12 7h47zM140 177q-8 -62 5 -80t64 -18q79 0 145 31l40 286q-61 30 -134 30q-52 0 -71.5 -19.5t-27.5 -79.5z" />
<glyph unicode="&#x1fc;" horiz-adv-x="836" d="M565 709q-6 0 -7 3t3 7l113 105q5 4 12 4h84q6 0 6.5 -3t-4.5 -8l-130 -104q-5 -4 -11 -4h-66zM845 645q9 0 7 -9l-9 -69q-1 -9 -11 -9h-289l-26 -188h259q10 0 8 -9l-10 -69q-2 -9 -10 -9h-259l-27 -196h288q10 0 8 -9l-10 -69q-2 -9 -10 -9h-375q-9 0 -7 9l19 138h-218 l-91 -141q-5 -6 -11 -6h-87q-11 0 -5 11l406 628q4 6 12 6h448zM228 232h175l45 327h-9z" />
<glyph unicode="&#x1fd;" horiz-adv-x="804" d="M387 569q-6 0 -7 3t3 7l113 105q5 4 12 4h84q6 0 6.5 -3t-4.5 -8l-130 -104q-5 -4 -11 -4h-66zM591 513q106 0 146.5 -41.5t28.5 -128.5l-15 -104q-1 -8 -11 -8h-297l-10 -71q-8 -48 11 -65.5t81 -17.5h5q61 0 85.5 18.5t30.5 61.5l1 7q1 9 11 9h74q10 0 9 -9l-1 -7 q-12 -84 -63.5 -124.5t-158.5 -40.5h-5q-120 0 -158 54q-81 -54 -179 -54q-85 0 -123 36.5t-28 106.5l3 17q10 69 54 101.5t132 32.5h142l8 57q7 47 -10.5 65.5t-72.5 18.5h-6q-55 0 -78 -18t-29 -61q-1 -13 -11 -13h-75q-9 0 -8 13q12 84 62.5 124.5t150.5 40.5h5 q104 0 137 -53q50 53 157 53h5zM458 343l-5 -40h213l6 40q7 53 -11 69t-82 16h-5q-61 0 -85 -19t-31 -66zM195 73q72 0 141 33q-3 22 2 54l7 52h-146q-37 0 -54.5 -14t-22.5 -46l-2 -17q-5 -35 11 -48.5t64 -13.5z" />
<glyph unicode="&#x1fe;" horiz-adv-x="596" d="M304 709q-6 0 -7 3t3 7l113 105q5 4 12 4h84q6 0 6.5 -3t-4.5 -8l-130 -104q-5 -4 -11 -4h-66zM566 699q12 0 5 -11l-45 -71q55 -41 41 -137l-44 -315q-13 -90 -71 -131.5t-188 -41.5h-6q-74 0 -122 14l-34 -54q-4 -7 -12 -7h-41q-11 0 -5 11l46 72q-55 39 -41 136 l44 316q12 90 70 131.5t188 41.5h6q74 0 122 -14l34 53q6 7 12 7h41zM144 164q-5 -32 1 -49l284 445q-30 6 -84 6h-6q-84 0 -114 -18.5t-37 -67.5zM472 480q5 33 -1 51l-284 -446q30 -6 84 -6h6q84 0 114 18.5t37 67.5z" />
<glyph unicode="&#x1ff;" horiz-adv-x="533" d="M253 569q-6 0 -7 3t3 7l113 105q5 4 12 4h84q6 0 6.5 -3t-4.5 -8l-130 -104q-5 -4 -11 -4h-66zM446 483q58 -40 44 -143l-26 -178q-12 -88 -65 -129t-166 -41h-6q-52 0 -88 9l-31 -48q-4 -7 -12 -7h-41q-11 0 -5 11l40 63q-61 40 -47 142l25 178q12 90 65.5 131.5 t166.5 41.5h6q56 0 92 -10l28 44q4 7 11 7h42q11 0 5 -11zM138 162q-6 -41 6 -58l203 319q-21 3 -53 3h-6q-67 0 -92.5 -19t-32.5 -67zM395 340q5 41 -4 57l-201 -315q19 -3 49 -3h6q67 0 92.5 18.5t31.5 64.5z" />
<glyph unicode="&#x218;" horiz-adv-x="521" d="M221 -8q-122 0 -166 41.5t-32 129.5l4 29q1 9 10 9h77q10 0 8 -9l-4 -29q-7 -49 15.5 -66.5t99.5 -17.5h6q77 0 105 18.5t34 66.5l4 25q6 40 -6 55.5t-60 26.5l-129 30q-74 17 -101 54t-17 106l3 21q13 88 68.5 129.5t173.5 41.5h6q118 0 161.5 -41.5t30.5 -132.5l-3 -26 q-1 -9 -10 -9h-77q-10 0 -8 9l3 26q8 54 -13 70.5t-96 16.5h-6q-73 0 -100.5 -18.5t-34.5 -65.5l-3 -21q-5 -38 6.5 -52.5t59.5 -25.5l128 -29q77 -18 103.5 -55t15.5 -110l-4 -25q-12 -90 -67.5 -131t-178.5 -41h-6zM158 -242q-8 0 -8 9l22 155q1 9 11 9h65q8 0 7 -9 l-6 -47q-1 -3 -2 -6.5t-1 -4.5l-51 -98q-4 -8 -11 -8h-26z" />
<glyph unicode="&#x219;" horiz-adv-x="478" d="M200 -8q-103 0 -145.5 36t-33.5 101l4 33q1 8 10 8h76q9 0 8 -8l-5 -33q-4 -26 17.5 -39t80.5 -13h6q58 0 82.5 13t28.5 40l2 14q3 23 -5.5 33.5t-43.5 19.5l-126 36q-60 18 -82 48t-14 80l2 14q19 138 210 138h6q99 0 140 -36t32 -101l-4 -32q-1 -9 -10 -9h-76 q-9 0 -8 9l5 32q4 28 -16 40t-75 12h-6q-54 0 -77 -13t-27 -40l-2 -14q-3 -20 6 -30t46 -21l125 -35q59 -17 80.5 -47t13.5 -84l-2 -14q-19 -138 -217 -138h-6zM136 -242q-8 0 -8 9l22 155q1 9 11 9h65q8 0 7 -9l-6 -47q-1 -3 -2 -6.5t-1 -4.5l-51 -98q-4 -8 -11 -8h-26z " />
<glyph unicode="&#x21a;" horiz-adv-x="465" d="M499 645q9 0 7 -9l-9 -69q-1 -9 -10 -9h-164l-77 -550q-1 -8 -11 -8h-76q-9 0 -8 8l77 550h-164q-8 0 -7 9l9 69q2 9 11 9h422zM220 -69q8 0 7 -9l-6 -47q-1 -3 -2 -6.5t-1 -4.5l-51 -98q-4 -8 -11 -8h-26q-8 0 -8 9l22 155q1 9 11 9h65z" />
<glyph unicode="&#x21b;" horiz-adv-x="340" d="M343 505q9 0 7 -9l-8 -62q-2 -9 -10 -9h-124l-37 -266q-7 -49 6.5 -64.5t60.5 -15.5h47q9 0 8 -9l-10 -65q-1 -9 -10 -9h-54q-90 0 -123 36t-20 123l38 270h-75q-9 0 -8 9l6 36q1 9 9 10l77 13l20 143q1 9 11 9h78q8 0 6 -9l-18 -131h123zM188 -69q8 0 7 -9l-6 -47 q-1 -3 -2 -6.5t-1 -4.5l-51 -98q-4 -8 -11 -8h-26q-8 0 -8 9l22 155q1 9 11 9h65z" />
<glyph unicode="&#x237;" horiz-adv-x="227" d="M-104 -208q-10 0 -8 9l10 66q2 9 10 9h31q43 0 60.5 17t24.5 65l76 538q2 9 10 9h77q9 0 8 -9l-77 -545q-12 -86 -54 -122.5t-133 -36.5h-35z" />
<glyph unicode="&#x2c6;" horiz-adv-x="533" d="M453 579q4 -4 2 -7t-8 -3h-65q-6 0 -10 6l-47 67l-67 -67q-6 -6 -13 -6h-70q-6 0 -7 3t4 7l114 105q7 4 12 4h60q6 0 10 -4z" />
<glyph unicode="&#x2c7;" horiz-adv-x="533" d="M464 688q14 0 3 -11l-115 -104q-4 -4 -11 -4h-60q-7 0 -10 4l-86 104q-7 11 7 11h65q7 0 10 -6l48 -69l67 69q5 6 12 6h70z" />
<glyph unicode="&#x2d8;" horiz-adv-x="533" d="M438 688q8 0 7 -9l-3 -25q-13 -89 -130 -89h-4q-61 0 -86.5 22t-17.5 68l4 24q1 9 11 9h49q8 0 7 -9l-3 -24q-4 -23 4.5 -29t39.5 -6h4q29 0 40.5 7.5t14.5 26.5l3 25q1 9 10 9h50z" />
<glyph unicode="&#x2d9;" horiz-adv-x="533" d="M278 577q-9 0 -8 9l14 93q1 9 10 9h68q9 0 8 -9l-14 -93q-1 -9 -10 -9h-68z" />
<glyph unicode="&#x2da;" horiz-adv-x="533" d="M308 559q-55 0 -74 16t-13 53l2 18q5 37 29 53t79 16h2q54 0 73.5 -16t14.5 -53l-2 -18q-6 -38 -29.5 -53.5t-79.5 -15.5h-2zM315 605h2q30 0 39.5 4.5t11.5 17.5l2 17q2 16 -5.5 20.5t-38.5 4.5h-2q-30 0 -39 -5t-11 -20l-2 -17q-2 -14 5 -18t38 -4z" />
<glyph unicode="&#x2db;" d="M205 -216q-59 0 -84 22t-19 67l1 7q4 26 18.5 45.5t50.5 48.5l77 61l34 -9l-2 -17q-1 -8 -9 -15l-54 -51q-35 -30 -39 -58l-1 -7q-2 -17 4.5 -22t30.5 -5h36q9 0 8 -9l-7 -49q-1 -9 -10 -9h-35z" />
<glyph unicode="&#x2dc;" horiz-adv-x="533" d="M383 564q-31 0 -55 17l-62 47q-11 8 -18 8q-10 0 -13 -17l-5 -35q-1 -9 -10 -9h-42q-8 0 -7 9l4 32q10 76 81 76q33 0 54 -17l63 -46q9 -8 18 -8q10 0 13 16l5 35q1 9 10 9h41q9 0 8 -9l-4 -31q-11 -77 -81 -77z" />
<glyph unicode="&#x2dd;" d="M229 569q-5 0 -6.5 3t1.5 7l66 103q4 6 11 6h66q12 0 5 -11l-79 -103q-5 -5 -12 -5h-52zM368 569q-5 0 -6.5 3t1.5 7l66 103q5 6 11 6h66q13 0 4 -11l-79 -103q-4 -5 -11 -5h-52z" />
<glyph unicode="&#x300;" horiz-adv-x="0" d="M-226 569q-6 0 -10 4l-101 104q-4 5 -1.5 8t8.5 3h83q5 0 9 -4l84 -105q4 -4 1.5 -7t-7.5 -3h-66z" />
<glyph unicode="&#x301;" horiz-adv-x="0" d="M-280 569q-6 0 -7 3t3 7l113 105q5 4 12 4h84q6 0 6.5 -3t-4.5 -8l-130 -104q-5 -4 -11 -4h-66z" />
<glyph unicode="&#x302;" horiz-adv-x="0" d="M-80 579q4 -4 2 -7t-8 -3h-65q-6 0 -10 6l-47 67l-67 -67q-6 -6 -13 -6h-70q-6 0 -7 3t4 7l114 105q7 4 12 4h60q6 0 10 -4z" />
<glyph unicode="&#x303;" horiz-adv-x="0" d="M-150 564q-31 0 -55 17l-62 47q-11 8 -18 8q-10 0 -13 -17l-5 -35q-1 -9 -10 -9h-42q-8 0 -7 9l4 32q10 76 81 76q33 0 54 -17l63 -46q9 -8 18 -8q10 0 13 16l5 35q1 9 10 9h41q9 0 8 -9l-4 -31q-11 -77 -81 -77z" />
<glyph unicode="&#x304;" horiz-adv-x="0" d="M-328 578q-10 0 -8 9l7 53q1 9 11 9h215q9 0 7 -9l-7 -53q-1 -9 -10 -9h-215z" />
<glyph unicode="&#x306;" horiz-adv-x="0" d="M-95 688q8 0 7 -9l-3 -25q-13 -89 -130 -89h-4q-61 0 -86.5 22t-17.5 68l4 24q1 9 11 9h49q8 0 7 -9l-3 -24q-4 -23 4.5 -29t39.5 -6h4q29 0 40.5 7.5t14.5 26.5l3 25q1 9 10 9h50z" />
<glyph unicode="&#x307;" horiz-adv-x="0" d="M-256 577q-9 0 -8 9l14 93q1 9 10 9h68q9 0 8 -9l-14 -93q-1 -9 -10 -9h-68z" />
<glyph unicode="&#x308;" horiz-adv-x="0" d="M-334 577q-9 0 -8 9l14 93q1 9 10 9h68q9 0 8 -9l-14 -93q-1 -9 -10 -9h-68zM-178 577q-9 0 -8 9l14 93q1 9 10 9h68q9 0 8 -9l-14 -93q-1 -9 -10 -9h-68z" />
<glyph unicode="&#x30a;" horiz-adv-x="0" d="M-225 559q-55 0 -74 16t-13 53l2 18q5 37 29 53t79 16h2q54 0 73.5 -16t14.5 -53l-2 -18q-6 -38 -29.5 -53.5t-79.5 -15.5h-2zM-218 605h2q30 0 39.5 4.5t11.5 17.5l2 17q2 16 -5.5 20.5t-38.5 4.5h-2q-30 0 -39 -5t-11 -20l-2 -17q-2 -14 5 -18t38 -4z" />
<glyph unicode="&#x30b;" horiz-adv-x="0" d="M-326 569q-5 0 -6.5 3t1.5 7l66 103q5 6 11 6h66q12 0 5 -11l-79 -103q-5 -5 -12 -5h-52zM-187 569q-5 0 -6.5 3t1.5 7l66 103q4 6 11 6h66q13 0 4 -11l-79 -103q-4 -5 -11 -5h-52z" />
<glyph unicode="&#x30c;" horiz-adv-x="0" d="M-69 688q14 0 3 -11l-115 -104q-4 -4 -11 -4h-60q-7 0 -10 4l-86 104q-7 11 7 11h65q7 0 10 -6l48 -69l67 69q5 6 12 6h70z" />
<glyph unicode="&#x312;" horiz-adv-x="0" d="M-230 742h25q8 0 9 -8l23 -98q1 -6 0 -12l-7 -47q0 -8 -9 -8h-66q-8 0 -8 8l22 156q1 9 11 9z" />
<glyph unicode="&#x326;" horiz-adv-x="0" d="M-369 -242q-8 0 -8 9l22 155q1 9 11 9h65q8 0 7 -9l-6 -47q-1 -3 -2 -6.5t-1 -4.5l-51 -98q-4 -8 -11 -8h-26z" />
<glyph unicode="&#x327;" horiz-adv-x="0" d="M-298 -57q52 0 70.5 -15.5t12.5 -56.5l-3 -18q-5 -38 -28.5 -53.5t-74.5 -15.5h-89q-9 0 -8 9l6 39q2 9 10 9h88q18 0 24.5 3.5t7.5 13.5l2 14q1 12 -4 15.5t-23 3.5h-87q-10 0 -7 10l34 121h62l-20 -79h27z" />
<glyph unicode="&#x328;" horiz-adv-x="0" d="M-328 -216q-59 0 -84 22t-19 67l1 7q4 27 18 46t51 48l77 61l35 -9l-2 -15q-1 -9 -10 -17l-54 -51q-22 -20 -29.5 -31t-9.5 -27l-1 -7q-2 -17 4.5 -22t30.5 -5h36q9 0 8 -9l-7 -49q-1 -9 -10 -9h-35z" />
<glyph unicode="&#x335;" horiz-adv-x="0" d="M-298 290q-10 0 -8 9l7 45q1 9 10 9h284q9 0 8 -9l-7 -45q-2 -9 -10 -9h-284z" />
<glyph unicode="&#x336;" horiz-adv-x="0" d="M-506 456q-10 0 -8 9l6 43q2 9 10 9h516q10 0 8 -9l-6 -43q-1 -9 -10 -9h-516z" />
<glyph unicode="&#x337;" horiz-adv-x="0" d="M-443 -54q-11 0 -5 11l376 590q4 7 11 7h42q11 0 5 -11l-376 -590q-4 -7 -12 -7h-41z" />
<glyph unicode="&#x338;" horiz-adv-x="0" d="M-516 -54q-10 0 -5 11l469 736q6 7 12 7h41q12 0 5 -11l-469 -736q-4 -7 -12 -7h-41z" />
<glyph unicode="&#x401;" horiz-adv-x="501" d="M215 717q-9 0 -8 9l14 93q1 9 10 9h68q9 0 8 -9l-14 -93q-1 -9 -10 -9h-68zM371 717q-9 0 -8 9l14 93q1 9 10 9h68q9 0 8 -9l-14 -93q-1 -9 -10 -9h-68zM510 645q8 0 7 -9l-9 -69q-2 -9 -11 -9h-289l-26 -188h259q9 0 8 -9l-10 -69q-1 -9 -10 -9h-259l-27 -196h288 q9 0 8 -9l-10 -69q-1 -9 -10 -9h-375q-8 0 -7 9l87 627q2 9 11 9h375z" />
<glyph unicode="&#x402;" horiz-adv-x="650" d="M454 429q96 0 132.5 -43t22.5 -139l-13 -97q-12 -86 -54 -122t-134 -36h-60q-9 0 -8 9l9 65q1 9 11 9h56q43 0 60.5 17t24.5 65l11 75q10 67 -6.5 89t-69.5 22q-79 0 -168 -36l-42 -299q-1 -8 -11 -8h-76q-9 0 -8 8l77 550h-164q-8 0 -7 9l9 69q2 9 11 9h422q9 0 7 -9 l-9 -69q-1 -9 -10 -9h-164l-23 -165q86 36 174 36z" />
<glyph unicode="&#x403;" horiz-adv-x="456" d="M256 709q-6 0 -7 3t3 7l113 105q5 4 12 4h84q6 0 6.5 -3t-4.5 -8l-130 -104q-5 -4 -11 -4h-66zM484 645q8 0 7 -9l-9 -69q-2 -9 -10 -9h-263l-77 -548q-1 -10 -11 -10h-76q-9 0 -8 10l88 626q1 9 11 9h348z" />
<glyph unicode="&#x404;" horiz-adv-x="576" d="M350 653q123 0 169.5 -42t33.5 -131l-5 -37q-2 -9 -10 -9h-78q-8 0 -7 9l5 37q8 53 -15 69.5t-105 16.5h-6q-80 0 -108.5 -18.5t-35.5 -67.5l-16 -117h202q10 0 8 -9l-10 -64q-2 -9 -10 -9h-202l-16 -117q-7 -50 16 -67.5t104 -17.5h6q80 0 108.5 18.5t35.5 68.5l5 36 q1 9 10 9h77q10 0 8 -9l-5 -36q-13 -91 -69.5 -132.5t-182.5 -41.5h-6q-125 0 -170 41.5t-32 130.5l44 316q12 90 69 131.5t182 41.5h6z" />
<glyph unicode="&#x405;" horiz-adv-x="521" d="M221 -8q-122 0 -166 41.5t-32 129.5l4 29q1 9 10 9h77q10 0 8 -9l-4 -29q-7 -49 15.5 -66.5t99.5 -17.5h6q77 0 105 18.5t34 66.5l4 25q6 40 -6 55.5t-60 26.5l-129 30q-74 17 -101 54t-17 106l3 21q13 88 68.5 129.5t173.5 41.5h6q118 0 161.5 -41.5t30.5 -132.5l-3 -26 q-1 -9 -10 -9h-77q-10 0 -8 9l3 26q8 54 -13 70.5t-96 16.5h-6q-73 0 -100.5 -18.5t-34.5 -65.5l-3 -21q-5 -38 6.5 -52.5t59.5 -25.5l128 -29q77 -18 103.5 -55t15.5 -110l-4 -25q-12 -90 -67.5 -131t-178.5 -41h-6z" />
<glyph unicode="&#x406;" horiz-adv-x="237" d="M45 0q-9 0 -8 10l88 626q1 9 11 9h77q8 0 7 -9l-88 -626q-1 -10 -11 -10h-76z" />
<glyph unicode="&#x407;" horiz-adv-x="237" d="M71 717q-9 0 -8 9l14 93q1 9 10 9h68q9 0 8 -9l-14 -93q-1 -9 -10 -9h-68zM227 717q-9 0 -8 9l14 93q1 9 10 9h68q9 0 8 -9l-14 -93q-1 -9 -10 -9h-68zM45 0q-9 0 -8 10l88 626q1 9 11 9h77q8 0 7 -9l-88 -626q-1 -10 -11 -10h-76z" />
<glyph unicode="&#x408;" horiz-adv-x="500" d="M188 -8q-108 0 -150 42.5t-30 132.5l3 18q1 9 10 9h77q10 0 8 -9l-3 -18q-7 -53 12.5 -70.5t84.5 -17.5h6q64 0 89 19t32 68l66 470q1 9 11 9h77q9 0 7 -9l-66 -470q-12 -90 -65 -132t-163 -42h-6z" />
<glyph unicode="&#x409;" horiz-adv-x="877" d="M684 398q95 0 133 -40.5t27 -122.5l-10 -71q-12 -85 -60.5 -124.5t-145.5 -39.5h-241q-9 0 -8 9l78 549h-193l-60 -304q-21 -111 -47 -165.5t-64.5 -74.5t-107.5 -20h-9q-8 0 -6 9l10 68q2 11 10 11h8q49 0 69.5 30t41.5 142l73 382q1 9 11 9h361q9 0 8 -10l-33 -237h155 zM748 231q8 52 -10 66.5t-88 14.5h-133l-32 -226h133q68 0 91 16t30 65z" />
<glyph unicode="&#x40a;" horiz-adv-x="881" d="M685 378q95 0 133 -41t27 -123l-7 -50q-12 -85 -60.5 -124.5t-145.5 -39.5h-242q-9 0 -8 10l40 281h-250l-40 -281q-1 -10 -11 -10h-76q-9 0 -8 10l88 626q1 9 11 9h77q8 0 7 -9l-36 -258h250l37 258q1 9 10 9h78q8 0 7 -9l-37 -258h156zM749 210q7 52 -11 67t-87 15 h-134l-29 -206h134q67 0 90.5 16t30.5 65z" />
<glyph unicode="&#x40b;" horiz-adv-x="650" d="M454 429q95 0 132 -43t23 -138l-33 -239q-1 -9 -11 -9h-77q-8 0 -7 9l31 221q9 69 -6.5 91t-67.5 22q-81 0 -170 -36l-42 -299q-1 -8 -11 -8h-76q-9 0 -8 8l77 550h-164q-8 0 -7 9l9 69q2 9 11 9h422q9 0 7 -9l-9 -69q-1 -9 -10 -9h-164l-23 -166q86 37 174 37z" />
<glyph unicode="&#x40c;" horiz-adv-x="550" d="M287 709q-6 0 -7 3t3 7l113 105q5 4 12 4h84q6 0 6.5 -3t-4.5 -8l-130 -104q-5 -4 -11 -4h-66zM580 645q12 0 4 -10l-245 -311l161 -314q7 -10 -7 -10h-85q-6 0 -10 6l-140 275h-88l-38 -271q-1 -10 -11 -10h-76q-9 0 -8 10l88 626q1 9 11 9h77q8 0 7 -9l-38 -268h86 l212 271q5 6 11 6h89z" />
<glyph unicode="&#x40d;" horiz-adv-x="632" d="M366 713l-101 104q-4 5 -1.5 8t8.5 3h83q5 0 9 -4l84 -105q4 -4 1.5 -7t-7.5 -3h-66q-6 0 -10 4zM607 645q9 0 8 -8l-88 -628q-1 -9 -10 -9h-78q-8 0 -7 9l44 311q19 131 31 186q-44 -73 -128 -186l-239 -314q-4 -6 -12 -6h-82q-5 0 -7.5 2t-1.5 6l88 628q1 9 11 9h77 q9 0 7 -9l-44 -312q-18 -125 -31 -185q44 75 128 185l239 315q5 6 12 6h83z" />
<glyph unicode="&#x40e;" horiz-adv-x="481" d="M308 705q-61 0 -86.5 22t-17.5 68l4 24q1 9 11 9h49q8 0 7 -9l-3 -24q-4 -23 4.5 -29t39.5 -6h4q29 0 40.5 7.5t14.5 26.5l3 25q1 9 10 9h50q8 0 7 -9l-3 -25q-13 -89 -130 -89h-4zM536 645q9 0 5 -10l-239 -478q-52 -104 -93 -133.5t-132 -29.5h-56q-9 0 -8 9l10 69 q1 8 11 8h60q44 0 63.5 11.5t41.5 50.5l-132 493q-3 10 8 10h74q7 0 9 -7l58 -218q28 -107 37 -191q33 93 84 192l109 217q4 7 12 7h78z" />
<glyph unicode="&#x40f;" horiz-adv-x="593" d="M569 645q9 0 7 -9l-88 -626q-1 -10 -11 -10h-171l-25 -128q-1 -9 -10 -9h-57q-9 0 -8 9l10 128h-170q-10 0 -9 10l88 626q1 9 11 9h77q9 0 7 -9l-77 -549h261l77 549q1 9 11 9h77z" />
<glyph unicode="&#x410;" horiz-adv-x="552" d="M505 10q1 -10 -9 -10h-76q-9 0 -10 7l-28 141h-237l-68 -141q-3 -7 -11 -7h-81q-10 0 -6 10l305 628q4 7 12 7h71q9 0 10 -7zM186 234h179l-24 119q-16 77 -25 170q-24 -69 -73 -170z" />
<glyph unicode="&#x411;" horiz-adv-x="555" d="M504 558h-295l-25 -180h170q96 0 133.5 -40t26.5 -123l-8 -54q-12 -83 -59.5 -122t-145.5 -39h-256q-9 0 -8 10l88 626q1 9 11 9h381q7 0 6 -9l-9 -69q-2 -9 -10 -9zM320 292h-149l-29 -206h149q68 0 91 15.5t30 62.5l7 47q7 52 -11 66.5t-88 14.5z" />
<glyph unicode="&#x412;" horiz-adv-x="560" d="M369 645q184 0 160 -163l-4 -29q-8 -52 -29 -81.5t-64 -42.5q53 -10 71 -40.5t10 -89.5l-5 -33q-12 -86 -60.5 -126t-145.5 -40h-258q-9 0 -7 10l87 626q2 9 11 9h234zM435 479q7 49 -12 64.5t-88 15.5h-126l-27 -190h127q67 0 90.5 16t31.5 65zM418 202q7 49 -12 65 t-86 16h-150l-28 -197h150q67 0 90.5 16.5t30.5 63.5z" />
<glyph unicode="&#x413;" horiz-adv-x="456" d="M484 645q8 0 7 -9l-9 -69q-2 -9 -10 -9h-263l-77 -548q-1 -10 -11 -10h-76q-9 0 -8 10l88 626q1 9 11 9h348z" />
<glyph unicode="&#x414;" horiz-adv-x="591" d="M557 645q9 0 7 -9l-77 -551h58q9 0 8 -9l-28 -204q-1 -9 -10 -9h-50q-8 0 -9 9l-3 128h-394l-39 -128q-4 -9 -11 -9h-50q-9 0 -8 9l29 204q2 9 10 9h41q40 58 58.5 117.5t35.5 175.5l36 258q1 9 11 9h385zM218 377q-16 -115 -34 -174.5t-56 -117.5h265l67 475h-216z" />
<glyph unicode="&#x415;" horiz-adv-x="501" d="M510 645q8 0 7 -9l-9 -69q-2 -9 -11 -9h-289l-26 -188h259q9 0 8 -9l-10 -69q-1 -9 -10 -9h-259l-27 -196h288q9 0 8 -9l-10 -69q-1 -9 -10 -9h-375q-8 0 -7 9l87 627q2 9 11 9h375z" />
<glyph unicode="&#x416;" horiz-adv-x="815" d="M844 645q12 0 4 -10l-217 -310l134 -315q3 -10 -8 -10h-80q-7 0 -10 6l-115 275h-94l-38 -271q-1 -10 -10 -10h-77q-9 0 -8 10l38 271h-83l-191 -275q-6 -6 -12 -6h-90q-13 0 -5 10l222 314l-131 311q-4 10 9 10h79q7 0 10 -6l112 -271h92l38 268q1 9 11 9h77q8 0 7 -9 l-38 -268h85l188 271q5 6 11 6h90z" />
<glyph unicode="&#x417;" horiz-adv-x="529" d="M323 653q117 0 160 -42t30 -131l-3 -22q-8 -59 -33 -89t-77 -41q53 -11 70.5 -41t9.5 -90l-4 -29q-13 -92 -68.5 -134t-177.5 -42h-6q-120 0 -165 42t-32 132l3 25q2 9 11 9h77q8 0 7 -9l-3 -25q-8 -52 14.5 -69.5t99.5 -17.5h6q76 0 103.5 19t35.5 70l4 29 q8 52 -14.5 69t-99.5 17h-77q-10 0 -8 9l10 69q2 9 10 9h73q74 0 101.5 19t34.5 69l3 22q7 53 -13.5 69.5t-94.5 16.5h-6q-71 0 -98 -19.5t-34 -69.5l-4 -28q-2 -9 -10 -9h-77q-9 0 -8 9l4 28q13 93 67 134.5t173 41.5h6z" />
<glyph unicode="&#x418;" horiz-adv-x="632" d="M607 645q9 0 8 -8l-88 -628q-1 -9 -10 -9h-78q-8 0 -7 9l44 311q19 131 31 186q-44 -73 -128 -186l-239 -314q-4 -6 -12 -6h-82q-5 0 -7.5 2t-1.5 6l88 628q1 9 11 9h77q9 0 7 -9l-44 -312q-18 -125 -31 -185q44 75 128 185l239 315q5 6 12 6h83z" />
<glyph unicode="&#x419;" horiz-adv-x="632" d="M377 705q-61 0 -86.5 22t-17.5 68l4 24q1 9 11 9h49q8 0 7 -9l-3 -24q-4 -23 4.5 -29t39.5 -6h4q29 0 40.5 7.5t14.5 26.5l3 25q1 9 10 9h50q8 0 7 -9l-3 -25q-13 -89 -130 -89h-4zM607 645q9 0 8 -8l-88 -628q-1 -9 -10 -9h-78q-8 0 -7 9l44 311q19 131 31 186 q-44 -73 -128 -186l-239 -314q-4 -6 -12 -6h-82q-5 0 -7.5 2t-1.5 6l88 628q1 9 11 9h77q9 0 7 -9l-44 -312q-18 -125 -31 -185q44 75 128 185l239 315q5 6 12 6h83z" />
<glyph unicode="&#x41a;" horiz-adv-x="550" d="M580 645q12 0 4 -10l-245 -311l161 -314q7 -10 -7 -10h-85q-6 0 -10 6l-140 275h-88l-38 -271q-1 -10 -11 -10h-76q-9 0 -8 10l88 626q1 9 11 9h77q8 0 7 -9l-38 -268h86l212 271q5 6 11 6h89z" />
<glyph unicode="&#x41b;" horiz-adv-x="594" d="M569 645q10 0 9 -10l-88 -626q-2 -9 -11 -9h-77q-8 0 -7 9l77 549h-208l-60 -304q-21 -111 -47 -165.5t-64.5 -74.5t-107.5 -20h-9q-8 0 -6 9l10 68q2 11 10 11h8q49 0 69.5 30t41.5 142l73 382q1 9 11 9h376z" />
<glyph unicode="&#x41c;" horiz-adv-x="733" d="M709 645q9 0 8 -10l-89 -626q-2 -9 -10 -9h-75q-9 0 -7 9l39 278q16 115 34 202q-47 -100 -111 -202l-107 -175q-4 -6 -11 -6h-67q-8 0 -10 6l-58 175q-38 115 -54 201q-9 -111 -23 -201l-39 -278q-1 -9 -10 -9h-75q-8 0 -7 9l87 626q2 10 11 10h80q7 0 10 -7l106 -323 q20 -59 28 -104q25 53 57 104l197 323q4 7 12 7h84z" />
<glyph unicode="&#x41d;" horiz-adv-x="603" d="M579 645q8 0 7 -9l-89 -626q-1 -10 -10 -10h-77q-9 0 -8 10l39 271h-271l-38 -271q-1 -10 -11 -10h-76q-9 0 -8 10l88 626q1 9 11 9h77q8 0 7 -9l-38 -268h271l38 268q1 9 10 9h78z" />
<glyph unicode="&#x41e;" horiz-adv-x="596" d="M49 164l44 316q12 90 70 131.5t188 41.5h6q129 0 175.5 -41.5t34.5 -131.5l-44 -315q-13 -90 -71 -131.5t-188 -41.5h-6q-129 0 -175.5 41.5t-33.5 130.5zM144 164q-8 -52 16 -68.5t111 -16.5h6q84 0 114 18.5t37 67.5l44 315q8 53 -16 69.5t-111 16.5h-6 q-84 0 -114 -18.5t-37 -67.5z" />
<glyph unicode="&#x41f;" horiz-adv-x="603" d="M578 645q9 0 8 -10l-88 -626q-2 -9 -10 -9h-78q-8 0 -7 9l77 549h-271l-77 -549q-2 -9 -11 -9h-77q-8 0 -7 9l88 626q2 10 11 10h442z" />
<glyph unicode="&#x420;" horiz-adv-x="531" d="M377 645q181 0 157 -169l-12 -87q-12 -87 -61.5 -128t-143.5 -41h-155l-30 -210q-1 -10 -11 -10h-76q-9 0 -8 10l88 626q1 9 11 9h241zM439 476q7 52 -11 67t-87 15h-132l-35 -252h131q68 0 91.5 17t30.5 66z" />
<glyph unicode="&#x421;" horiz-adv-x="562" d="M251 -8q-125 0 -170 41.5t-32 130.5l44 316q12 90 69 131.5t182 41.5h6q123 0 169.5 -42t33.5 -131l-5 -37q-2 -9 -10 -9h-78q-8 0 -7 9l5 37q8 53 -15 69.5t-105 16.5h-6q-80 0 -108.5 -18.5t-35.5 -67.5l-44 -316q-7 -50 16 -67.5t104 -17.5h6q80 0 108.5 18.5 t35.5 68.5l5 36q1 9 10 9h77q10 0 8 -9l-5 -36q-13 -91 -69.5 -132.5t-182.5 -41.5h-6z" />
<glyph unicode="&#x422;" horiz-adv-x="465" d="M499 645q9 0 7 -9l-9 -69q-1 -9 -10 -9h-164l-77 -550q-1 -8 -11 -8h-76q-9 0 -8 8l77 550h-164q-8 0 -7 9l9 69q2 9 11 9h422z" />
<glyph unicode="&#x423;" horiz-adv-x="481" d="M536 645q9 0 5 -10l-239 -478q-52 -104 -93 -133.5t-132 -29.5h-56q-9 0 -8 9l10 69q1 8 11 8h60q44 0 63.5 11.5t41.5 50.5l-132 493q-3 10 8 10h74q7 0 9 -7l58 -218q28 -107 37 -191q33 93 84 192l109 217q4 7 12 7h78z" />
<glyph unicode="&#x424;" horiz-adv-x="714" d="M488 614q124 0 169 -42t33 -132l-33 -236q-13 -91 -69.5 -132t-181.5 -41h-33l-9 -67q-2 -9 -10 -9h-77q-9 0 -8 9l9 67h-32q-123 0 -168.5 41.5t-33.5 131.5l33 236q13 91 69.5 132.5t181.5 41.5h33l9 65q2 11 10 11h77q10 0 8 -11l-9 -65h32zM258 118h33l58 409h-34 q-79 0 -107 -18.5t-36 -68.5l-33 -236q-8 -53 15 -69.5t104 -16.5zM595 440q7 55 -15.5 71t-104.5 16h-31l-58 -409h32q79 0 107.5 18.5t36.5 67.5z" />
<glyph unicode="&#x425;" horiz-adv-x="525" d="M549 645q12 0 4 -11l-229 -308l146 -315q5 -11 -7 -11h-84q-7 0 -9 6l-105 229l-169 -229q-5 -6 -11 -6h-94q-11 0 -5 11l235 316l-143 307q-5 11 8 11h83q7 0 9 -6l102 -224l166 224q4 6 11 6h92z" />
<glyph unicode="&#x426;" horiz-adv-x="602" d="M569 645q9 0 7 -9l-78 -551h59q9 0 8 -9l-28 -204q-1 -9 -10 -9h-50q-8 0 -9 9l-3 128h-419q-10 0 -9 10l88 626q1 9 11 9h77q9 0 7 -9l-77 -549h260l78 549q1 9 10 9h78z" />
<glyph unicode="&#x427;" horiz-adv-x="551" d="M527 645q8 0 7 -9l-88 -626q-1 -10 -11 -10h-76q-9 0 -8 10l33 233q-85 -37 -174 -37q-96 0 -132 43t-23 141l34 246q1 9 11 9h78q8 0 6 -9l-33 -235q-9 -66 7 -87.5t68 -21.5q81 0 170 36l43 308q1 9 11 9h77z" />
<glyph unicode="&#x428;" horiz-adv-x="822" d="M798 645q8 0 7 -9l-88 -628q-2 -8 -10 -8h-661q-5 0 -7.5 2t-1.5 6l88 628q1 9 11 9h77q9 0 7 -9l-77 -549h197l77 549q1 9 11 9h77q9 0 7 -9l-77 -549h198l77 549q2 9 11 9h77z" />
<glyph unicode="&#x429;" horiz-adv-x="830" d="M798 645q8 0 7 -9l-77 -551h57q9 0 8 -9l-28 -204q-1 -9 -10 -9h-50q-8 0 -9 9l-3 128h-647q-5 0 -7.5 2t-1.5 6l88 628q1 9 11 9h77q9 0 7 -9l-77 -549h197l77 549q1 9 11 9h77q9 0 7 -9l-77 -549h198l77 549q2 9 11 9h77z" />
<glyph unicode="&#x42a;" horiz-adv-x="612" d="M419 398q95 0 133 -40.5t27 -122.5l-10 -71q-11 -85 -59.5 -124.5t-146.5 -39.5h-261q-9 0 -8 10l77 551h-126q-9 0 -8 9l9 66q2 9 11 9h213q8 0 7 -9l-34 -238h176zM484 231q7 52 -11 66.5t-88 14.5h-154l-32 -226h154q68 0 91 16t30 65z" />
<glyph unicode="&#x42b;" horiz-adv-x="755" d="M342 398q95 0 133 -40.5t27 -122.5l-10 -71q-11 -85 -59.5 -124.5t-146.5 -39.5h-241q-9 0 -8 10l88 626q1 9 11 9h77q9 0 7 -9l-34 -238h156zM731 645q8 0 7 -9l-88 -626q-1 -10 -11 -10h-76q-9 0 -8 10l88 626q1 9 11 9h77zM407 231q7 52 -11 66.5t-88 14.5h-134 l-32 -226h134q68 0 91 16t30 65z" />
<glyph unicode="&#x42c;" horiz-adv-x="555" d="M362 398q95 0 133 -40.5t27 -122.5l-10 -71q-11 -85 -59.5 -124.5t-146.5 -39.5h-261q-9 0 -8 10l88 626q1 9 11 9h77q9 0 7 -9l-34 -238h176zM427 231q7 52 -11 66.5t-88 14.5h-154l-32 -226h154q68 0 91 16t30 65z" />
<glyph unicode="&#x42d;" horiz-adv-x="576" d="M345 653q125 0 170 -41.5t32 -130.5l-44 -316q-12 -90 -69 -131.5t-182 -41.5h-6q-123 0 -169.5 42t-33.5 131l5 37q2 9 10 9h78q8 0 7 -9l-5 -37q-8 -53 15 -69.5t105 -16.5h6q80 0 108.5 18.5t35.5 67.5l16 117h-202q-10 0 -8 9l10 64q2 9 10 9h202l16 117 q7 50 -16 67.5t-104 17.5h-6q-80 0 -108.5 -18.5t-35.5 -68.5l-5 -36q-1 -9 -10 -9h-77q-10 0 -8 9l5 36q13 91 69.5 132.5t182.5 41.5h6z" />
<glyph unicode="&#x42e;" horiz-adv-x="801" d="M571 653q123 0 168 -42t33 -131l-44 -315q-12 -90 -69 -131.5t-181 -41.5h-6q-123 0 -168 41.5t-33 130.5l16 117h-117l-38 -271q-1 -10 -11 -10h-76q-9 0 -8 10l88 626q1 9 11 9h77q8 0 7 -9l-38 -271h117l16 115q12 89 69 131t181 42h6zM677 480q8 53 -15 69.5 t-104 16.5h-6q-78 0 -107 -19t-35 -67l-44 -316q-8 -52 15 -68.5t103 -16.5h6q79 0 107.5 18.5t35.5 67.5z" />
<glyph unicode="&#x42f;" horiz-adv-x="553" d="M528 645q8 0 7 -9l-88 -626q-1 -10 -10 -10h-77q-9 0 -8 10l31 223h-109l-159 -227q-6 -6 -12 -6h-88q-12 0 -5 11l163 227q-123 22 -103 163l11 75q13 88 61.5 128.5t144.5 40.5h241zM264 319h131l34 239h-132q-67 0 -91 -17t-30 -65l-11 -75q-7 -52 11.5 -67t87.5 -15z " />
<glyph unicode="&#x430;" horiz-adv-x="513" d="M297 513q101 0 141 -41t28 -125l-48 -338q-1 -9 -11 -9h-45q-7 0 -11 6l-15 30q-74 -44 -162 -44q-83 0 -121 36.5t-28 106.5l3 17q10 69 54 101.5t134 32.5h146l9 61q6 46 -12 63t-74 17h-6q-57 0 -80.5 -18t-29.5 -61q-1 -13 -11 -13h-75q-6 0 -7.5 2.5t-0.5 10.5 q12 84 62.5 124.5t153.5 40.5h6zM120 135q-5 -35 11 -48.5t64 -13.5q73 0 141 31l16 108h-151q-38 0 -56 -14t-23 -46z" />
<glyph unicode="&#x431;" horiz-adv-x="533" d="M518 708q8 0 7 -9l-1 -7q-7 -50 -28 -70.5t-90 -41.5l-117 -36q-69 -21 -87 -40.5t-27 -81.5l-4 -32q17 39 46 52.5t83 13.5h6q111 0 152 -41.5t29 -130.5l-18 -122q-12 -88 -65 -129t-166 -41h-6q-113 0 -154.5 41.5t-29.5 129.5l37 261q12 86 48.5 127t124.5 68l99 30 q48 15 61.5 23t15.5 20l1 7q1 9 10 9h73zM285 369q-67 0 -92.5 -18.5t-32.5 -66.5l-17 -122q-6 -48 13.5 -65.5t87.5 -17.5h6q67 0 92.5 18.5t31.5 64.5l18 122q7 52 -12.5 68.5t-88.5 16.5h-6z" />
<glyph unicode="&#x432;" horiz-adv-x="505" d="M330 505q80 0 113 -33.5t23 -100.5l-3 -22q-12 -74 -76 -93q81 -16 69 -100l-3 -21q-10 -71 -51 -103t-123 -32h-240q-8 0 -7 11l68 483q2 11 12 11h218zM371 371q4 31 -8 41t-51 10h-129l-18 -127h129q38 0 53.5 11t19.5 40zM362 161q4 29 -9 40t-51 11h-149l-18 -129 h150q38 0 53.5 11.5t19.5 41.5z" />
<glyph unicode="&#x433;" horiz-adv-x="372" d="M388 505q9 0 8 -8l-10 -70q-1 -9 -10 -9h-192l-57 -409q-1 -9 -11 -9h-77q-8 0 -7 9l68 483q2 13 12 13h276z" />
<glyph unicode="&#x434;" horiz-adv-x="527" d="M481 85q9 0 8 -9l-28 -204q-1 -9 -10 -9h-50q-8 0 -9 9l-3 128h-332l-39 -128q-4 -9 -11 -9h-50q-9 0 -8 9l29 204q2 9 10 9h39q53 71 72 204l28 207q1 9 11 9h340q9 0 7 -10l-57 -410h53zM194 289q-19 -132 -67 -204h206l47 335h-168z" />
<glyph unicode="&#x435;" horiz-adv-x="523" d="M304 513q110 0 151.5 -41t29.5 -129l-14 -104q-1 -8 -11 -8h-313l-10 -70q-7 -49 13 -66.5t87 -17.5h6q65 0 91 18.5t31 61.5l1 7q1 9 11 9h74q10 0 9 -9l-1 -7q-12 -84 -64.5 -124.5t-163.5 -40.5h-6q-110 0 -152 41t-30 128l25 182q13 88 66 129t164 41h6zM162 343 l-5 -40h229l5 40q8 54 -10.5 69.5t-88.5 15.5h-6q-66 0 -91.5 -18.5t-32.5 -66.5z" />
<glyph unicode="&#x436;" horiz-adv-x="688" d="M700 505q12 0 5 -11l-168 -239l104 -244q5 -11 -7 -11h-80q-7 0 -10 6l-87 207h-72l-28 -202q-1 -11 -10 -11h-77q-9 0 -8 11l28 202h-65l-142 -207q-4 -6 -11 -6h-89q-11 0 -4 11l173 244l-102 239q-2 4 0.5 7.5t7.5 3.5h80q8 0 9 -6l82 -199h74l27 194q2 11 12 11h75 q10 0 8 -11l-27 -194h67l136 199q5 6 11 6h88z" />
<glyph unicode="&#x437;" horiz-adv-x="482" d="M281 513q105 0 144.5 -35.5t29.5 -110.5l-1 -7q-7 -50 -29 -74t-67 -32q45 -8 61.5 -31t9.5 -73l-1 -11q-12 -77 -61.5 -112t-158.5 -35h-6q-109 0 -150 35t-30 111l3 21q1 9 11 9h77q9 0 7 -9l-3 -21q-5 -38 13.5 -50t83.5 -12h6q63 0 85.5 13t27.5 50l1 11 q5 37 -13.5 49.5t-81.5 12.5h-62q-9 0 -8 9l9 65q2 9 11 9h61q59 0 81 13.5t28 51.5l1 7q5 38 -12.5 50t-78.5 12h-6q-59 0 -81 -13.5t-27 -51.5l-3 -18q-2 -9 -10 -9h-77q-9 0 -8 9l3 18q11 78 60 113.5t155 35.5h6z" />
<glyph unicode="&#x438;" horiz-adv-x="553" d="M514 505q9 0 8 -10l-68 -486q-2 -9 -11 -9h-75q-8 0 -7 9l31 224q12 84 25 147q-38 -62 -80 -114l-202 -260q-5 -6 -11 -6h-85q-8 0 -7 11l68 485q2 9 10 9h75q9 0 7 -9l-31 -224q-14 -98 -24 -145q28 47 79 112l202 260q4 6 11 6h85z" />
<glyph unicode="&#x439;" horiz-adv-x="553" d="M320 565q-61 0 -86.5 22t-17.5 68l4 24q1 9 11 9h49q8 0 7 -9l-3 -24q-4 -23 4.5 -29t39.5 -6h4q29 0 40.5 7.5t14.5 26.5l3 25q1 9 10 9h50q8 0 7 -9l-3 -25q-13 -89 -130 -89h-4zM514 505q9 0 8 -10l-68 -486q-2 -9 -11 -9h-75q-8 0 -7 9l31 224q12 84 25 147 q-38 -62 -80 -114l-202 -260q-5 -6 -11 -6h-85q-8 0 -7 11l68 485q2 9 10 9h75q9 0 7 -9l-31 -224q-14 -98 -24 -145q28 47 79 112l202 260q4 6 11 6h85z" />
<glyph unicode="&#x43a;" horiz-adv-x="483" d="M495 505q13 0 4 -11l-196 -240l132 -243q5 -11 -7 -11h-84q-8 0 -10 5l-111 208h-68l-28 -202q-1 -11 -11 -11h-77q-8 0 -7 11l68 483q2 11 10 11h77q10 0 8 -11l-27 -194h66l160 199q4 6 12 6h89z" />
<glyph unicode="&#x43b;" horiz-adv-x="519" d="M480 505q9 0 7 -12l-68 -484q-1 -9 -10 -9h-77q-10 0 -8 9l58 406h-162l-36 -196q-19 -100 -40.5 -146t-56 -62.5t-103.5 -16.5h-5q-9 0 -7 11l9 67q1 9 11 9h5q43 0 58 22.5t32 115.5l52 277q1 9 10 9h331z" />
<glyph unicode="&#x43c;" horiz-adv-x="661" d="M621 505q10 0 8 -12l-68 -484q-1 -9 -10 -9h-74q-9 0 -7 9l32 230q7 51 26 155q-29 -66 -83 -156l-91 -152q-5 -7 -11 -7h-73q-5 0 -8 7l-50 152q-30 93 -39 154q-9 -98 -18 -157l-32 -226q-1 -9 -10 -9h-74q-9 0 -7 9l68 484q2 12 11 12h98q6 0 9 -7l75 -230 q15 -46 24 -93q18 39 50 93l140 230q4 7 11 7h103z" />
<glyph unicode="&#x43d;" horiz-adv-x="531" d="M492 505q9 0 7 -11l-68 -483q-1 -11 -10 -11h-78q-8 0 -7 11l28 202h-209l-28 -202q-1 -11 -11 -11h-77q-8 0 -7 11l68 483q2 11 10 11h77q10 0 8 -11l-27 -194h209l27 194q2 11 10 11h78z" />
<glyph unicode="&#x43e;" horiz-adv-x="533" d="M43 162l25 178q12 90 65.5 131.5t166.5 41.5h6q112 0 154 -42t30 -131l-26 -178q-12 -88 -65 -129t-166 -41h-6q-111 0 -153.5 41.5t-30.5 128.5zM138 162q-7 -49 13 -66t88 -17h6q67 0 92.5 18.5t31.5 64.5l26 178q7 51 -13 68.5t-88 17.5h-6q-67 0 -92.5 -19t-32.5 -67 z" />
<glyph unicode="&#x43f;" horiz-adv-x="530" d="M491 505q9 0 7 -10l-68 -486q-2 -9 -10 -9h-77q-9 0 -8 9l58 409h-209l-57 -409q-1 -9 -11 -9h-77q-9 0 -7 9l68 486q2 10 10 10h381z" />
<glyph unicode="&#x440;" horiz-adv-x="536" d="M356 513q85 0 117.5 -41t19.5 -132l-25 -174q-13 -95 -56 -134.5t-128 -39.5t-154 39l-31 -222q-1 -9 -10 -9h-77q-9 0 -8 9l96 683q1 13 11 13h46q7 0 10 -7l14 -31q83 46 175 46zM396 328q8 61 -5.5 79.5t-64.5 18.5q-73 0 -145 -30l-40 -288q61 -29 134 -29 q53 0 72 19.5t27 79.5z" />
<glyph unicode="&#x441;" horiz-adv-x="505" d="M222 -8q-109 0 -150.5 41t-28.5 127l25 183q12 88 65 129t162 41h6q108 0 149 -41.5t29 -128.5l-1 -10q-1 -9 -10 -9h-76q-10 0 -9 9l2 10q7 51 -12 67t-84 16h-6q-63 0 -88.5 -18.5t-31.5 -64.5l-25 -183q-7 -49 12 -65t84 -16h6q63 0 88 19t31 66l2 10q1 8 10 8h76 q9 0 8 -8l-1 -10q-13 -90 -65 -131t-161 -41h-6z" />
<glyph unicode="&#x442;" horiz-adv-x="383" d="M405 505q9 0 8 -9l-9 -69q-2 -9 -11 -9h-131l-57 -409q-1 -9 -11 -9h-77q-9 0 -7 9l57 409h-131q-10 0 -8 9l10 69q2 9 10 9h357z" />
<glyph unicode="&#x443;" horiz-adv-x="460" d="M485 505q11 0 6 -10l-342 -689q-3 -7 -12 -7h-80q-12 0 -5 10l96 185l-107 501q-1 10 9 10h77q8 0 9 -8l43 -213q21 -105 27 -197q31 90 82 197l102 213q4 8 12 8h83z" />
<glyph unicode="&#x444;" horiz-adv-x="679" d="M452 509q112 0 154 -42t30 -128l-24 -171q-13 -89 -66 -130.5t-166 -41.5h-30l-26 -188q-2 -9 -10 -9h-76q-10 0 -8 9l26 188h-28q-112 0 -154 41.5t-30 130.5l24 171q13 88 66 129t166 41h28l26 182q2 9 11 9h76q9 0 7 -9l-26 -182h30zM240 83h29l47 339h-28 q-67 0 -93 -18.5t-32 -64.5l-24 -171q-7 -51 13 -68t88 -17zM541 339q7 50 -12.5 66.5t-88.5 16.5h-30l-47 -339h29q67 0 92.5 18.5t32.5 66.5z" />
<glyph unicode="&#x445;" horiz-adv-x="455" d="M464 505q14 0 2 -13l-183 -233l125 -247q3 -5 0.5 -8.5t-7.5 -3.5h-84q-8 0 -10 6l-85 175l-135 -175q-5 -6 -12 -6h-92q-13 0 -3 12l193 246l-118 234q-6 13 7 13h84q6 0 9 -6l80 -166l124 166q5 6 11 6h94z" />
<glyph unicode="&#x446;" d="M489 85q9 0 8 -9l-28 -204q-1 -9 -10 -9h-50q-8 0 -9 9l-3 128h-357q-10 0 -8 11l68 484q2 10 10 10h77q9 0 8 -10l-58 -408h204l57 408q1 10 11 10h77q9 0 7 -11l-57 -409h53z" />
<glyph unicode="&#x447;" horiz-adv-x="489" d="M450 505q9 0 7 -11l-68 -483q-1 -11 -10 -11h-77q-9 0 -8 11l23 164q-71 -31 -145 -31q-82 0 -111.5 36.5t-17.5 123.5l27 192q2 9 11 9h77q8 0 7 -9l-25 -178q-7 -54 3.5 -71t50.5 -17q64 0 135 30l33 234q2 11 10 11h78z" />
<glyph unicode="&#x448;" horiz-adv-x="745" d="M706 505q10 0 8 -9l-68 -485q-1 -11 -11 -11h-596q-8 0 -7 10l68 486q2 9 10 9h77q9 0 8 -9l-58 -409h164l58 409q1 9 11 9h77q9 0 7 -9l-58 -409h165l58 409q1 9 10 9h77z" />
<glyph unicode="&#x449;" horiz-adv-x="755" d="M710 85q8 0 7 -9l-28 -204q-1 -9 -10 -9h-50q-8 0 -9 9l-3 128h-578q-8 0 -7 10l68 486q2 9 10 9h77q9 0 8 -9l-58 -409h164l58 409q1 9 11 9h77q9 0 7 -9l-58 -409h165l58 409q1 9 10 9h77q10 0 8 -9l-58 -411h54z" />
<glyph unicode="&#x44a;" horiz-adv-x="548" d="M374 340q155 0 135 -138l-9 -65q-10 -69 -51.5 -103t-122.5 -34h-239q-10 0 -8 12l58 410h-107q-8 0 -7 8l9 66q2 9 10 9h192q10 0 8 -9l-22 -156h154zM414 202q4 32 -7.5 41.5t-51.5 9.5h-147l-24 -166h148q38 0 53.5 11t19.5 39z" />
<glyph unicode="&#x44b;" horiz-adv-x="696" d="M317 340q155 0 135 -138l-9 -65q-10 -69 -51.5 -103t-122.5 -34h-229q-10 0 -8 12l68 484q2 9 10 9h77q9 0 8 -9l-22 -156h144zM656 505q10 0 8 -11l-68 -483q-1 -11 -11 -11h-77q-8 0 -7 11l68 483q2 11 10 11h77zM357 202q4 32 -7.5 41.5t-51.5 9.5h-137l-24 -166h138 q38 0 53.5 11t19.5 39z" />
<glyph unicode="&#x44c;" horiz-adv-x="501" d="M327 340q155 0 135 -138l-9 -65q-10 -69 -51.5 -103t-122.5 -34h-239q-10 0 -8 12l68 484q2 9 10 9h77q9 0 8 -9l-22 -156h154zM367 202q4 32 -7.5 41.5t-51.5 9.5h-147l-24 -166h148q38 0 53.5 11t19.5 39z" />
<glyph unicode="&#x44d;" horiz-adv-x="509" d="M287 513q109 0 150.5 -41t28.5 -127l-25 -183q-12 -88 -65 -129t-162 -41h-6q-108 0 -149 41.5t-29 128.5l1 10q1 9 10 9h76q10 0 9 -9l-2 -10q-7 -51 12 -67t84 -16h6q63 0 88.5 18.5t31.5 64.5l7 52h-147q-10 0 -8 9l9 59q1 9 10 9h147l7 54q7 49 -12 65t-84 16h-6 q-63 0 -88 -19t-31 -66l-2 -10q-1 -8 -10 -8h-76q-9 0 -8 8l1 10q13 90 65 131t161 41h6z" />
<glyph unicode="&#x44e;" horiz-adv-x="728" d="M511 513q105 0 145.5 -42.5t28.5 -130.5l-25 -178q-12 -88 -64 -129t-158 -41h-6q-104 0 -145 42t-29 128l7 49h-110l-28 -200q-1 -11 -11 -11h-77q-8 0 -7 11l68 483q2 11 10 11h77q10 0 8 -11l-28 -200h110l6 46q12 89 64 131t158 42h6zM590 340q8 51 -11 68.5 t-80 17.5h-6q-60 0 -84 -19t-31 -67l-25 -178q-7 -49 11.5 -66t79.5 -17h6q60 0 84.5 18.5t30.5 64.5z" />
<glyph unicode="&#x44f;" horiz-adv-x="486" d="M446 505q10 0 8 -11l-68 -483q-1 -11 -10 -11h-78q-8 0 -7 11l23 163h-95l-109 -167q-6 -7 -12 -7h-85q-12 0 -6 11l117 171q-89 26 -73 138l6 40q11 75 53.5 110t125.5 35h210zM206 258h120l23 162h-120q-39 0 -55.5 -13.5t-21.5 -46.5l-6 -40q-5 -37 7.5 -49.5 t52.5 -12.5z" />
<glyph unicode="&#x451;" horiz-adv-x="523" d="M196 577q-9 0 -8 9l14 93q1 9 10 9h68q9 0 8 -9l-14 -93q-1 -9 -10 -9h-68zM352 577q-9 0 -8 9l14 93q1 9 10 9h68q9 0 8 -9l-14 -93q-1 -9 -10 -9h-68zM304 513q110 0 151.5 -41t29.5 -129l-14 -104q-1 -8 -11 -8h-313l-10 -70q-7 -49 13 -66.5t87 -17.5h6q65 0 91 18.5 t31 61.5l1 7q1 9 11 9h74q10 0 9 -9l-1 -7q-12 -84 -64.5 -124.5t-163.5 -40.5h-6q-110 0 -152 41t-30 128l25 182q13 88 66 129t164 41h6zM162 343l-5 -40h229l5 40q8 54 -10.5 69.5t-88.5 15.5h-6q-66 0 -91.5 -18.5t-32.5 -66.5z" />
<glyph unicode="&#x452;" horiz-adv-x="538" d="M348 474q86 0 118 -40t19 -132l-41 -293l-9 -60q-13 -87 -54.5 -122t-132.5 -35h-35q-9 0 -7 9l9 66q1 9 10 9h30q44 0 61.5 17t24.5 66l8 50l39 278q8 62 -5.5 81.5t-65.5 19.5q-69 0 -141 -29l-49 -347q-2 -12 -10 -12h-77q-10 0 -8 12l77 546h-37q-8 0 -7 9l6 44 q1 9 10 9h37l10 71q2 9 10 9h77q9 0 8 -9l-10 -71h152q9 0 8 -9l-6 -44q-1 -9 -11 -9h-152l-17 -123q78 39 161 39z" />
<glyph unicode="&#x453;" horiz-adv-x="372" d="M398 688q6 0 6.5 -3t-4.5 -8l-130 -104q-5 -4 -11 -4h-66q-6 0 -7 3t3 7l113 105q5 4 12 4h84zM388 505q9 0 8 -8l-10 -70q-1 -9 -10 -9h-192l-57 -409q-1 -9 -11 -9h-77q-8 0 -7 9l68 483q2 13 12 13h276z" />
<glyph unicode="&#x454;" horiz-adv-x="509" d="M301 513q108 0 149 -41.5t29 -128.5l-1 -10q-1 -9 -10 -9h-76q-10 0 -9 9l2 10q7 51 -12 67t-84 16h-6q-63 0 -88.5 -18.5t-31.5 -64.5l-7 -52h147q9 0 8 -9l-9 -59q-2 -9 -10 -9h-147l-7 -54q-7 -49 12 -65t84 -16h6q63 0 88 19t31 66l2 10q1 8 10 8h76q9 0 8 -8l-1 -10 q-13 -90 -65 -131t-161 -41h-6q-109 0 -150.5 41t-28.5 127l25 183q12 88 65 129t162 41h6z" />
<glyph unicode="&#x455;" horiz-adv-x="478" d="M200 -8q-103 0 -145.5 36t-33.5 101l4 33q1 8 10 8h76q9 0 8 -8l-5 -33q-4 -26 17.5 -39t80.5 -13h6q58 0 82.5 13t28.5 40l2 14q3 23 -5.5 33.5t-43.5 19.5l-126 36q-60 18 -82 48t-14 80l2 14q19 138 210 138h6q99 0 140 -36t32 -101l-4 -32q-1 -9 -10 -9h-76 q-9 0 -8 9l5 32q4 28 -16 40t-75 12h-6q-54 0 -77 -13t-27 -40l-2 -14q-3 -20 6 -30t46 -21l125 -35q59 -17 80.5 -47t13.5 -84l-2 -14q-19 -138 -217 -138h-6z" />
<glyph unicode="&#x456;" horiz-adv-x="227" d="M121 577q-9 0 -8 10l13 92q2 9 10 9h77q9 0 8 -9l-13 -92q-1 -10 -11 -10h-76zM39 0q-8 0 -7 11l68 483q2 11 10 11h77q10 0 8 -11l-68 -483q-1 -11 -11 -11h-77z" />
<glyph unicode="&#x457;" horiz-adv-x="227" d="M46 577q-9 0 -8 9l14 93q1 9 10 9h68q9 0 8 -9l-14 -93q-1 -9 -10 -9h-68zM202 577q-9 0 -8 9l14 93q1 9 10 9h68q9 0 8 -9l-14 -93q-1 -9 -10 -9h-68zM39 0q-8 0 -7 11l68 483q2 11 10 11h77q10 0 8 -11l-68 -483q-1 -11 -11 -11h-77z" />
<glyph unicode="&#x458;" horiz-adv-x="227" d="M121 577q-9 0 -8 10l13 92q2 9 10 9h77q9 0 8 -9l-13 -92q-1 -10 -11 -10h-76zM-104 -208q-10 0 -8 9l10 66q2 9 10 9h31q43 0 60.5 17t24.5 65l76 538q2 9 10 9h77q9 0 8 -9l-77 -545q-12 -86 -54 -122.5t-133 -36.5h-35z" />
<glyph unicode="&#x459;" horiz-adv-x="773" d="M599 340q156 0 136 -138l-9 -65q-10 -69 -52 -103t-123 -34h-228q-11 0 -9 12l57 403h-151l-36 -196q-19 -100 -40.5 -146t-56 -62.5t-103.5 -16.5h-5q-9 0 -7 11l9 67q1 9 11 9h5q43 0 58 22.5t32 115.5l52 277q1 9 10 9h321q8 0 7 -9l-22 -156h144zM640 202 q4 32 -8 41.5t-51 9.5h-138l-23 -166h137q38 0 53.5 11t20.5 39z" />
<glyph unicode="&#x45a;" horiz-adv-x="785" d="M607 312q155 0 135 -138l-5 -37q-10 -69 -51.5 -103t-122.5 -34h-229q-10 0 -8 12l30 211h-199l-30 -212q-1 -11 -11 -11h-77q-8 0 -7 11l68 483q2 11 10 11h77q10 0 8 -11l-26 -184h199l26 186q2 9 10 9h78q8 0 7 -9l-26 -184h144zM647 174q5 32 -7 41.5t-51 9.5h-138 l-20 -138h138q38 0 53.5 11t19.5 39z" />
<glyph unicode="&#x45b;" horiz-adv-x="538" d="M348 474q86 0 118 -40t19 -132l-41 -293q-2 -9 -11 -9h-77q-8 0 -7 9l39 278q8 62 -5.5 81.5t-65.5 19.5q-69 0 -141 -29l-49 -347q-2 -12 -10 -12h-77q-10 0 -8 12l77 546h-37q-8 0 -7 9l6 44q1 9 10 9h37l10 71q2 9 10 9h77q9 0 8 -9l-10 -71h152q9 0 8 -9l-6 -44 q-1 -9 -11 -9h-152l-17 -123q78 39 161 39z" />
<glyph unicode="&#x45c;" horiz-adv-x="483" d="M233 569q-6 0 -7 3t3 7l113 105q5 4 12 4h84q6 0 6.5 -3t-4.5 -8l-130 -104q-5 -4 -11 -4h-66zM495 505q13 0 4 -11l-196 -240l132 -243q5 -11 -7 -11h-84q-8 0 -10 5l-111 208h-68l-28 -202q-1 -11 -11 -11h-77q-8 0 -7 11l68 483q2 11 10 11h77q10 0 8 -11l-27 -194h66 l160 199q4 6 12 6h89z" />
<glyph unicode="&#x45d;" horiz-adv-x="553" d="M309 573l-101 104q-4 5 -1.5 8t8.5 3h83q5 0 9 -4l84 -105q4 -4 1.5 -7t-7.5 -3h-66q-6 0 -10 4zM514 505q9 0 8 -10l-68 -486q-2 -9 -11 -9h-75q-8 0 -7 9l31 224q12 84 25 147q-38 -62 -80 -114l-202 -260q-5 -6 -11 -6h-85q-8 0 -7 11l68 485q2 9 10 9h75q9 0 7 -9 l-31 -224q-14 -98 -24 -145q28 47 79 112l202 260q4 6 11 6h85z" />
<glyph unicode="&#x45e;" horiz-adv-x="460" d="M273 565q-61 0 -86.5 22t-17.5 68l4 24q1 9 11 9h49q8 0 7 -9l-3 -24q-4 -23 4.5 -29t39.5 -6h4q29 0 40.5 7.5t14.5 26.5l3 25q1 9 10 9h50q8 0 7 -9l-3 -25q-13 -89 -130 -89h-4zM485 505q11 0 6 -10l-342 -689q-3 -7 -12 -7h-80q-12 0 -5 10l96 185l-107 501 q-1 10 9 10h77q8 0 9 -8l43 -213q21 -105 27 -197q31 90 82 197l102 213q4 8 12 8h83z" />
<glyph unicode="&#x45f;" horiz-adv-x="526" d="M487 505q9 0 8 -9l-68 -486q-1 -10 -11 -10h-142l-25 -128q-1 -9 -11 -9h-59q-9 0 -8 9l11 128h-143q-8 0 -7 10l68 486q2 9 10 9h77q9 0 8 -9l-57 -409h204l58 409q2 9 10 9h77z" />
<glyph unicode="&#x462;" horiz-adv-x="642" d="M449 398q96 0 133.5 -40t26.5 -123l-10 -71q-11 -85 -59.5 -124.5t-145.5 -39.5h-261q-10 0 -9 10l69 486h-152q-9 0 -8 9l9 65q1 8 10 8h152l11 75q1 9 11 9h77q9 0 7 -9l-11 -75h188q9 0 8 -8l-9 -65q-2 -9 -10 -9h-188l-14 -98h175zM514 231q7 52 -11 66.5t-87 14.5 h-154l-33 -226h155q67 0 90.5 16t30.5 65z" />
<glyph unicode="&#x463;" horiz-adv-x="531" d="M356 335q156 0 136 -136l-9 -62q-10 -71 -51 -104t-123 -33h-239q-10 0 -8 12l59 420h-89q-10 0 -8 9l8 58q2 9 11 9h89l25 180q1 12 11 12h76q10 0 8 -12l-25 -180h156q9 0 7 -9l-8 -58q-2 -9 -10 -9h-156l-14 -97h154zM397 199q4 31 -7.5 40.5t-51.5 9.5h-148l-23 -162 h148q38 0 53.5 11t19.5 39z" />
<glyph unicode="&#x472;" horiz-adv-x="596" d="M357 653q129 0 175.5 -41.5t34.5 -131.5l-44 -315q-13 -90 -71 -131.5t-188 -41.5h-6q-129 0 -175.5 41.5t-33.5 130.5l44 316q12 90 70 131.5t188 41.5h6zM339 566q-84 0 -114 -18.5t-37 -67.5l-16 -117h284l16 117q8 53 -16 69.5t-111 16.5h-6zM277 79q84 0 114 18.5 t37 67.5l16 118h-283l-17 -119q-8 -52 16 -68.5t111 -16.5h6z" />
<glyph unicode="&#x473;" horiz-adv-x="533" d="M306 513q112 0 154 -42t30 -131l-26 -178q-12 -88 -65 -129t-166 -41h-6q-111 0 -153.5 41.5t-30.5 128.5l25 178q12 90 65.5 131.5t166.5 41.5h6zM288 426q-67 0 -92.5 -19t-32.5 -67l-7 -53h231l8 53q7 51 -13 68.5t-88 17.5h-6zM245 79q67 0 92.5 18.5t31.5 64.5l8 56 h-231l-8 -56q-7 -49 13 -66t88 -17h6z" />
<glyph unicode="&#x474;" horiz-adv-x="547" d="M615 653q9 0 8 -9l-10 -69q-1 -9 -11 -9h-11q-27 0 -41 -10.5t-28 -41.5l-236 -507q-2 -7 -11 -7h-84q-8 0 -9 7l-115 628q-1 10 9 10h78q8 0 9 -7l59 -333q18 -102 24 -202q33 99 79 202l97 209q38 85 74 112t107 27h12z" />
<glyph unicode="&#x475;" horiz-adv-x="479" d="M514 513q9 0 7 -12l-9 -66q-1 -9 -10 -9h-10q-20 0 -31.5 -9.5t-25.5 -37.5l-184 -372q-3 -7 -12 -7h-84q-8 0 -9 7l-105 488q-2 10 9 10h79q8 0 9 -7l42 -212q20 -102 27 -195q31 85 83 195l46 93q39 85 69 109.5t92 24.5h17z" />
<glyph unicode="&#x490;" horiz-adv-x="456" d="M499 750q9 0 7 -10l-24 -173q-1 -9 -10 -9h-263l-77 -548q-1 -10 -11 -10h-76q-9 0 -8 10l88 626q1 9 11 9h272l32 97q3 8 11 8h48z" />
<glyph unicode="&#x491;" horiz-adv-x="372" d="M405 626q9 0 8 -8l-17 -119v-2l-10 -70q-1 -9 -10 -9h-192l-57 -409q-1 -9 -11 -9h-77q-8 0 -7 9l68 483q2 13 12 13h198l37 113q3 8 11 8h47z" />
<glyph unicode="&#x492;" horiz-adv-x="476" d="M504 645q8 0 7 -9l-9 -69q-2 -9 -10 -9h-263l-32 -226h200q9 0 8 -9l-9 -66q-1 -8 -11 -8h-199l-34 -239q-1 -10 -11 -10h-76q-9 0 -8 10l34 239h-83q-8 0 -7 8l9 66q2 9 10 9h82l43 304q1 9 11 9h348z" />
<glyph unicode="&#x493;" horiz-adv-x="382" d="M398 505q9 0 8 -8l-10 -70q-1 -9 -10 -9h-192l-17 -125h136q9 0 8 -9l-9 -63q-2 -9 -10 -9h-137l-28 -203q-1 -9 -11 -9h-77q-8 0 -7 9l29 203h-61q-10 0 -8 9l9 63q1 9 10 9h61l28 199q2 13 12 13h276z" />
<glyph unicode="&#x496;" horiz-adv-x="828" d="M848 635l-217 -310l102 -240h57q10 0 8 -9l-28 -204q-2 -9 -10 -9h-50q-8 0 -9 9l-3 128h-21q-7 0 -10 6l-115 275h-94l-38 -271q-1 -10 -10 -10h-77q-9 0 -8 10l38 271h-83l-191 -275q-6 -6 -12 -6h-90q-13 0 -5 10l222 314l-131 311q-4 10 9 10h79q7 0 10 -6l112 -271 h92l38 268q1 9 11 9h77q8 0 7 -9l-38 -268h85l188 271q5 6 11 6h90q12 0 4 -10z" />
<glyph unicode="&#x497;" horiz-adv-x="698" d="M705 494l-168 -239l72 -170h49q8 0 7 -9l-28 -204q-1 -9 -10 -9h-50q-8 0 -9 9l-3 128h-11q-7 0 -10 6l-87 207h-72l-28 -202q-1 -11 -10 -11h-77q-9 0 -8 11l28 202h-65l-142 -207q-4 -6 -11 -6h-89q-11 0 -4 11l173 244l-102 239q-2 4 0.5 7.5t7.5 3.5h80q8 0 9 -6 l82 -199h74l27 194q2 11 12 11h75q10 0 8 -11l-27 -194h67l136 199q5 6 11 6h88q12 0 5 -11z" />
<glyph unicode="&#x49a;" horiz-adv-x="565" d="M584 635l-245 -311l123 -239h64q10 0 8 -9l-28 -204q-2 -9 -10 -9h-50q-8 0 -9 9l-3 128h-26q-6 0 -10 6l-140 275h-88l-38 -271q-1 -10 -11 -10h-76q-9 0 -8 10l88 626q1 9 11 9h77q8 0 7 -9l-38 -268h86l212 271q5 6 11 6h89q12 0 4 -10z" />
<glyph unicode="&#x49b;" horiz-adv-x="493" d="M499 494l-196 -240l92 -169h58q9 0 8 -9l-29 -204q-2 -9 -10 -9h-49q-9 0 -9 9l-4 128h-16q-8 0 -10 5l-111 208h-68l-28 -202q-1 -11 -11 -11h-77q-8 0 -7 11l68 483q2 11 10 11h77q10 0 8 -11l-27 -194h66l160 199q4 6 12 6h89q13 0 4 -11z" />
<glyph unicode="&#x4a2;" horiz-adv-x="612" d="M579 645q8 0 7 -9l-78 -551h59q9 0 8 -9l-28 -204q-1 -9 -10 -9h-50q-8 0 -9 9l-3 128h-65q-9 0 -8 10l39 271h-271l-38 -271q-1 -10 -11 -10h-76q-9 0 -8 10l88 626q1 9 11 9h77q8 0 7 -9l-38 -268h271l38 268q1 9 10 9h78z" />
<glyph unicode="&#x4a3;" horiz-adv-x="540" d="M495 85q9 0 8 -9l-29 -204q-2 -9 -10 -9h-49q-9 0 -9 9l-3 128h-60q-8 0 -7 11l28 202h-209l-28 -202q-1 -11 -11 -11h-77q-8 0 -7 11l68 483q2 11 10 11h77q10 0 8 -11l-27 -194h209l27 194q2 11 10 11h78q9 0 7 -11l-58 -409h54z" />
<glyph unicode="&#x4ae;" horiz-adv-x="494" d="M541 645q11 0 5 -11l-253 -396l-32 -227q-2 -11 -11 -11h-77q-9 0 -7 11l32 227l-143 396q-3 11 8 11h78q7 0 9 -6l57 -163q30 -87 44 -163q28 62 89 163l103 163q4 6 11 6h87z" />
<glyph unicode="&#x4af;" horiz-adv-x="465" d="M486 505q11 0 6 -10l-250 -504l-25 -182q-1 -9 -10 -9h-75q-10 0 -8 9l26 182l-109 504q-2 10 9 10h78q9 0 10 -7l41 -212q22 -110 28 -195q31 85 83 195l101 212q4 7 12 7h83z" />
<glyph unicode="&#x4b0;" horiz-adv-x="494" d="M541 645q11 0 5 -11l-226 -354h100q8 0 7 -9l-9 -63q-2 -9 -10 -9h-121l-26 -188q-2 -11 -11 -11h-77q-9 0 -7 11l26 188h-121q-9 0 -8 9l8 63q1 9 11 9h101l-128 354q-3 11 8 11h78q7 0 9 -6l57 -163q30 -87 44 -163q28 62 89 163l103 163q4 6 11 6h87z" />
<glyph unicode="&#x4b1;" horiz-adv-x="465" d="M486 505q11 0 6 -10l-246 -495h129q9 0 8 -9l-10 -63q-1 -9 -10 -9h-131l-15 -110q-1 -9 -10 -9h-75q-10 0 -8 9l16 110h-129q-9 0 -8 9l9 63q2 9 10 9h126l-107 495q-2 10 9 10h78q9 0 10 -7l41 -212q22 -110 28 -195q31 85 83 195l101 212q4 7 12 7h83z" />
<glyph unicode="&#x4b2;" horiz-adv-x="534" d="M553 634l-229 -308l112 -241h60q10 0 8 -9l-28 -204q-2 -9 -10 -9h-50q-8 0 -9 9l-3 128h-25q-7 0 -9 6l-105 229l-169 -229q-5 -6 -11 -6h-94q-11 0 -5 11l235 316l-143 307q-5 11 8 11h83q7 0 9 -6l102 -224l166 224q4 6 11 6h92q12 0 4 -11z" />
<glyph unicode="&#x4b3;" horiz-adv-x="466" d="M466 492l-183 -233l88 -174h55q10 0 8 -9l-29 -204q-1 -9 -10 -9h-49q-9 0 -9 9l-4 128h-16q-8 0 -10 6l-85 175l-135 -175q-5 -6 -12 -6h-92q-13 0 -3 12l193 246l-118 234q-6 13 7 13h84q6 0 9 -6l80 -166l124 166q5 6 11 6h94q14 0 2 -13z" />
<glyph unicode="&#x4b6;" horiz-adv-x="559" d="M527 645q8 0 7 -9l-77 -551h56q9 0 8 -9l-28 -204q-1 -9 -10 -9h-50q-8 0 -9 9l-3 128h-62q-9 0 -8 10l33 233q-85 -37 -174 -37q-96 0 -132 43t-23 141l34 246q1 9 11 9h78q8 0 6 -9l-33 -235q-9 -66 7 -87.5t68 -21.5q81 0 170 36l43 308q1 9 11 9h77z" />
<glyph unicode="&#x4b7;" horiz-adv-x="507" d="M462 85q8 0 7 -9l-28 -204q-1 -9 -10 -9h-50q-8 0 -9 9l-3 128h-67q-9 0 -8 11l23 164q-71 -31 -145 -31q-82 0 -111.5 36.5t-17.5 123.5l27 192q2 9 11 9h77q8 0 7 -9l-25 -178q-7 -54 3.5 -71t50.5 -17q64 0 135 30l33 234q2 11 10 11h78q9 0 7 -11l-58 -409h63z" />
<glyph unicode="&#x4ba;" horiz-adv-x="555" d="M361 441q95 0 131.5 -43t23.5 -140l-35 -249q-1 -9 -11 -9h-77q-8 0 -7 9l33 235q9 67 -7 89t-68 22q-78 0 -169 -36l-43 -309q-1 -10 -11 -10h-76q-9 0 -8 10l88 626q1 9 11 9h77q8 0 7 -9l-33 -232q85 37 174 37z" />
<glyph unicode="&#x4bb;" horiz-adv-x="538" d="M353 513q86 0 118 -40t19 -132l-46 -332q-1 -9 -11 -9h-77q-8 0 -7 9l44 318q9 61 -4.5 80t-65.5 19q-71 0 -141 -29l-55 -386q-2 -11 -10 -11h-77q-10 0 -8 11l96 680q2 9 10 9h77q9 0 8 -9l-31 -218q76 40 161 40z" />
<glyph unicode="&#x4c0;" horiz-adv-x="237" d="M45 0q-9 0 -8 10l88 626q1 9 11 9h77q8 0 7 -9l-88 -626q-1 -10 -11 -10h-76z" />
<glyph unicode="&#x4c1;" horiz-adv-x="815" d="M469 705q-61 0 -86.5 22t-17.5 68l4 24q1 9 11 9h49q8 0 7 -9l-3 -24q-4 -23 4.5 -29t39.5 -6h4q29 0 40.5 7.5t14.5 26.5l3 25q1 9 10 9h50q8 0 7 -9l-3 -25q-13 -89 -130 -89h-4zM844 645q12 0 4 -10l-217 -310l134 -315q3 -10 -8 -10h-80q-7 0 -10 6l-115 275h-94 l-38 -271q-1 -10 -10 -10h-77q-9 0 -8 10l38 271h-83l-191 -275q-6 -6 -12 -6h-90q-13 0 -5 10l222 314l-131 311q-4 10 9 10h79q7 0 10 -6l112 -271h92l38 268q1 9 11 9h77q8 0 7 -9l-38 -268h85l188 271q5 6 11 6h90z" />
<glyph unicode="&#x4c2;" horiz-adv-x="688" d="M385 565q-61 0 -86.5 22t-17.5 68l4 24q1 9 11 9h49q8 0 7 -9l-3 -24q-4 -23 4.5 -29t39.5 -6h4q29 0 40.5 7.5t14.5 26.5l3 25q1 9 10 9h50q8 0 7 -9l-3 -25q-13 -89 -130 -89h-4zM700 505q12 0 5 -11l-168 -239l104 -244q5 -11 -7 -11h-80q-7 0 -10 6l-87 207h-72 l-28 -202q-1 -11 -10 -11h-77q-9 0 -8 11l28 202h-65l-142 -207q-4 -6 -11 -6h-89q-11 0 -4 11l173 244l-102 239q-2 4 0.5 7.5t7.5 3.5h80q8 0 9 -6l82 -199h74l27 194q2 11 12 11h75q10 0 8 -11l-27 -194h67l136 199q5 6 11 6h88z" />
<glyph unicode="&#x4cf;" horiz-adv-x="227" d="M39 0q-8 0 -7 11l68 483q2 11 10 11h77q10 0 8 -11l-68 -483q-1 -11 -11 -11h-77z" />
<glyph unicode="&#x4d0;" horiz-adv-x="552" d="M338 705q-61 0 -86.5 22t-17.5 68l4 24q1 9 11 9h49q8 0 7 -9l-3 -24q-4 -23 4.5 -29t39.5 -6h4q29 0 40.5 7.5t14.5 26.5l3 25q1 9 10 9h50q8 0 7 -9l-3 -25q-13 -89 -130 -89h-4zM505 10q1 -10 -9 -10h-76q-9 0 -10 7l-28 141h-237l-68 -141q-3 -7 -11 -7h-81 q-10 0 -6 10l305 628q4 7 12 7h71q9 0 10 -7zM186 234h179l-24 119q-16 77 -25 170q-24 -69 -73 -170z" />
<glyph unicode="&#x4d1;" horiz-adv-x="513" d="M298 565q-61 0 -86.5 22t-17.5 68l4 24q1 9 11 9h49q8 0 7 -9l-3 -24q-4 -23 4.5 -29t39.5 -6h4q29 0 40.5 7.5t14.5 26.5l3 25q1 9 10 9h50q8 0 7 -9l-3 -25q-13 -89 -130 -89h-4zM297 513q101 0 141 -41t28 -125l-48 -338q-1 -9 -11 -9h-45q-7 0 -11 6l-15 30 q-74 -44 -162 -44q-83 0 -121 36.5t-28 106.5l3 17q10 69 54 101.5t134 32.5h146l9 61q6 46 -12 63t-74 17h-6q-57 0 -80.5 -18t-29.5 -61q-1 -13 -11 -13h-75q-6 0 -7.5 2.5t-0.5 10.5q12 84 62.5 124.5t153.5 40.5h6zM120 135q-5 -35 11 -48.5t64 -13.5q73 0 141 31 l16 108h-151q-38 0 -56 -14t-23 -46z" />
<glyph unicode="&#x4d2;" horiz-adv-x="552" d="M229 717q-9 0 -8 9l14 93q1 9 10 9h68q9 0 8 -9l-14 -93q-1 -9 -10 -9h-68zM385 717q-9 0 -8 9l14 93q1 9 10 9h68q9 0 8 -9l-14 -93q-1 -9 -10 -9h-68zM505 10q1 -10 -9 -10h-76q-9 0 -10 7l-28 141h-237l-68 -141q-3 -7 -11 -7h-81q-10 0 -6 10l305 628q4 7 12 7h71 q9 0 10 -7zM186 234h179l-24 119q-16 77 -25 170q-24 -69 -73 -170z" />
<glyph unicode="&#x4d3;" horiz-adv-x="513" d="M189 577q-9 0 -8 9l14 93q1 9 10 9h68q9 0 8 -9l-14 -93q-1 -9 -10 -9h-68zM345 577q-9 0 -8 9l14 93q1 9 10 9h68q9 0 8 -9l-14 -93q-1 -9 -10 -9h-68zM297 513q101 0 141 -41t28 -125l-48 -338q-1 -9 -11 -9h-45q-7 0 -11 6l-15 30q-74 -44 -162 -44q-83 0 -121 36.5 t-28 106.5l3 17q10 69 54 101.5t134 32.5h146l9 61q6 46 -12 63t-74 17h-6q-57 0 -80.5 -18t-29.5 -61q-1 -13 -11 -13h-75q-6 0 -7.5 2.5t-0.5 10.5q12 84 62.5 124.5t153.5 40.5h6zM120 135q-5 -35 11 -48.5t64 -13.5q73 0 141 31l16 108h-151q-38 0 -56 -14t-23 -46z" />
<glyph unicode="&#x4d4;" horiz-adv-x="836" d="M845 645q9 0 7 -9l-9 -69q-1 -9 -11 -9h-289l-26 -188h259q10 0 8 -9l-10 -69q-2 -9 -10 -9h-259l-27 -196h288q10 0 8 -9l-10 -69q-2 -9 -10 -9h-375q-9 0 -7 9l19 138h-218l-91 -141q-5 -6 -11 -6h-87q-11 0 -5 11l406 628q4 6 12 6h448zM228 232h175l45 327h-9z" />
<glyph unicode="&#x4d5;" horiz-adv-x="804" d="M591 513q106 0 146.5 -41.5t28.5 -128.5l-15 -104q-1 -8 -11 -8h-297l-10 -71q-8 -48 11 -65.5t81 -17.5h5q61 0 85.5 18.5t30.5 61.5l1 7q1 9 11 9h74q10 0 9 -9l-1 -7q-12 -84 -63.5 -124.5t-158.5 -40.5h-5q-120 0 -158 54q-81 -54 -179 -54q-85 0 -123 36.5 t-28 106.5l3 17q10 69 54 101.5t132 32.5h142l8 57q7 47 -10.5 65.5t-72.5 18.5h-6q-55 0 -78 -18t-29 -61q-1 -13 -11 -13h-75q-9 0 -8 13q12 84 62.5 124.5t150.5 40.5h5q104 0 137 -53q50 53 157 53h5zM458 343l-5 -40h213l6 40q7 53 -11 69t-82 16h-5q-61 0 -85 -19 t-31 -66zM195 73q72 0 141 33q-3 22 2 54l7 52h-146q-37 0 -54.5 -14t-22.5 -46l-2 -17q-5 -35 11 -48.5t64 -13.5z" />
<glyph unicode="&#x4d6;" horiz-adv-x="501" d="M324 705q-61 0 -86.5 22t-17.5 68l4 24q1 9 11 9h49q8 0 7 -9l-3 -24q-4 -23 4.5 -29t39.5 -6h4q29 0 40.5 7.5t14.5 26.5l3 25q1 9 10 9h50q8 0 7 -9l-3 -25q-13 -89 -130 -89h-4zM510 645q8 0 7 -9l-9 -69q-2 -9 -11 -9h-289l-26 -188h259q9 0 8 -9l-10 -69 q-1 -9 -10 -9h-259l-27 -196h288q9 0 8 -9l-10 -69q-1 -9 -10 -9h-375q-8 0 -7 9l87 627q2 9 11 9h375z" />
<glyph unicode="&#x4d7;" horiz-adv-x="523" d="M305 565q-61 0 -86.5 22t-17.5 68l4 24q1 9 11 9h49q8 0 7 -9l-3 -24q-4 -23 4.5 -29t39.5 -6h4q29 0 40.5 7.5t14.5 26.5l3 25q1 9 10 9h50q8 0 7 -9l-3 -25q-13 -89 -130 -89h-4zM304 513q110 0 151.5 -41t29.5 -129l-14 -104q-1 -8 -11 -8h-313l-10 -70 q-7 -49 13 -66.5t87 -17.5h6q65 0 91 18.5t31 61.5l1 7q1 9 11 9h74q10 0 9 -9l-1 -7q-12 -84 -64.5 -124.5t-163.5 -40.5h-6q-110 0 -152 41t-30 128l25 182q13 88 66 129t164 41h6zM162 343l-5 -40h229l5 40q8 54 -10.5 69.5t-88.5 15.5h-6q-66 0 -91.5 -18.5t-32.5 -66.5 z" />
<glyph unicode="&#x4d8;" horiz-adv-x="585" d="M350 653q128 0 173.5 -41.5t33.5 -130.5l-45 -316q-12 -90 -69.5 -131.5t-185.5 -41.5h-6q-125 0 -171.5 42t-34.5 131l23 164q1 10 11 10h363l20 142q7 50 -17 67.5t-107 17.5h-6q-82 0 -111 -18.5t-37 -68.5l-4 -29q-2 -9 -10 -9h-77q-9 0 -8 9l4 29q13 91 70 132.5 t185 41.5h6zM270 79q83 0 112 18.5t35 67.5l13 88h-277l-13 -88q-8 -53 16 -69.5t108 -16.5h6z" />
<glyph unicode="&#x4d9;" horiz-adv-x="523" d="M298 513q110 0 152 -41t30 -128l-25 -182q-13 -88 -66 -129t-164 -41h-6q-110 0 -151.5 41t-29.5 129l14 104q1 8 11 8h313l10 70q7 49 -13 66.5t-87 17.5h-6q-65 0 -91 -18.5t-31 -61.5l-1 -7q-1 -9 -11 -9h-74q-10 0 -9 9l1 7q12 84 64.5 124.5t163.5 40.5h6zM237 77 q66 0 91.5 18.5t32.5 66.5l5 40h-229l-5 -40q-8 -54 10.5 -69.5t88.5 -15.5h6z" />
<glyph unicode="&#x4da;" horiz-adv-x="585" d="M243 717q-9 0 -8 9l14 93q1 9 10 9h68q9 0 8 -9l-14 -93q-1 -9 -10 -9h-68zM399 717q-9 0 -8 9l14 93q1 9 10 9h68q9 0 8 -9l-14 -93q-1 -9 -10 -9h-68zM350 653q128 0 173.5 -41.5t33.5 -130.5l-45 -316q-12 -90 -69.5 -131.5t-185.5 -41.5h-6q-125 0 -171.5 42 t-34.5 131l23 164q1 10 11 10h363l20 142q7 50 -17 67.5t-107 17.5h-6q-82 0 -111 -18.5t-37 -68.5l-4 -29q-2 -9 -10 -9h-77q-9 0 -8 9l4 29q13 91 70 132.5t185 41.5h6zM270 79q83 0 112 18.5t35 67.5l13 88h-277l-13 -88q-8 -53 16 -69.5t108 -16.5h6z" />
<glyph unicode="&#x4db;" horiz-adv-x="523" d="M192 577q-9 0 -8 9l14 93q1 9 10 9h68q9 0 8 -9l-14 -93q-1 -9 -10 -9h-68zM348 577q-9 0 -8 9l14 93q1 9 10 9h68q9 0 8 -9l-14 -93q-1 -9 -10 -9h-68zM298 513q110 0 152 -41t30 -128l-25 -182q-13 -88 -66 -129t-164 -41h-6q-110 0 -151.5 41t-29.5 129l14 104 q1 8 11 8h313l10 70q7 49 -13 66.5t-87 17.5h-6q-65 0 -91 -18.5t-31 -61.5l-1 -7q-1 -9 -11 -9h-74q-10 0 -9 9l1 7q12 84 64.5 124.5t163.5 40.5h6zM237 77q66 0 91.5 18.5t32.5 66.5l5 40h-229l-5 -40q-8 -54 10.5 -69.5t88.5 -15.5h6z" />
<glyph unicode="&#x4dc;" horiz-adv-x="815" d="M360 717q-9 0 -8 9l14 93q1 9 10 9h68q9 0 8 -9l-14 -93q-1 -9 -10 -9h-68zM516 717q-9 0 -8 9l14 93q1 9 10 9h68q9 0 8 -9l-14 -93q-1 -9 -10 -9h-68zM844 645q12 0 4 -10l-217 -310l134 -315q3 -10 -8 -10h-80q-7 0 -10 6l-115 275h-94l-38 -271q-1 -10 -10 -10h-77 q-9 0 -8 10l38 271h-83l-191 -275q-6 -6 -12 -6h-90q-13 0 -5 10l222 314l-131 311q-4 10 9 10h79q7 0 10 -6l112 -271h92l38 268q1 9 11 9h77q8 0 7 -9l-38 -268h85l188 271q5 6 11 6h90z" />
<glyph unicode="&#x4dd;" horiz-adv-x="688" d="M276 577q-9 0 -8 9l14 93q1 9 10 9h68q9 0 8 -9l-14 -93q-1 -9 -10 -9h-68zM432 577q-9 0 -8 9l14 93q1 9 10 9h68q9 0 8 -9l-14 -93q-1 -9 -10 -9h-68zM700 505q12 0 5 -11l-168 -239l104 -244q5 -11 -7 -11h-80q-7 0 -10 6l-87 207h-72l-28 -202q-1 -11 -10 -11h-77 q-9 0 -8 11l28 202h-65l-142 -207q-4 -6 -11 -6h-89q-11 0 -4 11l173 244l-102 239q-2 4 0.5 7.5t7.5 3.5h80q8 0 9 -6l82 -199h74l27 194q2 11 12 11h75q10 0 8 -11l-27 -194h67l136 199q5 6 11 6h88z" />
<glyph unicode="&#x4de;" horiz-adv-x="529" d="M216 717q-9 0 -8 9l14 93q1 9 10 9h68q9 0 8 -9l-14 -93q-1 -9 -10 -9h-68zM372 717q-9 0 -8 9l14 93q1 9 10 9h68q9 0 8 -9l-14 -93q-1 -9 -10 -9h-68zM323 653q117 0 160 -42t30 -131l-3 -22q-8 -59 -33 -89t-77 -41q53 -11 70.5 -41t9.5 -90l-4 -29 q-13 -92 -68.5 -134t-177.5 -42h-6q-120 0 -165 42t-32 132l3 25q2 9 11 9h77q8 0 7 -9l-3 -25q-8 -52 14.5 -69.5t99.5 -17.5h6q76 0 103.5 19t35.5 70l4 29q8 52 -14.5 69t-99.5 17h-77q-10 0 -8 9l10 69q2 9 10 9h73q74 0 101.5 19t34.5 69l3 22q7 53 -13.5 69.5 t-94.5 16.5h-6q-71 0 -98 -19.5t-34 -69.5l-4 -28q-2 -9 -10 -9h-77q-9 0 -8 9l4 28q13 93 67 134.5t173 41.5h6z" />
<glyph unicode="&#x4df;" horiz-adv-x="482" d="M172 577q-9 0 -8 9l14 93q1 9 10 9h68q9 0 8 -9l-14 -93q-1 -9 -10 -9h-68zM328 577q-9 0 -8 9l14 93q1 9 10 9h68q9 0 8 -9l-14 -93q-1 -9 -10 -9h-68zM281 513q105 0 144.5 -35.5t29.5 -110.5l-1 -7q-7 -50 -29 -74t-67 -32q45 -8 61.5 -31t9.5 -73l-1 -11 q-12 -77 -61.5 -112t-158.5 -35h-6q-109 0 -150 35t-30 111l3 21q1 9 11 9h77q9 0 7 -9l-3 -21q-5 -38 13.5 -50t83.5 -12h6q63 0 85.5 13t27.5 50l1 11q5 37 -13.5 49.5t-81.5 12.5h-62q-9 0 -8 9l9 65q2 9 11 9h61q59 0 81 13.5t28 51.5l1 7q5 38 -12.5 50t-78.5 12h-6 q-59 0 -81 -13.5t-27 -51.5l-3 -18q-2 -9 -10 -9h-77q-9 0 -8 9l3 18q11 78 60 113.5t155 35.5h6z" />
<glyph unicode="&#x4e2;" horiz-adv-x="632" d="M274 718q-10 0 -8 9l7 53q1 9 11 9h215q9 0 7 -9l-7 -53q-1 -9 -10 -9h-215zM607 645q9 0 8 -8l-88 -628q-1 -9 -10 -9h-78q-8 0 -7 9l44 311q19 131 31 186q-44 -73 -128 -186l-239 -314q-4 -6 -12 -6h-82q-5 0 -7.5 2t-1.5 6l88 628q1 9 11 9h77q9 0 7 -9l-44 -312 q-18 -125 -31 -185q44 75 128 185l239 315q5 6 12 6h83z" />
<glyph unicode="&#x4e3;" horiz-adv-x="553" d="M217 578q-9 0 -8 9l7 53q2 9 11 9h215q8 0 7 -9l-7 -53q-2 -9 -10 -9h-215zM514 505q9 0 8 -10l-68 -486q-2 -9 -11 -9h-75q-8 0 -7 9l31 224q12 84 25 147q-38 -62 -80 -114l-202 -260q-5 -6 -11 -6h-85q-8 0 -7 11l68 485q2 9 10 9h75q9 0 7 -9l-31 -224 q-14 -98 -24 -145q28 47 79 112l202 260q4 6 11 6h85z" />
<glyph unicode="&#x4e4;" horiz-adv-x="632" d="M268 717q-9 0 -8 9l14 93q1 9 10 9h68q9 0 8 -9l-14 -93q-1 -9 -10 -9h-68zM424 717q-9 0 -8 9l14 93q1 9 10 9h68q9 0 8 -9l-14 -93q-1 -9 -10 -9h-68zM607 645q9 0 8 -8l-88 -628q-1 -9 -10 -9h-78q-8 0 -7 9l44 311q19 131 31 186q-44 -73 -128 -186l-239 -314 q-4 -6 -12 -6h-82q-5 0 -7.5 2t-1.5 6l88 628q1 9 11 9h77q9 0 7 -9l-44 -312q-18 -125 -31 -185q44 75 128 185l239 315q5 6 12 6h83z" />
<glyph unicode="&#x4e5;" horiz-adv-x="553" d="M211 577q-9 0 -8 9l14 93q1 9 10 9h68q9 0 8 -9l-14 -93q-1 -9 -10 -9h-68zM367 577q-9 0 -8 9l14 93q1 9 10 9h68q9 0 8 -9l-14 -93q-1 -9 -10 -9h-68zM514 505q9 0 8 -10l-68 -486q-2 -9 -11 -9h-75q-8 0 -7 9l31 224q12 84 25 147q-38 -62 -80 -114l-202 -260 q-5 -6 -11 -6h-85q-8 0 -7 11l68 485q2 9 10 9h75q9 0 7 -9l-31 -224q-14 -98 -24 -145q28 47 79 112l202 260q4 6 11 6h85z" />
<glyph unicode="&#x4e6;" horiz-adv-x="596" d="M250 717q-9 0 -8 9l14 93q1 9 10 9h68q9 0 8 -9l-14 -93q-1 -9 -10 -9h-68zM406 717q-9 0 -8 9l14 93q1 9 10 9h68q9 0 8 -9l-14 -93q-1 -9 -10 -9h-68zM49 164l44 316q12 90 70 131.5t188 41.5h6q129 0 175.5 -41.5t34.5 -131.5l-44 -315q-13 -90 -71 -131.5t-188 -41.5 h-6q-129 0 -175.5 41.5t-33.5 130.5zM144 164q-8 -52 16 -68.5t111 -16.5h6q84 0 114 18.5t37 67.5l44 315q8 53 -16 69.5t-111 16.5h-6q-84 0 -114 -18.5t-37 -67.5z" />
<glyph unicode="&#x4e7;" horiz-adv-x="533" d="M199 577q-9 0 -8 9l14 93q1 9 10 9h68q9 0 8 -9l-14 -93q-1 -9 -10 -9h-68zM355 577q-9 0 -8 9l14 93q1 9 10 9h68q9 0 8 -9l-14 -93q-1 -9 -10 -9h-68zM43 162l25 178q12 90 65.5 131.5t166.5 41.5h6q112 0 154 -42t30 -131l-26 -178q-12 -88 -65 -129t-166 -41h-6 q-111 0 -153.5 41.5t-30.5 128.5zM138 162q-7 -49 13 -66t88 -17h6q67 0 92.5 18.5t31.5 64.5l26 178q7 51 -13 68.5t-88 17.5h-6q-67 0 -92.5 -19t-32.5 -67z" />
<glyph unicode="&#x4e8;" horiz-adv-x="596" d="M357 653q129 0 175.5 -41.5t34.5 -131.5l-44 -315q-13 -90 -71 -131.5t-188 -41.5h-6q-129 0 -175.5 41.5t-33.5 130.5l44 316q12 90 70 131.5t188 41.5h6zM339 566q-84 0 -114 -18.5t-37 -67.5l-16 -117h284l16 117q8 53 -16 69.5t-111 16.5h-6zM277 79q84 0 114 18.5 t37 67.5l16 118h-283l-17 -119q-8 -52 16 -68.5t111 -16.5h6z" />
<glyph unicode="&#x4e9;" horiz-adv-x="533" d="M306 513q112 0 154 -42t30 -131l-26 -178q-12 -88 -65 -129t-166 -41h-6q-111 0 -153.5 41.5t-30.5 128.5l25 178q12 90 65.5 131.5t166.5 41.5h6zM288 426q-67 0 -92.5 -19t-32.5 -67l-7 -53h231l8 53q7 51 -13 68.5t-88 17.5h-6zM245 79q67 0 92.5 18.5t31.5 64.5l8 56 h-231l-8 -56q-7 -49 13 -66t88 -17h6z" />
<glyph unicode="&#x4ea;" horiz-adv-x="596" d="M250 717q-9 0 -8 9l14 93q1 9 10 9h68q9 0 8 -9l-14 -93q-1 -9 -10 -9h-68zM406 717q-9 0 -8 9l14 93q1 9 10 9h68q9 0 8 -9l-14 -93q-1 -9 -10 -9h-68zM357 653q129 0 175.5 -41.5t34.5 -131.5l-44 -315q-13 -90 -71 -131.5t-188 -41.5h-6q-129 0 -175.5 41.5 t-33.5 130.5l44 316q12 90 70 131.5t188 41.5h6zM339 566q-84 0 -114 -18.5t-37 -67.5l-16 -117h284l16 117q8 53 -16 69.5t-111 16.5h-6zM277 79q84 0 114 18.5t37 67.5l16 118h-283l-17 -119q-8 -52 16 -68.5t111 -16.5h6z" />
<glyph unicode="&#x4eb;" horiz-adv-x="533" d="M199 577q-9 0 -8 9l14 93q1 9 10 9h68q9 0 8 -9l-14 -93q-1 -9 -10 -9h-68zM355 577q-9 0 -8 9l14 93q1 9 10 9h68q9 0 8 -9l-14 -93q-1 -9 -10 -9h-68zM306 513q112 0 154 -42t30 -131l-26 -178q-12 -88 -65 -129t-166 -41h-6q-111 0 -153.5 41.5t-30.5 128.5l25 178 q12 90 65.5 131.5t166.5 41.5h6zM288 426q-67 0 -92.5 -19t-32.5 -67l-7 -53h231l8 53q7 51 -13 68.5t-88 17.5h-6zM245 79q67 0 92.5 18.5t31.5 64.5l8 56h-231l-8 -56q-7 -49 13 -66t88 -17h6z" />
<glyph unicode="&#x4ec;" horiz-adv-x="576" d="M238 717q-9 0 -8 9l14 93q1 9 10 9h68q9 0 8 -9l-14 -93q-1 -9 -10 -9h-68zM394 717q-9 0 -8 9l14 93q1 9 10 9h68q9 0 8 -9l-14 -93q-1 -9 -10 -9h-68zM345 653q125 0 170 -41.5t32 -130.5l-44 -316q-12 -90 -69 -131.5t-182 -41.5h-6q-123 0 -169.5 42t-33.5 131l5 37 q2 9 10 9h78q8 0 7 -9l-5 -37q-8 -53 15 -69.5t105 -16.5h6q80 0 108.5 18.5t35.5 67.5l16 117h-202q-10 0 -8 9l10 64q2 9 10 9h202l16 117q7 50 -16 67.5t-104 17.5h-6q-80 0 -108.5 -18.5t-35.5 -68.5l-5 -36q-1 -9 -10 -9h-77q-10 0 -8 9l5 36q13 91 69.5 132.5 t182.5 41.5h6z" />
<glyph unicode="&#x4ed;" horiz-adv-x="509" d="M180 577q-9 0 -8 9l14 93q1 9 10 9h68q9 0 8 -9l-14 -93q-1 -9 -10 -9h-68zM336 577q-9 0 -8 9l14 93q1 9 10 9h68q9 0 8 -9l-14 -93q-1 -9 -10 -9h-68zM287 513q109 0 150.5 -41t28.5 -127l-25 -183q-12 -88 -65 -129t-162 -41h-6q-108 0 -149 41.5t-29 128.5l1 10 q1 9 10 9h76q10 0 9 -9l-2 -10q-7 -51 12 -67t84 -16h6q63 0 88.5 18.5t31.5 64.5l7 52h-147q-10 0 -8 9l9 59q1 9 10 9h147l7 54q7 49 -12 65t-84 16h-6q-63 0 -88 -19t-31 -66l-2 -10q-1 -8 -10 -8h-76q-9 0 -8 8l1 10q13 90 65 131t161 41h6z" />
<glyph unicode="&#x4ee;" horiz-adv-x="481" d="M205 718q-9 0 -8 9l7 53q2 9 11 9h215q8 0 7 -9l-7 -53q-2 -9 -10 -9h-215zM536 645q9 0 5 -10l-239 -478q-52 -104 -93 -133.5t-132 -29.5h-56q-9 0 -8 9l10 69q1 8 11 8h60q44 0 63.5 11.5t41.5 50.5l-132 493q-3 10 8 10h74q7 0 9 -7l58 -218q28 -107 37 -191 q33 93 84 192l109 217q4 7 12 7h78z" />
<glyph unicode="&#x4ef;" horiz-adv-x="460" d="M170 578q-10 0 -8 9l7 53q1 9 11 9h215q9 0 7 -9l-7 -53q-1 -9 -10 -9h-215zM485 505q11 0 6 -10l-342 -689q-3 -7 -12 -7h-80q-12 0 -5 10l96 185l-107 501q-1 10 9 10h77q8 0 9 -8l43 -213q21 -105 27 -197q31 90 82 197l102 213q4 8 12 8h83z" />
<glyph unicode="&#x4f0;" horiz-adv-x="481" d="M199 717q-9 0 -8 9l14 93q1 9 10 9h68q9 0 8 -9l-14 -93q-1 -9 -10 -9h-68zM355 717q-9 0 -8 9l14 93q1 9 10 9h68q9 0 8 -9l-14 -93q-1 -9 -10 -9h-68zM536 645q9 0 5 -10l-239 -478q-52 -104 -93 -133.5t-132 -29.5h-56q-9 0 -8 9l10 69q1 8 11 8h60q44 0 63.5 11.5 t41.5 50.5l-132 493q-3 10 8 10h74q7 0 9 -7l58 -218q28 -107 37 -191q33 93 84 192l109 217q4 7 12 7h78z" />
<glyph unicode="&#x4f1;" horiz-adv-x="460" d="M164 577q-9 0 -8 9l14 93q1 9 10 9h68q9 0 8 -9l-14 -93q-1 -9 -10 -9h-68zM320 577q-9 0 -8 9l14 93q1 9 10 9h68q9 0 8 -9l-14 -93q-1 -9 -10 -9h-68zM485 505q11 0 6 -10l-342 -689q-3 -7 -12 -7h-80q-12 0 -5 10l96 185l-107 501q-1 10 9 10h77q8 0 9 -8l43 -213 q21 -105 27 -197q31 90 82 197l102 213q4 8 12 8h83z" />
<glyph unicode="&#x4f2;" horiz-adv-x="481" d="M207 709q-5 0 -6.5 3t1.5 7l66 103q4 6 11 6h66q12 0 5 -11l-79 -103q-5 -5 -12 -5h-52zM346 709q-5 0 -6.5 3t1.5 7l66 103q5 6 11 6h66q13 0 4 -11l-79 -103q-4 -5 -11 -5h-52zM536 645q9 0 5 -10l-239 -478q-52 -104 -93 -133.5t-132 -29.5h-56q-9 0 -8 9l10 69 q1 8 11 8h60q44 0 63.5 11.5t41.5 50.5l-132 493q-3 10 8 10h74q7 0 9 -7l58 -218q28 -107 37 -191q33 93 84 192l109 217q4 7 12 7h78z" />
<glyph unicode="&#x4f3;" horiz-adv-x="460" d="M172 569q-5 0 -6.5 3t1.5 7l66 103q4 6 11 6h66q12 0 5 -11l-79 -103q-5 -5 -12 -5h-52zM311 569q-5 0 -6.5 3t1.5 7l66 103q4 6 11 6h66q13 0 4 -11l-79 -103q-4 -5 -11 -5h-52zM485 505q11 0 6 -10l-342 -689q-3 -7 -12 -7h-80q-12 0 -5 10l96 185l-107 501q-1 10 9 10 h77q8 0 9 -8l43 -213q21 -105 27 -197q31 90 82 197l102 213q4 8 12 8h83z" />
<glyph unicode="&#x4f4;" horiz-adv-x="551" d="M210 717q-9 0 -8 9l14 93q1 9 10 9h68q9 0 8 -9l-14 -93q-1 -9 -10 -9h-68zM366 717q-9 0 -8 9l14 93q1 9 10 9h68q9 0 8 -9l-14 -93q-1 -9 -10 -9h-68zM527 645q8 0 7 -9l-88 -626q-1 -10 -11 -10h-76q-9 0 -8 10l33 233q-85 -37 -174 -37q-96 0 -132 43t-23 141l34 246 q1 9 11 9h78q8 0 6 -9l-33 -235q-9 -66 7 -87.5t68 -21.5q81 0 170 36l43 308q1 9 11 9h77z" />
<glyph unicode="&#x4f5;" horiz-adv-x="489" d="M162 577q-9 0 -8 9l14 93q1 9 10 9h68q9 0 8 -9l-14 -93q-1 -9 -10 -9h-68zM318 577q-9 0 -8 9l14 93q1 9 10 9h68q9 0 8 -9l-14 -93q-1 -9 -10 -9h-68zM450 505q9 0 7 -11l-68 -483q-1 -11 -10 -11h-77q-9 0 -8 11l23 164q-71 -31 -145 -31q-82 0 -111.5 36.5 t-17.5 123.5l27 192q2 9 11 9h77q8 0 7 -9l-25 -178q-7 -54 3.5 -71t50.5 -17q64 0 135 30l33 234q2 11 10 11h78z" />
<glyph unicode="&#x4f8;" horiz-adv-x="755" d="M589 717q-9 0 -8 9l14 93q1 9 10 9h68q9 0 8 -9l-14 -93q-1 -9 -10 -9h-68zM829 828q9 0 8 -9l-14 -93q-1 -9 -10 -9h-68q-9 0 -8 9l14 93q1 9 10 9h68zM342 398q95 0 133 -40.5t27 -122.5l-10 -71q-11 -85 -59.5 -124.5t-146.5 -39.5h-241q-9 0 -8 10l88 626q1 9 11 9 h77q9 0 7 -9l-34 -238h156zM731 645q8 0 7 -9l-88 -626q-1 -10 -11 -10h-76q-9 0 -8 10l88 626q1 9 11 9h77zM407 231q7 52 -11 66.5t-88 14.5h-134l-32 -226h134q68 0 91 16t30 65z" />
<glyph unicode="&#x4f9;" horiz-adv-x="696" d="M515 577q-9 0 -8 9l14 93q1 9 10 9h68q9 0 8 -9l-14 -93q-1 -9 -10 -9h-68zM755 688q9 0 8 -9l-14 -93q-1 -9 -10 -9h-68q-9 0 -8 9l14 93q1 9 10 9h68zM317 340q155 0 135 -138l-9 -65q-10 -69 -51.5 -103t-122.5 -34h-229q-10 0 -8 12l68 484q2 9 10 9h77q9 0 8 -9 l-22 -156h144zM656 505q10 0 8 -11l-68 -483q-1 -11 -11 -11h-77q-8 0 -7 11l68 483q2 11 10 11h77zM357 202q4 32 -7.5 41.5t-51.5 9.5h-137l-24 -166h138q38 0 53.5 11t19.5 39z" />
<glyph unicode="&#x1e80;" horiz-adv-x="842" d="M472 713l-101 104q-4 5 -1.5 8t8.5 3h83q5 0 9 -4l84 -105q4 -4 1.5 -7t-7.5 -3h-66q-6 0 -10 4zM872 645q9 0 5 -10l-263 -628q-3 -7 -11 -7h-78q-8 0 -9 7l-43 316q-14 104 -16 187q-27 -91 -68 -187l-131 -316q-4 -7 -11 -7h-79q-8 0 -9 7l-87 628q-1 10 9 10h79 q8 0 9 -7l42 -316q13 -109 14 -180q24 80 67 181l131 315q3 7 11 7h81q8 0 9 -7l43 -315q13 -109 14 -178q27 86 65 177l131 316q3 7 11 7h84z" />
<glyph unicode="&#x1e81;" horiz-adv-x="739" d="M400 573l-101 104q-4 5 -1.5 8t8.5 3h83q5 0 9 -4l84 -105q4 -4 1.5 -7t-7.5 -3h-66q-6 0 -10 4zM756 505q11 0 6 -10l-211 -487q-4 -8 -11 -8h-94q-8 0 -9 8l-29 189q-15 100 -18 203q-28 -93 -75 -203l-82 -189q-4 -8 -11 -8h-94q-7 0 -8 8l-74 487q-2 10 9 10h78 q7 0 9 -8l29 -210q14 -108 16 -196q33 104 74 196l92 210q3 8 11 8h78q8 0 9 -8l32 -210q16 -106 19 -193q33 106 71 193l88 210q5 8 11 8h84z" />
<glyph unicode="&#x1e82;" horiz-adv-x="842" d="M428 709q-6 0 -7 3t3 7l113 105q5 4 12 4h84q6 0 6.5 -3t-4.5 -8l-130 -104q-5 -4 -11 -4h-66zM872 645q9 0 5 -10l-263 -628q-3 -7 -11 -7h-78q-8 0 -9 7l-43 316q-14 104 -16 187q-27 -91 -68 -187l-131 -316q-4 -7 -11 -7h-79q-8 0 -9 7l-87 628q-1 10 9 10h79 q8 0 9 -7l42 -316q13 -109 14 -180q24 80 67 181l131 315q3 7 11 7h81q8 0 9 -7l43 -315q13 -109 14 -178q27 86 65 177l131 316q3 7 11 7h84z" />
<glyph unicode="&#x1e83;" horiz-adv-x="739" d="M356 569q-6 0 -7 3t3 7l113 105q5 4 12 4h84q6 0 6.5 -3t-4.5 -8l-130 -104q-5 -4 -11 -4h-66zM756 505q11 0 6 -10l-211 -487q-4 -8 -11 -8h-94q-8 0 -9 8l-29 189q-15 100 -18 203q-28 -93 -75 -203l-82 -189q-4 -8 -11 -8h-94q-7 0 -8 8l-74 487q-2 10 9 10h78 q7 0 9 -8l29 -210q14 -108 16 -196q33 104 74 196l92 210q3 8 11 8h78q8 0 9 -8l32 -210q16 -106 19 -193q33 106 71 193l88 210q5 8 11 8h84z" />
<glyph unicode="&#x1e84;" horiz-adv-x="842" d="M374 717q-9 0 -8 9l14 93q1 9 10 9h68q9 0 8 -9l-14 -93q-1 -9 -10 -9h-68zM530 717q-9 0 -8 9l14 93q1 9 10 9h68q9 0 8 -9l-14 -93q-1 -9 -10 -9h-68zM872 645q9 0 5 -10l-263 -628q-3 -7 -11 -7h-78q-8 0 -9 7l-43 316q-14 104 -16 187q-27 -91 -68 -187l-131 -316 q-4 -7 -11 -7h-79q-8 0 -9 7l-87 628q-1 10 9 10h79q8 0 9 -7l42 -316q13 -109 14 -180q24 80 67 181l131 315q3 7 11 7h81q8 0 9 -7l43 -315q13 -109 14 -178q27 86 65 177l131 316q3 7 11 7h84z" />
<glyph unicode="&#x1e85;" horiz-adv-x="739" d="M302 577q-9 0 -8 9l14 93q1 9 10 9h68q9 0 8 -9l-14 -93q-1 -9 -10 -9h-68zM458 577q-9 0 -8 9l14 93q1 9 10 9h68q9 0 8 -9l-14 -93q-1 -9 -10 -9h-68zM756 505q11 0 6 -10l-211 -487q-4 -8 -11 -8h-94q-8 0 -9 8l-29 189q-15 100 -18 203q-28 -93 -75 -203l-82 -189 q-4 -8 -11 -8h-94q-7 0 -8 8l-74 487q-2 10 9 10h78q7 0 9 -8l29 -210q14 -108 16 -196q33 104 74 196l92 210q3 8 11 8h78q8 0 9 -8l32 -210q16 -106 19 -193q33 106 71 193l88 210q5 8 11 8h84z" />
<glyph unicode="&#x1ef2;" horiz-adv-x="494" d="M298 713l-101 104q-4 5 -1.5 8t8.5 3h83q5 0 9 -4l84 -105q4 -4 1.5 -7t-7.5 -3h-66q-6 0 -10 4zM541 645q11 0 5 -11l-253 -396l-32 -227q-2 -11 -11 -11h-77q-9 0 -7 11l32 227l-143 396q-3 11 8 11h78q7 0 9 -6l57 -163q30 -87 44 -163q28 62 89 163l103 163q4 6 11 6 h87z" />
<glyph unicode="&#x1ef3;" d="M296 573l-101 104q-4 5 -1.5 8t8.5 3h83q5 0 9 -4l84 -105q4 -4 1.5 -7t-7.5 -3h-66q-6 0 -10 4zM496 505q8 0 7 -9l-75 -534q-13 -90 -65.5 -130t-165.5 -40h-151q-8 0 -7 9l9 68q2 9 10 9h145q69 0 96.5 18.5t33.5 63.5l10 70q-79 -38 -161 -38q-84 0 -115.5 40 t-18.5 132l47 332q1 9 10 9h77q10 0 8 -9l-45 -318q-8 -61 4 -80t63 -19q74 0 142 29l54 386q1 11 14 11h74z" />
<glyph unicode="&#x2000;" horiz-adv-x="441" />
<glyph unicode="&#x2001;" horiz-adv-x="883" />
<glyph unicode="&#x2002;" horiz-adv-x="441" />
<glyph unicode="&#x2003;" horiz-adv-x="883" />
<glyph unicode="&#x2004;" horiz-adv-x="294" />
<glyph unicode="&#x2005;" horiz-adv-x="220" />
<glyph unicode="&#x2006;" horiz-adv-x="147" />
<glyph unicode="&#x2007;" horiz-adv-x="147" />
<glyph unicode="&#x2008;" horiz-adv-x="110" />
<glyph unicode="&#x2009;" horiz-adv-x="176" />
<glyph unicode="&#x200a;" horiz-adv-x="49" />
<glyph unicode="&#x2010;" horiz-adv-x="325" d="M30 242q-8 0 -8 9l10 69q2 9 10 9h263q9 0 7 -9l-10 -69q0 -9 -10 -9h-262z" />
<glyph unicode="&#x2011;" horiz-adv-x="325" d="M30 242q-8 0 -8 9l10 69q2 9 10 9h263q9 0 7 -9l-10 -69q0 -9 -10 -9h-262z" />
<glyph unicode="&#x2012;" horiz-adv-x="325" d="M30 242q-8 0 -8 9l10 69q2 9 10 9h263q9 0 7 -9l-10 -69q0 -9 -10 -9h-262z" />
<glyph unicode="&#x2013;" horiz-adv-x="445" d="M30 242q-8 0 -8 9l10 69q2 9 10 9h383q9 0 7 -9l-10 -69q0 -9 -10 -9h-382z" />
<glyph unicode="&#x2014;" horiz-adv-x="805" d="M30 242q-8 0 -8 9l10 69q2 9 10 9h743q9 0 7 -9l-10 -69q0 -9 -10 -9h-742z" />
<glyph unicode="&#x2018;" horiz-adv-x="165" d="M104 675h31q8 0 8 -8l24 -132q2 -9 1 -13l-14 -93q-2 -9 -9 -9h-77q-10 0 -8 9l34 237q2 9 10 9z" />
<glyph unicode="&#x2019;" horiz-adv-x="165" d="M145 421h-31q-9 0 -9 7l-24 132q-1 7 0 13l13 93q2 9 10 9h77q9 0 7 -9l-34 -236q0 -9 -9 -9z" />
<glyph unicode="&#x201a;" horiz-adv-x="165" d="M-12 -147q-8 0 -7 9l33 237q2 9 10 9h77q9 0 7 -9l-13 -94q-1 -7 -4 -12l-61 -133q-3 -7 -11 -7h-31z" />
<glyph unicode="&#x201c;" horiz-adv-x="318" d="M104 675h31q8 0 8 -8l24 -132q2 -9 1 -13l-14 -93q-2 -9 -9 -9h-77q-10 0 -8 9l34 237q2 9 10 9zM257 675h31q8 0 8 -8l24 -132q2 -9 1 -13l-14 -93q-1 -9 -9 -9h-77q-9 0 -8 9l34 237q1 9 10 9z" />
<glyph unicode="&#x201d;" horiz-adv-x="318" d="M145 421h-31q-9 0 -9 7l-24 132q-1 7 0 13l13 93q2 9 10 9h77q9 0 7 -9l-34 -236q0 -9 -9 -9zM298 421h-31q-9 0 -9 7l-24 132q-1 7 0 13l13 93q1 9 10 9h77q8 0 7 -9l-34 -236q0 -9 -9 -9z" />
<glyph unicode="&#x201e;" horiz-adv-x="318" d="M-12 -147q-8 0 -7 9l33 237q2 9 10 9h77q9 0 7 -9l-13 -94q-1 -7 -4 -12l-61 -133q-3 -7 -11 -7h-31zM141 -147q-9 0 -7 9l33 237q1 9 10 9h77q8 0 7 -9l-13 -94q-1 -7 -4 -12l-61 -133q-3 -7 -11 -7h-31z" />
<glyph unicode="&#x2020;" horiz-adv-x="444" d="M426 438q8 0 7 -9l-9 -66q-2 -8 -10 -8h-131l-48 -345q-2 -10 -10 -10h-77q-9 0 -7 10l48 345h-131q-7 0 -7 8l9 66q2 9 11 9h129l28 198q2 9 11 9h77q8 0 7 -9l-28 -198h131z" />
<glyph unicode="&#x2021;" horiz-adv-x="444" d="M431 478q9 0 8 -9l-10 -66q-2 -8 -9 -8h-131l-19 -139h118q10 0 8 -9l-9 -66q-2 -8 -10 -8h-119l-23 -163q-2 -10 -10 -10h-77q-9 0 -7 10l23 163h-120q-9 0 -7 8l9 66q2 9 10 9h119l20 139h-131q-9 0 -7 8l9 66q2 9 10 9h130l22 158q2 9 11 9h77q8 0 7 -9l-22 -158h130z " />
<glyph unicode="&#x2022;" horiz-adv-x="316" d="M96 222q-9 0 -9 9v173q0 9 9 9h143q9 0 9 -9v-173q0 -9 -9 -9h-143z" />
<glyph unicode="&#x2026;" horiz-adv-x="528" d="M9 0q-9 0 -8 9l13 90q2 9 10 9h80q8 0 7 -9l-12 -90q-1 -9 -10 -9h-80zM189 0q-9 0 -8 9l13 90q2 9 10 9h80q8 0 7 -9l-12 -90q-1 -9 -10 -9h-80zM369 0q-9 0 -8 9l13 90q2 9 10 9h80q8 0 7 -9l-12 -90q-1 -9 -10 -9h-80z" />
<glyph unicode="&#x202f;" horiz-adv-x="176" />
<glyph unicode="&#x2030;" horiz-adv-x="1215" d="M187 297q-79 0 -107 33.5t-17 114.5l8 59q11 82 48.5 115.5t117.5 33.5h25q80 0 108.5 -34t17.5 -115l-9 -59q-11 -81 -49 -114.5t-118 -33.5h-25zM183 0q-12 0 -5 11l415 628q5 6 12 6h68q11 0 5 -11l-415 -628q-6 -6 -12 -6h-68zM197 373h25q37 0 53 14.5t22 57.5l8 59 q6 47 -5 60t-49 13h-25q-36 0 -51.5 -14.5t-21.5 -58.5l-8 -59q-6 -47 4.5 -59.5t47.5 -12.5zM591 -8q-79 0 -107 34t-17 114l8 59q11 82 48.5 115.5t117.5 33.5h25q80 0 108.5 -34t17.5 -115l-8 -59q-11 -81 -49 -114.5t-119 -33.5h-25zM971 -8q-79 0 -107 33.5t-17 114.5 l8 59q11 82 48.5 115.5t117.5 33.5h24q80 0 109 -34t18 -115l-9 -59q-11 -81 -49 -114.5t-119 -33.5h-24zM601 68h25q37 0 53 14.5t22 57.5l8 59q7 47 -4.5 60t-49.5 13h-25q-36 0 -51 -14.5t-22 -58.5l-8 -59q-6 -47 4.5 -59.5t47.5 -12.5zM981 68h25q37 0 53 14.5t22 57.5 l8 59q6 47 -5 60t-49 13h-25q-37 0 -52 -14.5t-21 -58.5l-8 -59q-7 -47 3.5 -59.5t48.5 -12.5z" />
<glyph unicode="&#x2039;" horiz-adv-x="293" d="M274 424q4 -6 -2 -12l-156 -170l105 -162q5 -6 -3 -12l-43 -37q-7 -8 -12 0l-142 212q-5 6 2 13l202 212q7 7 12 0z" />
<glyph unicode="&#x203a;" horiz-adv-x="294" d="M271 255q5 -6 -2 -13l-202 -212q-7 -7 -12 0l-37 44q-4 6 2 12l156 170l-105 162q-5 6 3 12l43 37q7 7 12 0z" />
<glyph unicode="&#x2044;" horiz-adv-x="552" d="M27 0q-13 0 -5 10l451 628q4 7 11 7h62q11 0 3 -11l-449 -627q-6 -7 -12 -7h-61z" />
<glyph unicode="&#x205f;" horiz-adv-x="220" />
<glyph unicode="&#x20ac;" horiz-adv-x="589" d="M372 653q116 0 161 -42t33 -131l-5 -37q-1 -9 -11 -9h-77q-9 0 -7 9l5 37q7 53 -14.5 69.5t-97.5 16.5h-6q-74 0 -101.5 -18.5t-33.5 -67.5l-7 -52h172q9 0 8 -9l-8 -55q-1 -9 -11 -9h-172l-9 -64h173q8 0 7 -9l-7 -56q-2 -9 -11 -9h-172l-8 -53q-7 -50 15 -67.5 t97 -17.5h6q74 0 101 18.5t35 68.5l5 36q2 9 10 9h77q9 0 8 -9l-5 -36q-13 -91 -68.5 -132.5t-174.5 -41.5h-6q-120 0 -163.5 41.5t-31.5 130.5l8 53h-47q-9 0 -7 9l7 56q1 9 11 9h46l9 64h-47q-8 0 -7 9l8 55q1 9 10 9h47l7 52q12 90 67.5 131.5t175.5 41.5h6z" />
<glyph unicode="&#x20bd;" d="M384 645q93 0 131 -42t26 -127l-6 -44q-12 -86 -61.5 -127t-143.5 -41h-155l-12 -86h187q8 0 7 -9l-8 -61q-1 -9 -10 -9h-187l-13 -89q-1 -10 -11 -10h-76q-9 0 -8 10l13 89h-54q-9 0 -8 9l8 61q1 9 11 9h54l12 86h-54q-10 0 -8 9l10 68q1 8 9 8h55l40 287q1 9 11 9h241z M446 476q7 53 -10.5 67.5t-87.5 14.5h-132l-29 -209h131q68 0 91.5 17t30.5 66z" />
<glyph unicode="&#x2116;" horiz-adv-x="1155" d="M943 653q113 0 154.5 -41.5t29.5 -128.5l-18 -123q-12 -87 -65.5 -128.5t-165.5 -41.5h-6q-113 0 -154.5 41.5t-29.5 128.5l17 123q12 87 65.5 128.5t166.5 41.5h6zM607 645q10 0 8 -8l-89 -627q-1 -10 -10 -10h-83q-6 0 -10 6l-151 314q-53 114 -75 186q-7 -90 -21 -183 l-44 -314q-1 -9 -11 -9h-77q-8 0 -7 9l87 626q1 10 11 10h84q7 0 9 -6l151 -315q53 -112 75 -184q2 31 22 184l44 312q2 9 10 9h77zM1032 483q7 49 -13.5 66t-88.5 17h-6q-67 0 -92 -18.5t-32 -64.5l-17 -123q-7 -49 13 -66t88 -17h6q67 0 92.5 18.5t31.5 64.5zM1057 86 q9 0 8 -9l-9 -69q-1 -8 -11 -8h-395q-8 0 -7 8l9 69q1 9 10 9h395z" />
<glyph unicode="&#x2122;" horiz-adv-x="835" d="M377 645q9 0 7 -9l-8 -61q-2 -9 -10 -9h-101l-36 -257q-1 -9 -10 -9h-68q-9 0 -8 9l36 257h-100q-9 0 -8 9l8 61q1 9 11 9h287zM831 645q9 0 7 -9l-45 -327q-1 -9 -11 -9h-64q-8 0 -7 9l28 201l-94 -130q-2 -6 -11 -6h-61q-8 0 -10 6l-56 129l-29 -200q-2 -9 -10 -9h-65 q-9 0 -7 9l45 327q1 9 11 9h69q6 0 9 -6l85 -181l137 181q4 6 11 6h68z" />
<glyph unicode="&#x212e;" horiz-adv-x="925" d="M474 22q138 0 228 105h62q-51 -62 -127 -98.5t-163 -36.5q-150 0 -255.5 97t-105.5 234t105.5 233.5t255.5 96.5q149 0 254.5 -96.5t105.5 -233.5q0 -11 -1 -16h-585v-184q90 -101 226 -101zM248 338h451v184q-91 101 -225 101q-136 0 -226 -101v-184z" />
<glyph unicode="&#x2190;" horiz-adv-x="745" d="M692 385q9 0 9 -9v-72q0 -9 -9 -9h-493l148 -151q7 -6 0 -13l-39 -40q-6 -7 -13 0l-233 243q-6 6 0 13l233 243q7 7 13 0l39 -40q7 -6 0 -13l-148 -152h493z" />
<glyph unicode="&#x2191;" horiz-adv-x="745" d="M634 406q7 -7 0 -13l-40 -39q-6 -6 -13 0l-152 148v-493q0 -9 -9 -9h-72q-9 0 -9 9v493l-151 -148q-6 -6 -13 0l-40 39q-7 6 0 13l243 233q6 7 13 0z" />
<glyph unicode="&#x2192;" horiz-adv-x="745" d="M694 318q6 -6 0 -13l-233 -243q-7 -7 -13 0l-39 40q-7 6 0 13l148 152h-493q-9 0 -9 9v72q0 9 9 9h493l-148 151q-7 6 0 13l39 40q6 7 13 0z" />
<glyph unicode="&#x2193;" horiz-adv-x="745" d="M621 252q7 -6 0 -13l-243 -233q-6 -6 -13 0l-243 233q-7 7 0 13l40 39q6 7 13 0l152 -148v493q0 9 9 9h72q9 0 9 -9v-493l151 148q6 7 13 0z" />
<glyph unicode="&#x2194;" horiz-adv-x="745" d="M695 328q6 -6 0 -12l-212 -223q-6 -6 -12 0l-31 32q-6 6 -1 11l140 148h-402l140 -148q5 -5 -1 -11l-30 -32q-6 -6 -12 0l-213 223q-6 6 0 12l213 225q5 7 12 0l30 -32q6 -6 0 -12l-137 -146h398l-137 146q-6 6 0 12l31 32q6 6 12 0z" />
<glyph unicode="&#x2195;" horiz-adv-x="745" d="M575 255l32 -31q6 -6 0 -12l-225 -212q-6 -6 -12 0l-223 212q-6 6 0 12l32 31q6 6 11 1l148 -140v402l-148 -140q-5 -5 -11 1l-32 30q-6 6 0 12l223 213q6 6 12 0l225 -213q7 -5 0 -12l-32 -30q-6 -6 -12 0l-146 137v-398l146 137q6 6 12 0z" />
<glyph unicode="&#x2196;" horiz-adv-x="745" d="M620 150q6 -7 0 -13l-51 -51q-6 -6 -13 0l-348 348l-2 -211q0 -9 -10 -9l-55 -1q-10 0 -10 10l7 336q0 9 10 9l336 7q11 0 9 -9v-56q0 -9 -9 -9l-212 -3z" />
<glyph unicode="&#x2197;" horiz-adv-x="745" d="M604 532l7 -336q0 -4 -2.5 -7t-6.5 -2h-56q-9 0 -9 9l-3 212l-348 -348q-7 -6 -13 0l-51 51q-6 6 0 13l348 348l-211 2q-9 0 -9 10l-1 55q0 10 10 10l336 -7q9 0 9 -10z" />
<glyph unicode="&#x2198;" horiz-adv-x="745" d="M615 437q10 0 10 -10l-7 -336q0 -9 -10 -9l-336 -7q-11 0 -9 9v56q0 9 9 9l212 3l-348 348q-6 7 0 13l51 51q6 6 13 0l348 -348l2 211q0 9 10 9z" />
<glyph unicode="&#x2199;" horiz-adv-x="745" d="M632 524q6 -6 0 -13l-348 -348l211 -2q9 0 9 -10l1 -55q0 -10 -10 -10l-336 7q-9 0 -9 10l-7 336q0 5 2.5 7.5t6.5 1.5h56q9 0 9 -9l3 -212l348 348q7 6 13 0z" />
<glyph unicode="&#x2202;" horiz-adv-x="501" d="M308 653q110 0 151.5 -42t28.5 -131l-44 -315q-13 -89 -66 -131t-160 -42h-17q-108 0 -149.5 41.5t-29.5 126.5l9 66q12 85 63.5 126.5t152.5 41.5h17q48 0 74 -12t35 -44l20 142q7 52 -12.5 69t-84.5 17h-149q-8 0 -8 9l11 69q0 9 10 9h148zM230 79q62 0 87 19t32 67 l9 67q4 42 -17 58.5t-79 16.5h-17q-62 0 -87 -18t-32 -63l-9 -66q-7 -49 12.5 -65t83.5 -16h17z" />
<glyph unicode="&#x2205;" horiz-adv-x="550" d="M549 602q12 0 5 -10l-86 -121q42 -41 30 -131l-26 -178q-12 -88 -65 -129t-166 -41h-6q-55 0 -96 11l-66 -94q-5 -7 -12 -7h-61q-12 0 -5 11l86 121q-42 42 -30 128l25 178q12 90 65.5 131.5t166.5 41.5h6q57 0 96 -11l66 93q6 7 12 7h61zM146 162q-3 -25 -1 -37l209 298 q-20 3 -52 3h-6q-67 0 -92.5 -19t-32.5 -67zM403 340q3 27 1 39l-209 -297q21 -3 52 -3h6q67 0 92.5 18.5t31.5 64.5z" />
<glyph unicode="&#x220f;" horiz-adv-x="512" d="M533 645q9 0 7 -9l-8 -60q-2 -9 -10 -9h-79l-78 -558q-1 -9 -11 -9h-72q-10 0 -8 9l79 558h-104l-79 -558q-2 -9 -10 -9h-73q-9 0 -7 9l78 558h-79q-10 0 -8 9l8 60q1 9 11 9h443z" />
<glyph unicode="&#x2211;" horiz-adv-x="394" d="M413 645q9 0 7 -9l-9 -60q0 -9 -10 -9h-232l110 -237q4 -7 -2 -14l-176 -237h232q9 0 7 -9l-8 -61q-2 -9 -10 -9h-320q-10 0 -8 9l9 64q0 6 4 11l178 240l-111 238q-2 8 -1 11l9 63q2 9 11 9h320z" />
<glyph unicode="&#x2212;" horiz-adv-x="500" d="M46 209q-8 0 -7 8l9 69q1 9 10 9h395q9 0 8 -9l-9 -69q-1 -8 -11 -8h-395z" />
<glyph unicode="&#x221a;" horiz-adv-x="434" d="M454 645q9 0 6 -10l-214 -625q-2 -10 -11 -10h-79q-8 0 -9 6l-70 186h-71q-8 0 -8 9l9 60q0 9 10 9h117q8 0 9 -6l54 -141l175 512q2 10 12 10h70z" />
<glyph unicode="&#x221e;" horiz-adv-x="952" d="M728 494q112 0 154 -42.5t28 -135.5l-18 -129q-14 -93 -67.5 -135t-164.5 -42h-11q-75 0 -109.5 28.5t-73.5 120.5l-2 5l-4 -5q-64 -92 -107 -120.5t-119 -28.5h-11q-111 0 -153 42.5t-29 134.5l18 128q14 94 67.5 136.5t165.5 42.5h10q76 0 110 -28.5t74 -121.5l2 -5 l4 5q64 92 107 121t119 29h10zM379 186l47 66l-28 65q-26 60 -43.5 75t-64.5 15h-11q-66 0 -91.5 -20t-33.5 -72l-18 -128q-7 -52 13 -71t87 -19h11q47 0 69 15t63 74zM815 316q8 52 -12 71.5t-87 19.5h-11q-47 0 -69 -15t-64 -75l-46 -65l28 -66q25 -59 43 -74t65 -15h11 q66 0 91.5 19.5t32.5 70.5z" />
<glyph unicode="&#x222b;" horiz-adv-x="284" d="M-11 0q-9 0 -8 9l9 60q0 9 10 9h20q52 0 70 37.5t18 143.5l-1 126q0 140 48.5 200t139.5 60h20q9 0 7 -9l-8 -60q0 -9 -10 -9h-20q-45 0 -62.5 -38.5t-17.5 -143.5l1 -126q1 -141 -47.5 -200t-148.5 -59h-20z" />
<glyph unicode="&#x2248;" horiz-adv-x="500" d="M350 270q-39 0 -97.5 38t-96.5 38q-41 0 -93 -31q-5 -3 -8 -1.5t-2 6.5l9 64q0 6 7 11q62 34 107 34q39 0 98 -38t97 -38q42 0 93 31q4 3 7.5 1t2.5 -7l-9 -64q-2 -7 -12 -13q-62 -31 -103 -31zM324 77q-39 0 -97.5 38t-96.5 38q-41 0 -93 -31q-5 -3 -8 -1.5t-2 6.5l9 64 q0 6 7 11q62 34 107 34q39 0 98 -38t97 -38q42 0 93 31q4 3 7.5 1t2.5 -7l-9 -64q-2 -7 -12 -13q-62 -31 -103 -31z" />
<glyph unicode="&#x2260;" horiz-adv-x="500" d="M479 505q12 0 3 -12l-73 -94h59q10 0 8 -9l-10 -69q-2 -9 -10 -9h-115l-87 -112h186q10 0 8 -9l-10 -69q0 -8 -10 -8h-241l-84 -108q-5 -6 -11 -6h-71q-14 0 -3 12l79 102h-64q-8 0 -8 8l10 69q1 9 10 9h119l87 112h-190q-9 0 -8 9l10 69q1 9 10 9h246l78 100q6 6 11 6 h71z" />
<glyph unicode="&#x2264;" horiz-adv-x="500" d="M453 538q5 2 8.5 0.5t2.5 -6.5l-10 -71q-1 -7 -8 -10l-259 -96l240 -97q8 -3 6 -11l-10 -71q-2 -10 -12 -7l-339 139q-6 2 -6 10l10 71q1 7 9 10zM424 87q10 0 8 -9l-10 -69q-2 -9 -10 -9h-395q-9 0 -7 9l9 69q2 9 10 9h395z" />
<glyph unicode="&#x2265;" horiz-adv-x="500" d="M456 399q7 -3 6 -10l-10 -71q-1 -7 -8 -10l-379 -139q-5 -1 -8 0.5t-2 6.5l11 74q2 8 9 10l264 96l-229 95q-6 3 -5 10l10 71q2 11 12 6zM424 87q10 0 8 -9l-10 -69q-2 -9 -10 -9h-395q-9 0 -7 9l9 69q1 9 10 9h395z" />
<glyph unicode="&#x25ca;" horiz-adv-x="511" d="M497 329q3 -5 -2 -11l-227 -312q-4 -6 -11 -6h-75q-8 0 -9 6l-139 310q-4 8 2 14l226 309q4 6 11 6h75q7 0 9 -6zM228 87l176 241l-103 230l-175 -240z" />
<glyph unicode="&#x25fc;" horiz-adv-x="505" d="M0 505h505v-505h-505v505z" />
<glyph unicode="&#xf8ff;" horiz-adv-x="895" d="M135 636q0 9 8 9h629q9 0 9 -9v-627q0 -9 -9 -9h-629q-8 0 -8 9v627zM321 170q-1 -9 7 -9h30q10 0 11 9l18 132h135l-18 -132q-2 -9 8 -9h29q9 0 11 9l43 305q1 9 -8 9h-30q-9 0 -10 -9l-18 -130h-135l18 130q2 9 -8 9h-30q-8 0 -10 -9z" />
<glyph horiz-adv-x="227" d="M124 577q-9 0 -8 9l14 93q1 9 10 9h68q9 0 8 -9l-14 -93q-1 -9 -10 -9h-68zM39 0q-8 0 -7 11l68 483q2 11 10 11h77q10 0 8 -11l-68 -483q-1 -11 -11 -11h-77z" />
<glyph horiz-adv-x="517" d="M298 513q104 0 144 -41t28 -125l-47 -338q-1 -9 -11 -9h-46q-8 0 -10 6l-15 30q-74 -44 -164 -44q-86 0 -124 36.5t-28 106.5l3 17q10 69 54 101.5t134 32.5h151l9 61q6 46 -12.5 63t-76.5 17h-6q-58 0 -82 -18t-30 -61q-1 -13 -11 -13h-75q-6 0 -7.5 2.5t-0.5 10.5 q12 84 63 124.5t154 40.5h6zM120 135q-5 -35 11.5 -48.5t65.5 -13.5q76 0 145 31l15 108h-156q-38 0 -56 -14t-23 -46z" />
<glyph horiz-adv-x="517" d="M247 569q-6 0 -7 3t3 7l113 105q5 4 12 4h84q6 0 6.5 -3t-4.5 -8l-130 -104q-5 -4 -11 -4h-66zM298 513q104 0 144 -41t28 -125l-47 -338q-1 -9 -11 -9h-46q-8 0 -10 6l-15 30q-74 -44 -164 -44q-86 0 -124 36.5t-28 106.5l3 17q10 69 54 101.5t134 32.5h151l9 61 q6 46 -12.5 63t-76.5 17h-6q-58 0 -82 -18t-30 -61q-1 -13 -11 -13h-75q-6 0 -7.5 2.5t-0.5 10.5q12 84 63 124.5t154 40.5h6zM120 135q-5 -35 11.5 -48.5t65.5 -13.5q76 0 145 31l15 108h-156q-38 0 -56 -14t-23 -46z" />
<glyph horiz-adv-x="517" d="M302 565q-61 0 -86.5 22t-17.5 68l4 24q1 9 11 9h49q8 0 7 -9l-3 -24q-4 -23 4.5 -29t39.5 -6h4q29 0 40.5 7.5t14.5 26.5l3 25q1 9 10 9h50q8 0 7 -9l-3 -25q-13 -89 -130 -89h-4zM298 513q104 0 144 -41t28 -125l-47 -338q-1 -9 -11 -9h-46q-8 0 -10 6l-15 30 q-74 -44 -164 -44q-86 0 -124 36.5t-28 106.5l3 17q10 69 54 101.5t134 32.5h151l9 61q6 46 -12.5 63t-76.5 17h-6q-58 0 -82 -18t-30 -61q-1 -13 -11 -13h-75q-6 0 -7.5 2.5t-0.5 10.5q12 84 63 124.5t154 40.5h6zM120 135q-5 -35 11.5 -48.5t65.5 -13.5q76 0 145 31 l15 108h-156q-38 0 -56 -14t-23 -46z" />
<glyph horiz-adv-x="517" d="M265 573l-86 104q-7 11 7 11h65q7 0 10 -6l48 -69l67 69q5 6 12 6h70q14 0 3 -11l-115 -104q-4 -4 -11 -4h-60q-7 0 -10 4zM298 513q104 0 144 -41t28 -125l-47 -338q-1 -9 -11 -9h-46q-8 0 -10 6l-15 30q-74 -44 -164 -44q-86 0 -124 36.5t-28 106.5l3 17 q10 69 54 101.5t134 32.5h151l9 61q6 46 -12.5 63t-76.5 17h-6q-58 0 -82 -18t-30 -61q-1 -13 -11 -13h-75q-6 0 -7.5 2.5t-0.5 10.5q12 84 63 124.5t154 40.5h6zM120 135q-5 -35 11.5 -48.5t65.5 -13.5q76 0 145 31l15 108h-156q-38 0 -56 -14t-23 -46z" />
<glyph horiz-adv-x="517" d="M169 569q-6 0 -7 3t4 7l114 105q7 4 12 4h60q6 0 10 -4l85 -105q4 -4 2 -7t-8 -3h-65q-6 0 -10 6l-47 67l-67 -67q-6 -6 -13 -6h-70zM298 513q104 0 144 -41t28 -125l-47 -338q-1 -9 -11 -9h-46q-8 0 -10 6l-15 30q-74 -44 -164 -44q-86 0 -124 36.5t-28 106.5l3 17 q10 69 54 101.5t134 32.5h151l9 61q6 46 -12.5 63t-76.5 17h-6q-58 0 -82 -18t-30 -61q-1 -13 -11 -13h-75q-6 0 -7.5 2.5t-0.5 10.5q12 84 63 124.5t154 40.5h6zM120 135q-5 -35 11.5 -48.5t65.5 -13.5q76 0 145 31l15 108h-156q-38 0 -56 -14t-23 -46z" />
<glyph horiz-adv-x="517" d="M193 577q-9 0 -8 9l14 93q1 9 10 9h68q9 0 8 -9l-14 -93q-1 -9 -10 -9h-68zM349 577q-9 0 -8 9l14 93q1 9 10 9h68q9 0 8 -9l-14 -93q-1 -9 -10 -9h-68zM298 513q104 0 144 -41t28 -125l-47 -338q-1 -9 -11 -9h-46q-8 0 -10 6l-15 30q-74 -44 -164 -44q-86 0 -124 36.5 t-28 106.5l3 17q10 69 54 101.5t134 32.5h151l9 61q6 46 -12.5 63t-76.5 17h-6q-58 0 -82 -18t-30 -61q-1 -13 -11 -13h-75q-6 0 -7.5 2.5t-0.5 10.5q12 84 63 124.5t154 40.5h6zM120 135q-5 -35 11.5 -48.5t65.5 -13.5q76 0 145 31l15 108h-156q-38 0 -56 -14t-23 -46z" />
<glyph horiz-adv-x="517" d="M291 573l-101 104q-4 5 -1.5 8t8.5 3h83q5 0 9 -4l84 -105q4 -4 1.5 -7t-7.5 -3h-66q-6 0 -10 4zM298 513q104 0 144 -41t28 -125l-47 -338q-1 -9 -11 -9h-46q-8 0 -10 6l-15 30q-74 -44 -164 -44q-86 0 -124 36.5t-28 106.5l3 17q10 69 54 101.5t134 32.5h151l9 61 q6 46 -12.5 63t-76.5 17h-6q-58 0 -82 -18t-30 -61q-1 -13 -11 -13h-75q-6 0 -7.5 2.5t-0.5 10.5q12 84 63 124.5t154 40.5h6zM120 135q-5 -35 11.5 -48.5t65.5 -13.5q76 0 145 31l15 108h-156q-38 0 -56 -14t-23 -46z" />
<glyph horiz-adv-x="517" d="M199 578q-9 0 -8 9l7 53q2 9 11 9h215q8 0 7 -9l-7 -53q-2 -9 -10 -9h-215zM298 513q104 0 144 -41t28 -125l-47 -338q-1 -9 -11 -9h-46q-8 0 -10 6l-15 30q-74 -44 -164 -44q-86 0 -124 36.5t-28 106.5l3 17q10 69 54 101.5t134 32.5h151l9 61q6 46 -12.5 63t-76.5 17 h-6q-58 0 -82 -18t-30 -61q-1 -13 -11 -13h-75q-6 0 -7.5 2.5t-0.5 10.5q12 84 63 124.5t154 40.5h6zM120 135q-5 -35 11.5 -48.5t65.5 -13.5q76 0 145 31l15 108h-156q-38 0 -56 -14t-23 -46z" />
<glyph horiz-adv-x="517" d="M298 513q104 0 144 -41t28 -125l-47 -338q0 -1 -1 -3q-1 -6 -9 -12l-54 -51q-22 -20 -29.5 -31t-9.5 -27l-1 -7q-2 -17 4.5 -22t30.5 -5h36q9 0 8 -9l-7 -49q-1 -9 -10 -9h-35q-59 0 -84 22t-19 67l1 7q4 27 18 46t51 48l42 33l-14 29q-74 -44 -164 -44q-86 0 -124 36.5 t-28 106.5l3 17q10 69 54 101.5t134 32.5h151l9 61q6 46 -12.5 63t-76.5 17h-6q-58 0 -82 -18t-30 -61q-1 -13 -11 -13h-75q-6 0 -7.5 2.5t-0.5 10.5q12 84 63 124.5t154 40.5h6zM120 135q-5 -35 11.5 -48.5t65.5 -13.5q76 0 145 31l15 108h-156q-38 0 -56 -14t-23 -46z" />
<glyph horiz-adv-x="517" d="M302 559q-55 0 -74 16t-13 53l2 18q5 37 29 53t79 16h2q54 0 73.5 -16t14.5 -53l-2 -18q-6 -38 -29.5 -53.5t-79.5 -15.5h-2zM266 627q-2 -14 5 -18t38 -4h2q30 0 39.5 4.5t11.5 17.5l2 17q2 16 -5.5 20.5t-38.5 4.5h-2q-30 0 -39 -5t-11 -20zM298 513q104 0 144 -41 t28 -125l-47 -338q-1 -9 -11 -9h-46q-8 0 -10 6l-15 30q-74 -44 -164 -44q-86 0 -124 36.5t-28 106.5l3 17q10 69 54 101.5t134 32.5h151l9 61q6 46 -12.5 63t-76.5 17h-6q-58 0 -82 -18t-30 -61q-1 -13 -11 -13h-75q-6 0 -7.5 2.5t-0.5 10.5q12 84 63 124.5t154 40.5h6z M120 135q-5 -35 11.5 -48.5t65.5 -13.5q76 0 145 31l15 108h-156q-38 0 -56 -14t-23 -46z" />
<glyph horiz-adv-x="517" d="M172 575q-8 0 -7 9l4 32q10 76 81 76q33 0 54 -17l63 -46q9 -8 18 -8q10 0 13 16l5 35q1 9 10 9h41q9 0 8 -9l-4 -31q-11 -77 -81 -77q-31 0 -55 17l-62 47q-11 8 -18 8q-10 0 -13 -17l-5 -35q-1 -9 -10 -9h-42zM298 513q104 0 144 -41t28 -125l-47 -338q-1 -9 -11 -9 h-46q-8 0 -10 6l-15 30q-74 -44 -164 -44q-86 0 -124 36.5t-28 106.5l3 17q10 69 54 101.5t134 32.5h151l9 61q6 46 -12.5 63t-76.5 17h-6q-58 0 -82 -18t-30 -61q-1 -13 -11 -13h-75q-6 0 -7.5 2.5t-0.5 10.5q12 84 63 124.5t154 40.5h6zM120 135q-5 -35 11.5 -48.5 t65.5 -13.5q76 0 145 31l15 108h-156q-38 0 -56 -14t-23 -46z" />
<glyph horiz-adv-x="510" d="M520 513q10 0 8 -9l-5 -33q-1 -4 -1.5 -5.5t-2.5 -3t-7 -1.5l-77 -11q42 -22 33 -86l-10 -72q-11 -77 -62 -113.5t-156 -36.5h-6q-48 0 -85 8q-28 -9 -33 -47l-1 -7q-3 -20 7.5 -27t48.5 -7h161q69 0 98 -30.5t19 -94.5l-3 -25q-10 -69 -64 -99.5t-183 -30.5h-6 q-127 0 -172 30.5t-36 99.5l2 14q10 68 59 90q-25 27 -19 71l1 7q9 62 63 83q-45 36 -33 116l10 71q11 76 62 112.5t156 36.5h234zM377 364q6 38 -13.5 52.5t-83.5 14.5h-6q-63 0 -87 -14.5t-29 -52.5l-10 -71q-6 -43 13 -56t84 -13h6q64 0 87.5 14.5t28.5 53.5zM309 -17 h-158q-26 0 -51 5q-17 -18 -21 -52l-4 -25q-4 -30 19.5 -39t110.5 -9h6q87 0 114 10t31 39l3 25q4 29 -5.5 37.5t-44.5 8.5z" />
<glyph horiz-adv-x="510" d="M305 565q-61 0 -86.5 22t-17.5 68l4 24q1 9 11 9h49q8 0 7 -9l-3 -24q-4 -23 4.5 -29t39.5 -6h4q29 0 40.5 7.5t14.5 26.5l3 25q1 9 10 9h50q8 0 7 -9l-3 -25q-13 -89 -130 -89h-4zM520 513q10 0 8 -9l-5 -33q-1 -4 -1.5 -5.5t-2.5 -3t-7 -1.5l-77 -11q42 -22 33 -86 l-10 -72q-11 -77 -62 -113.5t-156 -36.5h-6q-48 0 -85 8q-28 -9 -33 -47l-1 -7q-3 -20 7.5 -27t48.5 -7h161q69 0 98 -30.5t19 -94.5l-3 -25q-10 -69 -64 -99.5t-183 -30.5h-6q-127 0 -172 30.5t-36 99.5l2 14q10 68 59 90q-25 27 -19 71l1 7q9 62 63 83q-45 36 -33 116 l10 71q11 76 62 112.5t156 36.5h234zM377 364q6 38 -13.5 52.5t-83.5 14.5h-6q-63 0 -87 -14.5t-29 -52.5l-10 -71q-6 -43 13 -56t84 -13h6q64 0 87.5 14.5t28.5 53.5zM309 -17h-158q-26 0 -51 5q-17 -18 -21 -52l-4 -25q-4 -30 19.5 -39t110.5 -9h6q87 0 114 10t31 39l3 25 q4 29 -5.5 37.5t-44.5 8.5z" />
<glyph horiz-adv-x="510" d="M172 569q-6 0 -7 3t4 7l114 105q7 4 12 4h60q6 0 10 -4l85 -105q4 -4 2 -7t-8 -3h-65q-6 0 -10 6l-47 67l-67 -67q-6 -6 -13 -6h-70zM520 513q10 0 8 -9l-5 -33q-1 -4 -1.5 -5.5t-2.5 -3t-7 -1.5l-77 -11q42 -22 33 -86l-10 -72q-11 -77 -62 -113.5t-156 -36.5h-6 q-48 0 -85 8q-28 -9 -33 -47l-1 -7q-3 -20 7.5 -27t48.5 -7h161q69 0 98 -30.5t19 -94.5l-3 -25q-10 -69 -64 -99.5t-183 -30.5h-6q-127 0 -172 30.5t-36 99.5l2 14q10 68 59 90q-25 27 -19 71l1 7q9 62 63 83q-45 36 -33 116l10 71q11 76 62 112.5t156 36.5h234zM377 364 q6 38 -13.5 52.5t-83.5 14.5h-6q-63 0 -87 -14.5t-29 -52.5l-10 -71q-6 -43 13 -56t84 -13h6q64 0 87.5 14.5t28.5 53.5zM309 -17h-158q-26 0 -51 5q-17 -18 -21 -52l-4 -25q-4 -30 19.5 -39t110.5 -9h6q87 0 114 10t31 39l3 25q4 29 -5.5 37.5t-44.5 8.5z" />
<glyph horiz-adv-x="510" d="M275 569q-8 0 -8 8l22 156q1 9 11 9h25q8 0 9 -8l23 -98q1 -6 0 -12l-7 -47q0 -8 -9 -8h-66zM520 513q10 0 8 -9l-5 -33q-1 -4 -1.5 -5.5t-2.5 -3t-7 -1.5l-77 -11q42 -22 33 -86l-10 -72q-11 -77 -62 -113.5t-156 -36.5h-6q-48 0 -85 8q-28 -9 -33 -47l-1 -7 q-3 -20 7.5 -27t48.5 -7h161q69 0 98 -30.5t19 -94.5l-3 -25q-10 -69 -64 -99.5t-183 -30.5h-6q-127 0 -172 30.5t-36 99.5l2 14q10 68 59 90q-25 27 -19 71l1 7q9 62 63 83q-45 36 -33 116l10 71q11 76 62 112.5t156 36.5h234zM377 364q6 38 -13.5 52.5t-83.5 14.5h-6 q-63 0 -87 -14.5t-29 -52.5l-10 -71q-6 -43 13 -56t84 -13h6q64 0 87.5 14.5t28.5 53.5zM309 -17h-158q-26 0 -51 5q-17 -18 -21 -52l-4 -25q-4 -30 19.5 -39t110.5 -9h6q87 0 114 10t31 39l3 25q4 29 -5.5 37.5t-44.5 8.5z" />
<glyph horiz-adv-x="510" d="M274 577q-9 0 -8 9l14 93q1 9 10 9h68q9 0 8 -9l-14 -93q-1 -9 -10 -9h-68zM520 513q10 0 8 -9l-5 -33q-1 -4 -1.5 -5.5t-2.5 -3t-7 -1.5l-77 -11q42 -22 33 -86l-10 -72q-11 -77 -62 -113.5t-156 -36.5h-6q-48 0 -85 8q-28 -9 -33 -47l-1 -7q-3 -20 7.5 -27t48.5 -7h161 q69 0 98 -30.5t19 -94.5l-3 -25q-10 -69 -64 -99.5t-183 -30.5h-6q-127 0 -172 30.5t-36 99.5l2 14q10 68 59 90q-25 27 -19 71l1 7q9 62 63 83q-45 36 -33 116l10 71q11 76 62 112.5t156 36.5h234zM377 364q6 38 -13.5 52.5t-83.5 14.5h-6q-63 0 -87 -14.5t-29 -52.5 l-10 -71q-6 -43 13 -56t84 -13h6q64 0 87.5 14.5t28.5 53.5zM309 -17h-158q-26 0 -51 5q-17 -18 -21 -52l-4 -25q-4 -30 19.5 -39t110.5 -9h6q87 0 114 10t31 39l3 25q4 29 -5.5 37.5t-44.5 8.5z" />
<glyph horiz-adv-x="460" d="M485 505q11 0 6 -10l-342 -689q-3 -7 -12 -7h-80q-12 0 -5 10l96 185l-107 501q-1 10 9 10h77q8 0 9 -8l43 -213q21 -105 27 -197q31 90 82 197l102 213q4 8 12 8h83z" />
<glyph horiz-adv-x="460" d="M218 569q-6 0 -7 3t3 7l113 105q5 4 12 4h84q6 0 6.5 -3t-4.5 -8l-130 -104q-5 -4 -11 -4h-66zM485 505q11 0 6 -10l-342 -689q-3 -7 -12 -7h-80q-12 0 -5 10l96 185l-107 501q-1 10 9 10h77q8 0 9 -8l43 -213q21 -105 27 -197q31 90 82 197l102 213q4 8 12 8h83z" />
<glyph horiz-adv-x="460" d="M140 569q-6 0 -7 3t4 7l114 105q7 4 12 4h60q6 0 10 -4l85 -105q4 -4 2 -7t-8 -3h-65q-6 0 -10 6l-47 67l-67 -67q-6 -6 -13 -6h-70zM485 505q11 0 6 -10l-342 -689q-3 -7 -12 -7h-80q-12 0 -5 10l96 185l-107 501q-1 10 9 10h77q8 0 9 -8l43 -213q21 -105 27 -197 q31 90 82 197l102 213q4 8 12 8h83z" />
</font>
</defs>
</svg>
