<?xml version="1.0" standalone="no"?>
<!DOCTYPE svg PUBLIC "-//W3C//DTD SVG 1.1//EN" "http://www.w3.org/Graphics/SVG/1.1/DTD/svg11.dtd" >
<svg xmlns="http://www.w3.org/2000/svg">
<metadata></metadata>
<defs>
<font id="roganlight" horiz-adv-x="529" >
<font-face units-per-em="1000" ascent="750" descent="-250" />
<missing-glyph horiz-adv-x="213" />
<glyph unicode="ff" horiz-adv-x="606" d="M599 708q7 0 7 -7v-29q0 -8 -7 -8h-45q-59 0 -77.5 -21.5t-18.5 -89.5v-56h137q7 0 7 -8v-29q0 -7 -7 -7h-137v-446q0 -7 -7 -7h-36q-7 0 -7 7v446h-247v-446q0 -7 -7 -7h-36q-7 0 -7 7v446h-92q-7 0 -7 7v15q0 7 10 8l89 10v55q0 92 30 126t111 34h50q7 0 7 -7v-29 q0 -8 -7 -8h-45q-59 0 -77.5 -21.5t-18.5 -89.5v-56h247v51q0 92 30 126t111 34h50z" />
<glyph unicode="fft" horiz-adv-x="902" d="M869 41q7 0 7 -7v-31q0 -7 -7 -7h-44q-79 0 -109.5 31t-30.5 114v312h-227v-446q0 -7 -7 -7h-36q-7 0 -7 7v446h-247v-446q0 -7 -7 -7h-36q-7 0 -7 7v446h-92q-7 0 -7 7v15q0 7 10 8l89 10v55q0 92 30 126t111 34h50q7 0 7 -7v-29q0 -8 -7 -8h-45q-59 0 -77.5 -21.5 t-18.5 -89.5v-56h247v51q0 92 30 126t111 34h50q7 0 7 -7v-29q0 -8 -7 -8h-45q-59 0 -77.5 -21.5t-18.5 -89.5v-56h227v141q0 7 7 7h36q7 0 7 -7v-141h132q7 0 7 -8v-29q0 -7 -7 -7h-132v-305q0 -65 18.5 -86t73.5 -21h42z" />
<glyph unicode="ft" horiz-adv-x="605" d="M571 41q7 0 7 -7v-31q0 -7 -7 -7h-44q-79 0 -109.5 31t-30.5 114v312h-226v-446q0 -7 -7 -7h-36q-7 0 -7 7v446h-92q-7 0 -7 7v15q0 7 10 8l89 10v55q0 92 30 126t111 34h50q7 0 7 -7v-29q0 -8 -7 -8h-45q-59 0 -77.5 -21.5t-18.5 -89.5v-56h226v141q0 7 7 7h36q7 0 7 -7 v-141h132q7 0 7 -8v-29q0 -7 -7 -7h-132v-305q0 -65 18.5 -86t73.5 -21h42z" />
<glyph unicode="&#xd;" horiz-adv-x="250" />
<glyph unicode=" "  horiz-adv-x="213" />
<glyph unicode="&#x09;" horiz-adv-x="213" />
<glyph unicode="&#xa0;" horiz-adv-x="213" />
<glyph unicode="!" horiz-adv-x="214" d="M97 175q-7 0 -7 7l-8 456q0 7 7 7h36q7 0 7 -7l-8 -456q0 -7 -7 -7h-20zM88 0q-8 0 -8 7v71q0 7 8 7h39q7 0 7 -7v-71q0 -7 -7 -7h-39z" />
<glyph unicode="&#x22;" horiz-adv-x="265" d="M64 448q-5 0 -7 7l-13 112q-1 5 -1 11v85q0 7 8 7h33q7 0 7 -7v-85v-11l-14 -112q0 -7 -7 -7h-6zM194 448q-5 0 -7 7l-13 112q-1 5 -1 11v85q0 7 8 7h33q7 0 7 -7v-85v-11l-14 -112q0 -7 -7 -7h-6z" />
<glyph unicode="#" horiz-adv-x="620" d="M549 403h-89l-25 -160h114q8 0 8 -8v-28q0 -8 -8 -8h-121l-30 -192q-1 -7 -8 -7h-33q-8 0 -7 7l30 192h-178l-30 -192q-1 -7 -8 -7h-33q-8 0 -7 7l30 192h-83q-8 0 -8 8v28q0 8 8 8h90l25 160h-115q-8 0 -8 8v28q0 8 8 8h121l30 191q1 7 8 7h33q8 0 7 -7l-30 -191h178 l30 191q1 7 8 7h33q8 0 7 -7l-30 -191h83q8 0 8 -8v-28q0 -8 -8 -8zM387 243l25 160h-178l-25 -160h178z" />
<glyph unicode="$" horiz-adv-x="546" d="M349 335q78 -17 106.5 -49t28.5 -103v-28q0 -84 -41 -122t-147 -41v-65q0 -7 -7 -7h-32q-7 0 -7 7v65q-103 4 -144 42t-41 121v30q0 8 7 8h36q7 0 7 -8v-30q0 -63 27.5 -88.5t107.5 -28.5v270l-51 12q-72 16 -100.5 49t-28.5 102v20q0 82 40.5 120t139.5 42v65q0 7 7 7 h32q7 0 7 -7v-65q102 -3 142.5 -41t40.5 -121v-31q0 -8 -8 -8h-35q-7 0 -7 8v31q0 63 -27.5 88.5t-105.5 27.5v-260zM221 364l29 -7v250q-76 -3 -103 -28.5t-27 -87.5v-20q0 -51 19 -72t82 -35zM434 155v28q0 52 -20 72.5t-87 35.5l-31 7v-260q82 2 110 27.5t28 89.5z" />
<glyph unicode="%" horiz-adv-x="793" d="M170 297q-66 0 -96.5 30t-30.5 97v102q0 67 30.5 97t96.5 30h28q67 0 97.5 -30t30.5 -97v-102q0 -67 -30.5 -97t-97.5 -30h-28zM214 0q-10 0 -5 9l328 631q3 5 9 5h33q11 0 6 -9l-329 -631q-2 -5 -9 -5h-33zM170 338h28q45 0 64.5 19t19.5 67v102q0 48 -19.5 67t-64.5 19 h-28q-44 0 -63 -19t-19 -67v-102q0 -48 19 -67t63 -19zM594 -8q-66 0 -96.5 30t-30.5 97v102q0 67 30.5 97t96.5 30h28q66 0 97 -30.5t31 -96.5v-102q0 -66 -31 -96.5t-97 -30.5h-28zM594 33h28q44 0 63.5 19t19.5 67v102q0 48 -19.5 67t-63.5 19h-28q-44 0 -63.5 -19 t-19.5 -67v-102q0 -48 19.5 -67t63.5 -19z" />
<glyph unicode="&#x26;" horiz-adv-x="635" d="M606 9q9 -9 -3 -9h-41q-5 0 -10 4l-64 61q-31 -73 -195 -73h-6q-125 0 -172 37t-47 124v42q0 70 29.5 102.5t104.5 38.5q-55 53 -71.5 84.5t-16.5 74.5v6q0 79 42 115.5t141 36.5h6q100 0 141 -37.5t41 -121.5v-34q0 -7 -7 -7h-35q-8 0 -8 7v34q0 64 -27.5 88.5 t-104.5 24.5h-6q-77 0 -105 -23.5t-28 -82.5v-6q0 -35 14 -60.5t60 -70.5l223 -213v8v146q0 8 7 8h32q8 0 8 -8v-146q0 -32 -5 -51zM293 38q76 0 113 13.5t49 44.5l-219 208q-68 -1 -93 -25.5t-25 -83.5v-42q0 -65 33.5 -90t135.5 -25h6z" />
<glyph unicode="'" horiz-adv-x="135" d="M64 448q-5 0 -7 7l-13 112q-1 5 -1 11v85q0 7 8 7h33q7 0 7 -7v-85v-11l-14 -112q0 -7 -7 -7h-6z" />
<glyph unicode="(" horiz-adv-x="239" d="M186 -128q-6 0 -9 5q-124 176 -124 413t124 413q3 5 9 5h33q12 0 5 -9q-121 -175 -121 -409t121 -409q7 -9 -5 -9h-33z" />
<glyph unicode=")" horiz-adv-x="239" d="M53 -128h-33q-12 0 -5 9q121 175 121 409t-121 409q-7 9 5 9h33q7 0 9 -5q124 -176 124 -413t-124 -413q-2 -5 -9 -5z" />
<glyph unicode="*" horiz-adv-x="472" d="M428 510q4 -7 -4 -9l-162 -43l106 -129q4 -5 -2 -10l-29 -22q-6 -4 -10 1l-91 140l-91 -139q-5 -6 -10 -2l-30 22q-6 4 -1 10l106 130l-161 41q-8 2 -6 10l11 35q3 8 10 5l155 -60l-9 166q0 7 7 7h38q7 0 7 -7l-9 -167l155 61q7 3 10 -5z" />
<glyph unicode="+" horiz-adv-x="500" d="M439 274q8 0 8 -7v-32q0 -7 -8 -7h-164v-177q0 -8 -7 -8h-35q-8 0 -8 8v177h-164q-8 0 -8 7v32q0 7 8 7h164v175q0 8 8 8h35q7 0 7 -8v-175h164z" />
<glyph unicode="," horiz-adv-x="136" d="M50 -130q-7 0 -7 7v201q0 7 8 7h34q8 0 8 -7v-73q0 -7 -1 -13l-22 -115q-1 -7 -8 -7h-12z" />
<glyph unicode="-" horiz-adv-x="333" d="M34 262q-7 0 -7 7v32q0 7 7 7h265q8 0 8 -7v-32q0 -7 -8 -7h-265z" />
<glyph unicode="." horiz-adv-x="141" d="M51 0q-8 0 -8 7v71q0 7 8 7h39q7 0 7 -7v-71q0 -7 -7 -7h-39z" />
<glyph unicode="/" horiz-adv-x="364" d="M22 -72q-9 0 -6 8l283 758q2 6 9 6h34q9 0 6 -8l-283 -758q-1 -6 -8 -6h-35z" />
<glyph unicode="0" horiz-adv-x="587" d="M80 156v333q0 88 46 126t164 38h6q119 0 165 -38t46 -126v-333q0 -88 -46 -126t-165 -38h-6q-118 0 -164 38t-46 126zM130 156q0 -67 32.5 -92.5t127.5 -25.5h6q96 0 128.5 25.5t32.5 92.5v333q0 67 -32.5 92.5t-128.5 25.5h-6q-95 0 -127.5 -25.5t-32.5 -92.5v-333z" />
<glyph unicode="1" horiz-adv-x="442" d="M388 46q7 0 7 -7v-32q0 -7 -7 -7h-329q-7 0 -7 7v32q0 7 7 7h152v549l-136 -70q-8 -5 -8 6v33q0 7 6 9l133 70q3 2 9 2h38q8 0 8 -7v-592h127z" />
<glyph unicode="2" horiz-adv-x="552" d="M228 266q-65 -15 -84 -35.5t-19 -72.5v-112h350q7 0 7 -7v-32q0 -7 -7 -7h-393q-7 0 -7 7v155q0 69 28.5 100.5t105.5 48.5l124 28q62 14 80.5 35t18.5 72v47q0 64 -31 89t-118 25h-6q-87 0 -117 -25t-30 -90v-36q0 -7 -8 -7h-35q-7 0 -7 7v36q0 86 43.5 123.5 t153.5 37.5h6q111 0 155 -37.5t44 -122.5v-47q0 -70 -28 -103t-102 -49z" />
<glyph unicode="3" horiz-adv-x="556" d="M384 328q55 -10 76 -40.5t21 -91.5v-43q0 -86 -44.5 -123.5t-157.5 -37.5h-6q-114 0 -158.5 37.5t-44.5 123.5v26q0 7 7 7h36q7 0 7 -7v-26q0 -65 31 -90t122 -25h6q90 0 121 25t31 90v43q0 62 -30 85.5t-122 23.5h-67q-7 0 -7 7v31q0 7 7 7h61q92 0 122 23.5t30 85.5v33 q0 66 -29.5 90.5t-116.5 24.5h-6q-88 0 -117.5 -24.5t-29.5 -90.5v-36q0 -7 -8 -7h-35q-7 0 -7 7v36q0 86 43.5 123.5t153.5 37.5h6q109 0 152.5 -37.5t43.5 -123.5v-33q0 -59 -20 -89t-71 -42z" />
<glyph unicode="4" horiz-adv-x="525" d="M480 206q7 0 7 -7v-30q0 -7 -7 -7h-72v-155q0 -7 -7 -7h-35q-7 0 -7 7v155h-313q-8 0 -8 7v32q0 5 3 9l314 430q4 5 10 5h36q7 0 7 -7v-432h72zM94 206h265v365z" />
<glyph unicode="5" horiz-adv-x="548" d="M286 377q107 0 149.5 -37.5t42.5 -127.5v-56q0 -89 -44 -126.5t-154 -37.5h-6q-110 0 -154.5 37.5t-44.5 126.5v23q0 7 7 7h36q7 0 7 -7v-23q0 -68 30.5 -93t118.5 -25h6q87 0 117.5 25t30.5 93v56q0 69 -29 94t-113 25h-166q-6 0 -11 4l-16 15q-4 4 -4 9v279q0 7 7 7 h360q8 0 8 -7v-32q0 -7 -8 -7h-317v-222h147z" />
<glyph unicode="6" horiz-adv-x="574" d="M293 377q116 0 161 -38t45 -126v-57q0 -88 -45 -126t-161 -38h-6q-116 0 -161.5 38t-45.5 126v333q0 88 44.5 126t158.5 38h6q114 0 159 -38t45 -126v-33q0 -7 -8 -7h-35q-7 0 -7 7v33q0 67 -31.5 92.5t-122.5 25.5h-6q-90 0 -121.5 -25.5t-31.5 -92.5v-176 q15 35 51 49.5t106 14.5h6zM449 156v57q0 67 -31.5 92.5t-124.5 25.5h-6q-93 0 -125 -25.5t-32 -92.5v-57q0 -67 32 -92.5t125 -25.5h6q93 0 124.5 25.5t31.5 92.5z" />
<glyph unicode="7" horiz-adv-x="435" d="M406 645q7 0 7 -7v-35q0 -3 -2 -9l-251 -588q-2 -6 -9 -6h-37q-9 0 -5 8l253 591h-320q-7 0 -7 7v32q0 7 7 7h364z" />
<glyph unicode="8" horiz-adv-x="582" d="M399 329q61 -12 84.5 -43.5t23.5 -94.5v-38q0 -86 -46.5 -123.5t-166.5 -37.5h-6q-120 0 -166.5 37.5t-46.5 123.5v38q0 63 23.5 94.5t84.5 43.5q-54 12 -76 44.5t-22 91.5v28q0 85 45 122.5t158 37.5h6q113 0 158 -37.5t45 -122.5v-28q0 -59 -22 -91.5t-76 -44.5z M135 465q0 -63 31.5 -88t121.5 -25h6q90 0 121.5 25t31.5 88v28q0 64 -31.5 89t-121.5 25h-6q-90 0 -121.5 -25t-31.5 -89v-28zM457 153v38q0 65 -33 90t-130 25h-6q-97 0 -130 -25t-33 -90v-38q0 -65 33 -90t130 -25h6q97 0 130 25t33 90z" />
<glyph unicode="9" horiz-adv-x="573" d="M287 653q116 0 161 -38t45 -126v-333q0 -88 -44.5 -126t-158.5 -38h-6q-113 0 -157.5 38t-44.5 126v23q0 7 7 7h35q8 0 8 -7v-23q0 -67 31 -92.5t121 -25.5h6q90 0 121.5 25.5t31.5 92.5v167q-15 -34 -51.5 -47.5t-104.5 -13.5h-6q-116 0 -161 38t-45 126v63q0 88 45 126 t161 38h6zM287 309q92 0 124 25.5t32 91.5v63q0 67 -32 92.5t-124 25.5h-6q-92 0 -124 -25.5t-32 -92.5v-63q0 -66 32 -91.5t124 -25.5h6z" />
<glyph unicode=":" horiz-adv-x="161" d="M61 412q-8 0 -8 7v71q0 7 8 7h39q7 0 7 -7v-71q0 -7 -7 -7h-39zM61 0q-8 0 -8 7v71q0 7 8 7h39q7 0 7 -7v-71q0 -7 -7 -7h-39z" />
<glyph unicode=";" horiz-adv-x="161" d="M61 412q-8 0 -8 7v71q0 7 8 7h39q7 0 7 -7v-71q0 -7 -7 -7h-39zM60 -130q-7 0 -7 7v201q0 7 8 7h34q8 0 8 -7v-73q0 -7 -1 -13l-22 -115q-1 -7 -8 -7h-12z" />
<glyph unicode="&#x3c;" horiz-adv-x="500" d="M437 391q0 -6 -7 -9l-312 -133l312 -134q7 -3 7 -9v-33q0 -11 -9 -6l-358 154q-7 3 -7 9v37q0 6 7 9l358 154q9 4 9 -6v-33z" />
<glyph unicode="=" horiz-adv-x="500" d="M61 323q-8 0 -8 7v32q0 7 8 7h378q8 0 8 -7v-32q0 -7 -8 -7h-378zM61 132q-8 0 -8 8v31q0 8 8 8h378q8 0 8 -8v-31q0 -8 -8 -8h-378z" />
<glyph unicode="&#x3e;" horiz-adv-x="500" d="M430 276q7 -3 7 -9v-37q0 -6 -7 -9l-358 -154q-9 -5 -9 6v33q0 6 7 9l312 134l-312 133q-7 3 -7 9v33q0 10 9 6z" />
<glyph unicode="?" horiz-adv-x="439" d="M51 449q-8 0 -8 7v33q0 88 40 126t138 38h6q97 0 138 -37t41 -117v-13q0 -67 -21 -98t-79 -50l-44 -14q-43 -14 -55 -34t-12 -78v-30q0 -7 -8 -7h-34q-8 0 -8 7v30q0 73 20 104t77 49l44 14q45 14 57.5 34t12.5 73v13q0 60 -27 84t-102 24h-6q-75 0 -101.5 -25.5 t-26.5 -92.5v-33q0 -7 -8 -7h-34zM151 0q-8 0 -8 7v71q0 7 8 7h39q7 0 7 -7v-71q0 -7 -7 -7h-39z" />
<glyph unicode="@" horiz-adv-x="778" d="M399 605q130 0 194.5 -20.5t89.5 -68.5t25 -145v-213q0 -62 -24 -88.5t-78 -26.5h-10q-69 0 -89 44q-68 -44 -148 -44q-63 0 -96 28t-33 81v15q0 51 30 75.5t96 24.5h139v76q0 42 -20 57.5t-80 15.5h-6q-60 0 -79.5 -15.5t-19.5 -57.5v-10q0 -8 -8 -8h-30q-7 0 -7 8v10 q0 61 32.5 88t111.5 27h6q79 0 112 -27t33 -88v-179q0 -50 11 -66t45 -16h10q33 0 45 16.5t12 65.5v207q0 51 -6 82t-21 54t-47 34t-75.5 16t-114.5 5h-20q-71 0 -114.5 -5t-75.5 -16t-47 -34t-21 -54t-6 -82v-248q0 -78 19.5 -115t74.5 -53.5t170 -16.5h153q8 0 8 -7v-28 q0 -7 -8 -7h-153q-129 0 -194.5 21.5t-90 68t-24.5 137.5v248q0 97 25 145t89.5 68.5t194.5 20.5h20zM366 82q70 0 132 36q-3 18 -3 40v72h-142q-41 0 -59 -15t-18 -48v-15q0 -36 21.5 -53t68.5 -17z" />
<glyph unicode="A" horiz-adv-x="526" d="M507 8q3 -8 -6 -8h-37q-6 0 -8 6l-58 169h-269l-59 -170q-2 -5 -8 -5h-37q-9 0 -6 8l219 631q2 6 8 6h34q6 0 8 -6zM145 221h237l-61 175q-35 97 -58 183q-23 -86 -58 -183z" />
<glyph unicode="B" horiz-adv-x="555" d="M403 330q54 -10 77 -40.5t23 -90.5v-48q0 -78 -40 -114.5t-133 -36.5h-238q-7 0 -7 7v631q0 7 7 7h215q92 0 132 -36.5t40 -114.5v-38q0 -53 -18 -83t-58 -43zM293 599h-158v-248h158q79 0 107.5 22t28.5 83v38q0 61 -28.5 83t-107.5 22zM453 151v48q0 61 -29 83t-108 22 h-181v-258h181q79 0 108 22t29 83z" />
<glyph unicode="C" horiz-adv-x="559" d="M286 -8q-119 0 -165 38t-46 126v333q0 88 46 126t165 38h6q119 0 165.5 -38t46.5 -126v-39q0 -8 -8 -8h-35q-7 0 -7 8v39q0 67 -32.5 92.5t-129.5 25.5h-6q-96 0 -128.5 -25.5t-32.5 -92.5v-333q0 -67 32.5 -92.5t128.5 -25.5h6q97 0 129.5 25.5t32.5 92.5v39q0 8 7 8h35 q8 0 8 -8v-39q0 -88 -46.5 -126t-165.5 -38h-6z" />
<glyph unicode="D" horiz-adv-x="579" d="M305 645q109 0 154 -36.5t45 -117.5v-337q0 -81 -45 -117.5t-154 -36.5h-213q-7 0 -7 7v631q0 7 7 7h213zM454 154v337q0 61 -33.5 84.5t-129.5 23.5h-156v-553h156q96 0 129.5 23.5t33.5 84.5z" />
<glyph unicode="E" horiz-adv-x="491" d="M438 599h-303v-249h273q7 0 7 -7v-32q0 -7 -7 -7h-273v-258h303q7 0 7 -7v-32q0 -7 -7 -7h-346q-7 0 -7 7v631q0 7 7 7h346q7 0 7 -7v-32q0 -7 -7 -7z" />
<glyph unicode="F" horiz-adv-x="463" d="M427 645q8 0 8 -7v-32q0 -7 -8 -7h-292v-259h272q8 0 8 -7v-32q0 -7 -8 -7h-272v-287q0 -7 -7 -7h-36q-7 0 -7 7v631q0 7 7 7h335z" />
<glyph unicode="G" horiz-adv-x="581" d="M468 462q-7 0 -7 8v19q0 67 -33 92.5t-132 25.5h-6q-99 0 -132 -25.5t-33 -92.5v-333q0 -67 33 -92.5t132 -25.5h6q99 0 132 25.5t33 92.5v119h-143q-8 0 -8 8v31q0 8 8 8h186q7 0 7 -8v-158q0 -88 -46.5 -126t-168.5 -38h-6q-122 0 -168.5 38t-46.5 126v333 q0 88 46.5 126t168.5 38h6q122 0 168.5 -38t46.5 -126v-19q0 -8 -7 -8h-36z" />
<glyph unicode="H" horiz-adv-x="599" d="M507 645q7 0 7 -7v-631q0 -7 -7 -7h-35q-8 0 -8 7v295h-329v-295q0 -7 -7 -7h-36q-7 0 -7 7v631q0 7 7 7h36q7 0 7 -7v-290h329v290q0 7 8 7h35z" />
<glyph unicode="I" horiz-adv-x="220" d="M92 0q-7 0 -7 7v631q0 7 7 7h36q7 0 7 -7v-631q0 -7 -7 -7h-36z" />
<glyph unicode="J" horiz-adv-x="492" d="M217 -8q-103 0 -146 38.5t-43 125.5v23q0 7 8 7h35q7 0 7 -7v-23q0 -66 29.5 -92t109.5 -26h6q81 0 110 25.5t29 92.5v482q0 7 8 7h35q7 0 7 -7v-482q0 -87 -42.5 -125.5t-146.5 -38.5h-6z" />
<glyph unicode="K" horiz-adv-x="541" d="M517 10q6 -10 -4 -10h-43q-5 0 -9 6l-189 331l-137 -168v-162q0 -7 -7 -7h-36q-7 0 -7 7v631q0 7 7 7h36q7 0 7 -7v-398l316 400q4 5 10 5h44q10 0 4 -8l-204 -258z" />
<glyph unicode="L" horiz-adv-x="448" d="M414 46q7 0 7 -7v-32q0 -7 -7 -7h-322q-7 0 -7 7v631q0 7 7 7h36q7 0 7 -7v-592h279z" />
<glyph unicode="M" horiz-adv-x="729" d="M637 645q7 0 7 -7v-631q0 -7 -7 -7h-35q-7 0 -7 7v349q0 127 3 208q-29 -77 -95 -208l-115 -231q-2 -5 -9 -5h-29q-6 0 -8 5l-116 231q-67 139 -95 209q3 -81 3 -209v-349q0 -7 -7 -7h-35q-7 0 -7 7v631q0 7 7 7h39q7 0 9 -5l167 -336q37 -73 58 -131q22 63 58 131 l166 336q3 5 9 5h39z" />
<glyph unicode="N" horiz-adv-x="627" d="M535 645q7 0 7 -7v-631q0 -7 -7 -7h-39q-5 0 -9 5l-241 378q-82 129 -115 192q4 -72 4 -192v-376q0 -7 -7 -7h-36q-7 0 -7 7v631q0 7 7 7h39q5 0 9 -5l241 -378q72 -111 116 -192q-5 72 -5 192v376q0 7 8 7h35z" />
<glyph unicode="O" horiz-adv-x="591" d="M75 156v333q0 88 47 126t171 38h6q123 0 170 -38t47 -126v-333q0 -88 -47 -126t-170 -38h-6q-124 0 -171 38t-47 126zM125 156q0 -67 33.5 -92.5t134.5 -25.5h6q101 0 134 25.5t33 92.5v333q0 67 -33 92.5t-134 25.5h-6q-101 0 -134.5 -25.5t-33.5 -92.5v-333z" />
<glyph unicode="P" horiz-adv-x="517" d="M305 645q95 0 137 -36.5t42 -117.5v-97q0 -81 -42 -117.5t-137 -36.5h-170v-233q0 -7 -7 -7h-36q-7 0 -7 7v631q0 7 7 7h213zM434 394v97q0 61 -30 84.5t-113 23.5h-156v-313h156q83 0 113 23.5t30 84.5z" />
<glyph unicode="Q" horiz-adv-x="591" d="M299 653q123 0 170 -38t47 -126v-333q0 -84 -42 -122t-151 -42l100 -132q5 -7 -2 -12l-22 -17q-7 -5 -12 2l-118 159q-109 4 -151.5 42t-42.5 122v333q0 88 47 126t171 38h6zM466 156v333q0 67 -33 92.5t-134 25.5h-6q-101 0 -134.5 -25.5t-33.5 -92.5v-333 q0 -67 33.5 -92.5t134.5 -25.5h6q101 0 134 25.5t33 92.5z" />
<glyph unicode="R" horiz-adv-x="547" d="M490 9q6 -9 -5 -9h-40q-5 0 -9 5l-129 248h-4h-168v-246q0 -7 -7 -7h-36q-7 0 -7 7v631q0 7 7 7h211q96 0 138 -36.5t42 -117.5v-84q0 -68 -29 -104t-93 -46zM135 299h155q84 0 113.5 23t29.5 85v84q0 62 -29.5 85t-113.5 23h-155v-300z" />
<glyph unicode="S" horiz-adv-x="511" d="M46 155v30q0 8 7 8h36q7 0 7 -8v-30q0 -66 31.5 -91.5t125.5 -25.5h6q93 0 124.5 25.5t31.5 91.5v28q0 52 -20 72.5t-87 35.5l-128 29q-72 16 -100.5 49t-28.5 102v20q0 86 45 124t157 38h6q112 0 156.5 -38t44.5 -124v-31q0 -8 -8 -8h-35q-7 0 -7 8v31q0 66 -31 91 t-120 25h-6q-90 0 -121 -25t-31 -91v-20q0 -51 19 -72t82 -35l128 -29q78 -17 106.5 -49t28.5 -103v-28q0 -87 -45 -125t-161 -38h-6q-116 0 -161.5 38t-45.5 125z" />
<glyph unicode="T" horiz-adv-x="458" d="M433 645q7 0 7 -7v-32q0 -7 -7 -7h-179v-592q0 -7 -7 -7h-36q-7 0 -7 7v592h-179q-7 0 -7 7v32q0 7 7 7h408z" />
<glyph unicode="U" horiz-adv-x="589" d="M80 156v482q0 7 7 7h36q7 0 7 -7v-482q0 -67 32.5 -92.5t129.5 -25.5h6q96 0 128.5 25.5t32.5 92.5v482q0 7 8 7h35q7 0 7 -7v-482q0 -88 -46 -126t-165 -38h-6q-120 0 -166 38t-46 126z" />
<glyph unicode="V" horiz-adv-x="522" d="M497 645q9 0 6 -8l-213 -629q-3 -8 -9 -8h-40q-6 0 -9 8l-213 629q-3 8 6 8h37q6 0 8 -7l130 -382q39 -114 61 -199q19 73 60 199l130 382q2 7 9 7h37z" />
<glyph unicode="W" horiz-adv-x="819" d="M789 645q8 0 5 -9l-177 -629q-2 -7 -9 -7h-37q-6 0 -8 7l-105 373q-29 99 -49 194q-14 -70 -48 -194l-105 -373q-2 -7 -9 -7h-37q-6 0 -8 7l-178 629q-2 9 6 9h38q7 0 8 -7l104 -367q30 -105 49 -193q15 75 49 193l103 367q2 7 9 7h39q7 0 8 -7l104 -367q30 -105 49 -193 q15 75 49 193l103 367q3 7 9 7h38z" />
<glyph unicode="X" horiz-adv-x="489" d="M465 8q5 -8 -5 -8h-42q-6 0 -8 5l-165 271l-165 -271q-4 -5 -9 -5h-41q-10 0 -5 8l193 317l-189 312q-5 8 5 8h41q5 0 9 -5l161 -265l161 265q2 5 8 5h42q10 0 5 -8l-190 -311z" />
<glyph unicode="Y" horiz-adv-x="472" d="M459 645q10 0 5 -8l-203 -394v-236q0 -7 -8 -7h-35q-7 0 -7 7v234l-204 396q-3 8 6 8h38q5 0 8 -5l102 -199q52 -101 75 -161q27 68 74 161l103 199q3 5 8 5h38z" />
<glyph unicode="Z" horiz-adv-x="441" d="M407 46q7 0 7 -7v-32q0 -7 -7 -7h-373q-7 0 -7 7v28q0 5 3 10l258 452q43 74 65 102h-310q-7 0 -7 7v32q0 7 7 7h355q7 0 7 -7v-28q0 -2 -3 -10l-261 -456q-35 -61 -62 -98h328z" />
<glyph unicode="[" horiz-adv-x="270" d="M244 666h-111v-752h111q7 0 7 -7v-28q0 -7 -7 -7h-152q-7 0 -7 7v822q0 7 7 7h152q7 0 7 -7v-28q0 -7 -7 -7z" />
<glyph unicode="\" horiz-adv-x="364" d="M342 -72h-35q-7 0 -8 6l-283 758q-3 8 6 8h34q7 0 9 -6l283 -758q3 -8 -6 -8z" />
<glyph unicode="]" horiz-adv-x="270" d="M178 708q7 0 7 -7v-822q0 -7 -7 -7h-152q-7 0 -7 7v28q0 7 7 7h111v752h-111q-7 0 -7 7v28q0 7 7 7h152z" />
<glyph unicode="^" horiz-adv-x="430" d="M389 440q8 -10 -3 -10h-38q-5 0 -10 6l-123 167l-123 -167q-5 -6 -10 -6h-38q-4 0 -5.5 2.5t0.5 5.5l151 202q2 5 9 5h32q7 0 9 -5z" />
<glyph unicode="_" horiz-adv-x="353" d="M7 -92q-7 0 -7 7v32q0 7 7 7h339q7 0 7 -7v-32q0 -7 -7 -7h-339z" />
<glyph unicode="`" horiz-adv-x="532" d="M255 567q-6 0 -9 3l-105 98q-3 3 -1.5 5.5t6.5 2.5h43q6 0 9 -3l96 -97q4 -4 2.5 -6.5t-6.5 -2.5h-35z" />
<glyph unicode="a" horiz-adv-x="515" d="M259 505q99 0 140 -37.5t41 -120.5v-340q0 -7 -6 -7h-20q-6 0 -8 5l-15 31q-79 -44 -172 -44q-84 0 -124 34t-40 104v13q0 68 36.5 99t122.5 31h176v74q0 62 -27.5 86.5t-103.5 24.5h-6q-76 0 -103.5 -24.5t-27.5 -85.5v-3q0 -7 -8 -7h-34q-8 0 -8 7v3q0 83 41 120 t140 37h6zM105 130q0 -50 27 -72t91 -22q87 0 167 42v151h-180q-59 0 -82 -19.5t-23 -66.5v-13z" />
<glyph unicode="b" horiz-adv-x="531" d="M306 505q83 0 119 -39t36 -127v-182q0 -88 -36 -126.5t-119 -38.5q-90 0 -176 44l-16 -31q-2 -5 -7 -5h-20q-7 0 -7 7v686q0 7 7 7h36q7 0 7 -7v-233q85 45 176 45zM411 330q0 74 -24 101t-91 27q-88 0 -166 -39v-342q81 -39 166 -39q67 0 91 27.5t24 100.5v164z" />
<glyph unicode="c" horiz-adv-x="504" d="M70 153v191q0 86 42 123.5t145 37.5h6q102 0 144 -37.5t42 -123.5v-8q0 -7 -8 -7h-34q-8 0 -8 7v8q0 64 -28.5 89t-107.5 25h-6q-80 0 -108.5 -25t-28.5 -89v-191q0 -65 28.5 -90t108.5 -25h6q79 0 107.5 25t28.5 90v7q0 8 8 8h34q8 0 8 -8v-7q0 -86 -42 -123.5 t-144 -37.5h-6q-103 0 -145 37.5t-42 123.5z" />
<glyph unicode="d" horiz-adv-x="531" d="M444 700q7 0 7 -7v-686q0 -7 -7 -7h-19q-6 0 -8 5l-15 31q-86 -44 -176 -44q-84 0 -120 39t-36 126v182q0 88 36 127t120 39q91 0 175 -45v233q0 7 8 7h35zM120 166q0 -73 24 -100.5t91 -27.5q85 0 166 39v342q-78 39 -166 39q-67 0 -91 -27t-24 -101v-164z" />
<glyph unicode="e" horiz-adv-x="520" d="M448 242h-328v-89q0 -65 29 -90t111 -25h6q82 0 111 25t29 88v3q0 8 7 8h35q7 0 7 -8v-3q0 -85 -42 -122t-147 -37h-6q-105 0 -147.5 37.5t-42.5 123.5v191q0 86 42.5 123.5t147.5 37.5h6q105 0 147 -37.5t42 -123.5v-95q0 -7 -7 -7zM260 458q-82 0 -111 -25t-29 -89v-59 h286v59q0 64 -29 89t-111 25h-6z" />
<glyph unicode="f" horiz-adv-x="309" d="M302 708q7 0 7 -7v-29q0 -8 -7 -8h-45q-59 0 -77.5 -21.5t-18.5 -89.5v-56h137q7 0 7 -8v-29q0 -7 -7 -7h-137v-446q0 -7 -7 -7h-36q-7 0 -7 7v446h-92q-7 0 -7 7v15q0 7 10 8l89 10v55q0 92 30 126t111 34h50z" />
<glyph unicode="g" horiz-adv-x="507" d="M352 45q70 0 99.5 -26.5t29.5 -88.5v-22q0 -66 -44 -91.5t-170 -25.5h-7q-124 0 -167.5 25.5t-43.5 91.5v15q0 76 49 98q-33 23 -33 68v7q0 62 52 82q-52 31 -52 122v59q0 80 40 113t146 33h222q7 0 7 -7v-17q0 -7 -8 -7l-96 -7q39 -9 53.5 -33.5t14.5 -74.5v-59 q0 -80 -40.5 -113t-146.5 -33h-6q-57 0 -94 9q-45 -12 -45 -63v-8q0 -26 16 -36.5t62 -10.5h162zM114 359v-59q0 -60 26.5 -80.5t110.5 -20.5h6q84 0 111 20.5t27 80.5v59q0 60 -27 80.5t-111 20.5h-6q-84 0 -110.5 -20.5t-26.5 -80.5zM432 -92v22q0 43 -17.5 57t-74.5 14 h-156q-27 0 -52 5q-35 -18 -35 -79v-19q0 -44 30 -58t133 -14h7q105 0 135 14t30 58z" />
<glyph unicode="h" horiz-adv-x="534" d="M304 505q83 0 119 -39t36 -127v-332q0 -7 -7 -7h-35q-8 0 -8 7v323q0 74 -24 101t-91 27q-85 0 -164 -38v-413q0 -7 -7 -7h-36q-7 0 -7 7v686q0 7 7 7h36q7 0 7 -7v-232q85 44 174 44z" />
<glyph unicode="i" horiz-adv-x="211" d="M87 585q-7 0 -7 7v77q0 7 7 7h36q8 0 8 -7v-77q0 -7 -8 -7h-36zM88 0q-8 0 -8 7v482q0 8 8 8h35q7 0 7 -8v-482q0 -7 -7 -7h-35z" />
<glyph unicode="j" horiz-adv-x="210" d="M87 585q-7 0 -7 7v77q0 7 7 7h36q7 0 7 -7v-77q0 -7 -7 -7h-36zM-27 -208q-8 0 -8 7v31q0 7 8 7h16q54 0 72.5 21.5t18.5 87.5v543q0 8 7 8h36q7 0 7 -8v-551q0 -83 -30 -114.5t-109 -31.5h-18z" />
<glyph unicode="k" horiz-adv-x="470" d="M449 8q5 -8 -4 -8h-43q-6 0 -9 5l-151 259l-112 -124v-133q0 -7 -7 -7h-36q-7 0 -7 7v686q0 7 7 7h36q7 0 7 -7v-488l255 288q3 4 9 4h44q11 0 3 -10l-165 -185z" />
<glyph unicode="l" horiz-adv-x="210" d="M87 0q-7 0 -7 7v686q0 7 7 7h36q7 0 7 -7v-686q0 -7 -7 -7h-36z" />
<glyph unicode="m" horiz-adv-x="823" d="M598 505q79 0 114.5 -39t35.5 -127v-332q0 -7 -7 -7h-36q-7 0 -7 7v323q0 74 -23 101t-87 27q-84 0 -156 -42q9 -31 9 -77v-332q0 -7 -7 -7h-35q-8 0 -8 7v323q0 74 -23 101t-86 27q-78 0 -152 -39v-412q0 -7 -7 -7h-36q-7 0 -7 7v482q0 8 7 8h20q5 0 7 -5l16 -31 q78 44 162 44q93 0 126 -55q86 55 180 55z" />
<glyph unicode="n" horiz-adv-x="534" d="M304 505q83 0 119 -39t36 -127v-332q0 -7 -7 -7h-35q-8 0 -8 7v323q0 74 -24 101t-91 27q-85 0 -164 -38v-413q0 -7 -7 -7h-36q-7 0 -7 7v482q0 8 7 8h20q5 0 7 -5l15 -31q86 44 175 44z" />
<glyph unicode="o" d="M70 153v191q0 86 42.5 123.5t149.5 37.5h6q106 0 148.5 -37.5t42.5 -123.5v-191q0 -86 -42.5 -123.5t-148.5 -37.5h-6q-107 0 -149.5 37.5t-42.5 123.5zM120 153q0 -65 29.5 -90t112.5 -25h6q83 0 112 25t29 90v191q0 65 -29 89.5t-112 24.5h-6q-84 0 -113 -24.5 t-29 -89.5v-191z" />
<glyph unicode="p" horiz-adv-x="531" d="M306 505q83 0 119 -39t36 -127v-182q0 -88 -36 -126.5t-119 -38.5q-90 0 -176 44v-229q0 -7 -7 -7h-36q-7 0 -7 7v682q0 8 7 8h19q6 0 8 -5l15 -32q87 45 177 45zM411 330q0 74 -24 101t-91 27q-88 0 -166 -39v-342q81 -39 166 -39q67 0 91 27.5t24 100.5v164z" />
<glyph unicode="q" horiz-adv-x="531" d="M444 497q7 0 7 -8v-682q0 -7 -7 -7h-35q-8 0 -8 7v229q-85 -44 -175 -44q-84 0 -120 39t-36 126v182q0 88 36 127t120 39q91 0 176 -45l15 32q2 5 8 5h19zM235 38q85 0 166 39v342q-78 39 -166 39q-67 0 -91 -27t-24 -101v-164q0 -73 24 -100.5t91 -27.5z" />
<glyph unicode="r" horiz-adv-x="313" d="M291 505q7 0 7 -8v-31q0 -8 -7 -8h-10q-96 0 -151 -55v-396q0 -7 -7 -7h-36q-7 0 -7 7v482q0 8 7 8h19q6 0 9 -8l14 -43q59 59 152 59h10z" />
<glyph unicode="s" horiz-adv-x="470" d="M50 118v36q0 8 7 8h35q7 0 7 -8v-36q0 -42 30 -61t104 -19h6q73 0 102 19t29 61v15q0 34 -14.5 50t-60.5 29l-132 37q-60 18 -83 43.5t-23 71.5v15q0 62 41 94t134 32h6q92 0 133.5 -32t41.5 -94v-36q0 -8 -7 -8h-35q-7 0 -7 8v36q0 42 -28 60.5t-98 18.5h-6 q-71 0 -98 -18.5t-27 -60.5v-15q0 -30 15 -44.5t63 -27.5l132 -38q58 -15 80.5 -43t22.5 -78v-15q0 -63 -42 -94.5t-139 -31.5h-6q-97 0 -140 32t-43 94z" />
<glyph unicode="t" horiz-adv-x="322" d="M289 41q7 0 7 -7v-31q0 -7 -7 -7h-44q-79 0 -109.5 31t-30.5 114v312h-88q-7 0 -7 7v15q0 7 8 8l87 10v145q0 7 7 7h36q7 0 7 -7v-141h132q7 0 7 -8v-29q0 -7 -7 -7h-132v-305q0 -65 18.5 -86t73.5 -21h42z" />
<glyph unicode="u" horiz-adv-x="530" d="M443 497q7 0 7 -8v-482q0 -7 -7 -7h-19q-6 0 -9 6l-14 30q-83 -44 -173 -44q-82 0 -117.5 38.5t-35.5 126.5v332q0 8 7 8h36q7 0 7 -8v-323q0 -74 23.5 -101t89.5 -27q81 0 162 38v413q0 8 8 8h35z" />
<glyph unicode="v" horiz-adv-x="447" d="M427 497q9 0 6 -8l-181 -483q-2 -6 -8 -6h-41q-6 0 -8 6l-181 483q-3 8 6 8h38q6 0 8 -6l91 -245q44 -120 67 -197q22 77 66 197l91 245q1 6 8 6h38z" />
<glyph unicode="w" horiz-adv-x="719" d="M694 497q8 0 5 -8l-151 -482q-2 -7 -9 -7h-43q-6 0 -8 7l-72 230q-35 105 -56 203q-21 -92 -56 -203l-73 -230q-2 -7 -8 -7h-43q-6 0 -8 7l-152 482q-3 8 6 8h37q6 0 8 -7l75 -238q39 -128 55 -199q17 77 56 199l75 238q2 7 8 7h39q7 0 9 -7l74 -238q39 -122 56 -199 q19 83 56 199l74 238q2 7 9 7h37z" />
<glyph unicode="x" horiz-adv-x="427" d="M407 10q7 -10 -4 -10h-41q-4 0 -8 4l-141 209l-140 -208q-4 -5 -8 -5h-41q-11 0 -4 10l164 243l-157 233q-3 4 -1.5 7.5t5.5 3.5h41q4 0 8 -5l134 -199l133 199q4 5 8 5h41q11 0 4 -11l-157 -233z" />
<glyph unicode="y" horiz-adv-x="442" d="M426 497q9 0 6 -8l-257 -685q-2 -6 -8 -6h-37q-9 0 -6 8l72 191l-182 492q-3 8 6 8h37q6 0 8 -6l92 -246q45 -126 66 -197q31 103 67 198l91 245q2 6 8 6h37z" />
<glyph unicode="z" horiz-adv-x="406" d="M367 46q7 0 7 -7v-32q0 -7 -7 -7h-328q-8 0 -8 7v30q0 3 3 9l237 355q25 37 39 49h-261q-8 0 -8 8v31q0 8 8 8h308q7 0 7 -8v-30q0 -5 -2 -9l-238 -356q-29 -39 -38 -48h281z" />
<glyph unicode="{" horiz-adv-x="302" d="M175 420q0 -69 -17.5 -96.5t-68.5 -33.5q51 -7 68.5 -34.5t17.5 -96.5v-134q0 -66 19 -88.5t74 -22.5h9q7 0 7 -7v-28q0 -7 -7 -7h-9q-80 0 -110.5 32t-30.5 116v143q0 63 -18 84t-72 21h-1q-8 0 -8 7v29q0 7 8 7h1q54 0 72 21t18 84v144q0 84 30.5 116t110.5 32h9 q7 0 7 -7v-28q0 -7 -7 -7h-9q-55 0 -74 -22.5t-19 -88.5v-135z" />
<glyph unicode="|" horiz-adv-x="216" d="M92 -80q-7 0 -7 7v791q0 7 7 7h32q7 0 7 -7v-791q0 -7 -7 -7h-32z" />
<glyph unicode="}" horiz-adv-x="302" d="M266 311q8 0 8 -7v-29q0 -7 -8 -7h-1q-54 0 -72 -21t-18 -84v-143q0 -84 -30.5 -116t-110.5 -32h-9q-7 0 -7 7v28q0 7 7 7h9q55 0 74 22.5t19 88.5v134q0 69 17.5 96.5t68.5 34.5q-51 6 -68.5 33.5t-17.5 96.5v135q0 66 -19 88.5t-74 22.5h-9q-7 0 -7 7v28q0 7 7 7h9 q80 0 110.5 -32t30.5 -116v-144q0 -63 18 -84t72 -21h1z" />
<glyph unicode="~" horiz-adv-x="500" d="M347 191q-40 0 -100.5 38t-96.5 38q-40 0 -88 -31q-4 -3 -6.5 -1.5t-2.5 5.5v29q0 6 5 9q53 35 95 35q40 0 100 -38t97 -38q41 0 88 31q4 3 6.5 1.5t2.5 -5.5v-29q0 -5 -7 -11q-51 -33 -93 -33z" />
<glyph unicode="&#xa1;" horiz-adv-x="214" d="M88 497h39q7 0 7 -7v-71q0 -7 -7 -7h-39q-8 0 -8 7v71q0 7 8 7zM97 322h20q7 0 7 -7l8 -456q0 -7 -7 -7h-36q-7 0 -7 7l8 456q0 7 7 7z" />
<glyph unicode="&#xa2;" horiz-adv-x="535" d="M420 404q-8 0 -8 7v8q0 61 -24.5 86t-91.5 28v-420q67 3 91.5 28.5t24.5 86.5v7q0 8 8 8h34q8 0 8 -8v-7q0 -81 -37.5 -119t-128.5 -42v-90q0 -7 -8 -7h-30q-7 0 -7 7v90q-92 4 -130 41.5t-38 119.5v191q0 82 38 119.5t130 41.5v88q0 7 7 7h30q8 0 8 -7v-88 q91 -4 128.5 -42t37.5 -119v-8q0 -7 -8 -7h-34zM133 228q0 -61 25 -86.5t93 -28.5v420q-68 -3 -93 -28t-25 -86v-191z" />
<glyph unicode="&#xa3;" horiz-adv-x="532" d="M471 174q8 0 8 -7v-6q0 -86 -43 -123.5t-142 -37.5h-243q-8 0 -8 7v32q0 7 8 7h55v249h-55q-8 0 -8 7v30q0 8 8 8h55v162q0 77 41.5 114t137.5 37h6q96 0 137 -37t41 -117v-43q0 -7 -8 -7h-34q-8 0 -8 7v43q0 59 -27.5 83.5t-100.5 24.5h-6q-73 0 -101 -24.5t-28 -82.5 v-160h212q8 0 8 -8v-30q0 -7 -8 -7h-212v-249h131q82 0 112 25t30 90v6q0 7 7 7h35z" />
<glyph unicode="&#xa4;" horiz-adv-x="551" d="M416 155l76 -113q5 -9 -5 -9h-38q-5 0 -9 5l-66 100q-37 -8 -85 -8h-27q-48 0 -85 8l-66 -100q-4 -5 -9 -5h-38q-10 0 -5 9l76 114q-48 30 -48 119v96q0 89 47 119l-75 113q-2 3 -0.5 6t5.5 3h38q5 0 9 -5l66 -99q37 8 85 8h27q48 0 85 -8l66 99q4 5 9 5h38q10 0 5 -9 l-75 -113q48 -30 48 -119v-96q0 -89 -49 -120zM262 176h27q76 0 101.5 20t25.5 79v96q0 59 -25.5 79t-101.5 20h-27q-75 0 -100.5 -20t-25.5 -79v-96q0 -59 25.5 -79t100.5 -20z" />
<glyph unicode="&#xa5;" horiz-adv-x="493" d="M450 645q9 0 6 -8l-166 -356h120q8 0 8 -7v-27q0 -8 -8 -8h-138v-89h138q8 0 8 -8v-27q0 -7 -8 -7h-138v-101q0 -7 -8 -7h-35q-7 0 -7 7v101h-139q-8 0 -8 7v27q0 8 8 8h139v89h-139q-8 0 -8 8v27q0 7 8 7h120l-166 356q-3 8 6 8h38q7 0 9 -5l157 -341l156 341q3 5 9 5 h38z" />
<glyph unicode="&#xa6;" horiz-adv-x="216" d="M92 395q-7 0 -7 7v316q0 7 7 7h32q7 0 7 -7v-316q0 -7 -7 -7h-32zM92 -80q-7 0 -7 7v296q0 7 7 7h32q7 0 7 -7v-296q0 -7 -7 -7h-32z" />
<glyph unicode="&#xa7;" horiz-adv-x="497" d="M391 283q-7 0 -7 8v24q0 35 -15 49.5t-60 20.5l-137 17q-58 7 -83.5 35t-25.5 81v8q0 65 41.5 96t140.5 31h6q99 0 140.5 -31t41.5 -96v-20q0 -7 -7 -7h-35q-7 0 -7 7v20q0 47 -26.5 64t-106.5 17h-6q-79 0 -105.5 -17t-26.5 -64v-8q0 -37 15.5 -51t65.5 -21l137 -18 q58 -7 80 -32t22 -81v-24q0 -8 -7 -8h-35zM245 -8q-99 0 -140.5 31t-41.5 96v20q0 7 8 7h34q8 0 8 -7v-20q0 -47 26 -64t106 -17h6q80 0 106 17t26 64v8q0 37 -15 51t-65 21l-137 18q-58 8 -80.5 32.5t-22.5 80.5v24q0 8 8 8h34q8 0 8 -8v-24q0 -36 15 -50t60 -20l137 -17 q57 -7 82.5 -35.5t25.5 -80.5v-8q0 -65 -41.5 -96t-140.5 -31h-6z" />
<glyph unicode="&#xa8;" d="M176 585q-7 0 -7 7v77q0 7 7 7h36q7 0 7 -7v-77q0 -7 -7 -7h-36zM318 585q-7 0 -7 7v77q0 7 7 7h36q7 0 7 -7v-77q0 -7 -7 -7h-36z" />
<glyph unicode="&#xa9;" horiz-adv-x="699" d="M347 -8q-111 0 -170.5 18t-80.5 52t-21 94v333q0 60 21 94t80.5 52t170.5 18h6q110 0 169.5 -18t80.5 -52t21 -94v-333q0 -60 -21 -94t-80.5 -52t-169.5 -18h-6zM347 32h6q95 0 145 14t67 39t17 72v333q0 46 -17 71t-67 38.5t-145 13.5h-6q-95 0 -145 -13.5t-67 -38.5 t-17 -71v-333q0 -47 17 -72t67 -39t145 -14zM348 139q-73 0 -105 26.5t-32 82.5v149q0 57 32 83.5t105 26.5h5q74 0 105.5 -26.5t31.5 -83.5v-16q0 -7 -7 -7h-27q-7 0 -7 7v16q0 39 -21 55.5t-75 16.5h-5q-53 0 -74 -16.5t-21 -55.5v-149q0 -38 21 -54.5t74 -16.5h5 q54 0 75 16.5t21 54.5v10q0 7 7 7h27q7 0 7 -7v-10q0 -57 -31.5 -83t-105.5 -26h-5z" />
<glyph unicode="&#xab;" horiz-adv-x="453" d="M79 245l132 -171q4 -5 -1 -10l-19 -19q-6 -5 -10 0l-153 195q-5 5 0 10l153 195q4 6 10 0l19 -19q5 -5 1 -10zM396 74q4 -5 -1 -10l-19 -19q-6 -5 -10 0l-153 195q-5 5 0 10l153 195q4 6 10 0l19 -19q5 -5 1 -10l-132 -171z" />
<glyph unicode="&#xac;" horiz-adv-x="500" d="M439 315q8 0 8 -7v-167q0 -8 -8 -8h-35q-7 0 -7 8v127h-336q-8 0 -8 8v32q0 7 8 7h378z" />
<glyph unicode="&#xad;" horiz-adv-x="333" d="M34 262q-7 0 -7 7v32q0 7 7 7h265q8 0 8 -7v-32q0 -7 -8 -7h-265z" />
<glyph unicode="&#xae;" horiz-adv-x="699" d="M353 653q110 0 169.5 -18t80.5 -52t21 -94v-333q0 -60 -21 -94t-80.5 -52t-169.5 -18h-6q-111 0 -170.5 18t-80.5 52t-21 94v333q0 60 21 94t80.5 52t170.5 18h6zM582 157v333q0 46 -17 71t-67 38.5t-145 13.5h-6q-95 0 -145 -13.5t-67 -38.5t-17 -71v-333q0 -47 17 -72 t67 -39t145 -14h6q95 0 145 14t67 39t17 72zM364 498q63 0 91.5 -24t28.5 -72v-28q0 -76 -72 -92l69 -126q5 -9 -5 -9h-29q-5 0 -8 5l-70 126h-5h-96v-124q0 -7 -7 -7h-28q-7 0 -7 7v337q0 7 7 7h131zM443 374v28q0 30 -17 44t-60 14h-98v-144h98q43 0 60 14t17 44z" />
<glyph unicode="&#xaf;" d="M165 585q-7 0 -7 7v28q0 7 7 7h199q7 0 7 -7v-28q0 -7 -7 -7h-199z" />
<glyph unicode="&#xb0;" horiz-adv-x="348" d="M161 390q-63 0 -90.5 26t-27.5 84v44q0 57 27.5 83t90.5 26h25q63 0 91 -26t28 -83v-44q0 -58 -28 -84t-91 -26h-25zM161 429h25q44 0 61 15t17 56v44q0 40 -17 55t-61 15h-25q-43 0 -60 -14.5t-17 -55.5v-44q0 -41 16.5 -56t60.5 -15z" />
<glyph unicode="&#xb1;" horiz-adv-x="500" d="M439 348q8 0 8 -8v-31q0 -8 -8 -8h-164v-148q0 -8 -7 -8h-35q-8 0 -8 8v148h-164q-8 0 -8 8v31q0 8 8 8h164v147q0 7 8 7h35q7 0 7 -7v-147h164zM439 46q8 0 8 -7v-32q0 -7 -8 -7h-378q-8 0 -8 7v32q0 7 8 7h378z" />
<glyph unicode="&#xb4;" d="M256 567q-12 0 -3 9l95 97q4 3 9 3h44q12 0 4 -8l-104 -98q-5 -3 -9 -3h-36z" />
<glyph unicode="&#xb6;" horiz-adv-x="594" d="M549 645q7 0 7 -7v-27q0 -8 -7 -8h-68v-596q0 -7 -7 -7h-36q-7 0 -7 7v596h-140v-596q0 -7 -7 -7h-35q-8 0 -8 7v287h-70q-69 0 -98.5 30.5t-29.5 99.5v90q0 70 29.5 100.5t98.5 30.5h378zM241 335v268h-70q-46 0 -64.5 -19t-18.5 -70v-90q0 -51 18.5 -70t64.5 -19h70z " />
<glyph unicode="&#xb7;" horiz-adv-x="141" d="M51 250q-8 0 -8 7v71q0 7 8 7h39q7 0 7 -7v-71q0 -7 -7 -7h-39z" />
<glyph unicode="&#xb8;" horiz-adv-x="532" d="M285 -71q42 0 59.5 -14.5t17.5 -48.5v-12q0 -34 -17.5 -48t-59.5 -14h-80q-8 0 -8 7v21q0 8 8 8h80q23 0 31 5.5t8 20.5v14q0 15 -8 20.5t-31 5.5h-79q-8 0 -7 9l20 110h37l-14 -84h43z" />
<glyph unicode="&#xbb;" horiz-adv-x="453" d="M240 250q5 -5 0 -10l-153 -195q-4 -5 -10 0l-19 19q-5 5 -1 10l132 171l-132 171q-4 5 1 10l19 19q6 6 10 0zM425 250q5 -5 0 -10l-153 -195q-4 -5 -10 0l-19 19q-5 5 -1 10l132 171l-132 171q-4 5 1 10l19 19q6 6 10 0z" />
<glyph unicode="&#xbc;" horiz-adv-x="601" d="M238 329q0 -7 -7 -7h-174q-7 0 -7 7v25q0 7 7 7h69v241l-60 -30q-8 -5 -8 6v25q0 6 6 9l57 30q4 3 13 3h28q7 0 7 -7v-277h62q7 0 7 -7v-25zM522 645q10 0 5 -9l-363 -630q-4 -6 -9 -6h-33q-8 0 -5 8l364 631q4 6 9 6h32zM544 110q7 0 7 -7v-22q0 -7 -7 -7h-32v-67 q0 -7 -7 -7h-26q-8 0 -8 7v67h-150q-7 0 -7 7v26q0 3 3 8l147 203q2 5 9 5h32q7 0 7 -7v-206h32zM360 110h111v153z" />
<glyph unicode="&#xbd;" horiz-adv-x="637" d="M238 329q0 -7 -7 -7h-174q-7 0 -7 7v25q0 7 7 7h69v241l-60 -30q-8 -5 -8 6v25q0 6 6 9l57 30q4 3 13 3h28q7 0 7 -7v-277h62q7 0 7 -7v-25zM520 645q10 0 5 -9l-363 -630q-4 -6 -9 -6h-33q-8 0 -5 8l364 631q4 6 9 6h32zM579 39q8 0 8 -7v-25q0 -7 -8 -7h-201q-7 0 -7 7 v74q0 35 15 52.5t54 26.5l62 13q27 7 34.5 16t7.5 33v21q0 27 -12 36t-50 9h-3q-38 0 -50.5 -9t-12.5 -36v-17q0 -8 -7 -8h-28q-7 0 -7 8v17q0 43 24 63.5t81 20.5h3q56 0 80 -20.5t24 -63.5v-21q0 -38 -14.5 -56.5t-54.5 -27.5l-63 -14q-26 -6 -33 -14t-7 -31v-40h165z" />
<glyph unicode="&#xbe;" horiz-adv-x="607" d="M160 325h-3q-59 0 -83 20.5t-24 65.5v13q0 8 7 8h28q7 0 7 -8v-13q0 -28 12.5 -37.5t52.5 -9.5h3q40 0 52.5 9.5t12.5 37.5v15q0 27 -12 36t-53 9h-32q-7 0 -7 7v23q0 7 7 7h31q39 0 50.5 9t11.5 36v14q0 28 -11.5 37.5t-49.5 9.5h-3q-37 0 -48.5 -9.5t-11.5 -37.5v-15 q0 -8 -8 -8h-27q-8 0 -8 8v15q0 46 23 66t80 20h3q57 0 80 -20t23 -66v-14q0 -30 -9.5 -44.5t-34.5 -18.5q28 -4 38 -18t10 -46v-15q0 -46 -23.5 -66t-83.5 -20zM529 645q10 0 5 -9l-363 -630q-4 -6 -9 -6h-33q-8 0 -5 8l364 631q4 6 9 6h32zM549 110q8 0 8 -7v-22 q0 -7 -8 -7h-31v-67q0 -7 -7 -7h-27q-7 0 -7 7v67h-150q-7 0 -7 7v26q0 5 3 8l146 203q4 5 10 5h32q7 0 7 -7v-206h31zM366 110h111v154z" />
<glyph unicode="&#xbf;" horiz-adv-x="429" d="M288 500q8 0 8 -7v-71q0 -7 -8 -7h-39q-7 0 -7 7v71q0 7 7 7h39zM388 51q8 0 8 -7v-33q0 -88 -40 -126t-138 -38h-6q-97 0 -138 37t-41 117v13q0 67 21 98t79 50l44 14q43 14 55 34t12 78v30q0 7 8 7h34q8 0 8 -7v-30q0 -73 -20 -104t-77 -49l-44 -14q-45 -14 -57.5 -34 t-12.5 -73v-13q0 -60 27 -84t102 -24h6q75 0 101.5 25.5t26.5 92.5v33q0 7 8 7h34z" />
<glyph unicode="&#xc0;" horiz-adv-x="526" d="M264 718l-105 98q-3 3 -1.5 5.5t6.5 2.5h43q6 0 9 -3l96 -97q4 -4 2.5 -6.5t-6.5 -2.5h-35q-6 0 -9 3zM507 8q3 -8 -6 -8h-37q-6 0 -8 6l-58 169h-269l-59 -170q-2 -5 -8 -5h-37q-9 0 -6 8l219 631q2 6 8 6h34q6 0 8 -6zM145 221h237l-61 175q-35 97 -58 183 q-23 -86 -58 -183z" />
<glyph unicode="&#xc1;" horiz-adv-x="526" d="M221 715q-12 0 -3 9l95 97q4 3 9 3h44q12 0 4 -8l-104 -98q-4 -3 -9 -3h-36zM507 8q3 -8 -6 -8h-37q-6 0 -8 6l-58 169h-269l-59 -170q-2 -5 -8 -5h-37q-9 0 -6 8l219 631q2 6 8 6h34q6 0 8 -6zM145 221h237l-61 175q-35 97 -58 183q-23 -86 -58 -183z" />
<glyph unicode="&#xc2;" horiz-adv-x="526" d="M153 715q-12 0 -5 9l90 97q3 3 9 3h31q6 0 9 -3l90 -97q4 -4 2.5 -6.5t-6.5 -2.5h-35q-6 0 -9 5l-66 75l-66 -75q-4 -5 -10 -5h-34zM507 8q3 -8 -6 -8h-37q-6 0 -8 6l-58 169h-269l-59 -170q-2 -5 -8 -5h-37q-9 0 -6 8l219 631q2 6 8 6h34q6 0 8 -6zM145 221h237l-61 175 q-35 97 -58 183q-23 -86 -58 -183z" />
<glyph unicode="&#xc3;" horiz-adv-x="526" d="M140 726q-8 0 -8 8v27q0 30 15 46.5t40 16.5q28 0 54 -19l66 -44q19 -12 31 -12q18 0 18 27v29q0 8 8 8h22q7 0 7 -8v-27q0 -30 -15 -46.5t-40 -16.5q-28 0 -54 19l-66 44q-18 12 -30 12q-19 0 -19 -27v-29q0 -8 -7 -8h-22zM507 8q3 -8 -6 -8h-37q-6 0 -8 6l-58 169h-269 l-59 -170q-2 -5 -8 -5h-37q-9 0 -6 8l219 631q2 6 8 6h34q6 0 8 -6zM145 221h237l-61 175q-35 97 -58 183q-23 -86 -58 -183z" />
<glyph unicode="&#xc4;" horiz-adv-x="526" d="M173 733q-7 0 -7 7v77q0 7 7 7h36q7 0 7 -7v-77q0 -7 -7 -7h-36zM315 733q-7 0 -7 7v77q0 7 7 7h36q7 0 7 -7v-77q0 -7 -7 -7h-36zM507 8q3 -8 -6 -8h-37q-6 0 -8 6l-58 169h-269l-59 -170q-2 -5 -8 -5h-37q-9 0 -6 8l219 631q2 6 8 6h34q6 0 8 -6zM145 221h237l-61 175 q-35 97 -58 183q-23 -86 -58 -183z" />
<glyph unicode="&#xc5;" horiz-adv-x="526" d="M262 708q-48 0 -65.5 13.5t-17.5 46.5v15q0 33 17.5 46t65.5 13h2q48 0 65.5 -13t17.5 -46v-15q0 -33 -17.5 -46.5t-65.5 -13.5h-2zM211 781v-12q0 -19 9 -25t42 -6h2q33 0 42 6t9 25v12q0 19 -9 25t-42 6h-2q-33 0 -42 -6t-9 -25zM507 8q3 -8 -6 -8h-37q-6 0 -8 6 l-58 169h-269l-59 -170q-2 -5 -8 -5h-37q-9 0 -6 8l219 631q2 6 8 6h34q6 0 8 -6zM145 221h237l-61 175q-35 97 -58 183q-23 -86 -58 -183z" />
<glyph unicode="&#xc6;" horiz-adv-x="813" d="M761 599h-303v-249h273q7 0 7 -7v-32q0 -7 -7 -7h-273v-258h303q7 0 7 -7v-32q0 -7 -7 -7h-346q-7 0 -7 7v165h-245l-90 -166q-2 -6 -9 -6h-39q-9 0 -6 9l342 631q2 5 8 5h392q7 0 7 -7v-32q0 -7 -7 -7zM188 218h220v381h-13z" />
<glyph unicode="&#xc7;" horiz-adv-x="559" d="M461 442q-7 0 -7 8v39q0 67 -32.5 92.5t-129.5 25.5h-6q-96 0 -128.5 -25.5t-32.5 -92.5v-333q0 -67 32.5 -92.5t128.5 -25.5h6q97 0 129.5 25.5t32.5 92.5v39q0 8 7 8h35q8 0 8 -8v-39q0 -88 -46.5 -126t-165.5 -38h-6h-8l-11 -63h43q42 0 59.5 -14.5t17.5 -48.5v-12 q0 -34 -17.5 -48t-59.5 -14h-80q-8 0 -8 7v21q0 8 8 8h80q23 0 31 5.5t8 20.5v14q0 15 -8 20.5t-31 5.5h-79q-9 0 -7 9l16 91q-92 7 -128.5 44.5t-36.5 117.5v333q0 88 46 126t165 38h6q119 0 165.5 -38t46.5 -126v-39q0 -8 -8 -8h-35z" />
<glyph unicode="&#xc8;" horiz-adv-x="491" d="M261 718l-105 98q-3 3 -1.5 5.5t6.5 2.5h43q6 0 9 -3l96 -97q4 -4 2.5 -6.5t-6.5 -2.5h-35q-6 0 -9 3zM438 599h-303v-249h273q7 0 7 -7v-32q0 -7 -7 -7h-273v-258h303q7 0 7 -7v-32q0 -7 -7 -7h-346q-7 0 -7 7v631q0 7 7 7h346q7 0 7 -7v-32q0 -7 -7 -7z" />
<glyph unicode="&#xc9;" horiz-adv-x="491" d="M218 715q-12 0 -3 9l95 97q4 3 9 3h44q12 0 4 -8l-104 -98q-5 -3 -9 -3h-36zM438 599h-303v-249h273q7 0 7 -7v-32q0 -7 -7 -7h-273v-258h303q7 0 7 -7v-32q0 -7 -7 -7h-346q-7 0 -7 7v631q0 7 7 7h346q7 0 7 -7v-32q0 -7 -7 -7z" />
<glyph unicode="&#xca;" horiz-adv-x="491" d="M150 715q-12 0 -5 9l90 97q3 3 9 3h31q6 0 9 -3l90 -97q4 -4 2.5 -6.5t-6.5 -2.5h-35q-6 0 -9 5l-66 75l-66 -75q-4 -5 -10 -5h-34zM438 599h-303v-249h273q7 0 7 -7v-32q0 -7 -7 -7h-273v-258h303q7 0 7 -7v-32q0 -7 -7 -7h-346q-7 0 -7 7v631q0 7 7 7h346q7 0 7 -7v-32 q0 -7 -7 -7z" />
<glyph unicode="&#xcb;" horiz-adv-x="491" d="M170 733q-7 0 -7 7v77q0 7 7 7h36q7 0 7 -7v-77q0 -7 -7 -7h-36zM312 733q-7 0 -7 7v77q0 7 7 7h36q7 0 7 -7v-77q0 -7 -7 -7h-36zM438 599h-303v-249h273q7 0 7 -7v-32q0 -7 -7 -7h-273v-258h303q7 0 7 -7v-32q0 -7 -7 -7h-346q-7 0 -7 7v631q0 7 7 7h346q7 0 7 -7v-32 q0 -7 -7 -7z" />
<glyph unicode="&#xcc;" horiz-adv-x="220" d="M120 715q-6 0 -9 3l-105 98q-3 3 -1.5 5.5t6.5 2.5h43q6 0 9 -3l96 -97q4 -4 2.5 -6.5t-6.5 -2.5h-35zM92 0q-7 0 -7 7v631q0 7 7 7h36q7 0 7 -7v-631q0 -7 -7 -7h-36z" />
<glyph unicode="&#xcd;" horiz-adv-x="220" d="M68 715q-12 0 -3 9l95 97q4 3 9 3h44q12 0 4 -8l-104 -98q-5 -3 -9 -3h-36zM92 0q-7 0 -7 7v631q0 7 7 7h36q7 0 7 -7v-631q0 -7 -7 -7h-36z" />
<glyph unicode="&#xce;" horiz-adv-x="220" d="M224 724q4 -4 2.5 -6.5t-6.5 -2.5h-35q-6 0 -9 5l-66 75l-66 -75q-4 -5 -10 -5h-34q-12 0 -5 9l90 97q3 3 9 3h31q6 0 9 -3zM128 645q7 0 7 -7v-631q0 -7 -7 -7h-36q-7 0 -7 7v631q0 7 7 7h36z" />
<glyph unicode="&#xcf;" horiz-adv-x="220" d="M20 733q-7 0 -7 7v77q0 7 7 7h36q7 0 7 -7v-77q0 -7 -7 -7h-36zM162 733q-7 0 -7 7v77q0 7 7 7h36q7 0 7 -7v-77q0 -7 -7 -7h-36zM92 0q-7 0 -7 7v631q0 7 7 7h36q7 0 7 -7v-631q0 -7 -7 -7h-36z" />
<glyph unicode="&#xd0;" horiz-adv-x="579" d="M305 645q109 0 154 -36.5t45 -117.5v-337q0 -81 -45 -117.5t-154 -36.5h-213q-7 0 -7 7v301h-58q-7 0 -7 8v23q0 7 7 7h58v292q0 7 7 7h213zM454 154v337q0 61 -33.5 84.5t-129.5 23.5h-156v-253h152q7 0 7 -7v-23q0 -8 -7 -8h-152v-262h156q96 0 129.5 23.5t33.5 84.5z " />
<glyph unicode="&#xd1;" horiz-adv-x="627" d="M191 726q-8 0 -8 8v27q0 30 15 46.5t40 16.5q28 0 54 -19l66 -44q20 -12 31 -12q18 0 18 27v29q0 8 8 8h22q7 0 7 -8v-27q0 -30 -15 -46.5t-40 -16.5q-28 0 -54 19l-66 44q-18 12 -30 12q-19 0 -19 -27v-29q0 -8 -7 -8h-22zM535 645q7 0 7 -7v-631q0 -7 -7 -7h-39 q-5 0 -9 5l-241 378q-82 129 -115 192q4 -72 4 -192v-376q0 -7 -7 -7h-36q-7 0 -7 7v631q0 7 7 7h39q5 0 9 -5l241 -378q72 -111 116 -192q-5 72 -5 192v376q0 7 8 7h35z" />
<glyph unicode="&#xd2;" horiz-adv-x="591" d="M306 715q-6 0 -9 3l-105 98q-3 3 -1.5 5.5t6.5 2.5h43q6 0 9 -3l96 -97q4 -4 2.5 -6.5t-6.5 -2.5h-35zM75 156v333q0 88 47 126t171 38h6q123 0 170 -38t47 -126v-333q0 -88 -47 -126t-170 -38h-6q-124 0 -171 38t-47 126zM125 156q0 -67 33.5 -92.5t134.5 -25.5h6 q101 0 134 25.5t33 92.5v333q0 67 -33 92.5t-134 25.5h-6q-101 0 -134.5 -25.5t-33.5 -92.5v-333z" />
<glyph unicode="&#xd3;" horiz-adv-x="591" d="M254 715q-12 0 -3 9l95 97q4 3 9 3h44q12 0 4 -8l-104 -98q-5 -3 -9 -3h-36zM75 156v333q0 88 47 126t171 38h6q123 0 170 -38t47 -126v-333q0 -88 -47 -126t-170 -38h-6q-124 0 -171 38t-47 126zM125 156q0 -67 33.5 -92.5t134.5 -25.5h6q101 0 134 25.5t33 92.5v333 q0 67 -33 92.5t-134 25.5h-6q-101 0 -134.5 -25.5t-33.5 -92.5v-333z" />
<glyph unicode="&#xd4;" horiz-adv-x="591" d="M186 715q-12 0 -5 9l90 97q3 3 9 3h31q6 0 9 -3l90 -97q4 -4 2.5 -6.5t-6.5 -2.5h-35q-6 0 -9 5l-66 75l-66 -75q-4 -5 -10 -5h-34zM299 653q123 0 170 -38t47 -126v-333q0 -88 -47 -126t-170 -38h-6q-124 0 -171 38t-47 126v333q0 88 47 126t171 38h6zM466 156v333 q0 67 -33 92.5t-134 25.5h-6q-101 0 -134.5 -25.5t-33.5 -92.5v-333q0 -67 33.5 -92.5t134.5 -25.5h6q101 0 134 25.5t33 92.5z" />
<glyph unicode="&#xd5;" horiz-adv-x="591" d="M371 715q-28 0 -54 19l-66 44q-18 12 -30 12q-19 0 -19 -27v-29q0 -8 -7 -8h-22q-8 0 -8 8v27q0 30 15 46.5t40 16.5q28 0 54 -19l66 -44q20 -12 31 -12q18 0 18 27v29q0 8 8 8h22q7 0 7 -8v-27q0 -30 -15 -46.5t-40 -16.5zM75 156v333q0 88 47 126t171 38h6 q123 0 170 -38t47 -126v-333q0 -88 -47 -126t-170 -38h-6q-124 0 -171 38t-47 126zM125 156q0 -67 33.5 -92.5t134.5 -25.5h6q101 0 134 25.5t33 92.5v333q0 67 -33 92.5t-134 25.5h-6q-101 0 -134.5 -25.5t-33.5 -92.5v-333z" />
<glyph unicode="&#xd6;" horiz-adv-x="591" d="M206 733q-7 0 -7 7v77q0 7 7 7h36q7 0 7 -7v-77q0 -7 -7 -7h-36zM348 733q-7 0 -7 7v77q0 7 7 7h36q7 0 7 -7v-77q0 -7 -7 -7h-36zM75 156v333q0 88 47 126t171 38h6q123 0 170 -38t47 -126v-333q0 -88 -47 -126t-170 -38h-6q-124 0 -171 38t-47 126zM125 156 q0 -67 33.5 -92.5t134.5 -25.5h6q101 0 134 25.5t33 92.5v333q0 67 -33 92.5t-134 25.5h-6q-101 0 -134.5 -25.5t-33.5 -92.5v-333z" />
<glyph unicode="&#xd7;" horiz-adv-x="500" d="M284 249l123 -123q5 -6 0 -11l-22 -22q-5 -5 -11 0l-123 123l-125 -125q-5 -5 -10 0l-25 25q-5 6 0 11l125 124l-123 123q-6 6 -1 11l23 23q5 6 11 0l123 -123l124 123q5 5 10 0l26 -25q5 -5 0 -10z" />
<glyph unicode="&#xd8;" horiz-adv-x="591" d="M465 619q51 -37 51 -130v-333q0 -88 -47 -126t-170 -38h-6q-86 0 -131 17l-25 -51q-3 -5 -9 -5h-27q-10 0 -6 8l32 65q-52 37 -52 130v333q0 88 47 126t171 38h6q85 0 130 -17l25 50q2 5 9 5h27q10 0 6 -9zM125 156q0 -60 25 -85l258 523q-36 13 -109 13h-6 q-101 0 -134.5 -25.5t-33.5 -92.5v-333zM466 156v333q0 60 -24 85l-259 -523q36 -13 110 -13h6q101 0 134 25.5t33 92.5z" />
<glyph unicode="&#xd9;" horiz-adv-x="589" d="M305 715q-6 0 -9 3l-105 98q-3 3 -1.5 5.5t6.5 2.5h43q6 0 9 -3l96 -97q4 -4 2.5 -6.5t-6.5 -2.5h-35zM80 156v482q0 7 7 7h36q7 0 7 -7v-482q0 -67 32.5 -92.5t129.5 -25.5h6q96 0 128.5 25.5t32.5 92.5v482q0 7 8 7h35q7 0 7 -7v-482q0 -88 -46 -126t-165 -38h-6 q-120 0 -166 38t-46 126z" />
<glyph unicode="&#xda;" horiz-adv-x="589" d="M253 715q-12 0 -3 9l95 97q5 3 9 3h44q12 0 4 -8l-104 -98q-4 -3 -9 -3h-36zM80 156v482q0 7 7 7h36q7 0 7 -7v-482q0 -67 32.5 -92.5t129.5 -25.5h6q96 0 128.5 25.5t32.5 92.5v482q0 7 8 7h35q7 0 7 -7v-482q0 -88 -46 -126t-165 -38h-6q-120 0 -166 38t-46 126z" />
<glyph unicode="&#xdb;" horiz-adv-x="589" d="M185 715q-12 0 -5 9l90 97q3 3 9 3h31q6 0 9 -3l90 -97q4 -4 2.5 -6.5t-6.5 -2.5h-35q-6 0 -9 5l-66 75l-66 -75q-4 -5 -10 -5h-34zM502 645q7 0 7 -7v-482q0 -88 -46 -126t-165 -38h-6q-120 0 -166 38t-46 126v482q0 7 7 7h36q7 0 7 -7v-482q0 -67 32.5 -92.5 t129.5 -25.5h6q96 0 128.5 25.5t32.5 92.5v482q0 7 8 7h35z" />
<glyph unicode="&#xdc;" horiz-adv-x="589" d="M205 733q-7 0 -7 7v77q0 7 7 7h36q7 0 7 -7v-77q0 -7 -7 -7h-36zM347 733q-7 0 -7 7v77q0 7 7 7h36q7 0 7 -7v-77q0 -7 -7 -7h-36zM80 156v482q0 7 7 7h36q7 0 7 -7v-482q0 -67 32.5 -92.5t129.5 -25.5h6q96 0 128.5 25.5t32.5 92.5v482q0 7 8 7h35q7 0 7 -7v-482 q0 -88 -46 -126t-165 -38h-6q-120 0 -166 38t-46 126z" />
<glyph unicode="&#xdd;" horiz-adv-x="472" d="M194 715q-12 0 -3 9l95 97q4 3 9 3h44q12 0 4 -8l-104 -98q-5 -3 -9 -3h-36zM459 645q10 0 5 -8l-203 -394v-236q0 -7 -8 -7h-35q-7 0 -7 7v234l-204 396q-3 8 6 8h38q5 0 8 -5l102 -199q52 -101 75 -161q27 68 74 161l103 199q3 5 8 5h38z" />
<glyph unicode="&#xde;" horiz-adv-x="517" d="M304 532q95 0 137 -37t42 -117v-98q0 -80 -42 -117t-137 -37h-169v-119q0 -7 -7 -7h-36q-7 0 -7 7v631q0 7 7 7h36q7 0 7 -7v-106h169zM433 280v98q0 61 -30 84t-113 23h-155v-312h155q83 0 113 23t30 84z" />
<glyph unicode="&#xdf;" horiz-adv-x="554" d="M366 -8q-79 0 -115.5 31.5t-36.5 95.5v35q0 8 7 8h35q7 0 7 -8v-35q0 -45 23 -63t80 -18h6q57 0 79.5 18t22.5 63v23q0 34 -16.5 51.5t-68.5 35.5l-68 23q-53 18 -75 41t-22 60v15q0 63 68 93l62 28q38 16 52 31t14 38v26q0 40 -31.5 59t-101.5 19h-6q-88 0 -120 -29.5 t-32 -98.5v-527q0 -7 -7 -7h-35q-7 0 -7 7v527q0 93 46.5 133.5t154.5 40.5h6q182 0 182 -124v-26q0 -37 -20 -62t-70 -47l-60 -26q-46 -21 -46 -55v-15q0 -20 14 -31.5t58 -26.5l69 -24q61 -22 85 -50t24 -79v-23q0 -65 -36 -96t-115 -31h-6z" />
<glyph unicode="&#xe0;" horiz-adv-x="515" d="M260 570l-105 98q-3 3 -1.5 5.5t6.5 2.5h43q6 0 9 -3l96 -97q4 -4 2.5 -6.5t-6.5 -2.5h-35q-6 0 -9 3zM259 505q99 0 140 -37.5t41 -120.5v-340q0 -7 -6 -7h-20q-6 0 -8 5l-15 31q-79 -44 -172 -44q-84 0 -124 34t-40 104v13q0 68 36.5 99t122.5 31h176v74 q0 62 -27.5 86.5t-103.5 24.5h-6q-76 0 -103.5 -24.5t-27.5 -85.5v-3q0 -7 -8 -7h-34q-8 0 -8 7v3q0 83 41 120t140 37h6zM105 130q0 -50 27 -72t91 -22q87 0 167 42v151h-180q-59 0 -82 -19.5t-23 -66.5v-13z" />
<glyph unicode="&#xe1;" horiz-adv-x="515" d="M217 567q-12 0 -3 9l95 97q5 3 9 3h44q12 0 4 -8l-104 -98q-4 -3 -9 -3h-36zM259 505q99 0 140 -37.5t41 -120.5v-340q0 -7 -6 -7h-20q-6 0 -8 5l-15 31q-79 -44 -172 -44q-84 0 -124 34t-40 104v13q0 68 36.5 99t122.5 31h176v74q0 62 -27.5 86.5t-103.5 24.5h-6 q-76 0 -103.5 -24.5t-27.5 -85.5v-3q0 -7 -8 -7h-34q-8 0 -8 7v3q0 83 41 120t140 37h6zM105 130q0 -50 27 -72t91 -22q87 0 167 42v151h-180q-59 0 -82 -19.5t-23 -66.5v-13z" />
<glyph unicode="&#xe2;" horiz-adv-x="515" d="M149 567q-12 0 -5 9l90 97q3 3 9 3h31q6 0 9 -3l90 -97q4 -4 2.5 -6.5t-6.5 -2.5h-35q-6 0 -9 5l-66 75l-66 -75q-4 -5 -10 -5h-34zM259 505q99 0 140 -37.5t41 -120.5v-340q0 -7 -6 -7h-20q-6 0 -8 5l-15 31q-79 -44 -172 -44q-84 0 -124 34t-40 104v13q0 68 36.5 99 t122.5 31h176v74q0 62 -27.5 86.5t-103.5 24.5h-6q-76 0 -103.5 -24.5t-27.5 -85.5v-3q0 -7 -8 -7h-34q-8 0 -8 7v3q0 83 41 120t140 37h6zM105 130q0 -50 27 -72t91 -22q87 0 167 42v151h-180q-59 0 -82 -19.5t-23 -66.5v-13z" />
<glyph unicode="&#xe3;" horiz-adv-x="515" d="M136 578q-8 0 -8 8v27q0 30 15 46.5t40 16.5q28 0 54 -19l66 -44q19 -12 31 -12q18 0 18 27v29q0 8 8 8h22q7 0 7 -8v-27q0 -30 -15 -46.5t-40 -16.5q-28 0 -54 19l-66 44q-18 12 -30 12q-19 0 -19 -27v-29q0 -8 -7 -8h-22zM259 505q99 0 140 -37.5t41 -120.5v-340 q0 -7 -6 -7h-20q-6 0 -8 5l-15 31q-79 -44 -172 -44q-84 0 -124 34t-40 104v13q0 68 36.5 99t122.5 31h176v74q0 62 -27.5 86.5t-103.5 24.5h-6q-76 0 -103.5 -24.5t-27.5 -85.5v-3q0 -7 -8 -7h-34q-8 0 -8 7v3q0 83 41 120t140 37h6zM105 130q0 -50 27 -72t91 -22 q87 0 167 42v151h-180q-59 0 -82 -19.5t-23 -66.5v-13z" />
<glyph unicode="&#xe4;" horiz-adv-x="515" d="M169 585q-7 0 -7 7v77q0 7 7 7h36q7 0 7 -7v-77q0 -7 -7 -7h-36zM311 585q-7 0 -7 7v77q0 7 7 7h36q7 0 7 -7v-77q0 -7 -7 -7h-36zM259 505q99 0 140 -37.5t41 -120.5v-340q0 -7 -6 -7h-20q-6 0 -8 5l-15 31q-79 -44 -172 -44q-84 0 -124 34t-40 104v13q0 68 36.5 99 t122.5 31h176v74q0 62 -27.5 86.5t-103.5 24.5h-6q-76 0 -103.5 -24.5t-27.5 -85.5v-3q0 -7 -8 -7h-34q-8 0 -8 7v3q0 83 41 120t140 37h6zM105 130q0 -50 27 -72t91 -22q87 0 167 42v151h-180q-59 0 -82 -19.5t-23 -66.5v-13z" />
<glyph unicode="&#xe5;" horiz-adv-x="515" d="M258 560q-48 0 -65.5 13.5t-17.5 46.5v15q0 33 17.5 46t65.5 13h2q48 0 65.5 -13t17.5 -46v-15q0 -33 -17.5 -46.5t-65.5 -13.5h-2zM207 633v-12q0 -19 9 -25t42 -6h2q33 0 42 6t9 25v12q0 19 -9 25t-42 6h-2q-33 0 -42 -6t-9 -25zM259 505q99 0 140 -37.5t41 -120.5 v-340q0 -7 -6 -7h-20q-6 0 -8 5l-15 31q-79 -44 -172 -44q-84 0 -124 34t-40 104v13q0 68 36.5 99t122.5 31h176v74q0 62 -27.5 86.5t-103.5 24.5h-6q-76 0 -103.5 -24.5t-27.5 -85.5v-3q0 -7 -8 -7h-34q-8 0 -8 7v3q0 83 41 120t140 37h6zM105 130q0 -50 27 -72t91 -22 q87 0 167 42v151h-180q-59 0 -82 -19.5t-23 -66.5v-13z" />
<glyph unicode="&#xe6;" horiz-adv-x="817" d="M744 236h-314v-83q0 -64 28 -89.5t105 -25.5h6q77 0 105 25t28 88v3q0 7 8 7h34q8 0 8 -7v-3q0 -84 -41.5 -121.5t-141.5 -37.5h-6q-120 0 -159 58q-90 -58 -192 -58q-157 0 -157 139v12q0 68 37 99t121 31h167v71q0 64 -27 89t-99 25h-6q-72 0 -99 -25t-27 -88v-3 q0 -8 -8 -8h-34q-8 0 -8 8v3q0 84 40.5 122t135.5 38h6q120 0 152 -71q31 71 157 71h6q100 0 141.5 -37.5t41.5 -123.5v-100q0 -8 -8 -8zM563 458q-77 0 -105 -25t-28 -89v-64h272v64q0 64 -28 89t-105 25h-6zM218 36q87 0 170 50q-8 30 -8 67v77h-170q-58 0 -81.5 -20 t-23.5 -67v-12q0 -50 26.5 -72.5t86.5 -22.5z" />
<glyph unicode="&#xe7;" horiz-adv-x="504" d="M407 329q-8 0 -8 7v8q0 64 -28.5 89t-107.5 25h-6q-80 0 -108.5 -25t-28.5 -89v-191q0 -65 28.5 -90t108.5 -25h6q79 0 107.5 25t28.5 90v7q0 8 8 8h34q8 0 8 -8v-7q0 -86 -42 -123.5t-144 -37.5h-6h-8l-11 -63h43q42 0 59.5 -14.5t17.5 -48.5v-12q0 -34 -17.5 -48 t-59.5 -14h-80q-8 0 -8 7v21q0 8 8 8h80q23 0 31 5.5t8 20.5v14q0 15 -8 20.5t-31 5.5h-79q-8 0 -7 9l17 91q-77 7 -109.5 45t-32.5 114v191q0 86 42 123.5t145 37.5h6q102 0 144 -37.5t42 -123.5v-8q0 -7 -8 -7h-34z" />
<glyph unicode="&#xe8;" horiz-adv-x="520" d="M264 570l-105 98q-3 3 -1.5 5.5t6.5 2.5h43q6 0 9 -3l96 -97q4 -4 2.5 -6.5t-6.5 -2.5h-35q-6 0 -9 3zM448 242h-328v-89q0 -65 29 -90t111 -25h6q82 0 111 25t29 88v3q0 8 7 8h35q7 0 7 -8v-3q0 -85 -42 -122t-147 -37h-6q-105 0 -147.5 37.5t-42.5 123.5v191 q0 86 42.5 123.5t147.5 37.5h6q105 0 147 -37.5t42 -123.5v-95q0 -7 -7 -7zM260 458q-82 0 -111 -25t-29 -89v-59h286v59q0 64 -29 89t-111 25h-6z" />
<glyph unicode="&#xe9;" horiz-adv-x="520" d="M221 567q-12 0 -3 9l95 97q4 3 9 3h44q12 0 4 -8l-104 -98q-4 -3 -9 -3h-36zM448 242h-328v-89q0 -65 29 -90t111 -25h6q82 0 111 25t29 88v3q0 8 7 8h35q7 0 7 -8v-3q0 -85 -42 -122t-147 -37h-6q-105 0 -147.5 37.5t-42.5 123.5v191q0 86 42.5 123.5t147.5 37.5h6 q105 0 147 -37.5t42 -123.5v-95q0 -7 -7 -7zM260 458q-82 0 -111 -25t-29 -89v-59h286v59q0 64 -29 89t-111 25h-6z" />
<glyph unicode="&#xea;" horiz-adv-x="520" d="M153 567q-12 0 -5 9l90 97q3 3 9 3h31q6 0 9 -3l90 -97q4 -4 2.5 -6.5t-6.5 -2.5h-35q-6 0 -9 5l-66 75l-66 -75q-4 -5 -10 -5h-34zM448 242h-328v-89q0 -65 29 -90t111 -25h6q82 0 111 25t29 88v3q0 8 7 8h35q7 0 7 -8v-3q0 -85 -42 -122t-147 -37h-6 q-105 0 -147.5 37.5t-42.5 123.5v191q0 86 42.5 123.5t147.5 37.5h6q105 0 147 -37.5t42 -123.5v-95q0 -7 -7 -7zM260 458q-82 0 -111 -25t-29 -89v-59h286v59q0 64 -29 89t-111 25h-6z" />
<glyph unicode="&#xeb;" horiz-adv-x="520" d="M173 585q-7 0 -7 7v77q0 7 7 7h36q7 0 7 -7v-77q0 -7 -7 -7h-36zM315 585q-7 0 -7 7v77q0 7 7 7h36q7 0 7 -7v-77q0 -7 -7 -7h-36zM448 242h-328v-89q0 -65 29 -90t111 -25h6q82 0 111 25t29 88v3q0 8 7 8h35q7 0 7 -8v-3q0 -85 -42 -122t-147 -37h-6q-105 0 -147.5 37.5 t-42.5 123.5v191q0 86 42.5 123.5t147.5 37.5h6q105 0 147 -37.5t42 -123.5v-95q0 -7 -7 -7zM260 458q-82 0 -111 -25t-29 -89v-59h286v59q0 64 -29 89t-111 25h-6z" />
<glyph unicode="&#xec;" horiz-adv-x="210" d="M115 567q-6 0 -9 3l-105 98q-3 3 -1.5 5.5t6.5 2.5h43q6 0 9 -3l96 -97q4 -4 2.5 -6.5t-6.5 -2.5h-35zM87 0q-7 0 -7 7v482q0 8 7 8h36q7 0 7 -8v-482q0 -7 -7 -7h-36z" />
<glyph unicode="&#xed;" horiz-adv-x="210" d="M63 567q-12 0 -3 9l95 97q5 3 9 3h44q12 0 4 -8l-104 -98q-4 -3 -9 -3h-36zM87 0q-7 0 -7 7v482q0 8 7 8h36q7 0 7 -8v-482q0 -7 -7 -7h-36z" />
<glyph unicode="&#xee;" horiz-adv-x="210" d="M219 576q4 -4 2.5 -6.5t-6.5 -2.5h-35q-6 0 -9 5l-66 75l-66 -75q-4 -5 -10 -5h-34q-12 0 -5 9l90 97q3 3 9 3h31q6 0 9 -3zM123 497q7 0 7 -8v-482q0 -7 -7 -7h-36q-7 0 -7 7v482q0 8 7 8h36z" />
<glyph unicode="&#xef;" horiz-adv-x="210" d="M15 585q-7 0 -7 7v77q0 7 7 7h36q7 0 7 -7v-77q0 -7 -7 -7h-36zM157 585q-7 0 -7 7v77q0 7 7 7h36q7 0 7 -7v-77q0 -7 -7 -7h-36zM87 0q-7 0 -7 7v482q0 8 7 8h36q7 0 7 -8v-482q0 -7 -7 -7h-36z" />
<glyph unicode="&#xf0;" horiz-adv-x="537" d="M486 717q9 6 9 -4v-27q0 -6 -4 -9l-82 -60q53 -66 53 -190v-274q0 -86 -43 -123.5t-150 -37.5h-6q-107 0 -150 37.5t-43 123.5v143q0 86 38.5 125.5t120.5 39.5q92 0 183 -49v15q0 109 -40 162l-91 -67q-9 -5 -9 5v27q0 5 4 9l71 52q-58 48 -197 48h-3q-7 0 -7 7v31 q0 7 7 7h3q160 0 235 -65zM412 370q-85 45 -174 45q-66 0 -92 -27.5t-26 -100.5v-134q0 -65 29.5 -90t113.5 -25h6q84 0 113.5 25t29.5 90v217z" />
<glyph unicode="&#xf1;" horiz-adv-x="534" d="M146 578q-8 0 -8 8v27q0 30 15 46.5t40 16.5q28 0 54 -19l66 -44q19 -12 31 -12q18 0 18 27v29q0 8 8 8h22q7 0 7 -8v-27q0 -30 -15 -46.5t-40 -16.5q-28 0 -54 19l-66 44q-18 12 -30 12q-19 0 -19 -27v-29q0 -8 -7 -8h-22zM304 505q83 0 119 -39t36 -127v-332 q0 -7 -7 -7h-35q-8 0 -8 7v323q0 74 -24 101t-91 27q-85 0 -164 -38v-413q0 -7 -7 -7h-36q-7 0 -7 7v482q0 8 7 8h20q5 0 7 -5l15 -31q86 44 175 44z" />
<glyph unicode="&#xf2;" d="M275 567q-6 0 -9 3l-105 98q-3 3 -1.5 5.5t6.5 2.5h43q6 0 9 -3l96 -97q4 -4 2.5 -6.5t-6.5 -2.5h-35zM70 153v191q0 86 42.5 123.5t149.5 37.5h6q106 0 148.5 -37.5t42.5 -123.5v-191q0 -86 -42.5 -123.5t-148.5 -37.5h-6q-107 0 -149.5 37.5t-42.5 123.5zM120 153 q0 -65 29.5 -90t112.5 -25h6q83 0 112 25t29 90v191q0 65 -29 89.5t-112 24.5h-6q-84 0 -113 -24.5t-29 -89.5v-191z" />
<glyph unicode="&#xf3;" d="M223 567q-12 0 -3 9l95 97q5 3 9 3h44q12 0 4 -8l-104 -98q-4 -3 -9 -3h-36zM70 153v191q0 86 42.5 123.5t149.5 37.5h6q106 0 148.5 -37.5t42.5 -123.5v-191q0 -86 -42.5 -123.5t-148.5 -37.5h-6q-107 0 -149.5 37.5t-42.5 123.5zM120 153q0 -65 29.5 -90t112.5 -25h6 q83 0 112 25t29 90v191q0 65 -29 89.5t-112 24.5h-6q-84 0 -113 -24.5t-29 -89.5v-191z" />
<glyph unicode="&#xf4;" d="M155 567q-12 0 -5 9l90 97q3 3 9 3h31q6 0 9 -3l90 -97q4 -4 2.5 -6.5t-6.5 -2.5h-35q-6 0 -9 5l-66 75l-66 -75q-4 -5 -10 -5h-34zM268 505q106 0 148.5 -37.5t42.5 -123.5v-191q0 -86 -42.5 -123.5t-148.5 -37.5h-6q-107 0 -149.5 37.5t-42.5 123.5v191 q0 86 42.5 123.5t149.5 37.5h6zM409 153v191q0 65 -29 89.5t-112 24.5h-6q-84 0 -113 -24.5t-29 -89.5v-191q0 -65 29.5 -90t112.5 -25h6q83 0 112 25t29 90z" />
<glyph unicode="&#xf5;" d="M340 567q-28 0 -54 19l-66 44q-18 12 -30 12q-19 0 -19 -27v-29q0 -8 -7 -8h-22q-8 0 -8 8v27q0 30 15 46.5t40 16.5q28 0 54 -19l66 -44q20 -12 31 -12q18 0 18 27v29q0 8 8 8h22q7 0 7 -8v-27q0 -30 -15 -46.5t-40 -16.5zM70 153v191q0 86 42.5 123.5t149.5 37.5h6 q106 0 148.5 -37.5t42.5 -123.5v-191q0 -86 -42.5 -123.5t-148.5 -37.5h-6q-107 0 -149.5 37.5t-42.5 123.5zM120 153q0 -65 29.5 -90t112.5 -25h6q83 0 112 25t29 90v191q0 65 -29 89.5t-112 24.5h-6q-84 0 -113 -24.5t-29 -89.5v-191z" />
<glyph unicode="&#xf6;" d="M175 585q-7 0 -7 7v77q0 7 7 7h36q7 0 7 -7v-77q0 -7 -7 -7h-36zM317 585q-7 0 -7 7v77q0 7 7 7h36q7 0 7 -7v-77q0 -7 -7 -7h-36zM70 153v191q0 86 42.5 123.5t149.5 37.5h6q106 0 148.5 -37.5t42.5 -123.5v-191q0 -86 -42.5 -123.5t-148.5 -37.5h-6q-107 0 -149.5 37.5 t-42.5 123.5zM120 153q0 -65 29.5 -90t112.5 -25h6q83 0 112 25t29 90v191q0 65 -29 89.5t-112 24.5h-6q-84 0 -113 -24.5t-29 -89.5v-191z" />
<glyph unicode="&#xf7;" horiz-adv-x="500" d="M230 373q-7 0 -7 8v68q0 8 7 8h40q8 0 8 -8v-68q0 -8 -8 -8h-40zM61 228q-8 0 -8 8v31q0 8 8 8h378q8 0 8 -8v-31q0 -8 -8 -8h-378zM230 43q-7 0 -7 8v68q0 8 7 8h40q8 0 8 -8v-68q0 -8 -8 -8h-40z" />
<glyph unicode="&#xf8;" d="M400 479q59 -34 59 -135v-191q0 -86 -42.5 -123.5t-148.5 -37.5h-6q-56 0 -97 11l-22 -44q-3 -5 -9 -5h-27q-9 0 -6 8l28 56q-59 34 -59 135v191q0 86 42.5 123.5t149.5 37.5h6q57 0 96 -11l22 44q2 5 9 5h27q11 0 6 -8zM120 153q0 -67 31 -91l192 389q-28 7 -75 7h-6 q-84 0 -113 -24.5t-29 -89.5v-191zM409 153v191q0 67 -31 91l-192 -389q25 -8 76 -8h6q83 0 112 25t29 90z" />
<glyph unicode="&#xf9;" horiz-adv-x="530" d="M263 570l-105 98q-3 3 -1.5 5.5t6.5 2.5h43q6 0 9 -3l96 -97q4 -4 2.5 -6.5t-6.5 -2.5h-35q-6 0 -9 3zM443 497q7 0 7 -8v-482q0 -7 -7 -7h-19q-6 0 -9 6l-14 30q-83 -44 -173 -44q-82 0 -117.5 38.5t-35.5 126.5v332q0 8 7 8h36q7 0 7 -8v-323q0 -74 23.5 -101t89.5 -27 q81 0 162 38v413q0 8 8 8h35z" />
<glyph unicode="&#xfa;" horiz-adv-x="530" d="M220 567q-12 0 -3 9l95 97q4 3 9 3h44q12 0 4 -8l-104 -98q-5 -3 -9 -3h-36zM443 497q7 0 7 -8v-482q0 -7 -7 -7h-19q-6 0 -9 6l-14 30q-83 -44 -173 -44q-82 0 -117.5 38.5t-35.5 126.5v332q0 8 7 8h36q7 0 7 -8v-323q0 -74 23.5 -101t89.5 -27q81 0 162 38v413q0 8 8 8 h35z" />
<glyph unicode="&#xfb;" horiz-adv-x="530" d="M152 567q-12 0 -5 9l90 97q3 3 9 3h31q6 0 9 -3l90 -97q4 -4 2.5 -6.5t-6.5 -2.5h-35q-6 0 -9 5l-66 75l-66 -75q-4 -5 -10 -5h-34zM443 497q7 0 7 -8v-482q0 -7 -7 -7h-19q-6 0 -9 6l-14 30q-83 -44 -173 -44q-82 0 -117.5 38.5t-35.5 126.5v332q0 8 7 8h36q7 0 7 -8 v-323q0 -74 23.5 -101t89.5 -27q81 0 162 38v413q0 8 8 8h35z" />
<glyph unicode="&#xfc;" horiz-adv-x="530" d="M172 585q-7 0 -7 7v77q0 7 7 7h36q7 0 7 -7v-77q0 -7 -7 -7h-36zM314 585q-7 0 -7 7v77q0 7 7 7h36q7 0 7 -7v-77q0 -7 -7 -7h-36zM443 497q7 0 7 -8v-482q0 -7 -7 -7h-19q-6 0 -9 6l-14 30q-83 -44 -173 -44q-82 0 -117.5 38.5t-35.5 126.5v332q0 8 7 8h36q7 0 7 -8 v-323q0 -74 23.5 -101t89.5 -27q81 0 162 38v413q0 8 8 8h35z" />
<glyph unicode="&#xfd;" horiz-adv-x="442" d="M182 567q-12 0 -3 9l95 97q4 3 9 3h44q12 0 4 -8l-104 -98q-5 -3 -9 -3h-36zM426 497q9 0 6 -8l-257 -685q-2 -6 -8 -6h-37q-9 0 -6 8l72 191l-182 492q-3 8 6 8h37q6 0 8 -6l92 -246q45 -126 66 -197q31 103 67 198l91 245q2 6 8 6h37z" />
<glyph unicode="&#xfe;" horiz-adv-x="531" d="M306 505q83 0 119 -39t36 -127v-182q0 -88 -36 -126.5t-119 -38.5q-90 0 -176 44v-229q0 -7 -7 -7h-36q-7 0 -7 7v886q0 7 7 7h36q7 0 7 -7v-233q85 45 176 45zM411 330q0 74 -24 101t-91 27q-88 0 -166 -39v-342q81 -39 166 -39q67 0 91 27.5t24 100.5v164z" />
<glyph unicode="&#xff;" horiz-adv-x="442" d="M134 585q-7 0 -7 7v77q0 7 7 7h36q7 0 7 -7v-77q0 -7 -7 -7h-36zM276 585q-7 0 -7 7v77q0 7 7 7h36q7 0 7 -7v-77q0 -7 -7 -7h-36zM426 497q9 0 6 -8l-257 -685q-2 -6 -8 -6h-37q-9 0 -6 8l72 191l-182 492q-3 8 6 8h37q6 0 8 -6l92 -246q45 -126 66 -197q31 103 67 198 l91 245q2 6 8 6h37z" />
<glyph unicode="&#x100;" horiz-adv-x="526" d="M163 733q-7 0 -7 7v28q0 7 7 7h199q7 0 7 -7v-28q0 -7 -7 -7h-199zM507 8q3 -8 -6 -8h-37q-6 0 -8 6l-58 169h-269l-59 -170q-2 -5 -8 -5h-37q-9 0 -6 8l219 631q2 6 8 6h34q6 0 8 -6zM145 221h237l-61 175q-35 97 -58 183q-23 -86 -58 -183z" />
<glyph unicode="&#x101;" horiz-adv-x="515" d="M159 585q-7 0 -7 7v28q0 7 7 7h199q7 0 7 -7v-28q0 -7 -7 -7h-199zM259 505q99 0 140 -37.5t41 -120.5v-340q0 -7 -6 -7h-20q-6 0 -8 5l-15 31q-79 -44 -172 -44q-84 0 -124 34t-40 104v13q0 68 36.5 99t122.5 31h176v74q0 62 -27.5 86.5t-103.5 24.5h-6 q-76 0 -103.5 -24.5t-27.5 -85.5v-3q0 -7 -8 -7h-34q-8 0 -8 7v3q0 83 41 120t140 37h6zM105 130q0 -50 27 -72t91 -22q87 0 167 42v151h-180q-59 0 -82 -19.5t-23 -66.5v-13z" />
<glyph unicode="&#x102;" horiz-adv-x="526" d="M261 712q-56 0 -79 19.5t-23 65.5v20q0 7 8 7h24q7 0 7 -7v-20q0 -30 12.5 -40.5t50.5 -10.5h4q38 0 50 10.5t12 40.5v20q0 7 8 7h24q7 0 7 -7v-20q0 -46 -22.5 -65.5t-78.5 -19.5h-4zM507 8q3 -8 -6 -8h-37q-6 0 -8 6l-58 169h-269l-59 -170q-2 -5 -8 -5h-37q-9 0 -6 8 l219 631q2 6 8 6h34q6 0 8 -6zM145 221h237l-61 175q-35 97 -58 183q-23 -86 -58 -183z" />
<glyph unicode="&#x103;" horiz-adv-x="515" d="M257 564q-56 0 -79 19.5t-23 65.5v20q0 7 8 7h24q7 0 7 -7v-20q0 -30 12.5 -40.5t50.5 -10.5h4q38 0 50 10.5t12 40.5v20q0 7 8 7h24q7 0 7 -7v-20q0 -46 -22.5 -65.5t-78.5 -19.5h-4zM259 505q99 0 140 -37.5t41 -120.5v-340q0 -7 -6 -7h-20q-6 0 -8 5l-15 31 q-79 -44 -172 -44q-84 0 -124 34t-40 104v13q0 68 36.5 99t122.5 31h176v74q0 62 -27.5 86.5t-103.5 24.5h-6q-76 0 -103.5 -24.5t-27.5 -85.5v-3q0 -7 -8 -7h-34q-8 0 -8 7v3q0 83 41 120t140 37h6zM105 130q0 -50 27 -72t91 -22q87 0 167 42v151h-180q-59 0 -82 -19.5 t-23 -66.5v-13z" />
<glyph unicode="&#x104;" horiz-adv-x="526" d="M502 -170q8 0 8 -7v-24q0 -7 -8 -7h-35q-50 0 -72.5 18.5t-22.5 57.5v6q0 25 11 43t47 51l34 32q-6 0 -8 6l-58 169h-269l-59 -170q-2 -5 -8 -5h-37q-9 0 -6 8l219 631q2 6 8 6h34q6 0 8 -6l219 -631q3 -8 -3 -14l-43 -43q-31 -31 -39 -44t-8 -33v-6q0 -22 10.5 -30 t42.5 -8h35zM145 221h237l-61 175q-35 97 -58 183q-23 -86 -58 -183z" />
<glyph unicode="&#x105;" horiz-adv-x="515" d="M392 -49q-31 -31 -39 -44t-8 -33v-6q0 -22 10.5 -30t42.5 -8h35q8 0 8 -7v-24q0 -7 -8 -7h-35q-50 0 -72.5 18.5t-22.5 57.5v6q0 25 11 43t47 51l43 40l-13 28q-79 -44 -172 -44q-84 0 -124 34t-40 104v13q0 68 36.5 99t122.5 31h176v74q0 62 -27.5 86.5t-103.5 24.5h-6 q-76 0 -103.5 -24.5t-27.5 -85.5v-3q0 -7 -8 -7h-34q-8 0 -8 7v3q0 83 41 120t140 37h6q99 0 140 -37.5t41 -120.5v-326h1v-13q0 -8 -6 -14zM105 130q0 -50 27 -72t91 -22q87 0 167 42v151h-180q-59 0 -82 -19.5t-23 -66.5v-13z" />
<glyph unicode="&#x106;" horiz-adv-x="559" d="M247 715q-12 0 -3 9l95 97q5 3 9 3h44q12 0 4 -8l-104 -98q-4 -3 -9 -3h-36zM286 -8q-119 0 -165 38t-46 126v333q0 88 46 126t165 38h6q119 0 165.5 -38t46.5 -126v-39q0 -8 -8 -8h-35q-7 0 -7 8v39q0 67 -32.5 92.5t-129.5 25.5h-6q-96 0 -128.5 -25.5t-32.5 -92.5 v-333q0 -67 32.5 -92.5t128.5 -25.5h6q97 0 129.5 25.5t32.5 92.5v39q0 8 7 8h35q8 0 8 -8v-39q0 -88 -46.5 -126t-165.5 -38h-6z" />
<glyph unicode="&#x107;" horiz-adv-x="504" d="M218 567q-12 0 -3 9l95 97q4 3 9 3h44q12 0 4 -8l-104 -98q-5 -3 -9 -3h-36zM70 153v191q0 86 42 123.5t145 37.5h6q102 0 144 -37.5t42 -123.5v-8q0 -7 -8 -7h-34q-8 0 -8 7v8q0 64 -28.5 89t-107.5 25h-6q-80 0 -108.5 -25t-28.5 -89v-191q0 -65 28.5 -90t108.5 -25h6 q79 0 107.5 25t28.5 90v7q0 8 8 8h34q8 0 8 -8v-7q0 -86 -42 -123.5t-144 -37.5h-6q-103 0 -145 37.5t-42 123.5z" />
<glyph unicode="&#x108;" horiz-adv-x="559" d="M179 715q-12 0 -5 9l90 97q3 3 9 3h31q6 0 9 -3l90 -97q4 -4 2.5 -6.5t-6.5 -2.5h-35q-6 0 -9 5l-66 75l-66 -75q-4 -5 -10 -5h-34zM461 442q-7 0 -7 8v39q0 67 -32.5 92.5t-129.5 25.5h-6q-96 0 -128.5 -25.5t-32.5 -92.5v-333q0 -67 32.5 -92.5t128.5 -25.5h6 q97 0 129.5 25.5t32.5 92.5v39q0 8 7 8h35q8 0 8 -8v-39q0 -88 -46.5 -126t-165.5 -38h-6q-119 0 -165 38t-46 126v333q0 88 46 126t165 38h6q119 0 165.5 -38t46.5 -126v-39q0 -8 -8 -8h-35z" />
<glyph unicode="&#x109;" horiz-adv-x="504" d="M150 567q-12 0 -5 9l90 97q3 3 9 3h31q6 0 9 -3l90 -97q4 -4 2.5 -6.5t-6.5 -2.5h-35q-6 0 -9 5l-66 75l-66 -75q-4 -5 -10 -5h-34zM407 329q-8 0 -8 7v8q0 64 -28.5 89t-107.5 25h-6q-80 0 -108.5 -25t-28.5 -89v-191q0 -65 28.5 -90t108.5 -25h6q79 0 107.5 25t28.5 90 v7q0 8 8 8h34q8 0 8 -8v-7q0 -86 -42 -123.5t-144 -37.5h-6q-103 0 -145 37.5t-42 123.5v191q0 86 42 123.5t145 37.5h6q102 0 144 -37.5t42 -123.5v-8q0 -7 -8 -7h-34z" />
<glyph unicode="&#x10a;" horiz-adv-x="559" d="M270 733q-7 0 -7 7v77q0 7 7 7h36q7 0 7 -7v-77q0 -7 -7 -7h-36zM286 -8q-119 0 -165 38t-46 126v333q0 88 46 126t165 38h6q119 0 165.5 -38t46.5 -126v-39q0 -8 -8 -8h-35q-7 0 -7 8v39q0 67 -32.5 92.5t-129.5 25.5h-6q-96 0 -128.5 -25.5t-32.5 -92.5v-333 q0 -67 32.5 -92.5t128.5 -25.5h6q97 0 129.5 25.5t32.5 92.5v39q0 8 7 8h35q8 0 8 -8v-39q0 -88 -46.5 -126t-165.5 -38h-6z" />
<glyph unicode="&#x10b;" horiz-adv-x="504" d="M241 585q-7 0 -7 7v77q0 7 7 7h36q7 0 7 -7v-77q0 -7 -7 -7h-36zM70 153v191q0 86 42 123.5t145 37.5h6q102 0 144 -37.5t42 -123.5v-8q0 -7 -8 -7h-34q-8 0 -8 7v8q0 64 -28.5 89t-107.5 25h-6q-80 0 -108.5 -25t-28.5 -89v-191q0 -65 28.5 -90t108.5 -25h6 q79 0 107.5 25t28.5 90v7q0 8 8 8h34q8 0 8 -8v-7q0 -86 -42 -123.5t-144 -37.5h-6q-103 0 -145 37.5t-42 123.5z" />
<glyph unicode="&#x10c;" horiz-adv-x="559" d="M264 718l-90 97q-7 9 5 9h34q6 0 10 -5l66 -75l66 75q3 5 9 5h35q5 0 6.5 -2.5t-2.5 -6.5l-90 -97q-3 -3 -9 -3h-31q-6 0 -9 3zM461 442q-7 0 -7 8v39q0 67 -32.5 92.5t-129.5 25.5h-6q-96 0 -128.5 -25.5t-32.5 -92.5v-333q0 -67 32.5 -92.5t128.5 -25.5h6 q97 0 129.5 25.5t32.5 92.5v39q0 8 7 8h35q8 0 8 -8v-39q0 -88 -46.5 -126t-165.5 -38h-6q-119 0 -165 38t-46 126v333q0 88 46 126t165 38h6q119 0 165.5 -38t46.5 -126v-39q0 -8 -8 -8h-35z" />
<glyph unicode="&#x10d;" horiz-adv-x="504" d="M235 570l-90 97q-7 9 5 9h34q6 0 10 -5l66 -75l66 75q3 5 9 5h35q5 0 6.5 -2.5t-2.5 -6.5l-90 -97q-3 -3 -9 -3h-31q-6 0 -9 3zM407 329q-8 0 -8 7v8q0 64 -28.5 89t-107.5 25h-6q-80 0 -108.5 -25t-28.5 -89v-191q0 -65 28.5 -90t108.5 -25h6q79 0 107.5 25t28.5 90v7 q0 8 8 8h34q8 0 8 -8v-7q0 -86 -42 -123.5t-144 -37.5h-6q-103 0 -145 37.5t-42 123.5v191q0 86 42 123.5t145 37.5h6q102 0 144 -37.5t42 -123.5v-8q0 -7 -8 -7h-34z" />
<glyph unicode="&#x10e;" horiz-adv-x="579" d="M254 718l-90 97q-7 9 5 9h34q6 0 10 -5l66 -75l66 75q3 5 9 5h35q5 0 6.5 -2.5t-2.5 -6.5l-90 -97q-3 -3 -9 -3h-31q-6 0 -9 3zM305 645q109 0 154 -36.5t45 -117.5v-337q0 -81 -45 -117.5t-154 -36.5h-213q-7 0 -7 7v631q0 7 7 7h213zM454 154v337q0 61 -33.5 84.5 t-129.5 23.5h-156v-553h156q96 0 129.5 23.5t33.5 84.5z" />
<glyph unicode="&#x10f;" horiz-adv-x="531" d="M568 708q7 0 7 -7v-48q0 -6 -1 -11l-20 -82q-1 -7 -8 -7h-11q-7 0 -7 7v141q0 7 8 7h32zM444 700q7 0 7 -7v-686q0 -7 -7 -7h-20q-5 0 -7 5l-16 31q-86 -44 -176 -44q-83 0 -119 38.5t-36 126.5v182q0 88 36 127t119 39q91 0 176 -45v233q0 7 7 7h36zM120 166 q0 -73 24 -100.5t91 -27.5q85 0 166 39v342q-78 39 -166 39q-67 0 -91 -27t-24 -101v-164z" />
<glyph unicode="&#x110;" horiz-adv-x="579" d="M305 645q109 0 154 -36.5t45 -117.5v-337q0 -81 -45 -117.5t-154 -36.5h-213q-7 0 -7 7v301h-58q-7 0 -7 8v23q0 7 7 7h58v292q0 7 7 7h213zM454 154v337q0 61 -33.5 84.5t-129.5 23.5h-156v-253h152q7 0 7 -7v-23q0 -8 -7 -8h-152v-262h156q96 0 129.5 23.5t33.5 84.5z " />
<glyph unicode="&#x111;" horiz-adv-x="531" d="M500 640q7 0 7 -7v-23q0 -8 -7 -8h-49v-595q0 -7 -7 -7h-19q-6 0 -8 5l-15 31q-86 -44 -176 -44q-84 0 -120 39t-36 126v182q0 88 36 127t120 39q91 0 175 -45v142h-161q-7 0 -7 8v23q0 7 7 7h161v53q0 7 8 7h35q7 0 7 -7v-53h49zM120 166q0 -73 24 -100.5t91 -27.5 q85 0 166 39v342q-78 39 -166 39q-67 0 -91 -27t-24 -101v-164z" />
<glyph unicode="&#x112;" horiz-adv-x="491" d="M160 733q-7 0 -7 7v28q0 7 7 7h199q7 0 7 -7v-28q0 -7 -7 -7h-199zM438 599h-303v-249h273q7 0 7 -7v-32q0 -7 -7 -7h-273v-258h303q7 0 7 -7v-32q0 -7 -7 -7h-346q-7 0 -7 7v631q0 7 7 7h346q7 0 7 -7v-32q0 -7 -7 -7z" />
<glyph unicode="&#x113;" horiz-adv-x="520" d="M163 585q-7 0 -7 7v28q0 7 7 7h199q7 0 7 -7v-28q0 -7 -7 -7h-199zM448 242h-328v-89q0 -65 29 -90t111 -25h6q82 0 111 25t29 88v3q0 8 7 8h35q7 0 7 -8v-3q0 -85 -42 -122t-147 -37h-6q-105 0 -147.5 37.5t-42.5 123.5v191q0 86 42.5 123.5t147.5 37.5h6 q105 0 147 -37.5t42 -123.5v-95q0 -7 -7 -7zM260 458q-82 0 -111 -25t-29 -89v-59h286v59q0 64 -29 89t-111 25h-6z" />
<glyph unicode="&#x114;" horiz-adv-x="491" d="M258 712q-56 0 -79 19.5t-23 65.5v20q0 7 8 7h24q7 0 7 -7v-20q0 -30 12.5 -40.5t50.5 -10.5h4q38 0 50 10.5t12 40.5v20q0 7 8 7h24q7 0 7 -7v-20q0 -46 -22.5 -65.5t-78.5 -19.5h-4zM438 599h-303v-249h273q7 0 7 -7v-32q0 -7 -7 -7h-273v-258h303q7 0 7 -7v-32 q0 -7 -7 -7h-346q-7 0 -7 7v631q0 7 7 7h346q7 0 7 -7v-32q0 -7 -7 -7z" />
<glyph unicode="&#x115;" horiz-adv-x="520" d="M261 564q-56 0 -79 19.5t-23 65.5v20q0 7 8 7h24q7 0 7 -7v-20q0 -30 12.5 -40.5t50.5 -10.5h4q38 0 50 10.5t12 40.5v20q0 7 8 7h24q7 0 7 -7v-20q0 -46 -22.5 -65.5t-78.5 -19.5h-4zM448 242h-328v-89q0 -65 29 -90t111 -25h6q82 0 111 25t29 88v3q0 8 7 8h35q7 0 7 -8 v-3q0 -85 -42 -122t-147 -37h-6q-105 0 -147.5 37.5t-42.5 123.5v191q0 86 42.5 123.5t147.5 37.5h6q105 0 147 -37.5t42 -123.5v-95q0 -7 -7 -7zM260 458q-82 0 -111 -25t-29 -89v-59h286v59q0 64 -29 89t-111 25h-6z" />
<glyph unicode="&#x116;" horiz-adv-x="491" d="M241 733q-7 0 -7 7v77q0 7 7 7h36q7 0 7 -7v-77q0 -7 -7 -7h-36zM438 599h-303v-249h273q7 0 7 -7v-32q0 -7 -7 -7h-273v-258h303q7 0 7 -7v-32q0 -7 -7 -7h-346q-7 0 -7 7v631q0 7 7 7h346q7 0 7 -7v-32q0 -7 -7 -7z" />
<glyph unicode="&#x117;" horiz-adv-x="520" d="M244 585q-7 0 -7 7v77q0 7 7 7h36q7 0 7 -7v-77q0 -7 -7 -7h-36zM448 242h-328v-89q0 -65 29 -90t111 -25h6q82 0 111 25t29 88v3q0 8 7 8h35q7 0 7 -8v-3q0 -85 -42 -122t-147 -37h-6q-105 0 -147.5 37.5t-42.5 123.5v191q0 86 42.5 123.5t147.5 37.5h6q105 0 147 -37.5 t42 -123.5v-95q0 -7 -7 -7zM260 458q-82 0 -111 -25t-29 -89v-59h286v59q0 64 -29 89t-111 25h-6z" />
<glyph unicode="&#x118;" horiz-adv-x="491" d="M397 -49q-31 -31 -39 -44t-8 -33v-6q0 -22 10.5 -30t42.5 -8h35q8 0 8 -7v-24q0 -7 -8 -7h-35q-50 0 -72.5 18.5t-22.5 57.5v6q0 25 11 43t47 51l34 32h-308q-7 0 -7 7v631q0 7 7 7h346q7 0 7 -7v-32q0 -7 -7 -7h-303v-249h273q7 0 7 -7v-32q0 -7 -7 -7h-273v-258h303 q7 0 7 -7v-18h1v-13q0 -8 -6 -14z" />
<glyph unicode="&#x119;" horiz-adv-x="520" d="M448 242h-328v-89q0 -65 29 -90t111 -25h6q82 0 111 25t29 88v3q0 8 7 8h35q7 0 7 -8v-3q0 -67 -25.5 -104t-86.5 -49l-4 -4l-43 -43q-31 -31 -39 -44t-8 -33v-6q0 -22 10.5 -30t42.5 -8h35q8 0 8 -7v-24q0 -7 -8 -7h-35q-50 0 -72.5 18.5t-22.5 57.5v6q0 25 11 43t47 51 l26 25q-8 -1 -25 -1h-6q-105 0 -147.5 37.5t-42.5 123.5v191q0 86 42.5 123.5t147.5 37.5h6q105 0 147 -37.5t42 -123.5v-95q0 -7 -7 -7zM260 458q-82 0 -111 -25t-29 -89v-59h286v59q0 64 -29 89t-111 25h-6z" />
<glyph unicode="&#x11a;" horiz-adv-x="491" d="M235 718l-90 97q-7 9 5 9h34q6 0 10 -5l66 -75l66 75q3 5 9 5h35q5 0 6.5 -2.5t-2.5 -6.5l-90 -97q-3 -3 -9 -3h-31q-6 0 -9 3zM438 599h-303v-249h273q7 0 7 -7v-32q0 -7 -7 -7h-273v-258h303q7 0 7 -7v-32q0 -7 -7 -7h-346q-7 0 -7 7v631q0 7 7 7h346q7 0 7 -7v-32 q0 -7 -7 -7z" />
<glyph unicode="&#x11b;" horiz-adv-x="520" d="M238 570l-90 97q-7 9 5 9h34q6 0 10 -5l66 -75l66 75q3 5 9 5h35q5 0 6.5 -2.5t-2.5 -6.5l-90 -97q-3 -3 -9 -3h-31q-6 0 -9 3zM448 242h-328v-89q0 -65 29 -90t111 -25h6q82 0 111 25t29 88v3q0 8 7 8h35q7 0 7 -8v-3q0 -85 -42 -122t-147 -37h-6q-105 0 -147.5 37.5 t-42.5 123.5v191q0 86 42.5 123.5t147.5 37.5h6q105 0 147 -37.5t42 -123.5v-95q0 -7 -7 -7zM260 458q-82 0 -111 -25t-29 -89v-59h286v59q0 64 -29 89t-111 25h-6z" />
<glyph unicode="&#x11c;" horiz-adv-x="581" d="M182 715q-12 0 -5 9l90 97q3 3 9 3h31q6 0 9 -3l90 -97q4 -4 2.5 -6.5t-6.5 -2.5h-35q-6 0 -9 5l-66 75l-66 -75q-4 -5 -10 -5h-34zM468 462q-7 0 -7 8v19q0 67 -33 92.5t-132 25.5h-6q-99 0 -132 -25.5t-33 -92.5v-333q0 -67 33 -92.5t132 -25.5h6q99 0 132 25.5 t33 92.5v119h-143q-8 0 -8 8v31q0 8 8 8h186q7 0 7 -8v-158q0 -88 -46.5 -126t-168.5 -38h-6q-122 0 -168.5 38t-46.5 126v333q0 88 46.5 126t168.5 38h6q122 0 168.5 -38t46.5 -126v-19q0 -8 -7 -8h-36z" />
<glyph unicode="&#x11d;" horiz-adv-x="507" d="M154 567q-12 0 -5 9l90 97q3 3 9 3h31q6 0 9 -3l90 -97q4 -4 2.5 -6.5t-6.5 -2.5h-35q-6 0 -9 5l-66 75l-66 -75q-4 -5 -10 -5h-34zM352 45q70 0 99.5 -26.5t29.5 -88.5v-22q0 -66 -44 -91.5t-170 -25.5h-7q-124 0 -167.5 25.5t-43.5 91.5v15q0 76 49 98q-33 23 -33 68v7 q0 62 52 82q-52 31 -52 122v59q0 80 40 113t146 33h222q7 0 7 -7v-17q0 -7 -8 -7l-96 -7q39 -9 53.5 -33.5t14.5 -74.5v-59q0 -80 -40.5 -113t-146.5 -33h-6q-57 0 -94 9q-45 -12 -45 -63v-8q0 -26 16 -36.5t62 -10.5h162zM114 359v-59q0 -60 26.5 -80.5t110.5 -20.5h6 q84 0 111 20.5t27 80.5v59q0 60 -27 80.5t-111 20.5h-6q-84 0 -110.5 -20.5t-26.5 -80.5zM432 -92v22q0 43 -17.5 57t-74.5 14h-156q-27 0 -52 5q-35 -18 -35 -79v-19q0 -44 30 -58t133 -14h7q105 0 135 14t30 58z" />
<glyph unicode="&#x11e;" horiz-adv-x="581" d="M290 712q-56 0 -79 19.5t-23 65.5v20q0 7 8 7h24q7 0 7 -7v-20q0 -30 12.5 -40.5t50.5 -10.5h4q38 0 50 10.5t12 40.5v20q0 7 8 7h24q7 0 7 -7v-20q0 -46 -22.5 -65.5t-78.5 -19.5h-4zM468 462q-7 0 -7 8v19q0 67 -33 92.5t-132 25.5h-6q-99 0 -132 -25.5t-33 -92.5v-333 q0 -67 33 -92.5t132 -25.5h6q99 0 132 25.5t33 92.5v119h-143q-8 0 -8 8v31q0 8 8 8h186q7 0 7 -8v-158q0 -88 -46.5 -126t-168.5 -38h-6q-122 0 -168.5 38t-46.5 126v333q0 88 46.5 126t168.5 38h6q122 0 168.5 -38t46.5 -126v-19q0 -8 -7 -8h-36z" />
<glyph unicode="&#x11f;" horiz-adv-x="507" d="M262 564q-56 0 -79 19.5t-23 65.5v20q0 7 8 7h24q7 0 7 -7v-20q0 -30 12.5 -40.5t50.5 -10.5h4q38 0 50 10.5t12 40.5v20q0 7 8 7h24q7 0 7 -7v-20q0 -46 -22.5 -65.5t-78.5 -19.5h-4zM352 45q70 0 99.5 -26.5t29.5 -88.5v-22q0 -66 -44 -91.5t-170 -25.5h-7 q-124 0 -167.5 25.5t-43.5 91.5v15q0 76 49 98q-33 23 -33 68v7q0 62 52 82q-52 31 -52 122v59q0 80 40 113t146 33h222q7 0 7 -7v-17q0 -7 -8 -7l-96 -7q39 -9 53.5 -33.5t14.5 -74.5v-59q0 -80 -40.5 -113t-146.5 -33h-6q-57 0 -94 9q-45 -12 -45 -63v-8q0 -26 16 -36.5 t62 -10.5h162zM114 359v-59q0 -60 26.5 -80.5t110.5 -20.5h6q84 0 111 20.5t27 80.5v59q0 60 -27 80.5t-111 20.5h-6q-84 0 -110.5 -20.5t-26.5 -80.5zM432 -92v22q0 43 -17.5 57t-74.5 14h-156q-27 0 -52 5q-35 -18 -35 -79v-19q0 -44 30 -58t133 -14h7q105 0 135 14t30 58 z" />
<glyph unicode="&#x120;" horiz-adv-x="581" d="M273 733q-7 0 -7 7v77q0 7 7 7h36q7 0 7 -7v-77q0 -7 -7 -7h-36zM468 462q-7 0 -7 8v19q0 67 -33 92.5t-132 25.5h-6q-99 0 -132 -25.5t-33 -92.5v-333q0 -67 33 -92.5t132 -25.5h6q99 0 132 25.5t33 92.5v119h-143q-8 0 -8 8v31q0 8 8 8h186q7 0 7 -8v-158 q0 -88 -46.5 -126t-168.5 -38h-6q-122 0 -168.5 38t-46.5 126v333q0 88 46.5 126t168.5 38h6q122 0 168.5 -38t46.5 -126v-19q0 -8 -7 -8h-36z" />
<glyph unicode="&#x121;" horiz-adv-x="507" d="M245 585q-7 0 -7 7v77q0 7 7 7h36q7 0 7 -7v-77q0 -7 -7 -7h-36zM352 45q70 0 99.5 -26.5t29.5 -88.5v-22q0 -66 -44 -91.5t-170 -25.5h-7q-124 0 -167.5 25.5t-43.5 91.5v15q0 76 49 98q-33 23 -33 68v7q0 62 52 82q-52 31 -52 122v59q0 80 40 113t146 33h222q7 0 7 -7 v-17q0 -7 -8 -7l-96 -7q39 -9 53.5 -33.5t14.5 -74.5v-59q0 -80 -40.5 -113t-146.5 -33h-6q-57 0 -94 9q-45 -12 -45 -63v-8q0 -26 16 -36.5t62 -10.5h162zM114 359v-59q0 -60 26.5 -80.5t110.5 -20.5h6q84 0 111 20.5t27 80.5v59q0 60 -27 80.5t-111 20.5h-6 q-84 0 -110.5 -20.5t-26.5 -80.5zM432 -92v22q0 43 -17.5 57t-74.5 14h-156q-27 0 -52 5q-35 -18 -35 -79v-19q0 -44 30 -58t133 -14h7q105 0 135 14t30 58z" />
<glyph unicode="&#x122;" horiz-adv-x="581" d="M468 462q-7 0 -7 8v19q0 67 -33 92.5t-132 25.5h-6q-99 0 -132 -25.5t-33 -92.5v-333q0 -67 33 -92.5t132 -25.5h6q99 0 132 25.5t33 92.5v119h-143q-8 0 -8 8v31q0 8 8 8h186q7 0 7 -8v-158q0 -88 -46.5 -126t-168.5 -38h-6q-122 0 -168.5 38t-46.5 126v333 q0 88 46.5 126t168.5 38h6q122 0 168.5 -38t46.5 -126v-19q0 -8 -7 -8h-36zM309 -73q7 0 7 -7v-48q0 -6 -1 -11l-20 -82q-1 -7 -8 -7h-11q-7 0 -7 7v141q0 7 8 7h32z" />
<glyph unicode="&#x123;" horiz-adv-x="507" d="M248 567q-8 0 -8 7v141q0 7 7 7h11q7 0 8 -7l20 -82q1 -5 1 -11v-48q0 -7 -7 -7h-32zM352 45q70 0 99.5 -26.5t29.5 -88.5v-22q0 -66 -44 -91.5t-170 -25.5h-7q-124 0 -167.5 25.5t-43.5 91.5v15q0 76 49 98q-33 23 -33 68v7q0 62 52 82q-52 31 -52 122v59q0 80 40 113 t146 33h222q7 0 7 -7v-17q0 -7 -8 -7l-96 -7q39 -9 53.5 -33.5t14.5 -74.5v-59q0 -80 -40.5 -113t-146.5 -33h-6q-57 0 -94 9q-45 -12 -45 -63v-8q0 -26 16 -36.5t62 -10.5h162zM114 359v-59q0 -60 26.5 -80.5t110.5 -20.5h6q84 0 111 20.5t27 80.5v59q0 60 -27 80.5 t-111 20.5h-6q-84 0 -110.5 -20.5t-26.5 -80.5zM432 -92v22q0 43 -17.5 57t-74.5 14h-156q-27 0 -52 5q-35 -18 -35 -79v-19q0 -44 30 -58t133 -14h7q105 0 135 14t30 58z" />
<glyph unicode="&#x124;" horiz-adv-x="599" d="M190 715q-12 0 -5 9l90 97q3 3 9 3h31q6 0 9 -3l90 -97q4 -4 2.5 -6.5t-6.5 -2.5h-35q-6 0 -9 5l-66 75l-66 -75q-4 -5 -10 -5h-34zM507 645q7 0 7 -7v-631q0 -7 -7 -7h-35q-8 0 -8 7v295h-329v-295q0 -7 -7 -7h-36q-7 0 -7 7v631q0 7 7 7h36q7 0 7 -7v-290h329v290 q0 7 8 7h35z" />
<glyph unicode="&#x125;" horiz-adv-x="534" d="M172 775l-66 75l-66 -75q-4 -5 -10 -5h-34q-12 0 -5 9l90 97q3 3 9 3h31q6 0 9 -3l90 -97q4 -4 2.5 -6.5t-6.5 -2.5h-35q-6 0 -9 5zM304 505q83 0 119 -39t36 -127v-332q0 -7 -7 -7h-35q-8 0 -8 7v323q0 74 -24 101t-91 27q-85 0 -164 -38v-413q0 -7 -7 -7h-36q-7 0 -7 7 v686q0 7 7 7h36q7 0 7 -7v-232q85 44 174 44z" />
<glyph unicode="&#x126;" horiz-adv-x="599" d="M544 502q7 0 7 -8v-27q0 -7 -7 -7h-30v-453q0 -7 -7 -7h-35q-8 0 -8 7v295h-329v-295q0 -7 -7 -7h-36q-7 0 -7 7v453h-29q-7 0 -7 7v27q0 8 7 8h29v136q0 7 7 7h36q7 0 7 -7v-136h329v136q0 7 8 7h35q7 0 7 -7v-136h30zM464 348v112h-329v-112h329z" />
<glyph unicode="&#x127;" horiz-adv-x="534" d="M304 505q83 0 119 -39t36 -127v-332q0 -7 -7 -7h-35q-8 0 -8 7v323q0 74 -24 101t-91 27q-85 0 -164 -38v-413q0 -7 -7 -7h-36q-7 0 -7 7v595h-43q-7 0 -7 8v23q0 7 7 7h43v53q0 7 7 7h36q7 0 7 -7v-53h167q7 0 7 -7v-23q0 -8 -7 -8h-167v-141q85 44 174 44z" />
<glyph unicode="&#x128;" horiz-adv-x="220" d="M185 715q-28 0 -54 19l-66 44q-18 12 -30 12q-19 0 -19 -27v-29q0 -8 -7 -8h-22q-8 0 -8 8v27q0 30 15 46.5t40 16.5q28 0 54 -19l66 -44q19 -12 31 -12q18 0 18 27v29q0 8 8 8h22q7 0 7 -8v-27q0 -30 -15 -46.5t-40 -16.5zM92 0q-7 0 -7 7v631q0 7 7 7h36q7 0 7 -7v-631 q0 -7 -7 -7h-36z" />
<glyph unicode="&#x129;" horiz-adv-x="210" d="M180 567q-28 0 -54 19l-66 44q-18 12 -30 12q-19 0 -19 -27v-29q0 -8 -7 -8h-22q-8 0 -8 8v27q0 30 15 46.5t40 16.5q28 0 54 -19l66 -44q20 -12 31 -12q18 0 18 27v29q0 8 8 8h22q7 0 7 -8v-27q0 -30 -15 -46.5t-40 -16.5zM87 0q-7 0 -7 7v482q0 8 7 8h36q7 0 7 -8v-482 q0 -7 -7 -7h-36z" />
<glyph unicode="&#x12a;" horiz-adv-x="220" d="M10 733q-7 0 -7 7v28q0 7 7 7h199q7 0 7 -7v-28q0 -7 -7 -7h-199zM92 0q-7 0 -7 7v631q0 7 7 7h36q7 0 7 -7v-631q0 -7 -7 -7h-36z" />
<glyph unicode="&#x12b;" horiz-adv-x="210" d="M5 585q-7 0 -7 7v28q0 7 7 7h199q7 0 7 -7v-28q0 -7 -7 -7h-199zM87 0q-7 0 -7 7v482q0 8 7 8h36q7 0 7 -8v-482q0 -7 -7 -7h-36z" />
<glyph unicode="&#x12c;" horiz-adv-x="220" d="M206 824q7 0 7 -7v-20q0 -46 -22.5 -65.5t-78.5 -19.5h-4q-56 0 -79 19.5t-23 65.5v20q0 7 8 7h24q7 0 7 -7v-20q0 -30 12.5 -40.5t50.5 -10.5h4q38 0 50 10.5t12 40.5v20q0 7 8 7h24zM92 0q-7 0 -7 7v631q0 7 7 7h36q7 0 7 -7v-631q0 -7 -7 -7h-36z" />
<glyph unicode="&#x12d;" horiz-adv-x="210" d="M201 676q7 0 7 -7v-20q0 -46 -22.5 -65.5t-78.5 -19.5h-4q-56 0 -79 19.5t-23 65.5v20q0 7 8 7h24q7 0 7 -7v-20q0 -30 12.5 -40.5t50.5 -10.5h4q38 0 50 10.5t12 40.5v20q0 7 8 7h24zM87 0q-7 0 -7 7v482q0 8 7 8h36q7 0 7 -8v-482q0 -7 -7 -7h-36z" />
<glyph unicode="&#x12e;" horiz-adv-x="220" d="M87 -49q-31 -31 -39 -44t-8 -33v-6q0 -22 10.5 -30t42.5 -8h35q8 0 8 -7v-24q0 -7 -8 -7h-35q-50 0 -72.5 18.5t-22.5 57.5v6q0 25 11 43t47 51l35 32q-6 2 -6 7v631q0 7 7 7h36q7 0 7 -7v-617h1v-13q0 -8 -6 -14z" />
<glyph unicode="&#x12f;" horiz-adv-x="211" d="M123 676q8 0 8 -7v-77q0 -7 -8 -7h-36q-7 0 -7 7v77q0 7 7 7h36zM130 489v-468h1v-13q0 -8 -6 -14l-43 -43q-31 -31 -39 -44t-8 -33v-6q0 -22 10.5 -30t42.5 -8h35q8 0 8 -7v-24q0 -7 -8 -7h-35q-50 0 -72.5 18.5t-22.5 57.5v6q0 25 11 43t47 51l35 32q-6 2 -6 7v482 q0 8 8 8h35q7 0 7 -8z" />
<glyph unicode="&#x130;" horiz-adv-x="220" d="M91 733q-7 0 -7 7v77q0 7 7 7h36q7 0 7 -7v-77q0 -7 -7 -7h-36zM92 0q-7 0 -7 7v631q0 7 7 7h36q7 0 7 -7v-631q0 -7 -7 -7h-36z" />
<glyph unicode="&#x131;" horiz-adv-x="210" d="M87 0q-7 0 -7 7v482q0 8 7 8h36q7 0 7 -8v-482q0 -7 -7 -7h-36z" />
<glyph unicode="&#x132;" horiz-adv-x="702" d="M92 0q-7 0 -7 7v631q0 7 7 7h36q7 0 7 -7v-631q0 -7 -7 -7h-36zM427 -8q-103 0 -146 38.5t-43 125.5v23q0 7 8 7h35q7 0 7 -7v-23q0 -66 29.5 -92t109.5 -26h6q81 0 110 25.5t29 92.5v482q0 7 8 7h35q7 0 7 -7v-482q0 -87 -42.5 -125.5t-146.5 -38.5h-6z" />
<glyph unicode="&#x133;" horiz-adv-x="421" d="M87 585q-7 0 -7 7v77q0 7 7 7h36q8 0 8 -7v-77q0 -7 -8 -7h-36zM298 585q-7 0 -7 7v77q0 7 7 7h36q7 0 7 -7v-77q0 -7 -7 -7h-36zM88 0q-8 0 -8 7v482q0 8 8 8h35q7 0 7 -8v-482q0 -7 -7 -7h-35zM184 -208q-8 0 -8 7v31q0 7 8 7h16q54 0 72.5 21.5t18.5 87.5v543q0 8 7 8 h36q7 0 7 -8v-551q0 -83 -30 -114.5t-109 -31.5h-18z" />
<glyph unicode="&#x134;" horiz-adv-x="492" d="M502 724q4 -4 2.5 -6.5t-6.5 -2.5h-35q-6 0 -9 5l-66 75l-66 -75q-4 -5 -10 -5h-34q-12 0 -5 9l90 97q3 3 9 3h31q6 0 9 -3zM405 645q7 0 7 -7v-482q0 -87 -42.5 -125.5t-146.5 -38.5h-6q-103 0 -146 38.5t-43 125.5v23q0 7 8 7h35q7 0 7 -7v-23q0 -66 29.5 -92 t109.5 -26h6q81 0 110 25.5t29 92.5v482q0 7 8 7h35z" />
<glyph unicode="&#x135;" horiz-adv-x="210" d="M220 576q4 -4 2.5 -6.5t-6.5 -2.5h-35q-6 0 -9 5l-66 75l-66 -75q-4 -5 -10 -5h-34q-12 0 -5 9l90 97q3 3 9 3h31q6 0 9 -3zM123 497q7 0 7 -8v-551q0 -83 -30 -114.5t-109 -31.5h-18q-8 0 -8 7v29q0 8 8 8h16q54 0 72.5 21.5t18.5 86.5v545q0 8 7 8h36z" />
<glyph unicode="&#x136;" horiz-adv-x="541" d="M517 10q6 -10 -4 -10h-43q-5 0 -9 6l-189 331l-137 -168v-162q0 -7 -7 -7h-36q-7 0 -7 7v631q0 7 7 7h36q7 0 7 -7v-398l316 400q4 5 10 5h44q10 0 4 -8l-204 -258zM288 -73q7 0 7 -7v-48q0 -6 -1 -11l-20 -82q-1 -7 -8 -7h-11q-7 0 -7 7v141q0 7 8 7h32z" />
<glyph unicode="&#x137;" horiz-adv-x="470" d="M449 8q5 -8 -4 -8h-43q-6 0 -9 5l-151 259l-112 -124v-133q0 -7 -7 -7h-36q-7 0 -7 7v686q0 7 7 7h36q7 0 7 -7v-488l255 288q3 4 9 4h44q11 0 3 -10l-165 -185zM258 -73q7 0 7 -7v-48q0 -6 -1 -11l-20 -82q-1 -7 -8 -7h-11q-7 0 -7 7v141q0 7 8 7h32z" />
<glyph unicode="&#x138;" horiz-adv-x="470" d="M449 8q5 -8 -4 -8h-43q-5 0 -9 5l-150 259l-113 -124v-133q0 -7 -7 -7h-36q-7 0 -7 7v483q0 7 7 7h36q7 0 7 -7v-285l255 288q3 4 9 4h44q11 0 3 -10l-165 -185z" />
<glyph unicode="&#x139;" horiz-adv-x="448" d="M190 715q-12 0 -3 9l95 97q4 3 9 3h44q12 0 4 -8l-104 -98q-5 -3 -9 -3h-36zM414 46q7 0 7 -7v-32q0 -7 -7 -7h-322q-7 0 -7 7v631q0 7 7 7h36q7 0 7 -7v-592h279z" />
<glyph unicode="&#x13a;" horiz-adv-x="210" d="M63 770q-12 0 -3 9l95 97q5 3 9 3h44q12 0 4 -8l-104 -98q-4 -3 -9 -3h-36zM87 0q-7 0 -7 7v686q0 7 7 7h36q7 0 7 -7v-686q0 -7 -7 -7h-36z" />
<glyph unicode="&#x13b;" horiz-adv-x="448" d="M414 46q7 0 7 -7v-32q0 -7 -7 -7h-322q-7 0 -7 7v631q0 7 7 7h36q7 0 7 -7v-592h279zM248 -73q7 0 7 -7v-48q0 -6 -1 -11l-20 -82q-1 -7 -8 -7h-11q-7 0 -7 7v141q0 7 8 7h32z" />
<glyph unicode="&#x13c;" horiz-adv-x="210" d="M87 0q-7 0 -7 7v686q0 7 7 7h36q7 0 7 -7v-686q0 -7 -7 -7h-36zM88 -228q-7 0 -7 7v141q0 7 8 7h32q7 0 7 -7v-48q0 -6 -1 -11l-20 -82q-1 -7 -8 -7h-11z" />
<glyph unicode="&#x13d;" horiz-adv-x="448" d="M296 486q-7 0 -7 7v201q0 7 8 7h34q8 0 8 -7v-73q0 -7 -1 -13l-22 -115q-1 -7 -8 -7h-12zM414 46q7 0 7 -7v-32q0 -7 -7 -7h-322q-7 0 -7 7v631q0 7 7 7h36q7 0 7 -7v-592h279z" />
<glyph unicode="&#x13e;" horiz-adv-x="210" d="M213 553q-7 0 -7 7v141q0 7 8 7h32q7 0 7 -7v-48q0 -6 -1 -11l-20 -82q-1 -7 -8 -7h-11zM87 0q-7 0 -7 7v686q0 7 7 7h36q7 0 7 -7v-686q0 -7 -7 -7h-36z" />
<glyph unicode="&#x13f;" horiz-adv-x="448" d="M414 46q7 0 7 -7v-32q0 -7 -7 -7h-322q-7 0 -7 7v631q0 7 7 7h36q7 0 7 -7v-592h279zM262 282q-8 0 -8 7v71q0 7 8 7h39q7 0 7 -7v-71q0 -7 -7 -7h-39z" />
<glyph unicode="&#x140;" horiz-adv-x="316" d="M87 0q-7 0 -7 7v686q0 7 7 7h36q7 0 7 -7v-686q0 -7 -7 -7h-36zM224 281q-8 0 -8 7v71q0 7 8 7h39q7 0 7 -7v-71q0 -7 -7 -7h-39z" />
<glyph unicode="&#x141;" horiz-adv-x="448" d="M414 46q7 0 7 -7v-32q0 -7 -7 -7h-322q-7 0 -7 7v220l-64 -34q-9 -5 -9 6v30q0 6 6 9l67 35v365q0 7 7 7h36q7 0 7 -7v-338l185 98q10 5 10 -5v-31q0 -5 -6 -8l-189 -100v-208h279z" />
<glyph unicode="&#x142;" horiz-adv-x="261" d="M240 415q9 5 9 -6v-30q0 -5 -5 -8l-89 -59v-305q0 -7 -7 -7h-36q-7 0 -7 7v272l-84 -55q-9 -6 -9 6v30q0 4 4 8l89 58v367q0 7 7 7h36q7 0 7 -7v-334z" />
<glyph unicode="&#x143;" horiz-adv-x="627" d="M272 715q-12 0 -3 9l95 97q4 3 9 3h44q12 0 4 -8l-104 -98q-5 -3 -9 -3h-36zM535 645q7 0 7 -7v-631q0 -7 -7 -7h-39q-5 0 -9 5l-241 378q-82 129 -115 192q4 -72 4 -192v-376q0 -7 -7 -7h-36q-7 0 -7 7v631q0 7 7 7h39q5 0 9 -5l241 -378q72 -111 116 -192q-5 72 -5 192 v376q0 7 8 7h35z" />
<glyph unicode="&#x144;" horiz-adv-x="534" d="M227 567q-12 0 -3 9l95 97q4 3 9 3h44q12 0 4 -8l-104 -98q-4 -3 -9 -3h-36zM304 505q83 0 119 -39t36 -127v-332q0 -7 -7 -7h-35q-8 0 -8 7v323q0 74 -24 101t-91 27q-85 0 -164 -38v-413q0 -7 -7 -7h-36q-7 0 -7 7v482q0 8 7 8h20q5 0 7 -5l15 -31q86 44 175 44z" />
<glyph unicode="&#x145;" horiz-adv-x="627" d="M535 645q7 0 7 -7v-631q0 -7 -7 -7h-39q-5 0 -9 5l-241 378q-82 129 -115 192q4 -72 4 -192v-376q0 -7 -7 -7h-36q-7 0 -7 7v631q0 7 7 7h39q5 0 9 -5l241 -378q72 -111 116 -192q-5 72 -5 192v376q0 7 8 7h35zM330 -73q7 0 7 -7v-48q0 -6 -1 -11l-20 -82q-1 -7 -8 -7 h-11q-7 0 -7 7v141q0 7 8 7h32z" />
<glyph unicode="&#x146;" horiz-adv-x="534" d="M304 505q83 0 119 -39t36 -127v-332q0 -7 -7 -7h-35q-8 0 -8 7v323q0 74 -24 101t-91 27q-85 0 -164 -38v-413q0 -7 -7 -7h-36q-7 0 -7 7v482q0 8 7 8h20q5 0 7 -5l15 -31q86 44 175 44zM284 -73q7 0 7 -7v-48q0 -6 -1 -11l-20 -82q-1 -7 -8 -7h-11q-7 0 -7 7v141 q0 7 8 7h32z" />
<glyph unicode="&#x147;" horiz-adv-x="627" d="M289 718l-90 97q-7 9 5 9h34q6 0 10 -5l66 -75l66 75q3 5 9 5h35q5 0 6.5 -2.5t-2.5 -6.5l-90 -97q-3 -3 -9 -3h-31q-6 0 -9 3zM535 645q7 0 7 -7v-631q0 -7 -7 -7h-39q-5 0 -9 5l-241 378q-82 129 -115 192q4 -72 4 -192v-376q0 -7 -7 -7h-36q-7 0 -7 7v631q0 7 7 7h39 q5 0 9 -5l241 -378q72 -111 116 -192q-5 72 -5 192v376q0 7 8 7h35z" />
<glyph unicode="&#x148;" horiz-adv-x="534" d="M244 570l-90 97q-7 9 5 9h34q6 0 10 -5l66 -75l66 75q3 5 9 5h35q5 0 6.5 -2.5t-2.5 -6.5l-90 -97q-3 -3 -9 -3h-31q-6 0 -9 3zM304 505q83 0 119 -39t36 -127v-332q0 -7 -7 -7h-35q-8 0 -8 7v323q0 74 -24 101t-91 27q-85 0 -164 -38v-413q0 -7 -7 -7h-36q-7 0 -7 7v482 q0 8 7 8h20q5 0 7 -5l15 -31q86 44 175 44z" />
<glyph unicode="&#x14a;" horiz-adv-x="626" d="M533 645q8 0 8 -7v-709q0 -137 -161 -137h-37q-7 0 -7 7v32q0 7 7 7h37q59 0 85 22.5t26 68.5v71l-245 383q-82 129 -115 192q4 -72 4 -192v-376q0 -7 -7 -7h-36q-7 0 -7 7v631q0 7 7 7h39q5 0 9 -5l241 -378q60 -91 114 -189q-4 71 -4 189v376q0 7 7 7h35z" />
<glyph unicode="&#x14b;" horiz-adv-x="534" d="M304 505q83 0 119 -39t36 -127v-401q0 -83 -30 -114.5t-108 -31.5h-19q-7 0 -7 7v29q0 8 7 8h16q55 0 73 21t18 87v386q0 74 -24 101t-91 27q-85 0 -164 -38v-413q0 -7 -7 -7h-36q-7 0 -7 7v482q0 8 7 8h20q5 0 7 -5l15 -31q86 44 175 44z" />
<glyph unicode="&#x14c;" horiz-adv-x="591" d="M196 733q-7 0 -7 7v28q0 7 7 7h199q7 0 7 -7v-28q0 -7 -7 -7h-199zM75 156v333q0 88 47 126t171 38h6q123 0 170 -38t47 -126v-333q0 -88 -47 -126t-170 -38h-6q-124 0 -171 38t-47 126zM125 156q0 -67 33.5 -92.5t134.5 -25.5h6q101 0 134 25.5t33 92.5v333 q0 67 -33 92.5t-134 25.5h-6q-101 0 -134.5 -25.5t-33.5 -92.5v-333z" />
<glyph unicode="&#x14d;" d="M165 585q-7 0 -7 7v28q0 7 7 7h199q7 0 7 -7v-28q0 -7 -7 -7h-199zM70 153v191q0 86 42.5 123.5t149.5 37.5h6q106 0 148.5 -37.5t42.5 -123.5v-191q0 -86 -42.5 -123.5t-148.5 -37.5h-6q-107 0 -149.5 37.5t-42.5 123.5zM120 153q0 -65 29.5 -90t112.5 -25h6 q83 0 112 25t29 90v191q0 65 -29 89.5t-112 24.5h-6q-84 0 -113 -24.5t-29 -89.5v-191z" />
<glyph unicode="&#x14e;" horiz-adv-x="591" d="M392 824q7 0 7 -7v-20q0 -46 -22.5 -65.5t-78.5 -19.5h-4q-56 0 -79 19.5t-23 65.5v20q0 7 8 7h24q7 0 7 -7v-20q0 -30 12.5 -40.5t50.5 -10.5h4q38 0 50 10.5t12 40.5v20q0 7 8 7h24zM75 156v333q0 88 47 126t171 38h6q123 0 170 -38t47 -126v-333q0 -88 -47 -126 t-170 -38h-6q-124 0 -171 38t-47 126zM125 156q0 -67 33.5 -92.5t134.5 -25.5h6q101 0 134 25.5t33 92.5v333q0 67 -33 92.5t-134 25.5h-6q-101 0 -134.5 -25.5t-33.5 -92.5v-333z" />
<glyph unicode="&#x14f;" d="M361 676q7 0 7 -7v-20q0 -46 -22.5 -65.5t-78.5 -19.5h-4q-56 0 -79 19.5t-23 65.5v20q0 7 8 7h24q7 0 7 -7v-20q0 -30 12.5 -40.5t50.5 -10.5h4q38 0 50 10.5t12 40.5v20q0 7 8 7h24zM70 153v191q0 86 42.5 123.5t149.5 37.5h6q106 0 148.5 -37.5t42.5 -123.5v-191 q0 -86 -42.5 -123.5t-148.5 -37.5h-6q-107 0 -149.5 37.5t-42.5 123.5zM120 153q0 -65 29.5 -90t112.5 -25h6q83 0 112 25t29 90v191q0 65 -29 89.5t-112 24.5h-6q-84 0 -113 -24.5t-29 -89.5v-191z" />
<glyph unicode="&#x150;" horiz-adv-x="591" d="M210 715q-11 0 -6 8l55 96q3 5 9 5h36q11 0 5 -9l-63 -96q-3 -4 -8 -4h-28zM337 715q-11 0 -6 8l55 96q4 5 9 5h36q11 0 6 -9l-63 -96q-3 -4 -9 -4h-28zM75 156v333q0 88 47 126t171 38h6q123 0 170 -38t47 -126v-333q0 -88 -47 -126t-170 -38h-6q-124 0 -171 38t-47 126 zM125 156q0 -67 33.5 -92.5t134.5 -25.5h6q101 0 134 25.5t33 92.5v333q0 67 -33 92.5t-134 25.5h-6q-101 0 -134.5 -25.5t-33.5 -92.5v-333z" />
<glyph unicode="&#x151;" d="M179 567q-11 0 -6 8l55 96q2 5 9 5h36q11 0 5 -9l-63 -96q-3 -4 -8 -4h-28zM306 567q-11 0 -6 8l55 96q4 5 9 5h36q10 0 6 -9l-63 -96q-3 -4 -9 -4h-28zM70 153v191q0 86 42.5 123.5t149.5 37.5h6q106 0 148.5 -37.5t42.5 -123.5v-191q0 -86 -42.5 -123.5t-148.5 -37.5 h-6q-107 0 -149.5 37.5t-42.5 123.5zM120 153q0 -65 29.5 -90t112.5 -25h6q83 0 112 25t29 90v191q0 65 -29 89.5t-112 24.5h-6q-84 0 -113 -24.5t-29 -89.5v-191z" />
<glyph unicode="&#x152;" horiz-adv-x="858" d="M806 599h-303v-249h273q7 0 7 -7v-32q0 -7 -7 -7h-273v-258h303q7 0 7 -7v-32q0 -7 -7 -7h-346q-99 -8 -163 -8h-4q-124 0 -171 38t-47 126v333q0 88 47 126t171 38h4q64 0 163 -8h346q7 0 7 -7v-32q0 -7 -7 -7zM293 38h4q59 0 156 7v555q-97 7 -156 7h-4 q-101 0 -134.5 -25.5t-33.5 -92.5v-333q0 -67 33.5 -92.5t134.5 -25.5z" />
<glyph unicode="&#x153;" horiz-adv-x="837" d="M765 241h-314v-88q0 -64 28 -89.5t105 -25.5h6q77 0 105 25.5t28 89.5v1q0 7 7 7h35q7 0 7 -7v-1q0 -85 -41 -123t-141 -38h-6q-127 0 -159 70q-31 -70 -162 -70h-6q-103 0 -145 37.5t-42 123.5v191q0 86 42 123.5t145 37.5h6q131 0 162 -70q33 70 159 70h6 q100 0 141 -38t41 -123v-95q0 -8 -7 -8zM401 153v191q0 64 -28.5 89t-109.5 25h-6q-80 0 -108.5 -25t-28.5 -89v-191q0 -65 28.5 -90t108.5 -25h6q81 0 109.5 25t28.5 90zM584 458q-77 0 -105 -25t-28 -89v-59h272v59q0 64 -28 89t-105 25h-6z" />
<glyph unicode="&#x154;" horiz-adv-x="547" d="M231 715q-12 0 -3 9l95 97q4 3 9 3h44q12 0 4 -8l-104 -98q-4 -3 -9 -3h-36zM490 9q6 -9 -5 -9h-40q-5 0 -9 5l-129 248h-4h-168v-246q0 -7 -7 -7h-36q-7 0 -7 7v631q0 7 7 7h211q96 0 138 -36.5t42 -117.5v-84q0 -68 -29 -104t-93 -46zM135 299h155q84 0 113.5 23 t29.5 85v84q0 62 -29.5 85t-113.5 23h-155v-300z" />
<glyph unicode="&#x155;" horiz-adv-x="313" d="M138 567q-12 0 -3 9l95 97q4 3 9 3h44q12 0 4 -8l-104 -98q-5 -3 -9 -3h-36zM291 505q7 0 7 -8v-31q0 -8 -7 -8h-10q-96 0 -151 -55v-396q0 -7 -7 -7h-36q-7 0 -7 7v482q0 8 7 8h19q6 0 9 -8l14 -43q59 59 152 59h10z" />
<glyph unicode="&#x156;" horiz-adv-x="547" d="M490 9q6 -9 -5 -9h-40q-5 0 -9 5l-129 248h-4h-168v-246q0 -7 -7 -7h-36q-7 0 -7 7v631q0 7 7 7h211q96 0 138 -36.5t42 -117.5v-84q0 -68 -29 -104t-93 -46zM135 299h155q84 0 113.5 23t29.5 85v84q0 62 -29.5 85t-113.5 23h-155v-300zM293 -73q7 0 7 -7v-48 q0 -6 -1 -11l-20 -82q-1 -7 -8 -7h-11q-7 0 -7 7v141q0 7 8 7h32z" />
<glyph unicode="&#x157;" horiz-adv-x="313" d="M291 505q7 0 7 -8v-31q0 -8 -7 -8h-10q-96 0 -151 -55v-396q0 -7 -7 -7h-36q-7 0 -7 7v482q0 8 7 8h19q6 0 9 -8l14 -43q59 59 152 59h10zM120 -73q7 0 7 -7v-48q0 -6 -1 -11l-20 -82q-1 -7 -8 -7h-11q-7 0 -7 7v141q0 7 8 7h32z" />
<glyph unicode="&#x158;" horiz-adv-x="547" d="M248 718l-90 97q-7 9 5 9h34q6 0 10 -5l66 -75l66 75q3 5 9 5h35q5 0 6.5 -2.5t-2.5 -6.5l-90 -97q-3 -3 -9 -3h-31q-6 0 -9 3zM490 9q6 -9 -5 -9h-40q-5 0 -9 5l-129 248h-4h-168v-246q0 -7 -7 -7h-36q-7 0 -7 7v631q0 7 7 7h211q96 0 138 -36.5t42 -117.5v-84 q0 -68 -29 -104t-93 -46zM135 299h155q84 0 113.5 23t29.5 85v84q0 62 -29.5 85t-113.5 23h-155v-300z" />
<glyph unicode="&#x159;" horiz-adv-x="313" d="M164 567q-6 0 -9 3l-90 97q-7 9 5 9h34q6 0 10 -5l66 -75l66 75q3 5 9 5h35q5 0 6.5 -2.5t-2.5 -6.5l-90 -97q-3 -3 -9 -3h-31zM291 505q7 0 7 -8v-31q0 -8 -7 -8h-10q-96 0 -151 -55v-396q0 -7 -7 -7h-36q-7 0 -7 7v482q0 8 7 8h19q6 0 9 -8l14 -43q59 59 152 59h10z " />
<glyph unicode="&#x15a;" horiz-adv-x="511" d="M214 715q-12 0 -3 9l95 97q4 3 9 3h44q12 0 4 -8l-104 -98q-5 -3 -9 -3h-36zM46 155v30q0 8 7 8h36q7 0 7 -8v-30q0 -66 31.5 -91.5t125.5 -25.5h6q93 0 124.5 25.5t31.5 91.5v28q0 52 -20 72.5t-87 35.5l-128 29q-72 16 -100.5 49t-28.5 102v20q0 86 45 124t157 38h6 q112 0 156.5 -38t44.5 -124v-31q0 -8 -8 -8h-35q-7 0 -7 8v31q0 66 -31 91t-120 25h-6q-90 0 -121 -25t-31 -91v-20q0 -51 19 -72t82 -35l128 -29q78 -17 106.5 -49t28.5 -103v-28q0 -87 -45 -125t-161 -38h-6q-116 0 -161.5 38t-45.5 125z" />
<glyph unicode="&#x15b;" horiz-adv-x="470" d="M194 567q-12 0 -3 9l95 97q4 3 9 3h44q12 0 4 -8l-104 -98q-5 -3 -9 -3h-36zM50 118v36q0 8 7 8h35q7 0 7 -8v-36q0 -42 30 -61t104 -19h6q73 0 102 19t29 61v15q0 34 -14.5 50t-60.5 29l-132 37q-60 18 -83 43.5t-23 71.5v15q0 62 41 94t134 32h6q92 0 133.5 -32 t41.5 -94v-36q0 -8 -7 -8h-35q-7 0 -7 8v36q0 42 -28 60.5t-98 18.5h-6q-71 0 -98 -18.5t-27 -60.5v-15q0 -30 15 -44.5t63 -27.5l132 -38q58 -15 80.5 -43t22.5 -78v-15q0 -63 -42 -94.5t-139 -31.5h-6q-97 0 -140 32t-43 94z" />
<glyph unicode="&#x15c;" horiz-adv-x="511" d="M146 715q-12 0 -5 9l90 97q3 3 9 3h31q6 0 9 -3l90 -97q4 -4 2.5 -6.5t-6.5 -2.5h-35q-6 0 -9 5l-66 75l-66 -75q-4 -5 -10 -5h-34zM330 335q78 -17 106.5 -49t28.5 -103v-28q0 -87 -45 -125t-161 -38h-6q-116 0 -161.5 38t-45.5 125v30q0 8 7 8h36q7 0 7 -8v-30 q0 -66 31.5 -91.5t125.5 -25.5h6q93 0 124.5 25.5t31.5 91.5v28q0 52 -20 72.5t-87 35.5l-128 29q-72 16 -100.5 49t-28.5 102v20q0 86 45 124t157 38h6q112 0 156.5 -38t44.5 -124v-31q0 -8 -8 -8h-35q-7 0 -7 8v31q0 66 -31 91t-120 25h-6q-90 0 -121 -25t-31 -91v-20 q0 -51 19 -72t82 -35z" />
<glyph unicode="&#x15d;" horiz-adv-x="470" d="M126 567q-12 0 -5 9l90 97q3 3 9 3h31q6 0 9 -3l90 -97q4 -4 2.5 -6.5t-6.5 -2.5h-35q-6 0 -9 5l-66 75l-66 -75q-4 -5 -10 -5h-34zM317 254q58 -15 80.5 -43t22.5 -78v-15q0 -63 -42 -94.5t-139 -31.5h-6q-97 0 -140 32t-43 94v36q0 8 7 8h35q7 0 7 -8v-36q0 -42 30 -61 t104 -19h6q73 0 102 19t29 61v15q0 34 -14.5 50t-60.5 29l-132 37q-60 18 -83 43.5t-23 71.5v15q0 62 41 94t134 32h6q92 0 133.5 -32t41.5 -94v-36q0 -8 -7 -8h-35q-7 0 -7 8v36q0 42 -28 60.5t-98 18.5h-6q-71 0 -98 -18.5t-27 -60.5v-15q0 -30 15 -44.5t63 -27.5z" />
<glyph unicode="&#x15e;" horiz-adv-x="511" d="M330 335q78 -17 106.5 -49t28.5 -103v-28q0 -87 -45 -125t-161 -38h-6h-8l-11 -63h43q42 0 59.5 -14.5t17.5 -48.5v-12q0 -34 -17.5 -48t-59.5 -14h-80q-8 0 -8 7v21q0 8 8 8h80q23 0 31 5.5t8 20.5v14q0 15 -8 20.5t-31 5.5h-79q-8 0 -7 9l16 91q-89 7 -125 45t-36 116 v30q0 8 7 8h36q7 0 7 -8v-30q0 -66 31.5 -91.5t125.5 -25.5h6q93 0 124.5 25.5t31.5 91.5v28q0 52 -20 72.5t-87 35.5l-128 29q-72 16 -100.5 49t-28.5 102v20q0 86 45 124t157 38h6q112 0 156.5 -38t44.5 -124v-31q0 -8 -8 -8h-35q-7 0 -7 8v31q0 66 -31 91t-120 25h-6 q-90 0 -121 -25t-31 -91v-20q0 -51 19 -72t82 -35z" />
<glyph unicode="&#x15f;" horiz-adv-x="470" d="M317 254q58 -15 80.5 -43t22.5 -78v-15q0 -63 -42 -94.5t-139 -31.5h-6h-9l-11 -63h43q42 0 59.5 -14.5t17.5 -48.5v-12q0 -34 -17.5 -48t-59.5 -14h-80q-8 0 -8 7v21q0 8 8 8h80q23 0 31 5.5t8 20.5v14q0 15 -8 20.5t-31 5.5h-79q-9 0 -7 9l17 91q-73 7 -105 38t-32 86 v36q0 8 7 8h35q7 0 7 -8v-36q0 -42 30 -61t104 -19h6q73 0 102 19t29 61v15q0 34 -14.5 50t-60.5 29l-132 37q-60 18 -83 43.5t-23 71.5v15q0 62 41 94t134 32h6q92 0 133.5 -32t41.5 -94v-36q0 -8 -7 -8h-35q-7 0 -7 8v36q0 42 -28 60.5t-98 18.5h-6q-71 0 -98 -18.5 t-27 -60.5v-15q0 -30 15 -44.5t63 -27.5z" />
<glyph unicode="&#x160;" horiz-adv-x="511" d="M231 718l-90 97q-7 9 5 9h34q6 0 10 -5l66 -75l66 75q3 5 9 5h35q5 0 6.5 -2.5t-2.5 -6.5l-90 -97q-3 -3 -9 -3h-31q-6 0 -9 3zM330 335q78 -17 106.5 -49t28.5 -103v-28q0 -87 -45 -125t-161 -38h-6q-116 0 -161.5 38t-45.5 125v30q0 8 7 8h36q7 0 7 -8v-30 q0 -66 31.5 -91.5t125.5 -25.5h6q93 0 124.5 25.5t31.5 91.5v28q0 52 -20 72.5t-87 35.5l-128 29q-72 16 -100.5 49t-28.5 102v20q0 86 45 124t157 38h6q112 0 156.5 -38t44.5 -124v-31q0 -8 -8 -8h-35q-7 0 -7 8v31q0 66 -31 91t-120 25h-6q-90 0 -121 -25t-31 -91v-20 q0 -51 19 -72t82 -35z" />
<glyph unicode="&#x161;" horiz-adv-x="470" d="M211 570l-90 97q-7 9 5 9h34q6 0 10 -5l66 -75l66 75q3 5 9 5h35q5 0 6.5 -2.5t-2.5 -6.5l-90 -97q-3 -3 -9 -3h-31q-6 0 -9 3zM317 254q58 -15 80.5 -43t22.5 -78v-15q0 -63 -42 -94.5t-139 -31.5h-6q-97 0 -140 32t-43 94v36q0 8 7 8h35q7 0 7 -8v-36q0 -42 30 -61 t104 -19h6q73 0 102 19t29 61v15q0 34 -14.5 50t-60.5 29l-132 37q-60 18 -83 43.5t-23 71.5v15q0 62 41 94t134 32h6q92 0 133.5 -32t41.5 -94v-36q0 -8 -7 -8h-35q-7 0 -7 8v36q0 42 -28 60.5t-98 18.5h-6q-71 0 -98 -18.5t-27 -60.5v-15q0 -30 15 -44.5t63 -27.5z" />
<glyph unicode="&#x162;" horiz-adv-x="458" d="M433 645q7 0 7 -7v-32q0 -7 -7 -7h-179v-592q0 -7 -7 -7h-36q-7 0 -7 7v592h-179q-7 0 -7 7v32q0 7 7 7h408zM245 -73q7 0 7 -7v-48q0 -6 -1 -11l-20 -82q-1 -7 -8 -7h-11q-7 0 -7 7v141q0 7 8 7h32z" />
<glyph unicode="&#x163;" horiz-adv-x="322" d="M289 41q7 0 7 -7v-31q0 -7 -7 -7h-44q-79 0 -109.5 31t-30.5 114v312h-88q-7 0 -7 7v15q0 7 8 8l87 10v145q0 7 7 7h36q7 0 7 -7v-141h132q7 0 7 -8v-29q0 -7 -7 -7h-132v-305q0 -65 18.5 -86t73.5 -21h42zM213 -73q7 0 7 -7v-48q0 -6 -1 -11l-20 -82q-1 -7 -8 -7h-11 q-7 0 -7 7v141q0 7 8 7h32z" />
<glyph unicode="&#x164;" horiz-adv-x="458" d="M204 718l-90 97q-7 9 5 9h34q6 0 10 -5l66 -75l66 75q3 5 9 5h35q5 0 6.5 -2.5t-2.5 -6.5l-90 -97q-3 -3 -9 -3h-31q-6 0 -9 3zM433 645q7 0 7 -7v-32q0 -7 -7 -7h-179v-592q0 -7 -7 -7h-36q-7 0 -7 7v592h-179q-7 0 -7 7v32q0 7 7 7h408z" />
<glyph unicode="&#x165;" horiz-adv-x="322" d="M243 588q-7 0 -7 7v141q0 7 8 7h32q7 0 7 -7v-48q0 -6 -1 -11l-20 -82q-1 -7 -8 -7h-11zM289 41q7 0 7 -7v-31q0 -7 -7 -7h-44q-79 0 -109.5 31t-30.5 114v312h-88q-7 0 -7 7v15q0 7 8 8l87 10v145q0 7 7 7h36q7 0 7 -7v-141h132q7 0 7 -8v-29q0 -7 -7 -7h-132v-305 q0 -65 18.5 -86t73.5 -21h42z" />
<glyph unicode="&#x166;" horiz-adv-x="458" d="M433 645q7 0 7 -7v-32q0 -7 -7 -7h-179v-248h105q7 0 7 -7v-23q0 -8 -7 -8h-105v-306q0 -7 -7 -7h-36q-7 0 -7 7v306h-105q-7 0 -7 8v23q0 7 7 7h105v248h-179q-7 0 -7 7v32q0 7 7 7h408z" />
<glyph unicode="&#x167;" horiz-adv-x="322" d="M289 41q7 0 7 -7v-31q0 -7 -7 -7h-44q-79 0 -109.5 31t-30.5 114v133h-81q-7 0 -7 8v23q0 7 7 7h81v141h-88q-7 0 -7 7v15q0 7 8 8l87 10v145q0 7 7 7h36q7 0 7 -7v-141h132q7 0 7 -8v-29q0 -7 -7 -7h-132v-141h129q7 0 7 -7v-23q0 -8 -7 -8h-129v-126q0 -65 18.5 -86 t73.5 -21h42z" />
<glyph unicode="&#x168;" horiz-adv-x="589" d="M370 715q-28 0 -54 19l-66 44q-18 12 -30 12q-19 0 -19 -27v-29q0 -8 -7 -8h-22q-8 0 -8 8v27q0 30 15 46.5t40 16.5q28 0 54 -19l66 -44q19 -12 31 -12q18 0 18 27v29q0 8 8 8h22q7 0 7 -8v-27q0 -30 -15 -46.5t-40 -16.5zM80 156v482q0 7 7 7h36q7 0 7 -7v-482 q0 -67 32.5 -92.5t129.5 -25.5h6q96 0 128.5 25.5t32.5 92.5v482q0 7 8 7h35q7 0 7 -7v-482q0 -88 -46 -126t-165 -38h-6q-120 0 -166 38t-46 126z" />
<glyph unicode="&#x169;" horiz-adv-x="530" d="M139 578q-8 0 -8 8v27q0 30 15 46.5t40 16.5q28 0 54 -19l66 -44q20 -12 31 -12q18 0 18 27v29q0 8 8 8h22q7 0 7 -8v-27q0 -30 -15 -46.5t-40 -16.5q-28 0 -54 19l-66 44q-18 12 -30 12q-19 0 -19 -27v-29q0 -8 -7 -8h-22zM443 497q7 0 7 -8v-482q0 -7 -7 -7h-19 q-6 0 -9 6l-14 30q-83 -44 -173 -44q-82 0 -117.5 38.5t-35.5 126.5v332q0 8 7 8h36q7 0 7 -8v-323q0 -74 23.5 -101t89.5 -27q81 0 162 38v413q0 8 8 8h35z" />
<glyph unicode="&#x16a;" horiz-adv-x="589" d="M195 733q-7 0 -7 7v28q0 7 7 7h199q7 0 7 -7v-28q0 -7 -7 -7h-199zM80 156v482q0 7 7 7h36q7 0 7 -7v-482q0 -67 32.5 -92.5t129.5 -25.5h6q96 0 128.5 25.5t32.5 92.5v482q0 7 8 7h35q7 0 7 -7v-482q0 -88 -46 -126t-165 -38h-6q-120 0 -166 38t-46 126z" />
<glyph unicode="&#x16b;" horiz-adv-x="530" d="M162 585q-7 0 -7 7v28q0 7 7 7h199q7 0 7 -7v-28q0 -7 -7 -7h-199zM443 497q7 0 7 -8v-482q0 -7 -7 -7h-19q-6 0 -9 6l-14 30q-83 -44 -173 -44q-82 0 -117.5 38.5t-35.5 126.5v332q0 8 7 8h36q7 0 7 -8v-323q0 -74 23.5 -101t89.5 -27q81 0 162 38v413q0 8 8 8h35z" />
<glyph unicode="&#x16c;" horiz-adv-x="589" d="M391 824q7 0 7 -7v-20q0 -46 -22.5 -65.5t-78.5 -19.5h-4q-56 0 -79 19.5t-23 65.5v20q0 7 8 7h24q7 0 7 -7v-20q0 -30 12.5 -40.5t50.5 -10.5h4q38 0 50 10.5t12 40.5v20q0 7 8 7h24zM80 156v482q0 7 7 7h36q7 0 7 -7v-482q0 -67 32.5 -92.5t129.5 -25.5h6 q96 0 128.5 25.5t32.5 92.5v482q0 7 8 7h35q7 0 7 -7v-482q0 -88 -46 -126t-165 -38h-6q-120 0 -166 38t-46 126z" />
<glyph unicode="&#x16d;" horiz-adv-x="530" d="M260 564q-56 0 -79 19.5t-23 65.5v20q0 7 8 7h24q7 0 7 -7v-20q0 -30 12.5 -40.5t50.5 -10.5h4q38 0 50 10.5t12 40.5v20q0 7 8 7h24q7 0 7 -7v-20q0 -46 -22.5 -65.5t-78.5 -19.5h-4zM443 497q7 0 7 -8v-482q0 -7 -7 -7h-19q-6 0 -9 6l-14 30q-83 -44 -173 -44 q-82 0 -117.5 38.5t-35.5 126.5v332q0 8 7 8h36q7 0 7 -8v-323q0 -74 23.5 -101t89.5 -27q81 0 162 38v413q0 8 8 8h35z" />
<glyph unicode="&#x16e;" horiz-adv-x="589" d="M294 708q-48 0 -65.5 13.5t-17.5 46.5v15q0 33 17.5 46t65.5 13h2q48 0 65.5 -13t17.5 -46v-15q0 -33 -17.5 -46.5t-65.5 -13.5h-2zM294 738h2q33 0 42 6t9 25v12q0 19 -9 25t-42 6h-2q-33 0 -42 -6t-9 -25v-12q0 -19 9 -25t42 -6zM80 156v482q0 7 7 7h36q7 0 7 -7v-482 q0 -67 32.5 -92.5t129.5 -25.5h6q96 0 128.5 25.5t32.5 92.5v482q0 7 8 7h35q7 0 7 -7v-482q0 -88 -46 -126t-165 -38h-6q-120 0 -166 38t-46 126z" />
<glyph unicode="&#x16f;" horiz-adv-x="530" d="M261 560q-48 0 -65.5 13.5t-17.5 46.5v15q0 33 17.5 46t65.5 13h2q48 0 65.5 -13t17.5 -46v-15q0 -33 -17.5 -46.5t-65.5 -13.5h-2zM210 633v-12q0 -19 9 -25t42 -6h2q33 0 42 6t9 25v12q0 19 -9 25t-42 6h-2q-33 0 -42 -6t-9 -25zM443 497q7 0 7 -8v-482q0 -7 -7 -7h-19 q-6 0 -9 6l-14 30q-83 -44 -173 -44q-82 0 -117.5 38.5t-35.5 126.5v332q0 8 7 8h36q7 0 7 -8v-323q0 -74 23.5 -101t89.5 -27q81 0 162 38v413q0 8 8 8h35z" />
<glyph unicode="&#x170;" horiz-adv-x="589" d="M209 715q-11 0 -6 8l55 96q2 5 9 5h36q11 0 5 -9l-63 -96q-3 -4 -8 -4h-28zM336 715q-11 0 -6 8l55 96q4 5 9 5h36q10 0 6 -9l-63 -96q-3 -4 -9 -4h-28zM80 156v482q0 7 7 7h36q7 0 7 -7v-482q0 -67 32.5 -92.5t129.5 -25.5h6q96 0 128.5 25.5t32.5 92.5v482q0 7 8 7h35 q7 0 7 -7v-482q0 -88 -46 -126t-165 -38h-6q-120 0 -166 38t-46 126z" />
<glyph unicode="&#x171;" horiz-adv-x="530" d="M176 567q-11 0 -6 8l55 96q3 5 9 5h36q11 0 5 -9l-63 -96q-3 -4 -8 -4h-28zM303 567q-11 0 -6 8l55 96q4 5 9 5h36q11 0 6 -9l-63 -96q-3 -4 -9 -4h-28zM443 497q7 0 7 -8v-482q0 -7 -7 -7h-19q-6 0 -9 6l-14 30q-83 -44 -173 -44q-82 0 -117.5 38.5t-35.5 126.5v332 q0 8 7 8h36q7 0 7 -8v-323q0 -74 23.5 -101t89.5 -27q81 0 162 38v413q0 8 8 8h35z" />
<glyph unicode="&#x172;" horiz-adv-x="589" d="M502 645q7 0 7 -7v-482q0 -80 -37.5 -118t-132.5 -45l-42 -42q-31 -31 -39 -44t-8 -33v-6q0 -22 10.5 -30t42.5 -8h35q8 0 8 -7v-24q0 -7 -8 -7h-35q-50 0 -72.5 18.5t-22.5 57.5v6q0 25 11 43t47 51l26 24q-120 0 -166 38t-46 126v482q0 7 7 7h36q7 0 7 -7v-482 q0 -67 32.5 -92.5t129.5 -25.5h6q96 0 128.5 25.5t32.5 92.5v482q0 7 8 7h35z" />
<glyph unicode="&#x173;" horiz-adv-x="530" d="M402 -49q-31 -31 -39 -44t-8 -33v-6q0 -22 10.5 -30t42.5 -8h35q8 0 8 -7v-24q0 -7 -8 -7h-35q-50 0 -72.5 18.5t-22.5 57.5v6q0 25 11 43t47 51l43 40l-13 28q-83 -44 -173 -44q-82 0 -117.5 38.5t-35.5 126.5v332q0 8 7 8h36q7 0 7 -8v-323q0 -74 23.5 -101t89.5 -27 q81 0 162 38v413q0 8 8 8h35q7 0 7 -8v-468h1v-13q0 -8 -6 -14z" />
<glyph unicode="&#x174;" horiz-adv-x="819" d="M299 715q-12 0 -5 9l90 97q3 3 9 3h31q6 0 9 -3l90 -97q4 -4 2.5 -6.5t-6.5 -2.5h-35q-6 0 -9 5l-66 75l-66 -75q-4 -5 -10 -5h-34zM789 645q8 0 5 -9l-177 -629q-2 -7 -9 -7h-37q-6 0 -8 7l-105 373q-29 99 -49 194q-14 -70 -48 -194l-105 -373q-2 -7 -9 -7h-37 q-6 0 -8 7l-178 629q-2 9 6 9h38q7 0 8 -7l104 -367q30 -105 49 -193q15 75 49 193l103 367q2 7 9 7h39q7 0 8 -7l104 -367q30 -105 49 -193q15 75 49 193l103 367q3 7 9 7h38z" />
<glyph unicode="&#x175;" horiz-adv-x="719" d="M250 567q-12 0 -5 9l90 97q3 3 9 3h31q6 0 9 -3l90 -97q4 -4 2.5 -6.5t-6.5 -2.5h-35q-6 0 -9 5l-66 75l-66 -75q-4 -5 -10 -5h-34zM694 497q8 0 5 -8l-151 -482q-2 -7 -9 -7h-43q-6 0 -8 7l-72 230q-35 105 -56 203q-21 -92 -56 -203l-73 -230q-2 -7 -8 -7h-43 q-6 0 -8 7l-152 482q-3 8 6 8h37q6 0 8 -7l75 -238q39 -128 55 -199q17 77 56 199l75 238q2 7 8 7h39q7 0 9 -7l74 -238q39 -122 56 -199q19 83 56 199l74 238q2 7 9 7h37z" />
<glyph unicode="&#x176;" horiz-adv-x="472" d="M126 715q-12 0 -5 9l90 97q3 3 9 3h31q6 0 9 -3l90 -97q4 -4 2.5 -6.5t-6.5 -2.5h-35q-6 0 -9 5l-66 75l-66 -75q-4 -5 -10 -5h-34zM459 645q10 0 5 -8l-203 -394v-236q0 -7 -8 -7h-35q-7 0 -7 7v234l-204 396q-3 8 6 8h38q5 0 8 -5l102 -199q52 -101 75 -161 q27 68 74 161l103 199q3 5 8 5h38z" />
<glyph unicode="&#x177;" horiz-adv-x="442" d="M114 567q-12 0 -5 9l90 97q3 3 9 3h31q6 0 9 -3l90 -97q4 -4 2.5 -6.5t-6.5 -2.5h-35q-6 0 -9 5l-66 75l-66 -75q-4 -5 -10 -5h-34zM426 497q9 0 6 -8l-257 -685q-2 -6 -8 -6h-37q-9 0 -6 8l72 191l-182 492q-3 8 6 8h37q6 0 8 -6l92 -246q45 -126 66 -197q31 103 67 198 l91 245q2 6 8 6h37z" />
<glyph unicode="&#x178;" horiz-adv-x="472" d="M146 733q-7 0 -7 7v77q0 7 7 7h36q7 0 7 -7v-77q0 -7 -7 -7h-36zM288 733q-7 0 -7 7v77q0 7 7 7h36q7 0 7 -7v-77q0 -7 -7 -7h-36zM459 645q10 0 5 -8l-203 -394v-236q0 -7 -8 -7h-35q-7 0 -7 7v234l-204 396q-3 8 6 8h38q5 0 8 -5l102 -199q52 -101 75 -161 q27 68 74 161l103 199q3 5 8 5h38z" />
<glyph unicode="&#x179;" horiz-adv-x="441" d="M180 715q-12 0 -3 9l95 97q4 3 9 3h44q12 0 4 -8l-104 -98q-5 -3 -9 -3h-36zM407 46q7 0 7 -7v-32q0 -7 -7 -7h-373q-7 0 -7 7v28q0 5 3 10l258 452q43 74 65 102h-310q-7 0 -7 7v32q0 7 7 7h355q7 0 7 -7v-28q0 -2 -3 -10l-261 -456q-35 -61 -62 -98h328z" />
<glyph unicode="&#x17a;" horiz-adv-x="406" d="M161 567q-12 0 -3 9l95 97q4 3 9 3h44q12 0 4 -8l-104 -98q-4 -3 -9 -3h-36zM367 46q7 0 7 -7v-32q0 -7 -7 -7h-328q-8 0 -8 7v30q0 3 3 9l237 355q25 37 39 49h-261q-8 0 -8 8v31q0 8 8 8h308q7 0 7 -8v-30q0 -5 -2 -9l-238 -356q-29 -39 -38 -48h281z" />
<glyph unicode="&#x17b;" horiz-adv-x="441" d="M203 733q-7 0 -7 7v77q0 7 7 7h36q7 0 7 -7v-77q0 -7 -7 -7h-36zM407 46q7 0 7 -7v-32q0 -7 -7 -7h-373q-7 0 -7 7v28q0 5 3 10l258 452q43 74 65 102h-310q-7 0 -7 7v32q0 7 7 7h355q7 0 7 -7v-28q0 -2 -3 -10l-261 -456q-35 -61 -62 -98h328z" />
<glyph unicode="&#x17c;" horiz-adv-x="406" d="M184 585q-7 0 -7 7v77q0 7 7 7h36q7 0 7 -7v-77q0 -7 -7 -7h-36zM367 46q7 0 7 -7v-32q0 -7 -7 -7h-328q-8 0 -8 7v30q0 3 3 9l237 355q25 37 39 49h-261q-8 0 -8 8v31q0 8 8 8h308q7 0 7 -8v-30q0 -5 -2 -9l-238 -356q-29 -39 -38 -48h281z" />
<glyph unicode="&#x17d;" horiz-adv-x="441" d="M197 718l-90 97q-7 9 5 9h34q6 0 10 -5l66 -75l66 75q3 5 9 5h35q5 0 6.5 -2.5t-2.5 -6.5l-90 -97q-3 -3 -9 -3h-31q-6 0 -9 3zM407 46q7 0 7 -7v-32q0 -7 -7 -7h-373q-7 0 -7 7v28q0 5 3 10l258 452q43 74 65 102h-310q-7 0 -7 7v32q0 7 7 7h355q7 0 7 -7v-28 q0 -2 -3 -10l-261 -456q-35 -61 -62 -98h328z" />
<glyph unicode="&#x17e;" horiz-adv-x="406" d="M178 570l-90 97q-7 9 5 9h34q6 0 10 -5l66 -75l66 75q3 5 9 5h35q5 0 6.5 -2.5t-2.5 -6.5l-90 -97q-3 -3 -9 -3h-31q-6 0 -9 3zM367 46q7 0 7 -7v-32q0 -7 -7 -7h-328q-8 0 -8 7v30q0 3 3 9l237 355q25 37 39 49h-261q-8 0 -8 8v31q0 8 8 8h308q7 0 7 -8v-30q0 -5 -2 -9 l-238 -356q-29 -39 -38 -48h281z" />
<glyph unicode="&#x1cd;" horiz-adv-x="526" d="M238 718l-90 97q-7 9 5 9h34q6 0 10 -5l66 -75l66 75q3 5 9 5h35q5 0 6.5 -2.5t-2.5 -6.5l-90 -97q-3 -3 -9 -3h-31q-6 0 -9 3zM507 8q3 -8 -6 -8h-37q-6 0 -8 6l-58 169h-269l-59 -170q-2 -5 -8 -5h-37q-9 0 -6 8l219 631q2 6 8 6h34q6 0 8 -6zM145 221h237l-61 175 q-35 97 -58 183q-23 -86 -58 -183z" />
<glyph unicode="&#x1ce;" horiz-adv-x="515" d="M234 570l-90 97q-7 9 5 9h34q6 0 10 -5l66 -75l66 75q3 5 9 5h35q5 0 6.5 -2.5t-2.5 -6.5l-90 -97q-3 -3 -9 -3h-31q-6 0 -9 3zM259 505q99 0 140 -37.5t41 -120.5v-340q0 -7 -6 -7h-20q-6 0 -8 5l-15 31q-79 -44 -172 -44q-84 0 -124 34t-40 104v13q0 68 36.5 99 t122.5 31h176v74q0 62 -27.5 86.5t-103.5 24.5h-6q-76 0 -103.5 -24.5t-27.5 -85.5v-3q0 -7 -8 -7h-34q-8 0 -8 7v3q0 83 41 120t140 37h6zM105 130q0 -50 27 -72t91 -22q87 0 167 42v151h-180q-59 0 -82 -19.5t-23 -66.5v-13z" />
<glyph unicode="&#x1fc;" horiz-adv-x="813" d="M521 715q-12 0 -3 9l95 97q5 3 9 3h44q12 0 4 -8l-104 -98q-4 -3 -9 -3h-36zM761 599h-303v-249h273q7 0 7 -7v-32q0 -7 -7 -7h-273v-258h303q7 0 7 -7v-32q0 -7 -7 -7h-346q-7 0 -7 7v165h-245l-90 -166q-2 -6 -9 -6h-39q-9 0 -6 9l342 631q2 5 8 5h392q7 0 7 -7v-32 q0 -7 -7 -7zM188 218h220v381h-13z" />
<glyph unicode="&#x1fd;" horiz-adv-x="817" d="M364 567q-12 0 -3 9l95 97q4 3 9 3h44q12 0 4 -8l-104 -98q-5 -3 -9 -3h-36zM744 236h-314v-83q0 -64 28 -89.5t105 -25.5h6q77 0 105 25t28 88v3q0 7 8 7h34q8 0 8 -7v-3q0 -84 -41.5 -121.5t-141.5 -37.5h-6q-120 0 -159 58q-90 -58 -192 -58q-157 0 -157 139v12 q0 68 37 99t121 31h167v71q0 64 -27 89t-99 25h-6q-72 0 -99 -25t-27 -88v-3q0 -8 -8 -8h-34q-8 0 -8 8v3q0 84 40.5 122t135.5 38h6q120 0 152 -71q31 71 157 71h6q100 0 141.5 -37.5t41.5 -123.5v-100q0 -8 -8 -8zM563 458q-77 0 -105 -25t-28 -89v-64h272v64q0 64 -28 89 t-105 25h-6zM218 36q87 0 170 50q-8 30 -8 67v77h-170q-58 0 -81.5 -20t-23.5 -67v-12q0 -50 26.5 -72.5t86.5 -22.5z" />
<glyph unicode="&#x1fe;" horiz-adv-x="591" d="M254 715q-12 0 -3 9l95 97q4 3 9 3h44q12 0 4 -8l-104 -98q-5 -3 -9 -3h-36zM465 619q51 -37 51 -130v-333q0 -88 -47 -126t-170 -38h-6q-86 0 -131 17l-25 -51q-3 -5 -9 -5h-27q-10 0 -6 8l32 65q-52 37 -52 130v333q0 88 47 126t171 38h6q85 0 130 -17l25 50q2 5 9 5 h27q10 0 6 -9zM125 156q0 -60 25 -85l258 523q-36 13 -109 13h-6q-101 0 -134.5 -25.5t-33.5 -92.5v-333zM466 156v333q0 60 -24 85l-259 -523q36 -13 110 -13h6q101 0 134 25.5t33 92.5z" />
<glyph unicode="&#x1ff;" d="M223 567q-12 0 -3 9l95 97q5 3 9 3h44q12 0 4 -8l-104 -98q-4 -3 -9 -3h-36zM400 479q59 -34 59 -135v-191q0 -86 -42.5 -123.5t-148.5 -37.5h-6q-56 0 -97 11l-22 -44q-3 -5 -9 -5h-27q-9 0 -6 8l28 56q-59 34 -59 135v191q0 86 42.5 123.5t149.5 37.5h6q57 0 96 -11 l22 44q2 5 9 5h27q11 0 6 -8zM120 153q0 -67 31 -91l192 389q-28 7 -75 7h-6q-84 0 -113 -24.5t-29 -89.5v-191zM409 153v191q0 67 -31 91l-192 -389q25 -8 76 -8h6q83 0 112 25t29 90z" />
<glyph unicode="&#x218;" horiz-adv-x="511" d="M46 155v30q0 8 7 8h36q7 0 7 -8v-30q0 -66 31.5 -91.5t125.5 -25.5h6q93 0 124.5 25.5t31.5 91.5v28q0 52 -20 72.5t-87 35.5l-128 29q-72 16 -100.5 49t-28.5 102v20q0 86 45 124t157 38h6q112 0 156.5 -38t44.5 -124v-31q0 -8 -8 -8h-35q-7 0 -7 8v31q0 66 -31 91 t-120 25h-6q-90 0 -121 -25t-31 -91v-20q0 -51 19 -72t82 -35l128 -29q78 -17 106.5 -49t28.5 -103v-28q0 -87 -45 -125t-161 -38h-6q-116 0 -161.5 38t-45.5 125zM239 -228q-7 0 -7 7v141q0 7 8 7h32q7 0 7 -7v-48q0 -6 -1 -11l-20 -82q-1 -7 -8 -7h-11z" />
<glyph unicode="&#x219;" horiz-adv-x="470" d="M50 118v36q0 8 7 8h35q7 0 7 -8v-36q0 -42 30 -61t104 -19h6q73 0 102 19t29 61v15q0 34 -14.5 50t-60.5 29l-132 37q-60 18 -83 43.5t-23 71.5v15q0 62 41 94t134 32h6q92 0 133.5 -32t41.5 -94v-36q0 -8 -7 -8h-35q-7 0 -7 8v36q0 42 -28 60.5t-98 18.5h-6 q-71 0 -98 -18.5t-27 -60.5v-15q0 -30 15 -44.5t63 -27.5l132 -38q58 -15 80.5 -43t22.5 -78v-15q0 -63 -42 -94.5t-139 -31.5h-6q-97 0 -140 32t-43 94zM218 -228q-7 0 -7 7v141q0 7 8 7h32q7 0 7 -7v-48q0 -6 -1 -11l-20 -82q-1 -7 -8 -7h-11z" />
<glyph unicode="&#x21a;" horiz-adv-x="458" d="M433 645q7 0 7 -7v-32q0 -7 -7 -7h-179v-592q0 -7 -7 -7h-36q-7 0 -7 7v592h-179q-7 0 -7 7v32q0 7 7 7h408zM245 -73q7 0 7 -7v-48q0 -6 -1 -11l-20 -82q-1 -7 -8 -7h-11q-7 0 -7 7v141q0 7 8 7h32z" />
<glyph unicode="&#x21b;" horiz-adv-x="322" d="M289 41q7 0 7 -7v-31q0 -7 -7 -7h-44q-79 0 -109.5 31t-30.5 114v312h-88q-7 0 -7 7v15q0 7 8 8l87 10v145q0 7 7 7h36q7 0 7 -7v-141h132q7 0 7 -8v-29q0 -7 -7 -7h-132v-305q0 -65 18.5 -86t73.5 -21h42zM213 -73q7 0 7 -7v-48q0 -6 -1 -11l-20 -82q-1 -7 -8 -7h-11 q-7 0 -7 7v141q0 7 8 7h32z" />
<glyph unicode="&#x237;" horiz-adv-x="210" d="M-27 -208q-8 0 -8 7v29q0 8 8 8h16q54 0 72.5 21.5t18.5 86.5v545q0 8 7 8h36q7 0 7 -8v-551q0 -83 -30 -114.5t-109 -31.5h-18z" />
<glyph unicode="&#x2c6;" d="M379 576q4 -4 2.5 -6.5t-6.5 -2.5h-35q-6 0 -9 5l-66 75l-66 -75q-4 -5 -10 -5h-34q-12 0 -5 9l90 97q3 3 9 3h31q6 0 9 -3z" />
<glyph unicode="&#x2c7;" d="M375 676q5 0 6.5 -2.5t-2.5 -6.5l-90 -97q-3 -3 -9 -3h-31q-6 0 -9 3l-90 97q-7 9 5 9h34q6 0 10 -5l66 -75l66 75q3 5 9 5h35z" />
<glyph unicode="&#x2d8;" d="M361 676q7 0 7 -7v-20q0 -46 -22.5 -65.5t-78.5 -19.5h-4q-56 0 -79 19.5t-23 65.5v20q0 7 8 7h24q7 0 7 -7v-20q0 -30 12.5 -40.5t50.5 -10.5h4q38 0 50 10.5t12 40.5v20q0 7 8 7h24z" />
<glyph unicode="&#x2d9;" d="M247 585q-7 0 -7 7v77q0 7 7 7h36q7 0 7 -7v-77q0 -7 -7 -7h-36z" />
<glyph unicode="&#x2da;" d="M264 560q-48 0 -65.5 13.5t-17.5 46.5v15q0 33 17.5 46t65.5 13h2q48 0 65.5 -13t17.5 -46v-15q0 -33 -17.5 -46.5t-65.5 -13.5h-2zM264 590h2q33 0 42 6t9 25v12q0 19 -9 25t-42 6h-2q-33 0 -42 -6t-9 -25v-12q0 -19 9 -25t42 -6z" />
<glyph unicode="&#x2db;" horiz-adv-x="533" d="M261 -208q-50 0 -72.5 18.5t-22.5 57.5v6q0 25 11 43t47 51l57 53h23v-13q0 -8 -6 -14l-43 -43q-31 -31 -39 -44t-8 -33v-6q0 -22 10.5 -30t42.5 -8h35q8 0 8 -7v-24q0 -7 -8 -7h-35z" />
<glyph unicode="&#x2dc;" d="M340 567q-28 0 -54 19l-66 44q-18 12 -30 12q-19 0 -19 -27v-29q0 -8 -7 -8h-22q-8 0 -8 8v27q0 30 15 46.5t40 16.5q28 0 54 -19l66 -44q20 -12 31 -12q18 0 18 27v29q0 8 8 8h22q7 0 7 -8v-27q0 -30 -15 -46.5t-40 -16.5z" />
<glyph unicode="&#x2dd;" horiz-adv-x="532" d="M219 567q-11 0 -6 8l55 96q2 5 9 5h36q11 0 5 -9l-63 -96q-3 -4 -8 -4h-28zM346 567q-11 0 -6 8l55 96q4 5 9 5h36q10 0 6 -9l-63 -96q-3 -4 -9 -4h-28z" />
<glyph unicode="&#x300;" horiz-adv-x="0" d="M-254 567q-6 0 -9 3l-105 98q-3 3 -1.5 5.5t6.5 2.5h43q6 0 9 -3l96 -97q4 -4 2.5 -6.5t-6.5 -2.5h-35z" />
<glyph unicode="&#x301;" horiz-adv-x="0" d="M-306 567q-12 0 -3 9l95 97q5 3 9 3h44q12 0 4 -8l-104 -98q-5 -3 -9 -3h-36z" />
<glyph unicode="&#x302;" horiz-adv-x="0" d="M-150 576q4 -4 2.5 -6.5t-6.5 -2.5h-35q-6 0 -9 5l-66 75l-66 -75q-4 -5 -10 -5h-34q-12 0 -5 9l90 97q3 3 9 3h31q6 0 9 -3z" />
<glyph unicode="&#x303;" horiz-adv-x="0" d="M-189 567q-28 0 -54 19l-66 44q-18 12 -30 12q-19 0 -19 -27v-29q0 -8 -7 -8h-22q-8 0 -8 8v27q0 30 15 46.5t40 16.5q28 0 54 -19l66 -44q20 -12 31 -12q18 0 18 27v29q0 8 8 8h22q7 0 7 -8v-27q0 -30 -15 -46.5t-40 -16.5z" />
<glyph unicode="&#x304;" horiz-adv-x="0" d="M-364 585q-7 0 -7 7v28q0 7 7 7h199q7 0 7 -7v-28q0 -7 -7 -7h-199z" />
<glyph unicode="&#x306;" horiz-adv-x="0" d="M-168 676q7 0 7 -7v-20q0 -46 -22.5 -65.5t-78.5 -19.5h-4q-56 0 -79 19.5t-23 65.5v20q0 7 8 7h24q7 0 7 -7v-20q0 -30 12.5 -40.5t50.5 -10.5h4q38 0 50 10.5t12 40.5v20q0 7 8 7h24z" />
<glyph unicode="&#x307;" horiz-adv-x="0" d="M-283 585q-7 0 -7 7v77q0 7 7 7h36q7 0 7 -7v-77q0 -7 -7 -7h-36z" />
<glyph unicode="&#x308;" horiz-adv-x="0" d="M-354 585q-7 0 -7 7v77q0 7 7 7h36q7 0 7 -7v-77q0 -7 -7 -7h-36zM-212 585q-7 0 -7 7v77q0 7 7 7h36q7 0 7 -7v-77q0 -7 -7 -7h-36z" />
<glyph unicode="&#x30a;" horiz-adv-x="0" d="M-265 560q-48 0 -65.5 13.5t-17.5 46.5v15q0 33 17.5 46t65.5 13h2q48 0 65.5 -13t17.5 -46v-15q0 -33 -17.5 -46.5t-65.5 -13.5h-2zM-265 590h2q33 0 42 6t9 25v12q0 19 -9 25t-42 6h-2q-33 0 -42 -6t-9 -25v-12q0 -19 9 -25t42 -6z" />
<glyph unicode="&#x30b;" horiz-adv-x="0" d="M-350 567q-11 0 -6 8l55 96q3 5 9 5h36q11 0 5 -9l-63 -96q-3 -4 -8 -4h-28zM-223 567q-11 0 -6 8l55 96q4 5 9 5h36q11 0 6 -9l-63 -96q-3 -4 -9 -4h-28z" />
<glyph unicode="&#x30c;" horiz-adv-x="0" d="M-154 676q5 0 6.5 -2.5t-2.5 -6.5l-90 -97q-3 -3 -9 -3h-31q-6 0 -9 3l-90 97q-7 9 5 9h34q6 0 10 -5l66 -75l66 75q3 5 9 5h35z" />
<glyph unicode="&#x312;" horiz-adv-x="0" d="M-281 722h11q7 0 8 -7l20 -82q1 -5 1 -11v-48q0 -7 -7 -7h-32q-8 0 -8 7v141q0 7 7 7z" />
<glyph unicode="&#x326;" horiz-adv-x="0" d="M-281 -228q-7 0 -7 7v141q0 7 8 7h32q7 0 7 -7v-48q0 -6 -1 -11l-20 -82q-1 -7 -8 -7h-11z" />
<glyph unicode="&#x327;" horiz-adv-x="0" d="M-259 -71q42 0 59.5 -14.5t17.5 -48.5v-12q0 -34 -17.5 -48t-59.5 -14h-80q-8 0 -8 7v21q0 8 8 8h80q23 0 31 5.5t8 20.5v14q0 15 -8 20.5t-31 5.5h-79q-8 0 -7 9l20 110h37l-14 -84h43z" />
<glyph unicode="&#x328;" horiz-adv-x="0" d="M-258 -208q-50 0 -72.5 18.5t-22.5 57.5v6q0 25 11 43t47 51l57 53h23v-13q0 -8 -6 -14l-43 -43q-31 -31 -39 -44t-8 -33v-6q0 -22 10.5 -30t42.5 -8h35q8 0 8 -7v-24q0 -7 -8 -7h-35z" />
<glyph unicode="&#x335;" horiz-adv-x="0" d="M-277 314q-7 0 -7 8v23q0 7 7 7h260q7 0 7 -7v-23q0 -8 -7 -8h-260z" />
<glyph unicode="&#x336;" horiz-adv-x="0" d="M-506 460q-7 0 -7 7v27q0 8 7 8h488q7 0 7 -8v-27q0 -7 -7 -7h-488z" />
<glyph unicode="&#x337;" horiz-adv-x="0" d="M-375 -46q-9 0 -6 8l285 576q2 5 9 5h27q11 0 6 -8l-285 -576q-3 -5 -9 -5h-27z" />
<glyph unicode="&#x338;" horiz-adv-x="0" d="M-449 -46q-10 0 -6 8l359 725q2 5 9 5h27q10 0 6 -9l-359 -724q-3 -5 -9 -5h-27z" />
<glyph unicode="&#x401;" horiz-adv-x="491" d="M170 733q-7 0 -7 7v77q0 7 7 7h36q7 0 7 -7v-77q0 -7 -7 -7h-36zM312 733q-7 0 -7 7v77q0 7 7 7h36q7 0 7 -7v-77q0 -7 -7 -7h-36zM438 599h-303v-249h273q7 0 7 -7v-32q0 -7 -7 -7h-273v-258h303q7 0 7 -7v-32q0 -7 -7 -7h-346q-7 0 -7 7v631q0 7 7 7h346q7 0 7 -7v-32 q0 -7 -7 -7z" />
<glyph unicode="&#x402;" horiz-adv-x="646" d="M430 411q87 0 127 -40t40 -127v-106q0 -83 -30 -114.5t-108 -31.5h-52q-8 0 -8 7v29q0 8 8 8h49q55 0 73 21t18 87v92q0 72 -27 100t-93 28q-95 0 -194 -50v-307q0 -7 -7 -7h-36q-7 0 -7 7v592h-179q-7 0 -7 7v32q0 7 7 7h408q7 0 7 -7v-32q0 -7 -7 -7h-179v-237 q99 49 197 49z" />
<glyph unicode="&#x403;" horiz-adv-x="447" d="M204 715q-12 0 -3 9l95 97q4 3 9 3h44q12 0 4 -8l-104 -98q-5 -3 -9 -3h-36zM418 645q8 0 8 -7v-32q0 -7 -8 -7h-283v-592q0 -7 -7 -7h-36q-7 0 -7 7v631q0 7 7 7h326z" />
<glyph unicode="&#x404;" horiz-adv-x="574" d="M461 442q-7 0 -7 8v39q0 67 -32.5 92.5t-129.5 25.5h-6q-96 0 -128.5 -25.5t-32.5 -92.5v-144h232q7 0 7 -7v-30q0 -8 -7 -8h-232v-144q0 -67 32.5 -92.5t128.5 -25.5h6q97 0 129.5 25.5t32.5 92.5v39q0 8 7 8h35q8 0 8 -8v-39q0 -88 -46.5 -126t-165.5 -38h-6 q-119 0 -165 38t-46 126v333q0 88 46 126t165 38h6q119 0 165.5 -38t46.5 -126v-39q0 -8 -8 -8h-35z" />
<glyph unicode="&#x405;" horiz-adv-x="511" d="M46 155v30q0 8 7 8h36q7 0 7 -8v-30q0 -66 31.5 -91.5t125.5 -25.5h6q93 0 124.5 25.5t31.5 91.5v28q0 52 -20 72.5t-87 35.5l-128 29q-72 16 -100.5 49t-28.5 102v20q0 86 45 124t157 38h6q112 0 156.5 -38t44.5 -124v-31q0 -8 -8 -8h-35q-7 0 -7 8v31q0 66 -31 91 t-120 25h-6q-90 0 -121 -25t-31 -91v-20q0 -51 19 -72t82 -35l128 -29q78 -17 106.5 -49t28.5 -103v-28q0 -87 -45 -125t-161 -38h-6q-116 0 -161.5 38t-45.5 125z" />
<glyph unicode="&#x406;" horiz-adv-x="220" d="M92 0q-7 0 -7 7v631q0 7 7 7h36q7 0 7 -7v-631q0 -7 -7 -7h-36z" />
<glyph unicode="&#x407;" horiz-adv-x="220" d="M20 733q-7 0 -7 7v77q0 7 7 7h36q7 0 7 -7v-77q0 -7 -7 -7h-36zM162 733q-7 0 -7 7v77q0 7 7 7h36q7 0 7 -7v-77q0 -7 -7 -7h-36zM92 0q-7 0 -7 7v631q0 7 7 7h36q7 0 7 -7v-631q0 -7 -7 -7h-36z" />
<glyph unicode="&#x408;" horiz-adv-x="492" d="M217 -8q-103 0 -146 38.5t-43 125.5v23q0 7 8 7h35q7 0 7 -7v-23q0 -66 29.5 -92t109.5 -26h6q81 0 110 25.5t29 92.5v482q0 7 8 7h35q7 0 7 -7v-482q0 -87 -42.5 -125.5t-146.5 -38.5h-6z" />
<glyph unicode="&#x409;" horiz-adv-x="869" d="M658 379q92 0 132 -36.5t40 -114.5v-77q0 -78 -40 -114.5t-132 -36.5h-222q-7 0 -7 7v592h-249l-19 -365q-4 -96 -20.5 -147.5t-45 -71t-78.5 -19.5h-5q-5 0 -5 7v34q0 7 7 7h3q49 0 68 36.5t26 153.5l20 404q0 7 8 7h332q8 0 8 -7v-259h179zM780 151v77q0 61 -28.5 83 t-107.5 22h-165v-287h165q79 0 107.5 22t28.5 83z" />
<glyph unicode="&#x40a;" horiz-adv-x="884" d="M674 358q92 0 132 -36.5t40 -113.5v-57q0 -78 -40 -114.5t-132 -36.5h-222q-8 0 -8 7v305h-309v-305q0 -7 -7 -7h-36q-7 0 -7 7v631q0 7 7 7h36q7 0 7 -7v-280h309v280q0 7 8 7h35q7 0 7 -7v-280h180zM796 151v57q0 61 -28.5 82.5t-107.5 21.5h-166v-266h166 q79 0 107.5 22t28.5 83z" />
<glyph unicode="&#x40b;" horiz-adv-x="646" d="M430 411q87 0 127 -40t40 -127v-237q0 -7 -7 -7h-35q-8 0 -8 7v229q0 72 -27 100t-93 28q-95 0 -194 -50v-307q0 -7 -7 -7h-36q-7 0 -7 7v592h-179q-7 0 -7 7v32q0 7 7 7h408q7 0 7 -7v-32q0 -7 -7 -7h-179v-237q99 49 197 49z" />
<glyph unicode="&#x40c;" horiz-adv-x="534" d="M232 715q-12 0 -3 9l95 97q4 3 9 3h44q12 0 4 -8l-104 -98q-5 -3 -9 -3h-36zM510 8q5 -8 -5 -8h-40q-5 0 -9 5l-194 297h-127v-295q0 -7 -7 -7h-36q-7 0 -7 7v631q0 7 7 7h36q7 0 7 -7v-290h127l191 293q4 4 8 4h40q10 0 5 -8l-203 -312z" />
<glyph unicode="&#x40d;" horiz-adv-x="627" d="M314 718l-105 98q-3 3 -1.5 5.5t6.5 2.5h43q6 0 9 -3l96 -97q4 -4 2.5 -6.5t-6.5 -2.5h-35q-6 0 -9 3zM535 645q7 0 7 -7v-631q0 -7 -7 -7h-36q-7 0 -7 7v376q0 120 4 192q-33 -63 -115 -192l-241 -378q-4 -5 -9 -5h-39q-7 0 -7 7v631q0 7 7 7h35q8 0 8 -7v-376 q0 -120 -5 -192q44 81 116 192l241 378q4 5 9 5h39z" />
<glyph unicode="&#x40e;" horiz-adv-x="471" d="M239 712q-56 0 -79 19.5t-23 65.5v20q0 7 8 7h24q7 0 7 -7v-20q0 -30 12.5 -40.5t50.5 -10.5h4q38 0 50 10.5t12 40.5v20q0 7 8 7h24q7 0 7 -7v-20q0 -46 -22.5 -65.5t-78.5 -19.5h-4zM466 645q9 0 5 -8l-199 -517q-29 -76 -61 -100.5t-101 -24.5h-44q-8 0 -8 7v32 q0 7 8 7h49q45 0 67 16.5t39 61.5l6 16l-205 502q-3 8 6 8h34q7 0 9 -6l110 -269q43 -102 71 -192q24 84 66 192l104 269q2 6 8 6h36z" />
<glyph unicode="&#x40f;" horiz-adv-x="589" d="M497 645q7 0 7 -7v-631q0 -7 -7 -7h-177l-5 -126q0 -8 -8 -8h-24q-8 0 -8 8l-5 126h-178q-7 0 -7 7v631q0 7 7 7h36q7 0 7 -7v-592h319v592q0 7 8 7h35z" />
<glyph unicode="&#x410;" horiz-adv-x="526" d="M507 8q3 -8 -6 -8h-37q-6 0 -8 6l-58 169h-269l-59 -170q-2 -5 -8 -5h-37q-9 0 -6 8l219 631q2 6 8 6h34q6 0 8 -6zM145 221h237l-61 175q-35 97 -58 183q-23 -86 -58 -183z" />
<glyph unicode="&#x411;" horiz-adv-x="550" d="M329 359q93 0 133 -37t40 -114v-57q0 -77 -40 -114t-133 -37h-237q-7 0 -7 7v631q0 7 7 7h357q8 0 8 -7v-32q0 -7 -8 -7h-314v-240h194zM452 151v57q0 61 -28.5 83t-108.5 22h-180v-267h180q80 0 108.5 22t28.5 83z" />
<glyph unicode="&#x412;" horiz-adv-x="555" d="M403 330q54 -10 77 -40.5t23 -90.5v-48q0 -78 -40 -114.5t-133 -36.5h-238q-7 0 -7 7v631q0 7 7 7h215q92 0 132 -36.5t40 -114.5v-38q0 -53 -18 -83t-58 -43zM293 599h-158v-248h158q79 0 107.5 22t28.5 83v38q0 61 -28.5 83t-107.5 22zM453 151v48q0 61 -29 83t-108 22 h-181v-258h181q79 0 108 22t29 83z" />
<glyph unicode="&#x413;" horiz-adv-x="447" d="M418 645q8 0 8 -7v-32q0 -7 -8 -7h-283v-592q0 -7 -7 -7h-36q-7 0 -7 7v631q0 7 7 7h326z" />
<glyph unicode="&#x414;" horiz-adv-x="572" d="M541 46q8 0 8 -7v-165q0 -8 -8 -8h-22q-6 0 -8 8l-10 126h-447l-10 -126q-2 -8 -8 -8h-22q-8 0 -8 8v165q0 7 8 7h38q33 53 45 114t12 174v304q0 7 7 7h358q8 0 8 -7v-592h59zM158 334q0 -112 -11.5 -173t-41.5 -115h327v553h-274v-265z" />
<glyph unicode="&#x415;" horiz-adv-x="491" d="M438 599h-303v-249h273q7 0 7 -7v-32q0 -7 -7 -7h-273v-258h303q7 0 7 -7v-32q0 -7 -7 -7h-346q-7 0 -7 7v631q0 7 7 7h346q7 0 7 -7v-32q0 -7 -7 -7z" />
<glyph unicode="&#x416;" horiz-adv-x="783" d="M759 8q4 -8 -5 -8h-41q-5 0 -9 6l-164 296h-124v-295q0 -7 -7 -7h-35q-8 0 -8 7v295h-123l-164 -296q-4 -6 -9 -6h-41q-10 0 -5 8l177 317l-173 312q-5 8 5 8h40q5 0 8 -5l161 -292h124v290q0 7 8 7h35q7 0 7 -7v-290h124l161 292q3 5 9 5h40q9 0 5 -8l-173 -312z" />
<glyph unicode="&#x417;" horiz-adv-x="524" d="M369 329q56 -11 78 -41.5t22 -90.5v-44q0 -86 -45 -123.5t-160 -37.5h-6q-115 0 -160 37.5t-45 123.5v26q0 7 7 7h36q7 0 7 -7v-26q0 -65 31.5 -90t123.5 -25h6q92 0 123.5 25t31.5 90v44q0 62 -30.5 84.5t-124.5 22.5h-76q-7 0 -7 8v31q0 8 7 8h70q94 0 124.5 23 t30.5 85v33q0 66 -30 90.5t-119 24.5h-6q-89 0 -119 -24.5t-30 -90.5v-36q0 -7 -8 -7h-35q-7 0 -7 7v36q0 86 44 123.5t155 37.5h6q111 0 155 -37.5t44 -123.5v-33q0 -58 -21 -88.5t-73 -41.5z" />
<glyph unicode="&#x418;" horiz-adv-x="627" d="M535 645q7 0 7 -7v-631q0 -7 -7 -7h-36q-7 0 -7 7v376q0 120 4 192q-33 -63 -115 -192l-241 -378q-4 -5 -9 -5h-39q-7 0 -7 7v631q0 7 7 7h35q8 0 8 -7v-376q0 -120 -5 -192q44 81 116 192l241 378q4 5 9 5h39z" />
<glyph unicode="&#x419;" horiz-adv-x="627" d="M311 712q-56 0 -79 19.5t-23 65.5v20q0 7 8 7h24q7 0 7 -7v-20q0 -30 12.5 -40.5t50.5 -10.5h4q38 0 50 10.5t12 40.5v20q0 7 8 7h24q7 0 7 -7v-20q0 -46 -22.5 -65.5t-78.5 -19.5h-4zM535 645q7 0 7 -7v-631q0 -7 -7 -7h-36q-7 0 -7 7v376q0 120 4 192 q-33 -63 -115 -192l-241 -378q-4 -5 -9 -5h-39q-7 0 -7 7v631q0 7 7 7h35q8 0 8 -7v-376q0 -120 -5 -192q44 81 116 192l241 378q4 5 9 5h39z" />
<glyph unicode="&#x41a;" horiz-adv-x="534" d="M510 8q5 -8 -5 -8h-40q-5 0 -9 5l-194 297h-127v-295q0 -7 -7 -7h-36q-7 0 -7 7v631q0 7 7 7h36q7 0 7 -7v-290h127l191 293q4 4 8 4h40q10 0 5 -8l-203 -312z" />
<glyph unicode="&#x41b;" horiz-adv-x="579" d="M486 645q8 0 8 -7v-631q0 -7 -8 -7h-35q-7 0 -7 7v592h-264l-19 -365q-7 -140 -38.5 -189t-105.5 -49h-5q-5 0 -5 7v34q0 7 7 7h3q49 0 68.5 36.5t25.5 153.5l20 404q0 7 7 7h348z" />
<glyph unicode="&#x41c;" horiz-adv-x="729" d="M637 645q7 0 7 -7v-631q0 -7 -7 -7h-35q-7 0 -7 7v349q0 127 3 208q-29 -77 -95 -208l-115 -231q-2 -5 -9 -5h-29q-6 0 -8 5l-116 231q-67 139 -95 209q3 -81 3 -209v-349q0 -7 -7 -7h-35q-7 0 -7 7v631q0 7 7 7h39q7 0 9 -5l167 -336q37 -73 58 -131q22 63 58 131 l166 336q3 5 9 5h39z" />
<glyph unicode="&#x41d;" horiz-adv-x="599" d="M507 645q7 0 7 -7v-631q0 -7 -7 -7h-35q-8 0 -8 7v295h-329v-295q0 -7 -7 -7h-36q-7 0 -7 7v631q0 7 7 7h36q7 0 7 -7v-290h329v290q0 7 8 7h35z" />
<glyph unicode="&#x41e;" horiz-adv-x="591" d="M75 156v333q0 88 47 126t171 38h6q123 0 170 -38t47 -126v-333q0 -88 -47 -126t-170 -38h-6q-124 0 -171 38t-47 126zM125 156q0 -67 33.5 -92.5t134.5 -25.5h6q101 0 134 25.5t33 92.5v333q0 67 -33 92.5t-134 25.5h-6q-101 0 -134.5 -25.5t-33.5 -92.5v-333z" />
<glyph unicode="&#x41f;" horiz-adv-x="599" d="M507 645q7 0 7 -7v-631q0 -7 -7 -7h-35q-8 0 -8 7v592h-329v-592q0 -7 -7 -7h-36q-7 0 -7 7v631q0 7 7 7h415z" />
<glyph unicode="&#x420;" horiz-adv-x="517" d="M305 645q95 0 137 -36.5t42 -117.5v-97q0 -81 -42 -117.5t-137 -36.5h-170v-233q0 -7 -7 -7h-36q-7 0 -7 7v631q0 7 7 7h213zM434 394v97q0 61 -30 84.5t-113 23.5h-156v-313h156q83 0 113 23.5t30 84.5z" />
<glyph unicode="&#x421;" horiz-adv-x="559" d="M286 -8q-119 0 -165 38t-46 126v333q0 88 46 126t165 38h6q119 0 165.5 -38t46.5 -126v-39q0 -8 -8 -8h-35q-7 0 -7 8v39q0 67 -32.5 92.5t-129.5 25.5h-6q-96 0 -128.5 -25.5t-32.5 -92.5v-333q0 -67 32.5 -92.5t128.5 -25.5h6q97 0 129.5 25.5t32.5 92.5v39q0 8 7 8h35 q8 0 8 -8v-39q0 -88 -46.5 -126t-165.5 -38h-6z" />
<glyph unicode="&#x422;" horiz-adv-x="458" d="M433 645q7 0 7 -7v-32q0 -7 -7 -7h-179v-592q0 -7 -7 -7h-36q-7 0 -7 7v592h-179q-7 0 -7 7v32q0 7 7 7h408z" />
<glyph unicode="&#x423;" horiz-adv-x="471" d="M466 645q9 0 5 -8l-199 -517q-29 -76 -61 -100.5t-101 -24.5h-44q-8 0 -8 7v32q0 7 8 7h49q45 0 67 16.5t39 61.5l6 16l-205 502q-3 8 6 8h34q7 0 9 -6l110 -269q43 -102 71 -192q24 84 66 192l104 269q2 6 8 6h36z" />
<glyph unicode="&#x424;" horiz-adv-x="697" d="M423 606q118 0 163.5 -37.5t45.5 -123.5v-245q0 -86 -45.5 -123t-163.5 -37h-49v-69q0 -8 -8 -8h-35q-7 0 -7 8v69h-50q-118 0 -163.5 37t-45.5 123v245q0 87 45.5 124t163.5 37h50v68q0 8 7 8h35q8 0 8 -8v-68h49zM274 86h50v473h-50q-96 0 -127.5 -24.5t-31.5 -89.5 v-245q0 -65 32 -89.5t127 -24.5zM582 200v245q0 65 -31.5 89.5t-127.5 24.5h-49v-473h49q95 0 127 24.5t32 89.5z" />
<glyph unicode="&#x425;" horiz-adv-x="489" d="M465 8q5 -8 -5 -8h-42q-6 0 -8 5l-165 271l-165 -271q-4 -5 -9 -5h-41q-10 0 -5 8l193 317l-189 312q-5 8 5 8h41q5 0 9 -5l161 -265l161 265q2 5 8 5h42q10 0 5 -8l-190 -311z" />
<glyph unicode="&#x426;" horiz-adv-x="594" d="M563 46q8 0 8 -7v-165q0 -8 -8 -8h-22q-6 0 -8 8l-10 126h-431q-7 0 -7 7v631q0 7 7 7h36q7 0 7 -7v-592h319v592q0 7 7 7h35q8 0 8 -7v-592h59z" />
<glyph unicode="&#x427;" horiz-adv-x="540" d="M448 645q7 0 7 -7v-631q0 -7 -7 -7h-35q-8 0 -8 7v266q-99 -49 -197 -49q-86 0 -126.5 40t-40.5 127v247q0 7 8 7h35q7 0 7 -7v-239q0 -72 27 -100t93 -28q95 0 194 49v318q0 7 8 7h35z" />
<glyph unicode="&#x428;" horiz-adv-x="816" d="M724 645q7 0 7 -7v-631q0 -7 -7 -7h-632q-7 0 -7 7v631q0 7 7 7h36q7 0 7 -7v-592h248v592q0 7 7 7h36q7 0 7 -7v-592h248v592q0 7 7 7h36z" />
<glyph unicode="&#x429;" horiz-adv-x="820" d="M789 46q8 0 8 -7v-165q0 -8 -8 -8h-22q-6 0 -8 8l-10 126h-657q-7 0 -7 7v631q0 7 7 7h36q7 0 7 -7v-592h248v592q0 7 7 7h36q7 0 7 -7v-592h248v592q0 7 7 7h36q7 0 7 -7v-592h58z" />
<glyph unicode="&#x42a;" horiz-adv-x="595" d="M384 379q93 0 133 -36.5t40 -114.5v-77q0 -78 -40 -114.5t-133 -36.5h-242q-7 0 -7 7v592h-131q-7 0 -7 7v32q0 7 7 7h174q7 0 7 -7v-259h199zM507 151v77q0 61 -29 83t-108 22h-185v-287h185q79 0 108 22t29 83z" />
<glyph unicode="&#x42b;" horiz-adv-x="728" d="M314 379q93 0 133 -36.5t40 -114.5v-77q0 -78 -40 -114.5t-133 -36.5h-222q-7 0 -7 7v631q0 7 7 7h36q7 0 7 -7v-259h179zM636 645q7 0 7 -7v-631q0 -7 -7 -7h-36q-7 0 -7 7v631q0 7 7 7h36zM437 151v77q0 61 -29 83t-108 22h-165v-287h165q79 0 108 22t29 83z" />
<glyph unicode="&#x42c;" horiz-adv-x="545" d="M334 379q93 0 133 -36.5t40 -114.5v-77q0 -78 -40 -114.5t-133 -36.5h-242q-7 0 -7 7v631q0 7 7 7h36q7 0 7 -7v-259h199zM457 151v77q0 61 -29 83t-108 22h-185v-287h185q79 0 108 22t29 83z" />
<glyph unicode="&#x42d;" horiz-adv-x="574" d="M288 653q119 0 165 -38t46 -126v-333q0 -88 -46 -126t-165 -38h-6q-119 0 -165.5 38t-46.5 126v39q0 8 8 8h35q7 0 7 -8v-39q0 -67 32.5 -92.5t129.5 -25.5h6q96 0 128.5 25.5t32.5 92.5v144h-232q-7 0 -7 8v30q0 7 7 7h232v144q0 67 -32.5 92.5t-128.5 25.5h-6 q-97 0 -129.5 -25.5t-32.5 -92.5v-39q0 -8 -7 -8h-35q-8 0 -8 8v39q0 88 46.5 126t165.5 38h6z" />
<glyph unicode="&#x42e;" horiz-adv-x="779" d="M495 653q118 0 163.5 -38t45.5 -126v-333q0 -88 -45.5 -126t-163.5 -38h-6q-118 0 -164 38t-46 126v144h-144v-293q0 -7 -7 -7h-36q-7 0 -7 7v631q0 7 7 7h36q7 0 7 -7v-292h144v143q0 88 46 126t164 38h6zM654 156v333q0 67 -32 92.5t-127 25.5h-6q-95 0 -127.5 -25.5 t-32.5 -92.5v-333q0 -67 32.5 -92.5t127.5 -25.5h6q95 0 127 25.5t32 92.5z" />
<glyph unicode="&#x42f;" horiz-adv-x="546" d="M454 645q7 0 7 -7v-631q0 -7 -7 -7h-35q-8 0 -8 7v246h-162l-138 -248q-3 -5 -8 -5h-43q-9 0 -6 8l140 248q-69 8 -100 44.5t-31 106.5v84q0 81 42 117.5t137 36.5h212zM256 299h155v300h-155q-83 0 -113 -23.5t-30 -84.5v-84q0 -61 30 -84.5t113 -23.5z" />
<glyph unicode="&#x430;" horiz-adv-x="509" d="M256 505q97 0 137.5 -37.5t40.5 -120.5v-340q0 -7 -7 -7h-19q-6 0 -8 5l-15 31q-79 -44 -170 -44q-160 0 -160 138v13q0 68 36.5 99t121.5 31h171v74q0 62 -27 86.5t-101 24.5h-6q-74 0 -101 -24.5t-27 -85.5v-3q0 -7 -8 -7h-34q-8 0 -8 7v3q0 82 40.5 119.5t137.5 37.5 h6zM105 130q0 -50 26.5 -72t88.5 -22q84 0 164 42v151h-175q-58 0 -81 -19.5t-23 -66.5v-13z" />
<glyph unicode="&#x431;" d="M273 461q106 0 148.5 -37.5t42.5 -122.5v-148q0 -86 -42.5 -123.5t-148.5 -37.5h-6q-107 0 -149.5 37.5t-42.5 123.5v273q0 80 29.5 120.5t102.5 63.5l102 32q50 16 65.5 27.5t15.5 28.5v3q0 7 8 7h34q8 0 8 -7v-3q0 -34 -21 -54.5t-79 -39.5l-109 -34q-67 -22 -87 -50 t-20 -98v-17q15 30 48 43t95 13h6zM414 153v148q0 64 -29 89t-112 25h-6q-83 0 -112.5 -25t-29.5 -89v-148q0 -65 29.5 -90t112.5 -25h6q83 0 112 25t29 90z" />
<glyph unicode="&#x432;" horiz-adv-x="496" d="M366 253q81 -15 81 -98v-36q0 -119 -137 -119h-223q-7 0 -7 7v482q0 8 7 8h203q137 0 137 -119v-32q0 -74 -61 -93zM286 450h-156v-176h157q50 0 70 16t20 56v32q0 40 -20 56t-71 16zM397 119v36q0 40 -20 56t-70 16h-177v-181h176q51 0 71 16.5t20 56.5z" />
<glyph unicode="&#x433;" horiz-adv-x="373" d="M351 497q8 0 8 -8v-31q0 -8 -8 -8h-221v-443q0 -7 -7 -7h-36q-7 0 -7 7v482q0 8 7 8h264z" />
<glyph unicode="&#x434;" horiz-adv-x="509" d="M478 46q8 0 8 -7v-165q0 -8 -8 -8h-22q-6 0 -8 8l-10 126h-384l-10 -126q-2 -8 -8 -8h-22q-8 0 -8 8v165q0 7 8 7h38q27 43 36.5 91.5t9.5 136.5v215q0 8 7 8h311q8 0 8 -8v-443h54zM148 451v-177q0 -154 -42 -228h268v405h-226z" />
<glyph unicode="&#x435;" horiz-adv-x="520" d="M448 242h-328v-89q0 -65 29 -90t111 -25h6q82 0 111 25t29 88v3q0 8 7 8h35q7 0 7 -8v-3q0 -85 -42 -122t-147 -37h-6q-105 0 -147.5 37.5t-42.5 123.5v191q0 86 42.5 123.5t147.5 37.5h6q105 0 147 -37.5t42 -123.5v-95q0 -7 -7 -7zM260 458q-82 0 -111 -25t-29 -89v-59 h286v59q0 64 -29 89t-111 25h-6z" />
<glyph unicode="&#x436;" horiz-adv-x="654" d="M634 8q5 -8 -5 -8h-42q-7 0 -8 5l-132 225h-95v-223q0 -7 -7 -7h-36q-7 0 -7 7v223h-95l-132 -225q-3 -5 -8 -5h-42q-10 0 -5 8l145 244l-141 236q-5 9 5 9h42q5 0 8 -5l127 -216h96v213q0 8 7 8h36q7 0 7 -8v-213h96l127 216q2 5 8 5h42q10 0 5 -9l-141 -236z" />
<glyph unicode="&#x437;" horiz-adv-x="485" d="M340 251q47 -9 68 -34.5t21 -75.5v-17q0 -70 -41.5 -101t-142.5 -31h-6q-100 0 -141.5 31t-41.5 101v26q0 8 7 8h35q8 0 8 -8v-26q0 -49 27.5 -67.5t105.5 -18.5h6q78 0 106 18.5t28 67.5v17q0 49 -27.5 67.5t-106.5 18.5h-59q-7 0 -7 8v31q0 8 7 8h59q74 0 101 18.5 t27 67.5v12q0 49 -27 67.5t-101 18.5h-6q-74 0 -100.5 -18.5t-26.5 -67.5v-25q0 -8 -8 -8h-35q-7 0 -7 8v25q0 70 40.5 101.5t136.5 31.5h6q96 0 137 -31.5t41 -101.5v-12q0 -49 -19.5 -74.5t-63.5 -34.5z" />
<glyph unicode="&#x438;" horiz-adv-x="543" d="M455 497q8 0 8 -8v-482q0 -7 -8 -7h-35q-7 0 -7 7v248q0 116 3 172q-31 -51 -99 -152l-184 -271q-3 -4 -9 -4h-37q-7 0 -7 7v482q0 8 7 8h36q7 0 7 -8v-245q0 -118 -3 -174q41 68 101 154l182 268q2 5 8 5h37z" />
<glyph unicode="&#x439;" horiz-adv-x="543" d="M271 564q-56 0 -79 19.5t-23 65.5v20q0 7 8 7h24q7 0 7 -7v-20q0 -30 12.5 -40.5t50.5 -10.5h4q38 0 50 10.5t12 40.5v20q0 7 8 7h24q7 0 7 -7v-20q0 -46 -22.5 -65.5t-78.5 -19.5h-4zM455 497q8 0 8 -8v-482q0 -7 -8 -7h-35q-7 0 -7 7v248q0 116 3 172q-31 -51 -99 -152 l-184 -271q-3 -4 -9 -4h-37q-7 0 -7 7v482q0 8 7 8h36q7 0 7 -8v-245q0 -118 -3 -174q41 68 101 154l182 268q2 5 8 5h37z" />
<glyph unicode="&#x43a;" horiz-adv-x="461" d="M441 9q6 -9 -5 -9h-41q-6 0 -10 5l-160 225h-95v-223q0 -7 -7 -7h-36q-7 0 -7 7v482q0 8 7 8h36q7 0 7 -8v-213h98l153 216q4 5 10 5h41q11 0 5 -9l-169 -237z" />
<glyph unicode="&#x43b;" horiz-adv-x="511" d="M424 497q7 0 7 -8v-482q0 -7 -7 -7h-36q-7 0 -7 7v440h-215l-15 -237q-6 -93 -19 -137.5t-37.5 -60.5t-72.5 -16h-5q-8 0 -8 7v32q0 7 8 7h5q31 0 45 11t21.5 45.5t12.5 111.5l17 279q0 8 7 8h299z" />
<glyph unicode="&#x43c;" horiz-adv-x="633" d="M546 497q7 0 7 -8v-482q0 -7 -7 -7h-34q-8 0 -8 7v260q0 96 3 152q-17 -40 -74 -152l-92 -174q-3 -5 -8 -5h-33q-5 0 -8 5l-92 174q-57 112 -74 152q3 -56 3 -152v-260q0 -7 -8 -7h-34q-7 0 -7 7v482q0 8 7 8h41q5 0 8 -5l140 -267q24 -44 41 -86q15 40 40 86l140 267 q3 5 8 5h41z" />
<glyph unicode="&#x43d;" horiz-adv-x="527" d="M439 497q8 0 8 -8v-482q0 -7 -8 -7h-35q-7 0 -7 7v223h-267v-223q0 -7 -7 -7h-36q-7 0 -7 7v482q0 8 7 8h36q7 0 7 -8v-213h267v213q0 8 7 8h35z" />
<glyph unicode="&#x43e;" d="M70 153v191q0 86 42.5 123.5t149.5 37.5h6q106 0 148.5 -37.5t42.5 -123.5v-191q0 -86 -42.5 -123.5t-148.5 -37.5h-6q-107 0 -149.5 37.5t-42.5 123.5zM120 153q0 -65 29.5 -90t112.5 -25h6q83 0 112 25t29 90v191q0 65 -29 89.5t-112 24.5h-6q-84 0 -113 -24.5 t-29 -89.5v-191z" />
<glyph unicode="&#x43f;" horiz-adv-x="526" d="M439 497q7 0 7 -8v-482q0 -7 -7 -7h-36q-7 0 -7 7v443h-266v-443q0 -7 -7 -7h-36q-7 0 -7 7v482q0 8 7 8h352z" />
<glyph unicode="&#x440;" horiz-adv-x="531" d="M306 505q83 0 119 -39t36 -127v-182q0 -88 -36 -126.5t-119 -38.5q-90 0 -176 44v-229q0 -7 -7 -7h-36q-7 0 -7 7v682q0 8 7 8h19q6 0 8 -5l15 -32q87 45 177 45zM411 330q0 74 -24 101t-91 27q-88 0 -166 -39v-342q81 -39 166 -39q67 0 91 27.5t24 100.5v164z" />
<glyph unicode="&#x441;" horiz-adv-x="504" d="M70 153v191q0 86 42 123.5t145 37.5h6q102 0 144 -37.5t42 -123.5v-8q0 -7 -8 -7h-34q-8 0 -8 7v8q0 64 -28.5 89t-107.5 25h-6q-80 0 -108.5 -25t-28.5 -89v-191q0 -65 28.5 -90t108.5 -25h6q79 0 107.5 25t28.5 90v7q0 8 8 8h34q8 0 8 -8v-7q0 -86 -42 -123.5 t-144 -37.5h-6q-103 0 -145 37.5t-42 123.5z" />
<glyph unicode="&#x442;" horiz-adv-x="370" d="M356 497q7 0 7 -8v-31q0 -8 -7 -8h-146v-443q0 -7 -7 -7h-36q-7 0 -7 7v443h-146q-7 0 -7 8v31q0 8 7 8h342z" />
<glyph unicode="&#x443;" horiz-adv-x="442" d="M426 497q9 0 6 -8l-257 -685q-2 -6 -8 -6h-37q-9 0 -6 8l72 191l-182 492q-3 8 6 8h37q6 0 8 -6l92 -246q45 -126 66 -197q31 103 67 198l91 245q2 6 8 6h37z" />
<glyph unicode="&#x444;" horiz-adv-x="665" d="M400 501q109 0 152 -37.5t43 -123.5v-183q0 -86 -43 -123.5t-152 -37.5h-43v-189q0 -7 -7 -7h-35q-7 0 -7 7v189h-43q-109 0 -152 37.5t-43 123.5v183q0 86 43 123.5t152 37.5h43v192q0 7 7 7h35q7 0 7 -7v-192h43zM265 42h43v412h-43q-86 0 -115.5 -24.5t-29.5 -89.5 v-183q0 -65 29.5 -90t115.5 -25zM545 157v183q0 65 -29.5 89.5t-115.5 24.5h-43v-412h43q86 0 115.5 25t29.5 90z" />
<glyph unicode="&#x445;" horiz-adv-x="427" d="M407 10q7 -10 -4 -10h-41q-4 0 -8 4l-141 209l-140 -208q-4 -5 -8 -5h-41q-11 0 -4 10l164 243l-157 233q-3 4 -1.5 7.5t5.5 3.5h41q4 0 8 -5l134 -199l133 199q4 5 8 5h41q11 0 4 -11l-157 -233z" />
<glyph unicode="&#x446;" horiz-adv-x="526" d="M495 46q8 0 8 -7v-165q0 -8 -8 -8h-22q-6 0 -8 8l-10 126h-368q-7 0 -7 7v482q0 8 7 8h36q7 0 7 -8v-443h261v443q0 8 7 8h36q7 0 7 -8v-443h54z" />
<glyph unicode="&#x447;" horiz-adv-x="477" d="M390 497q7 0 7 -8v-482q0 -7 -7 -7h-35q-8 0 -8 7v193q-84 -44 -169 -44q-73 0 -104 33t-31 113v187q0 8 8 8h35q7 0 7 -8v-179q0 -64 18.5 -86t69.5 -22q79 0 166 45v242q0 8 8 8h35z" />
<glyph unicode="&#x448;" horiz-adv-x="742" d="M655 497q7 0 7 -8v-482q0 -7 -7 -7h-568q-7 0 -7 7v482q0 8 7 8h36q7 0 7 -8v-443h216v443q0 8 7 8h36q7 0 7 -8v-443h216v443q0 8 7 8h36z" />
<glyph unicode="&#x449;" horiz-adv-x="747" d="M716 46q8 0 8 -7v-165q0 -8 -8 -8h-22q-6 0 -8 8l-10 126h-589q-7 0 -7 7v482q0 8 7 8h36q7 0 7 -8v-443h216v443q0 8 7 8h36q7 0 7 -8v-443h216v443q0 8 7 8h36q7 0 7 -8v-443h54z" />
<glyph unicode="&#x44a;" horiz-adv-x="530" d="M353 311q137 0 137 -119v-73q0 -119 -137 -119h-223q-7 0 -7 7v443h-114q-7 0 -7 8v31q0 8 7 8h157q7 0 7 -8v-178h180zM440 119v73q0 40 -20 56.5t-71 16.5h-176v-219h176q51 0 71 16.5t20 56.5z" />
<glyph unicode="&#x44b;" horiz-adv-x="666" d="M300 311q137 0 137 -119v-73q0 -119 -137 -119h-213q-7 0 -7 7v482q0 8 7 8h36q7 0 7 -8v-178h170zM579 497q7 0 7 -8v-482q0 -7 -7 -7h-36q-7 0 -7 7v482q0 8 7 8h36zM387 119v73q0 40 -20 56.5t-71 16.5h-166v-219h166q51 0 71 16.5t20 56.5z" />
<glyph unicode="&#x44c;" horiz-adv-x="487" d="M310 311q137 0 137 -119v-73q0 -119 -137 -119h-223q-7 0 -7 7v482q0 8 7 8h36q7 0 7 -8v-178h180zM397 119v73q0 40 -20 56.5t-71 16.5h-176v-219h176q51 0 71 16.5t20 56.5z" />
<glyph unicode="&#x44d;" horiz-adv-x="508" d="M251 505q103 0 145 -37.5t42 -123.5v-191q0 -86 -42 -123.5t-145 -37.5h-6q-102 0 -144 37.5t-42 123.5v7q0 8 8 8h34q8 0 8 -8v-7q0 -65 28.5 -90t107.5 -25h6q80 0 108.5 25t28.5 90v73h-184q-7 0 -7 7v31q0 7 7 7h184v73q0 64 -28.5 89t-108.5 25h-6q-79 0 -107.5 -25 t-28.5 -89v-8q0 -7 -8 -7h-34q-8 0 -8 7v8q0 86 42 123.5t144 37.5h6z" />
<glyph unicode="&#x44e;" horiz-adv-x="703" d="M451 505q100 0 141 -38t41 -123v-191q0 -85 -41 -123t-141 -38h-6q-99 0 -140 38t-41 123v72h-134v-218q0 -7 -7 -7h-36q-7 0 -7 7v482q0 8 7 8h36q7 0 7 -8v-217h134v72q0 85 41 123t140 38h6zM583 153v191q0 64 -27.5 89t-104.5 25h-6q-76 0 -103.5 -25t-27.5 -89v-191 q0 -64 27.5 -89.5t103.5 -25.5h6q77 0 104.5 25.5t27.5 89.5z" />
<glyph unicode="&#x44f;" horiz-adv-x="479" d="M392 497q7 0 7 -8v-482q0 -7 -7 -7h-36q-7 0 -7 7v184h-145l-98 -186q-2 -5 -8 -5h-40q-9 0 -6 8l100 187q-98 16 -98 124v50q0 128 143 128h195zM202 238h147v212h-147q-54 0 -76 -18t-22 -63v-50q0 -45 22 -63t76 -18z" />
<glyph unicode="&#x451;" horiz-adv-x="520" d="M173 585q-7 0 -7 7v77q0 7 7 7h36q7 0 7 -7v-77q0 -7 -7 -7h-36zM315 585q-7 0 -7 7v77q0 7 7 7h36q7 0 7 -7v-77q0 -7 -7 -7h-36zM448 242h-328v-89q0 -65 29 -90t111 -25h6q82 0 111 25t29 88v3q0 8 7 8h35q7 0 7 -8v-3q0 -85 -42 -122t-147 -37h-6q-105 0 -147.5 37.5 t-42.5 123.5v191q0 86 42.5 123.5t147.5 37.5h6q105 0 147 -37.5t42 -123.5v-95q0 -7 -7 -7zM260 458q-82 0 -111 -25t-29 -89v-59h286v59q0 64 -29 89t-111 25h-6z" />
<glyph unicode="&#x452;" horiz-adv-x="534" d="M304 478q83 0 119 -38.5t36 -126.5v-375q0 -83 -30 -114.5t-108 -31.5h-19q-7 0 -7 7v29q0 8 7 8h16q55 0 73 21t18 87v360q0 73 -24 100.5t-91 27.5q-82 0 -164 -38v-387q0 -7 -7 -7h-36q-7 0 -7 7v578h-43q-7 0 -7 8v23q0 7 7 7h43v70q0 7 7 7h36q7 0 7 -7v-70h167 q7 0 7 -7v-23q0 -8 -7 -8h-167v-151q85 44 174 44z" />
<glyph unicode="&#x453;" horiz-adv-x="373" d="M171 567q-12 0 -3 9l95 97q5 3 9 3h44q12 0 4 -8l-104 -98q-4 -3 -9 -3h-36zM351 497q8 0 8 -8v-31q0 -8 -8 -8h-221v-443q0 -7 -7 -7h-36q-7 0 -7 7v482q0 8 7 8h264z" />
<glyph unicode="&#x454;" horiz-adv-x="508" d="M407 329q-8 0 -8 7v8q0 64 -28.5 89t-107.5 25h-6q-80 0 -108.5 -25t-28.5 -89v-73h184q7 0 7 -7v-31q0 -7 -7 -7h-184v-73q0 -65 28.5 -90t108.5 -25h6q79 0 107.5 25t28.5 90v7q0 8 8 8h34q8 0 8 -8v-7q0 -86 -42 -123.5t-144 -37.5h-6q-103 0 -145 37.5t-42 123.5v191 q0 86 42 123.5t145 37.5h6q102 0 144 -37.5t42 -123.5v-8q0 -7 -8 -7h-34z" />
<glyph unicode="&#x455;" horiz-adv-x="470" d="M50 118v36q0 8 7 8h35q7 0 7 -8v-36q0 -42 30 -61t104 -19h6q73 0 102 19t29 61v15q0 34 -14.5 50t-60.5 29l-132 37q-60 18 -83 43.5t-23 71.5v15q0 62 41 94t134 32h6q92 0 133.5 -32t41.5 -94v-36q0 -8 -7 -8h-35q-7 0 -7 8v36q0 42 -28 60.5t-98 18.5h-6 q-71 0 -98 -18.5t-27 -60.5v-15q0 -30 15 -44.5t63 -27.5l132 -38q58 -15 80.5 -43t22.5 -78v-15q0 -63 -42 -94.5t-139 -31.5h-6q-97 0 -140 32t-43 94z" />
<glyph unicode="&#x456;" horiz-adv-x="211" d="M87 585q-7 0 -7 7v77q0 7 7 7h36q8 0 8 -7v-77q0 -7 -8 -7h-36zM88 0q-8 0 -8 7v482q0 8 8 8h35q7 0 7 -8v-482q0 -7 -7 -7h-35z" />
<glyph unicode="&#x457;" horiz-adv-x="210" d="M15 585q-7 0 -7 7v77q0 7 7 7h36q7 0 7 -7v-77q0 -7 -7 -7h-36zM157 585q-7 0 -7 7v77q0 7 7 7h36q7 0 7 -7v-77q0 -7 -7 -7h-36zM87 0q-7 0 -7 7v482q0 8 7 8h36q7 0 7 -8v-482q0 -7 -7 -7h-36z" />
<glyph unicode="&#x458;" horiz-adv-x="210" d="M87 585q-7 0 -7 7v77q0 7 7 7h36q7 0 7 -7v-77q0 -7 -7 -7h-36zM-27 -208q-8 0 -8 7v31q0 7 8 7h16q54 0 72.5 21.5t18.5 87.5v543q0 8 7 8h36q7 0 7 -8v-551q0 -83 -30 -114.5t-109 -31.5h-18z" />
<glyph unicode="&#x459;" horiz-adv-x="765" d="M589 311q137 0 137 -119v-73q0 -119 -137 -119h-213q-7 0 -7 7v440h-203l-15 -237q-6 -93 -19 -137.5t-37.5 -60.5t-72.5 -16h-6q-7 0 -7 7v32q0 7 8 7h5q31 0 45 11t21.5 45.5t12.5 111.5l17 279q0 8 7 8h286q8 0 8 -8v-178h170zM676 119v73q0 40 -20.5 56.5t-71.5 16.5 h-165v-219h165q51 0 71.5 16.5t20.5 56.5z" />
<glyph unicode="&#x45a;" horiz-adv-x="783" d="M607 286q137 0 137 -118v-49q0 -119 -137 -119h-213q-7 0 -7 7v233h-257v-233q0 -7 -7 -7h-36q-7 0 -7 7v482q0 8 7 8h36q7 0 7 -8v-203h257v203q0 8 7 8h35q8 0 8 -8v-203h170zM694 119v49q0 39 -20.5 55.5t-71.5 16.5h-165v-194h165q51 0 71.5 16.5t20.5 56.5z" />
<glyph unicode="&#x45b;" horiz-adv-x="534" d="M304 478q83 0 119 -38.5t36 -126.5v-306q0 -7 -7 -7h-35q-8 0 -8 7v297q0 73 -24 100.5t-91 27.5q-82 0 -164 -38v-387q0 -7 -7 -7h-36q-7 0 -7 7v578h-43q-7 0 -7 8v23q0 7 7 7h43v70q0 7 7 7h36q7 0 7 -7v-70h167q7 0 7 -7v-23q0 -8 -7 -8h-167v-151q85 44 174 44z" />
<glyph unicode="&#x45c;" horiz-adv-x="461" d="M197 567q-12 0 -3 9l95 97q4 3 9 3h44q12 0 4 -8l-104 -98q-4 -3 -9 -3h-36zM441 9q6 -9 -5 -9h-41q-6 0 -10 5l-160 225h-95v-223q0 -7 -7 -7h-36q-7 0 -7 7v482q0 8 7 8h36q7 0 7 -8v-213h98l153 216q4 5 10 5h41q11 0 5 -9l-169 -237z" />
<glyph unicode="&#x45d;" horiz-adv-x="543" d="M274 570l-105 98q-3 3 -1.5 5.5t6.5 2.5h43q6 0 9 -3l96 -97q4 -4 2.5 -6.5t-6.5 -2.5h-35q-6 0 -9 3zM455 497q8 0 8 -8v-482q0 -7 -8 -7h-35q-7 0 -7 7v248q0 116 3 172q-31 -51 -99 -152l-184 -271q-3 -4 -9 -4h-37q-7 0 -7 7v482q0 8 7 8h36q7 0 7 -8v-245 q0 -118 -3 -174q41 68 101 154l182 268q2 5 8 5h37z" />
<glyph unicode="&#x45e;" horiz-adv-x="442" d="M222 564q-56 0 -79 19.5t-23 65.5v20q0 7 8 7h24q7 0 7 -7v-20q0 -30 12.5 -40.5t50.5 -10.5h4q38 0 50 10.5t12 40.5v20q0 7 8 7h24q7 0 7 -7v-20q0 -46 -22.5 -65.5t-78.5 -19.5h-4zM426 497q9 0 6 -8l-257 -685q-2 -6 -8 -6h-37q-9 0 -6 8l72 191l-182 492q-3 8 6 8 h37q6 0 8 -6l92 -246q45 -126 66 -197q31 103 67 198l91 245q2 6 8 6h37z" />
<glyph unicode="&#x45f;" horiz-adv-x="523" d="M436 497q7 0 7 -8v-482q0 -7 -7 -7h-149l-6 -126q0 -8 -7 -8h-25q-7 0 -7 8l-6 126h-149q-7 0 -7 7v482q0 8 7 8h36q7 0 7 -8v-443h263v443q0 8 7 8h36z" />
<glyph unicode="&#x462;" horiz-adv-x="632" d="M421 379q92 0 132 -36.5t40 -114.5v-77q0 -78 -40 -114.5t-132 -36.5h-242q-7 0 -7 7v511h-160q-7 0 -7 7v31q0 7 7 7h160v81q0 8 7 8h35q8 0 8 -8v-81h208q7 0 7 -7v-31q0 -7 -7 -7h-208v-139h199zM543 151v77q0 61 -28.5 83t-107.5 22h-185v-287h185q79 0 107.5 22 t28.5 83z" />
<glyph unicode="&#x463;" horiz-adv-x="515" d="M339 308q137 0 137 -119v-70q0 -119 -137 -119h-223q-8 0 -8 7v446h-99q-7 0 -7 8v28q0 8 7 8h99v196q0 7 8 7h35q7 0 7 -7v-196h174q7 0 7 -8v-28q0 -8 -7 -8h-174v-145h181zM426 119v70q0 40 -20.5 56t-71.5 16h-176v-215h176q51 0 71.5 16.5t20.5 56.5z" />
<glyph unicode="&#x472;" horiz-adv-x="591" d="M299 653q123 0 170 -38t47 -126v-333q0 -88 -47 -126t-170 -38h-6q-124 0 -171 38t-47 126v333q0 88 47 126t171 38h6zM293 607q-101 0 -134.5 -25.5t-33.5 -92.5v-144h341v144q0 67 -33 92.5t-134 25.5h-6zM299 38q101 0 134 25.5t33 92.5v145h-341v-145 q0 -67 33.5 -92.5t134.5 -25.5h6z" />
<glyph unicode="&#x473;" d="M268 505q106 0 148.5 -37.5t42.5 -123.5v-191q0 -86 -42.5 -123.5t-148.5 -37.5h-6q-107 0 -149.5 37.5t-42.5 123.5v191q0 86 42.5 123.5t149.5 37.5h6zM262 458q-84 0 -113 -24.5t-29 -89.5v-72h289v72q0 65 -29 89.5t-112 24.5h-6zM268 38q83 0 112 25t29 90v72h-289 v-72q0 -65 29.5 -90t112.5 -25h6z" />
<glyph unicode="&#x474;" horiz-adv-x="528" d="M545 653q7 0 7 -7v-32q0 -7 -7 -7h-13q-22 0 -35 -12t-23 -44l-185 -546q-1 -5 -8 -5h-40q-7 0 -8 5l-214 632q-3 8 6 8h37q7 0 8 -5l130 -384q39 -114 61 -199q19 73 60 199l101 295q20 60 43.5 81t66.5 21h13z" />
<glyph unicode="&#x475;" horiz-adv-x="458" d="M462 505q7 0 7 -8v-31q0 -8 -7 -8h-10q-19 0 -28.5 -8t-18.5 -33l-153 -411q-2 -6 -8 -6h-42q-6 0 -8 6l-180 483q-3 8 6 8h38q6 0 8 -6l90 -244q50 -138 67 -200q24 85 67 200l63 170q19 54 37.5 71t57.5 17h14z" />
<glyph unicode="&#x490;" horiz-adv-x="447" d="M419 750q7 0 7 -7v-137q0 -7 -8 -7h-283v-592q0 -7 -7 -7h-36q-7 0 -7 7v631q0 7 7 7h288l9 98q1 7 8 7h22z" />
<glyph unicode="&#x491;" horiz-adv-x="373" d="M351 615q8 0 8 -7v-150q0 -8 -8 -8h-221v-443q0 -7 -7 -7h-36q-7 0 -7 7v482q0 8 7 8h224l11 111q1 7 8 7h21z" />
<glyph unicode="&#x492;" horiz-adv-x="467" d="M438 645q8 0 8 -7v-32q0 -7 -8 -7h-283v-272h212q7 0 7 -7v-32q0 -7 -7 -7h-212v-274q0 -7 -7 -7h-36q-7 0 -7 7v274h-98q-7 0 -7 7v32q0 7 7 7h98v311q0 7 7 7h326z" />
<glyph unicode="&#x493;" horiz-adv-x="373" d="M352 497q8 0 8 -8v-31q0 -8 -8 -8h-221v-178h161q7 0 7 -8v-29q0 -7 -7 -7h-161v-221q0 -7 -7 -7h-36q-7 0 -7 7v221h-64q-7 0 -7 7v29q0 8 7 8h64v217q0 8 7 8h264z" />
<glyph unicode="&#x496;" horiz-adv-x="800" d="M787 46q8 0 8 -7v-165q0 -8 -8 -8h-22q-6 0 -8 8l-10 126h-34q-5 0 -9 6l-164 296h-124v-295q0 -7 -7 -7h-35q-8 0 -8 7v295h-123l-164 -296q-4 -6 -9 -6h-41q-10 0 -5 8l177 317l-173 312q-5 8 5 8h40q5 0 8 -5l161 -292h124v290q0 7 8 7h35q7 0 7 -7v-290h124l161 292 q3 5 9 5h40q9 0 5 -8l-173 -312l156 -279h49z" />
<glyph unicode="&#x497;" horiz-adv-x="671" d="M653 46q8 0 8 -7v-165q0 -8 -8 -8h-22q-6 0 -8 8l-10 126h-30v1q-2 0 -4 4l-132 225h-95v-223q0 -7 -7 -7h-36q-7 0 -7 7v223h-95l-132 -225q-3 -5 -8 -5h-42q-10 0 -5 8l145 244l-141 236q-5 9 5 9h42q5 0 8 -5l127 -216h96v213q0 8 7 8h36q7 0 7 -8v-213h96l127 216 q2 5 8 5h42q10 0 5 -9l-141 -236l122 -206h42z" />
<glyph unicode="&#x49a;" horiz-adv-x="552" d="M540 46q8 0 8 -7v-165q0 -8 -8 -8h-22q-6 0 -8 8l-10 126h-35q-5 0 -9 5l-194 297h-127v-295q0 -7 -7 -7h-36q-7 0 -7 7v631q0 7 7 7h36q7 0 7 -7v-290h127l191 293q4 4 8 4h40q10 0 5 -8l-203 -312l182 -279h55z" />
<glyph unicode="&#x49b;" horiz-adv-x="477" d="M460 46q8 0 8 -7v-165q0 -8 -8 -8h-22q-6 0 -8 8l-10 126h-30v1q-2 1 -5 4l-160 225h-95v-223q0 -7 -7 -7h-36q-7 0 -7 7v482q0 8 7 8h36q7 0 7 -8v-213h98l153 216q4 5 10 5h41q11 0 5 -9l-169 -237l147 -205h45z" />
<glyph unicode="&#x4a2;" horiz-adv-x="604" d="M573 46q8 0 8 -7v-165q0 -8 -8 -8h-22q-6 0 -8 8l-10 126h-61q-8 0 -8 7v295h-329v-295q0 -7 -7 -7h-36q-7 0 -7 7v631q0 7 7 7h36q7 0 7 -7v-290h329v290q0 7 8 7h35q7 0 7 -7v-592h59z" />
<glyph unicode="&#x4a3;" horiz-adv-x="532" d="M501 46q8 0 8 -7v-165q0 -8 -8 -8h-22q-6 0 -8 8l-10 126h-57q-7 0 -7 7v223h-267v-223q0 -7 -7 -7h-36q-7 0 -7 7v482q0 8 7 8h36q7 0 7 -8v-213h267v213q0 8 7 8h35q8 0 8 -8v-443h54z" />
<glyph unicode="&#x4ae;" horiz-adv-x="472" d="M459 645q10 0 5 -8l-203 -394v-236q0 -7 -8 -7h-35q-7 0 -7 7v234l-204 396q-3 8 6 8h38q5 0 8 -5l102 -199q52 -101 75 -161q27 68 74 161l103 199q3 5 8 5h38z" />
<glyph unicode="&#x4af;" horiz-adv-x="447" d="M427 497q9 0 6 -8l-186 -498v-184q0 -7 -7 -7h-32q-7 0 -7 7v184l-187 498q-3 8 6 8h38q6 0 8 -6l91 -245q44 -120 67 -197q22 77 66 197l91 245q2 6 8 6h38z" />
<glyph unicode="&#x4b0;" horiz-adv-x="472" d="M459 645q10 0 5 -8l-192 -373h124q7 0 7 -7v-29q0 -7 -7 -7h-135v-214q0 -7 -8 -7h-35q-7 0 -7 7v214h-134q-7 0 -7 7v29q0 7 7 7h122l-192 373q-3 8 6 8h38q5 0 8 -5l102 -199q52 -101 75 -161q27 68 74 161l103 199q3 5 8 5h38z" />
<glyph unicode="&#x4b1;" horiz-adv-x="447" d="M427 497q9 0 6 -8l-184 -492h143q8 0 8 -7v-29q0 -7 -8 -7h-145v-147q0 -7 -7 -7h-32q-7 0 -7 7v147h-142q-7 0 -7 7v29q0 7 7 7h140l-185 492q-3 8 6 8h38q6 0 8 -6l91 -245q44 -120 67 -197q22 77 66 197l91 245q2 6 8 6h38z" />
<glyph unicode="&#x4b2;" horiz-adv-x="506" d="M493 46q8 0 8 -7v-165q0 -8 -8 -8h-22q-6 0 -8 8l-10 126h-35q-6 0 -8 5l-165 271l-165 -271q-4 -5 -9 -5h-41q-10 0 -5 8l193 317l-189 312q-5 8 5 8h41q5 0 9 -5l161 -265l161 265q2 5 8 5h42q10 0 5 -8l-190 -311l171 -280h51z" />
<glyph unicode="&#x4b3;" horiz-adv-x="445" d="M428 46q8 0 8 -7v-165q0 -8 -8 -8h-22q-6 0 -8 8l-10 126h-30v1q-2 2 -4 3l-141 209l-140 -208q-4 -5 -8 -5h-41q-11 0 -4 10l164 243l-157 233q-3 4 -1.5 7.5t5.5 3.5h41q4 0 8 -5l134 -199l133 199q4 5 8 5h41q11 0 4 -11l-157 -233l140 -207h45z" />
<glyph unicode="&#x4b6;" horiz-adv-x="545" d="M514 46q8 0 8 -7v-165q0 -8 -8 -8h-22q-6 0 -8 8l-10 126h-61q-8 0 -8 7v266q-99 -49 -197 -49q-86 0 -126.5 40t-40.5 127v247q0 7 8 7h35q7 0 7 -7v-239q0 -72 27 -100t93 -28q95 0 194 49v318q0 7 8 7h35q7 0 7 -7v-592h59z" />
<glyph unicode="&#x4b7;" horiz-adv-x="482" d="M451 46q8 0 8 -7v-165q0 -8 -8 -8h-22q-6 0 -8 8l-10 126h-56q-8 0 -8 7v193q-84 -44 -169 -44q-73 0 -104 33t-31 113v187q0 8 8 8h35q7 0 7 -8v-179q0 -64 18.5 -86t69.5 -22q79 0 166 45v242q0 8 8 8h35q7 0 7 -8v-443h54z" />
<glyph unicode="&#x4ba;" horiz-adv-x="547" d="M332 421q87 0 127 -40t40 -127v-247q0 -7 -7 -7h-36q-7 0 -7 7v239q0 72 -27 100t-93 28q-95 0 -194 -50v-317q0 -7 -7 -7h-36q-7 0 -7 7v631q0 7 7 7h36q7 0 7 -7v-266q99 49 197 49z" />
<glyph unicode="&#x4bb;" horiz-adv-x="534" d="M304 505q83 0 119 -39t36 -127v-332q0 -7 -7 -7h-35q-8 0 -8 7v323q0 74 -24 101t-91 27q-85 0 -164 -38v-413q0 -7 -7 -7h-36q-7 0 -7 7v686q0 7 7 7h36q7 0 7 -7v-232q85 44 174 44z" />
<glyph unicode="&#x4c0;" horiz-adv-x="220" d="M92 0q-7 0 -7 7v631q0 7 7 7h36q7 0 7 -7v-631q0 -7 -7 -7h-36z" />
<glyph unicode="&#x4c1;" horiz-adv-x="783" d="M390 712q-56 0 -79 19.5t-23 65.5v20q0 7 8 7h24q7 0 7 -7v-20q0 -30 12.5 -40.5t50.5 -10.5h4q38 0 50 10.5t12 40.5v20q0 7 8 7h24q7 0 7 -7v-20q0 -46 -22.5 -65.5t-78.5 -19.5h-4zM759 8q4 -8 -5 -8h-41q-5 0 -9 6l-164 296h-124v-295q0 -7 -7 -7h-35q-8 0 -8 7v295 h-123l-164 -296q-4 -6 -9 -6h-41q-10 0 -5 8l177 317l-173 312q-5 8 5 8h40q5 0 8 -5l161 -292h124v290q0 7 8 7h35q7 0 7 -7v-290h124l161 292q3 5 9 5h40q9 0 5 -8l-173 -312z" />
<glyph unicode="&#x4c2;" horiz-adv-x="654" d="M325 564q-56 0 -79 19.5t-23 65.5v20q0 7 8 7h24q7 0 7 -7v-20q0 -30 12.5 -40.5t50.5 -10.5h4q38 0 50 10.5t12 40.5v20q0 7 8 7h24q7 0 7 -7v-20q0 -46 -22.5 -65.5t-78.5 -19.5h-4zM634 8q5 -8 -5 -8h-42q-7 0 -8 5l-132 225h-95v-223q0 -7 -7 -7h-36q-7 0 -7 7v223 h-95l-132 -225q-3 -5 -8 -5h-42q-10 0 -5 8l145 244l-141 236q-5 9 5 9h42q5 0 8 -5l127 -216h96v213q0 8 7 8h36q7 0 7 -8v-213h96l127 216q2 5 8 5h42q10 0 5 -9l-141 -236z" />
<glyph unicode="&#x4cf;" horiz-adv-x="210" d="M87 0q-7 0 -7 7v482q0 8 7 8h36q7 0 7 -8v-482q0 -7 -7 -7h-36z" />
<glyph unicode="&#x4d0;" horiz-adv-x="526" d="M261 712q-56 0 -79 19.5t-23 65.5v20q0 7 8 7h24q7 0 7 -7v-20q0 -30 12.5 -40.5t50.5 -10.5h4q38 0 50 10.5t12 40.5v20q0 7 8 7h24q7 0 7 -7v-20q0 -46 -22.5 -65.5t-78.5 -19.5h-4zM507 8q3 -8 -6 -8h-37q-6 0 -8 6l-58 169h-269l-59 -170q-2 -5 -8 -5h-37q-9 0 -6 8 l219 631q2 6 8 6h34q6 0 8 -6zM145 221h237l-61 175q-35 97 -58 183q-23 -86 -58 -183z" />
<glyph unicode="&#x4d1;" horiz-adv-x="509" d="M253 564q-56 0 -79 19.5t-23 65.5v20q0 7 8 7h24q7 0 7 -7v-20q0 -30 12.5 -40.5t50.5 -10.5h4q38 0 50 10.5t12 40.5v20q0 7 8 7h24q7 0 7 -7v-20q0 -46 -22.5 -65.5t-78.5 -19.5h-4zM256 505q97 0 137.5 -37.5t40.5 -120.5v-340q0 -7 -7 -7h-19q-6 0 -8 5l-15 31 q-79 -44 -170 -44q-160 0 -160 138v13q0 68 36.5 99t121.5 31h171v74q0 62 -27 86.5t-101 24.5h-6q-74 0 -101 -24.5t-27 -85.5v-3q0 -7 -8 -7h-34q-8 0 -8 7v3q0 82 40.5 119.5t137.5 37.5h6zM105 130q0 -50 26.5 -72t88.5 -22q84 0 164 42v151h-175q-58 0 -81 -19.5 t-23 -66.5v-13z" />
<glyph unicode="&#x4d2;" horiz-adv-x="526" d="M173 733q-7 0 -7 7v77q0 7 7 7h36q7 0 7 -7v-77q0 -7 -7 -7h-36zM315 733q-7 0 -7 7v77q0 7 7 7h36q7 0 7 -7v-77q0 -7 -7 -7h-36zM507 8q3 -8 -6 -8h-37q-6 0 -8 6l-58 169h-269l-59 -170q-2 -5 -8 -5h-37q-9 0 -6 8l219 631q2 6 8 6h34q6 0 8 -6zM145 221h237l-61 175 q-35 97 -58 183q-23 -86 -58 -183z" />
<glyph unicode="&#x4d3;" horiz-adv-x="509" d="M165 585q-7 0 -7 7v77q0 7 7 7h36q7 0 7 -7v-77q0 -7 -7 -7h-36zM307 585q-7 0 -7 7v77q0 7 7 7h36q7 0 7 -7v-77q0 -7 -7 -7h-36zM256 505q97 0 137.5 -37.5t40.5 -120.5v-340q0 -7 -7 -7h-19q-6 0 -8 5l-15 31q-79 -44 -170 -44q-160 0 -160 138v13q0 68 36.5 99 t121.5 31h171v74q0 62 -27 86.5t-101 24.5h-6q-74 0 -101 -24.5t-27 -85.5v-3q0 -7 -8 -7h-34q-8 0 -8 7v3q0 82 40.5 119.5t137.5 37.5h6zM105 130q0 -50 26.5 -72t88.5 -22q84 0 164 42v151h-175q-58 0 -81 -19.5t-23 -66.5v-13z" />
<glyph unicode="&#x4d4;" horiz-adv-x="813" d="M761 599h-303v-249h273q7 0 7 -7v-32q0 -7 -7 -7h-273v-258h303q7 0 7 -7v-32q0 -7 -7 -7h-346q-7 0 -7 7v165h-245l-90 -166q-2 -6 -9 -6h-39q-9 0 -6 9l342 631q2 5 8 5h392q7 0 7 -7v-32q0 -7 -7 -7zM188 218h220v381h-13z" />
<glyph unicode="&#x4d5;" horiz-adv-x="817" d="M744 236h-314v-83q0 -64 28 -89.5t105 -25.5h6q77 0 105 25t28 88v3q0 7 8 7h34q8 0 8 -7v-3q0 -84 -41.5 -121.5t-141.5 -37.5h-6q-120 0 -159 58q-90 -58 -192 -58q-157 0 -157 139v12q0 68 37 99t121 31h167v71q0 64 -27 89t-99 25h-6q-72 0 -99 -25t-27 -88v-3 q0 -8 -8 -8h-34q-8 0 -8 8v3q0 84 40.5 122t135.5 38h6q120 0 152 -71q31 71 157 71h6q100 0 141.5 -37.5t41.5 -123.5v-100q0 -8 -8 -8zM563 458q-77 0 -105 -25t-28 -89v-64h272v64q0 64 -28 89t-105 25h-6zM218 36q87 0 170 50q-8 30 -8 67v77h-170q-58 0 -81.5 -20 t-23.5 -67v-12q0 -50 26.5 -72.5t86.5 -22.5z" />
<glyph unicode="&#x4d6;" horiz-adv-x="491" d="M258 712q-56 0 -79 19.5t-23 65.5v20q0 7 8 7h24q7 0 7 -7v-20q0 -30 12.5 -40.5t50.5 -10.5h4q38 0 50 10.5t12 40.5v20q0 7 8 7h24q7 0 7 -7v-20q0 -46 -22.5 -65.5t-78.5 -19.5h-4zM438 599h-303v-249h273q7 0 7 -7v-32q0 -7 -7 -7h-273v-258h303q7 0 7 -7v-32 q0 -7 -7 -7h-346q-7 0 -7 7v631q0 7 7 7h346q7 0 7 -7v-32q0 -7 -7 -7z" />
<glyph unicode="&#x4d7;" horiz-adv-x="520" d="M261 564q-56 0 -79 19.5t-23 65.5v20q0 7 8 7h24q7 0 7 -7v-20q0 -30 12.5 -40.5t50.5 -10.5h4q38 0 50 10.5t12 40.5v20q0 7 8 7h24q7 0 7 -7v-20q0 -46 -22.5 -65.5t-78.5 -19.5h-4zM448 242h-328v-89q0 -65 29 -90t111 -25h6q82 0 111 25t29 88v3q0 8 7 8h35q7 0 7 -8 v-3q0 -85 -42 -122t-147 -37h-6q-105 0 -147.5 37.5t-42.5 123.5v191q0 86 42.5 123.5t147.5 37.5h6q105 0 147 -37.5t42 -123.5v-95q0 -7 -7 -7zM260 458q-82 0 -111 -25t-29 -89v-59h286v59q0 64 -29 89t-111 25h-6z" />
<glyph unicode="&#x4d8;" horiz-adv-x="581" d="M291 653q122 0 168.5 -38t46.5 -126v-333q0 -88 -46.5 -126t-168.5 -38h-6q-122 0 -168.5 38t-46.5 126v158q0 8 7 8h379v167q0 67 -33 92.5t-132 25.5h-6q-99 0 -132 -25.5t-33 -92.5v-19q0 -8 -7 -8h-36q-7 0 -7 8v19q0 88 46.5 126t168.5 38h6zM291 38q99 0 132 25.5 t33 92.5v119h-336v-119q0 -67 33 -92.5t132 -25.5h6z" />
<glyph unicode="&#x4d9;" horiz-adv-x="520" d="M260 505q105 0 147.5 -37.5t42.5 -123.5v-191q0 -86 -42.5 -123.5t-147.5 -37.5h-6q-105 0 -147 37.5t-42 123.5v95q0 7 7 7h328v89q0 65 -29 90t-111 25h-6q-82 0 -111 -25t-29 -88v-3q0 -8 -7 -8h-35q-7 0 -7 8v3q0 85 42 122t147 37h6zM260 39q82 0 111 24.5t29 89.5 v59h-286v-59q0 -65 29 -89.5t111 -24.5h6z" />
<glyph unicode="&#x4da;" horiz-adv-x="581" d="M198 733q-7 0 -7 7v77q0 7 7 7h36q7 0 7 -7v-77q0 -7 -7 -7h-36zM340 733q-7 0 -7 7v77q0 7 7 7h36q7 0 7 -7v-77q0 -7 -7 -7h-36zM291 653q122 0 168.5 -38t46.5 -126v-333q0 -88 -46.5 -126t-168.5 -38h-6q-122 0 -168.5 38t-46.5 126v158q0 8 7 8h379v167 q0 67 -33 92.5t-132 25.5h-6q-99 0 -132 -25.5t-33 -92.5v-19q0 -8 -7 -8h-36q-7 0 -7 8v19q0 88 46.5 126t168.5 38h6zM291 38q99 0 132 25.5t33 92.5v119h-336v-119q0 -67 33 -92.5t132 -25.5h6z" />
<glyph unicode="&#x4db;" horiz-adv-x="520" d="M168 585q-7 0 -7 7v77q0 7 7 7h36q7 0 7 -7v-77q0 -7 -7 -7h-36zM310 585q-7 0 -7 7v77q0 7 7 7h36q7 0 7 -7v-77q0 -7 -7 -7h-36zM260 505q105 0 147.5 -37.5t42.5 -123.5v-191q0 -86 -42.5 -123.5t-147.5 -37.5h-6q-105 0 -147 37.5t-42 123.5v95q0 7 7 7h328v89 q0 65 -29 90t-111 25h-6q-82 0 -111 -25t-29 -88v-3q0 -8 -7 -8h-35q-7 0 -7 8v3q0 85 42 122t147 37h6zM260 39q82 0 111 24.5t29 89.5v59h-286v-59q0 -65 29 -89.5t111 -24.5h6z" />
<glyph unicode="&#x4dc;" horiz-adv-x="783" d="M302 733q-7 0 -7 7v77q0 7 7 7h36q7 0 7 -7v-77q0 -7 -7 -7h-36zM444 733q-7 0 -7 7v77q0 7 7 7h36q7 0 7 -7v-77q0 -7 -7 -7h-36zM759 8q4 -8 -5 -8h-41q-5 0 -9 6l-164 296h-124v-295q0 -7 -7 -7h-35q-8 0 -8 7v295h-123l-164 -296q-4 -6 -9 -6h-41q-10 0 -5 8l177 317 l-173 312q-5 8 5 8h40q5 0 8 -5l161 -292h124v290q0 7 8 7h35q7 0 7 -7v-290h124l161 292q3 5 9 5h40q9 0 5 -8l-173 -312z" />
<glyph unicode="&#x4dd;" horiz-adv-x="654" d="M237 585q-7 0 -7 7v77q0 7 7 7h36q7 0 7 -7v-77q0 -7 -7 -7h-36zM379 585q-7 0 -7 7v77q0 7 7 7h36q7 0 7 -7v-77q0 -7 -7 -7h-36zM634 8q5 -8 -5 -8h-42q-7 0 -8 5l-132 225h-95v-223q0 -7 -7 -7h-36q-7 0 -7 7v223h-95l-132 -225q-3 -5 -8 -5h-42q-10 0 -5 8l145 244 l-141 236q-5 9 5 9h42q5 0 8 -5l127 -216h96v213q0 8 7 8h36q7 0 7 -8v-213h96l127 216q2 5 8 5h42q10 0 5 -9l-141 -236z" />
<glyph unicode="&#x4de;" horiz-adv-x="524" d="M171 733q-7 0 -7 7v77q0 7 7 7h36q7 0 7 -7v-77q0 -7 -7 -7h-36zM313 733q-7 0 -7 7v77q0 7 7 7h36q7 0 7 -7v-77q0 -7 -7 -7h-36zM369 329q56 -11 78 -41.5t22 -90.5v-44q0 -86 -45 -123.5t-160 -37.5h-6q-115 0 -160 37.5t-45 123.5v26q0 7 7 7h36q7 0 7 -7v-26 q0 -65 31.5 -90t123.5 -25h6q92 0 123.5 25t31.5 90v44q0 62 -30.5 84.5t-124.5 22.5h-76q-7 0 -7 8v31q0 8 7 8h70q94 0 124.5 23t30.5 85v33q0 66 -30 90.5t-119 24.5h-6q-89 0 -119 -24.5t-30 -90.5v-36q0 -7 -8 -7h-35q-7 0 -7 7v36q0 86 44 123.5t155 37.5h6 q111 0 155 -37.5t44 -123.5v-33q0 -58 -21 -88.5t-73 -41.5z" />
<glyph unicode="&#x4df;" horiz-adv-x="485" d="M151 585q-7 0 -7 7v77q0 7 7 7h36q7 0 7 -7v-77q0 -7 -7 -7h-36zM293 585q-7 0 -7 7v77q0 7 7 7h36q7 0 7 -7v-77q0 -7 -7 -7h-36zM340 251q47 -9 68 -34.5t21 -75.5v-17q0 -70 -41.5 -101t-142.5 -31h-6q-100 0 -141.5 31t-41.5 101v26q0 8 7 8h35q8 0 8 -8v-26 q0 -49 27.5 -67.5t105.5 -18.5h6q78 0 106 18.5t28 67.5v17q0 49 -27.5 67.5t-106.5 18.5h-59q-7 0 -7 8v31q0 8 7 8h59q74 0 101 18.5t27 67.5v12q0 49 -27 67.5t-101 18.5h-6q-74 0 -100.5 -18.5t-26.5 -67.5v-25q0 -8 -8 -8h-35q-7 0 -7 8v25q0 70 40.5 101.5t136.5 31.5 h6q96 0 137 -31.5t41 -101.5v-12q0 -49 -19.5 -74.5t-63.5 -34.5z" />
<glyph unicode="&#x4e2;" horiz-adv-x="627" d="M213 733q-7 0 -7 7v28q0 7 7 7h199q7 0 7 -7v-28q0 -7 -7 -7h-199zM535 645q7 0 7 -7v-631q0 -7 -7 -7h-36q-7 0 -7 7v376q0 120 4 192q-33 -63 -115 -192l-241 -378q-4 -5 -9 -5h-39q-7 0 -7 7v631q0 7 7 7h35q8 0 8 -7v-376q0 -120 -5 -192q44 81 116 192l241 378 q4 5 9 5h39z" />
<glyph unicode="&#x4e3;" horiz-adv-x="543" d="M173 585q-7 0 -7 7v28q0 7 7 7h199q7 0 7 -7v-28q0 -7 -7 -7h-199zM455 497q8 0 8 -8v-482q0 -7 -8 -7h-35q-7 0 -7 7v248q0 116 3 172q-31 -51 -99 -152l-184 -271q-3 -4 -9 -4h-37q-7 0 -7 7v482q0 8 7 8h36q7 0 7 -8v-245q0 -118 -3 -174q41 68 101 154l182 268 q2 5 8 5h37z" />
<glyph unicode="&#x4e4;" horiz-adv-x="627" d="M223 733q-7 0 -7 7v77q0 7 7 7h36q7 0 7 -7v-77q0 -7 -7 -7h-36zM365 733q-7 0 -7 7v77q0 7 7 7h36q7 0 7 -7v-77q0 -7 -7 -7h-36zM535 645q7 0 7 -7v-631q0 -7 -7 -7h-36q-7 0 -7 7v376q0 120 4 192q-33 -63 -115 -192l-241 -378q-4 -5 -9 -5h-39q-7 0 -7 7v631q0 7 7 7 h35q8 0 8 -7v-376q0 -120 -5 -192q44 81 116 192l241 378q4 5 9 5h39z" />
<glyph unicode="&#x4e5;" horiz-adv-x="543" d="M183 585q-7 0 -7 7v77q0 7 7 7h36q7 0 7 -7v-77q0 -7 -7 -7h-36zM325 585q-7 0 -7 7v77q0 7 7 7h36q7 0 7 -7v-77q0 -7 -7 -7h-36zM455 497q8 0 8 -8v-482q0 -7 -8 -7h-35q-7 0 -7 7v248q0 116 3 172q-31 -51 -99 -152l-184 -271q-3 -4 -9 -4h-37q-7 0 -7 7v482q0 8 7 8 h36q7 0 7 -8v-245q0 -118 -3 -174q41 68 101 154l182 268q2 5 8 5h37z" />
<glyph unicode="&#x4e6;" horiz-adv-x="591" d="M206 733q-7 0 -7 7v77q0 7 7 7h36q7 0 7 -7v-77q0 -7 -7 -7h-36zM348 733q-7 0 -7 7v77q0 7 7 7h36q7 0 7 -7v-77q0 -7 -7 -7h-36zM75 156v333q0 88 47 126t171 38h6q123 0 170 -38t47 -126v-333q0 -88 -47 -126t-170 -38h-6q-124 0 -171 38t-47 126zM125 156 q0 -67 33.5 -92.5t134.5 -25.5h6q101 0 134 25.5t33 92.5v333q0 67 -33 92.5t-134 25.5h-6q-101 0 -134.5 -25.5t-33.5 -92.5v-333z" />
<glyph unicode="&#x4e7;" d="M175 585q-7 0 -7 7v77q0 7 7 7h36q7 0 7 -7v-77q0 -7 -7 -7h-36zM317 585q-7 0 -7 7v77q0 7 7 7h36q7 0 7 -7v-77q0 -7 -7 -7h-36zM70 153v191q0 86 42.5 123.5t149.5 37.5h6q106 0 148.5 -37.5t42.5 -123.5v-191q0 -86 -42.5 -123.5t-148.5 -37.5h-6q-107 0 -149.5 37.5 t-42.5 123.5zM120 153q0 -65 29.5 -90t112.5 -25h6q83 0 112 25t29 90v191q0 65 -29 89.5t-112 24.5h-6q-84 0 -113 -24.5t-29 -89.5v-191z" />
<glyph unicode="&#x4e8;" horiz-adv-x="591" d="M299 653q123 0 170 -38t47 -126v-333q0 -88 -47 -126t-170 -38h-6q-124 0 -171 38t-47 126v333q0 88 47 126t171 38h6zM293 607q-101 0 -134.5 -25.5t-33.5 -92.5v-144h341v144q0 67 -33 92.5t-134 25.5h-6zM299 38q101 0 134 25.5t33 92.5v145h-341v-145 q0 -67 33.5 -92.5t134.5 -25.5h6z" />
<glyph unicode="&#x4e9;" d="M268 505q106 0 148.5 -37.5t42.5 -123.5v-191q0 -86 -42.5 -123.5t-148.5 -37.5h-6q-107 0 -149.5 37.5t-42.5 123.5v191q0 86 42.5 123.5t149.5 37.5h6zM262 458q-84 0 -113 -24.5t-29 -89.5v-72h289v72q0 65 -29 89.5t-112 24.5h-6zM268 38q83 0 112 25t29 90v72h-289 v-72q0 -65 29.5 -90t112.5 -25h6z" />
<glyph unicode="&#x4ea;" horiz-adv-x="591" d="M206 733q-7 0 -7 7v77q0 7 7 7h36q7 0 7 -7v-77q0 -7 -7 -7h-36zM348 733q-7 0 -7 7v77q0 7 7 7h36q7 0 7 -7v-77q0 -7 -7 -7h-36zM299 653q123 0 170 -38t47 -126v-333q0 -88 -47 -126t-170 -38h-6q-124 0 -171 38t-47 126v333q0 88 47 126t171 38h6zM293 607 q-101 0 -134.5 -25.5t-33.5 -92.5v-144h341v144q0 67 -33 92.5t-134 25.5h-6zM299 38q101 0 134 25.5t33 92.5v145h-341v-145q0 -67 33.5 -92.5t134.5 -25.5h6z" />
<glyph unicode="&#x4eb;" d="M175 585q-7 0 -7 7v77q0 7 7 7h36q7 0 7 -7v-77q0 -7 -7 -7h-36zM317 585q-7 0 -7 7v77q0 7 7 7h36q7 0 7 -7v-77q0 -7 -7 -7h-36zM268 505q106 0 148.5 -37.5t42.5 -123.5v-191q0 -86 -42.5 -123.5t-148.5 -37.5h-6q-107 0 -149.5 37.5t-42.5 123.5v191q0 86 42.5 123.5 t149.5 37.5h6zM262 458q-84 0 -113 -24.5t-29 -89.5v-72h289v72q0 65 -29 89.5t-112 24.5h-6zM268 38q83 0 112 25t29 90v72h-289v-72q0 -65 29.5 -90t112.5 -25h6z" />
<glyph unicode="&#x4ec;" horiz-adv-x="574" d="M195 733q-7 0 -7 7v77q0 7 7 7h36q7 0 7 -7v-77q0 -7 -7 -7h-36zM337 733q-7 0 -7 7v77q0 7 7 7h36q7 0 7 -7v-77q0 -7 -7 -7h-36zM288 653q119 0 165 -38t46 -126v-333q0 -88 -46 -126t-165 -38h-6q-119 0 -165.5 38t-46.5 126v39q0 8 8 8h35q7 0 7 -8v-39 q0 -67 32.5 -92.5t129.5 -25.5h6q96 0 128.5 25.5t32.5 92.5v144h-232q-7 0 -7 8v30q0 7 7 7h232v144q0 67 -32.5 92.5t-128.5 25.5h-6q-97 0 -129.5 -25.5t-32.5 -92.5v-39q0 -8 -7 -8h-35q-8 0 -8 8v39q0 88 46.5 126t165.5 38h6z" />
<glyph unicode="&#x4ed;" horiz-adv-x="508" d="M158 585q-7 0 -7 7v77q0 7 7 7h36q7 0 7 -7v-77q0 -7 -7 -7h-36zM300 585q-7 0 -7 7v77q0 7 7 7h36q7 0 7 -7v-77q0 -7 -7 -7h-36zM251 505q103 0 145 -37.5t42 -123.5v-191q0 -86 -42 -123.5t-145 -37.5h-6q-102 0 -144 37.5t-42 123.5v7q0 8 8 8h34q8 0 8 -8v-7 q0 -65 28.5 -90t107.5 -25h6q80 0 108.5 25t28.5 90v73h-184q-7 0 -7 7v31q0 7 7 7h184v73q0 64 -28.5 89t-108.5 25h-6q-79 0 -107.5 -25t-28.5 -89v-8q0 -7 -8 -7h-34q-8 0 -8 7v8q0 86 42 123.5t144 37.5h6z" />
<glyph unicode="&#x4ee;" horiz-adv-x="471" d="M141 733q-7 0 -7 7v28q0 7 7 7h199q7 0 7 -7v-28q0 -7 -7 -7h-199zM466 645q9 0 5 -8l-199 -517q-29 -76 -61 -100.5t-101 -24.5h-44q-8 0 -8 7v32q0 7 8 7h49q45 0 67 16.5t39 61.5l6 16l-205 502q-3 8 6 8h34q7 0 9 -6l110 -269q43 -102 71 -192q24 84 66 192l104 269 q2 6 8 6h36z" />
<glyph unicode="&#x4ef;" horiz-adv-x="442" d="M124 585q-7 0 -7 7v28q0 7 7 7h199q7 0 7 -7v-28q0 -7 -7 -7h-199zM426 497q9 0 6 -8l-257 -685q-2 -6 -8 -6h-37q-9 0 -6 8l72 191l-182 492q-3 8 6 8h37q6 0 8 -6l92 -246q45 -126 66 -197q31 103 67 198l91 245q2 6 8 6h37z" />
<glyph unicode="&#x4f0;" horiz-adv-x="471" d="M151 733q-7 0 -7 7v77q0 7 7 7h36q7 0 7 -7v-77q0 -7 -7 -7h-36zM293 733q-7 0 -7 7v77q0 7 7 7h36q7 0 7 -7v-77q0 -7 -7 -7h-36zM466 645q9 0 5 -8l-199 -517q-29 -76 -61 -100.5t-101 -24.5h-44q-8 0 -8 7v32q0 7 8 7h49q45 0 67 16.5t39 61.5l6 16l-205 502q-3 8 6 8 h34q7 0 9 -6l110 -269q43 -102 71 -192q24 84 66 192l104 269q2 6 8 6h36z" />
<glyph unicode="&#x4f1;" horiz-adv-x="442" d="M134 585q-7 0 -7 7v77q0 7 7 7h36q7 0 7 -7v-77q0 -7 -7 -7h-36zM276 585q-7 0 -7 7v77q0 7 7 7h36q7 0 7 -7v-77q0 -7 -7 -7h-36zM426 497q9 0 6 -8l-257 -685q-2 -6 -8 -6h-37q-9 0 -6 8l72 191l-182 492q-3 8 6 8h37q6 0 8 -6l92 -246q45 -126 66 -197q31 103 67 198 l91 245q2 6 8 6h37z" />
<glyph unicode="&#x4f2;" horiz-adv-x="471" d="M155 715q-11 0 -6 8l55 96q2 5 9 5h36q11 0 5 -9l-63 -96q-3 -4 -8 -4h-28zM282 715q-11 0 -6 8l55 96q4 5 9 5h36q10 0 6 -9l-63 -96q-3 -4 -9 -4h-28zM466 645q9 0 5 -8l-199 -517q-29 -76 -61 -100.5t-101 -24.5h-44q-8 0 -8 7v32q0 7 8 7h49q45 0 67 16.5t39 61.5 l6 16l-205 502q-3 8 6 8h34q7 0 9 -6l110 -269q43 -102 71 -192q24 84 66 192l104 269q2 6 8 6h36z" />
<glyph unicode="&#x4f3;" horiz-adv-x="442" d="M138 567q-11 0 -6 8l55 96q3 5 9 5h36q11 0 5 -9l-63 -96q-3 -4 -8 -4h-28zM265 567q-11 0 -6 8l55 96q4 5 9 5h36q11 0 6 -9l-63 -96q-3 -4 -9 -4h-28zM426 497q9 0 6 -8l-257 -685q-2 -6 -8 -6h-37q-9 0 -6 8l72 191l-182 492q-3 8 6 8h37q6 0 8 -6l92 -246 q45 -126 66 -197q31 103 67 198l91 245q2 6 8 6h37z" />
<glyph unicode="&#x4f4;" horiz-adv-x="540" d="M158 733q-7 0 -7 7v77q0 7 7 7h36q7 0 7 -7v-77q0 -7 -7 -7h-36zM300 733q-7 0 -7 7v77q0 7 7 7h36q7 0 7 -7v-77q0 -7 -7 -7h-36zM448 645q7 0 7 -7v-631q0 -7 -7 -7h-35q-8 0 -8 7v266q-99 -49 -197 -49q-86 0 -126.5 40t-40.5 127v247q0 7 8 7h35q7 0 7 -7v-239 q0 -72 27 -100t93 -28q95 0 194 49v318q0 7 8 7h35z" />
<glyph unicode="&#x4f5;" horiz-adv-x="477" d="M129 585q-7 0 -7 7v77q0 7 7 7h36q7 0 7 -7v-77q0 -7 -7 -7h-36zM271 585q-7 0 -7 7v77q0 7 7 7h36q7 0 7 -7v-77q0 -7 -7 -7h-36zM390 497q7 0 7 -8v-482q0 -7 -7 -7h-35q-8 0 -8 7v193q-84 -44 -169 -44q-73 0 -104 33t-31 113v187q0 8 8 8h35q7 0 7 -8v-179 q0 -64 18.5 -86t69.5 -22q79 0 166 45v242q0 8 8 8h35z" />
<glyph unicode="&#x4f8;" horiz-adv-x="728" d="M564 824q7 0 7 -7v-77q0 -7 -7 -7h-36q-7 0 -7 7v77q0 7 7 7h36zM706 824q7 0 7 -7v-77q0 -7 -7 -7h-36q-7 0 -7 7v77q0 7 7 7h36zM314 379q93 0 133 -36.5t40 -114.5v-77q0 -78 -40 -114.5t-133 -36.5h-222q-7 0 -7 7v631q0 7 7 7h36q7 0 7 -7v-259h179zM636 645 q7 0 7 -7v-631q0 -7 -7 -7h-36q-7 0 -7 7v631q0 7 7 7h36zM437 151v77q0 61 -29 83t-108 22h-165v-287h165q79 0 108 22t29 83z" />
<glyph unicode="&#x4f9;" horiz-adv-x="666" d="M507 676q7 0 7 -7v-77q0 -7 -7 -7h-36q-7 0 -7 7v77q0 7 7 7h36zM649 676q7 0 7 -7v-77q0 -7 -7 -7h-36q-7 0 -7 7v77q0 7 7 7h36zM300 311q137 0 137 -119v-73q0 -119 -137 -119h-213q-7 0 -7 7v482q0 8 7 8h36q7 0 7 -8v-178h170zM579 497q7 0 7 -8v-482q0 -7 -7 -7 h-36q-7 0 -7 7v482q0 8 7 8h36zM387 119v73q0 40 -20 56.5t-71 16.5h-166v-219h166q51 0 71 16.5t20 56.5z" />
<glyph unicode="&#x1e80;" horiz-adv-x="819" d="M410 718l-105 98q-3 3 -1.5 5.5t6.5 2.5h43q6 0 9 -3l96 -97q4 -4 2.5 -6.5t-6.5 -2.5h-35q-6 0 -9 3zM789 645q8 0 5 -9l-177 -629q-2 -7 -9 -7h-37q-6 0 -8 7l-105 373q-29 99 -49 194q-14 -70 -48 -194l-105 -373q-2 -7 -9 -7h-37q-6 0 -8 7l-178 629q-2 9 6 9h38 q7 0 8 -7l104 -367q30 -105 49 -193q15 75 49 193l103 367q2 7 9 7h39q7 0 8 -7l104 -367q30 -105 49 -193q15 75 49 193l103 367q3 7 9 7h38z" />
<glyph unicode="&#x1e81;" horiz-adv-x="719" d="M361 570l-105 98q-3 3 -1.5 5.5t6.5 2.5h43q6 0 9 -3l96 -97q4 -4 2.5 -6.5t-6.5 -2.5h-35q-6 0 -9 3zM694 497q8 0 5 -8l-151 -482q-2 -7 -9 -7h-43q-6 0 -8 7l-72 230q-35 105 -56 203q-21 -92 -56 -203l-73 -230q-2 -7 -8 -7h-43q-6 0 -8 7l-152 482q-3 8 6 8h37 q6 0 8 -7l75 -238q39 -128 55 -199q17 77 56 199l75 238q2 7 8 7h39q7 0 9 -7l74 -238q39 -122 56 -199q19 83 56 199l74 238q2 7 9 7h37z" />
<glyph unicode="&#x1e82;" horiz-adv-x="819" d="M367 715q-12 0 -3 9l95 97q5 3 9 3h44q12 0 4 -8l-104 -98q-4 -3 -9 -3h-36zM789 645q8 0 5 -9l-177 -629q-2 -7 -9 -7h-37q-6 0 -8 7l-105 373q-29 99 -49 194q-14 -70 -48 -194l-105 -373q-2 -7 -9 -7h-37q-6 0 -8 7l-178 629q-2 9 6 9h38q7 0 8 -7l104 -367 q30 -105 49 -193q15 75 49 193l103 367q2 7 9 7h39q7 0 8 -7l104 -367q30 -105 49 -193q15 75 49 193l103 367q3 7 9 7h38z" />
<glyph unicode="&#x1e83;" horiz-adv-x="719" d="M318 567q-12 0 -3 9l95 97q4 3 9 3h44q12 0 4 -8l-104 -98q-5 -3 -9 -3h-36zM694 497q8 0 5 -8l-151 -482q-2 -7 -9 -7h-43q-6 0 -8 7l-72 230q-35 105 -56 203q-21 -92 -56 -203l-73 -230q-2 -7 -8 -7h-43q-6 0 -8 7l-152 482q-3 8 6 8h37q6 0 8 -7l75 -238 q39 -128 55 -199q17 77 56 199l75 238q2 7 8 7h39q7 0 9 -7l74 -238q39 -122 56 -199q19 83 56 199l74 238q2 7 9 7h37z" />
<glyph unicode="&#x1e84;" horiz-adv-x="819" d="M319 733q-7 0 -7 7v77q0 7 7 7h36q7 0 7 -7v-77q0 -7 -7 -7h-36zM461 733q-7 0 -7 7v77q0 7 7 7h36q7 0 7 -7v-77q0 -7 -7 -7h-36zM789 645q8 0 5 -9l-177 -629q-2 -7 -9 -7h-37q-6 0 -8 7l-105 373q-29 99 -49 194q-14 -70 -48 -194l-105 -373q-2 -7 -9 -7h-37 q-6 0 -8 7l-178 629q-2 9 6 9h38q7 0 8 -7l104 -367q30 -105 49 -193q15 75 49 193l103 367q2 7 9 7h39q7 0 8 -7l104 -367q30 -105 49 -193q15 75 49 193l103 367q3 7 9 7h38z" />
<glyph unicode="&#x1e85;" horiz-adv-x="719" d="M270 585q-7 0 -7 7v77q0 7 7 7h36q7 0 7 -7v-77q0 -7 -7 -7h-36zM412 585q-7 0 -7 7v77q0 7 7 7h36q7 0 7 -7v-77q0 -7 -7 -7h-36zM694 497q8 0 5 -8l-151 -482q-2 -7 -9 -7h-43q-6 0 -8 7l-72 230q-35 105 -56 203q-21 -92 -56 -203l-73 -230q-2 -7 -8 -7h-43q-6 0 -8 7 l-152 482q-3 8 6 8h37q6 0 8 -7l75 -238q39 -128 55 -199q17 77 56 199l75 238q2 7 8 7h39q7 0 9 -7l74 -238q39 -122 56 -199q19 83 56 199l74 238q2 7 9 7h37z" />
<glyph unicode="&#x1ef2;" horiz-adv-x="472" d="M237 718l-105 98q-3 3 -1.5 5.5t6.5 2.5h43q6 0 9 -3l96 -97q4 -4 2.5 -6.5t-6.5 -2.5h-35q-6 0 -9 3zM459 645q10 0 5 -8l-203 -394v-236q0 -7 -8 -7h-35q-7 0 -7 7v234l-204 396q-3 8 6 8h38q5 0 8 -5l102 -199q52 -101 75 -161q27 68 74 161l103 199q3 5 8 5h38z" />
<glyph unicode="&#x1ef3;" horiz-adv-x="442" d="M225 570l-105 98q-3 3 -1.5 5.5t6.5 2.5h43q6 0 9 -3l96 -97q4 -4 2.5 -6.5t-6.5 -2.5h-35q-6 0 -9 3zM426 497q9 0 6 -8l-257 -685q-2 -6 -8 -6h-37q-9 0 -6 8l72 191l-182 492q-3 8 6 8h37q6 0 8 -6l92 -246q45 -126 66 -197q31 103 67 198l91 245q2 6 8 6h37z" />
<glyph unicode="&#x2000;" horiz-adv-x="439" />
<glyph unicode="&#x2001;" horiz-adv-x="879" />
<glyph unicode="&#x2002;" horiz-adv-x="439" />
<glyph unicode="&#x2003;" horiz-adv-x="879" />
<glyph unicode="&#x2004;" horiz-adv-x="293" />
<glyph unicode="&#x2005;" horiz-adv-x="219" />
<glyph unicode="&#x2006;" horiz-adv-x="146" />
<glyph unicode="&#x2007;" horiz-adv-x="146" />
<glyph unicode="&#x2008;" horiz-adv-x="109" />
<glyph unicode="&#x2009;" horiz-adv-x="175" />
<glyph unicode="&#x200a;" horiz-adv-x="48" />
<glyph unicode="&#x2010;" horiz-adv-x="333" d="M34 262q-7 0 -7 7v32q0 7 7 7h265q8 0 8 -7v-32q0 -7 -8 -7h-265z" />
<glyph unicode="&#x2011;" horiz-adv-x="333" d="M34 262q-7 0 -7 7v32q0 7 7 7h265q8 0 8 -7v-32q0 -7 -8 -7h-265z" />
<glyph unicode="&#x2012;" horiz-adv-x="333" d="M34 262q-7 0 -7 7v32q0 7 7 7h265q8 0 8 -7v-32q0 -7 -8 -7h-265z" />
<glyph unicode="&#x2013;" horiz-adv-x="453" d="M34 262q-7 0 -7 7v32q0 7 7 7h385q8 0 8 -7v-32q0 -7 -8 -7h-385z" />
<glyph unicode="&#x2014;" horiz-adv-x="813" d="M34 262q-7 0 -7 7v32q0 7 7 7h745q8 0 8 -7v-32q0 -7 -8 -7h-745z" />
<glyph unicode="&#x2018;" horiz-adv-x="136" d="M50 650h12q7 0 8 -7l22 -115q1 -6 1 -13v-73q0 -7 -8 -7h-34q-8 0 -8 7v201q0 7 7 7z" />
<glyph unicode="&#x2019;" horiz-adv-x="136" d="M86 435h-12q-7 0 -8 7l-22 115q-1 6 -1 13v73q0 7 8 7h34q8 0 8 -7v-201q0 -7 -7 -7z" />
<glyph unicode="&#x201a;" horiz-adv-x="136" d="M50 -130q-7 0 -7 7v201q0 7 8 7h34q8 0 8 -7v-73q0 -7 -1 -13l-22 -115q-1 -7 -8 -7h-12z" />
<glyph unicode="&#x201c;" horiz-adv-x="266" d="M50 650h12q7 0 8 -7l22 -115q1 -6 1 -13v-73q0 -7 -8 -7h-34q-8 0 -8 7v201q0 7 7 7zM180 650h12q7 0 8 -7l22 -115q1 -6 1 -13v-73q0 -7 -8 -7h-34q-8 0 -8 7v201q0 7 7 7z" />
<glyph unicode="&#x201d;" horiz-adv-x="266" d="M86 436h-12q-7 0 -8 7l-22 115q-1 6 -1 13v73q0 7 8 7h34q8 0 8 -7v-201q0 -7 -7 -7zM216 436h-12q-7 0 -8 7l-22 115q-1 6 -1 13v73q0 7 8 7h34q8 0 8 -7v-201q0 -7 -7 -7z" />
<glyph unicode="&#x201e;" horiz-adv-x="266" d="M50 -130q-7 0 -7 7v201q0 7 8 7h34q8 0 8 -7v-73q0 -7 -1 -13l-22 -115q-1 -7 -8 -7h-12zM180 -130q-7 0 -7 7v201q0 7 8 7h34q8 0 8 -7v-73q0 -7 -1 -13l-22 -115q-1 -7 -8 -7h-12z" />
<glyph unicode="&#x2020;" horiz-adv-x="440" d="M389 418q8 0 8 -7v-30q0 -8 -8 -8h-144v-366q0 -7 -8 -7h-34q-8 0 -8 7v366h-144q-8 0 -8 8v30q0 7 8 7h144v220q0 7 8 7h34q8 0 8 -7v-220h144z" />
<glyph unicode="&#x2021;" horiz-adv-x="440" d="M389 458q8 0 8 -7v-30q0 -8 -8 -8h-144v-177h128q7 0 7 -7v-30q0 -8 -7 -8h-128v-184q0 -7 -8 -7h-34q-8 0 -8 7v184h-128q-7 0 -7 8v30q0 7 7 7h128v177h-144q-8 0 -8 8v30q0 7 8 7h144v180q0 7 8 7h34q8 0 8 -7v-180h144z" />
<glyph unicode="&#x2022;" horiz-adv-x="307" d="M101 241q-8 0 -8 8v131q0 8 8 8h106q7 0 7 -8v-131q0 -8 -7 -8h-106z" />
<glyph unicode="&#x2026;" horiz-adv-x="501" d="M51 0q-8 0 -8 7v71q0 7 8 7h39q7 0 7 -7v-71q0 -7 -7 -7h-39zM231 0q-8 0 -8 7v71q0 7 8 7h39q7 0 7 -7v-71q0 -7 -7 -7h-39zM411 0q-8 0 -8 7v71q0 7 8 7h39q7 0 7 -7v-71q0 -7 -7 -7h-39z" />
<glyph unicode="&#x202f;" horiz-adv-x="175" />
<glyph unicode="&#x2030;" horiz-adv-x="1159" d="M170 297q-66 0 -96.5 30t-30.5 97v102q0 67 30.5 97t96.5 30h28q67 0 97.5 -30t30.5 -97v-102q0 -67 -30.5 -97t-97.5 -30h-28zM214 0q-10 0 -5 9l328 631q3 5 9 5h33q11 0 6 -9l-329 -631q-2 -5 -9 -5h-33zM170 338h28q45 0 64.5 19t19.5 67v102q0 48 -19.5 67t-64.5 19 h-28q-44 0 -63 -19t-19 -67v-102q0 -48 19 -67t63 -19zM594 -8q-66 0 -96.5 30t-30.5 97v102q0 67 30.5 97t96.5 30h28q66 0 97 -30.5t31 -96.5v-102q0 -66 -31 -96.5t-97 -30.5h-28zM960 -8q-67 0 -97 30t-30 97v102q0 67 30 97t97 30h28q66 0 96.5 -30t30.5 -97v-102 q0 -67 -30.5 -97t-96.5 -30h-28zM594 33h28q44 0 63.5 19t19.5 67v102q0 48 -19.5 67t-63.5 19h-28q-44 0 -63.5 -19t-19.5 -67v-102q0 -48 19.5 -67t63.5 -19zM960 33h28q44 0 63.5 19t19.5 67v102q0 48 -19.5 67t-63.5 19h-28q-44 0 -63.5 -19t-19.5 -67v-102 q0 -48 19.5 -67t63.5 -19z" />
<glyph unicode="&#x2039;" horiz-adv-x="268" d="M211 74q4 -5 -1 -10l-19 -19q-6 -5 -10 0l-153 195q-5 5 0 10l153 195q4 6 10 0l19 -19q5 -5 1 -10l-132 -171z" />
<glyph unicode="&#x203a;" horiz-adv-x="268" d="M240 250q5 -5 0 -10l-153 -195q-4 -5 -10 0l-19 19q-5 5 -1 10l132 171l-132 171q-4 5 1 10l19 19q6 6 10 0z" />
<glyph unicode="&#x2044;" horiz-adv-x="519" d="M59 0q-8 0 -5 8l364 631q4 6 9 6h32q10 0 5 -9l-363 -630q-4 -6 -9 -6h-33z" />
<glyph unicode="&#x205f;" horiz-adv-x="219" />
<glyph unicode="&#x20ac;" horiz-adv-x="573" d="M467 449q-7 0 -7 7v33q0 67 -31 92.5t-120 25.5h-6q-89 0 -119.5 -25.5t-30.5 -92.5v-75h205q8 0 8 -7v-28q0 -7 -8 -7h-205v-96h205q8 0 8 -7v-28q0 -7 -8 -7h-205v-78q0 -67 30.5 -92.5t119.5 -25.5h6q89 0 120 25.5t31 92.5v23q0 7 7 7h36q7 0 7 -7v-23 q0 -88 -44.5 -126t-156.5 -38h-6q-112 0 -156 38t-44 126v78h-52q-8 0 -8 7v28q0 7 8 7h52v96h-52q-8 0 -8 7v28q0 7 8 7h52v75q0 88 44 126t156 38h6q112 0 156.5 -38t44.5 -126v-33q0 -7 -7 -7h-36z" />
<glyph unicode="&#x20bd;" horiz-adv-x="525" d="M313 645q95 0 137 -36.5t42 -117.5v-61q0 -81 -42 -117.5t-137 -36.5h-170v-105h207q7 0 7 -7v-30q0 -8 -7 -8h-207v-119q0 -7 -7 -7h-36q-7 0 -7 7v119h-62q-8 0 -8 8v30q0 7 8 7h62v105h-62q-8 0 -8 7v32q0 7 8 7h62v316q0 7 7 7h213zM442 430v61q0 61 -30 84.5 t-113 23.5h-156v-277h156q83 0 113 23.5t30 84.5z" />
<glyph unicode="&#x2116;" horiz-adv-x="1142" d="M867 177q-106 0 -149 37.5t-43 123.5v154q0 86 43 123.5t149 37.5h6q106 0 149 -37.5t43 -123.5v-154q0 -86 -43 -123.5t-149 -37.5h-6zM535 645q7 0 7 -7v-631q0 -7 -7 -7h-39q-5 0 -9 5l-241 378q-82 129 -115 192q4 -72 4 -192v-376q0 -7 -7 -7h-36q-7 0 -7 7v631 q0 7 7 7h39q5 0 9 -5l241 -378q72 -111 116 -192q-5 72 -5 192v376q0 7 8 7h35zM725 492v-154q0 -65 29.5 -90t112.5 -25h6q83 0 112.5 25t29.5 90v154q0 65 -29.5 90t-112.5 25h-6q-83 0 -112.5 -25t-29.5 -90zM1059 47q8 0 8 -8v-31q0 -8 -8 -8h-378q-8 0 -8 8v31q0 8 8 8 h378z" />
<glyph unicode="&#x2122;" horiz-adv-x="813" d="M312 645q8 0 8 -7v-29q0 -7 -8 -7h-112v-295q0 -7 -7 -7h-32q-8 0 -8 7v295h-112q-8 0 -8 7v29q0 7 8 7h271zM743 645q7 0 7 -7v-331q0 -7 -7 -7h-31q-7 0 -7 7v255l-115 -184q-3 -4 -7 -4h-28q-5 0 -8 4l-114 184v-255q0 -7 -7 -7h-31q-7 0 -7 7v331q0 7 7 7h35 q6 0 8 -5l131 -213l130 213q4 5 9 5h35z" />
<glyph unicode="&#x212e;" horiz-adv-x="868" d="M434 22q138 0 228 105h62q-51 -62 -127 -98.5t-163 -36.5q-150 0 -255.5 97t-105.5 234t105.5 233.5t255.5 96.5q149 0 254.5 -96.5t105.5 -233.5q0 -11 -1 -16h-585v-184q90 -101 226 -101zM208 338h451v184q-91 101 -225 101q-136 0 -226 -101v-184z" />
<glyph unicode="&#x2190;" horiz-adv-x="745" d="M688 348q7 0 7 -8v-34q0 -8 -7 -8h-559l174 -183q2 -1 1.5 -4.5t-2.5 -5.5l-16 -17q-6 -6 -11 0l-220 230q-2 2 -2 5t2 5l220 230q5 6 11 0l16 -17q6 -5 0 -11l-173 -182h559z" />
<glyph unicode="&#x2191;" horiz-adv-x="745" d="M607 420q6 -5 0 -11l-17 -16q-6 -5 -11 0l-182 173v-559q0 -7 -8 -7h-34q-8 0 -8 7v559l-183 -174q-4 -4 -10 1l-17 16q-5 5 0 11l230 220q1 2 5 2t5 -2z" />
<glyph unicode="&#x2192;" horiz-adv-x="745" d="M691 329q2 -1 2 -5t-2 -5l-220 -230q-5 -6 -11 0l-16 17q-6 6 0 11l173 182h-559q-7 0 -7 8v34q0 8 7 8h559l-174 183q-2 1 -1.5 4.5t2.5 5.5l16 17q6 5 11 0z" />
<glyph unicode="&#x2193;" horiz-adv-x="745" d="M607 236q5 -6 0 -11l-230 -220q-1 -2 -5 -2t-5 2l-230 220q-6 5 0 11l17 16q6 6 11 0l182 -173v559q0 7 8 7h34q8 0 8 -7v-559l183 174q1 2 4.5 1.5t5.5 -2.5z" />
<glyph unicode="&#x2194;" horiz-adv-x="745" d="M690 328q4 -6 0 -11l-206 -215q-5 -7 -11 -1l-16 18q-5 5 -1 10l162 170h-491l161 -170q5 -5 0 -10l-17 -18q-5 -5 -11 1l-205 215q-5 5 0 11l206 217q5 5 10 0l17 -18q5 -5 0 -10l-159 -169h487l-159 169q-6 6 0 10l16 18q5 5 11 0z" />
<glyph unicode="&#x2195;" horiz-adv-x="745" d="M576 238l18 -16q6 -6 0 -11l-217 -206q-5 -4 -11 0l-215 206q-7 5 -1 11l18 16q5 5 10 1l170 -162v491l-170 -161q-5 -5 -10 0l-18 17q-5 5 1 11l215 205q6 6 11 0l217 -206q5 -5 0 -10l-18 -17q-5 -5 -10 0l-169 159v-487l169 159q6 6 10 0z" />
<glyph unicode="&#x2196;" horiz-adv-x="745" d="M606 118q5 -5 -1 -11l-24 -24q-6 -6 -11 -1l-395 396l-6 -253q0 -6 -8 -6l-23 -1q-8 0 -8 8l7 318q-1 3 1.5 5.5t5.5 1.5l318 7q4 1 6 -1.5t2 -6.5l-1 -23q0 -8 -7 -8l-251 -6z" />
<glyph unicode="&#x2197;" horiz-adv-x="745" d="M615 225q2 -8 -8 -8l-23 1q-8 0 -8 7l-6 251l-395 -395q-5 -5 -11 1l-24 24q-6 6 -1 11l396 395l-253 6q-6 0 -6 8l-1 23q0 8 8 8l318 -7q3 1 5.5 -1.5t1.5 -5.5z" />
<glyph unicode="&#x2198;" horiz-adv-x="745" d="M615 411l-7 -318q1 -3 -1.5 -5.5t-5.5 -1.5l-318 -7q-4 -1 -6 1.5t-2 6.5l1 23q0 8 7 8l251 6l-395 395q-5 5 1 11l24 24q6 6 11 1l395 -396l6 253q0 6 8 6l23 1q8 0 8 -8z" />
<glyph unicode="&#x2199;" horiz-adv-x="745" d="M604 527q6 -6 1 -11l-396 -395l253 -6q6 0 6 -8l1 -23q0 -8 -8 -8l-318 7q-3 -1 -5.5 1.5t-1.5 5.5l-7 318q-2 8 8 8l23 -1q8 0 8 -7l6 -251l395 395q5 5 11 -1z" />
<glyph unicode="&#x2202;" horiz-adv-x="483" d="M243 653q100 0 141.5 -38.5t41.5 -125.5v-336q0 -85 -41.5 -123t-138.5 -38h-19q-97 0 -138.5 37t-41.5 117v77q0 80 41.5 117t138.5 37h19q54 0 84.5 -13t45.5 -44v169q0 66 -28.5 92t-104.5 26h-136q-7 0 -7 7v32q0 7 7 7h136zM376 153v64q0 63 -28 88.5t-102 25.5h-19 q-74 0 -102 -24.5t-28 -83.5v-77q0 -62 27 -85t103 -23h19q74 0 102 25.5t28 89.5z" />
<glyph unicode="&#x2205;" horiz-adv-x="559" d="M492 598q10 0 5 -8l-68 -121q45 -37 45 -125v-191q0 -86 -42.5 -123.5t-148.5 -37.5h-6q-67 0 -109 15l-58 -103q-3 -6 -9 -6h-34q-10 0 -6 9l68 121q-44 36 -44 125v191q0 86 42.5 123.5t149.5 37.5h6q66 0 108 -15l57 102q4 6 9 6h35zM135 153q0 -56 20 -80l212 375 q-30 10 -84 10h-6q-84 0 -113 -24.5t-29 -89.5v-191zM424 344q0 57 -20 81l-213 -377q30 -10 86 -10h6q83 0 112 25t29 90v191z" />
<glyph unicode="&#x220f;" horiz-adv-x="495" d="M454 645q8 0 8 -7v-28q0 -7 -8 -7h-86v-596q0 -7 -8 -7h-35q-7 0 -7 7v596h-140v-596q0 -7 -8 -7h-35q-7 0 -7 7v596h-87q-8 0 -8 7v28q0 7 8 7h413z" />
<glyph unicode="&#x2211;" horiz-adv-x="395" d="M357 610q0 -7 -8 -7h-261l165 -274q4 -7 0 -12l-165 -274h261q8 0 8 -7v-29q0 -7 -8 -7h-303q-8 0 -8 7v31q0 6 3 9l163 276l-163 275q-3 6 -3 9v31q0 7 8 7h303q8 0 8 -7v-28z" />
<glyph unicode="&#x2212;" horiz-adv-x="500" d="M61 228q-8 0 -8 8v31q0 8 8 8h378q8 0 8 -8v-31q0 -8 -8 -8h-378z" />
<glyph unicode="&#x221a;" horiz-adv-x="426" d="M379 645q9 0 7 -8l-127 -629q-1 -8 -8 -8h-38q-7 0 -9 5l-115 223h-68q-8 0 -8 7v28q0 7 8 7h91q6 0 8 -5l103 -199l116 571q1 8 8 8h32z" />
<glyph unicode="&#x221e;" horiz-adv-x="940" d="M690 473q106 0 146.5 -36t40.5 -121v-134q0 -85 -40.5 -121t-146.5 -36h-6q-71 0 -106 25t-80 104l-27 49l-28 -49q-45 -79 -80.5 -104t-105.5 -25h-6q-106 0 -147 36t-41 121v134q0 85 41 121t147 36h6q70 0 105.5 -25t80.5 -104l27 -48l27 48q45 79 80.5 104t106.5 25 h6zM405 181l39 69l-38 67q-41 73 -66 91.5t-83 18.5h-6q-82 0 -110 -23.5t-28 -87.5v-134q0 -64 28 -87.5t110 -23.5h6q58 0 82.5 18.5t65.5 91.5zM827 182v134q0 64 -28 87.5t-109 23.5h-6q-58 0 -83 -18.5t-66 -91.5l-38 -68l38 -68q41 -73 66 -91.5t83 -18.5h6 q81 0 109 23.5t28 87.5z" />
<glyph unicode="&#x222b;" horiz-adv-x="282" d="M31 0q-8 0 -8 7v28q0 7 8 7h12q68 0 86 46t0 171l-18 126q-20 136 13.5 198t113.5 62h13q7 0 7 -7v-28q0 -7 -7 -7h-13q-56 0 -74.5 -48.5t-1.5 -169.5l18 -126q20 -142 -10.5 -200.5t-126.5 -58.5h-12z" />
<glyph unicode="&#x2248;" horiz-adv-x="500" d="M347 275q-40 0 -100.5 38t-96.5 38q-40 0 -88 -31q-4 -3 -6.5 -1.5t-2.5 5.5v29q0 6 5 9q53 35 95 35q40 0 100 -38t97 -38q41 0 88 31q4 3 6.5 1.5t2.5 -5.5v-29q0 -5 -7 -11q-51 -33 -93 -33zM347 95q-40 0 -100.5 38t-96.5 38q-40 0 -88 -31q-4 -3 -6.5 -1.5t-2.5 5.5 v29q0 6 5 9q53 35 95 35q40 0 100 -38t97 -38q41 0 88 31q4 3 6.5 1.5t2.5 -5.5v-29q0 -5 -7 -11q-51 -33 -93 -33z" />
<glyph unicode="&#x2260;" horiz-adv-x="500" d="M439 323h-113l-97 -144h210q8 0 8 -8v-31q0 -8 -8 -8h-242l-85 -127q-4 -5 -9 -5h-34q-4 0 -5.5 3t1.5 7l82 122h-86q-8 0 -8 8v31q0 8 8 8h118l96 144h-214q-8 0 -8 7v32q0 7 8 7h245l83 123q4 5 8 5h34q11 0 4 -11l-79 -117h83q8 0 8 -7v-32q0 -7 -8 -7z" />
<glyph unicode="&#x2264;" horiz-adv-x="500" d="M66 298q-5 2 -5 8v35q0 6 7 9l341 137q9 4 9 -6v-33q0 -6 -5 -8l-291 -116l299 -117q7 -3 7 -9v-33q0 -9 -9 -6zM439 46q8 0 8 -7v-32q0 -7 -8 -7h-378q-8 0 -8 7v32q0 7 8 7h378z" />
<glyph unicode="&#x2265;" horiz-adv-x="500" d="M81 159q-9 -3 -9 6v33q0 6 7 9l299 117l-291 116q-5 2 -5 8v33q0 10 9 6l341 -137q7 -3 7 -9v-35q0 -6 -5 -8zM439 46q8 0 8 -7v-32q0 -7 -8 -7h-378q-8 0 -8 7v32q0 7 8 7h378z" />
<glyph unicode="&#x25ca;" horiz-adv-x="498" d="M458 328q2 -6 0 -10l-184 -313q-2 -5 -9 -5h-33q-6 0 -8 5l-184 311q-4 6 0 13l184 311q2 5 8 5h33q7 0 9 -5zM249 49l160 274l-160 274l-161 -274z" />
<glyph unicode="&#x25fc;" horiz-adv-x="495" d="M0 495h495v-495h-495v495z" />
<glyph unicode="&#xf8ff;" horiz-adv-x="806" d="M80 638q0 7 7 7h632q7 0 7 -7v-631q0 -7 -7 -7h-632q-7 0 -7 7v631zM296 168q0 -7 6 -7h12q7 0 7 7v144h165v-144q0 -7 6 -7h12q6 0 6 7v309q0 7 -6 7h-12q-6 0 -6 -7v-141h-165v141q0 7 -7 7h-12q-6 0 -6 -7v-309z" />
<glyph horiz-adv-x="210" d="M86 585q-7 0 -7 7v77q0 7 7 7h36q7 0 7 -7v-77q0 -7 -7 -7h-36zM87 0q-7 0 -7 7v482q0 8 7 8h36q7 0 7 -8v-482q0 -7 -7 -7h-36z" />
<glyph horiz-adv-x="531" d="M444 497q7 0 7 -8v-482q0 -7 -7 -7h-19q-6 0 -8 5l-15 31q-85 -44 -176 -44q-84 0 -120 39t-36 126v182q0 88 36 127t120 39q92 0 176 -45l15 32q2 5 8 5h19zM120 166q0 -73 24 -100.5t91 -27.5q85 0 166 39v342q-78 39 -166 39q-67 0 -91 -27t-24 -101v-164z" />
<glyph horiz-adv-x="531" d="M228 567q-12 0 -3 9l95 97q4 3 9 3h44q12 0 4 -8l-104 -98q-5 -3 -9 -3h-36zM444 497q7 0 7 -8v-482q0 -7 -7 -7h-19q-6 0 -8 5l-15 31q-85 -44 -176 -44q-84 0 -120 39t-36 126v182q0 88 36 127t120 39q92 0 176 -45l15 32q2 5 8 5h19zM120 166q0 -73 24 -100.5 t91 -27.5q85 0 166 39v342q-78 39 -166 39q-67 0 -91 -27t-24 -101v-164z" />
<glyph horiz-adv-x="531" d="M268 564q-56 0 -79 19.5t-23 65.5v20q0 7 8 7h24q7 0 7 -7v-20q0 -30 12.5 -40.5t50.5 -10.5h4q38 0 50 10.5t12 40.5v20q0 7 8 7h24q7 0 7 -7v-20q0 -46 -22.5 -65.5t-78.5 -19.5h-4zM444 497q7 0 7 -8v-482q0 -7 -7 -7h-19q-6 0 -8 5l-15 31q-85 -44 -176 -44 q-84 0 -120 39t-36 126v182q0 88 36 127t120 39q92 0 176 -45l15 32q2 5 8 5h19zM120 166q0 -73 24 -100.5t91 -27.5q85 0 166 39v342q-78 39 -166 39q-67 0 -91 -27t-24 -101v-164z" />
<glyph horiz-adv-x="531" d="M245 570l-90 97q-7 9 5 9h34q6 0 10 -5l66 -75l66 75q3 5 9 5h35q5 0 6.5 -2.5t-2.5 -6.5l-90 -97q-3 -3 -9 -3h-31q-6 0 -9 3zM444 497q7 0 7 -8v-482q0 -7 -7 -7h-19q-6 0 -8 5l-15 31q-85 -44 -176 -44q-84 0 -120 39t-36 126v182q0 88 36 127t120 39q92 0 176 -45 l15 32q2 5 8 5h19zM120 166q0 -73 24 -100.5t91 -27.5q85 0 166 39v342q-78 39 -166 39q-67 0 -91 -27t-24 -101v-164z" />
<glyph horiz-adv-x="531" d="M160 567q-12 0 -5 9l90 97q3 3 9 3h31q6 0 9 -3l90 -97q4 -4 2.5 -6.5t-6.5 -2.5h-35q-6 0 -9 5l-66 75l-66 -75q-4 -5 -10 -5h-34zM444 497q7 0 7 -8v-482q0 -7 -7 -7h-19q-6 0 -8 5l-15 31q-85 -44 -176 -44q-84 0 -120 39t-36 126v182q0 88 36 127t120 39 q92 0 176 -45l15 32q2 5 8 5h19zM120 166q0 -73 24 -100.5t91 -27.5q85 0 166 39v342q-78 39 -166 39q-67 0 -91 -27t-24 -101v-164z" />
<glyph horiz-adv-x="531" d="M180 585q-7 0 -7 7v77q0 7 7 7h36q7 0 7 -7v-77q0 -7 -7 -7h-36zM322 585q-7 0 -7 7v77q0 7 7 7h36q7 0 7 -7v-77q0 -7 -7 -7h-36zM444 497q7 0 7 -8v-482q0 -7 -7 -7h-19q-6 0 -8 5l-15 31q-85 -44 -176 -44q-84 0 -120 39t-36 126v182q0 88 36 127t120 39q92 0 176 -45 l15 32q2 5 8 5h19zM120 166q0 -73 24 -100.5t91 -27.5q85 0 166 39v342q-78 39 -166 39q-67 0 -91 -27t-24 -101v-164z" />
<glyph horiz-adv-x="531" d="M271 570l-105 98q-3 3 -1.5 5.5t6.5 2.5h43q6 0 9 -3l96 -97q4 -4 2.5 -6.5t-6.5 -2.5h-35q-6 0 -9 3zM444 497q7 0 7 -8v-482q0 -7 -7 -7h-19q-6 0 -8 5l-15 31q-85 -44 -176 -44q-84 0 -120 39t-36 126v182q0 88 36 127t120 39q92 0 176 -45l15 32q2 5 8 5h19zM120 166 q0 -73 24 -100.5t91 -27.5q85 0 166 39v342q-78 39 -166 39q-67 0 -91 -27t-24 -101v-164z" />
<glyph horiz-adv-x="531" d="M170 585q-7 0 -7 7v28q0 7 7 7h199q7 0 7 -7v-28q0 -7 -7 -7h-199zM444 497q7 0 7 -8v-482q0 -7 -7 -7h-19q-6 0 -8 5l-15 31q-85 -44 -176 -44q-84 0 -120 39t-36 126v182q0 88 36 127t120 39q92 0 176 -45l15 32q2 5 8 5h19zM120 166q0 -73 24 -100.5t91 -27.5 q85 0 166 39v342q-78 39 -166 39q-67 0 -91 -27t-24 -101v-164z" />
<glyph horiz-adv-x="531" d="M403 -49q-31 -31 -39 -44t-8 -33v-6q0 -22 10.5 -30t42.5 -8h35q8 0 8 -7v-24q0 -7 -8 -7h-35q-50 0 -72.5 18.5t-22.5 57.5v6q0 25 11 43t47 51l43 40l-13 28q-85 -44 -176 -44q-84 0 -120 39t-36 126v182q0 88 36 127t120 39q92 0 176 -45l15 32q2 5 8 5h19q7 0 7 -8 v-468h1v-13q0 -8 -6 -14zM120 166q0 -73 24 -100.5t91 -27.5q85 0 166 39v342q-78 39 -166 39q-67 0 -91 -27t-24 -101v-164z" />
<glyph horiz-adv-x="531" d="M269 560q-48 0 -65.5 13.5t-17.5 46.5v15q0 33 17.5 46t65.5 13h2q48 0 65.5 -13t17.5 -46v-15q0 -33 -17.5 -46.5t-65.5 -13.5h-2zM218 633v-12q0 -19 9 -25t42 -6h2q33 0 42 6t9 25v12q0 19 -9 25t-42 6h-2q-33 0 -42 -6t-9 -25zM444 497q7 0 7 -8v-482q0 -7 -7 -7h-19 q-6 0 -8 5l-15 31q-85 -44 -176 -44q-84 0 -120 39t-36 126v182q0 88 36 127t120 39q92 0 176 -45l15 32q2 5 8 5h19zM120 166q0 -73 24 -100.5t91 -27.5q85 0 166 39v342q-78 39 -166 39q-67 0 -91 -27t-24 -101v-164z" />
<glyph horiz-adv-x="531" d="M147 578q-8 0 -8 8v27q0 30 15 46.5t40 16.5q28 0 54 -19l66 -44q20 -12 31 -12q18 0 18 27v29q0 8 8 8h22q7 0 7 -8v-27q0 -30 -15 -46.5t-40 -16.5q-28 0 -54 19l-66 44q-18 12 -30 12q-19 0 -19 -27v-29q0 -8 -7 -8h-22zM444 497q7 0 7 -8v-482q0 -7 -7 -7h-19 q-6 0 -8 5l-15 31q-85 -44 -176 -44q-84 0 -120 39t-36 126v182q0 88 36 127t120 39q92 0 176 -45l15 32q2 5 8 5h19zM120 166q0 -73 24 -100.5t91 -27.5q85 0 166 39v342q-78 39 -166 39q-67 0 -91 -27t-24 -101v-164z" />
<glyph horiz-adv-x="531" d="M444 497q7 0 7 -8v-536q0 -87 -43 -124t-149 -37h-135q-7 0 -7 7v32q0 7 7 7h128q87 0 118 24t31 86v88q-85 -44 -175 -44q-84 0 -120 39t-36 126v182q0 88 36 127t120 39q92 0 176 -45l15 32q3 5 8 5h19zM235 38q85 0 166 39v342q-78 39 -166 39q-67 0 -91 -27t-24 -101 v-164q0 -73 24 -100.5t91 -27.5z" />
<glyph horiz-adv-x="531" d="M265 564q-56 0 -79 19.5t-23 65.5v20q0 7 8 7h24q7 0 7 -7v-20q0 -30 12.5 -40.5t50.5 -10.5h4q38 0 50 10.5t12 40.5v20q0 7 8 7h24q7 0 7 -7v-20q0 -46 -22.5 -65.5t-78.5 -19.5h-4zM444 497q7 0 7 -8v-536q0 -87 -43 -124t-149 -37h-135q-7 0 -7 7v32q0 7 7 7h128 q87 0 118 24t31 86v88q-85 -44 -175 -44q-84 0 -120 39t-36 126v182q0 88 36 127t120 39q92 0 176 -45l15 32q3 5 8 5h19zM235 38q85 0 166 39v342q-78 39 -166 39q-67 0 -91 -27t-24 -101v-164q0 -73 24 -100.5t91 -27.5z" />
<glyph horiz-adv-x="531" d="M157 567q-12 0 -5 9l90 97q3 3 9 3h31q6 0 9 -3l90 -97q4 -4 2.5 -6.5t-6.5 -2.5h-35q-6 0 -9 5l-66 75l-66 -75q-4 -5 -10 -5h-34zM444 497q7 0 7 -8v-536q0 -87 -43 -124t-149 -37h-135q-7 0 -7 7v32q0 7 7 7h128q87 0 118 24t31 86v88q-85 -44 -175 -44q-84 0 -120 39 t-36 126v182q0 88 36 127t120 39q92 0 176 -45l15 32q3 5 8 5h19zM235 38q85 0 166 39v342q-78 39 -166 39q-67 0 -91 -27t-24 -101v-164q0 -73 24 -100.5t91 -27.5z" />
<glyph horiz-adv-x="531" d="M251 567q-8 0 -8 7v141q0 7 7 7h11q7 0 8 -7l20 -82q1 -5 1 -11v-48q0 -7 -7 -7h-32zM444 497q7 0 7 -8v-536q0 -87 -43 -124t-149 -37h-135q-7 0 -7 7v32q0 7 7 7h128q87 0 118 24t31 86v88q-85 -44 -175 -44q-84 0 -120 39t-36 126v182q0 88 36 127t120 39 q92 0 176 -45l15 32q3 5 8 5h19zM235 38q85 0 166 39v342q-78 39 -166 39q-67 0 -91 -27t-24 -101v-164q0 -73 24 -100.5t91 -27.5z" />
<glyph horiz-adv-x="531" d="M248 585q-7 0 -7 7v77q0 7 7 7h36q7 0 7 -7v-77q0 -7 -7 -7h-36zM444 497q7 0 7 -8v-536q0 -87 -43 -124t-149 -37h-135q-7 0 -7 7v32q0 7 7 7h128q87 0 118 24t31 86v88q-85 -44 -175 -44q-84 0 -120 39t-36 126v182q0 88 36 127t120 39q92 0 176 -45l15 32q3 5 8 5h19z M235 38q85 0 166 39v342q-78 39 -166 39q-67 0 -91 -27t-24 -101v-164q0 -73 24 -100.5t91 -27.5z" />
<glyph horiz-adv-x="530" d="M443 497q7 0 7 -8v-536q0 -87 -43 -124t-149 -37h-135q-7 0 -7 7v32q0 7 7 7h128q87 0 118 24t31 86v87q-83 -43 -172 -43q-82 0 -117.5 38.5t-35.5 126.5v332q0 8 7 8h36q7 0 7 -8v-323q0 -74 23.5 -101t89.5 -27q81 0 162 38v413q0 8 8 8h35z" />
<glyph horiz-adv-x="530" d="M221 567q-12 0 -3 9l95 97q4 3 9 3h44q12 0 4 -8l-104 -98q-4 -3 -9 -3h-36zM443 497q7 0 7 -8v-536q0 -87 -43 -124t-149 -37h-135q-7 0 -7 7v32q0 7 7 7h128q87 0 118 24t31 86v87q-83 -43 -172 -43q-82 0 -117.5 38.5t-35.5 126.5v332q0 8 7 8h36q7 0 7 -8v-323 q0 -74 23.5 -101t89.5 -27q81 0 162 38v413q0 8 8 8h35z" />
<glyph horiz-adv-x="530" d="M153 567q-12 0 -5 9l90 97q3 3 9 3h31q6 0 9 -3l90 -97q4 -4 2.5 -6.5t-6.5 -2.5h-35q-6 0 -9 5l-66 75l-66 -75q-4 -5 -10 -5h-34zM443 497q7 0 7 -8v-536q0 -87 -43 -124t-149 -37h-135q-7 0 -7 7v32q0 7 7 7h128q87 0 118 24t31 86v87q-83 -43 -172 -43 q-82 0 -117.5 38.5t-35.5 126.5v332q0 8 7 8h36q7 0 7 -8v-323q0 -74 23.5 -101t89.5 -27q81 0 162 38v413q0 8 8 8h35z" />
<glyph horiz-adv-x="530" d="M173 585q-7 0 -7 7v77q0 7 7 7h36q7 0 7 -7v-77q0 -7 -7 -7h-36zM315 585q-7 0 -7 7v77q0 7 7 7h36q7 0 7 -7v-77q0 -7 -7 -7h-36zM443 497q7 0 7 -8v-536q0 -87 -43 -124t-149 -37h-135q-7 0 -7 7v32q0 7 7 7h128q87 0 118 24t31 86v87q-83 -43 -172 -43 q-82 0 -117.5 38.5t-35.5 126.5v332q0 8 7 8h36q7 0 7 -8v-323q0 -74 23.5 -101t89.5 -27q81 0 162 38v413q0 8 8 8h35z" />
<glyph horiz-adv-x="530" d="M264 570l-105 98q-3 3 -1.5 5.5t6.5 2.5h43q6 0 9 -3l96 -97q4 -4 2.5 -6.5t-6.5 -2.5h-35q-6 0 -9 3zM443 497q7 0 7 -8v-536q0 -87 -43 -124t-149 -37h-135q-7 0 -7 7v32q0 7 7 7h128q87 0 118 24t31 86v87q-83 -43 -172 -43q-82 0 -117.5 38.5t-35.5 126.5v332 q0 8 7 8h36q7 0 7 -8v-323q0 -74 23.5 -101t89.5 -27q81 0 162 38v413q0 8 8 8h35z" />
<glyph horiz-adv-x="625" d="M592 41q7 0 7 -7v-31q0 -7 -7 -7h-44q-79 0 -109.5 31t-30.5 114v312h-253v-305q0 -65 18.5 -86t73.5 -21h42q7 0 7 -7v-31q0 -7 -7 -7h-44q-79 0 -109.5 31t-30.5 114v312h-88q-7 0 -7 7v15q0 7 8 8l87 10v145q0 7 7 7h36q7 0 7 -7v-141h253v141q0 7 7 7h36q7 0 7 -7 v-141h132q7 0 7 -8v-29q0 -7 -7 -7h-132v-305q0 -65 18.5 -86t73.5 -21h42z" />
<glyph horiz-adv-x="523" d="M517 46q8 0 8 -7v-165q0 -8 -8 -8h-22q-6 0 -8 8l-10 126h-431l-10 -126q-2 -8 -8 -8h-22q-8 0 -8 8v165q0 7 8 7h43l187 592q2 7 8 7h35q7 0 9 -7l187 -592h42zM100 46h323l-114 365q-37 121 -47 168q-10 -43 -48 -168z" />
<glyph horiz-adv-x="526" d="M507 8q3 -8 -6 -8h-37q-7 0 -8 6l-135 390q-35 97 -58 183q-23 -86 -58 -183l-135 -390q-2 -6 -8 -6h-37q-9 0 -6 8l219 631q1 6 8 6h34q6 0 8 -6z" />
<glyph horiz-adv-x="502" d="M345 333q59 -9 84 -41.5t25 -98.5v-40q0 -89 -40.5 -125t-146.5 -36h-4q-106 0 -147 36t-41 125v339q0 89 39 125t136 36h8q97 0 135.5 -36t38.5 -125v-23q0 -59 -20.5 -91t-66.5 -45zM250 607q-73 0 -99 -23.5t-26 -91.5v-138h130q74 0 100.5 23.5t26.5 91.5v23 q0 68 -25.5 91.5t-98.5 23.5h-8zM404 153v40q0 68 -28 91.5t-109 23.5h-142v-155q0 -68 28 -91.5t110 -23.5h4q82 0 109.5 23.5t27.5 91.5z" />
<glyph horiz-adv-x="472" d="M50 118v14q0 50 24 78t81 44l132 38q49 14 63.5 27t14.5 42v15q0 42 -28 62t-97 20h-6q-69 0 -96 -18.5t-27 -60.5v-36q0 -8 -7 -8h-35q-7 0 -7 8v36q0 62 40.5 94t131.5 32h6q93 0 134 -32.5t41 -96.5v-15q0 -45 -22.5 -69.5t-83.5 -41.5l-132 -38q-46 -14 -61.5 -30.5 t-15.5 -49.5v-14q0 -42 30 -61t104 -19h6q74 0 103.5 19t29.5 61v36q0 8 7 8h35q7 0 7 -8v-36q0 -62 -43 -94t-140 -32h-6q-98 0 -140.5 30.5t-42.5 95.5z" />
<glyph horiz-adv-x="531" d="M444 497q7 0 7 -8v-536q0 -87 -43 -124t-149 -37h-135q-7 0 -7 7v32q0 7 7 7h128q87 0 118 24t31 86v88q-85 -44 -175 -44q-84 0 -120 39t-36 126v182q0 88 36 127t120 39q92 0 176 -45l15 32q3 5 8 5h19zM235 38q85 0 166 39v342q-78 39 -166 39q-67 0 -91 -27t-24 -101 v-164q0 -73 24 -100.5t91 -27.5z" />
<glyph horiz-adv-x="654" d="M634 8q5 -8 -5 -8h-42q-7 0 -8 5l-132 225h-95v-223q0 -7 -7 -7h-36q-7 0 -7 7v223h-95l-132 -225q-3 -5 -8 -5h-42q-10 0 -5 8l145 244l-141 236q-5 9 5 9h42q5 0 8 -5l127 -216h96v417q0 7 7 7h36q7 0 7 -7v-417h96l127 216q2 5 8 5h42q10 0 5 -9l-141 -236z" />
<glyph horiz-adv-x="485" d="M340 251q47 -9 68 -34.5t21 -75.5v-17q0 -70 -41.5 -101t-142.5 -31h-6q-100 0 -141.5 31t-41.5 101v26q0 8 7 8h35q8 0 8 -8v-26q0 -49 27.5 -67.5t105.5 -18.5h6q78 0 106 18.5t28 67.5v17q0 49 -27.5 67.5t-106.5 18.5h-59q-7 0 -7 8v31q0 8 7 8h59q74 0 101 18.5 t27 67.5v12q0 49 -27 67.5t-101 18.5h-6q-74 0 -100.5 -18.5t-26.5 -67.5v-25q0 -8 -8 -8h-35q-7 0 -7 8v25q0 70 40.5 101.5t136.5 31.5h6q96 0 137 -31.5t41 -101.5v-12q0 -49 -19.5 -74.5t-63.5 -34.5z" />
<glyph horiz-adv-x="530" d="M443 497q7 0 7 -8v-482q0 -7 -7 -7h-19q-6 0 -9 6l-14 30q-83 -44 -173 -44q-82 0 -117.5 38.5t-35.5 126.5v332q0 8 7 8h36q7 0 7 -8v-323q0 -74 23.5 -101t89.5 -27q81 0 162 38v413q0 8 8 8h35z" />
<glyph horiz-adv-x="530" d="M260 564q-56 0 -79 19.5t-23 65.5v20q0 7 8 7h24q7 0 7 -7v-20q0 -30 12.5 -40.5t50.5 -10.5h4q38 0 50 10.5t12 40.5v20q0 7 8 7h24q7 0 7 -7v-20q0 -46 -22.5 -65.5t-78.5 -19.5h-4zM443 497q7 0 7 -8v-482q0 -7 -7 -7h-19q-6 0 -9 6l-14 30q-83 -44 -173 -44 q-82 0 -117.5 38.5t-35.5 126.5v332q0 8 7 8h36q7 0 7 -8v-323q0 -74 23.5 -101t89.5 -27q81 0 162 38v413q0 8 8 8h35z" />
<glyph horiz-adv-x="530" d="M263 570l-105 98q-3 3 -1.5 5.5t6.5 2.5h43q6 0 9 -3l96 -97q4 -4 2.5 -6.5t-6.5 -2.5h-35q-6 0 -9 3zM443 497q7 0 7 -8v-482q0 -7 -7 -7h-19q-6 0 -9 6l-14 30q-83 -44 -173 -44q-82 0 -117.5 38.5t-35.5 126.5v332q0 8 7 8h36q7 0 7 -8v-323q0 -74 23.5 -101t89.5 -27 q81 0 162 38v413q0 8 8 8h35z" />
<glyph horiz-adv-x="461" d="M441 9q6 -9 -5 -9h-41q-6 0 -10 5l-160 225h-95v-223q0 -7 -7 -7h-36q-7 0 -7 7v686q0 7 7 7h36q7 0 7 -7v-417h98l153 216q4 5 10 5h41q11 0 5 -9l-169 -237z" />
<glyph horiz-adv-x="447" d="M433 8q3 -8 -6 -8h-38q-7 0 -8 6l-91 245q-44 120 -66 197q-23 -77 -67 -197l-91 -245q-2 -6 -8 -6h-38q-9 0 -6 8l181 483q2 6 8 6h41q6 0 8 -6z" />
<glyph horiz-adv-x="534" d="M304 505q83 0 119 -39t36 -127v-332q0 -7 -7 -7h-35q-8 0 -8 7v323q0 74 -24 101t-91 27q-85 0 -164 -38v-413q0 -7 -7 -7h-36q-7 0 -7 7v482q0 8 7 8h20q5 0 7 -5l15 -31q86 44 175 44z" />
<glyph horiz-adv-x="823" d="M598 505q79 0 114.5 -39t35.5 -127v-332q0 -7 -7 -7h-36q-7 0 -7 7v323q0 74 -23 101t-87 27q-84 0 -156 -42q9 -31 9 -77v-332q0 -7 -7 -7h-35q-8 0 -8 7v323q0 74 -23 101t-86 27q-78 0 -152 -39v-412q0 -7 -7 -7h-36q-7 0 -7 7v482q0 8 7 8h20q5 0 7 -5l16 -31 q78 44 162 44q93 0 126 -55q86 55 180 55z" />
<glyph horiz-adv-x="535" d="M504 46q8 0 8 -7v-165q0 -8 -8 -8h-22q-6 0 -8 8l-10 126h-40q-6 0 -9 6l-14 30q-83 -44 -173 -44q-82 0 -117.5 38.5t-35.5 126.5v332q0 8 7 8h36q7 0 7 -8v-323q0 -74 23.5 -101t89.5 -27q81 0 162 38v413q0 8 8 8h35q7 0 7 -8v-443h54z" />
<glyph horiz-adv-x="823" d="M736 497q7 0 7 -7v-482q0 -8 -7 -8h-20q-4 0 -7 5l-16 31q-78 -44 -162 -44q-93 0 -126 55q-86 -55 -180 -55q-79 0 -114.5 39t-35.5 127v332q0 7 7 7h36q7 0 7 -7v-323q0 -74 23 -101t87 -27q84 0 156 42q-9 32 -9 77v332q0 7 7 7h35q8 0 8 -7v-323q0 -74 23 -101 t86 -27q79 0 152 39v412q0 7 7 7h36z" />
<glyph horiz-adv-x="828" d="M797 46q8 0 8 -7v-165q0 -8 -8 -8h-22q-6 0 -8 8l-10 126h-41q-4 0 -7 5l-16 31q-78 -44 -162 -44q-93 0 -126 55q-86 -55 -180 -55q-79 0 -114.5 39t-35.5 127v332q0 7 7 7h36q7 0 7 -7v-323q0 -74 23 -101t87 -27q84 0 156 42q-9 32 -9 77v332q0 7 7 7h35q8 0 8 -7 v-323q0 -74 23 -101t86 -27q79 0 152 39v412q0 7 7 7h36q7 0 7 -7v-444h54z" />
<glyph horiz-adv-x="481" d="M306 311q136 0 136 -118v-75q0 -118 -136 -118h-95q-136 0 -136 118v371q0 8 7 8h36q7 0 7 -8v-215q21 37 92 37h89zM392 118v75q0 39 -20.5 55.5t-70.5 16.5h-85q-51 0 -71 -16.5t-20 -55.5v-75q0 -39 20 -55.5t71 -16.5h85q50 0 70.5 16.5t20.5 55.5z" />
<glyph horiz-adv-x="524" d="M349 311q136 0 136 -118v-75q0 -118 -136 -118h-95q-136 0 -136 118v332h-114q-7 0 -7 8v31q0 8 7 8h157q7 0 7 -8v-215q21 37 92 37h89zM435 118v75q0 39 -20.5 55.5t-70.5 16.5h-85q-51 0 -71 -16.5t-20 -55.5v-75q0 -39 20 -55.5t71 -16.5h85q50 0 70.5 16.5 t20.5 55.5z" />
<glyph horiz-adv-x="703" d="M451 505q100 0 141 -38t41 -123v-191q0 -85 -41 -123t-141 -38h-6q-99 0 -140 38t-41 123v72h-134v-218q0 -7 -7 -7h-36q-7 0 -7 7v686q0 7 7 7h36q7 0 7 -7v-421h134v72q0 85 41 123t140 38h6zM583 153v191q0 64 -27.5 89t-104.5 25h-6q-76 0 -103.5 -25t-27.5 -89v-191 q0 -64 27.5 -89.5t103.5 -25.5h6q77 0 104.5 25.5t27.5 89.5z" />
<glyph horiz-adv-x="587" d="M80 156v333q0 88 46 126t164 38h6q119 0 165 -38t46 -126v-333q0 -88 -46 -126t-165 -38h-6q-118 0 -164 38t-46 126zM130 156q0 -67 32.5 -92.5t127.5 -25.5h6q96 0 128.5 25.5t32.5 92.5v333q0 67 -32.5 92.5t-128.5 25.5h-6q-95 0 -127.5 -25.5t-32.5 -92.5v-333z" />
<glyph horiz-adv-x="442" d="M388 46q7 0 7 -7v-32q0 -7 -7 -7h-329q-7 0 -7 7v32q0 7 7 7h152v549l-136 -70q-8 -5 -8 6v33q0 7 6 9l133 70q3 2 9 2h38q8 0 8 -7v-592h127z" />
<glyph horiz-adv-x="552" d="M228 266q-65 -15 -84 -35.5t-19 -72.5v-112h350q7 0 7 -7v-32q0 -7 -7 -7h-393q-7 0 -7 7v155q0 69 28.5 100.5t105.5 48.5l124 28q62 14 80.5 35t18.5 72v47q0 64 -31 89t-118 25h-6q-87 0 -117 -25t-30 -90v-36q0 -7 -8 -7h-35q-7 0 -7 7v36q0 86 43.5 123.5 t153.5 37.5h6q111 0 155 -37.5t44 -122.5v-47q0 -70 -28 -103t-102 -49z" />
<glyph horiz-adv-x="556" d="M384 328q55 -10 76 -40.5t21 -91.5v-43q0 -86 -44.5 -123.5t-157.5 -37.5h-6q-114 0 -158.5 37.5t-44.5 123.5v26q0 7 7 7h36q7 0 7 -7v-26q0 -65 31 -90t122 -25h6q90 0 121 25t31 90v43q0 62 -30 85.5t-122 23.5h-67q-7 0 -7 7v31q0 7 7 7h61q92 0 122 23.5t30 85.5v33 q0 66 -29.5 90.5t-116.5 24.5h-6q-88 0 -117.5 -24.5t-29.5 -90.5v-36q0 -7 -8 -7h-35q-7 0 -7 7v36q0 86 43.5 123.5t153.5 37.5h6q109 0 152.5 -37.5t43.5 -123.5v-33q0 -59 -20 -89t-71 -42z" />
<glyph horiz-adv-x="525" d="M480 206q7 0 7 -7v-30q0 -7 -7 -7h-72v-155q0 -7 -7 -7h-35q-7 0 -7 7v155h-313q-8 0 -8 7v32q0 5 3 9l314 430q4 5 10 5h36q7 0 7 -7v-432h72zM94 206h265v365z" />
<glyph horiz-adv-x="548" d="M286 377q107 0 149.5 -37.5t42.5 -127.5v-56q0 -89 -44 -126.5t-154 -37.5h-6q-110 0 -154.5 37.5t-44.5 126.5v23q0 7 7 7h36q7 0 7 -7v-23q0 -68 30.5 -93t118.5 -25h6q87 0 117.5 25t30.5 93v56q0 69 -29 94t-113 25h-166q-6 0 -11 4l-16 15q-4 4 -4 9v279q0 7 7 7 h360q8 0 8 -7v-32q0 -7 -8 -7h-317v-222h147z" />
<glyph horiz-adv-x="574" d="M293 377q116 0 161 -38t45 -126v-57q0 -88 -45 -126t-161 -38h-6q-116 0 -161.5 38t-45.5 126v333q0 88 44.5 126t158.5 38h6q114 0 159 -38t45 -126v-33q0 -7 -8 -7h-35q-7 0 -7 7v33q0 67 -31.5 92.5t-122.5 25.5h-6q-90 0 -121.5 -25.5t-31.5 -92.5v-176 q15 35 51 49.5t106 14.5h6zM449 156v57q0 67 -31.5 92.5t-124.5 25.5h-6q-93 0 -125 -25.5t-32 -92.5v-57q0 -67 32 -92.5t125 -25.5h6q93 0 124.5 25.5t31.5 92.5z" />
<glyph horiz-adv-x="435" d="M406 644q7 0 7 -7v-35q0 -3 -2 -9l-251 -588q-2 -6 -9 -6h-37q-9 0 -5 8l253 591h-320q-7 0 -7 7v32q0 7 7 7h364z" />
<glyph horiz-adv-x="582" d="M399 329q61 -12 84.5 -43.5t23.5 -94.5v-38q0 -86 -46.5 -123.5t-166.5 -37.5h-6q-120 0 -166.5 37.5t-46.5 123.5v38q0 63 23.5 94.5t84.5 43.5q-54 12 -76 44.5t-22 91.5v28q0 85 45 122.5t158 37.5h6q113 0 158 -37.5t45 -122.5v-28q0 -59 -22 -91.5t-76 -44.5z M135 465q0 -63 31.5 -88t121.5 -25h6q90 0 121.5 25t31.5 88v28q0 64 -31.5 89t-121.5 25h-6q-90 0 -121.5 -25t-31.5 -89v-28zM457 153v38q0 65 -33 90t-130 25h-6q-97 0 -130 -25t-33 -90v-38q0 -65 33 -90t130 -25h6q97 0 130 25t33 90z" />
<glyph horiz-adv-x="573" d="M287 653q116 0 161 -38t45 -126v-333q0 -88 -44.5 -126t-158.5 -38h-6q-113 0 -157.5 38t-44.5 126v23q0 7 7 7h35q8 0 8 -7v-23q0 -67 31 -92.5t121 -25.5h6q90 0 121.5 25.5t31.5 92.5v167q-15 -34 -51.5 -47.5t-104.5 -13.5h-6q-116 0 -161 38t-45 126v63q0 88 45 126 t161 38h6zM287 309q92 0 124 25.5t32 91.5v63q0 67 -32 92.5t-124 25.5h-6q-92 0 -124 -25.5t-32 -92.5v-63q0 -66 32 -91.5t124 -25.5h6z" />
<glyph horiz-adv-x="600" d="M87 156v333q0 88 46 126t164 38h6q119 0 165 -38t46 -126v-333q0 -88 -46 -126t-165 -38h-6q-118 0 -164 38t-46 126zM137 156q0 -67 32.5 -92.5t127.5 -25.5h6q96 0 128.5 25.5t32.5 92.5v333q0 67 -32.5 92.5t-128.5 25.5h-6q-95 0 -127.5 -25.5t-32.5 -92.5v-333z" />
<glyph horiz-adv-x="600" d="M480 46q7 0 7 -7v-32q0 -7 -7 -7h-329q-7 0 -7 7v32q0 7 7 7h152v549l-136 -70q-8 -5 -8 6v33q0 7 6 9l133 70q3 2 9 2h38q8 0 8 -7v-592h127z" />
<glyph horiz-adv-x="600" d="M266 266q-65 -15 -84 -35.5t-19 -72.5v-112h350q7 0 7 -7v-32q0 -7 -7 -7h-393q-7 0 -7 7v155q0 69 28.5 100.5t105.5 48.5l124 28q62 14 80.5 35t18.5 72v47q0 64 -31 89t-118 25h-6q-87 0 -117 -25t-30 -90v-36q0 -7 -8 -7h-35q-7 0 -7 7v36q0 86 43.5 123.5 t153.5 37.5h6q111 0 155 -37.5t44 -122.5v-47q0 -70 -28 -103t-102 -49z" />
<glyph horiz-adv-x="600" d="M412 328q55 -10 76 -40.5t21 -91.5v-43q0 -86 -44.5 -123.5t-157.5 -37.5h-6q-114 0 -158.5 37.5t-44.5 123.5v26q0 7 7 7h36q7 0 7 -7v-26q0 -65 31 -90t122 -25h6q90 0 121 25t31 90v43q0 62 -30 85.5t-122 23.5h-67q-7 0 -7 7v31q0 7 7 7h61q92 0 122 23.5t30 85.5v33 q0 66 -29.5 90.5t-116.5 24.5h-6q-88 0 -117.5 -24.5t-29.5 -90.5v-36q0 -7 -8 -7h-35q-7 0 -7 7v36q0 86 43.5 123.5t153.5 37.5h6q109 0 152.5 -37.5t43.5 -123.5v-33q0 -59 -20 -89t-71 -42z" />
<glyph horiz-adv-x="600" d="M513 206q7 0 7 -7v-30q0 -7 -7 -7h-72v-155q0 -7 -7 -7h-35q-7 0 -7 7v155h-313q-8 0 -8 7v32q0 5 3 9l314 430q4 5 10 5h36q7 0 7 -7v-432h72zM127 206h265v365z" />
<glyph horiz-adv-x="600" d="M321 377q107 0 149.5 -37.5t42.5 -127.5v-56q0 -89 -44 -126.5t-154 -37.5h-6q-110 0 -154.5 37.5t-44.5 126.5v23q0 7 7 7h36q7 0 7 -7v-23q0 -68 30.5 -93t118.5 -25h6q87 0 117.5 25t30.5 93v56q0 69 -29 94t-113 25h-166q-6 0 -11 4l-16 15q-4 4 -4 9v279q0 7 7 7 h360q8 0 8 -7v-32q0 -7 -8 -7h-317v-222h147z" />
<glyph horiz-adv-x="600" d="M313 377q116 0 161 -38t45 -126v-57q0 -88 -45 -126t-161 -38h-6q-116 0 -161.5 38t-45.5 126v333q0 88 44.5 126t158.5 38h6q114 0 159 -38t45 -126v-33q0 -7 -8 -7h-35q-7 0 -7 7v33q0 67 -31.5 92.5t-122.5 25.5h-6q-90 0 -121.5 -25.5t-31.5 -92.5v-176 q15 35 51 49.5t106 14.5h6zM469 156v57q0 67 -31.5 92.5t-124.5 25.5h-6q-93 0 -125 -25.5t-32 -92.5v-57q0 -67 32 -92.5t125 -25.5h6q93 0 124.5 25.5t31.5 92.5z" />
<glyph horiz-adv-x="600" d="M495 645q7 0 7 -7v-35q0 -3 -2 -9l-251 -588q-2 -6 -9 -6h-37q-9 0 -5 8l253 591h-320q-7 0 -7 7v32q0 7 7 7h364z" />
<glyph horiz-adv-x="600" d="M408 329q61 -12 84.5 -43.5t23.5 -94.5v-38q0 -86 -46.5 -123.5t-166.5 -37.5h-6q-120 0 -166.5 37.5t-46.5 123.5v38q0 63 23.5 94.5t84.5 43.5q-54 12 -76 44.5t-22 91.5v28q0 85 45 122.5t158 37.5h6q113 0 158 -37.5t45 -122.5v-28q0 -59 -22 -91.5t-76 -44.5z M144 465q0 -63 31.5 -88t121.5 -25h6q90 0 121.5 25t31.5 88v28q0 64 -31.5 89t-121.5 25h-6q-90 0 -121.5 -25t-31.5 -89v-28zM466 153v38q0 65 -33 90t-130 25h-6q-97 0 -130 -25t-33 -90v-38q0 -65 33 -90t130 -25h6q97 0 130 25t33 90z" />
<glyph horiz-adv-x="600" d="M306 653q116 0 161 -38t45 -126v-333q0 -88 -44.5 -126t-158.5 -38h-6q-113 0 -157.5 38t-44.5 126v23q0 7 7 7h35q8 0 8 -7v-23q0 -67 31 -92.5t121 -25.5h6q90 0 121.5 25.5t31.5 92.5v167q-15 -34 -51.5 -47.5t-104.5 -13.5h-6q-116 0 -161 38t-45 126v63q0 88 45 126 t161 38h6zM306 309q92 0 124 25.5t32 91.5v63q0 67 -32 92.5t-124 25.5h-6q-92 0 -124 -25.5t-32 -92.5v-63q0 -66 32 -91.5t124 -25.5h6z" />
<glyph horiz-adv-x="364" d="M342 -72h-35q-7 0 -8 6l-283 758q-3 8 6 8h34q7 0 9 -6l283 -758q3 -8 -6 -8z" />
<glyph horiz-adv-x="141" d="M51 280q-8 0 -8 7v71q0 7 8 7h39q7 0 7 -7v-71q0 -7 -7 -7h-39z" />
<glyph horiz-adv-x="307" d="M101 241q-8 0 -8 8v131q0 8 8 8h106q7 0 7 -8v-131q0 -8 -7 -8h-106z" />
<glyph horiz-adv-x="214" d="M97 175q-7 0 -7 7l-8 456q0 7 7 7h36q7 0 7 -7l-8 -456q0 -7 -7 -7h-20zM88 0q-8 0 -8 7v71q0 7 8 7h39q7 0 7 -7v-71q0 -7 -7 -7h-39z" />
<glyph horiz-adv-x="214" d="M88 645h39q7 0 7 -7v-71q0 -7 -7 -7h-39q-8 0 -8 7v71q0 7 8 7zM97 470h20q7 0 7 -7l8 -456q0 -7 -7 -7h-36q-7 0 -7 7l8 456q0 7 7 7z" />
<glyph horiz-adv-x="439" d="M51 449q-8 0 -8 7v33q0 88 40 126t138 38h6q97 0 138 -37t41 -117v-13q0 -67 -21 -98t-79 -50l-44 -14q-43 -14 -55 -34t-12 -78v-30q0 -7 -8 -7h-34q-8 0 -8 7v30q0 73 20 104t77 49l44 14q45 14 57.5 34t12.5 73v13q0 60 -27 84t-102 24h-6q-75 0 -101.5 -25.5 t-26.5 -92.5v-33q0 -7 -8 -7h-34zM151 0q-8 0 -8 7v71q0 7 8 7h39q7 0 7 -7v-71q0 -7 -7 -7h-39z" />
<glyph horiz-adv-x="429" d="M288 645q8 0 8 -7v-71q0 -7 -8 -7h-39q-7 0 -7 7v71q0 7 7 7h39zM388 196q8 0 8 -7v-33q0 -88 -40 -126t-138 -38h-6q-97 0 -138 37t-41 117v13q0 67 21 98t79 50l44 14q43 14 55 34t12 78v30q0 7 8 7h34q8 0 8 -7v-30q0 -73 -20 -104t-77 -49l-44 -14q-45 -14 -57.5 -34 t-12.5 -73v-13q0 -60 27 -84t102 -24h6q75 0 101.5 25.5t26.5 92.5v33q0 7 8 7h34z" />
<glyph horiz-adv-x="364" d="M22 -72q-9 0 -6 8l283 758q2 6 9 6h34q9 0 6 -8l-283 -758q-1 -6 -8 -6h-35z" />
<glyph horiz-adv-x="299" d="M170 453q0 -69 -16.5 -96.5t-65.5 -34.5q49 -7 65.5 -34.5t16.5 -96.5v-75q0 -66 19 -88.5t74 -22.5h9q7 0 7 -7v-28q0 -7 -7 -7h-9q-80 0 -110.5 32t-30.5 116v84q0 64 -18 84.5t-72 20.5h-1q-8 0 -8 8v28q0 8 8 8h1q54 0 72 20.5t18 84.5v85q0 84 30.5 116t110.5 32h9 q7 0 7 -7v-28q0 -7 -7 -7h-9q-55 0 -74 -22.5t-19 -88.5v-76z" />
</font>
</defs>
</svg>
