<?xml version="1.0" standalone="no"?>
<!DOCTYPE svg PUBLIC "-//W3C//DTD SVG 1.1//EN" "http://www.w3.org/Graphics/SVG/1.1/DTD/svg11.dtd" >
<svg xmlns="http://www.w3.org/2000/svg">
<metadata></metadata>
<defs>
<font id="roganextralight" horiz-adv-x="529" >
<font-face units-per-em="1000" ascent="750" descent="-250" />
<missing-glyph horiz-adv-x="217" />
<glyph unicode="ff" horiz-adv-x="591" d="M584 708q7 0 7 -7v-18q0 -6 -7 -6h-43q-63 0 -82 -22t-19 -95v-67h140q7 0 7 -6v-18q0 -7 -7 -7h-140v-455q0 -7 -7 -7h-21q-7 0 -7 7v455h-255v-455q0 -7 -7 -7h-21q-7 0 -7 7v455h-95q-7 0 -7 6v8q0 3 0.5 4t3 1.5t9.5 1.5l89 8v64q0 90 27.5 121.5t103.5 31.5h48 q7 0 7 -7v-18q0 -6 -7 -6h-43q-63 0 -82 -22t-19 -95v-67h255v62q0 90 27.5 121.5t103.5 31.5h48z" />
<glyph unicode="fft" horiz-adv-x="884" d="M849 28q7 0 7 -7v-18q0 -7 -7 -7h-42q-76 0 -103.5 29t-27.5 113v324h-236v-455q0 -7 -7 -7h-21q-7 0 -7 7v455h-255v-455q0 -7 -7 -7h-21q-7 0 -7 7v455h-95q-7 0 -7 6v8q0 3 0.5 4t3 1.5t9.5 1.5l89 8v64q0 90 27.5 121.5t103.5 31.5h48q7 0 7 -7v-18q0 -6 -7 -6h-43 q-63 0 -82 -22t-19 -95v-67h255v62q0 90 27.5 121.5t103.5 31.5h48q7 0 7 -7v-18q0 -6 -7 -6h-43q-63 0 -82 -22t-19 -95v-67h236v145q0 7 7 7h21q7 0 7 -7v-145h136q7 0 7 -6v-18q0 -7 -7 -7h-136v-318q0 -72 19 -94t79 -22h40z" />
<glyph unicode="ft" horiz-adv-x="594" d="M560 28q7 0 7 -7v-18q0 -7 -7 -7h-42q-76 0 -103.5 29t-27.5 113v324h-237v-455q0 -7 -7 -7h-21q-7 0 -7 7v455h-95q-7 0 -7 6v8q0 3 0.5 4t3 1.5t9.5 1.5l89 8v64q0 90 27.5 121.5t103.5 31.5h48q7 0 7 -7v-18q0 -6 -7 -6h-43q-63 0 -82 -22t-19 -95v-67h237v145 q0 7 7 7h21q7 0 7 -7v-145h136q7 0 7 -6v-18q0 -7 -7 -7h-136v-318q0 -72 19 -94t79 -22h40z" />
<glyph unicode="&#xd;" horiz-adv-x="250" />
<glyph unicode=" "  horiz-adv-x="217" />
<glyph unicode="&#x09;" horiz-adv-x="217" />
<glyph unicode="&#xa0;" horiz-adv-x="217" />
<glyph unicode="!" horiz-adv-x="208" d="M98 171q-7 0 -7 7l-5 460q0 7 7 7h22q7 0 7 -7l-5 -460q0 -7 -7 -7h-12zM91 0q-6 0 -6 7v66q0 7 6 7h25q7 0 7 -7v-66q0 -7 -7 -7h-25z" />
<glyph unicode="&#x22;" horiz-adv-x="257" d="M62 452q-6 0 -6 6l-9 102v11v92q0 7 6 7h21q7 0 7 -7v-92q0 -7 -1 -11l-8 -102q-2 -6 -6 -6h-4zM192 452q-6 0 -6 6l-9 102v11v92q0 7 6 7h21q7 0 7 -7v-92q0 -7 -1 -11l-8 -102q-2 -6 -6 -6h-4z" />
<glyph unicode="#" horiz-adv-x="620" d="M547 410h-93l-27 -174h120q6 0 6 -6v-18q0 -6 -6 -6h-125l-31 -200q-1 -6 -7 -6h-20q-4 0 -6 1t-1 5l31 200h-192l-31 -200q-1 -6 -7 -6h-20q-4 0 -6 1t-1 5l31 200h-89q-6 0 -6 6v18q0 6 6 6h94l27 174h-121q-6 0 -6 6v18q0 6 6 6h125l31 199q1 6 7 6h20h4.5t2 -1.5 t0.5 -4.5l-31 -199h192l31 199q1 6 7 6h20h4.5t2 -1.5t0.5 -4.5l-31 -199h89q6 0 6 -6v-18q0 -6 -6 -6zM393 236l27 174h-192l-27 -174h192z" />
<glyph unicode="$" horiz-adv-x="542" d="M345 328q77 -17 104 -47.5t27 -99.5v-27q0 -85 -41 -122.5t-147 -39.5v-65q0 -7 -7 -7h-20q-7 0 -7 7v65q-106 2 -146.5 39t-40.5 123v29q0 6 7 6h21q7 0 7 -6v-29q0 -72 31.5 -100t120.5 -29v289l-59 13q-71 17 -97 47.5t-26 97.5v19q0 86 40 123t142 39v65q0 7 7 7h20 q7 0 7 -7v-65q103 -2 142.5 -39.5t39.5 -122.5v-29q0 -6 -6 -6h-22q-7 0 -7 6v29q0 72 -30.5 100t-116.5 29v-279zM212 358l42 -9v271q-85 -1 -116 -29t-31 -100v-19q0 -56 19.5 -77.5t85.5 -36.5zM441 154v27q0 57 -20.5 78.5t-92.5 37.5l-40 9v-281q90 1 121.5 29 t31.5 100z" />
<glyph unicode="%" horiz-adv-x="787" d="M168 297q-62 0 -91.5 29t-29.5 90v118q0 61 29.5 90t91.5 29h29q62 0 91.5 -29t29.5 -90v-118q0 -61 -29.5 -90t-91.5 -29h-29zM217 0q-9 0 -5 9l330 631q2 5 7 5h21q8 0 5 -7l-330 -633q-3 -5 -7 -5h-21zM168 327h29q47 0 68 20.5t21 68.5v118q0 48 -21 68.5t-68 20.5 h-29q-47 0 -68.5 -20.5t-21.5 -68.5v-118q0 -48 21.5 -68.5t68.5 -20.5zM590 -8q-62 0 -91.5 29t-29.5 90v118q0 61 29.5 90t91.5 29h29q62 0 91.5 -29t29.5 -90v-118q0 -61 -29.5 -90t-91.5 -29h-29zM590 22h29q47 0 68.5 20.5t21.5 68.5v118q0 48 -21.5 68.5t-68.5 20.5 h-29q-47 0 -68 -20.5t-21 -68.5v-118q0 -48 21 -68.5t68 -20.5z" />
<glyph unicode="&#x26;" horiz-adv-x="638" d="M600 8q4 -3 2.5 -5.5t-6.5 -2.5h-24q-6 0 -9 3l-74 71q-14 -44 -60 -63t-135 -19h-6q-121 0 -166 35.5t-45 121.5v45q0 73 29.5 104t108.5 35l-1 1q-57 55 -74.5 86t-17.5 78v4q0 82 39 116.5t136 34.5h6q97 0 136.5 -35t39.5 -119v-36q0 -7 -7 -7h-22q-6 0 -6 7v36 q0 70 -29.5 95.5t-111.5 25.5h-6q-82 0 -111 -25t-29 -93v-4q0 -40 13 -65.5t57 -66.5l241 -230q1 5 1 17v150q0 6 7 6h20q6 0 6 -6v-150q0 -29 -4 -48zM294 25q84 0 122 16.5t48 55.5l-224 212q-75 -1 -101.5 -25.5t-26.5 -89.5v-45q0 -71 35 -97.5t141 -26.5h6z" />
<glyph unicode="'" horiz-adv-x="127" d="M62 452q-6 0 -6 6l-9 102v11v92q0 7 6 7h21q7 0 7 -7v-92q0 -7 -1 -11l-8 -102q-2 -6 -6 -6h-4z" />
<glyph unicode="(" horiz-adv-x="231" d="M189 -128q-5 0 -9 4q-123 177 -123 414t123 414q4 4 9 4h20q9 0 4 -8q-121 -176 -121 -410t121 -410q5 -8 -4 -8h-20z" />
<glyph unicode=")" horiz-adv-x="231" d="M42 -128h-20q-9 0 -4 8q121 176 121 410t-121 410q-5 8 4 8h20q5 0 9 -4q123 -177 123 -414t-123 -414q-4 -4 -9 -4z" />
<glyph unicode="*" horiz-adv-x="462" d="M415 515q1 -7 -5 -9l-161 -46l104 -131q4 -6 -1 -9l-19 -14q-5 -4 -9 2l-93 139l-93 -139q-4 -5 -9 -1l-19 13q-5 4 -2 9l103 132l-160 45q-6 1 -4 8l7 23q1 6 9 4l157 -58l-7 167q0 7 6 7h24q6 0 6 -7l-7 -167l157 58q8 2 9 -4z" />
<glyph unicode="+" horiz-adv-x="500" d="M437 267q6 0 6 -7v-19q0 -7 -6 -7h-169v-181q0 -6 -7 -6h-22q-6 0 -6 6v181h-170q-6 0 -6 7v19q0 7 6 7h170v180q0 6 6 6h22q7 0 7 -6v-180h169z" />
<glyph unicode="," horiz-adv-x="128" d="M53 -125q-6 0 -6 7v191q0 7 6 7h22q6 0 6 -7v-68q0 -6 -1 -15l-14 -109q0 -6 -7 -6h-6z" />
<glyph unicode="-" horiz-adv-x="337" d="M35 268q-7 0 -7 7v19q0 7 7 7h267q6 0 6 -7v-19q0 -7 -6 -7h-267z" />
<glyph unicode="." horiz-adv-x="131" d="M53 0q-6 0 -6 7v66q0 7 6 7h25q7 0 7 -7v-66q0 -7 -7 -7h-25z" />
<glyph unicode="/" horiz-adv-x="356" d="M25 -72q-8 0 -6 6l284 761q1 5 7 5h21q8 0 6 -6l-284 -761q-3 -5 -8 -5h-20z" />
<glyph unicode="0" horiz-adv-x="583" d="M85 156v333q0 91 44 127.5t160 36.5h6q116 0 159.5 -36.5t43.5 -127.5v-333q0 -91 -43.5 -127.5t-159.5 -36.5h-6q-116 0 -160 36.5t-44 127.5zM120 156q0 -75 34.5 -103t134.5 -28h6q99 0 133.5 28t34.5 103v333q0 75 -34.5 103t-133.5 28h-6q-100 0 -134.5 -28 t-34.5 -103v-333z" />
<glyph unicode="1" horiz-adv-x="438" d="M383 33q7 0 7 -7v-19q0 -7 -7 -7h-323q-7 0 -7 7v19q0 7 7 7h156v577l-135 -70q-9 -4 -9 4v21q0 4 6 8l134 70q4 2 9 2h24q6 0 6 -7v-605h132z" />
<glyph unicode="2" horiz-adv-x="547" d="M220 272q-67 -15 -86 -36t-19 -78v-125h350q7 0 7 -7v-19q0 -7 -7 -7h-378q-7 0 -7 7v155q0 67 26.5 96t101.5 46l124 28q66 15 85.5 37t19.5 77v51q0 71 -32.5 97t-123.5 26h-6q-91 0 -123.5 -26.5t-32.5 -97.5v-40q0 -7 -6 -7h-22q-7 0 -7 7v40q0 85 41.5 121t149.5 36 h6q108 0 149.5 -35.5t41.5 -120.5v-51q0 -68 -26.5 -98.5t-101.5 -47.5z" />
<glyph unicode="3" horiz-adv-x="552" d="M368 328q59 -8 81.5 -37t22.5 -91v-51q0 -86 -42.5 -121.5t-153.5 -35.5h-6q-110 0 -152.5 35.5t-42.5 121.5v30q0 7 7 7h21q7 0 7 -7v-30q0 -71 32.5 -97.5t127.5 -26.5h6q95 0 128 26.5t33 97.5v51q0 66 -31 88.5t-130 22.5h-63q-7 0 -7 7v19q0 7 7 7h57q99 0 130 22.5 t31 88.5v41q0 72 -31.5 98t-123.5 26h-6q-92 0 -123.5 -26t-31.5 -98v-40q0 -7 -6 -7h-22q-7 0 -7 7v40q0 87 41.5 122t148.5 35h6q107 0 148.5 -35t41.5 -122v-41q0 -61 -21 -89.5t-77 -37.5z" />
<glyph unicode="4" horiz-adv-x="523" d="M474 199q7 0 7 -7v-18q0 -7 -7 -7h-72v-160q0 -7 -7 -7h-21q-7 0 -7 7v160h-319q-6 0 -6 7v21q0 4 3 8l319 438q3 4 8 4h23q7 0 7 -7v-439h72zM80 199h287v393z" />
<glyph unicode="5" horiz-adv-x="544" d="M281 370q107 0 147.5 -36t40.5 -128v-50q0 -91 -42 -127.5t-150 -36.5h-6q-108 0 -149.5 36.5t-41.5 127.5v23q0 7 7 7h21q7 0 7 -7v-23q0 -76 32.5 -103.5t123.5 -27.5h6q92 0 124.5 27.5t32.5 103.5v50q0 77 -31 104t-122 27h-164q-4 0 -9 4l-11 9q-3 2 -3 9v279 q0 7 7 7h346q6 0 6 -7v-19q0 -7 -6 -7h-318v-242h152z" />
<glyph unicode="6" horiz-adv-x="572" d="M291 371q114 0 157.5 -36.5t43.5 -127.5v-51q0 -91 -43.5 -127.5t-157.5 -36.5h-6q-113 0 -156.5 36.5t-43.5 127.5v333q0 90 43 127t154 37h6q111 0 153.5 -36.5t42.5 -127.5v-33q0 -7 -6 -7h-22q-7 0 -7 7v33q0 75 -33.5 103t-127.5 28h-6q-95 0 -128.5 -28t-33.5 -103 v-187q15 38 53 53.5t112 15.5h6zM457 156v51q0 75 -34.5 103t-131.5 28h-6q-97 0 -131 -28t-34 -103v-51q0 -75 34 -103t131 -28h6q97 0 131.5 28t34.5 103z" />
<glyph unicode="7" horiz-adv-x="432" d="M402 645q7 0 7 -7v-21q0 -6 -2 -10l-257 -600q-3 -7 -9 -7h-22q-8 0 -6 8l260 604h-326q-7 0 -7 7v19q0 7 7 7h355z" />
<glyph unicode="8" horiz-adv-x="578" d="M386 329q62 -10 87 -43t25 -98v-39q0 -86 -44.5 -121.5t-161.5 -35.5h-6q-117 0 -161.5 35.5t-44.5 121.5v39q0 65 25 98t87 43q-57 12 -79.5 44t-22.5 95v30q0 84 43 119.5t153 35.5h6q110 0 153 -35.5t43 -119.5v-30q0 -63 -22.5 -95t-79.5 -44zM125 468 q0 -70 33.5 -96.5t127.5 -26.5h6q94 0 127.5 26.5t33.5 96.5v30q0 69 -33.5 95.5t-127.5 26.5h-6q-94 0 -127.5 -26.5t-33.5 -95.5v-30zM463 149v39q0 71 -35 97.5t-136 26.5h-6q-101 0 -136 -26.5t-35 -97.5v-39q0 -71 35 -97.5t136 -26.5h6q101 0 136 26.5t35 97.5z" />
<glyph unicode="9" horiz-adv-x="571" d="M286 653q113 0 156.5 -36.5t43.5 -127.5v-333q0 -90 -43 -127t-153 -37h-6q-111 0 -154 37t-43 127v23q0 7 7 7h22q6 0 6 -7v-23q0 -75 34 -103t128 -28h6q94 0 127.5 28t33.5 103v182q-15 -38 -53 -53.5t-112 -15.5h-6q-113 0 -156.5 36.5t-43.5 127.5v56 q0 91 43.5 127.5t156.5 36.5h6zM286 301q97 0 131 28t34 104v56q0 75 -34 103t-131 28h-6q-97 0 -131 -28t-34 -103v-56q0 -76 34 -104t131 -28h6z" />
<glyph unicode=":" horiz-adv-x="151" d="M63 413q-6 0 -6 7v66q0 7 6 7h25q7 0 7 -7v-66q0 -7 -7 -7h-25zM63 0q-6 0 -6 7v66q0 7 6 7h25q7 0 7 -7v-66q0 -7 -7 -7h-25z" />
<glyph unicode=";" horiz-adv-x="151" d="M63 413q-6 0 -6 7v66q0 7 6 7h25q7 0 7 -7v-66q0 -7 -7 -7h-25zM63 -125q-6 0 -6 7v191q0 7 6 7h22q6 0 6 -7v-68q0 -6 -1 -15l-14 -109q0 -6 -7 -6h-6z" />
<glyph unicode="&#x3c;" horiz-adv-x="500" d="M433 396q0 -6 -5 -8l-323 -139l323 -140q5 -3 5 -8v-20q0 -9 -7 -5l-354 152q-5 2 -5 8v25q0 6 5 8l354 152q7 3 7 -5v-20z" />
<glyph unicode="=" horiz-adv-x="500" d="M63 329q-6 0 -6 7v19q0 7 6 7h374q6 0 6 -7v-19q0 -7 -6 -7h-374zM63 139q-6 0 -6 6v20q0 6 6 6h374q6 0 6 -6v-20q0 -6 -6 -6h-374z" />
<glyph unicode="&#x3e;" horiz-adv-x="500" d="M428 269q5 -2 5 -8v-25q0 -6 -5 -8l-354 -152q-7 -4 -7 5v20q0 5 5 8l323 140l-323 139q-5 2 -5 8v20q0 8 7 5z" />
<glyph unicode="?" horiz-adv-x="431" d="M53 449q-6 0 -6 7v33q0 91 37 127.5t133 36.5h6q96 0 133.5 -34.5t37.5 -118.5v-14q0 -66 -19.5 -95t-75.5 -47l-43 -14q-47 -15 -60 -36t-13 -82v-34q0 -7 -6 -7h-22q-6 0 -6 7v34q0 72 18.5 101t75.5 47l44 14q46 14 59.5 35t13.5 77v14q0 70 -28 95t-109 25h-6 q-81 0 -108.5 -26.5t-27.5 -104.5v-33q0 -7 -6 -7h-22zM153 0q-6 0 -6 7v66q0 7 6 7h25q7 0 7 -7v-66q0 -7 -7 -7h-25z" />
<glyph unicode="@" horiz-adv-x="775" d="M394 603q80 0 131.5 -6t87.5 -20t54 -41t25.5 -63t7.5 -94v-231q0 -56 -22.5 -80.5t-72.5 -24.5h-10q-67 0 -86 47q-71 -47 -152 -47q-123 0 -123 110v13q0 50 28 73.5t92 23.5h147v82q0 47 -21.5 64.5t-85.5 17.5h-6q-63 0 -85 -17.5t-22 -64.5v-14q0 -6 -6 -6h-19 q-7 0 -7 6v14q0 61 31 87t108 26h6q78 0 108.5 -25.5t30.5 -87.5v-191q0 -49 13 -65.5t49 -16.5h10q36 0 49 16.5t13 65.5v225q0 66 -8.5 100.5t-39.5 57.5t-81.5 29.5t-143.5 6.5h-13q-93 0 -143.5 -6.5t-81.5 -29.5t-39.5 -57.5t-8.5 -100.5v-262q0 -50 6 -80t21 -53.5 t47.5 -34.5t78.5 -16t120 -5h147q6 0 6 -7v-17q0 -7 -6 -7h-147q-132 0 -196 19.5t-87 64t-23 136.5v262q0 58 7.5 94t25.5 63t54 41t87.5 20t131.5 6h13zM361 73q79 0 142 41q-2 20 -2 34v88h-149q-47 0 -66.5 -16.5t-19.5 -53.5v-13q0 -43 22.5 -61.5t72.5 -18.5z" />
<glyph unicode="A" horiz-adv-x="518" d="M498 7q3 -7 -6 -7h-23q-6 0 -8 6l-61 176h-282l-62 -178q-1 -4 -7 -4h-23q-9 0 -6 7l220 632q2 6 8 6h22q6 0 8 -6zM129 215h259l-68 197q-36 99 -61 187q-25 -88 -61 -187z" />
<glyph unicode="B" horiz-adv-x="555" d="M390 330q58 -8 82.5 -38.5t24.5 -92.5v-54q0 -76 -38 -110.5t-126 -34.5h-236q-7 0 -7 7v631q0 7 7 7h212q88 0 126.5 -34.5t38.5 -110.5v-43q0 -55 -19.5 -85t-64.5 -42zM298 612h-173v-268h173q80 0 110.5 24t30.5 89v43q0 65 -30.5 88.5t-110.5 23.5zM462 145v54 q0 65 -30.5 89t-109.5 24h-197v-279h197q79 0 109.5 23.5t30.5 88.5z" />
<glyph unicode="C" horiz-adv-x="559" d="M287 -8q-118 0 -162.5 36.5t-44.5 127.5v333q0 91 44.5 127.5t162.5 36.5h6q118 0 162 -36.5t44 -127.5v-37q0 -6 -6 -6h-22q-7 0 -7 6v37q0 75 -35 103t-136 28h-6q-102 0 -137 -27.5t-35 -103.5v-333q0 -76 35 -103.5t137 -27.5h6q101 0 136 28t35 103v37q0 6 7 6h22 q6 0 6 -6v-37q0 -91 -44 -127.5t-162 -36.5h-6z" />
<glyph unicode="D" horiz-adv-x="579" d="M311 645q102 0 145 -35t43 -114v-347q0 -79 -43 -114t-145 -35h-214q-7 0 -7 7v631q0 7 7 7h214zM464 149v347q0 66 -35 91t-129 25h-175v-579h175q94 0 129 25t35 91z" />
<glyph unicode="E" horiz-adv-x="488" d="M433 612h-308v-268h278q7 0 7 -7v-19q0 -7 -7 -7h-278v-278h308q7 0 7 -7v-19q0 -7 -7 -7h-336q-7 0 -7 7v631q0 7 7 7h336q7 0 7 -7v-19q0 -7 -7 -7z" />
<glyph unicode="F" horiz-adv-x="462" d="M424 645q6 0 6 -7v-19q0 -7 -6 -7h-299v-278h279q6 0 6 -7v-19q0 -7 -6 -7h-279v-294q0 -7 -7 -7h-21q-7 0 -7 7v631q0 7 7 7h327z" />
<glyph unicode="G" horiz-adv-x="581" d="M478 466q-7 0 -7 6v17q0 76 -35.5 103.5t-139.5 27.5h-6q-104 0 -139.5 -27.5t-35.5 -103.5v-333q0 -76 35.5 -103.5t139.5 -27.5h6q104 0 139.5 27.5t35.5 103.5v128h-151q-6 0 -6 6v20q0 6 6 6h179q7 0 7 -6v-154q0 -91 -45 -127.5t-165 -36.5h-6q-120 0 -165 36.5 t-45 127.5v333q0 91 45 127.5t165 36.5h6q120 0 165 -36.5t45 -127.5v-17q0 -6 -7 -6h-21z" />
<glyph unicode="H" horiz-adv-x="599" d="M502 645q7 0 7 -7v-631q0 -7 -7 -7h-22q-6 0 -6 7v302h-349v-302q0 -7 -7 -7h-21q-7 0 -7 7v631q0 7 7 7h21q7 0 7 -7v-296h349v296q0 7 6 7h22z" />
<glyph unicode="I" horiz-adv-x="215" d="M97 0q-7 0 -7 7v631q0 7 7 7h21q7 0 7 -7v-631q0 -7 -7 -7h-21z" />
<glyph unicode="J" horiz-adv-x="491" d="M216 -8q-103 0 -143.5 37t-40.5 127v23q0 7 6 7h22q7 0 7 -7v-23q0 -75 31.5 -103t117.5 -28h6q85 0 117 28.5t32 102.5v482q0 7 6 7h22q7 0 7 -7v-482q0 -90 -41 -127t-143 -37h-6z" />
<glyph unicode="K" horiz-adv-x="537" d="M511 8q5 -8 -5 -8h-26q-5 0 -9 6l-199 344l-147 -182v-161q0 -7 -7 -7h-21q-7 0 -7 7v631q0 7 7 7h21q7 0 7 -7v-419l335 421q4 5 9 5h28q10 0 4 -7l-205 -258z" />
<glyph unicode="L" horiz-adv-x="445" d="M410 33q7 0 7 -7v-19q0 -7 -7 -7h-313q-7 0 -7 7v631q0 7 7 7h21q7 0 7 -7v-605h285z" />
<glyph unicode="M" horiz-adv-x="729" d="M632 645q7 0 7 -7v-631q0 -7 -7 -7h-21q-7 0 -7 7v376q0 131 3 207q-27 -63 -99 -207l-129 -253q-3 -5 -7 -5h-15q-5 0 -8 5l-128 253q-56 107 -99 206q3 -76 3 -206v-376q0 -7 -7 -7h-21q-7 0 -7 7v631q0 7 7 7h25q6 0 8 -5l162 -322q40 -75 72 -154q32 76 72 154 l163 322q3 5 8 5h25z" />
<glyph unicode="N" horiz-adv-x="627" d="M530 645q7 0 7 -7v-631q0 -7 -7 -7h-24q-6 0 -9 6l-256 397q-72 112 -119 195q3 -71 3 -195v-396q0 -7 -7 -7h-21q-7 0 -7 7v631q0 7 7 7h24q6 0 9 -6l256 -397q88 -139 119 -195q-3 71 -3 195v396q0 7 6 7h22z" />
<glyph unicode="O" horiz-adv-x="591" d="M80 156v333q0 91 45 127.5t167 36.5h6q122 0 167.5 -36.5t45.5 -127.5v-333q0 -91 -45.5 -127.5t-167.5 -36.5h-6q-122 0 -167 36.5t-45 127.5zM115 156q0 -76 36 -103.5t141 -27.5h6q106 0 142 27.5t36 103.5v333q0 76 -36 103.5t-142 27.5h-6q-105 0 -141 -27.5 t-36 -103.5v-333z" />
<glyph unicode="P" horiz-adv-x="515" d="M300 645q96 0 137 -35t41 -114v-101q0 -79 -41 -114t-137 -35h-175v-239q0 -7 -7 -7h-21q-7 0 -7 7v631q0 7 7 7h203zM443 395v101q0 66 -33 91t-121 25h-164v-333h164q87 0 120.5 25.5t33.5 90.5z" />
<glyph unicode="Q" horiz-adv-x="591" d="M298 653q122 0 167.5 -36.5t45.5 -127.5v-333q0 -88 -42 -125t-153 -39l101 -135q4 -5 -1 -9l-16 -12q-5 -4 -9 1l-114 155q-113 2 -155 39t-42 125v333q0 91 45 127.5t167 36.5h6zM476 156v333q0 76 -36 103.5t-142 27.5h-6q-105 0 -141 -27.5t-36 -103.5v-333 q0 -76 36 -103.5t141 -27.5h6q106 0 142 27.5t36 103.5z" />
<glyph unicode="R" horiz-adv-x="545" d="M485 9q4 -9 -5 -9h-24q-6 0 -8 5l-130 255h-19h-174v-253q0 -7 -7 -7h-21q-7 0 -7 7v631q0 7 7 7h202q96 0 137.5 -35t41.5 -114v-87q0 -67 -29 -102t-95 -44zM289 293q88 0 121 24.5t33 91.5v87q0 67 -33 91.5t-121 24.5h-164v-319h164z" />
<glyph unicode="S" horiz-adv-x="509" d="M50 154v29q0 6 7 6h21q7 0 7 -6v-29q0 -75 34 -102t132 -27h6q99 0 133 27t34 102v27q0 57 -20.5 78.5t-92.5 37.5l-133 30q-71 17 -97 47.5t-26 97.5v19q0 89 42.5 125.5t153.5 36.5h6q111 0 153.5 -37t42.5 -125v-29q0 -6 -6 -6h-22q-7 0 -7 6v29q0 75 -33 102t-128 27 h-6q-94 0 -127.5 -27t-33.5 -102v-19q0 -56 19.5 -77.5t85.5 -36.5l133 -30q77 -17 104 -47.5t27 -99.5v-27q0 -88 -43.5 -125t-158.5 -37h-6q-114 0 -157.5 37t-43.5 125z" />
<glyph unicode="T" horiz-adv-x="455" d="M429 645q7 0 7 -7v-19q0 -7 -7 -7h-184v-605q0 -7 -7 -7h-21q-7 0 -7 7v605h-184q-7 0 -7 7v19q0 7 7 7h403z" />
<glyph unicode="U" horiz-adv-x="589" d="M85 156v482q0 7 7 7h21q7 0 7 -7v-482q0 -75 35 -103t136 -28h6q101 0 136.5 28t35.5 103v482q0 7 6 7h22q7 0 7 -7v-482q0 -91 -44.5 -127.5t-162.5 -36.5h-6q-117 0 -161.5 36.5t-44.5 127.5z" />
<glyph unicode="V" horiz-adv-x="517" d="M491 645q8 0 6 -7l-218 -631q-2 -7 -8 -7h-25q-6 0 -8 7l-218 631q-2 7 5 7h24q6 0 8 -6l139 -403q35 -102 63 -197q21 75 63 197l139 403q2 6 7 6h23z" />
<glyph unicode="W" horiz-adv-x="809" d="M778 645q7 0 6 -8l-179 -630q-2 -7 -7 -7h-24q-6 0 -8 7l-113 399q-36 131 -48 187q-19 -86 -49 -187l-113 -399q-2 -7 -7 -7h-24q-6 0 -8 7l-178 630q-3 8 5 8h24q6 0 8 -7l109 -386q42 -152 52 -197q16 68 51 197l110 386q1 7 7 7h25q6 0 8 -7l109 -386 q42 -152 52 -197q16 68 51 197l110 386q1 7 7 7h24z" />
<glyph unicode="X" horiz-adv-x="477" d="M451 7q3 -7 -5 -7h-25q-5 0 -9 5l-174 286l-174 -286q-2 -5 -8 -5h-26q-8 0 -5 7l195 319l-192 312q-4 7 5 7h25q6 0 9 -5l171 -280l171 280q4 5 9 5h25q9 0 5 -7l-192 -313z" />
<glyph unicode="Y" horiz-adv-x="466" d="M451 645q8 0 6 -6l-207 -397v-235q0 -7 -6 -7h-22q-7 0 -7 7v239l-205 393q-4 6 5 6h23q6 0 8 -5l111 -212q41 -75 76 -158q32 74 77 158l110 212q2 5 8 5h23z" />
<glyph unicode="Z" horiz-adv-x="439" d="M404 33q7 0 7 -7v-19q0 -7 -7 -7h-369q-7 0 -7 7v18q0 3 3 9l274 478q32 59 62 100h-323q-7 0 -7 7v19q0 7 7 7h351q7 0 7 -7v-18q0 -5 -3 -9l-275 -481q-35 -62 -60 -97h340z" />
<glyph unicode="[" horiz-adv-x="265" d="M237 677h-113v-774h113q7 0 7 -7v-17q0 -7 -7 -7h-140q-7 0 -7 7v822q0 7 7 7h140q7 0 7 -7v-17q0 -7 -7 -7z" />
<glyph unicode="\" horiz-adv-x="356" d="M331 -72h-20q-5 0 -8 5l-284 761q-2 6 6 6h21q6 0 7 -5l284 -761q2 -6 -6 -6z" />
<glyph unicode="]" horiz-adv-x="265" d="M168 708q7 0 7 -7v-822q0 -7 -7 -7h-140q-7 0 -7 7v17q0 7 7 7h113v774h-113q-7 0 -7 7v17q0 7 7 7h140z" />
<glyph unicode="^" horiz-adv-x="421" d="M378 439q6 -9 -4 -9h-23q-6 0 -9 5l-131 180l-132 -180q-3 -5 -9 -5h-23q-10 0 -5 7l151 204q4 4 9 4h17q5 0 9 -4z" />
<glyph unicode="_" horiz-adv-x="347" d="M7 -81q-7 0 -7 7v19q0 7 7 7h333q7 0 7 -7v-19q0 -7 -7 -7h-333z" />
<glyph unicode="`" horiz-adv-x="530" d="M271 564q-4 0 -8 4l-101 95q-3 3 -1.5 5.5t5.5 2.5h29q4 0 8 -4l94 -94q9 -9 -3 -9h-23z" />
<glyph unicode="a" horiz-adv-x="516" d="M259 501q98 0 137.5 -35.5t39.5 -119.5v-339q0 -7 -6 -7h-12q-4 0 -6 5l-11 33q-86 -46 -182 -46q-82 0 -120.5 33t-38.5 102v13q0 68 35 97t120 29h186v80q0 69 -30 96t-112 27h-6q-82 0 -112 -26.5t-30 -95.5v-3q0 -7 -6 -7h-22q-6 0 -6 7v3q0 84 39 119t137 35h6z M95 127q0 -56 29 -79.5t99 -23.5q95 0 178 43v168h-189q-67 0 -92 -21t-25 -74v-13z" />
<glyph unicode="b" horiz-adv-x="531" d="M302 501q83 0 118.5 -38.5t35.5 -123.5v-184q0 -86 -35.5 -124.5t-118.5 -38.5q-96 0 -182 46l-11 -33q-3 -5 -7 -5h-11q-6 0 -6 7v686q0 7 7 7h21q7 0 7 -7v-237q87 45 182 45zM421 332q0 77 -27 107t-97 30q-89 0 -177 -42v-360q85 -42 177 -42q70 0 97 29.5t27 107.5 v170z" />
<glyph unicode="c" horiz-adv-x="506" d="M75 149v195q0 86 40 121.5t141 35.5h6q101 0 141 -35.5t40 -121.5v-8q0 -7 -6 -7h-22q-6 0 -6 7v8q0 71 -30.5 98t-116.5 27h-6q-85 0 -115.5 -27t-30.5 -98v-195q0 -71 30.5 -97.5t115.5 -26.5h6q86 0 116.5 26.5t30.5 97.5v9q0 6 6 6h22q6 0 6 -6v-9q0 -86 -40 -121.5 t-141 -35.5h-6q-101 0 -141 35.5t-40 121.5z" />
<glyph unicode="d" horiz-adv-x="531" d="M439 700q7 0 7 -7v-686q0 -7 -6 -7h-12q-4 0 -6 5l-11 33q-88 -46 -183 -46q-82 0 -117.5 38.5t-35.5 124.5v184q0 86 35.5 124t117.5 38q94 0 183 -45v237q0 7 6 7h22zM110 162q0 -78 27 -107.5t97 -29.5q90 0 177 42v359q-89 43 -177 43q-70 0 -97 -30t-27 -107v-170z " />
<glyph unicode="e" horiz-adv-x="521" d="M444 247h-334v-98q0 -71 31 -97.5t119 -26.5h6q88 0 119 26.5t31 97.5v4q0 6 7 6h21q7 0 7 -6v-4q0 -86 -40.5 -121.5t-144.5 -35.5h-6q-104 0 -144.5 35.5t-40.5 121.5v195q0 86 40.5 121.5t144.5 35.5h6q104 0 144.5 -35.5t40.5 -121.5v-90q0 -7 -7 -7zM260 469 q-88 0 -119 -27t-31 -98v-65h306v65q0 71 -31 98t-119 27h-6z" />
<glyph unicode="f" horiz-adv-x="301" d="M294 708q7 0 7 -7v-18q0 -6 -7 -6h-43q-63 0 -82 -22t-19 -95v-67h140q7 0 7 -6v-18q0 -7 -7 -7h-140v-455q0 -7 -7 -7h-21q-7 0 -7 7v455h-95q-7 0 -7 6v8q0 3 0.5 4t3 1.5t9.5 1.5l89 8v64q0 90 27.5 121.5t103.5 31.5h48z" />
<glyph unicode="g" horiz-adv-x="507" d="M475 486q0 -6 -6 -7l-101 -5q42 -10 57 -36.5t15 -83.5v-47q0 -85 -37.5 -116t-144.5 -31h-6q-58 0 -96 9q-53 -12 -53 -69v-10q0 -29 17 -41t64 -12h164q71 0 99 -25t28 -87v-21q0 -65 -41 -88.5t-167 -23.5h-7q-125 0 -166 23.5t-41 88.5v14q0 81 51 102q-35 20 -35 68 v11q0 62 55 81q-55 28 -55 127v47q0 85 38 116t145 31h216q7 0 7 -6v-9zM406 354q0 70 -28 92.5t-120 22.5h-6q-92 0 -120.5 -22.5t-28.5 -92.5v-47q0 -70 28.5 -92.5t120.5 -22.5h6q92 0 120 22.5t28 92.5v47zM336 5h-156q-26 0 -49 5q-24 -10 -33.5 -30t-9.5 -59v-17 q0 -34 12 -50t48 -23t112 -7h7q77 0 113.5 7t48.5 23t12 50v21q0 50 -19 65t-86 15z" />
<glyph unicode="h" horiz-adv-x="534" d="M300 501q83 0 118.5 -38.5t35.5 -123.5v-332q0 -7 -7 -7h-22q-6 0 -6 7v325q0 77 -27 107t-97 30q-90 0 -175 -41v-421q0 -7 -7 -7h-21q-7 0 -7 7v686q0 7 7 7h21q7 0 7 -7v-238q86 46 180 46z" />
<glyph unicode="i" horiz-adv-x="206" d="M92 586q-7 0 -7 7v71q0 7 7 7h23q6 0 6 -7v-71q0 -7 -6 -7h-23zM92 0q-6 0 -6 7v480q0 6 6 6h22q7 0 7 -6v-480q0 -7 -7 -7h-22z" />
<glyph unicode="j" horiz-adv-x="206" d="M91 586q-7 0 -7 7v71q0 7 7 7h23q7 0 7 -7v-71q0 -7 -7 -7h-23zM-25 -208q-6 0 -6 7v18q0 7 6 7h13q60 0 78.5 22t18.5 95v546q0 6 7 6h21q7 0 7 -6v-552q0 -84 -27 -113.5t-103 -29.5h-15z" />
<glyph unicode="k" horiz-adv-x="466" d="M443 7q4 -7 -5 -7h-27q-4 0 -8 5l-157 268l-126 -140v-126q0 -7 -7 -7h-21q-7 0 -7 7v686q0 7 7 7h21q7 0 7 -7v-514l275 311q4 3 8 3h29q9 0 2 -8l-164 -185z" />
<glyph unicode="l" horiz-adv-x="205" d="M92 0q-7 0 -7 7v686q0 7 7 7h21q7 0 7 -7v-686q0 -7 -7 -7h-21z" />
<glyph unicode="m" horiz-adv-x="822" d="M592 501q80 0 115 -38.5t35 -123.5v-332q0 -7 -7 -7h-21q-7 0 -7 7v325q0 77 -26.5 107t-94.5 30q-88 0 -164 -46q12 -35 12 -84v-332q0 -7 -7 -7h-22q-6 0 -6 7v325q0 77 -27 107t-95 30q-86 0 -157 -42v-420q0 -7 -7 -7h-21q-7 0 -7 7v480q0 6 5 6h12q5 0 7 -5l11 -32 q77 45 163 45q95 0 128 -55q82 55 181 55z" />
<glyph unicode="n" horiz-adv-x="534" d="M300 501q83 0 118.5 -38.5t35.5 -123.5v-332q0 -7 -7 -7h-22q-6 0 -6 7v325q0 77 -27 107t-97 30q-90 0 -175 -41v-421q0 -7 -7 -7h-21q-7 0 -7 7v480q0 6 5 6h12q5 0 7 -5l10 -31q88 44 181 44z" />
<glyph unicode="o" d="M75 149v195q0 86 41 121.5t145 35.5h6q105 0 146 -35.5t41 -121.5v-195q0 -86 -41 -121.5t-146 -35.5h-6q-104 0 -145 35.5t-41 121.5zM110 149q0 -71 31 -97.5t120 -26.5h6q89 0 120.5 26.5t31.5 97.5v195q0 71 -31.5 98t-120.5 27h-6q-88 0 -119.5 -27t-31.5 -98v-195z " />
<glyph unicode="p" horiz-adv-x="531" d="M302 501q83 0 118.5 -38.5t35.5 -123.5v-184q0 -86 -35.5 -124.5t-118.5 -38.5q-96 0 -182 46v-231q0 -7 -7 -7h-21q-7 0 -7 7v680q0 6 6 6h11q5 0 7 -5l11 -32q87 45 182 45zM421 332q0 77 -27 107t-97 30q-89 0 -177 -42v-360q85 -42 177 -42q70 0 97 29.5t27 107.5 v170z" />
<glyph unicode="q" horiz-adv-x="531" d="M440 493q6 0 6 -6v-680q0 -7 -7 -7h-22q-6 0 -6 7v231q-88 -46 -183 -46q-82 0 -117.5 38.5t-35.5 124.5v184q0 86 35.5 124t117.5 38q94 0 183 -45l11 32q2 5 7 5h11zM234 25q90 0 177 42v359q-89 43 -177 43q-70 0 -97 -30t-27 -107v-170q0 -78 27 -107.5t97 -29.5z " />
<glyph unicode="r" horiz-adv-x="309" d="M285 501q7 0 7 -6v-20q0 -6 -7 -6h-5q-105 0 -160 -69v-393q0 -7 -7 -7h-21q-7 0 -7 7v480q0 6 6 6h12q6 0 7 -8l9 -50q57 66 161 66h5z" />
<glyph unicode="s" horiz-adv-x="470" d="M55 115v38q0 6 7 6h21q7 0 7 -6v-38q0 -48 31.5 -69t111.5 -21h6q79 0 110 21t31 69v15q0 37 -15 54.5t-64 31.5l-138 40q-58 16 -79.5 40t-21.5 67v17q0 62 39 91.5t130 29.5h6q92 0 131.5 -29.5t39.5 -91.5v-39q0 -6 -7 -6h-21q-7 0 -7 6v39q0 48 -30 68.5t-106 20.5 h-6q-75 0 -104.5 -20.5t-29.5 -68.5v-17q0 -32 15.5 -47.5t66.5 -30.5l138 -39q55 -16 76.5 -42t21.5 -74v-15q0 -62 -40 -92.5t-136 -30.5h-6q-96 0 -137 30.5t-41 92.5z" />
<glyph unicode="t" horiz-adv-x="317" d="M282 28q7 0 7 -7v-18q0 -7 -7 -7h-42q-76 0 -103.5 29t-27.5 113v324h-90q-7 0 -7 7v8q0 5 8 6l89 8v147q0 7 7 7h21q7 0 7 -7v-145h136q7 0 7 -6v-18q0 -7 -7 -7h-136v-318q0 -72 19 -94t79 -22h40z" />
<glyph unicode="u" horiz-adv-x="530" d="M438 493q7 0 7 -6v-480q0 -7 -6 -7h-11q-5 0 -7 5l-11 33q-85 -46 -178 -46q-82 0 -117 38.5t-35 124.5v332q0 6 7 6h21q7 0 7 -6v-325q0 -78 27 -107.5t96 -29.5q91 0 172 42v420q0 6 6 6h22z" />
<glyph unicode="v" horiz-adv-x="443" d="M420 493q8 0 6 -6l-184 -482q-2 -5 -8 -5h-25q-6 0 -8 5l-184 482q-2 6 6 6h23q6 0 8 -5l98 -257q50 -130 70 -195q20 67 69 195l98 257q2 5 8 5h23z" />
<glyph unicode="w" horiz-adv-x="711" d="M682 493q8 0 6 -7l-154 -480q-2 -6 -7 -6h-27q-6 0 -8 6l-78 245q-45 148 -59 202q-18 -75 -59 -202l-77 -245q-2 -6 -8 -6h-27q-6 0 -8 6l-153 480q-2 7 5 7h23q6 0 8 -6l79 -249q40 -124 59 -201q17 64 59 200l79 250q2 6 8 6h25q5 0 7 -6l80 -250q35 -107 58 -200 q14 56 59 201l80 249q2 6 7 6h23z" />
<glyph unicode="x" horiz-adv-x="419" d="M396 9q7 -9 -4 -9h-24q-6 0 -8 4l-150 221l-150 -221q-3 -4 -9 -4h-24q-11 0 -4 9l166 242l-160 234q-6 8 4 8h24q6 0 9 -4l144 -211l143 211q3 4 9 4h24q10 0 4 -8l-160 -235z" />
<glyph unicode="y" horiz-adv-x="438" d="M419 493q8 0 6 -6l-262 -684q-2 -5 -8 -5h-23q-8 0 -6 6l74 195l-183 488q-2 6 6 6h23q6 0 8 -5l96 -257q53 -142 70 -197q19 62 70 198l98 256q2 5 8 5h23z" />
<glyph unicode="z" horiz-adv-x="402" d="M363 33q7 0 7 -7v-19q0 -7 -7 -7h-324q-6 0 -6 7v18q0 5 2 8l249 378q24 35 39 50h-274q-6 0 -6 6v20q0 6 6 6h304q7 0 7 -6v-19q0 -4 -3 -8l-250 -380q-17 -27 -37 -47h293z" />
<glyph unicode="{" horiz-adv-x="301" d="M168 421q0 -69 -15 -96.5t-61 -34.5q46 -7 61 -34.5t15 -96.5v-134q0 -75 19.5 -98.5t78.5 -23.5h6q7 0 7 -7v-17q0 -7 -7 -7h-6q-77 0 -104.5 30.5t-27.5 117.5v143q0 69 -18 90t-77 21h-1q-6 0 -6 7v18q0 7 6 7h1q59 0 77 21t18 90v143q0 87 27.5 117.5t104.5 30.5h6 q7 0 7 -7v-17q0 -7 -7 -7h-6q-59 0 -78.5 -23.5t-19.5 -98.5v-134z" />
<glyph unicode="|" horiz-adv-x="213" d="M97 -80q-7 0 -7 7v791q0 7 7 7h19q7 0 7 -7v-791q0 -7 -7 -7h-19z" />
<glyph unicode="}" horiz-adv-x="301" d="M263 306q6 0 6 -7v-18q0 -7 -6 -7h-1q-59 0 -77 -21t-18 -90v-143q0 -87 -27.5 -117.5t-104.5 -30.5h-6q-7 0 -7 7v17q0 7 7 7h6q59 0 78.5 23.5t19.5 98.5v134q0 69 15 96.5t61 34.5q-46 7 -61 34.5t-15 96.5v134q0 75 -19.5 98.5t-78.5 23.5h-6q-7 0 -7 7v17q0 7 7 7h6 q77 0 104.5 -30.5t27.5 -117.5v-143q0 -69 18 -90t77 -21h1z" />
<glyph unicode="~" horiz-adv-x="500" d="M348 197q-42 0 -101 38t-96 38t-86 -33q-8 -5 -8 5v17q0 5 4 8q50 35 93 35q39 0 98 -38t97 -38q39 0 86 33q8 5 8 -5v-16q0 -7 -6 -11q-45 -33 -89 -33z" />
<glyph unicode="&#xa1;" horiz-adv-x="208" d="M91 493h25q7 0 7 -7v-66q0 -7 -7 -7h-25q-6 0 -6 7v66q0 7 6 7zM98 322h12q7 0 7 -7l5 -460q0 -7 -7 -7h-22q-7 0 -7 7l5 460q0 7 7 7z" />
<glyph unicode="&#xa2;" horiz-adv-x="532" d="M427 405q-6 0 -6 7v8q0 68 -28.5 95.5t-105.5 29.5v-444q77 1 105.5 28.5t28.5 95.5v9q0 6 6 6h22q6 0 6 -6v-9q0 -83 -37 -119t-131 -38v-91q0 -7 -6 -7h-19q-7 0 -7 7v91q-93 2 -130.5 38t-37.5 119v195q0 83 37.5 119t130.5 38v91q0 7 7 7h19q6 0 6 -7v-91 q94 -2 131 -38t37 -119v-8q0 -7 -6 -7h-22zM122 225q0 -68 28 -95.5t105 -28.5v444q-77 -2 -105 -29.5t-28 -95.5v-195z" />
<glyph unicode="&#xa3;" horiz-adv-x="528" d="M465 174q6 0 6 -7v-10q0 -85 -40.5 -121t-136.5 -36h-241q-6 0 -6 7v19q0 7 6 7h60v268h-60q-6 0 -6 7v19q0 6 6 6h60v168q0 81 39.5 116.5t132.5 35.5h6q93 0 132 -36t39 -118v-43q0 -7 -6 -7h-22q-6 0 -6 7v43q0 67 -30.5 94t-106.5 27h-6q-76 0 -106.5 -27t-30.5 -94 v-166h218q6 0 6 -6v-19q0 -7 -6 -7h-218v-268h141q84 0 115.5 27t31.5 97v10q0 7 7 7h22z" />
<glyph unicode="&#xa4;" horiz-adv-x="542" d="M405 156l74 -111q6 -8 -5 -8h-22q-5 0 -8 4l-69 103q-34 -10 -92 -10h-24q-59 0 -93 10l-69 -103q-2 -4 -8 -4h-22q-10 0 -5 8l74 111q-50 28 -50 119v96q0 91 50 119l-74 110q-5 8 5 8h22q6 0 8 -4l68 -102q36 10 94 10h24q59 0 93 -10l68 102q3 4 8 4h22q11 0 5 -8 l-73 -110q50 -28 50 -119v-96q0 -92 -51 -119zM259 166h24q84 0 111.5 22.5t27.5 86.5v96q0 64 -27.5 86.5t-111.5 22.5h-24q-84 0 -111.5 -22.5t-27.5 -86.5v-96q0 -64 27.5 -86.5t111.5 -22.5z" />
<glyph unicode="&#xa5;" horiz-adv-x="483" d="M438 645q8 0 5 -8l-172 -367h132q6 0 6 -7v-17q0 -6 -6 -6h-144v-96h144q6 0 6 -6v-17q0 -7 -6 -7h-144v-107q0 -7 -6 -7h-22q-7 0 -7 7v107h-144q-6 0 -6 7v17q0 6 6 6h144v96h-144q-6 0 -6 6v17q0 7 6 7h132l-172 367q-3 8 5 8h24q5 0 8 -5l165 -360l164 360q2 5 8 5 h24z" />
<glyph unicode="&#xa6;" horiz-adv-x="213" d="M97 395q-7 0 -7 7v316q0 7 7 7h19q7 0 7 -7v-316q0 -7 -7 -7h-19zM97 -80q-7 0 -7 7v296q0 7 7 7h19q7 0 7 -7v-296q0 -7 -7 -7h-19z" />
<glyph unicode="&#xa7;" horiz-adv-x="491" d="M397 277q-7 0 -7 6v29q0 41 -18 57.5t-71 22.5l-127 17q-58 7 -82.5 33.5t-24.5 78.5v10q0 64 40 93t136 29h6q96 0 136 -29t40 -93v-25q0 -7 -7 -7h-21q-7 0 -7 7v25q0 50 -29 69.5t-112 19.5h-6q-83 0 -112 -19.5t-29 -69.5v-10q0 -41 17.5 -58t71.5 -24l127 -16 q60 -8 83.5 -32.5t23.5 -78.5v-29q0 -6 -7 -6h-21zM243 -8q-96 0 -136 29t-40 93v25q0 7 6 7h22q6 0 6 -7v-25q0 -50 29.5 -69.5t112.5 -19.5h6q82 0 111.5 19.5t29.5 69.5v10q0 41 -18 58t-72 24l-127 16q-60 8 -83 32.5t-23 78.5v29q0 6 6 6h22q6 0 6 -6v-29 q0 -41 18 -57.5t71 -22.5l127 -17q58 -7 83 -33.5t25 -78.5v-10q0 -64 -40 -93t-136 -29h-6z" />
<glyph unicode="&#xa8;" d="M184 586q-7 0 -7 7v71q0 7 7 7h23q7 0 7 -7v-71q0 -7 -7 -7h-23zM322 586q-7 0 -7 7v71q0 7 7 7h23q7 0 7 -7v-71q0 -7 -7 -7h-23z" />
<glyph unicode="&#xa9;" horiz-adv-x="699" d="M346 -8q-109 0 -166.5 17t-78.5 50.5t-21 96.5v333q0 63 21 96.5t78.5 50.5t166.5 17h6q110 0 167.5 -17t78.5 -50.5t21 -96.5v-333q0 -63 -21 -96.5t-78.5 -50.5t-167.5 -17h-6zM346 22h6q98 0 149 13.5t68.5 41t17.5 79.5v333q0 53 -17.5 80.5t-68.5 41t-149 13.5h-6 q-98 0 -149 -13.5t-68.5 -41t-17.5 -80.5v-333q0 -52 17.5 -79.5t68.5 -41t149 -13.5zM347 139q-70 0 -101 25.5t-31 80.5v156q0 55 31 80.5t101 25.5h5q71 0 102 -25.5t31 -80.5v-20q0 -7 -7 -7h-17q-7 0 -7 7v20q0 42 -22.5 59.5t-79.5 17.5h-5q-56 0 -78.5 -17.5 t-22.5 -59.5v-156q0 -42 22.5 -59.5t78.5 -17.5h5q57 0 79.5 17.5t22.5 59.5v13q0 7 7 7h17q7 0 7 -7v-13q0 -55 -31 -80.5t-102 -25.5h-5z" />
<glyph unicode="&#xab;" horiz-adv-x="444" d="M68 245l130 -172q4 -6 0 -10l-12 -11q-5 -5 -9 0l-147 188q-3 5 0 10l147 188q4 5 9 0l12 -12q3 -5 0 -9zM383 73q4 -6 0 -10l-12 -11q-5 -5 -9 0l-147 188q-3 5 0 10l147 188q4 5 9 0l12 -12q3 -5 0 -9l-130 -172z" />
<glyph unicode="&#xac;" horiz-adv-x="500" d="M437 309q6 0 6 -7v-159q0 -6 -6 -6h-22q-7 0 -7 6v133h-345q-6 0 -6 6v20q0 7 6 7h374z" />
<glyph unicode="&#xad;" horiz-adv-x="337" d="M35 268q-7 0 -7 7v19q0 7 7 7h267q6 0 6 -7v-19q0 -7 -6 -7h-267z" />
<glyph unicode="&#xae;" horiz-adv-x="699" d="M352 653q110 0 167.5 -17t78.5 -50.5t21 -96.5v-333q0 -63 -21 -96.5t-78.5 -50.5t-167.5 -17h-6q-109 0 -166.5 17t-78.5 50.5t-21 96.5v333q0 63 21 96.5t78.5 50.5t166.5 17h6zM587 156v333q0 53 -17.5 80.5t-68.5 41t-149 13.5h-6q-98 0 -149 -13.5t-68.5 -41 t-17.5 -80.5v-333q0 -52 17.5 -79.5t68.5 -41t149 -13.5h6q98 0 149 13.5t68.5 41t17.5 79.5zM364 498q61 0 88 -23.5t27 -74.5v-22q0 -81 -75 -94l72 -130q4 -7 -6 -7h-17q-5 0 -8 5l-71 129h-10h-103v-127q0 -7 -7 -7h-17q-7 0 -7 7v337q0 7 7 7h127zM448 378v22 q0 39 -17.5 54t-65.5 15h-104v-160h104q48 0 65.5 15t17.5 54z" />
<glyph unicode="&#xaf;" d="M168 586q-7 0 -7 7v17q0 7 7 7h193q7 0 7 -7v-17q0 -7 -7 -7h-193z" />
<glyph unicode="&#xb0;" horiz-adv-x="348" d="M161 398q-63 0 -88.5 24t-25.5 81v44q0 58 25.5 82t88.5 24h25q63 0 89 -24.5t26 -81.5v-44q0 -57 -26 -81t-89 -24h-25zM161 426h25q49 0 67 15.5t18 61.5v44q0 46 -18 62t-67 16h-25q-49 0 -66.5 -15.5t-17.5 -62.5v-44q0 -46 17.5 -61.5t66.5 -15.5z" />
<glyph unicode="&#xb1;" horiz-adv-x="500" d="M437 336q6 0 6 -6v-20q0 -6 -6 -6h-169v-155q0 -6 -7 -6h-22q-6 0 -6 6v155h-170q-6 0 -6 6v20q0 6 6 6h170v153q0 7 6 7h22q7 0 7 -7v-153h169zM437 33q6 0 6 -7v-19q0 -7 -6 -7h-374q-6 0 -6 7v19q0 7 6 7h374z" />
<glyph unicode="&#xb4;" d="M244 564q-5 0 -6.5 2.5t2.5 6.5l95 94q3 4 8 4h29q4 0 5.5 -2.5t-1.5 -5.5l-102 -95q-4 -4 -8 -4h-22z" />
<glyph unicode="&#xb6;" horiz-adv-x="593" d="M544 645q7 0 7 -7v-17q0 -6 -7 -6h-72v-608q0 -7 -7 -7h-21q-7 0 -7 7v608h-154v-608q0 -7 -7 -7h-22q-6 0 -6 7v291h-78q-68 0 -95.5 29.5t-27.5 98.5v92q0 68 27.5 97.5t95.5 29.5h374zM248 329v286h-78q-51 0 -71 -20.5t-20 -76.5v-92q0 -56 20 -76.5t71 -20.5h78z " />
<glyph unicode="&#xb7;" horiz-adv-x="131" d="M53 250q-6 0 -6 7v66q0 7 6 7h25q7 0 7 -7v-66q0 -7 -7 -7h-25z" />
<glyph unicode="&#xb8;" horiz-adv-x="530" d="M279 -77q38 0 54 -13.5t16 -43.5v-16q0 -31 -15.5 -44.5t-54.5 -13.5h-78q-6 0 -6 7v14q0 6 6 6h78q25 0 33 6.5t8 24.5v16q0 18 -8 24.5t-33 6.5h-77q-8 0 -6 7l20 105h28l-15 -86h50z" />
<glyph unicode="&#xbb;" horiz-adv-x="444" d="M82 438l147 -188q3 -5 0 -10l-147 -188q-4 -5 -9 0l-12 11q-4 4 0 10l130 172l-130 172q-3 4 0 9l12 12q5 5 9 0zM414 250q3 -5 0 -10l-147 -188q-4 -5 -9 0l-12 11q-4 4 0 10l130 172l-130 172q-3 4 0 9l12 12q5 5 9 0z" />
<glyph unicode="&#xbc;" horiz-adv-x="584" d="M230 329q0 -7 -7 -7h-166q-7 0 -7 7v15q0 7 7 7h72v263l-64 -33q-3 -1 -4.5 0.5t-1.5 5.5v16q0 5 4 7l61 33q4 2 10 2h19q7 0 7 -7v-287h63q7 0 7 -7v-15zM510 645q9 0 4 -8l-364 -631q-4 -6 -9 -6h-20q-9 0 -4 8l364 631q4 6 9 6h20zM527 105q7 0 7 -7v-13q0 -7 -7 -7 h-32v-71q0 -7 -7 -7h-17q-6 0 -6 7v71h-153q-7 0 -7 7v16q0 5 3 9l151 209q4 4 9 4h20q7 0 7 -7v-211h32zM339 105h126v174z" />
<glyph unicode="&#xbd;" horiz-adv-x="619" d="M230 329q0 -7 -7 -7h-166q-7 0 -7 7v15q0 7 7 7h72v263l-64 -33q-3 -1 -4.5 0.5t-1.5 5.5v16q0 5 4 7l61 33q4 2 10 2h19q7 0 7 -7v-287h63q7 0 7 -7v-15zM507 645q9 0 4 -8l-364 -631q-4 -6 -9 -6h-20q-9 0 -4 8l364 631q4 6 9 6h20zM440 129q-31 -7 -39 -15.5t-8 -34.5 v-50h170q6 0 6 -7v-15q0 -7 -6 -7h-194q-7 0 -7 7v73q0 34 14.5 50.5t52.5 24.5l62 15q30 7 38.5 17t8.5 35v23q0 31 -13.5 42t-56.5 11h-3q-43 0 -56 -10.5t-13 -42.5v-17q0 -6 -7 -6h-17q-7 0 -7 6v17q0 43 22.5 62.5t77.5 19.5h3q56 0 78.5 -19.5t22.5 -62.5v-23 q0 -35 -13.5 -52t-52.5 -26z" />
<glyph unicode="&#xbe;" horiz-adv-x="594" d="M156 323h-3q-58 0 -80.5 19.5t-22.5 63.5v13q0 6 7 6h17q7 0 7 -6v-13q0 -32 14 -43t58 -11h3q44 0 58 11t14 43v20q0 30 -13.5 40t-58.5 10h-33q-7 0 -7 7v14q0 7 7 7h31q43 0 56.5 10t13.5 40v16q0 33 -13 43.5t-55 10.5h-3q-42 0 -55.5 -11t-13.5 -43v-16q0 -6 -6 -6 h-18q-6 0 -6 6v16q0 44 22 63.5t77 19.5h3q55 0 77 -19.5t22 -63.5v-16q0 -31 -10 -45.5t-37 -18.5q29 -4 40 -18.5t11 -45.5v-20q0 -44 -23 -63.5t-80 -19.5zM521 645q9 0 4 -8l-364 -631q-4 -6 -9 -6h-20q-9 0 -4 8l364 631q4 6 9 6h20zM538 105q6 0 6 -7v-13q0 -7 -6 -7 h-33v-71q0 -7 -7 -7h-16q-7 0 -7 7v71h-153q-7 0 -7 7v16q0 3 3 9l152 209q3 4 8 4h20q7 0 7 -7v-211h33zM349 105h126v172z" />
<glyph unicode="&#xbf;" horiz-adv-x="421" d="M278 500q6 0 6 -7v-66q0 -7 -6 -7h-25q-7 0 -7 7v66q0 7 7 7h25zM378 51q6 0 6 -7v-33q0 -91 -37 -127.5t-133 -36.5h-6q-96 0 -133.5 34.5t-37.5 118.5v14q0 66 19.5 95t75.5 47l43 14q47 15 60 36t13 82v34q0 7 6 7h22q6 0 6 -7v-34q0 -72 -18.5 -101t-75.5 -47 l-44 -14q-46 -14 -59.5 -35t-13.5 -77v-14q0 -70 28 -95t109 -25h6q81 0 108.5 26.5t27.5 104.5v33q0 7 6 7h22z" />
<glyph unicode="&#xc0;" horiz-adv-x="518" d="M268 720l-101 95q-3 3 -1.5 5.5t5.5 2.5h29q4 0 8 -4l94 -94q9 -9 -3 -9h-23q-4 0 -8 4zM498 7q3 -7 -6 -7h-23q-6 0 -8 6l-61 176h-282l-62 -178q-1 -4 -7 -4h-23q-9 0 -6 7l220 632q2 6 8 6h22q6 0 8 -6zM129 215h259l-68 197q-36 99 -61 187q-25 -88 -61 -187z" />
<glyph unicode="&#xc1;" horiz-adv-x="518" d="M222 716q-5 0 -6.5 2.5t2.5 6.5l95 94q3 4 8 4h29q4 0 5.5 -2.5t-1.5 -5.5l-102 -95q-4 -4 -8 -4h-22zM498 7q3 -7 -6 -7h-23q-6 0 -8 6l-61 176h-282l-62 -178q-1 -4 -7 -4h-23q-9 0 -6 7l220 632q2 6 8 6h22q6 0 8 -6zM129 215h259l-68 197q-36 99 -61 187 q-25 -88 -61 -187z" />
<glyph unicode="&#xc2;" horiz-adv-x="518" d="M158 716q-4 0 -5.5 2.5t1.5 5.5l87 95q4 4 8 4h21q4 0 8 -4l87 -95q6 -8 -5 -8h-22q-4 0 -9 4l-70 80l-70 -80q-4 -4 -8 -4h-23zM498 7q3 -7 -6 -7h-23q-6 0 -8 6l-61 176h-282l-62 -178q-1 -4 -7 -4h-23q-9 0 -6 7l220 632q2 6 8 6h22q6 0 8 -6zM129 215h259l-68 197 q-36 99 -61 187q-25 -88 -61 -187z" />
<glyph unicode="&#xc3;" horiz-adv-x="518" d="M140 730q-6 0 -6 6v26q0 27 13 42.5t36 15.5q25 0 53 -18l65 -44q20 -14 34 -14q23 0 23 32v27q0 6 6 6h14q7 0 7 -6v-26q0 -27 -13 -42.5t-36 -15.5q-24 0 -53 18l-65 44q-20 14 -35 14q-22 0 -22 -32v-27q0 -6 -7 -6h-14zM498 7q3 -7 -6 -7h-23q-6 0 -8 6l-61 176h-282 l-62 -178q-1 -4 -7 -4h-23q-9 0 -6 7l220 632q2 6 8 6h22q6 0 8 -6zM129 215h259l-68 197q-36 99 -61 187q-25 -88 -61 -187z" />
<glyph unicode="&#xc4;" horiz-adv-x="518" d="M179 738q-7 0 -7 7v71q0 7 7 7h23q7 0 7 -7v-71q0 -7 -7 -7h-23zM317 738q-7 0 -7 7v71q0 7 7 7h23q7 0 7 -7v-71q0 -7 -7 -7h-23zM498 7q3 -7 -6 -7h-23q-6 0 -8 6l-61 176h-282l-62 -178q-1 -4 -7 -4h-23q-9 0 -6 7l220 632q2 6 8 6h22q6 0 8 -6zM129 215h259l-68 197 q-36 99 -61 187q-25 -88 -61 -187z" />
<glyph unicode="&#xc5;" horiz-adv-x="518" d="M258 712q-46 0 -62 11.5t-16 43.5v15q0 32 16 44t62 12h2q46 0 62 -12t16 -44v-15q0 -32 -15.5 -43.5t-62.5 -11.5h-2zM205 781v-12q0 -22 9 -28t44 -6h2q35 0 44 6t9 28v12q0 22 -9 28t-44 6h-2q-35 0 -44 -6t-9 -28zM498 7q3 -7 -6 -7h-23q-6 0 -8 6l-61 176h-282 l-62 -178q-1 -4 -7 -4h-23q-9 0 -6 7l220 632q2 6 8 6h22q6 0 8 -6zM129 215h259l-68 197q-36 99 -61 187q-25 -88 -61 -187z" />
<glyph unicode="&#xc6;" horiz-adv-x="803" d="M747 612h-308v-268h278q7 0 7 -7v-19q0 -7 -7 -7h-278v-278h308q7 0 7 -7v-19q0 -7 -7 -7h-336q-7 0 -7 7v172h-252l-94 -172q-3 -7 -9 -7h-24q-9 0 -4 8l345 632q2 5 8 5h373q7 0 7 -7v-19q0 -7 -7 -7zM171 212h233v400h-14z" />
<glyph unicode="&#xc7;" horiz-adv-x="559" d="M471 446q-7 0 -7 6v37q0 75 -35 103t-136 28h-6q-102 0 -137 -27.5t-35 -103.5v-333q0 -76 35 -103.5t137 -27.5h6q101 0 136 28t35 103v37q0 6 7 6h22q6 0 6 -6v-37q0 -91 -44 -127.5t-162 -36.5h-6h-12l-12 -69h50q38 0 54 -13.5t16 -43.5v-16q0 -31 -15.5 -44.5 t-54.5 -13.5h-78q-6 0 -6 7v14q0 6 6 6h78q25 0 33 6.5t8 24.5v16q0 18 -8 24.5t-33 6.5h-77q-8 0 -6 7l17 89q-94 6 -130.5 43t-36.5 120v333q0 91 44.5 127.5t162.5 36.5h6q118 0 162 -36.5t44 -127.5v-37q0 -6 -6 -6h-22z" />
<glyph unicode="&#xc8;" horiz-adv-x="488" d="M268 720l-101 95q-3 3 -1.5 5.5t5.5 2.5h29q4 0 8 -4l94 -94q9 -9 -3 -9h-23q-4 0 -8 4zM433 612h-308v-268h278q7 0 7 -7v-19q0 -7 -7 -7h-278v-278h308q7 0 7 -7v-19q0 -7 -7 -7h-336q-7 0 -7 7v631q0 7 7 7h336q7 0 7 -7v-19q0 -7 -7 -7z" />
<glyph unicode="&#xc9;" horiz-adv-x="488" d="M222 716q-5 0 -6.5 2.5t2.5 6.5l95 94q3 4 8 4h29q4 0 5.5 -2.5t-1.5 -5.5l-102 -95q-4 -4 -8 -4h-22zM433 612h-308v-268h278q7 0 7 -7v-19q0 -7 -7 -7h-278v-278h308q7 0 7 -7v-19q0 -7 -7 -7h-336q-7 0 -7 7v631q0 7 7 7h336q7 0 7 -7v-19q0 -7 -7 -7z" />
<glyph unicode="&#xca;" horiz-adv-x="488" d="M158 716q-4 0 -5.5 2.5t1.5 5.5l87 95q4 4 8 4h21q4 0 8 -4l87 -95q6 -8 -5 -8h-22q-4 0 -9 4l-70 80l-70 -80q-4 -4 -8 -4h-23zM433 612h-308v-268h278q7 0 7 -7v-19q0 -7 -7 -7h-278v-278h308q7 0 7 -7v-19q0 -7 -7 -7h-336q-7 0 -7 7v631q0 7 7 7h336q7 0 7 -7v-19 q0 -7 -7 -7z" />
<glyph unicode="&#xcb;" horiz-adv-x="488" d="M179 738q-7 0 -7 7v71q0 7 7 7h23q7 0 7 -7v-71q0 -7 -7 -7h-23zM317 738q-7 0 -7 7v71q0 7 7 7h23q7 0 7 -7v-71q0 -7 -7 -7h-23zM433 612h-308v-268h278q7 0 7 -7v-19q0 -7 -7 -7h-278v-278h308q7 0 7 -7v-19q0 -7 -7 -7h-336q-7 0 -7 7v631q0 7 7 7h336q7 0 7 -7v-19 q0 -7 -7 -7z" />
<glyph unicode="&#xcc;" horiz-adv-x="215" d="M124 716q-4 0 -8 4l-101 95q-3 3 -1.5 5.5t5.5 2.5h29q4 0 8 -4l94 -94q9 -9 -3 -9h-23zM97 0q-7 0 -7 7v631q0 7 7 7h21q7 0 7 -7v-631q0 -7 -7 -7h-21z" />
<glyph unicode="&#xcd;" horiz-adv-x="215" d="M70 716q-5 0 -6.5 2.5t2.5 6.5l95 94q3 4 8 4h29q4 0 5.5 -2.5t-1.5 -5.5l-102 -95q-4 -4 -8 -4h-22zM97 0q-7 0 -7 7v631q0 7 7 7h21q7 0 7 -7v-631q0 -7 -7 -7h-21z" />
<glyph unicode="&#xce;" horiz-adv-x="215" d="M213 724q6 -8 -5 -8h-22q-4 0 -9 4l-70 80l-70 -80q-4 -4 -8 -4h-23q-4 0 -5.5 2.5t1.5 5.5l87 95q4 4 8 4h21q4 0 8 -4zM118 645q7 0 7 -7v-631q0 -7 -7 -7h-21q-7 0 -7 7v631q0 7 7 7h21z" />
<glyph unicode="&#xcf;" horiz-adv-x="215" d="M27 738q-7 0 -7 7v71q0 7 7 7h23q7 0 7 -7v-71q0 -7 -7 -7h-23zM165 738q-7 0 -7 7v71q0 7 7 7h23q7 0 7 -7v-71q0 -7 -7 -7h-23zM97 0q-7 0 -7 7v631q0 7 7 7h21q7 0 7 -7v-631q0 -7 -7 -7h-21z" />
<glyph unicode="&#xd0;" horiz-adv-x="579" d="M311 645q102 0 145 -35t43 -114v-347q0 -79 -43 -114t-145 -35h-214q-7 0 -7 7v306h-63q-7 0 -7 6v15q0 7 7 7h63v297q0 7 7 7h214zM464 149v347q0 66 -35 91t-129 25h-175v-271h153q7 0 7 -7v-15q0 -6 -7 -6h-153v-280h175q94 0 129 25t35 91z" />
<glyph unicode="&#xd1;" horiz-adv-x="627" d="M194 730q-6 0 -6 6v26q0 27 13 42.5t36 15.5q25 0 53 -18l65 -44q20 -14 34 -14q23 0 23 32v27q0 6 6 6h14q7 0 7 -6v-26q0 -27 -13 -42.5t-36 -15.5q-24 0 -53 18l-65 44q-20 14 -35 14q-22 0 -22 -32v-27q0 -6 -7 -6h-14zM530 645q7 0 7 -7v-631q0 -7 -7 -7h-24 q-6 0 -9 6l-256 397q-72 112 -119 195q3 -71 3 -195v-396q0 -7 -7 -7h-21q-7 0 -7 7v631q0 7 7 7h24q6 0 9 -6l256 -397q88 -139 119 -195q-3 71 -3 195v396q0 7 6 7h22z" />
<glyph unicode="&#xd2;" horiz-adv-x="591" d="M312 716q-4 0 -8 4l-101 95q-3 3 -1.5 5.5t5.5 2.5h29q4 0 8 -4l94 -94q9 -9 -3 -9h-23zM80 156v333q0 91 45 127.5t167 36.5h6q122 0 167.5 -36.5t45.5 -127.5v-333q0 -91 -45.5 -127.5t-167.5 -36.5h-6q-122 0 -167 36.5t-45 127.5zM115 156q0 -76 36 -103.5t141 -27.5 h6q106 0 142 27.5t36 103.5v333q0 76 -36 103.5t-142 27.5h-6q-105 0 -141 -27.5t-36 -103.5v-333z" />
<glyph unicode="&#xd3;" horiz-adv-x="591" d="M258 716q-5 0 -6.5 2.5t2.5 6.5l95 94q3 4 8 4h29q4 0 5.5 -2.5t-1.5 -5.5l-102 -95q-4 -4 -8 -4h-22zM80 156v333q0 91 45 127.5t167 36.5h6q122 0 167.5 -36.5t45.5 -127.5v-333q0 -91 -45.5 -127.5t-167.5 -36.5h-6q-122 0 -167 36.5t-45 127.5zM115 156 q0 -76 36 -103.5t141 -27.5h6q106 0 142 27.5t36 103.5v333q0 76 -36 103.5t-142 27.5h-6q-105 0 -141 -27.5t-36 -103.5v-333z" />
<glyph unicode="&#xd4;" horiz-adv-x="591" d="M194 716q-4 0 -5.5 2.5t1.5 5.5l87 95q4 4 8 4h21q4 0 8 -4l87 -95q6 -8 -5 -8h-22q-4 0 -9 4l-70 80l-70 -80q-4 -4 -8 -4h-23zM298 653q122 0 167.5 -36.5t45.5 -127.5v-333q0 -91 -45.5 -127.5t-167.5 -36.5h-6q-122 0 -167 36.5t-45 127.5v333q0 91 45 127.5 t167 36.5h6zM476 156v333q0 76 -36 103.5t-142 27.5h-6q-105 0 -141 -27.5t-36 -103.5v-333q0 -76 36 -103.5t141 -27.5h6q106 0 142 27.5t36 103.5z" />
<glyph unicode="&#xd5;" horiz-adv-x="591" d="M372 719q-24 0 -53 18l-65 44q-20 14 -35 14q-22 0 -22 -32v-27q0 -6 -7 -6h-14q-6 0 -6 6v26q0 27 13 42.5t36 15.5q25 0 53 -18l65 -44q20 -14 34 -14q23 0 23 32v27q0 6 6 6h14q7 0 7 -6v-26q0 -27 -13 -42.5t-36 -15.5zM80 156v333q0 91 45 127.5t167 36.5h6 q122 0 167.5 -36.5t45.5 -127.5v-333q0 -91 -45.5 -127.5t-167.5 -36.5h-6q-122 0 -167 36.5t-45 127.5zM115 156q0 -76 36 -103.5t141 -27.5h6q106 0 142 27.5t36 103.5v333q0 76 -36 103.5t-142 27.5h-6q-105 0 -141 -27.5t-36 -103.5v-333z" />
<glyph unicode="&#xd6;" horiz-adv-x="591" d="M215 738q-7 0 -7 7v71q0 7 7 7h23q7 0 7 -7v-71q0 -7 -7 -7h-23zM353 738q-7 0 -7 7v71q0 7 7 7h23q7 0 7 -7v-71q0 -7 -7 -7h-23zM80 156v333q0 91 45 127.5t167 36.5h6q122 0 167.5 -36.5t45.5 -127.5v-333q0 -91 -45.5 -127.5t-167.5 -36.5h-6q-122 0 -167 36.5 t-45 127.5zM115 156q0 -76 36 -103.5t141 -27.5h6q106 0 142 27.5t36 103.5v333q0 76 -36 103.5t-142 27.5h-6q-105 0 -141 -27.5t-36 -103.5v-333z" />
<glyph unicode="&#xd7;" horiz-adv-x="500" d="M274 250l127 -127q5 -5 0 -9l-14 -15q-5 -5 -9 0l-127 127l-128 -127q-5 -5 -9 0l-16 15q-4 4 0 9l128 128l-127 127q-4 4 0 8l14 15q5 5 9 0l128 -127l127 127q5 5 9 0l15 -15q5 -5 0 -10z" />
<glyph unicode="&#xd8;" horiz-adv-x="591" d="M459 621q52 -34 52 -132v-333q0 -91 -45.5 -127.5t-167.5 -36.5h-6q-88 0 -135 19l-25 -50q-2 -5 -8 -5h-17q-9 0 -5 8l30 60q-52 36 -52 132v333q0 91 45 127.5t167 36.5h6q89 0 136 -19l25 50q3 5 8 5h17q8 0 5 -7zM115 156q0 -73 32 -101l272 549q-39 16 -121 16h-6 q-105 0 -141 -27.5t-36 -103.5v-333zM476 156v333q0 73 -33 101l-271 -549q39 -16 120 -16h6q106 0 142 27.5t36 103.5z" />
<glyph unicode="&#xd9;" horiz-adv-x="589" d="M311 716q-4 0 -8 4l-101 95q-3 3 -1.5 5.5t5.5 2.5h29q4 0 8 -4l94 -94q9 -9 -3 -9h-23zM85 156v482q0 7 7 7h21q7 0 7 -7v-482q0 -75 35 -103t136 -28h6q101 0 136.5 28t35.5 103v482q0 7 6 7h22q7 0 7 -7v-482q0 -91 -44.5 -127.5t-162.5 -36.5h-6q-117 0 -161.5 36.5 t-44.5 127.5z" />
<glyph unicode="&#xda;" horiz-adv-x="589" d="M257 716q-5 0 -6.5 2.5t2.5 6.5l95 94q3 4 8 4h29q4 0 5.5 -2.5t-1.5 -5.5l-102 -95q-4 -4 -8 -4h-22zM85 156v482q0 7 7 7h21q7 0 7 -7v-482q0 -75 35 -103t136 -28h6q101 0 136.5 28t35.5 103v482q0 7 6 7h22q7 0 7 -7v-482q0 -91 -44.5 -127.5t-162.5 -36.5h-6 q-117 0 -161.5 36.5t-44.5 127.5z" />
<glyph unicode="&#xdb;" horiz-adv-x="589" d="M193 716q-4 0 -5.5 2.5t1.5 5.5l87 95q4 4 8 4h21q4 0 8 -4l87 -95q6 -8 -5 -8h-22q-4 0 -9 4l-70 80l-70 -80q-4 -4 -8 -4h-23zM497 645q7 0 7 -7v-482q0 -91 -44.5 -127.5t-162.5 -36.5h-6q-117 0 -161.5 36.5t-44.5 127.5v482q0 7 7 7h21q7 0 7 -7v-482q0 -75 35 -103 t136 -28h6q101 0 136.5 28t35.5 103v482q0 7 6 7h22z" />
<glyph unicode="&#xdc;" horiz-adv-x="589" d="M214 738q-7 0 -7 7v71q0 7 7 7h23q7 0 7 -7v-71q0 -7 -7 -7h-23zM352 738q-7 0 -7 7v71q0 7 7 7h23q7 0 7 -7v-71q0 -7 -7 -7h-23zM85 156v482q0 7 7 7h21q7 0 7 -7v-482q0 -75 35 -103t136 -28h6q101 0 136.5 28t35.5 103v482q0 7 6 7h22q7 0 7 -7v-482 q0 -91 -44.5 -127.5t-162.5 -36.5h-6q-117 0 -161.5 36.5t-44.5 127.5z" />
<glyph unicode="&#xdd;" horiz-adv-x="466" d="M197 716q-5 0 -6.5 2.5t2.5 6.5l95 94q3 4 8 4h29q4 0 5.5 -2.5t-1.5 -5.5l-102 -95q-4 -4 -8 -4h-22zM451 645q8 0 6 -6l-207 -397v-235q0 -7 -6 -7h-22q-7 0 -7 7v239l-205 393q-4 6 5 6h23q6 0 8 -5l111 -212q41 -75 76 -158q32 74 77 158l110 212q2 5 8 5h23z" />
<glyph unicode="&#xde;" horiz-adv-x="514" d="M300 528q96 0 137 -34.5t41 -114.5v-100q0 -80 -41 -114.5t-137 -34.5h-175v-123q0 -7 -7 -7h-21q-7 0 -7 7v631q0 7 7 7h21q7 0 7 -7v-110h175zM443 279v100q0 66 -33 91.5t-121 25.5h-164v-334h164q88 0 121 25.5t33 91.5z" />
<glyph unicode="&#xdf;" horiz-adv-x="553" d="M365 -8q-78 0 -112 30.5t-34 96.5v34q0 6 7 6h21q7 0 7 -6v-34q0 -53 24.5 -74t86.5 -21h6q64 0 88 20.5t24 74.5v23q0 38 -16 56t-71 36l-82 29q-45 15 -63 35t-18 55v15q0 31 14.5 51t46.5 34l73 32q37 16 50 31.5t13 41.5v26q0 48 -33 69.5t-111 21.5h-6 q-92 0 -126 -31t-34 -110v-527q0 -7 -7 -7h-21q-7 0 -7 7v527q0 96 44.5 135t150.5 39h6q93 0 135.5 -30.5t42.5 -93.5v-26q0 -36 -17.5 -58.5t-61.5 -41.5l-68 -31q-29 -13 -39 -25.5t-10 -33.5v-15q0 -24 12.5 -35.5t54.5 -26.5l84 -29q57 -19 78 -45t21 -75v-23 q0 -66 -34.5 -96.5t-112.5 -30.5h-6z" />
<glyph unicode="&#xe0;" horiz-adv-x="516" d="M268 568l-101 95q-3 3 -1.5 5.5t5.5 2.5h29q4 0 8 -4l94 -94q9 -9 -3 -9h-23q-4 0 -8 4zM259 501q98 0 137.5 -35.5t39.5 -119.5v-339q0 -7 -6 -7h-12q-4 0 -6 5l-11 33q-86 -46 -182 -46q-82 0 -120.5 33t-38.5 102v13q0 68 35 97t120 29h186v80q0 69 -30 96t-112 27h-6 q-82 0 -112 -26.5t-30 -95.5v-3q0 -7 -6 -7h-22q-6 0 -6 7v3q0 84 39 119t137 35h6zM95 127q0 -56 29 -79.5t99 -23.5q95 0 178 43v168h-189q-67 0 -92 -21t-25 -74v-13z" />
<glyph unicode="&#xe1;" horiz-adv-x="516" d="M222 564q-5 0 -6.5 2.5t2.5 6.5l95 94q3 4 8 4h29q4 0 5.5 -2.5t-1.5 -5.5l-102 -95q-4 -4 -8 -4h-22zM259 501q98 0 137.5 -35.5t39.5 -119.5v-339q0 -7 -6 -7h-12q-4 0 -6 5l-11 33q-86 -46 -182 -46q-82 0 -120.5 33t-38.5 102v13q0 68 35 97t120 29h186v80 q0 69 -30 96t-112 27h-6q-82 0 -112 -26.5t-30 -95.5v-3q0 -7 -6 -7h-22q-6 0 -6 7v3q0 84 39 119t137 35h6zM95 127q0 -56 29 -79.5t99 -23.5q95 0 178 43v168h-189q-67 0 -92 -21t-25 -74v-13z" />
<glyph unicode="&#xe2;" horiz-adv-x="516" d="M158 564q-4 0 -5.5 2.5t1.5 5.5l87 95q4 4 8 4h21q4 0 8 -4l87 -95q6 -8 -5 -8h-22q-4 0 -9 4l-70 80l-70 -80q-4 -4 -8 -4h-23zM259 501q98 0 137.5 -35.5t39.5 -119.5v-339q0 -7 -6 -7h-12q-4 0 -6 5l-11 33q-86 -46 -182 -46q-82 0 -120.5 33t-38.5 102v13q0 68 35 97 t120 29h186v80q0 69 -30 96t-112 27h-6q-82 0 -112 -26.5t-30 -95.5v-3q0 -7 -6 -7h-22q-6 0 -6 7v3q0 84 39 119t137 35h6zM95 127q0 -56 29 -79.5t99 -23.5q95 0 178 43v168h-189q-67 0 -92 -21t-25 -74v-13z" />
<glyph unicode="&#xe3;" horiz-adv-x="516" d="M140 578q-6 0 -6 6v26q0 27 13 42.5t36 15.5q25 0 53 -18l65 -44q20 -14 34 -14q23 0 23 32v27q0 6 6 6h14q7 0 7 -6v-26q0 -27 -13 -42.5t-36 -15.5q-24 0 -53 18l-65 44q-20 14 -35 14q-22 0 -22 -32v-27q0 -6 -7 -6h-14zM259 501q98 0 137.5 -35.5t39.5 -119.5v-339 q0 -7 -6 -7h-12q-4 0 -6 5l-11 33q-86 -46 -182 -46q-82 0 -120.5 33t-38.5 102v13q0 68 35 97t120 29h186v80q0 69 -30 96t-112 27h-6q-82 0 -112 -26.5t-30 -95.5v-3q0 -7 -6 -7h-22q-6 0 -6 7v3q0 84 39 119t137 35h6zM95 127q0 -56 29 -79.5t99 -23.5q95 0 178 43v168 h-189q-67 0 -92 -21t-25 -74v-13z" />
<glyph unicode="&#xe4;" horiz-adv-x="516" d="M179 586q-7 0 -7 7v71q0 7 7 7h23q7 0 7 -7v-71q0 -7 -7 -7h-23zM317 586q-7 0 -7 7v71q0 7 7 7h23q7 0 7 -7v-71q0 -7 -7 -7h-23zM259 501q98 0 137.5 -35.5t39.5 -119.5v-339q0 -7 -6 -7h-12q-4 0 -6 5l-11 33q-86 -46 -182 -46q-82 0 -120.5 33t-38.5 102v13 q0 68 35 97t120 29h186v80q0 69 -30 96t-112 27h-6q-82 0 -112 -26.5t-30 -95.5v-3q0 -7 -6 -7h-22q-6 0 -6 7v3q0 84 39 119t137 35h6zM95 127q0 -56 29 -79.5t99 -23.5q95 0 178 43v168h-189q-67 0 -92 -21t-25 -74v-13z" />
<glyph unicode="&#xe5;" horiz-adv-x="516" d="M258 560q-46 0 -62 11.5t-16 43.5v15q0 32 16 44t62 12h2q46 0 62 -12t16 -44v-15q0 -32 -15.5 -43.5t-62.5 -11.5h-2zM205 629v-12q0 -22 9 -28t44 -6h2q35 0 44 6t9 28v12q0 22 -9 28t-44 6h-2q-35 0 -44 -6t-9 -28zM259 501q98 0 137.5 -35.5t39.5 -119.5v-339 q0 -7 -6 -7h-12q-4 0 -6 5l-11 33q-86 -46 -182 -46q-82 0 -120.5 33t-38.5 102v13q0 68 35 97t120 29h186v80q0 69 -30 96t-112 27h-6q-82 0 -112 -26.5t-30 -95.5v-3q0 -7 -6 -7h-22q-6 0 -6 7v3q0 84 39 119t137 35h6zM95 127q0 -56 29 -79.5t99 -23.5q95 0 178 43v168 h-189q-67 0 -92 -21t-25 -74v-13z" />
<glyph unicode="&#xe6;" horiz-adv-x="824" d="M748 239h-322v-90q0 -71 30 -97.5t114 -26.5h6q84 0 114 26.5t30 97.5v3q0 7 6 7h22q6 0 6 -7v-3q0 -86 -39.5 -121.5t-138.5 -35.5h-6q-125 0 -159 60q-92 -60 -197 -60q-78 0 -116 33.5t-38 104.5v10q0 68 35 97.5t116 29.5h180v77q0 71 -29 98t-108 27h-6 q-79 0 -108 -27t-29 -97v-5q0 -6 -6 -6h-22q-6 0 -6 6v5q0 85 38.5 120.5t132.5 35.5h6q67 0 104 -17.5t50 -58.5q16 41 54 58.5t108 17.5h6q99 0 138.5 -35.5t39.5 -121.5v-99q0 -6 -6 -6zM570 469q-84 0 -114 -27t-30 -98v-74h294v74q0 71 -30 98t-114 27h-6zM218 24 q95 0 182 54q-9 29 -9 71v86h-182q-64 0 -89 -21t-25 -74v-10q0 -57 28.5 -81.5t94.5 -24.5z" />
<glyph unicode="&#xe7;" horiz-adv-x="506" d="M415 329q-6 0 -6 7v8q0 71 -30.5 98t-116.5 27h-6q-85 0 -115.5 -27t-30.5 -98v-195q0 -71 30.5 -97.5t115.5 -26.5h6q86 0 116.5 26.5t30.5 97.5v9q0 6 6 6h22q6 0 6 -6v-9q0 -86 -40 -121.5t-141 -35.5h-6h-12l-12 -69h50q38 0 54 -13.5t16 -43.5v-16 q0 -31 -15.5 -44.5t-54.5 -13.5h-78q-6 0 -6 7v14q0 6 6 6h78q25 0 33 6.5t8 24.5v16q0 18 -8 24.5t-33 6.5h-77q-8 0 -6 7l17 89q-78 7 -109.5 43t-31.5 113v195q0 86 40 121.5t141 35.5h6q101 0 141 -35.5t40 -121.5v-8q0 -7 -6 -7h-22z" />
<glyph unicode="&#xe8;" horiz-adv-x="521" d="M272 568l-101 95q-3 3 -1.5 5.5t5.5 2.5h29q4 0 8 -4l94 -94q9 -9 -3 -9h-23q-4 0 -8 4zM444 247h-334v-98q0 -71 31 -97.5t119 -26.5h6q88 0 119 26.5t31 97.5v4q0 6 7 6h21q7 0 7 -6v-4q0 -86 -40.5 -121.5t-144.5 -35.5h-6q-104 0 -144.5 35.5t-40.5 121.5v195 q0 86 40.5 121.5t144.5 35.5h6q104 0 144.5 -35.5t40.5 -121.5v-90q0 -7 -7 -7zM260 469q-88 0 -119 -27t-31 -98v-65h306v65q0 71 -31 98t-119 27h-6z" />
<glyph unicode="&#xe9;" horiz-adv-x="521" d="M226 564q-5 0 -6.5 2.5t2.5 6.5l95 94q3 4 8 4h29q4 0 5.5 -2.5t-1.5 -5.5l-102 -95q-4 -4 -8 -4h-22zM444 247h-334v-98q0 -71 31 -97.5t119 -26.5h6q88 0 119 26.5t31 97.5v4q0 6 7 6h21q7 0 7 -6v-4q0 -86 -40.5 -121.5t-144.5 -35.5h-6q-104 0 -144.5 35.5 t-40.5 121.5v195q0 86 40.5 121.5t144.5 35.5h6q104 0 144.5 -35.5t40.5 -121.5v-90q0 -7 -7 -7zM260 469q-88 0 -119 -27t-31 -98v-65h306v65q0 71 -31 98t-119 27h-6z" />
<glyph unicode="&#xea;" horiz-adv-x="521" d="M162 564q-4 0 -5.5 2.5t1.5 5.5l87 95q4 4 8 4h21q4 0 8 -4l87 -95q6 -8 -5 -8h-22q-4 0 -9 4l-70 80l-70 -80q-4 -4 -8 -4h-23zM444 247h-334v-98q0 -71 31 -97.5t119 -26.5h6q88 0 119 26.5t31 97.5v4q0 6 7 6h21q7 0 7 -6v-4q0 -86 -40.5 -121.5t-144.5 -35.5h-6 q-104 0 -144.5 35.5t-40.5 121.5v195q0 86 40.5 121.5t144.5 35.5h6q104 0 144.5 -35.5t40.5 -121.5v-90q0 -7 -7 -7zM260 469q-88 0 -119 -27t-31 -98v-65h306v65q0 71 -31 98t-119 27h-6z" />
<glyph unicode="&#xeb;" horiz-adv-x="521" d="M183 586q-7 0 -7 7v71q0 7 7 7h23q7 0 7 -7v-71q0 -7 -7 -7h-23zM321 586q-7 0 -7 7v71q0 7 7 7h23q7 0 7 -7v-71q0 -7 -7 -7h-23zM444 247h-334v-98q0 -71 31 -97.5t119 -26.5h6q88 0 119 26.5t31 97.5v4q0 6 7 6h21q7 0 7 -6v-4q0 -86 -40.5 -121.5t-144.5 -35.5h-6 q-104 0 -144.5 35.5t-40.5 121.5v195q0 86 40.5 121.5t144.5 35.5h6q104 0 144.5 -35.5t40.5 -121.5v-90q0 -7 -7 -7zM260 469q-88 0 -119 -27t-31 -98v-65h306v65q0 71 -31 98t-119 27h-6z" />
<glyph unicode="&#xec;" horiz-adv-x="205" d="M120 564q-4 0 -8 4l-101 95q-3 3 -1.5 5.5t5.5 2.5h29q4 0 8 -4l94 -94q9 -9 -3 -9h-23zM92 0q-7 0 -7 7v480q0 6 7 6h21q7 0 7 -6v-480q0 -7 -7 -7h-21z" />
<glyph unicode="&#xed;" horiz-adv-x="205" d="M66 564q-5 0 -6.5 2.5t2.5 6.5l95 94q3 4 8 4h29q4 0 5.5 -2.5t-1.5 -5.5l-102 -95q-4 -4 -8 -4h-22zM92 0q-7 0 -7 7v480q0 6 7 6h21q7 0 7 -6v-480q0 -7 -7 -7h-21z" />
<glyph unicode="&#xee;" horiz-adv-x="205" d="M209 572q6 -8 -5 -8h-22q-4 0 -9 4l-70 80l-70 -80q-4 -4 -8 -4h-23q-4 0 -5.5 2.5t1.5 5.5l87 95q4 4 8 4h21q4 0 8 -4zM113 493q7 0 7 -6v-480q0 -7 -7 -7h-21q-7 0 -7 7v480q0 6 7 6h21z" />
<glyph unicode="&#xef;" horiz-adv-x="205" d="M23 586q-7 0 -7 7v71q0 7 7 7h23q7 0 7 -7v-71q0 -7 -7 -7h-23zM161 586q-7 0 -7 7v71q0 7 7 7h23q7 0 7 -7v-71q0 -7 -7 -7h-23zM92 0q-7 0 -7 7v480q0 6 7 6h21q7 0 7 -6v-480q0 -7 -7 -7h-21z" />
<glyph unicode="&#xf0;" horiz-adv-x="537" d="M481 711q8 6 8 -4v-18q0 -4 -5 -9l-80 -59q53 -66 53 -191v-281q0 -86 -41 -121.5t-147 -35.5h-6q-106 0 -147 35.5t-41 121.5v153q0 86 36.5 124.5t118.5 38.5q100 0 192 -53v18q0 115 -45 172l-94 -69q-3 -3 -5.5 -1.5t-2.5 5.5v17q0 6 5 9l79 58q-62 55 -206 55h-3 q-7 0 -7 7v18q0 7 7 7h3q161 0 232 -67zM422 382q-89 50 -186 50q-70 0 -98 -30t-28 -107v-146q0 -71 31.5 -97.5t121.5 -26.5h6q90 0 121.5 26.5t31.5 97.5v233z" />
<glyph unicode="&#xf1;" horiz-adv-x="534" d="M150 578q-6 0 -6 6v26q0 27 13 42.5t36 15.5q24 0 53 -18l65 -44q20 -14 34 -14q23 0 23 32v27q0 6 6 6h14q7 0 7 -6v-26q0 -27 -13 -42.5t-36 -15.5q-24 0 -53 18l-65 44q-20 14 -35 14q-22 0 -22 -32v-27q0 -6 -7 -6h-14zM300 501q83 0 118.5 -38.5t35.5 -123.5v-332 q0 -7 -7 -7h-22q-6 0 -6 7v325q0 77 -27 107t-97 30q-90 0 -175 -41v-421q0 -7 -7 -7h-21q-7 0 -7 7v480q0 6 5 6h12q5 0 7 -5l10 -31q88 44 181 44z" />
<glyph unicode="&#xf2;" d="M281 564q-4 0 -8 4l-101 95q-3 3 -1.5 5.5t5.5 2.5h29q4 0 8 -4l94 -94q9 -9 -3 -9h-23zM75 149v195q0 86 41 121.5t145 35.5h6q105 0 146 -35.5t41 -121.5v-195q0 -86 -41 -121.5t-146 -35.5h-6q-104 0 -145 35.5t-41 121.5zM110 149q0 -71 31 -97.5t120 -26.5h6 q89 0 120.5 26.5t31.5 97.5v195q0 71 -31.5 98t-120.5 27h-6q-88 0 -119.5 -27t-31.5 -98v-195z" />
<glyph unicode="&#xf3;" d="M227 564q-5 0 -6.5 2.5t2.5 6.5l95 94q3 4 8 4h29q4 0 5.5 -2.5t-1.5 -5.5l-102 -95q-4 -4 -8 -4h-22zM75 149v195q0 86 41 121.5t145 35.5h6q105 0 146 -35.5t41 -121.5v-195q0 -86 -41 -121.5t-146 -35.5h-6q-104 0 -145 35.5t-41 121.5zM110 149q0 -71 31 -97.5 t120 -26.5h6q89 0 120.5 26.5t31.5 97.5v195q0 71 -31.5 98t-120.5 27h-6q-88 0 -119.5 -27t-31.5 -98v-195z" />
<glyph unicode="&#xf4;" d="M163 564q-4 0 -5.5 2.5t1.5 5.5l87 95q4 4 8 4h21q4 0 8 -4l87 -95q6 -8 -5 -8h-22q-4 0 -9 4l-70 80l-70 -80q-4 -4 -8 -4h-23zM267 501q105 0 146 -35.5t41 -121.5v-195q0 -86 -41 -121.5t-146 -35.5h-6q-104 0 -145 35.5t-41 121.5v195q0 86 41 121.5t145 35.5h6z M419 149v195q0 71 -31.5 98t-120.5 27h-6q-88 0 -119.5 -27t-31.5 -98v-195q0 -71 31 -97.5t120 -26.5h6q89 0 120.5 26.5t31.5 97.5z" />
<glyph unicode="&#xf5;" d="M341 567q-25 0 -53 18l-65 44q-20 14 -35 14q-22 0 -22 -32v-27q0 -6 -7 -6h-14q-6 0 -6 6v26q0 27 13 42.5t36 15.5q24 0 53 -18l65 -44q20 -14 34 -14q23 0 23 32v27q0 6 6 6h14q7 0 7 -6v-26q0 -27 -13 -42.5t-36 -15.5zM75 149v195q0 86 41 121.5t145 35.5h6 q105 0 146 -35.5t41 -121.5v-195q0 -86 -41 -121.5t-146 -35.5h-6q-104 0 -145 35.5t-41 121.5zM110 149q0 -71 31 -97.5t120 -26.5h6q89 0 120.5 26.5t31.5 97.5v195q0 71 -31.5 98t-120.5 27h-6q-88 0 -119.5 -27t-31.5 -98v-195z" />
<glyph unicode="&#xf6;" d="M184 586q-7 0 -7 7v71q0 7 7 7h23q7 0 7 -7v-71q0 -7 -7 -7h-23zM322 586q-7 0 -7 7v71q0 7 7 7h23q7 0 7 -7v-71q0 -7 -7 -7h-23zM75 149v195q0 86 41 121.5t145 35.5h6q105 0 146 -35.5t41 -121.5v-195q0 -86 -41 -121.5t-146 -35.5h-6q-104 0 -145 35.5t-41 121.5z M110 149q0 -71 31 -97.5t120 -26.5h6q89 0 120.5 26.5t31.5 97.5v195q0 71 -31.5 98t-120.5 27h-6q-88 0 -119.5 -27t-31.5 -98v-195z" />
<glyph unicode="&#xf7;" horiz-adv-x="500" d="M238 377q-7 0 -7 6v64q0 6 7 6h25q6 0 6 -6v-64q0 -6 -6 -6h-25zM63 236q-6 0 -6 6v20q0 6 6 6h374q6 0 6 -6v-20q0 -6 -6 -6h-374zM238 47q-7 0 -7 6v64q0 6 7 6h25q6 0 6 -6v-64q0 -6 -6 -6h-25z" />
<glyph unicode="&#xf8;" d="M395 478q59 -33 59 -134v-195q0 -86 -41 -121.5t-146 -35.5h-6q-62 0 -101 12l-21 -43q-3 -5 -8 -5h-17q-9 0 -5 7l26 52q-60 31 -60 134v195q0 86 41 121.5t145 35.5h6q63 0 102 -12l22 43q3 5 8 5h17q8 0 5 -7zM110 149q0 -79 40 -104l205 414q-31 10 -88 10h-6 q-88 0 -119.5 -27t-31.5 -98v-195zM419 149v195q0 78 -39 104l-205 -414q33 -9 86 -9h6q89 0 120.5 26.5t31.5 97.5z" />
<glyph unicode="&#xf9;" horiz-adv-x="530" d="M273 568l-101 95q-3 3 -1.5 5.5t5.5 2.5h29q4 0 8 -4l94 -94q9 -9 -3 -9h-23q-4 0 -8 4zM438 493q7 0 7 -6v-480q0 -7 -6 -7h-11q-5 0 -7 5l-11 33q-85 -46 -178 -46q-82 0 -117 38.5t-35 124.5v332q0 6 7 6h21q7 0 7 -6v-325q0 -78 27 -107.5t96 -29.5q91 0 172 42v420 q0 6 6 6h22z" />
<glyph unicode="&#xfa;" horiz-adv-x="530" d="M227 564q-5 0 -6.5 2.5t2.5 6.5l95 94q3 4 8 4h29q4 0 5.5 -2.5t-1.5 -5.5l-102 -95q-4 -4 -8 -4h-22zM438 493q7 0 7 -6v-480q0 -7 -6 -7h-11q-5 0 -7 5l-11 33q-85 -46 -178 -46q-82 0 -117 38.5t-35 124.5v332q0 6 7 6h21q7 0 7 -6v-325q0 -78 27 -107.5t96 -29.5 q91 0 172 42v420q0 6 6 6h22z" />
<glyph unicode="&#xfb;" horiz-adv-x="530" d="M163 564q-4 0 -5.5 2.5t1.5 5.5l87 95q4 4 8 4h21q4 0 8 -4l87 -95q6 -8 -5 -8h-22q-4 0 -9 4l-70 80l-70 -80q-4 -4 -8 -4h-23zM438 493q7 0 7 -6v-480q0 -7 -6 -7h-11q-5 0 -7 5l-11 33q-85 -46 -178 -46q-82 0 -117 38.5t-35 124.5v332q0 6 7 6h21q7 0 7 -6v-325 q0 -78 27 -107.5t96 -29.5q91 0 172 42v420q0 6 6 6h22z" />
<glyph unicode="&#xfc;" horiz-adv-x="530" d="M184 586q-7 0 -7 7v71q0 7 7 7h23q7 0 7 -7v-71q0 -7 -7 -7h-23zM322 586q-7 0 -7 7v71q0 7 7 7h23q7 0 7 -7v-71q0 -7 -7 -7h-23zM438 493q7 0 7 -6v-480q0 -7 -6 -7h-11q-5 0 -7 5l-11 33q-85 -46 -178 -46q-82 0 -117 38.5t-35 124.5v332q0 6 7 6h21q7 0 7 -6v-325 q0 -78 27 -107.5t96 -29.5q91 0 172 42v420q0 6 6 6h22z" />
<glyph unicode="&#xfd;" horiz-adv-x="438" d="M184 564q-5 0 -6.5 2.5t2.5 6.5l95 94q3 4 8 4h29q4 0 5.5 -2.5t-1.5 -5.5l-102 -95q-4 -4 -8 -4h-22zM419 493q8 0 6 -6l-262 -684q-2 -5 -8 -5h-23q-8 0 -6 6l74 195l-183 488q-2 6 6 6h23q6 0 8 -5l96 -257q53 -142 70 -197q19 62 70 198l98 256q2 5 8 5h23z" />
<glyph unicode="&#xfe;" horiz-adv-x="531" d="M302 501q83 0 118.5 -38.5t35.5 -123.5v-184q0 -86 -35.5 -124.5t-118.5 -38.5q-96 0 -182 46v-231q0 -7 -7 -7h-21q-7 0 -7 7v886q0 7 7 7h21q7 0 7 -7v-237q87 45 182 45zM421 332q0 77 -27 107t-97 30q-89 0 -177 -42v-360q85 -42 177 -42q70 0 97 29.5t27 107.5v170z " />
<glyph unicode="&#xff;" horiz-adv-x="438" d="M141 586q-7 0 -7 7v71q0 7 7 7h23q7 0 7 -7v-71q0 -7 -7 -7h-23zM279 586q-7 0 -7 7v71q0 7 7 7h23q7 0 7 -7v-71q0 -7 -7 -7h-23zM419 493q8 0 6 -6l-262 -684q-2 -5 -8 -5h-23q-8 0 -6 6l74 195l-183 488q-2 6 6 6h23q6 0 8 -5l96 -257q53 -142 70 -197q19 62 70 198 l98 256q2 5 8 5h23z" />
<glyph unicode="&#x100;" horiz-adv-x="518" d="M163 738q-7 0 -7 7v17q0 7 7 7h193q7 0 7 -7v-17q0 -7 -7 -7h-193zM498 7q3 -7 -6 -7h-23q-6 0 -8 6l-61 176h-282l-62 -178q-1 -4 -7 -4h-23q-9 0 -6 7l220 632q2 6 8 6h22q6 0 8 -6zM129 215h259l-68 197q-36 99 -61 187q-25 -88 -61 -187z" />
<glyph unicode="&#x101;" horiz-adv-x="516" d="M163 586q-7 0 -7 7v17q0 7 7 7h193q7 0 7 -7v-17q0 -7 -7 -7h-193zM259 501q98 0 137.5 -35.5t39.5 -119.5v-339q0 -7 -6 -7h-12q-4 0 -6 5l-11 33q-86 -46 -182 -46q-82 0 -120.5 33t-38.5 102v13q0 68 35 97t120 29h186v80q0 69 -30 96t-112 27h-6q-82 0 -112 -26.5 t-30 -95.5v-3q0 -7 -6 -7h-22q-6 0 -6 7v3q0 84 39 119t137 35h6zM95 127q0 -56 29 -79.5t99 -23.5q95 0 178 43v168h-189q-67 0 -92 -21t-25 -74v-13z" />
<glyph unicode="&#x102;" horiz-adv-x="518" d="M257 713q-54 0 -75 18.5t-21 66.5v18q0 7 6 7h16q7 0 7 -7v-18q0 -35 13 -46.5t54 -11.5h4q42 0 55 11.5t13 46.5v18q0 7 6 7h16q7 0 7 -7v-18q0 -48 -21 -66.5t-76 -18.5h-4zM498 7q3 -7 -6 -7h-23q-6 0 -8 6l-61 176h-282l-62 -178q-1 -4 -7 -4h-23q-9 0 -6 7l220 632 q2 6 8 6h22q6 0 8 -6zM129 215h259l-68 197q-36 99 -61 187q-25 -88 -61 -187z" />
<glyph unicode="&#x103;" horiz-adv-x="516" d="M257 561q-54 0 -75 18.5t-21 66.5v18q0 7 6 7h16q7 0 7 -7v-18q0 -35 13 -46.5t54 -11.5h4q42 0 55 11.5t13 46.5v18q0 7 6 7h16q7 0 7 -7v-18q0 -48 -21 -66.5t-76 -18.5h-4zM259 501q98 0 137.5 -35.5t39.5 -119.5v-339q0 -7 -6 -7h-12q-4 0 -6 5l-11 33 q-86 -46 -182 -46q-82 0 -120.5 33t-38.5 102v13q0 68 35 97t120 29h186v80q0 69 -30 96t-112 27h-6q-82 0 -112 -26.5t-30 -95.5v-3q0 -7 -6 -7h-22q-6 0 -6 7v3q0 84 39 119t137 35h6zM95 127q0 -56 29 -79.5t99 -23.5q95 0 178 43v168h-189q-67 0 -92 -21t-25 -74v-13z " />
<glyph unicode="&#x104;" horiz-adv-x="518" d="M494 -179q6 0 6 -7v-15q0 -7 -6 -7h-35q-49 0 -69.5 16.5t-20.5 53.5v8q0 24 11 41.5t48 52.5l38 36q-4 2 -5 6l-61 176h-282l-62 -178q-1 -4 -7 -4h-23q-9 0 -6 7l220 632q2 6 8 6h22q6 0 8 -6l220 -632v-2q2 -5 -3 -10l-41 -42q-36 -36 -44.5 -49.5t-8.5 -33.5v-8 q0 -24 11 -32.5t47 -8.5h35zM129 215h259l-68 197q-36 99 -61 187q-25 -88 -61 -187z" />
<glyph unicode="&#x105;" horiz-adv-x="516" d="M390 -47q-36 -36 -44.5 -49.5t-8.5 -33.5v-8q0 -24 11 -32.5t47 -8.5h35q6 0 6 -7v-15q0 -7 -6 -7h-35q-49 0 -69.5 16.5t-20.5 53.5v8q0 24 11 41.5t48 52.5l47 44l-10 30q-86 -46 -182 -46q-82 0 -120.5 33t-38.5 102v13q0 68 35 97t120 29h186v80q0 69 -30 96t-112 27 h-6q-82 0 -112 -26.5t-30 -95.5v-3q0 -7 -6 -7h-22q-6 0 -6 7v3q0 84 39 119t137 35h6q98 0 137.5 -35.5t39.5 -119.5v-339q0 -4 -1 -5q0 -3 -4 -7zM95 127q0 -56 29 -79.5t99 -23.5q95 0 178 43v168h-189q-67 0 -92 -21t-25 -74v-13z" />
<glyph unicode="&#x106;" horiz-adv-x="559" d="M253 716q-5 0 -6.5 2.5t2.5 6.5l95 94q3 4 8 4h29q4 0 5.5 -2.5t-1.5 -5.5l-102 -95q-4 -4 -8 -4h-22zM287 -8q-118 0 -162.5 36.5t-44.5 127.5v333q0 91 44.5 127.5t162.5 36.5h6q118 0 162 -36.5t44 -127.5v-37q0 -6 -6 -6h-22q-7 0 -7 6v37q0 75 -35 103t-136 28h-6 q-102 0 -137 -27.5t-35 -103.5v-333q0 -76 35 -103.5t137 -27.5h6q101 0 136 28t35 103v37q0 6 7 6h22q6 0 6 -6v-37q0 -91 -44 -127.5t-162 -36.5h-6z" />
<glyph unicode="&#x107;" horiz-adv-x="506" d="M222 564q-5 0 -6.5 2.5t2.5 6.5l95 94q3 4 8 4h29q4 0 5.5 -2.5t-1.5 -5.5l-102 -95q-4 -4 -8 -4h-22zM75 149v195q0 86 40 121.5t141 35.5h6q101 0 141 -35.5t40 -121.5v-8q0 -7 -6 -7h-22q-6 0 -6 7v8q0 71 -30.5 98t-116.5 27h-6q-85 0 -115.5 -27t-30.5 -98v-195 q0 -71 30.5 -97.5t115.5 -26.5h6q86 0 116.5 26.5t30.5 97.5v9q0 6 6 6h22q6 0 6 -6v-9q0 -86 -40 -121.5t-141 -35.5h-6q-101 0 -141 35.5t-40 121.5z" />
<glyph unicode="&#x108;" horiz-adv-x="559" d="M189 716q-4 0 -5.5 2.5t1.5 5.5l87 95q4 4 8 4h21q4 0 8 -4l87 -95q6 -8 -5 -8h-22q-4 0 -9 4l-70 80l-70 -80q-4 -4 -8 -4h-23zM471 446q-7 0 -7 6v37q0 75 -35 103t-136 28h-6q-102 0 -137 -27.5t-35 -103.5v-333q0 -76 35 -103.5t137 -27.5h6q101 0 136 28t35 103v37 q0 6 7 6h22q6 0 6 -6v-37q0 -91 -44 -127.5t-162 -36.5h-6q-118 0 -162.5 36.5t-44.5 127.5v333q0 91 44.5 127.5t162.5 36.5h6q118 0 162 -36.5t44 -127.5v-37q0 -6 -6 -6h-22z" />
<glyph unicode="&#x109;" horiz-adv-x="506" d="M158 564q-4 0 -5.5 2.5t1.5 5.5l87 95q4 4 8 4h21q4 0 8 -4l87 -95q6 -8 -5 -8h-22q-4 0 -9 4l-70 80l-70 -80q-4 -4 -8 -4h-23zM415 329q-6 0 -6 7v8q0 71 -30.5 98t-116.5 27h-6q-85 0 -115.5 -27t-30.5 -98v-195q0 -71 30.5 -97.5t115.5 -26.5h6q86 0 116.5 26.5 t30.5 97.5v9q0 6 6 6h22q6 0 6 -6v-9q0 -86 -40 -121.5t-141 -35.5h-6q-101 0 -141 35.5t-40 121.5v195q0 86 40 121.5t141 35.5h6q101 0 141 -35.5t40 -121.5v-8q0 -7 -6 -7h-22z" />
<glyph unicode="&#x10a;" horiz-adv-x="559" d="M279 738q-7 0 -7 7v71q0 7 7 7h23q7 0 7 -7v-71q0 -7 -7 -7h-23zM287 -8q-118 0 -162.5 36.5t-44.5 127.5v333q0 91 44.5 127.5t162.5 36.5h6q118 0 162 -36.5t44 -127.5v-37q0 -6 -6 -6h-22q-7 0 -7 6v37q0 75 -35 103t-136 28h-6q-102 0 -137 -27.5t-35 -103.5v-333 q0 -76 35 -103.5t137 -27.5h6q101 0 136 28t35 103v37q0 6 7 6h22q6 0 6 -6v-37q0 -91 -44 -127.5t-162 -36.5h-6z" />
<glyph unicode="&#x10b;" horiz-adv-x="506" d="M248 586q-7 0 -7 7v71q0 7 7 7h23q7 0 7 -7v-71q0 -7 -7 -7h-23zM75 149v195q0 86 40 121.5t141 35.5h6q101 0 141 -35.5t40 -121.5v-8q0 -7 -6 -7h-22q-6 0 -6 7v8q0 71 -30.5 98t-116.5 27h-6q-85 0 -115.5 -27t-30.5 -98v-195q0 -71 30.5 -97.5t115.5 -26.5h6 q86 0 116.5 26.5t30.5 97.5v9q0 6 6 6h22q6 0 6 -6v-9q0 -86 -40 -121.5t-141 -35.5h-6q-101 0 -141 35.5t-40 121.5z" />
<glyph unicode="&#x10c;" horiz-adv-x="559" d="M272 720l-87 95q-3 3 -1.5 5.5t5.5 2.5h23q4 0 8 -4l70 -80l70 80q5 4 9 4h22q11 0 5 -8l-87 -95q-4 -4 -8 -4h-21q-4 0 -8 4zM471 446q-7 0 -7 6v37q0 75 -35 103t-136 28h-6q-102 0 -137 -27.5t-35 -103.5v-333q0 -76 35 -103.5t137 -27.5h6q101 0 136 28t35 103v37 q0 6 7 6h22q6 0 6 -6v-37q0 -91 -44 -127.5t-162 -36.5h-6q-118 0 -162.5 36.5t-44.5 127.5v333q0 91 44.5 127.5t162.5 36.5h6q118 0 162 -36.5t44 -127.5v-37q0 -6 -6 -6h-22z" />
<glyph unicode="&#x10d;" horiz-adv-x="506" d="M241 568l-87 95q-3 3 -1.5 5.5t5.5 2.5h23q4 0 8 -4l70 -80l70 80q5 4 9 4h22q11 0 5 -8l-87 -95q-4 -4 -8 -4h-21q-4 0 -8 4zM415 329q-6 0 -6 7v8q0 71 -30.5 98t-116.5 27h-6q-85 0 -115.5 -27t-30.5 -98v-195q0 -71 30.5 -97.5t115.5 -26.5h6q86 0 116.5 26.5 t30.5 97.5v9q0 6 6 6h22q6 0 6 -6v-9q0 -86 -40 -121.5t-141 -35.5h-6q-101 0 -141 35.5t-40 121.5v195q0 86 40 121.5t141 35.5h6q101 0 141 -35.5t40 -121.5v-8q0 -7 -6 -7h-22z" />
<glyph unicode="&#x10e;" horiz-adv-x="579" d="M263 720l-87 95q-3 3 -1.5 5.5t5.5 2.5h23q4 0 8 -4l70 -80l70 80q5 4 9 4h22q11 0 5 -8l-87 -95q-4 -4 -8 -4h-21q-4 0 -8 4zM311 645q102 0 145 -35t43 -114v-347q0 -79 -43 -114t-145 -35h-214q-7 0 -7 7v631q0 7 7 7h214zM464 149v347q0 66 -35 91t-129 25h-175v-579 h175q94 0 129 25t35 91z" />
<glyph unicode="&#x10f;" horiz-adv-x="531" d="M555 708q7 0 7 -7v-48q0 -6 -1 -13l-13 -71q-1 -6 -8 -6h-5q-6 0 -6 7v131q0 7 6 7h20zM439 700q7 0 7 -7v-686q0 -7 -6 -7h-11q-5 0 -7 5l-11 33q-86 -46 -182 -46q-83 0 -118.5 38.5t-35.5 124.5v184q0 85 35.5 123.5t118.5 38.5q95 0 182 -45v237q0 7 7 7h21zM110 162 q0 -78 27 -107.5t97 -29.5q92 0 177 42v360q-89 42 -177 42q-70 0 -97 -30t-27 -107v-170z" />
<glyph unicode="&#x110;" horiz-adv-x="579" d="M311 645q102 0 145 -35t43 -114v-347q0 -79 -43 -114t-145 -35h-214q-7 0 -7 7v306h-63q-7 0 -7 6v15q0 7 7 7h63v297q0 7 7 7h214zM464 149v347q0 66 -35 91t-129 25h-175v-271h153q7 0 7 -7v-15q0 -6 -7 -6h-153v-280h175q94 0 129 25t35 91z" />
<glyph unicode="&#x111;" horiz-adv-x="531" d="M495 636q7 0 7 -7v-15q0 -6 -7 -6h-49v-601q0 -7 -6 -7h-12q-4 0 -6 5l-11 33q-88 -46 -183 -46q-82 0 -117.5 38.5t-35.5 124.5v184q0 86 35.5 124t117.5 38q94 0 183 -45v152h-167q-7 0 -7 6v15q0 7 7 7h167v57q0 7 6 7h22q7 0 7 -7v-57h49zM110 162q0 -78 27 -107.5 t97 -29.5q90 0 177 42v359q-89 43 -177 43q-70 0 -97 -30t-27 -107v-170z" />
<glyph unicode="&#x112;" horiz-adv-x="488" d="M163 738q-7 0 -7 7v17q0 7 7 7h193q7 0 7 -7v-17q0 -7 -7 -7h-193zM433 612h-308v-268h278q7 0 7 -7v-19q0 -7 -7 -7h-278v-278h308q7 0 7 -7v-19q0 -7 -7 -7h-336q-7 0 -7 7v631q0 7 7 7h336q7 0 7 -7v-19q0 -7 -7 -7z" />
<glyph unicode="&#x113;" horiz-adv-x="521" d="M167 586q-7 0 -7 7v17q0 7 7 7h193q7 0 7 -7v-17q0 -7 -7 -7h-193zM444 247h-334v-98q0 -71 31 -97.5t119 -26.5h6q88 0 119 26.5t31 97.5v4q0 6 7 6h21q7 0 7 -6v-4q0 -86 -40.5 -121.5t-144.5 -35.5h-6q-104 0 -144.5 35.5t-40.5 121.5v195q0 86 40.5 121.5t144.5 35.5 h6q104 0 144.5 -35.5t40.5 -121.5v-90q0 -7 -7 -7zM260 469q-88 0 -119 -27t-31 -98v-65h306v65q0 71 -31 98t-119 27h-6z" />
<glyph unicode="&#x114;" horiz-adv-x="488" d="M257 713q-54 0 -75 18.5t-21 66.5v18q0 7 6 7h16q7 0 7 -7v-18q0 -35 13 -46.5t54 -11.5h4q42 0 55 11.5t13 46.5v18q0 7 6 7h16q7 0 7 -7v-18q0 -48 -21 -66.5t-76 -18.5h-4zM433 612h-308v-268h278q7 0 7 -7v-19q0 -7 -7 -7h-278v-278h308q7 0 7 -7v-19q0 -7 -7 -7 h-336q-7 0 -7 7v631q0 7 7 7h336q7 0 7 -7v-19q0 -7 -7 -7z" />
<glyph unicode="&#x115;" horiz-adv-x="521" d="M261 561q-54 0 -75 18.5t-21 66.5v18q0 7 6 7h16q7 0 7 -7v-18q0 -35 13 -46.5t54 -11.5h4q42 0 55 11.5t13 46.5v18q0 7 6 7h16q7 0 7 -7v-18q0 -48 -21 -66.5t-76 -18.5h-4zM444 247h-334v-98q0 -71 31 -97.5t119 -26.5h6q88 0 119 26.5t31 97.5v4q0 6 7 6h21q7 0 7 -6 v-4q0 -86 -40.5 -121.5t-144.5 -35.5h-6q-104 0 -144.5 35.5t-40.5 121.5v195q0 86 40.5 121.5t144.5 35.5h6q104 0 144.5 -35.5t40.5 -121.5v-90q0 -7 -7 -7zM260 469q-88 0 -119 -27t-31 -98v-65h306v65q0 71 -31 98t-119 27h-6z" />
<glyph unicode="&#x116;" horiz-adv-x="488" d="M248 738q-7 0 -7 7v71q0 7 7 7h23q7 0 7 -7v-71q0 -7 -7 -7h-23zM433 612h-308v-268h278q7 0 7 -7v-19q0 -7 -7 -7h-278v-278h308q7 0 7 -7v-19q0 -7 -7 -7h-336q-7 0 -7 7v631q0 7 7 7h336q7 0 7 -7v-19q0 -7 -7 -7z" />
<glyph unicode="&#x117;" horiz-adv-x="521" d="M252 586q-7 0 -7 7v71q0 7 7 7h23q7 0 7 -7v-71q0 -7 -7 -7h-23zM444 247h-334v-98q0 -71 31 -97.5t119 -26.5h6q88 0 119 26.5t31 97.5v4q0 6 7 6h21q7 0 7 -6v-4q0 -86 -40.5 -121.5t-144.5 -35.5h-6q-104 0 -144.5 35.5t-40.5 121.5v195q0 86 40.5 121.5t144.5 35.5h6 q104 0 144.5 -35.5t40.5 -121.5v-90q0 -7 -7 -7zM260 469q-88 0 -119 -27t-31 -98v-65h306v65q0 71 -31 98t-119 27h-6z" />
<glyph unicode="&#x118;" horiz-adv-x="488" d="M433 612h-308v-268h278q7 0 7 -7v-19q0 -7 -7 -7h-278v-278h308q7 0 7 -7v-19q0 -3 -1 -4q0 -4 -4 -8l-41 -42q-36 -36 -44.5 -49.5t-8.5 -33.5v-8q0 -24 11 -32.5t47 -8.5h35q6 0 6 -7v-15q0 -7 -6 -7h-35q-49 0 -69.5 16.5t-20.5 53.5v8q0 24 11 41.5t48 52.5l38 36 h-309q-7 0 -7 7v631q0 7 7 7h336q7 0 7 -7v-19q0 -7 -7 -7z" />
<glyph unicode="&#x119;" horiz-adv-x="521" d="M444 247h-334v-98q0 -71 31 -97.5t119 -26.5h6q88 0 119 26.5t31 97.5v4q0 6 7 6h21q7 0 7 -6v-4q0 -68 -24.5 -103.5t-82.5 -47.5l-3 -3l-41 -42q-36 -36 -44.5 -49.5t-8.5 -33.5v-8q0 -24 11 -32.5t47 -8.5h35q6 0 6 -7v-15q0 -7 -6 -7h-35q-49 0 -69.5 16.5 t-20.5 53.5v8q0 24 11 41.5t48 52.5l31 29q-12 -1 -39 -1h-6q-104 0 -144.5 35.5t-40.5 121.5v195q0 86 40.5 121.5t144.5 35.5h6q104 0 144.5 -35.5t40.5 -121.5v-90q0 -7 -7 -7zM260 469q-88 0 -119 -27t-31 -98v-65h306v65q0 71 -31 98t-119 27h-6z" />
<glyph unicode="&#x11a;" horiz-adv-x="488" d="M241 720l-87 95q-3 3 -1.5 5.5t5.5 2.5h23q4 0 8 -4l70 -80l70 80q5 4 9 4h22q11 0 5 -8l-87 -95q-4 -4 -8 -4h-21q-4 0 -8 4zM433 612h-308v-268h278q7 0 7 -7v-19q0 -7 -7 -7h-278v-278h308q7 0 7 -7v-19q0 -7 -7 -7h-336q-7 0 -7 7v631q0 7 7 7h336q7 0 7 -7v-19 q0 -7 -7 -7z" />
<glyph unicode="&#x11b;" horiz-adv-x="521" d="M245 568l-87 95q-3 3 -1.5 5.5t5.5 2.5h23q4 0 8 -4l70 -80l70 80q5 4 9 4h22q11 0 5 -8l-87 -95q-4 -4 -8 -4h-21q-4 0 -8 4zM444 247h-334v-98q0 -71 31 -97.5t119 -26.5h6q88 0 119 26.5t31 97.5v4q0 6 7 6h21q7 0 7 -6v-4q0 -86 -40.5 -121.5t-144.5 -35.5h-6 q-104 0 -144.5 35.5t-40.5 121.5v195q0 86 40.5 121.5t144.5 35.5h6q104 0 144.5 -35.5t40.5 -121.5v-90q0 -7 -7 -7zM260 469q-88 0 -119 -27t-31 -98v-65h306v65q0 71 -31 98t-119 27h-6z" />
<glyph unicode="&#x11c;" horiz-adv-x="581" d="M191 716q-4 0 -5.5 2.5t1.5 5.5l87 95q4 4 8 4h21q4 0 8 -4l87 -95q6 -8 -5 -8h-22q-4 0 -9 4l-70 80l-70 -80q-4 -4 -8 -4h-23zM478 466q-7 0 -7 6v17q0 76 -35.5 103.5t-139.5 27.5h-6q-104 0 -139.5 -27.5t-35.5 -103.5v-333q0 -76 35.5 -103.5t139.5 -27.5h6 q104 0 139.5 27.5t35.5 103.5v128h-151q-6 0 -6 6v20q0 6 6 6h179q7 0 7 -6v-154q0 -91 -45 -127.5t-165 -36.5h-6q-120 0 -165 36.5t-45 127.5v333q0 91 45 127.5t165 36.5h6q120 0 165 -36.5t45 -127.5v-17q0 -6 -7 -6h-21z" />
<glyph unicode="&#x11d;" horiz-adv-x="507" d="M162 564q-4 0 -5.5 2.5t1.5 5.5l87 95q4 4 8 4h21q4 0 8 -4l87 -95q6 -8 -5 -8h-22q-4 0 -9 4l-70 80l-70 -80q-4 -4 -8 -4h-23zM475 486q0 -6 -6 -7l-101 -5q42 -10 57 -36.5t15 -83.5v-47q0 -85 -37.5 -116t-144.5 -31h-6q-58 0 -96 9q-53 -12 -53 -69v-10 q0 -29 17 -41t64 -12h164q71 0 99 -25t28 -87v-21q0 -65 -41 -88.5t-167 -23.5h-7q-125 0 -166 23.5t-41 88.5v14q0 81 51 102q-35 20 -35 68v11q0 62 55 81q-55 28 -55 127v47q0 85 38 116t145 31h216q7 0 7 -6v-9zM406 354q0 70 -28 92.5t-120 22.5h-6q-92 0 -120.5 -22.5 t-28.5 -92.5v-47q0 -70 28.5 -92.5t120.5 -22.5h6q92 0 120 22.5t28 92.5v47zM336 5h-156q-26 0 -49 5q-24 -10 -33.5 -30t-9.5 -59v-17q0 -34 12 -50t48 -23t112 -7h7q77 0 113.5 7t48.5 23t12 50v21q0 50 -19 65t-86 15z" />
<glyph unicode="&#x11e;" horiz-adv-x="581" d="M290 713q-54 0 -75 18.5t-21 66.5v18q0 7 6 7h16q7 0 7 -7v-18q0 -35 13 -46.5t54 -11.5h4q42 0 55 11.5t13 46.5v18q0 7 6 7h16q7 0 7 -7v-18q0 -48 -21 -66.5t-76 -18.5h-4zM478 466q-7 0 -7 6v17q0 76 -35.5 103.5t-139.5 27.5h-6q-104 0 -139.5 -27.5t-35.5 -103.5 v-333q0 -76 35.5 -103.5t139.5 -27.5h6q104 0 139.5 27.5t35.5 103.5v128h-151q-6 0 -6 6v20q0 6 6 6h179q7 0 7 -6v-154q0 -91 -45 -127.5t-165 -36.5h-6q-120 0 -165 36.5t-45 127.5v333q0 91 45 127.5t165 36.5h6q120 0 165 -36.5t45 -127.5v-17q0 -6 -7 -6h-21z" />
<glyph unicode="&#x11f;" horiz-adv-x="507" d="M261 561q-54 0 -75 18.5t-21 66.5v18q0 7 6 7h16q7 0 7 -7v-18q0 -35 13 -46.5t54 -11.5h4q42 0 55 11.5t13 46.5v18q0 7 6 7h16q7 0 7 -7v-18q0 -48 -21 -66.5t-76 -18.5h-4zM475 486q0 -6 -6 -7l-101 -5q42 -10 57 -36.5t15 -83.5v-47q0 -85 -37.5 -116t-144.5 -31h-6 q-58 0 -96 9q-53 -12 -53 -69v-10q0 -29 17 -41t64 -12h164q71 0 99 -25t28 -87v-21q0 -65 -41 -88.5t-167 -23.5h-7q-125 0 -166 23.5t-41 88.5v14q0 81 51 102q-35 20 -35 68v11q0 62 55 81q-55 28 -55 127v47q0 85 38 116t145 31h216q7 0 7 -6v-9zM406 354q0 70 -28 92.5 t-120 22.5h-6q-92 0 -120.5 -22.5t-28.5 -92.5v-47q0 -70 28.5 -92.5t120.5 -22.5h6q92 0 120 22.5t28 92.5v47zM336 5h-156q-26 0 -49 5q-24 -10 -33.5 -30t-9.5 -59v-17q0 -34 12 -50t48 -23t112 -7h7q77 0 113.5 7t48.5 23t12 50v21q0 50 -19 65t-86 15z" />
<glyph unicode="&#x120;" horiz-adv-x="581" d="M281 738q-7 0 -7 7v71q0 7 7 7h23q7 0 7 -7v-71q0 -7 -7 -7h-23zM478 466q-7 0 -7 6v17q0 76 -35.5 103.5t-139.5 27.5h-6q-104 0 -139.5 -27.5t-35.5 -103.5v-333q0 -76 35.5 -103.5t139.5 -27.5h6q104 0 139.5 27.5t35.5 103.5v128h-151q-6 0 -6 6v20q0 6 6 6h179 q7 0 7 -6v-154q0 -91 -45 -127.5t-165 -36.5h-6q-120 0 -165 36.5t-45 127.5v333q0 91 45 127.5t165 36.5h6q120 0 165 -36.5t45 -127.5v-17q0 -6 -7 -6h-21z" />
<glyph unicode="&#x121;" horiz-adv-x="507" d="M252 586q-7 0 -7 7v71q0 7 7 7h23q7 0 7 -7v-71q0 -7 -7 -7h-23zM475 486q0 -6 -6 -7l-101 -5q42 -10 57 -36.5t15 -83.5v-47q0 -85 -37.5 -116t-144.5 -31h-6q-58 0 -96 9q-53 -12 -53 -69v-10q0 -29 17 -41t64 -12h164q71 0 99 -25t28 -87v-21q0 -65 -41 -88.5 t-167 -23.5h-7q-125 0 -166 23.5t-41 88.5v14q0 81 51 102q-35 20 -35 68v11q0 62 55 81q-55 28 -55 127v47q0 85 38 116t145 31h216q7 0 7 -6v-9zM406 354q0 70 -28 92.5t-120 22.5h-6q-92 0 -120.5 -22.5t-28.5 -92.5v-47q0 -70 28.5 -92.5t120.5 -22.5h6q92 0 120 22.5 t28 92.5v47zM336 5h-156q-26 0 -49 5q-24 -10 -33.5 -30t-9.5 -59v-17q0 -34 12 -50t48 -23t112 -7h7q77 0 113.5 7t48.5 23t12 50v21q0 50 -19 65t-86 15z" />
<glyph unicode="&#x122;" horiz-adv-x="581" d="M478 466q-7 0 -7 6v17q0 76 -35.5 103.5t-139.5 27.5h-6q-104 0 -139.5 -27.5t-35.5 -103.5v-333q0 -76 35.5 -103.5t139.5 -27.5h6q104 0 139.5 27.5t35.5 103.5v128h-151q-6 0 -6 6v20q0 6 6 6h179q7 0 7 -6v-154q0 -91 -45 -127.5t-165 -36.5h-6q-120 0 -165 36.5 t-45 127.5v333q0 91 45 127.5t165 36.5h6q120 0 165 -36.5t45 -127.5v-17q0 -6 -7 -6h-21zM302 -76q7 0 7 -7v-48q0 -6 -1 -13l-13 -71q-1 -6 -8 -6h-5q-6 0 -6 7v131q0 7 6 7h20z" />
<glyph unicode="&#x123;" horiz-adv-x="507" d="M253 564q-6 0 -6 7v131q0 7 6 7h5q7 0 8 -6l13 -71q1 -7 1 -13v-48q0 -7 -7 -7h-20zM475 486q0 -6 -6 -7l-101 -5q42 -10 57 -36.5t15 -83.5v-47q0 -85 -37.5 -116t-144.5 -31h-6q-58 0 -96 9q-53 -12 -53 -69v-10q0 -29 17 -41t64 -12h164q71 0 99 -25t28 -87v-21 q0 -65 -41 -88.5t-167 -23.5h-7q-125 0 -166 23.5t-41 88.5v14q0 81 51 102q-35 20 -35 68v11q0 62 55 81q-55 28 -55 127v47q0 85 38 116t145 31h216q7 0 7 -6v-9zM406 354q0 70 -28 92.5t-120 22.5h-6q-92 0 -120.5 -22.5t-28.5 -92.5v-47q0 -70 28.5 -92.5t120.5 -22.5h6 q92 0 120 22.5t28 92.5v47zM336 5h-156q-26 0 -49 5q-24 -10 -33.5 -30t-9.5 -59v-17q0 -34 12 -50t48 -23t112 -7h7q77 0 113.5 7t48.5 23t12 50v21q0 50 -19 65t-86 15z" />
<glyph unicode="&#x124;" horiz-adv-x="599" d="M198 716q-4 0 -5.5 2.5t1.5 5.5l87 95q4 4 8 4h21q4 0 8 -4l87 -95q6 -8 -5 -8h-22q-4 0 -9 4l-70 80l-70 -80q-4 -4 -8 -4h-23zM502 645q7 0 7 -7v-631q0 -7 -7 -7h-22q-6 0 -6 7v302h-349v-302q0 -7 -7 -7h-21q-7 0 -7 7v631q0 7 7 7h21q7 0 7 -7v-296h349v296q0 7 6 7 h22z" />
<glyph unicode="&#x125;" horiz-adv-x="534" d="M173 775l-70 80l-70 -80q-4 -4 -8 -4h-23q-4 0 -5.5 2.5t1.5 5.5l87 95q4 4 8 4h21q4 0 8 -4l87 -95q6 -8 -5 -8h-22q-4 0 -9 4zM300 501q83 0 118.5 -38.5t35.5 -123.5v-332q0 -7 -7 -7h-22q-6 0 -6 7v325q0 77 -27 107t-97 30q-90 0 -175 -41v-421q0 -7 -7 -7h-21 q-7 0 -7 7v686q0 7 7 7h21q7 0 7 -7v-238q86 46 180 46z" />
<glyph unicode="&#x126;" horiz-adv-x="599" d="M540 495q7 0 7 -6v-17q0 -7 -7 -7h-31v-458q0 -7 -7 -7h-22q-6 0 -6 7v302h-349v-302q0 -7 -7 -7h-21q-7 0 -7 7v458h-32q-7 0 -7 7v17q0 6 7 6h32v143q0 7 7 7h21q7 0 7 -7v-143h349v143q0 7 6 7h22q7 0 7 -7v-143h31zM474 342v123h-349v-123h349z" />
<glyph unicode="&#x127;" horiz-adv-x="534" d="M300 501q83 0 118.5 -38.5t35.5 -123.5v-332q0 -7 -7 -7h-22q-6 0 -6 7v325q0 77 -27 107t-97 30q-90 0 -175 -41v-421q0 -7 -7 -7h-21q-7 0 -7 7v601h-43q-7 0 -7 6v15q0 7 7 7h43v57q0 7 7 7h21q7 0 7 -7v-57h173q7 0 7 -7v-15q0 -6 -7 -6h-173v-153q86 46 180 46z" />
<glyph unicode="&#x128;" horiz-adv-x="215" d="M184 719q-24 0 -53 18l-65 44q-20 14 -35 14q-22 0 -22 -32v-27q0 -6 -7 -6h-14q-6 0 -6 6v26q0 27 13 42.5t36 15.5q24 0 53 -18l65 -44q20 -14 34 -14q23 0 23 32v27q0 6 6 6h14q7 0 7 -6v-26q0 -27 -13 -42.5t-36 -15.5zM97 0q-7 0 -7 7v631q0 7 7 7h21q7 0 7 -7v-631 q0 -7 -7 -7h-21z" />
<glyph unicode="&#x129;" horiz-adv-x="205" d="M180 567q-24 0 -53 18l-65 44q-20 14 -35 14q-22 0 -22 -32v-27q0 -6 -7 -6h-14q-6 0 -6 6v26q0 27 13 42.5t36 15.5q25 0 53 -18l65 -44q20 -14 34 -14q23 0 23 32v27q0 6 6 6h14q7 0 7 -6v-26q0 -27 -13 -42.5t-36 -15.5zM92 0q-7 0 -7 7v480q0 6 7 6h21q7 0 7 -6v-480 q0 -7 -7 -7h-21z" />
<glyph unicode="&#x12a;" horiz-adv-x="215" d="M11 738q-7 0 -7 7v17q0 7 7 7h193q7 0 7 -7v-17q0 -7 -7 -7h-193zM97 0q-7 0 -7 7v631q0 7 7 7h21q7 0 7 -7v-631q0 -7 -7 -7h-21z" />
<glyph unicode="&#x12b;" horiz-adv-x="205" d="M7 586q-7 0 -7 7v17q0 7 7 7h193q7 0 7 -7v-17q0 -7 -7 -7h-193zM92 0q-7 0 -7 7v480q0 6 7 6h21q7 0 7 -6v-480q0 -7 -7 -7h-21z" />
<glyph unicode="&#x12c;" horiz-adv-x="215" d="M199 823q7 0 7 -7v-18q0 -48 -21 -66.5t-76 -18.5h-4q-54 0 -75 18.5t-21 66.5v18q0 7 6 7h16q7 0 7 -7v-18q0 -35 13 -46.5t54 -11.5h4q42 0 55 11.5t13 46.5v18q0 7 6 7h16zM97 0q-7 0 -7 7v631q0 7 7 7h21q7 0 7 -7v-631q0 -7 -7 -7h-21z" />
<glyph unicode="&#x12d;" horiz-adv-x="205" d="M195 671q7 0 7 -7v-18q0 -48 -21 -66.5t-76 -18.5h-4q-54 0 -75 18.5t-21 66.5v18q0 7 6 7h16q7 0 7 -7v-18q0 -35 13 -46.5t54 -11.5h4q42 0 55 11.5t13 46.5v18q0 7 6 7h16zM92 0q-7 0 -7 7v480q0 6 7 6h21q7 0 7 -6v-480q0 -7 -7 -7h-21z" />
<glyph unicode="&#x12e;" horiz-adv-x="215" d="M79 -47q-36 -36 -44.5 -49.5t-8.5 -33.5v-8q0 -24 11 -32.5t47 -8.5h35q6 0 6 -7v-15q0 -7 -6 -7h-35q-49 0 -69.5 16.5t-20.5 53.5v8q0 24 11 41.5t48 52.5l39 37q-2 2 -2 6v631q0 7 7 7h21q7 0 7 -7v-631q0 -4 -1 -5q0 -3 -4 -7z" />
<glyph unicode="&#x12f;" horiz-adv-x="206" d="M115 671q6 0 6 -7v-71q0 -7 -6 -7h-23q-7 0 -7 7v71q0 7 7 7h23zM114 493q7 0 7 -6v-480q0 -3 -1 -4q0 -4 -4 -8l-41 -42q-36 -36 -44.5 -49.5t-8.5 -33.5v-8q0 -24 11 -32.5t47 -8.5h35q6 0 6 -7v-15q0 -7 -6 -7h-35q-49 0 -69.5 16.5t-20.5 53.5v8q0 24 11 41.5 t48 52.5l39 37q-2 2 -2 6v480q0 6 6 6h22z" />
<glyph unicode="&#x130;" horiz-adv-x="215" d="M96 738q-7 0 -7 7v71q0 7 7 7h23q7 0 7 -7v-71q0 -7 -7 -7h-23zM97 0q-7 0 -7 7v631q0 7 7 7h21q7 0 7 -7v-631q0 -7 -7 -7h-21z" />
<glyph unicode="&#x131;" horiz-adv-x="205" d="M92 0q-7 0 -7 7v480q0 6 7 6h21q7 0 7 -6v-480q0 -7 -7 -7h-21z" />
<glyph unicode="&#x132;" horiz-adv-x="696" d="M97 0q-7 0 -7 7v631q0 7 7 7h21q7 0 7 -7v-631q0 -7 -7 -7h-21zM421 -8q-103 0 -143.5 37t-40.5 127v23q0 7 6 7h22q7 0 7 -7v-23q0 -75 31.5 -103t117.5 -28h6q85 0 117 28.5t32 102.5v482q0 7 6 7h22q7 0 7 -7v-482q0 -90 -41 -127t-143 -37h-6z" />
<glyph unicode="&#x133;" horiz-adv-x="412" d="M92 586q-7 0 -7 7v71q0 7 7 7h23q6 0 6 -7v-71q0 -7 -6 -7h-23zM297 586q-7 0 -7 7v71q0 7 7 7h23q7 0 7 -7v-71q0 -7 -7 -7h-23zM92 0q-6 0 -6 7v480q0 6 6 6h22q7 0 7 -6v-480q0 -7 -7 -7h-22zM181 -208q-6 0 -6 7v18q0 7 6 7h13q60 0 78.5 22t18.5 95v546q0 6 7 6h21 q7 0 7 -6v-552q0 -84 -27 -113.5t-103 -29.5h-15z" />
<glyph unicode="&#x134;" horiz-adv-x="491" d="M494 724q6 -8 -5 -8h-22q-4 0 -9 4l-70 80l-70 -80q-4 -4 -8 -4h-23q-4 0 -5.5 2.5t1.5 5.5l87 95q4 4 8 4h21q4 0 8 -4zM399 645q7 0 7 -7v-482q0 -90 -41 -127t-143 -37h-6q-103 0 -143.5 37t-40.5 127v23q0 7 6 7h22q7 0 7 -7v-23q0 -75 31.5 -103t117.5 -28h6 q85 0 117 28.5t32 102.5v482q0 7 6 7h22z" />
<glyph unicode="&#x135;" horiz-adv-x="205" d="M209 572q6 -8 -5 -8h-22q-4 0 -9 4l-70 80l-70 -80q-4 -4 -8 -4h-23q-4 0 -5.5 2.5t1.5 5.5l87 95q4 4 8 4h21q4 0 8 -4zM113 493q7 0 7 -6v-552q0 -84 -27 -113.5t-103 -29.5h-15q-6 0 -6 7v18q0 6 6 6h13q60 0 78.5 22t18.5 96v546q0 6 7 6h21z" />
<glyph unicode="&#x136;" horiz-adv-x="537" d="M511 8q5 -8 -5 -8h-26q-5 0 -9 6l-199 344l-147 -182v-161q0 -7 -7 -7h-21q-7 0 -7 7v631q0 7 7 7h21q7 0 7 -7v-419l335 421q4 5 9 5h28q10 0 4 -7l-205 -258zM280 -76q7 0 7 -7v-48q0 -6 -1 -13l-13 -71q-1 -6 -8 -6h-5q-6 0 -6 7v131q0 7 6 7h20z" />
<glyph unicode="&#x137;" horiz-adv-x="466" d="M443 7q4 -7 -5 -7h-27q-4 0 -8 5l-157 268l-126 -140v-126q0 -7 -7 -7h-21q-7 0 -7 7v686q0 7 7 7h21q7 0 7 -7v-514l275 311q4 3 8 3h29q9 0 2 -8l-164 -185zM249 -76q7 0 7 -7v-48q0 -6 -1 -13l-13 -71q-1 -6 -8 -6h-5q-6 0 -6 7v131q0 7 6 7h20z" />
<glyph unicode="&#x138;" horiz-adv-x="466" d="M443 7q4 -7 -5 -7h-26q-6 0 -8 5l-158 268l-126 -140v-126q0 -7 -7 -7h-21q-7 0 -7 7v480q0 7 7 7h21q7 0 7 -7v-308l275 311q4 3 8 3h29q9 0 2 -8l-164 -185z" />
<glyph unicode="&#x139;" horiz-adv-x="445" d="M195 716q-5 0 -6.5 2.5t2.5 6.5l95 94q3 4 8 4h29q4 0 5.5 -2.5t-1.5 -5.5l-102 -95q-4 -4 -8 -4h-22zM410 33q7 0 7 -7v-19q0 -7 -7 -7h-313q-7 0 -7 7v631q0 7 7 7h21q7 0 7 -7v-605h285z" />
<glyph unicode="&#x13a;" horiz-adv-x="205" d="M65 771q-5 0 -6.5 2.5t2.5 6.5l95 94q3 4 8 4h29q4 0 5.5 -2.5t-1.5 -5.5l-102 -95q-4 -4 -8 -4h-22zM92 0q-7 0 -7 7v686q0 7 7 7h21q7 0 7 -7v-686q0 -7 -7 -7h-21z" />
<glyph unicode="&#x13b;" horiz-adv-x="445" d="M410 33q7 0 7 -7v-19q0 -7 -7 -7h-313q-7 0 -7 7v631q0 7 7 7h21q7 0 7 -7v-605h285zM242 -76q7 0 7 -7v-48q0 -6 -1 -13l-13 -71q-1 -6 -8 -6h-5q-6 0 -6 7v131q0 7 6 7h20z" />
<glyph unicode="&#x13c;" horiz-adv-x="205" d="M92 0q-7 0 -7 7v686q0 7 7 7h21q7 0 7 -7v-686q0 -7 -7 -7h-21zM93 -221q-6 0 -6 7v131q0 7 6 7h20q7 0 7 -7v-48q0 -6 -1 -13l-13 -71q-1 -6 -8 -6h-5z" />
<glyph unicode="&#x13d;" horiz-adv-x="445" d="M297 495q-6 0 -6 7v191q0 7 6 7h22q6 0 6 -7v-68q0 -6 -1 -15l-14 -109q0 -6 -7 -6h-6zM410 33q7 0 7 -7v-19q0 -7 -7 -7h-313q-7 0 -7 7v631q0 7 7 7h21q7 0 7 -7v-605h285z" />
<glyph unicode="&#x13e;" horiz-adv-x="205" d="M210 563q-6 0 -6 7v131q0 7 6 7h20q7 0 7 -7v-48q0 -6 -1 -13l-13 -71q-1 -6 -8 -6h-5zM92 0q-7 0 -7 7v686q0 7 7 7h21q7 0 7 -7v-686q0 -7 -7 -7h-21z" />
<glyph unicode="&#x13f;" horiz-adv-x="445" d="M410 33q7 0 7 -7v-19q0 -7 -7 -7h-313q-7 0 -7 7v631q0 7 7 7h21q7 0 7 -7v-605h285zM261 282q-6 0 -6 7v66q0 7 6 7h25q7 0 7 -7v-66q0 -7 -7 -7h-25z" />
<glyph unicode="&#x140;" horiz-adv-x="301" d="M92 0q-7 0 -7 7v686q0 7 7 7h21q7 0 7 -7v-686q0 -7 -7 -7h-21zM220 282q-6 0 -6 7v66q0 7 6 7h25q7 0 7 -7v-66q0 -7 -7 -7h-25z" />
<glyph unicode="&#x141;" horiz-adv-x="445" d="M410 33q7 0 7 -7v-19q0 -7 -7 -7h-313q-7 0 -7 7v228l-70 -37q-7 -4 -7 5v19q0 5 4 7l73 39v370q0 7 7 7h21q7 0 7 -7v-352l193 103q8 5 8 -5v-18q0 -6 -4 -8l-197 -104v-221h285z" />
<glyph unicode="&#x142;" horiz-adv-x="252" d="M233 404q7 6 7 -5v-18q0 -5 -3 -8l-93 -61v-305q0 -7 -7 -7h-21q-7 0 -7 7v283l-90 -59q-7 -5 -7 5v18q0 6 4 8l93 61v370q0 7 7 7h21q7 0 7 -7v-347z" />
<glyph unicode="&#x143;" horiz-adv-x="627" d="M276 716q-5 0 -6.5 2.5t2.5 6.5l95 94q3 4 8 4h29q4 0 5.5 -2.5t-1.5 -5.5l-102 -95q-4 -4 -8 -4h-22zM530 645q7 0 7 -7v-631q0 -7 -7 -7h-24q-6 0 -9 6l-256 397q-72 112 -119 195q3 -71 3 -195v-396q0 -7 -7 -7h-21q-7 0 -7 7v631q0 7 7 7h24q6 0 9 -6l256 -397 q88 -139 119 -195q-3 71 -3 195v396q0 7 6 7h22z" />
<glyph unicode="&#x144;" horiz-adv-x="534" d="M232 564q-5 0 -6.5 2.5t2.5 6.5l95 94q3 4 8 4h29q4 0 5.5 -2.5t-1.5 -5.5l-102 -95q-4 -4 -8 -4h-22zM300 501q83 0 118.5 -38.5t35.5 -123.5v-332q0 -7 -7 -7h-22q-6 0 -6 7v325q0 77 -27 107t-97 30q-90 0 -175 -41v-421q0 -7 -7 -7h-21q-7 0 -7 7v480q0 6 5 6h12 q5 0 7 -5l10 -31q88 44 181 44z" />
<glyph unicode="&#x145;" horiz-adv-x="627" d="M530 645q7 0 7 -7v-631q0 -7 -7 -7h-24q-6 0 -9 6l-256 397q-72 112 -119 195q3 -71 3 -195v-396q0 -7 -7 -7h-21q-7 0 -7 7v631q0 7 7 7h24q6 0 9 -6l256 -397q88 -139 119 -195q-3 71 -3 195v396q0 7 6 7h22zM323 -76q7 0 7 -7v-48q0 -6 -1 -13l-13 -71q-1 -6 -8 -6h-5 q-6 0 -6 7v131q0 7 6 7h20z" />
<glyph unicode="&#x146;" horiz-adv-x="534" d="M300 501q83 0 118.5 -38.5t35.5 -123.5v-332q0 -7 -7 -7h-22q-6 0 -6 7v325q0 77 -27 107t-97 30q-90 0 -175 -41v-421q0 -7 -7 -7h-21q-7 0 -7 7v480q0 6 5 6h12q5 0 7 -5l10 -31q88 44 181 44zM277 -76q7 0 7 -7v-48q0 -6 -1 -13l-13 -71q-1 -6 -8 -6h-5q-6 0 -6 7v131 q0 7 6 7h20z" />
<glyph unicode="&#x147;" horiz-adv-x="627" d="M295 720l-87 95q-3 3 -1.5 5.5t5.5 2.5h23q4 0 8 -4l70 -80l70 80q5 4 9 4h22q11 0 5 -8l-87 -95q-4 -4 -8 -4h-21q-4 0 -8 4zM530 645q7 0 7 -7v-631q0 -7 -7 -7h-24q-6 0 -9 6l-256 397q-72 112 -119 195q3 -71 3 -195v-396q0 -7 -7 -7h-21q-7 0 -7 7v631q0 7 7 7h24 q6 0 9 -6l256 -397q88 -139 119 -195q-3 71 -3 195v396q0 7 6 7h22z" />
<glyph unicode="&#x148;" horiz-adv-x="534" d="M251 568l-87 95q-3 3 -1.5 5.5t5.5 2.5h23q4 0 8 -4l70 -80l70 80q5 4 9 4h22q11 0 5 -8l-87 -95q-4 -4 -8 -4h-21q-4 0 -8 4zM300 501q83 0 118.5 -38.5t35.5 -123.5v-332q0 -7 -7 -7h-22q-6 0 -6 7v325q0 77 -27 107t-97 30q-90 0 -175 -41v-421q0 -7 -7 -7h-21 q-7 0 -7 7v480q0 6 5 6h12q5 0 7 -5l10 -31q88 44 181 44z" />
<glyph unicode="&#x14a;" horiz-adv-x="625" d="M529 645q6 0 6 -7v-715q0 -66 -37.5 -98.5t-117.5 -32.5h-33q-7 0 -7 7v19q0 7 7 7h33q64 0 92 24t28 74v77l-259 403q-72 112 -119 195q3 -71 3 -195v-396q0 -7 -7 -7h-21q-7 0 -7 7v631q0 7 7 7h23q7 0 10 -6l256 -397q74 -115 117 -193q-3 70 -3 193v396q0 7 7 7h22z " />
<glyph unicode="&#x14b;" horiz-adv-x="534" d="M300 501q83 0 118.5 -38.5t35.5 -123.5v-404q0 -84 -27.5 -113.5t-103.5 -29.5h-14q-7 0 -7 7v18q0 6 7 6h13q59 0 78 22t19 95v392q0 77 -27 107t-97 30q-90 0 -175 -41v-421q0 -7 -7 -7h-21q-7 0 -7 7v480q0 6 5 6h12q5 0 7 -5l10 -31q88 44 181 44z" />
<glyph unicode="&#x14c;" horiz-adv-x="591" d="M199 738q-7 0 -7 7v17q0 7 7 7h193q7 0 7 -7v-17q0 -7 -7 -7h-193zM80 156v333q0 91 45 127.5t167 36.5h6q122 0 167.5 -36.5t45.5 -127.5v-333q0 -91 -45.5 -127.5t-167.5 -36.5h-6q-122 0 -167 36.5t-45 127.5zM115 156q0 -76 36 -103.5t141 -27.5h6q106 0 142 27.5 t36 103.5v333q0 76 -36 103.5t-142 27.5h-6q-105 0 -141 -27.5t-36 -103.5v-333z" />
<glyph unicode="&#x14d;" d="M168 586q-7 0 -7 7v17q0 7 7 7h193q7 0 7 -7v-17q0 -7 -7 -7h-193zM75 149v195q0 86 41 121.5t145 35.5h6q105 0 146 -35.5t41 -121.5v-195q0 -86 -41 -121.5t-146 -35.5h-6q-104 0 -145 35.5t-41 121.5zM110 149q0 -71 31 -97.5t120 -26.5h6q89 0 120.5 26.5t31.5 97.5 v195q0 71 -31.5 98t-120.5 27h-6q-88 0 -119.5 -27t-31.5 -98v-195z" />
<glyph unicode="&#x14e;" horiz-adv-x="591" d="M387 823q7 0 7 -7v-18q0 -48 -21 -66.5t-76 -18.5h-4q-54 0 -75 18.5t-21 66.5v18q0 7 6 7h16q7 0 7 -7v-18q0 -35 13 -46.5t54 -11.5h4q42 0 55 11.5t13 46.5v18q0 7 6 7h16zM80 156v333q0 91 45 127.5t167 36.5h6q122 0 167.5 -36.5t45.5 -127.5v-333 q0 -91 -45.5 -127.5t-167.5 -36.5h-6q-122 0 -167 36.5t-45 127.5zM115 156q0 -76 36 -103.5t141 -27.5h6q106 0 142 27.5t36 103.5v333q0 76 -36 103.5t-142 27.5h-6q-105 0 -141 -27.5t-36 -103.5v-333z" />
<glyph unicode="&#x14f;" d="M356 671q7 0 7 -7v-18q0 -48 -21 -66.5t-76 -18.5h-4q-54 0 -75 18.5t-21 66.5v18q0 7 6 7h16q7 0 7 -7v-18q0 -35 13 -46.5t54 -11.5h4q42 0 55 11.5t13 46.5v18q0 7 6 7h16zM75 149v195q0 86 41 121.5t145 35.5h6q105 0 146 -35.5t41 -121.5v-195q0 -86 -41 -121.5 t-146 -35.5h-6q-104 0 -145 35.5t-41 121.5zM110 149q0 -71 31 -97.5t120 -26.5h6q89 0 120.5 26.5t31.5 97.5v195q0 71 -31.5 98t-120.5 27h-6q-88 0 -119.5 -27t-31.5 -98v-195z" />
<glyph unicode="&#x150;" horiz-adv-x="591" d="M215 716q-10 0 -5 8l57 94q4 5 8 5h23q10 0 5 -8l-62 -94q-4 -5 -9 -5h-17zM340 716q-10 0 -5 8l57 94q2 5 8 5h23q10 0 4 -8l-62 -94q-4 -5 -8 -5h-17zM80 156v333q0 91 45 127.5t167 36.5h6q122 0 167.5 -36.5t45.5 -127.5v-333q0 -91 -45.5 -127.5t-167.5 -36.5h-6 q-122 0 -167 36.5t-45 127.5zM115 156q0 -76 36 -103.5t141 -27.5h6q106 0 142 27.5t36 103.5v333q0 76 -36 103.5t-142 27.5h-6q-105 0 -141 -27.5t-36 -103.5v-333z" />
<glyph unicode="&#x151;" d="M184 564q-10 0 -5 8l57 94q4 5 8 5h23q10 0 5 -8l-62 -94q-4 -5 -9 -5h-17zM309 564q-10 0 -5 8l57 94q3 5 8 5h23q10 0 4 -8l-62 -94q-4 -5 -8 -5h-17zM75 149v195q0 86 41 121.5t145 35.5h6q105 0 146 -35.5t41 -121.5v-195q0 -86 -41 -121.5t-146 -35.5h-6 q-104 0 -145 35.5t-41 121.5zM110 149q0 -71 31 -97.5t120 -26.5h6q89 0 120.5 26.5t31.5 97.5v195q0 71 -31.5 98t-120.5 27h-6q-88 0 -119.5 -27t-31.5 -98v-195z" />
<glyph unicode="&#x152;" horiz-adv-x="858" d="M802 612h-308v-268h278q7 0 7 -7v-19q0 -7 -7 -7h-278v-278h308q7 0 7 -7v-19q0 -7 -7 -7h-336q-99 -8 -169 -8h-5q-122 0 -167 36.5t-45 127.5v333q0 91 45 127.5t167 36.5h5q70 0 169 -8h336q7 0 7 -7v-19q0 -7 -7 -7zM292 25h5q67 0 162 7v581q-95 7 -162 7h-5 q-105 0 -141 -27.5t-36 -103.5v-333q0 -76 36 -103.5t141 -27.5z" />
<glyph unicode="&#x153;" horiz-adv-x="845" d="M768 247h-322v-98q0 -71 30 -97.5t114 -26.5h6q84 0 114 26.5t30 97.5v2q0 7 7 7h21q7 0 7 -7v-2q0 -86 -39.5 -121.5t-139.5 -35.5h-6q-70 0 -108 18t-53 59q-16 -41 -55 -59t-110 -18h-6q-102 0 -142.5 35.5t-40.5 121.5v195q0 86 40.5 121.5t142.5 35.5h6 q71 0 110 -17.5t55 -58.5q14 41 52.5 58.5t108.5 17.5h6q100 0 139.5 -35.5t39.5 -121.5v-91q0 -6 -7 -6zM411 149v195q0 71 -30.5 98t-116.5 27h-6q-86 0 -117 -27t-31 -98v-195q0 -71 30.5 -97.5t117.5 -26.5h6q86 0 116.5 26.5t30.5 97.5zM590 469q-84 0 -114 -27 t-30 -98v-66h294v66q0 71 -30 98t-114 27h-6z" />
<glyph unicode="&#x154;" horiz-adv-x="545" d="M236 716q-5 0 -6.5 2.5t2.5 6.5l95 94q3 4 8 4h29q4 0 5.5 -2.5t-1.5 -5.5l-102 -95q-4 -4 -8 -4h-22zM485 9q4 -9 -5 -9h-24q-6 0 -8 5l-130 255h-19h-174v-253q0 -7 -7 -7h-21q-7 0 -7 7v631q0 7 7 7h202q96 0 137.5 -35t41.5 -114v-87q0 -67 -29 -102t-95 -44z M289 293q88 0 121 24.5t33 91.5v87q0 67 -33 91.5t-121 24.5h-164v-319h164z" />
<glyph unicode="&#x155;" horiz-adv-x="309" d="M138 564q-5 0 -6.5 2.5t2.5 6.5l95 94q3 4 8 4h29q4 0 5.5 -2.5t-1.5 -5.5l-102 -95q-4 -4 -8 -4h-22zM285 501q7 0 7 -6v-20q0 -6 -7 -6h-5q-105 0 -160 -69v-393q0 -7 -7 -7h-21q-7 0 -7 7v480q0 6 6 6h12q6 0 7 -8l9 -50q57 66 161 66h5z" />
<glyph unicode="&#x156;" horiz-adv-x="545" d="M485 9q4 -9 -5 -9h-24q-6 0 -8 5l-130 255h-19h-174v-253q0 -7 -7 -7h-21q-7 0 -7 7v631q0 7 7 7h202q96 0 137.5 -35t41.5 -114v-87q0 -67 -29 -102t-95 -44zM289 293q88 0 121 24.5t33 91.5v87q0 67 -33 91.5t-121 24.5h-164v-319h164zM286 -76q7 0 7 -7v-48 q0 -6 -1 -13l-13 -71q-1 -6 -8 -6h-5q-6 0 -6 7v131q0 7 6 7h20z" />
<glyph unicode="&#x157;" horiz-adv-x="309" d="M285 501q7 0 7 -6v-20q0 -6 -7 -6h-5q-105 0 -160 -69v-393q0 -7 -7 -7h-21q-7 0 -7 7v480q0 6 6 6h12q6 0 7 -8l9 -50q57 66 161 66h5zM112 -76q7 0 7 -7v-48q0 -6 -1 -13l-13 -71q-1 -6 -8 -6h-5q-6 0 -6 7v131q0 7 6 7h20z" />
<glyph unicode="&#x158;" horiz-adv-x="545" d="M255 720l-87 95q-3 3 -1.5 5.5t5.5 2.5h23q4 0 8 -4l70 -80l70 80q5 4 9 4h22q11 0 5 -8l-87 -95q-4 -4 -8 -4h-21q-4 0 -8 4zM485 9q4 -9 -5 -9h-24q-6 0 -8 5l-130 255h-19h-174v-253q0 -7 -7 -7h-21q-7 0 -7 7v631q0 7 7 7h202q96 0 137.5 -35t41.5 -114v-87 q0 -67 -29 -102t-95 -44zM289 293q88 0 121 24.5t33 91.5v87q0 67 -33 91.5t-121 24.5h-164v-319h164z" />
<glyph unicode="&#x159;" horiz-adv-x="309" d="M165 564q-4 0 -8 4l-87 95q-3 3 -1.5 5.5t5.5 2.5h23q4 0 8 -4l70 -80l70 80q5 4 9 4h22q11 0 5 -8l-87 -95q-4 -4 -8 -4h-21zM285 501q7 0 7 -6v-20q0 -6 -7 -6h-5q-105 0 -160 -69v-393q0 -7 -7 -7h-21q-7 0 -7 7v480q0 6 6 6h12q6 0 7 -8l9 -50q57 66 161 66h5z" />
<glyph unicode="&#x15a;" horiz-adv-x="509" d="M217 716q-5 0 -6.5 2.5t2.5 6.5l95 94q3 4 8 4h29q4 0 5.5 -2.5t-1.5 -5.5l-102 -95q-4 -4 -8 -4h-22zM50 154v29q0 6 7 6h21q7 0 7 -6v-29q0 -75 34 -102t132 -27h6q99 0 133 27t34 102v27q0 57 -20.5 78.5t-92.5 37.5l-133 30q-71 17 -97 47.5t-26 97.5v19 q0 89 42.5 125.5t153.5 36.5h6q111 0 153.5 -37t42.5 -125v-29q0 -6 -6 -6h-22q-7 0 -7 6v29q0 75 -33 102t-128 27h-6q-94 0 -127.5 -27t-33.5 -102v-19q0 -56 19.5 -77.5t85.5 -36.5l133 -30q77 -17 104 -47.5t27 -99.5v-27q0 -88 -43.5 -125t-158.5 -37h-6 q-114 0 -157.5 37t-43.5 125z" />
<glyph unicode="&#x15b;" horiz-adv-x="470" d="M198 564q-5 0 -6.5 2.5t2.5 6.5l95 94q3 4 8 4h29q4 0 5.5 -2.5t-1.5 -5.5l-102 -95q-4 -4 -8 -4h-22zM55 115v38q0 6 7 6h21q7 0 7 -6v-38q0 -48 31.5 -69t111.5 -21h6q79 0 110 21t31 69v15q0 37 -15 54.5t-64 31.5l-138 40q-58 16 -79.5 40t-21.5 67v17q0 62 39 91.5 t130 29.5h6q92 0 131.5 -29.5t39.5 -91.5v-39q0 -6 -7 -6h-21q-7 0 -7 6v39q0 48 -30 68.5t-106 20.5h-6q-75 0 -104.5 -20.5t-29.5 -68.5v-17q0 -32 15.5 -47.5t66.5 -30.5l138 -39q55 -16 76.5 -42t21.5 -74v-15q0 -62 -40 -92.5t-136 -30.5h-6q-96 0 -137 30.5t-41 92.5z " />
<glyph unicode="&#x15c;" horiz-adv-x="509" d="M153 716q-4 0 -5.5 2.5t1.5 5.5l87 95q4 4 8 4h21q4 0 8 -4l87 -95q6 -8 -5 -8h-22q-4 0 -9 4l-70 80l-70 -80q-4 -4 -8 -4h-23zM328 328q77 -17 104 -47.5t27 -99.5v-27q0 -88 -43.5 -125t-158.5 -37h-6q-114 0 -157.5 37t-43.5 125v29q0 6 7 6h21q7 0 7 -6v-29 q0 -75 34 -102t132 -27h6q99 0 133 27t34 102v27q0 57 -20.5 78.5t-92.5 37.5l-133 30q-71 17 -97 47.5t-26 97.5v19q0 89 42.5 125.5t153.5 36.5h6q111 0 153.5 -37t42.5 -125v-29q0 -6 -6 -6h-22q-7 0 -7 6v29q0 75 -33 102t-128 27h-6q-94 0 -127.5 -27t-33.5 -102v-19 q0 -56 19.5 -77.5t85.5 -36.5z" />
<glyph unicode="&#x15d;" horiz-adv-x="470" d="M134 564q-4 0 -5.5 2.5t1.5 5.5l87 95q4 4 8 4h21q4 0 8 -4l87 -95q6 -8 -5 -8h-22q-4 0 -9 4l-70 80l-70 -80q-4 -4 -8 -4h-23zM317 246q55 -16 76.5 -42t21.5 -74v-15q0 -62 -40 -92.5t-136 -30.5h-6q-96 0 -137 30.5t-41 92.5v38q0 6 7 6h21q7 0 7 -6v-38 q0 -48 31.5 -69t111.5 -21h6q79 0 110 21t31 69v15q0 37 -15 54.5t-64 31.5l-138 40q-58 16 -79.5 40t-21.5 67v17q0 62 39 91.5t130 29.5h6q92 0 131.5 -29.5t39.5 -91.5v-39q0 -6 -7 -6h-21q-7 0 -7 6v39q0 48 -30 68.5t-106 20.5h-6q-75 0 -104.5 -20.5t-29.5 -68.5v-17 q0 -32 15.5 -47.5t66.5 -30.5z" />
<glyph unicode="&#x15e;" horiz-adv-x="509" d="M328 328q77 -17 104 -47.5t27 -99.5v-27q0 -88 -43.5 -125t-158.5 -37h-6h-12l-12 -69h50q38 0 54 -13.5t16 -43.5v-16q0 -31 -15.5 -44.5t-54.5 -13.5h-78q-6 0 -6 7v14q0 6 6 6h78q25 0 33 6.5t8 24.5v16q0 18 -8 24.5t-33 6.5h-77q-8 0 -6 7l17 89q-91 6 -126 43.5 t-35 117.5v29q0 6 7 6h21q7 0 7 -6v-29q0 -75 34 -102t132 -27h6q99 0 133 27t34 102v27q0 57 -20.5 78.5t-92.5 37.5l-133 30q-71 17 -97 47.5t-26 97.5v19q0 89 42.5 125.5t153.5 36.5h6q111 0 153.5 -37t42.5 -125v-29q0 -6 -6 -6h-22q-7 0 -7 6v29q0 75 -33 102t-128 27 h-6q-94 0 -127.5 -27t-33.5 -102v-19q0 -56 19.5 -77.5t85.5 -36.5z" />
<glyph unicode="&#x15f;" horiz-adv-x="470" d="M317 246q55 -16 76.5 -42t21.5 -74v-15q0 -62 -40 -92.5t-136 -30.5h-6h-13l-12 -69h50q38 0 54 -13.5t16 -43.5v-16q0 -31 -15.5 -44.5t-54.5 -13.5h-78q-6 0 -6 7v14q0 6 6 6h78q25 0 33 6.5t8 24.5v16q0 18 -8 24.5t-33 6.5h-77q-8 0 -6 7l17 90q-73 6 -105 36t-32 85 v38q0 6 7 6h21q7 0 7 -6v-38q0 -48 31.5 -69t111.5 -21h6q79 0 110 21t31 69v15q0 37 -15 54.5t-64 31.5l-138 40q-58 16 -79.5 40t-21.5 67v17q0 62 39 91.5t130 29.5h6q92 0 131.5 -29.5t39.5 -91.5v-39q0 -6 -7 -6h-21q-7 0 -7 6v39q0 48 -30 68.5t-106 20.5h-6 q-75 0 -104.5 -20.5t-29.5 -68.5v-17q0 -32 15.5 -47.5t66.5 -30.5z" />
<glyph unicode="&#x160;" horiz-adv-x="509" d="M236 720l-87 95q-3 3 -1.5 5.5t5.5 2.5h23q4 0 8 -4l70 -80l70 80q5 4 9 4h22q11 0 5 -8l-87 -95q-4 -4 -8 -4h-21q-4 0 -8 4zM328 328q77 -17 104 -47.5t27 -99.5v-27q0 -88 -43.5 -125t-158.5 -37h-6q-114 0 -157.5 37t-43.5 125v29q0 6 7 6h21q7 0 7 -6v-29 q0 -75 34 -102t132 -27h6q99 0 133 27t34 102v27q0 57 -20.5 78.5t-92.5 37.5l-133 30q-71 17 -97 47.5t-26 97.5v19q0 89 42.5 125.5t153.5 36.5h6q111 0 153.5 -37t42.5 -125v-29q0 -6 -6 -6h-22q-7 0 -7 6v29q0 75 -33 102t-128 27h-6q-94 0 -127.5 -27t-33.5 -102v-19 q0 -56 19.5 -77.5t85.5 -36.5z" />
<glyph unicode="&#x161;" horiz-adv-x="470" d="M217 568l-87 95q-3 3 -1.5 5.5t5.5 2.5h23q4 0 8 -4l70 -80l70 80q5 4 9 4h22q11 0 5 -8l-87 -95q-4 -4 -8 -4h-21q-4 0 -8 4zM317 246q55 -16 76.5 -42t21.5 -74v-15q0 -62 -40 -92.5t-136 -30.5h-6q-96 0 -137 30.5t-41 92.5v38q0 6 7 6h21q7 0 7 -6v-38 q0 -48 31.5 -69t111.5 -21h6q79 0 110 21t31 69v15q0 37 -15 54.5t-64 31.5l-138 40q-58 16 -79.5 40t-21.5 67v17q0 62 39 91.5t130 29.5h6q92 0 131.5 -29.5t39.5 -91.5v-39q0 -6 -7 -6h-21q-7 0 -7 6v39q0 48 -30 68.5t-106 20.5h-6q-75 0 -104.5 -20.5t-29.5 -68.5v-17 q0 -32 15.5 -47.5t66.5 -30.5z" />
<glyph unicode="&#x162;" horiz-adv-x="455" d="M429 645q7 0 7 -7v-19q0 -7 -7 -7h-184v-605q0 -7 -7 -7h-21q-7 0 -7 7v605h-184q-7 0 -7 7v19q0 7 7 7h403zM237 -76q7 0 7 -7v-48q0 -6 -1 -13l-13 -71q-1 -6 -8 -6h-5q-6 0 -6 7v131q0 7 6 7h20z" />
<glyph unicode="&#x163;" horiz-adv-x="317" d="M282 28q7 0 7 -7v-18q0 -7 -7 -7h-42q-76 0 -103.5 29t-27.5 113v324h-90q-7 0 -7 7v8q0 5 8 6l89 8v147q0 7 7 7h21q7 0 7 -7v-145h136q7 0 7 -6v-18q0 -7 -7 -7h-136v-318q0 -72 19 -94t79 -22h40zM203 -76q7 0 7 -7v-48q0 -6 -1 -13l-13 -71q-1 -6 -8 -6h-5q-6 0 -6 7 v131q0 7 6 7h20z" />
<glyph unicode="&#x164;" horiz-adv-x="455" d="M210 720l-87 95q-3 3 -1.5 5.5t5.5 2.5h23q4 0 8 -4l70 -80l70 80q5 4 9 4h22q11 0 5 -8l-87 -95q-4 -4 -8 -4h-21q-4 0 -8 4zM429 645q7 0 7 -7v-19q0 -7 -7 -7h-184v-605q0 -7 -7 -7h-21q-7 0 -7 7v605h-184q-7 0 -7 7v19q0 7 7 7h403z" />
<glyph unicode="&#x165;" horiz-adv-x="316" d="M243 592q-6 0 -6 7v131q0 7 6 7h20q7 0 7 -7v-48q0 -6 -1 -13l-13 -71q-1 -6 -8 -6h-5zM282 28q7 0 7 -7v-18q0 -7 -7 -7h-42q-76 0 -103.5 29t-27.5 113v324h-90q-7 0 -7 7v8q0 5 8 6l89 8v147q0 7 7 7h21q7 0 7 -7v-145h136q7 0 7 -6v-18q0 -7 -7 -7h-136v-318 q0 -72 19 -94t79 -22h40z" />
<glyph unicode="&#x166;" horiz-adv-x="455" d="M429 645q7 0 7 -7v-19q0 -7 -7 -7h-184v-266h108q7 0 7 -7v-15q0 -6 -7 -6h-108v-311q0 -7 -7 -7h-21q-7 0 -7 7v311h-108q-7 0 -7 6v15q0 7 7 7h108v266h-184q-7 0 -7 7v19q0 7 7 7h403z" />
<glyph unicode="&#x167;" horiz-adv-x="317" d="M282 28q7 0 7 -7v-18q0 -7 -7 -7h-42q-76 0 -103.5 29t-27.5 113v142h-84q-7 0 -7 6v15q0 7 7 7h84v154h-90q-7 0 -7 7v8q0 5 8 6l89 8v147q0 7 7 7h21q7 0 7 -7v-145h136q7 0 7 -6v-18q0 -7 -7 -7h-136v-154h132q7 0 7 -7v-15q0 -6 -7 -6h-132v-136q0 -72 19 -94t79 -22 h40z" />
<glyph unicode="&#x168;" horiz-adv-x="589" d="M371 719q-25 0 -53 18l-65 44q-20 14 -35 14q-22 0 -22 -32v-27q0 -6 -7 -6h-14q-6 0 -6 6v26q0 27 13 42.5t36 15.5q25 0 53 -18l65 -44q20 -14 34 -14q23 0 23 32v27q0 6 6 6h14q7 0 7 -6v-26q0 -27 -13 -42.5t-36 -15.5zM85 156v482q0 7 7 7h21q7 0 7 -7v-482 q0 -75 35 -103t136 -28h6q101 0 136.5 28t35.5 103v482q0 7 6 7h22q7 0 7 -7v-482q0 -91 -44.5 -127.5t-162.5 -36.5h-6q-117 0 -161.5 36.5t-44.5 127.5z" />
<glyph unicode="&#x169;" horiz-adv-x="530" d="M145 578q-6 0 -6 6v26q0 27 13 42.5t36 15.5q24 0 53 -18l65 -44q20 -14 34 -14q23 0 23 32v27q0 6 6 6h14q7 0 7 -6v-26q0 -27 -13 -42.5t-36 -15.5q-25 0 -53 18l-65 44q-20 14 -35 14q-22 0 -22 -32v-27q0 -6 -7 -6h-14zM438 493q7 0 7 -6v-480q0 -7 -6 -7h-11 q-5 0 -7 5l-11 33q-85 -46 -178 -46q-82 0 -117 38.5t-35 124.5v332q0 6 7 6h21q7 0 7 -6v-325q0 -78 27 -107.5t96 -29.5q91 0 172 42v420q0 6 6 6h22z" />
<glyph unicode="&#x16a;" horiz-adv-x="589" d="M198 738q-7 0 -7 7v17q0 7 7 7h193q7 0 7 -7v-17q0 -7 -7 -7h-193zM85 156v482q0 7 7 7h21q7 0 7 -7v-482q0 -75 35 -103t136 -28h6q101 0 136.5 28t35.5 103v482q0 7 6 7h22q7 0 7 -7v-482q0 -91 -44.5 -127.5t-162.5 -36.5h-6q-117 0 -161.5 36.5t-44.5 127.5z" />
<glyph unicode="&#x16b;" horiz-adv-x="530" d="M168 586q-7 0 -7 7v17q0 7 7 7h193q7 0 7 -7v-17q0 -7 -7 -7h-193zM438 493q7 0 7 -6v-480q0 -7 -6 -7h-11q-5 0 -7 5l-11 33q-85 -46 -178 -46q-82 0 -117 38.5t-35 124.5v332q0 6 7 6h21q7 0 7 -6v-325q0 -78 27 -107.5t96 -29.5q91 0 172 42v420q0 6 6 6h22z" />
<glyph unicode="&#x16c;" horiz-adv-x="589" d="M386 823q7 0 7 -7v-18q0 -48 -21 -66.5t-76 -18.5h-4q-54 0 -75 18.5t-21 66.5v18q0 7 6 7h16q7 0 7 -7v-18q0 -35 13 -46.5t54 -11.5h4q42 0 55 11.5t13 46.5v18q0 7 6 7h16zM85 156v482q0 7 7 7h21q7 0 7 -7v-482q0 -75 35 -103t136 -28h6q101 0 136.5 28t35.5 103v482 q0 7 6 7h22q7 0 7 -7v-482q0 -91 -44.5 -127.5t-162.5 -36.5h-6q-117 0 -161.5 36.5t-44.5 127.5z" />
<glyph unicode="&#x16d;" horiz-adv-x="530" d="M262 561q-54 0 -75 18.5t-21 66.5v18q0 7 6 7h16q7 0 7 -7v-18q0 -35 13 -46.5t54 -11.5h4q42 0 55 11.5t13 46.5v18q0 7 6 7h16q7 0 7 -7v-18q0 -48 -21 -66.5t-76 -18.5h-4zM438 493q7 0 7 -6v-480q0 -7 -6 -7h-11q-5 0 -7 5l-11 33q-85 -46 -178 -46q-82 0 -117 38.5 t-35 124.5v332q0 6 7 6h21q7 0 7 -6v-325q0 -78 27 -107.5t96 -29.5q91 0 172 42v420q0 6 6 6h22z" />
<glyph unicode="&#x16e;" horiz-adv-x="589" d="M293 712q-46 0 -62 11.5t-16 43.5v15q0 32 16 44t62 12h2q46 0 62 -12t16 -44v-15q0 -32 -15.5 -43.5t-62.5 -11.5h-2zM293 735h2q35 0 44 6t9 28v12q0 22 -9 28t-44 6h-2q-35 0 -44 -6t-9 -28v-12q0 -22 9 -28t44 -6zM85 156v482q0 7 7 7h21q7 0 7 -7v-482 q0 -75 35 -103t136 -28h6q101 0 136.5 28t35.5 103v482q0 7 6 7h22q7 0 7 -7v-482q0 -91 -44.5 -127.5t-162.5 -36.5h-6q-117 0 -161.5 36.5t-44.5 127.5z" />
<glyph unicode="&#x16f;" horiz-adv-x="530" d="M263 560q-46 0 -62 11.5t-16 43.5v15q0 32 16 44t62 12h2q46 0 62 -12t16 -44v-15q0 -32 -15.5 -43.5t-62.5 -11.5h-2zM210 629v-12q0 -22 9 -28t44 -6h2q35 0 44 6t9 28v12q0 22 -9 28t-44 6h-2q-35 0 -44 -6t-9 -28zM438 493q7 0 7 -6v-480q0 -7 -6 -7h-11q-5 0 -7 5 l-11 33q-85 -46 -178 -46q-82 0 -117 38.5t-35 124.5v332q0 6 7 6h21q7 0 7 -6v-325q0 -78 27 -107.5t96 -29.5q91 0 172 42v420q0 6 6 6h22z" />
<glyph unicode="&#x170;" horiz-adv-x="589" d="M214 716q-10 0 -5 8l57 94q4 5 8 5h23q10 0 5 -8l-62 -94q-4 -5 -9 -5h-17zM339 716q-10 0 -5 8l57 94q3 5 8 5h23q10 0 4 -8l-62 -94q-4 -5 -8 -5h-17zM85 156v482q0 7 7 7h21q7 0 7 -7v-482q0 -75 35 -103t136 -28h6q101 0 136.5 28t35.5 103v482q0 7 6 7h22q7 0 7 -7 v-482q0 -91 -44.5 -127.5t-162.5 -36.5h-6q-117 0 -161.5 36.5t-44.5 127.5z" />
<glyph unicode="&#x171;" horiz-adv-x="530" d="M184 564q-10 0 -5 8l57 94q4 5 8 5h23q10 0 5 -8l-62 -94q-4 -5 -9 -5h-17zM309 564q-10 0 -5 8l57 94q3 5 8 5h23q10 0 4 -8l-62 -94q-4 -5 -8 -5h-17zM438 493q7 0 7 -6v-480q0 -7 -6 -7h-11q-5 0 -7 5l-11 33q-85 -46 -178 -46q-82 0 -117 38.5t-35 124.5v332q0 6 7 6 h21q7 0 7 -6v-325q0 -78 27 -107.5t96 -29.5q91 0 172 42v420q0 6 6 6h22z" />
<glyph unicode="&#x172;" horiz-adv-x="589" d="M497 645q7 0 7 -7v-482q0 -84 -36.5 -121t-131.5 -42l-39 -40q-36 -36 -44.5 -49.5t-8.5 -33.5v-8q0 -24 11 -32.5t47 -8.5h35q6 0 6 -7v-15q0 -7 -6 -7h-35q-49 0 -69.5 16.5t-20.5 53.5v8q0 24 11 41.5t48 52.5l30 28h-4h-6q-117 0 -161.5 36.5t-44.5 127.5v482 q0 7 7 7h21q7 0 7 -7v-482q0 -75 35 -103t136 -28h6q101 0 136.5 28t35.5 103v482q0 7 6 7h22z" />
<glyph unicode="&#x173;" horiz-adv-x="530" d="M399 -47q-36 -36 -44.5 -49.5t-8.5 -33.5v-8q0 -24 11 -32.5t47 -8.5h35q6 0 6 -7v-15q0 -7 -6 -7h-35q-49 0 -69.5 16.5t-20.5 53.5v8q0 24 11 41.5t48 52.5l47 44l-10 30q-85 -46 -178 -46q-82 0 -117 38.5t-35 124.5v332q0 6 7 6h21q7 0 7 -6v-325q0 -78 27 -107.5 t96 -29.5q91 0 172 42v420q0 6 6 6h22q7 0 7 -6v-480q0 -4 -1 -5q0 -3 -4 -7z" />
<glyph unicode="&#x174;" horiz-adv-x="809" d="M304 716q-4 0 -5.5 2.5t1.5 5.5l87 95q4 4 8 4h21q4 0 8 -4l87 -95q6 -8 -5 -8h-22q-4 0 -9 4l-70 80l-70 -80q-4 -4 -8 -4h-23zM778 645q7 0 6 -8l-179 -630q-2 -7 -7 -7h-24q-6 0 -8 7l-113 399q-36 131 -48 187q-19 -86 -49 -187l-113 -399q-2 -7 -7 -7h-24q-6 0 -8 7 l-178 630q-3 8 5 8h24q6 0 8 -7l109 -386q42 -152 52 -197q16 68 51 197l110 386q1 7 7 7h25q6 0 8 -7l109 -386q42 -152 52 -197q16 68 51 197l110 386q1 7 7 7h24z" />
<glyph unicode="&#x175;" horiz-adv-x="711" d="M254 564q-4 0 -5.5 2.5t1.5 5.5l87 95q4 4 8 4h21q4 0 8 -4l87 -95q6 -8 -5 -8h-22q-4 0 -9 4l-70 80l-70 -80q-4 -4 -8 -4h-23zM682 493q8 0 6 -7l-154 -480q-2 -6 -7 -6h-27q-6 0 -8 6l-78 245q-45 148 -59 202q-18 -75 -59 -202l-77 -245q-2 -6 -8 -6h-27q-6 0 -8 6 l-153 480q-2 7 5 7h23q6 0 8 -6l79 -249q40 -124 59 -201q17 64 59 200l79 250q2 6 8 6h25q5 0 7 -6l80 -250q35 -107 58 -200q14 56 59 201l80 249q2 6 7 6h23z" />
<glyph unicode="&#x176;" horiz-adv-x="466" d="M133 716q-4 0 -5.5 2.5t1.5 5.5l87 95q4 4 8 4h21q4 0 8 -4l87 -95q6 -8 -5 -8h-22q-4 0 -9 4l-70 80l-70 -80q-4 -4 -8 -4h-23zM451 645q8 0 6 -6l-207 -397v-235q0 -7 -6 -7h-22q-7 0 -7 7v239l-205 393q-4 6 5 6h23q6 0 8 -5l111 -212q41 -75 76 -158q32 74 77 158 l110 212q2 5 8 5h23z" />
<glyph unicode="&#x177;" horiz-adv-x="438" d="M120 564q-4 0 -5.5 2.5t1.5 5.5l87 95q4 4 8 4h21q4 0 8 -4l87 -95q6 -8 -5 -8h-22q-4 0 -9 4l-70 80l-70 -80q-4 -4 -8 -4h-23zM419 493q8 0 6 -6l-262 -684q-2 -5 -8 -5h-23q-8 0 -6 6l74 195l-183 488q-2 6 6 6h23q6 0 8 -5l96 -257q53 -142 70 -197q19 62 70 198 l98 256q2 5 8 5h23z" />
<glyph unicode="&#x178;" horiz-adv-x="466" d="M154 738q-7 0 -7 7v71q0 7 7 7h23q7 0 7 -7v-71q0 -7 -7 -7h-23zM292 738q-7 0 -7 7v71q0 7 7 7h23q7 0 7 -7v-71q0 -7 -7 -7h-23zM451 645q8 0 6 -6l-207 -397v-235q0 -7 -6 -7h-22q-7 0 -7 7v239l-205 393q-4 6 5 6h23q6 0 8 -5l111 -212q41 -75 76 -158q32 74 77 158 l110 212q2 5 8 5h23z" />
<glyph unicode="&#x179;" horiz-adv-x="439" d="M186 716q-5 0 -6.5 2.5t2.5 6.5l95 94q3 4 8 4h29q4 0 5.5 -2.5t-1.5 -5.5l-102 -95q-4 -4 -8 -4h-22zM404 33q7 0 7 -7v-19q0 -7 -7 -7h-369q-7 0 -7 7v18q0 3 3 9l274 478q32 59 62 100h-323q-7 0 -7 7v19q0 7 7 7h351q7 0 7 -7v-18q0 -5 -3 -9l-275 -481 q-35 -62 -60 -97h340z" />
<glyph unicode="&#x17a;" horiz-adv-x="402" d="M165 564q-5 0 -6.5 2.5t2.5 6.5l95 94q3 4 8 4h29q4 0 5.5 -2.5t-1.5 -5.5l-102 -95q-4 -4 -8 -4h-22zM363 33q7 0 7 -7v-19q0 -7 -7 -7h-324q-6 0 -6 7v18q0 5 2 8l249 378q24 35 39 50h-274q-6 0 -6 6v20q0 6 6 6h304q7 0 7 -6v-19q0 -4 -3 -8l-250 -380 q-17 -27 -37 -47h293z" />
<glyph unicode="&#x17b;" horiz-adv-x="439" d="M212 738q-7 0 -7 7v71q0 7 7 7h23q7 0 7 -7v-71q0 -7 -7 -7h-23zM404 33q7 0 7 -7v-19q0 -7 -7 -7h-369q-7 0 -7 7v18q0 3 3 9l274 478q32 59 62 100h-323q-7 0 -7 7v19q0 7 7 7h351q7 0 7 -7v-18q0 -5 -3 -9l-275 -481q-35 -62 -60 -97h340z" />
<glyph unicode="&#x17c;" horiz-adv-x="402" d="M191 586q-7 0 -7 7v71q0 7 7 7h23q7 0 7 -7v-71q0 -7 -7 -7h-23zM363 33q7 0 7 -7v-19q0 -7 -7 -7h-324q-6 0 -6 7v18q0 5 2 8l249 378q24 35 39 50h-274q-6 0 -6 6v20q0 6 6 6h304q7 0 7 -6v-19q0 -4 -3 -8l-250 -380q-17 -27 -37 -47h293z" />
<glyph unicode="&#x17d;" horiz-adv-x="439" d="M205 720l-87 95q-3 3 -1.5 5.5t5.5 2.5h23q4 0 8 -4l70 -80l70 80q5 4 9 4h22q11 0 5 -8l-87 -95q-4 -4 -8 -4h-21q-4 0 -8 4zM404 33q7 0 7 -7v-19q0 -7 -7 -7h-369q-7 0 -7 7v18q0 3 3 9l274 478q32 59 62 100h-323q-7 0 -7 7v19q0 7 7 7h351q7 0 7 -7v-18q0 -5 -3 -9 l-275 -481q-35 -62 -60 -97h340z" />
<glyph unicode="&#x17e;" horiz-adv-x="402" d="M184 568l-87 95q-3 3 -1.5 5.5t5.5 2.5h23q4 0 8 -4l70 -80l70 80q5 4 9 4h22q11 0 5 -8l-87 -95q-4 -4 -8 -4h-21q-4 0 -8 4zM363 33q7 0 7 -7v-19q0 -7 -7 -7h-324q-6 0 -6 7v18q0 5 2 8l249 378q24 35 39 50h-274q-6 0 -6 6v20q0 6 6 6h304q7 0 7 -6v-19q0 -4 -3 -8 l-250 -380q-17 -27 -37 -47h293z" />
<glyph unicode="&#x1cd;" horiz-adv-x="518" d="M241 720l-87 95q-3 3 -1.5 5.5t5.5 2.5h23q4 0 8 -4l70 -80l70 80q5 4 9 4h22q11 0 5 -8l-87 -95q-4 -4 -8 -4h-21q-4 0 -8 4zM498 7q3 -7 -6 -7h-23q-6 0 -8 6l-61 176h-282l-62 -178q-1 -4 -7 -4h-23q-9 0 -6 7l220 632q2 6 8 6h22q6 0 8 -6zM129 215h259l-68 197 q-36 99 -61 187q-25 -88 -61 -187z" />
<glyph unicode="&#x1ce;" horiz-adv-x="516" d="M241 568l-87 95q-3 3 -1.5 5.5t5.5 2.5h23q4 0 8 -4l70 -80l70 80q5 4 9 4h22q11 0 5 -8l-87 -95q-4 -4 -8 -4h-21q-4 0 -8 4zM259 501q98 0 137.5 -35.5t39.5 -119.5v-339q0 -7 -6 -7h-12q-4 0 -6 5l-11 33q-86 -46 -182 -46q-82 0 -120.5 33t-38.5 102v13q0 68 35 97 t120 29h186v80q0 69 -30 96t-112 27h-6q-82 0 -112 -26.5t-30 -95.5v-3q0 -7 -6 -7h-22q-6 0 -6 7v3q0 84 39 119t137 35h6zM95 127q0 -56 29 -79.5t99 -23.5q95 0 178 43v168h-189q-67 0 -92 -21t-25 -74v-13z" />
<glyph unicode="&#x1fc;" horiz-adv-x="803" d="M520 716q-5 0 -6.5 2.5t2.5 6.5l95 94q3 4 8 4h29q4 0 5.5 -2.5t-1.5 -5.5l-102 -95q-4 -4 -8 -4h-22zM747 612h-308v-268h278q7 0 7 -7v-19q0 -7 -7 -7h-278v-278h308q7 0 7 -7v-19q0 -7 -7 -7h-336q-7 0 -7 7v172h-252l-94 -172q-3 -7 -9 -7h-24q-9 0 -4 8l345 632 q2 5 8 5h373q7 0 7 -7v-19q0 -7 -7 -7zM171 212h233v400h-14z" />
<glyph unicode="&#x1fd;" horiz-adv-x="824" d="M373 564q-5 0 -6.5 2.5t2.5 6.5l95 94q3 4 8 4h29q4 0 5.5 -2.5t-1.5 -5.5l-102 -95q-4 -4 -8 -4h-22zM748 239h-322v-90q0 -71 30 -97.5t114 -26.5h6q84 0 114 26.5t30 97.5v3q0 7 6 7h22q6 0 6 -7v-3q0 -86 -39.5 -121.5t-138.5 -35.5h-6q-125 0 -159 60 q-92 -60 -197 -60q-78 0 -116 33.5t-38 104.5v10q0 68 35 97.5t116 29.5h180v77q0 71 -29 98t-108 27h-6q-79 0 -108 -27t-29 -97v-5q0 -6 -6 -6h-22q-6 0 -6 6v5q0 85 38.5 120.5t132.5 35.5h6q67 0 104 -17.5t50 -58.5q16 41 54 58.5t108 17.5h6q99 0 138.5 -35.5 t39.5 -121.5v-99q0 -6 -6 -6zM570 469q-84 0 -114 -27t-30 -98v-74h294v74q0 71 -30 98t-114 27h-6zM218 24q95 0 182 54q-9 29 -9 71v86h-182q-64 0 -89 -21t-25 -74v-10q0 -57 28.5 -81.5t94.5 -24.5z" />
<glyph unicode="&#x1fe;" horiz-adv-x="591" d="M258 716q-5 0 -6.5 2.5t2.5 6.5l95 94q3 4 8 4h29q4 0 5.5 -2.5t-1.5 -5.5l-102 -95q-4 -4 -8 -4h-22zM459 621q52 -34 52 -132v-333q0 -91 -45.5 -127.5t-167.5 -36.5h-6q-88 0 -135 19l-25 -50q-2 -5 -8 -5h-17q-9 0 -5 8l30 60q-52 36 -52 132v333q0 91 45 127.5 t167 36.5h6q89 0 136 -19l25 50q3 5 8 5h17q8 0 5 -7zM115 156q0 -73 32 -101l272 549q-39 16 -121 16h-6q-105 0 -141 -27.5t-36 -103.5v-333zM476 156v333q0 73 -33 101l-271 -549q39 -16 120 -16h6q106 0 142 27.5t36 103.5z" />
<glyph unicode="&#x1ff;" d="M227 564q-5 0 -6.5 2.5t2.5 6.5l95 94q3 4 8 4h29q4 0 5.5 -2.5t-1.5 -5.5l-102 -95q-4 -4 -8 -4h-22zM395 478q59 -33 59 -134v-195q0 -86 -41 -121.5t-146 -35.5h-6q-62 0 -101 12l-21 -43q-3 -5 -8 -5h-17q-9 0 -5 7l26 52q-60 31 -60 134v195q0 86 41 121.5t145 35.5 h6q63 0 102 -12l22 43q3 5 8 5h17q8 0 5 -7zM110 149q0 -79 40 -104l205 414q-31 10 -88 10h-6q-88 0 -119.5 -27t-31.5 -98v-195zM419 149v195q0 78 -39 104l-205 -414q33 -9 86 -9h6q89 0 120.5 26.5t31.5 97.5z" />
<glyph unicode="&#x218;" horiz-adv-x="509" d="M50 154v29q0 6 7 6h21q7 0 7 -6v-29q0 -75 34 -102t132 -27h6q99 0 133 27t34 102v27q0 57 -20.5 78.5t-92.5 37.5l-133 30q-71 17 -97 47.5t-26 97.5v19q0 89 42.5 125.5t153.5 36.5h6q111 0 153.5 -37t42.5 -125v-29q0 -6 -6 -6h-22q-7 0 -7 6v29q0 75 -33 102t-128 27 h-6q-94 0 -127.5 -27t-33.5 -102v-19q0 -56 19.5 -77.5t85.5 -36.5l133 -30q77 -17 104 -47.5t27 -99.5v-27q0 -88 -43.5 -125t-158.5 -37h-6q-114 0 -157.5 37t-43.5 125zM244 -221q-6 0 -6 7v131q0 7 6 7h20q7 0 7 -7v-48q0 -6 -1 -13l-13 -71q-1 -6 -8 -6h-5z" />
<glyph unicode="&#x219;" horiz-adv-x="470" d="M55 115v38q0 6 7 6h21q7 0 7 -6v-38q0 -48 31.5 -69t111.5 -21h6q79 0 110 21t31 69v15q0 37 -15 54.5t-64 31.5l-138 40q-58 16 -79.5 40t-21.5 67v17q0 62 39 91.5t130 29.5h6q92 0 131.5 -29.5t39.5 -91.5v-39q0 -6 -7 -6h-21q-7 0 -7 6v39q0 48 -30 68.5t-106 20.5 h-6q-75 0 -104.5 -20.5t-29.5 -68.5v-17q0 -32 15.5 -47.5t66.5 -30.5l138 -39q55 -16 76.5 -42t21.5 -74v-15q0 -62 -40 -92.5t-136 -30.5h-6q-96 0 -137 30.5t-41 92.5zM225 -221q-6 0 -6 7v131q0 7 6 7h20q7 0 7 -7v-48q0 -6 -1 -13l-13 -71q-1 -6 -8 -6h-5z" />
<glyph unicode="&#x21a;" horiz-adv-x="455" d="M429 645q7 0 7 -7v-19q0 -7 -7 -7h-184v-605q0 -7 -7 -7h-21q-7 0 -7 7v605h-184q-7 0 -7 7v19q0 7 7 7h403zM237 -76q7 0 7 -7v-48q0 -6 -1 -13l-13 -71q-1 -6 -8 -6h-5q-6 0 -6 7v131q0 7 6 7h20z" />
<glyph unicode="&#x21b;" horiz-adv-x="317" d="M282 28q7 0 7 -7v-18q0 -7 -7 -7h-42q-76 0 -103.5 29t-27.5 113v324h-90q-7 0 -7 7v8q0 5 8 6l89 8v147q0 7 7 7h21q7 0 7 -7v-145h136q7 0 7 -6v-18q0 -7 -7 -7h-136v-318q0 -72 19 -94t79 -22h40zM203 -76q7 0 7 -7v-48q0 -6 -1 -13l-13 -71q-1 -6 -8 -6h-5q-6 0 -6 7 v131q0 7 6 7h20z" />
<glyph unicode="&#x237;" horiz-adv-x="205" d="M-25 -208q-6 0 -6 7v18q0 6 6 6h13q60 0 78.5 22t18.5 96v546q0 6 7 6h21q7 0 7 -6v-552q0 -84 -27 -113.5t-103 -29.5h-15z" />
<glyph unicode="&#x2c6;" d="M370 572q6 -8 -5 -8h-22q-4 0 -9 4l-70 80l-70 -80q-4 -4 -8 -4h-23q-4 0 -5.5 2.5t1.5 5.5l87 95q4 4 8 4h21q4 0 8 -4z" />
<glyph unicode="&#x2c7;" d="M365 671q11 0 5 -8l-87 -95q-4 -4 -8 -4h-21q-4 0 -8 4l-87 95q-3 3 -1.5 5.5t5.5 2.5h23q4 0 8 -4l70 -80l70 80q5 4 9 4h22z" />
<glyph unicode="&#x2d8;" d="M356 671q7 0 7 -7v-18q0 -48 -21 -66.5t-76 -18.5h-4q-54 0 -75 18.5t-21 66.5v18q0 7 6 7h16q7 0 7 -7v-18q0 -35 13 -46.5t54 -11.5h4q42 0 55 11.5t13 46.5v18q0 7 6 7h16z" />
<glyph unicode="&#x2d9;" d="M253 586q-7 0 -7 7v71q0 7 7 7h23q7 0 7 -7v-71q0 -7 -7 -7h-23z" />
<glyph unicode="&#x2da;" d="M263 560q-46 0 -62 11.5t-16 43.5v15q0 32 16 44t62 12h2q46 0 62 -12t16 -44v-15q0 -32 -15.5 -43.5t-62.5 -11.5h-2zM263 583h2q35 0 44 6t9 28v12q0 22 -9 28t-44 6h-2q-35 0 -44 -6t-9 -28v-12q0 -22 9 -28t44 -6z" />
<glyph unicode="&#x2db;" horiz-adv-x="533" d="M259 -208q-49 0 -69.5 16.5t-20.5 53.5v8q0 24 11 41.5t48 52.5l54 51h17v-10q0 -6 -4 -10l-41 -42q-36 -36 -44.5 -49.5t-8.5 -33.5v-8q0 -24 11 -32.5t47 -8.5h35q6 0 6 -7v-15q0 -7 -6 -7h-35z" />
<glyph unicode="&#x2dc;" d="M341 567q-25 0 -53 18l-65 44q-20 14 -35 14q-22 0 -22 -32v-27q0 -6 -7 -6h-14q-6 0 -6 6v26q0 27 13 42.5t36 15.5q24 0 53 -18l65 -44q20 -14 34 -14q23 0 23 32v27q0 6 6 6h14q7 0 7 -6v-26q0 -27 -13 -42.5t-36 -15.5z" />
<glyph unicode="&#x2dd;" horiz-adv-x="530" d="M224 564q-10 0 -5 8l57 94q4 5 8 5h23q10 0 5 -8l-62 -94q-4 -5 -9 -5h-17zM349 564q-10 0 -5 8l57 94q3 5 8 5h23q10 0 4 -8l-62 -94q-4 -5 -8 -5h-17z" />
<glyph unicode="&#x300;" horiz-adv-x="0" d="M-248 564q-4 0 -8 4l-101 95q-3 3 -1.5 5.5t5.5 2.5h29q4 0 8 -4l94 -94q9 -9 -3 -9h-23z" />
<glyph unicode="&#x301;" horiz-adv-x="0" d="M-302 564q-5 0 -6.5 2.5t2.5 6.5l95 94q3 4 8 4h29q4 0 5.5 -2.5t-1.5 -5.5l-102 -95q-4 -4 -8 -4h-22z" />
<glyph unicode="&#x302;" horiz-adv-x="0" d="M-159 572q6 -8 -5 -8h-22q-4 0 -9 4l-70 80l-70 -80q-4 -4 -8 -4h-23q-4 0 -5.5 2.5t1.5 5.5l87 95q4 4 8 4h21q4 0 8 -4z" />
<glyph unicode="&#x303;" horiz-adv-x="0" d="M-188 567q-24 0 -53 18l-65 44q-20 14 -35 14q-22 0 -22 -32v-27q0 -6 -7 -6h-14q-6 0 -6 6v26q0 27 13 42.5t36 15.5q25 0 53 -18l65 -44q20 -14 34 -14q23 0 23 32v27q0 6 6 6h14q7 0 7 -6v-26q0 -27 -13 -42.5t-36 -15.5z" />
<glyph unicode="&#x304;" horiz-adv-x="0" d="M-361 586q-7 0 -7 7v17q0 7 7 7h193q7 0 7 -7v-17q0 -7 -7 -7h-193z" />
<glyph unicode="&#x306;" horiz-adv-x="0" d="M-173 671q7 0 7 -7v-18q0 -48 -21 -66.5t-76 -18.5h-4q-54 0 -75 18.5t-21 66.5v18q0 7 6 7h16q7 0 7 -7v-18q0 -35 13 -46.5t54 -11.5h4q42 0 55 11.5t13 46.5v18q0 7 6 7h16z" />
<glyph unicode="&#x307;" horiz-adv-x="0" d="M-276 586q-7 0 -7 7v71q0 7 7 7h23q7 0 7 -7v-71q0 -7 -7 -7h-23z" />
<glyph unicode="&#x308;" horiz-adv-x="0" d="M-345 586q-7 0 -7 7v71q0 7 7 7h23q7 0 7 -7v-71q0 -7 -7 -7h-23zM-207 586q-7 0 -7 7v71q0 7 7 7h23q7 0 7 -7v-71q0 -7 -7 -7h-23z" />
<glyph unicode="&#x30a;" horiz-adv-x="0" d="M-266 560q-46 0 -62 11.5t-16 43.5v15q0 32 16 44t62 12h2q46 0 62 -12t16 -44v-15q0 -32 -15.5 -43.5t-62.5 -11.5h-2zM-266 583h2q35 0 44 6t9 28v12q0 22 -9 28t-44 6h-2q-35 0 -44 -6t-9 -28v-12q0 -22 9 -28t44 -6z" />
<glyph unicode="&#x30b;" horiz-adv-x="0" d="M-345 564q-10 0 -5 8l57 94q4 5 8 5h23q10 0 5 -8l-62 -94q-4 -5 -9 -5h-17zM-220 564q-10 0 -5 8l57 94q2 5 8 5h23q10 0 4 -8l-62 -94q-4 -5 -8 -5h-17z" />
<glyph unicode="&#x30c;" horiz-adv-x="0" d="M-164 671q11 0 5 -8l-87 -95q-4 -4 -8 -4h-21q-4 0 -8 4l-87 95q-3 3 -1.5 5.5t5.5 2.5h23q4 0 8 -4l70 -80l70 80q5 4 9 4h22z" />
<glyph unicode="&#x312;" horiz-adv-x="0" d="M-275 709h5q7 0 8 -6l13 -71q1 -7 1 -13v-48q0 -7 -7 -7h-20q-6 0 -6 7v131q0 7 6 7z" />
<glyph unicode="&#x326;" horiz-adv-x="0" d="M-275 -221q-6 0 -6 7v131q0 7 6 7h20q7 0 7 -7v-48q0 -6 -1 -13l-13 -71q-1 -6 -8 -6h-5z" />
<glyph unicode="&#x327;" horiz-adv-x="0" d="M-258 -77q38 0 54 -13.5t16 -43.5v-16q0 -31 -15.5 -44.5t-54.5 -13.5h-78q-6 0 -6 7v14q0 6 6 6h78q25 0 33 6.5t8 24.5v16q0 18 -8 24.5t-33 6.5h-77q-8 0 -6 7l20 105h28l-15 -86h50z" />
<glyph unicode="&#x328;" horiz-adv-x="0" d="M-251 -208q-49 0 -69.5 16.5t-20.5 53.5v8q0 24 11 41.5t48 52.5l54 51h17v-10q0 -6 -4 -10l-41 -42q-36 -36 -44.5 -49.5t-8.5 -33.5v-8q0 -24 11 -32.5t47 -8.5h35q6 0 6 -7v-15q0 -7 -6 -7h-35z" />
<glyph unicode="&#x335;" horiz-adv-x="0" d="M-268 320q-7 0 -7 6v15q0 7 7 7h251q7 0 7 -7v-15q0 -6 -7 -6h-251z" />
<glyph unicode="&#x336;" horiz-adv-x="0" d="M-500 465q-7 0 -7 7v17q0 6 7 6h482q7 0 7 -6v-17q0 -7 -7 -7h-482z" />
<glyph unicode="&#x337;" horiz-adv-x="0" d="M-361 -44q-9 0 -5 7l282 569q2 5 8 5h17q9 0 5 -7l-282 -569q-2 -5 -8 -5h-17z" />
<glyph unicode="&#x338;" horiz-adv-x="0" d="M-436 -44q-9 0 -5 8l357 720q2 5 8 5h17q9 0 5 -7l-357 -721q-3 -5 -8 -5h-17z" />
<glyph unicode="&#x401;" horiz-adv-x="488" d="M179 738q-7 0 -7 7v71q0 7 7 7h23q7 0 7 -7v-71q0 -7 -7 -7h-23zM317 738q-7 0 -7 7v71q0 7 7 7h23q7 0 7 -7v-71q0 -7 -7 -7h-23zM433 612h-308v-268h278q7 0 7 -7v-19q0 -7 -7 -7h-278v-278h308q7 0 7 -7v-19q0 -7 -7 -7h-336q-7 0 -7 7v631q0 7 7 7h336q7 0 7 -7v-19 q0 -7 -7 -7z" />
<glyph unicode="&#x402;" horiz-adv-x="646" d="M432 404q85 0 124 -39t39 -124v-106q0 -84 -27.5 -113.5t-103.5 -29.5h-51q-6 0 -6 7v18q0 6 6 6h50q59 0 78 22.5t19 95.5v93q0 76 -30.5 107t-99.5 31q-99 0 -206 -55v-310q0 -7 -7 -7h-21q-7 0 -7 7v605h-184q-7 0 -7 7v19q0 7 7 7h403q7 0 7 -7v-19q0 -7 -7 -7h-184 v-262q105 54 208 54z" />
<glyph unicode="&#x403;" horiz-adv-x="445" d="M210 716q-5 0 -6.5 2.5t2.5 6.5l95 94q3 4 8 4h29q4 0 5.5 -2.5t-1.5 -5.5l-102 -95q-4 -4 -8 -4h-22zM415 645q6 0 6 -7v-19q0 -7 -6 -7h-290v-605q0 -7 -7 -7h-21q-7 0 -7 7v631q0 7 7 7h318z" />
<glyph unicode="&#x404;" horiz-adv-x="574" d="M471 446q-7 0 -7 6v37q0 75 -35 103t-136 28h-6q-102 0 -137 -27.5t-35 -103.5v-150h238q7 0 7 -7v-19q0 -6 -7 -6h-238v-151q0 -76 35 -103.5t137 -27.5h6q101 0 136 28t35 103v37q0 6 7 6h22q6 0 6 -6v-37q0 -91 -44 -127.5t-162 -36.5h-6q-118 0 -162.5 36.5 t-44.5 127.5v333q0 91 44.5 127.5t162.5 36.5h6q118 0 162 -36.5t44 -127.5v-37q0 -6 -6 -6h-22z" />
<glyph unicode="&#x405;" horiz-adv-x="509" d="M50 154v29q0 6 7 6h21q7 0 7 -6v-29q0 -75 34 -102t132 -27h6q99 0 133 27t34 102v27q0 57 -20.5 78.5t-92.5 37.5l-133 30q-71 17 -97 47.5t-26 97.5v19q0 89 42.5 125.5t153.5 36.5h6q111 0 153.5 -37t42.5 -125v-29q0 -6 -6 -6h-22q-7 0 -7 6v29q0 75 -33 102t-128 27 h-6q-94 0 -127.5 -27t-33.5 -102v-19q0 -56 19.5 -77.5t85.5 -36.5l133 -30q77 -17 104 -47.5t27 -99.5v-27q0 -88 -43.5 -125t-158.5 -37h-6q-114 0 -157.5 37t-43.5 125z" />
<glyph unicode="&#x406;" horiz-adv-x="215" d="M97 0q-7 0 -7 7v631q0 7 7 7h21q7 0 7 -7v-631q0 -7 -7 -7h-21z" />
<glyph unicode="&#x407;" horiz-adv-x="215" d="M27 738q-7 0 -7 7v71q0 7 7 7h23q7 0 7 -7v-71q0 -7 -7 -7h-23zM165 738q-7 0 -7 7v71q0 7 7 7h23q7 0 7 -7v-71q0 -7 -7 -7h-23zM97 0q-7 0 -7 7v631q0 7 7 7h21q7 0 7 -7v-631q0 -7 -7 -7h-21z" />
<glyph unicode="&#x408;" horiz-adv-x="491" d="M216 -8q-103 0 -143.5 37t-40.5 127v23q0 7 6 7h22q7 0 7 -7v-23q0 -75 31.5 -103t117.5 -28h6q85 0 117 28.5t32 102.5v482q0 7 6 7h22q7 0 7 -7v-482q0 -90 -41 -127t-143 -37h-6z" />
<glyph unicode="&#x409;" horiz-adv-x="868" d="M662 372q88 0 126.5 -34.5t38.5 -110.5v-82q0 -76 -38.5 -110.5t-126.5 -34.5h-220q-7 0 -7 7v605h-267l-18 -392q-7 -127 -37 -175.5t-95 -48.5h-5q-5 0 -5 7v20q0 7 7 7h3q47 0 69 39.5t27 150.5l21 418q0 7 6 7h323q6 0 6 -7v-266h192zM792 145v82q0 65 -30.5 88.5 t-110.5 23.5h-181v-306h181q80 0 110.5 23.5t30.5 88.5z" />
<glyph unicode="&#x40a;" horiz-adv-x="887" d="M680 352q88 0 126.5 -34.5t38.5 -111.5v-61q0 -76 -38.5 -110.5t-126.5 -34.5h-220q-6 0 -6 7v312h-329v-312q0 -7 -7 -7h-21q-7 0 -7 7v631q0 7 7 7h21q7 0 7 -7v-286h329v286q0 7 6 7h22q7 0 7 -7v-286h191zM810 145v61q0 65 -30.5 89t-110.5 24h-180v-286h180 q80 0 110.5 23.5t30.5 88.5z" />
<glyph unicode="&#x40b;" horiz-adv-x="646" d="M432 404q85 0 124 -39t39 -124v-234q0 -7 -7 -7h-22q-6 0 -6 7v227q0 76 -30.5 107t-99.5 31q-99 0 -206 -55v-310q0 -7 -7 -7h-21q-7 0 -7 7v605h-184q-7 0 -7 7v19q0 7 7 7h403q7 0 7 -7v-19q0 -7 -7 -7h-184v-262q105 54 208 54z" />
<glyph unicode="&#x40c;" horiz-adv-x="530" d="M234 716q-5 0 -6.5 2.5t2.5 6.5l95 94q3 4 8 4h29q4 0 5.5 -2.5t-1.5 -5.5l-102 -95q-4 -4 -8 -4h-22zM504 7q5 -7 -6 -7h-25q-5 0 -9 6l-198 303h-141v-302q0 -7 -7 -7h-21q-7 0 -7 7v631q0 7 7 7h21q7 0 7 -7v-296h142l195 299q2 4 8 4h24q11 0 6 -7l-205 -312z" />
<glyph unicode="&#x40d;" horiz-adv-x="627" d="M323 720l-101 95q-3 3 -1.5 5.5t5.5 2.5h29q4 0 8 -4l94 -94q9 -9 -3 -9h-23q-4 0 -8 4zM530 645q7 0 7 -7v-631q0 -7 -7 -7h-21q-7 0 -7 7v396q0 124 3 195q-47 -83 -119 -195l-256 -397q-3 -6 -9 -6h-24q-7 0 -7 7v631q0 7 7 7h22q6 0 6 -7v-396q0 -124 -3 -195 q31 56 119 195l256 397q3 6 9 6h24z" />
<glyph unicode="&#x40e;" horiz-adv-x="464" d="M235 713q-54 0 -75 18.5t-21 66.5v18q0 7 6 7h16q7 0 7 -7v-18q0 -35 13 -46.5t54 -11.5h4q42 0 55 11.5t13 46.5v18q0 7 6 7h16q7 0 7 -7v-18q0 -48 -21 -66.5t-76 -18.5h-4zM457 645q8 0 6 -7l-207 -536q-25 -63 -55.5 -85t-93.5 -22h-39q-6 0 -6 7v19q0 7 6 7h44 q45 0 68.5 16.5t39.5 57.5l11 29l-207 508q-2 6 6 6h22q5 0 8 -6l116 -286q51 -129 72 -192q25 82 68 191l111 288q2 5 8 5h22z" />
<glyph unicode="&#x40f;" horiz-adv-x="589" d="M492 645q7 0 7 -7v-631q0 -7 -7 -7h-179l-5 -126q0 -6 -7 -6h-13q-7 0 -7 6l-5 126h-179q-7 0 -7 7v631q0 7 7 7h21q7 0 7 -7v-605h339v605q0 7 6 7h22z" />
<glyph unicode="&#x410;" horiz-adv-x="518" d="M498 7q3 -7 -6 -7h-23q-6 0 -8 6l-61 176h-282l-62 -178q-1 -4 -7 -4h-23q-9 0 -6 7l220 632q2 6 8 6h22q6 0 8 -6zM129 215h259l-68 197q-36 99 -61 187q-25 -88 -61 -187z" />
<glyph unicode="&#x411;" horiz-adv-x="550" d="M332 352q88 0 126 -34.5t38 -110.5v-62q0 -76 -38 -110.5t-126 -34.5h-235q-7 0 -7 7v631q0 7 7 7h348q6 0 6 -7v-19q0 -7 -6 -7h-320v-260h207zM461 145v62q0 65 -30.5 88.5t-109.5 23.5h-196v-286h196q79 0 109.5 23.5t30.5 88.5z" />
<glyph unicode="&#x412;" horiz-adv-x="555" d="M390 330q58 -8 82.5 -38.5t24.5 -92.5v-54q0 -76 -38 -110.5t-126 -34.5h-236q-7 0 -7 7v631q0 7 7 7h212q88 0 126.5 -34.5t38.5 -110.5v-43q0 -55 -19.5 -85t-64.5 -42zM298 612h-173v-268h173q80 0 110.5 24t30.5 89v43q0 65 -30.5 88.5t-110.5 23.5zM462 145v54 q0 65 -30.5 89t-109.5 24h-197v-279h197q79 0 109.5 23.5t30.5 88.5z" />
<glyph unicode="&#x413;" horiz-adv-x="445" d="M415 645q6 0 6 -7v-19q0 -7 -6 -7h-290v-605q0 -7 -7 -7h-21q-7 0 -7 7v631q0 7 7 7h318z" />
<glyph unicode="&#x414;" horiz-adv-x="567" d="M529 33q6 0 6 -7v-152q0 -6 -6 -6h-12q-7 0 -7 6l-9 126h-458l-9 -126q0 -6 -7 -6h-12q-6 0 -6 6v152q0 7 6 7h38q34 57 45.5 115.5t11.5 175.5v314q0 7 7 7h349q6 0 6 -7v-605h57zM145 324q0 -116 -11 -174.5t-43 -116.5h347v579h-293v-288z" />
<glyph unicode="&#x415;" horiz-adv-x="488" d="M433 612h-308v-268h278q7 0 7 -7v-19q0 -7 -7 -7h-278v-278h308q7 0 7 -7v-19q0 -7 -7 -7h-336q-7 0 -7 7v631q0 7 7 7h336q7 0 7 -7v-19q0 -7 -7 -7z" />
<glyph unicode="&#x416;" horiz-adv-x="772" d="M746 8q5 -8 -5 -8h-25q-6 0 -9 7l-167 302h-136v-302q0 -7 -7 -7h-22q-6 0 -6 7v302h-137l-167 -302q-3 -7 -9 -7h-25q-10 0 -5 8l177 318l-173 311q-5 8 5 8h25q6 0 8 -5l164 -298h137v296q0 7 6 7h22q7 0 7 -7v-296h136l165 298q3 5 7 5h25q10 0 5 -8l-173 -311z" />
<glyph unicode="&#x417;" horiz-adv-x="524" d="M364 329q57 -9 78.5 -38t21.5 -91v-51q0 -86 -43.5 -121.5t-156.5 -35.5h-6q-113 0 -156.5 35.5t-43.5 121.5v30q0 7 7 7h21q7 0 7 -7v-30q0 -71 33.5 -97.5t131.5 -26.5h6q98 0 131.5 26.5t33.5 97.5v51q0 66 -31.5 89t-133.5 23h-73q-7 0 -7 6v20q0 6 7 6h67 q102 0 133.5 23t31.5 89v40q0 72 -32 98t-127 26h-6q-95 0 -127.5 -26t-32.5 -98v-40q0 -7 -6 -7h-22q-7 0 -7 7v40q0 87 42.5 122t152.5 35h6q110 0 152 -35t42 -122v-40q0 -60 -21 -89t-73 -38z" />
<glyph unicode="&#x418;" horiz-adv-x="627" d="M530 645q7 0 7 -7v-631q0 -7 -7 -7h-21q-7 0 -7 7v396q0 124 3 195q-47 -83 -119 -195l-256 -397q-3 -6 -9 -6h-24q-7 0 -7 7v631q0 7 7 7h22q6 0 6 -7v-396q0 -124 -3 -195q31 56 119 195l256 397q3 6 9 6h24z" />
<glyph unicode="&#x419;" horiz-adv-x="627" d="M312 713q-54 0 -75 18.5t-21 66.5v18q0 7 6 7h16q7 0 7 -7v-18q0 -35 13 -46.5t54 -11.5h4q42 0 55 11.5t13 46.5v18q0 7 6 7h16q7 0 7 -7v-18q0 -48 -21 -66.5t-76 -18.5h-4zM530 645q7 0 7 -7v-631q0 -7 -7 -7h-21q-7 0 -7 7v396q0 124 3 195q-47 -83 -119 -195 l-256 -397q-3 -6 -9 -6h-24q-7 0 -7 7v631q0 7 7 7h22q6 0 6 -7v-396q0 -124 -3 -195q31 56 119 195l256 397q3 6 9 6h24z" />
<glyph unicode="&#x41a;" horiz-adv-x="530" d="M504 7q5 -7 -6 -7h-25q-5 0 -9 6l-198 303h-141v-302q0 -7 -7 -7h-21q-7 0 -7 7v631q0 7 7 7h21q7 0 7 -7v-296h142l195 299q2 4 8 4h24q11 0 6 -7l-205 -312z" />
<glyph unicode="&#x41b;" horiz-adv-x="575" d="M479 645q6 0 6 -7v-631q0 -7 -6 -7h-22q-7 0 -7 7v605h-282l-19 -392q-6 -127 -36 -175.5t-95 -48.5h-5q-5 0 -5 7v20q0 7 7 7h3q47 0 69 39.5t27 150.5l20 418q0 7 7 7h338z" />
<glyph unicode="&#x41c;" horiz-adv-x="729" d="M632 645q7 0 7 -7v-631q0 -7 -7 -7h-21q-7 0 -7 7v376q0 131 3 207q-27 -63 -99 -207l-129 -253q-3 -5 -7 -5h-15q-5 0 -8 5l-128 253q-56 107 -99 206q3 -76 3 -206v-376q0 -7 -7 -7h-21q-7 0 -7 7v631q0 7 7 7h25q6 0 8 -5l162 -322q40 -75 72 -154q32 76 72 154 l163 322q3 5 8 5h25z" />
<glyph unicode="&#x41d;" horiz-adv-x="599" d="M502 645q7 0 7 -7v-631q0 -7 -7 -7h-22q-6 0 -6 7v302h-349v-302q0 -7 -7 -7h-21q-7 0 -7 7v631q0 7 7 7h21q7 0 7 -7v-296h349v296q0 7 6 7h22z" />
<glyph unicode="&#x41e;" horiz-adv-x="591" d="M80 156v333q0 91 45 127.5t167 36.5h6q122 0 167.5 -36.5t45.5 -127.5v-333q0 -91 -45.5 -127.5t-167.5 -36.5h-6q-122 0 -167 36.5t-45 127.5zM115 156q0 -76 36 -103.5t141 -27.5h6q106 0 142 27.5t36 103.5v333q0 76 -36 103.5t-142 27.5h-6q-105 0 -141 -27.5 t-36 -103.5v-333z" />
<glyph unicode="&#x41f;" horiz-adv-x="599" d="M502 645q7 0 7 -7v-631q0 -7 -7 -7h-22q-6 0 -6 7v605h-349v-605q0 -7 -7 -7h-21q-7 0 -7 7v631q0 7 7 7h405z" />
<glyph unicode="&#x420;" horiz-adv-x="515" d="M300 645q96 0 137 -35t41 -114v-101q0 -79 -41 -114t-137 -35h-175v-239q0 -7 -7 -7h-21q-7 0 -7 7v631q0 7 7 7h203zM443 395v101q0 66 -33 91t-121 25h-164v-333h164q87 0 120.5 25.5t33.5 90.5z" />
<glyph unicode="&#x421;" horiz-adv-x="559" d="M287 -8q-118 0 -162.5 36.5t-44.5 127.5v333q0 91 44.5 127.5t162.5 36.5h6q118 0 162 -36.5t44 -127.5v-37q0 -6 -6 -6h-22q-7 0 -7 6v37q0 75 -35 103t-136 28h-6q-102 0 -137 -27.5t-35 -103.5v-333q0 -76 35 -103.5t137 -27.5h6q101 0 136 28t35 103v37q0 6 7 6h22 q6 0 6 -6v-37q0 -91 -44 -127.5t-162 -36.5h-6z" />
<glyph unicode="&#x422;" horiz-adv-x="455" d="M429 645q7 0 7 -7v-19q0 -7 -7 -7h-184v-605q0 -7 -7 -7h-21q-7 0 -7 7v605h-184q-7 0 -7 7v19q0 7 7 7h403z" />
<glyph unicode="&#x423;" horiz-adv-x="464" d="M457 645q8 0 6 -7l-207 -536q-25 -63 -55.5 -85t-93.5 -22h-39q-6 0 -6 7v19q0 7 6 7h44q45 0 68.5 16.5t39.5 57.5l11 29l-207 508q-2 6 6 6h22q5 0 8 -6l116 -286q51 -129 72 -192q25 82 68 191l111 288q2 5 8 5h22z" />
<glyph unicode="&#x424;" horiz-adv-x="693" d="M418 600q118 0 161.5 -35t43.5 -122v-240q0 -88 -43.5 -123t-161.5 -35h-54v-72q0 -6 -6 -6h-22q-7 0 -7 6v72h-54q-118 0 -161.5 35.5t-43.5 122.5v240q0 87 43.5 122t161.5 35h54v72q0 6 7 6h22q6 0 6 -6v-72h54zM275 78h54v490h-54q-102 0 -136 -26.5t-34 -98.5v-240 q0 -72 34 -98.5t136 -26.5zM588 203v240q0 72 -34 98.5t-136 26.5h-54v-490h54q102 0 136 26.5t34 98.5z" />
<glyph unicode="&#x425;" horiz-adv-x="477" d="M451 7q3 -7 -5 -7h-25q-5 0 -9 5l-174 286l-174 -286q-2 -5 -8 -5h-26q-8 0 -5 7l195 319l-192 312q-4 7 5 7h25q6 0 9 -5l171 -280l171 280q4 5 9 5h25q9 0 5 -7l-192 -313z" />
<glyph unicode="&#x426;" horiz-adv-x="593" d="M555 33q6 0 6 -7v-152q0 -6 -6 -6h-12q-7 0 -7 6l-9 126h-430q-7 0 -7 7v631q0 7 7 7h21q7 0 7 -7v-605h338v605q0 7 7 7h22q6 0 6 -7v-605h57z" />
<glyph unicode="&#x427;" horiz-adv-x="540" d="M443 645q7 0 7 -7v-631q0 -7 -7 -7h-22q-6 0 -6 7v278q-105 -54 -207 -54q-85 0 -124 39t-39 124v244q0 7 6 7h22q7 0 7 -7v-237q0 -77 30 -107.5t100 -30.5q98 0 205 55v320q0 7 6 7h22z" />
<glyph unicode="&#x428;" horiz-adv-x="813" d="M716 645q7 0 7 -7v-631q0 -7 -7 -7h-619q-7 0 -7 7v631q0 7 7 7h21q7 0 7 -7v-605h264v605q0 7 7 7h21q7 0 7 -7v-605h264v605q0 7 7 7h21z" />
<glyph unicode="&#x429;" horiz-adv-x="818" d="M780 33q6 0 6 -7v-152q0 -6 -6 -6h-12q-7 0 -7 6l-9 126h-655q-7 0 -7 7v631q0 7 7 7h21q7 0 7 -7v-605h264v605q0 7 7 7h21q7 0 7 -7v-605h264v605q0 7 7 7h21q7 0 7 -7v-605h57z" />
<glyph unicode="&#x42a;" horiz-adv-x="588" d="M382 372q88 0 126 -34.5t38 -110.5v-82q0 -76 -38 -110.5t-126 -34.5h-240q-7 0 -7 7v605h-130q-7 0 -7 7v19q0 7 7 7h158q7 0 7 -7v-266h212zM511 145v82q0 65 -30.5 88.5t-109.5 23.5h-201v-306h201q79 0 109.5 23.5t30.5 88.5z" />
<glyph unicode="&#x42b;" horiz-adv-x="725" d="M317 372q88 0 126 -34.5t38 -110.5v-82q0 -76 -38 -110.5t-126 -34.5h-220q-7 0 -7 7v631q0 7 7 7h21q7 0 7 -7v-266h192zM628 645q7 0 7 -7v-631q0 -7 -7 -7h-21q-7 0 -7 7v631q0 7 7 7h21zM446 145v82q0 65 -30.5 88.5t-109.5 23.5h-181v-306h181q79 0 109.5 23.5 t30.5 88.5z" />
<glyph unicode="&#x42c;" horiz-adv-x="543" d="M337 372q88 0 126 -34.5t38 -110.5v-82q0 -76 -38 -110.5t-126 -34.5h-240q-7 0 -7 7v631q0 7 7 7h21q7 0 7 -7v-266h212zM466 145v82q0 65 -30.5 88.5t-109.5 23.5h-201v-306h201q79 0 109.5 23.5t30.5 88.5z" />
<glyph unicode="&#x42d;" horiz-adv-x="574" d="M287 653q118 0 162.5 -36.5t44.5 -127.5v-333q0 -91 -44.5 -127.5t-162.5 -36.5h-6q-118 0 -162 36.5t-44 127.5v37q0 6 6 6h22q7 0 7 -6v-37q0 -75 35 -103t136 -28h6q102 0 137 27.5t35 103.5v151h-238q-7 0 -7 6v19q0 7 7 7h238v150q0 76 -35 103.5t-137 27.5h-6 q-101 0 -136 -28t-35 -103v-37q0 -6 -7 -6h-22q-6 0 -6 6v37q0 91 44 127.5t162 36.5h6z" />
<glyph unicode="&#x42e;" horiz-adv-x="780" d="M495 653q117 0 161 -36.5t44 -127.5v-333q0 -91 -44 -127.5t-161 -36.5h-6q-116 0 -160 36.5t-44 127.5v150h-160v-299q0 -7 -7 -7h-21q-7 0 -7 7v631q0 7 7 7h21q7 0 7 -7v-299h160v150q0 91 44 127.5t160 36.5h6zM665 156v333q0 75 -35 103t-135 28h-6 q-100 0 -134.5 -28t-34.5 -103v-333q0 -75 34.5 -103t134.5 -28h6q100 0 135 28t35 103z" />
<glyph unicode="&#x42f;" horiz-adv-x="546" d="M449 645q7 0 7 -7v-631q0 -7 -7 -7h-22q-6 0 -6 7v253h-175h-8l-140 -255q-4 -5 -8 -5h-26q-10 0 -6 6l142 256q-70 7 -101 42.5t-31 104.5v87q0 79 41 114t137 35h203zM257 293h164v319h-164q-88 0 -121 -25t-33 -91v-87q0 -66 33 -91t121 -25z" />
<glyph unicode="&#x430;" horiz-adv-x="510" d="M256 501q96 0 135 -35.5t39 -119.5v-339q0 -7 -6 -7h-11q-5 0 -7 5l-11 32q-87 -45 -179 -45q-80 0 -118 33t-38 102v13q0 68 35 97t119 29h181v80q0 69 -29.5 96t-109.5 27h-6q-80 0 -109.5 -27t-29.5 -95v-3q0 -7 -6 -7h-22q-6 0 -6 7v3q0 83 38.5 118.5t134.5 35.5h6z M95 127q0 -56 29 -79.5t96 -23.5q91 0 175 42v169h-184q-66 0 -91 -21t-25 -74v-13z" />
<glyph unicode="&#x431;" d="M272 465q105 0 146 -35.5t41 -122.5v-158q0 -86 -41 -121.5t-146 -35.5h-6q-104 0 -145 35.5t-41 121.5v277q0 78 28.5 118.5t96.5 61.5l103 32q53 16 71 29t18 31v3q0 7 6 7h22q6 0 6 -7v-3q0 -30 -21.5 -49.5t-80.5 -37.5l-106 -34q-64 -19 -86.5 -51t-22.5 -105v-22 q13 36 48 51t104 15h6zM424 149v158q0 72 -31.5 98.5t-120.5 26.5h-6q-89 0 -120 -26.5t-31 -98.5v-158q0 -71 31 -97.5t120 -26.5h6q89 0 120.5 26.5t31.5 97.5z" />
<glyph unicode="&#x432;" horiz-adv-x="491" d="M359 251q81 -13 81 -97v-43q0 -111 -130 -111h-218q-7 0 -7 7v480q0 6 7 6h198q130 0 130 -111v-38q0 -73 -61 -93zM285 461h-165v-196h167q53 0 75.5 18.5t22.5 60.5v38q0 42 -23 60.5t-77 18.5zM405 111v43q0 42 -22.5 60.5t-75.5 18.5h-187v-200h185q54 0 77 18t23 60 z" />
<glyph unicode="&#x433;" horiz-adv-x="376" d="M354 493q6 0 6 -6v-20q0 -6 -6 -6h-234v-454q0 -7 -7 -7h-21q-7 0 -7 7v480q0 6 7 6h262z" />
<glyph unicode="&#x434;" horiz-adv-x="504" d="M466 33q6 0 6 -7v-152q0 -6 -6 -6h-12q-7 0 -7 6l-9 126h-395l-9 -126q0 -6 -7 -6h-12q-6 0 -6 6v152q0 7 6 7h38q26 47 36 97t10 142v215q0 6 7 6h302q6 0 6 -6v-454h52zM134 272q0 -93 -9.5 -144t-33.5 -95h288v428h-245v-189z" />
<glyph unicode="&#x435;" horiz-adv-x="521" d="M444 247h-334v-98q0 -71 31 -97.5t119 -26.5h6q88 0 119 26.5t31 97.5v4q0 6 7 6h21q7 0 7 -6v-4q0 -86 -40.5 -121.5t-144.5 -35.5h-6q-104 0 -144.5 35.5t-40.5 121.5v195q0 86 40.5 121.5t144.5 35.5h6q104 0 144.5 -35.5t40.5 -121.5v-90q0 -7 -7 -7zM260 469 q-88 0 -119 -27t-31 -98v-65h306v65q0 71 -31 98t-119 27h-6z" />
<glyph unicode="&#x436;" horiz-adv-x="653" d="M631 7q4 -7 -5 -7h-26q-5 0 -9 5l-137 230h-110v-228q0 -7 -7 -7h-21q-7 0 -7 7v228h-110l-137 -230q-4 -5 -9 -5h-26q-9 0 -5 7l147 242l-143 238q-4 6 5 6h26q6 0 9 -5l130 -220h113v219q0 6 7 6h21q7 0 7 -6v-219h113l130 220q3 5 9 5h26q9 0 5 -6l-143 -238z" />
<glyph unicode="&#x437;" horiz-adv-x="487" d="M328 249q51 -7 74 -32.5t23 -76.5v-22q0 -67 -40 -96.5t-138 -29.5h-6q-98 0 -138.5 29.5t-40.5 96.5v30q0 6 7 6h22q6 0 6 -6v-30q0 -53 30.5 -73t113.5 -20h6q82 0 112.5 20t30.5 73v22q0 52 -30.5 72.5t-112.5 20.5h-59q-7 0 -7 6v20q0 6 7 6h59q78 0 107.5 20.5 t29.5 72.5v18q0 52 -29.5 72.5t-107.5 20.5h-6q-78 0 -108 -20.5t-30 -72.5v-30q0 -6 -6 -6h-22q-7 0 -7 6v30q0 67 39.5 96t133.5 29h6q94 0 133 -29t39 -96v-18q0 -50 -22 -75.5t-69 -33.5z" />
<glyph unicode="&#x438;" horiz-adv-x="540" d="M449 493q6 0 6 -6v-480q0 -7 -6 -7h-22q-7 0 -7 7v250q0 127 2 188q-36 -60 -112 -168l-188 -273q-2 -4 -7 -4h-23q-7 0 -7 7v480q0 6 7 6h21q7 0 7 -6v-246q0 -131 -2 -193q40 66 115 173l185 269q2 3 8 3h23z" />
<glyph unicode="&#x439;" horiz-adv-x="540" d="M269 561q-54 0 -75 18.5t-21 66.5v18q0 7 6 7h16q7 0 7 -7v-18q0 -35 13 -46.5t54 -11.5h4q42 0 55 11.5t13 46.5v18q0 7 6 7h16q7 0 7 -7v-18q0 -48 -21 -66.5t-76 -18.5h-4zM449 493q6 0 6 -6v-480q0 -7 -6 -7h-22q-7 0 -7 7v250q0 127 2 188q-36 -60 -112 -168 l-188 -273q-2 -4 -7 -4h-23q-7 0 -7 7v480q0 6 7 6h21q7 0 7 -6v-246q0 -131 -2 -193q40 66 115 173l185 269q2 3 8 3h23z" />
<glyph unicode="&#x43a;" horiz-adv-x="458" d="M435 8q6 -8 -4 -8h-27q-6 0 -8 4l-167 231h-109v-228q0 -7 -7 -7h-21q-7 0 -7 7v480q0 6 7 6h21q7 0 7 -6v-219h112l160 221q2 4 8 4h27q10 0 4 -8l-171 -236z" />
<glyph unicode="&#x43b;" horiz-adv-x="508" d="M416 493q7 0 7 -6v-480q0 -7 -7 -7h-21q-7 0 -7 7v452h-231l-17 -253q-6 -89 -19 -134t-35 -60.5t-64 -15.5h-5q-6 0 -6 7v19q0 7 6 7h5q30 0 44.5 12t24 49.5t14.5 115.5l18 281q0 6 7 6h286z" />
<glyph unicode="&#x43c;" horiz-adv-x="628" d="M536 493q7 0 7 -6v-480q0 -7 -7 -7h-21q-6 0 -6 7v269q0 104 3 162q-32 -66 -84 -161l-97 -181q-1 -4 -8 -4h-18q-7 0 -8 4l-97 181q-52 95 -84 161q3 -58 3 -162v-269q0 -7 -6 -7h-21q-7 0 -7 7v480q0 6 7 6h24q6 0 7 -3l146 -273q23 -41 45 -90q22 49 45 90l146 273 q1 3 7 3h24z" />
<glyph unicode="&#x43d;" horiz-adv-x="525" d="M434 493q6 0 6 -6v-480q0 -7 -6 -7h-22q-7 0 -7 7v228h-285v-228q0 -7 -7 -7h-21q-7 0 -7 7v480q0 6 7 6h21q7 0 7 -6v-219h285v219q0 6 7 6h22z" />
<glyph unicode="&#x43e;" d="M75 149v195q0 86 41 121.5t145 35.5h6q105 0 146 -35.5t41 -121.5v-195q0 -86 -41 -121.5t-146 -35.5h-6q-104 0 -145 35.5t-41 121.5zM110 149q0 -71 31 -97.5t120 -26.5h6q89 0 120.5 26.5t31.5 97.5v195q0 71 -31.5 98t-120.5 27h-6q-88 0 -119.5 -27t-31.5 -98v-195z " />
<glyph unicode="&#x43f;" horiz-adv-x="525" d="M433 493q7 0 7 -6v-480q0 -7 -7 -7h-21q-7 0 -7 7v454h-285v-454q0 -7 -7 -7h-21q-7 0 -7 7v480q0 6 7 6h341z" />
<glyph unicode="&#x440;" horiz-adv-x="531" d="M302 501q83 0 118.5 -38.5t35.5 -123.5v-184q0 -86 -35.5 -124.5t-118.5 -38.5q-96 0 -182 46v-231q0 -7 -7 -7h-21q-7 0 -7 7v680q0 6 6 6h11q5 0 7 -5l11 -32q87 45 182 45zM421 332q0 77 -27 107t-97 30q-89 0 -177 -42v-360q85 -42 177 -42q70 0 97 29.5t27 107.5 v170z" />
<glyph unicode="&#x441;" horiz-adv-x="506" d="M75 149v195q0 86 40 121.5t141 35.5h6q101 0 141 -35.5t40 -121.5v-8q0 -7 -6 -7h-22q-6 0 -6 7v8q0 71 -30.5 98t-116.5 27h-6q-85 0 -115.5 -27t-30.5 -98v-195q0 -71 30.5 -97.5t115.5 -26.5h6q86 0 116.5 26.5t30.5 97.5v9q0 6 6 6h22q6 0 6 -6v-9q0 -86 -40 -121.5 t-141 -35.5h-6q-101 0 -141 35.5t-40 121.5z" />
<glyph unicode="&#x442;" horiz-adv-x="369" d="M354 493q7 0 7 -6v-20q0 -6 -7 -6h-152v-454q0 -7 -7 -7h-21q-7 0 -7 7v454h-152q-7 0 -7 6v20q0 6 7 6h339z" />
<glyph unicode="&#x443;" horiz-adv-x="438" d="M419 493q8 0 6 -6l-262 -684q-2 -5 -8 -5h-23q-8 0 -6 6l74 195l-183 488q-2 6 6 6h23q6 0 8 -5l96 -257q53 -142 70 -197q19 62 70 198l98 256q2 5 8 5h23z" />
<glyph unicode="&#x444;" horiz-adv-x="665" d="M397 497q109 0 151 -35.5t42 -121.5v-187q0 -86 -42 -121.5t-151 -35.5h-47v-189q0 -7 -7 -7h-21q-7 0 -7 7v189h-47q-109 0 -151 35.5t-42 121.5v187q0 86 42 121.5t151 35.5h47v196q0 7 7 7h21q7 0 7 -7v-196h47zM268 29h47v436h-47q-93 0 -125.5 -27t-32.5 -98v-187 q0 -71 32 -97.5t126 -26.5zM555 153v187q0 71 -32.5 98t-125.5 27h-47v-436h47q94 0 126 26.5t32 97.5z" />
<glyph unicode="&#x445;" horiz-adv-x="419" d="M396 9q7 -9 -4 -9h-24q-6 0 -8 4l-150 221l-150 -221q-3 -4 -9 -4h-24q-11 0 -4 9l166 242l-160 234q-6 8 4 8h24q6 0 9 -4l144 -211l143 211q3 4 9 4h24q10 0 4 -8l-160 -235z" />
<glyph unicode="&#x446;" horiz-adv-x="525" d="M487 33q6 0 6 -7v-152q0 -6 -6 -6h-12q-7 0 -7 6l-9 126h-367q-7 0 -7 7v480q0 6 7 6h21q7 0 7 -6v-454h280v454q0 6 7 6h21q7 0 7 -6v-454h52z" />
<glyph unicode="&#x447;" horiz-adv-x="475" d="M383 493q7 0 7 -6v-480q0 -7 -7 -7h-22q-6 0 -6 7v204q-93 -51 -180 -51q-69 0 -98.5 31.5t-29.5 108.5v187q0 6 6 6h22q7 0 7 -6v-180q0 -66 20.5 -90t74.5 -24q85 0 178 51v243q0 6 6 6h22z" />
<glyph unicode="&#x448;" horiz-adv-x="741" d="M649 493q7 0 7 -6v-480q0 -7 -7 -7h-557q-7 0 -7 7v480q0 6 7 6h21q7 0 7 -6v-454h233v454q0 6 7 6h21q7 0 7 -6v-454h233v454q0 6 7 6h21z" />
<glyph unicode="&#x449;" horiz-adv-x="746" d="M708 33q6 0 6 -7v-152q0 -6 -6 -6h-12q-7 0 -7 6l-9 126h-588q-7 0 -7 7v480q0 6 7 6h21q7 0 7 -6v-454h233v454q0 6 7 6h21q7 0 7 -6v-454h233v454q0 6 7 6h21q7 0 7 -6v-454h52z" />
<glyph unicode="&#x44a;" horiz-adv-x="524" d="M352 300q130 0 130 -111v-78q0 -111 -130 -111h-218q-7 0 -7 7v454h-117q-7 0 -7 6v20q0 6 7 6h145q7 0 7 -6v-187h190zM447 111v78q0 42 -23 60t-77 18h-185v-234h185q54 0 77 18t23 60z" />
<glyph unicode="&#x44b;" horiz-adv-x="656" d="M300 300q130 0 130 -111v-78q0 -111 -130 -111h-208q-7 0 -7 7v480q0 6 7 6h21q7 0 7 -6v-187h180zM564 493q7 0 7 -6v-480q0 -7 -7 -7h-21q-7 0 -7 7v480q0 6 7 6h21zM395 111v78q0 42 -23 60t-77 18h-175v-234h175q54 0 77 18t23 60z" />
<glyph unicode="&#x44c;" horiz-adv-x="482" d="M310 300q130 0 130 -111v-78q0 -111 -130 -111h-218q-7 0 -7 7v480q0 6 7 6h21q7 0 7 -6v-187h190zM405 111v78q0 42 -23 60t-77 18h-185v-234h185q54 0 77 18t23 60z" />
<glyph unicode="&#x44d;" horiz-adv-x="510" d="M254 501q101 0 141 -35.5t40 -121.5v-195q0 -86 -40 -121.5t-141 -35.5h-6q-101 0 -141 35.5t-40 121.5v9q0 6 6 6h22q6 0 6 -6v-9q0 -71 30.5 -97.5t116.5 -26.5h6q85 0 115.5 26.5t30.5 97.5v82h-193q-7 0 -7 7v18q0 7 7 7h193v81q0 71 -30.5 98t-115.5 27h-6 q-86 0 -116.5 -27t-30.5 -98v-8q0 -7 -6 -7h-22q-6 0 -6 7v8q0 86 40 121.5t141 35.5h6z" />
<glyph unicode="&#x44e;" horiz-adv-x="696" d="M445 501q97 0 136.5 -35.5t39.5 -121.5v-195q0 -86 -39.5 -121.5t-136.5 -35.5h-6q-98 0 -137.5 35.5t-39.5 121.5v82h-142v-224q0 -7 -7 -7h-21q-7 0 -7 7v480q0 6 7 6h21q7 0 7 -6v-224h142v81q0 86 39.5 121.5t137.5 35.5h6zM586 149v195q0 71 -30 98t-111 27h-6 q-82 0 -112 -27t-30 -98v-195q0 -71 30 -97.5t112 -26.5h6q82 0 111.5 26.5t29.5 97.5z" />
<glyph unicode="&#x44f;" horiz-adv-x="476" d="M384 493q7 0 7 -6v-480q0 -7 -7 -7h-21q-7 0 -7 7v190h-162l-102 -194q-2 -3 -7 -3h-24q-10 0 -6 6l103 193q-100 15 -100 118v56q0 120 135 120h191zM198 229h158v232h-158q-57 0 -81 -20.5t-24 -67.5v-56q0 -47 24 -67.5t81 -20.5z" />
<glyph unicode="&#x451;" horiz-adv-x="521" d="M183 586q-7 0 -7 7v71q0 7 7 7h23q7 0 7 -7v-71q0 -7 -7 -7h-23zM321 586q-7 0 -7 7v71q0 7 7 7h23q7 0 7 -7v-71q0 -7 -7 -7h-23zM444 247h-334v-98q0 -71 31 -97.5t119 -26.5h6q88 0 119 26.5t31 97.5v4q0 6 7 6h21q7 0 7 -6v-4q0 -86 -40.5 -121.5t-144.5 -35.5h-6 q-104 0 -144.5 35.5t-40.5 121.5v195q0 86 40.5 121.5t144.5 35.5h6q104 0 144.5 -35.5t40.5 -121.5v-90q0 -7 -7 -7zM260 469q-88 0 -119 -27t-31 -98v-65h306v65q0 71 -31 98t-119 27h-6z" />
<glyph unicode="&#x452;" horiz-adv-x="534" d="M300 478q83 0 118.5 -38.5t35.5 -124.5v-380q0 -84 -27.5 -113.5t-103.5 -29.5h-14q-7 0 -7 7v18q0 6 7 6h13q59 0 78 22.5t19 95.5v367q0 78 -27 107.5t-97 29.5q-93 0 -175 -41v-397q0 -7 -7 -7h-21q-7 0 -7 7v588h-43q-7 0 -7 6v15q0 7 7 7h43v70q0 7 7 7h21q7 0 7 -7 v-70h173q7 0 7 -7v-15q0 -6 -7 -6h-173v-163q86 46 180 46z" />
<glyph unicode="&#x453;" horiz-adv-x="376" d="M180 564q-5 0 -6.5 2.5t2.5 6.5l95 94q3 4 8 4h29q4 0 5.5 -2.5t-1.5 -5.5l-102 -95q-4 -4 -8 -4h-22zM354 493q6 0 6 -6v-20q0 -6 -6 -6h-234v-454q0 -7 -7 -7h-21q-7 0 -7 7v480q0 6 7 6h262z" />
<glyph unicode="&#x454;" horiz-adv-x="510" d="M415 329q-6 0 -6 7v8q0 71 -30.5 98t-116.5 27h-6q-85 0 -115.5 -27t-30.5 -98v-81h193q7 0 7 -7v-18q0 -7 -7 -7h-193v-82q0 -71 30.5 -97.5t115.5 -26.5h6q86 0 116.5 26.5t30.5 97.5v9q0 6 6 6h22q6 0 6 -6v-9q0 -86 -40 -121.5t-141 -35.5h-6q-101 0 -141 35.5 t-40 121.5v195q0 86 40 121.5t141 35.5h6q101 0 141 -35.5t40 -121.5v-8q0 -7 -6 -7h-22z" />
<glyph unicode="&#x455;" horiz-adv-x="470" d="M55 115v38q0 6 7 6h21q7 0 7 -6v-38q0 -48 31.5 -69t111.5 -21h6q79 0 110 21t31 69v15q0 37 -15 54.5t-64 31.5l-138 40q-58 16 -79.5 40t-21.5 67v17q0 62 39 91.5t130 29.5h6q92 0 131.5 -29.5t39.5 -91.5v-39q0 -6 -7 -6h-21q-7 0 -7 6v39q0 48 -30 68.5t-106 20.5 h-6q-75 0 -104.5 -20.5t-29.5 -68.5v-17q0 -32 15.5 -47.5t66.5 -30.5l138 -39q55 -16 76.5 -42t21.5 -74v-15q0 -62 -40 -92.5t-136 -30.5h-6q-96 0 -137 30.5t-41 92.5z" />
<glyph unicode="&#x456;" horiz-adv-x="206" d="M92 586q-7 0 -7 7v71q0 7 7 7h23q6 0 6 -7v-71q0 -7 -6 -7h-23zM92 0q-6 0 -6 7v480q0 6 6 6h22q7 0 7 -6v-480q0 -7 -7 -7h-22z" />
<glyph unicode="&#x457;" horiz-adv-x="205" d="M23 586q-7 0 -7 7v71q0 7 7 7h23q7 0 7 -7v-71q0 -7 -7 -7h-23zM161 586q-7 0 -7 7v71q0 7 7 7h23q7 0 7 -7v-71q0 -7 -7 -7h-23zM92 0q-7 0 -7 7v480q0 6 7 6h21q7 0 7 -6v-480q0 -7 -7 -7h-21z" />
<glyph unicode="&#x458;" horiz-adv-x="206" d="M91 586q-7 0 -7 7v71q0 7 7 7h23q7 0 7 -7v-71q0 -7 -7 -7h-23zM-25 -208q-6 0 -6 7v18q0 7 6 7h13q60 0 78.5 22t18.5 95v546q0 6 7 6h21q7 0 7 -6v-552q0 -84 -27 -113.5t-103 -29.5h-15z" />
<glyph unicode="&#x459;" horiz-adv-x="763" d="M590 300q130 0 130 -111v-78q0 -111 -130 -111h-208q-7 0 -7 7v452h-218l-17 -253q-6 -89 -19 -134t-35 -60.5t-64 -15.5h-6q-5 0 -5 7v19q0 7 6 7h5q30 0 44.5 12t24 49.5t14.5 115.5l18 281q0 6 7 6h274q6 0 6 -6v-187h180zM685 111v78q0 42 -22.5 60t-76.5 18h-176 v-234h176q54 0 76.5 18t22.5 60z" />
<glyph unicode="&#x45a;" horiz-adv-x="783" d="M610 278q130 0 130 -112v-55q0 -111 -130 -111h-208q-7 0 -7 7v238h-275v-238q0 -7 -7 -7h-21q-7 0 -7 7v480q0 6 7 6h21q7 0 7 -6v-209h275v209q0 6 7 6h22q6 0 6 -6v-209h180zM705 111v55q0 43 -22.5 61t-76.5 18h-176v-212h176q54 0 76.5 18t22.5 60z" />
<glyph unicode="&#x45b;" horiz-adv-x="534" d="M300 478q83 0 118.5 -38.5t35.5 -124.5v-308q0 -7 -7 -7h-22q-6 0 -6 7v301q0 78 -27 107.5t-97 29.5q-93 0 -175 -41v-397q0 -7 -7 -7h-21q-7 0 -7 7v588h-43q-7 0 -7 6v15q0 7 7 7h43v70q0 7 7 7h21q7 0 7 -7v-70h173q7 0 7 -7v-15q0 -6 -7 -6h-173v-163q86 46 180 46z " />
<glyph unicode="&#x45c;" horiz-adv-x="458" d="M202 564q-5 0 -6.5 2.5t2.5 6.5l95 94q3 4 8 4h29q4 0 5.5 -2.5t-1.5 -5.5l-102 -95q-4 -4 -8 -4h-22zM435 8q6 -8 -4 -8h-27q-6 0 -8 4l-167 231h-109v-228q0 -7 -7 -7h-21q-7 0 -7 7v480q0 6 7 6h21q7 0 7 -6v-219h112l160 221q2 4 8 4h27q10 0 4 -8l-171 -236z" />
<glyph unicode="&#x45d;" horiz-adv-x="540" d="M280 568l-101 95q-3 3 -1.5 5.5t5.5 2.5h29q4 0 8 -4l94 -94q9 -9 -3 -9h-23q-4 0 -8 4zM449 493q6 0 6 -6v-480q0 -7 -6 -7h-22q-7 0 -7 7v250q0 127 2 188q-36 -60 -112 -168l-188 -273q-2 -4 -7 -4h-23q-7 0 -7 7v480q0 6 7 6h21q7 0 7 -6v-246q0 -131 -2 -193 q40 66 115 173l185 269q2 3 8 3h23z" />
<glyph unicode="&#x45e;" horiz-adv-x="438" d="M219 561q-54 0 -75 18.5t-21 66.5v18q0 7 6 7h16q7 0 7 -7v-18q0 -35 13 -46.5t54 -11.5h4q42 0 55 11.5t13 46.5v18q0 7 6 7h16q7 0 7 -7v-18q0 -48 -21 -66.5t-76 -18.5h-4zM419 493q8 0 6 -6l-262 -684q-2 -5 -8 -5h-23q-8 0 -6 6l74 195l-183 488q-2 6 6 6h23 q6 0 8 -5l96 -257q53 -142 70 -197q19 62 70 198l98 256q2 5 8 5h23z" />
<glyph unicode="&#x45f;" horiz-adv-x="522" d="M430 493q7 0 7 -6v-480q0 -7 -7 -7h-151l-4 -126q0 -6 -8 -6h-12q-8 0 -8 6l-4 126h-151q-7 0 -7 7v480q0 6 7 6h21q7 0 7 -6v-454h282v454q0 6 7 6h21z" />
<glyph unicode="&#x462;" horiz-adv-x="631" d="M425 372q88 0 126.5 -34.5t38.5 -110.5v-82q0 -76 -38.5 -110.5t-126.5 -34.5h-240q-7 0 -7 7v521h-161q-7 0 -7 7v18q0 7 7 7h161v82q0 6 7 6h22q6 0 6 -6v-82h216q7 0 7 -7v-18q0 -7 -7 -7h-216v-156h212zM555 145v82q0 65 -30.5 88.5t-110.5 23.5h-201v-306h201 q80 0 110.5 23.5t30.5 88.5z" />
<glyph unicode="&#x463;" horiz-adv-x="509" d="M336 298q130 0 130 -111v-76q0 -111 -130 -111h-218q-6 0 -6 7v456h-102q-7 0 -7 6v18q0 6 7 6h102v200q0 7 6 7h22q7 0 7 -7v-200h179q7 0 7 -6v-18q0 -6 -7 -6h-179v-165h189zM431 111v76q0 42 -22.5 60.5t-76.5 18.5h-185v-233h185q54 0 76.5 18t22.5 60z" />
<glyph unicode="&#x472;" horiz-adv-x="591" d="M298 653q122 0 167.5 -36.5t45.5 -127.5v-333q0 -91 -45.5 -127.5t-167.5 -36.5h-6q-122 0 -167 36.5t-45 127.5v333q0 91 45 127.5t167 36.5h6zM292 620q-105 0 -141 -27.5t-36 -103.5v-151h361v151q0 76 -36 103.5t-142 27.5h-6zM298 25q106 0 142 27.5t36 103.5v151 h-361v-151q0 -76 36 -103.5t141 -27.5h6z" />
<glyph unicode="&#x473;" d="M267 501q105 0 146 -35.5t41 -121.5v-195q0 -86 -41 -121.5t-146 -35.5h-6q-104 0 -145 35.5t-41 121.5v195q0 86 41 121.5t145 35.5h6zM261 469q-88 0 -119.5 -27t-31.5 -98v-81h309v81q0 71 -31.5 98t-120.5 27h-6zM267 25q89 0 120.5 26.5t31.5 97.5v82h-309v-82 q0 -71 31 -97.5t120 -26.5h6z" />
<glyph unicode="&#x474;" horiz-adv-x="522" d="M539 653q7 0 7 -7v-19q0 -7 -7 -7h-13q-35 0 -52 -50l-196 -566q-1 -4 -7 -4h-25q-6 0 -7 4l-219 634q-2 7 6 7h23q6 0 7 -4l140 -405q35 -102 63 -197q21 75 63 197l115 334q16 48 36 65.5t53 17.5h13z" />
<glyph unicode="&#x475;" horiz-adv-x="452" d="M459 501q7 0 7 -6v-20q0 -6 -7 -6h-11q-18 0 -28 -8.5t-19 -31.5l-160 -424q-2 -5 -8 -5h-26q-6 0 -8 5l-182 482q-2 6 6 6h23q6 0 8 -5l96 -254q35 -92 70 -201q26 83 70 201l74 195q16 43 33.5 57.5t49.5 14.5h12z" />
<glyph unicode="&#x490;" horiz-adv-x="445" d="M415 750q6 0 6 -7v-124q0 -7 -6 -7h-290v-605q0 -7 -7 -7h-21q-7 0 -7 7v631q0 7 7 7h292l8 99q0 6 7 6h11z" />
<glyph unicode="&#x491;" horiz-adv-x="376" d="M354 611q6 0 6 -7v-137q0 -6 -6 -6h-234v-454q0 -7 -7 -7h-21q-7 0 -7 7v480q0 6 7 6h235l9 111q0 7 6 7h12z" />
<glyph unicode="&#x492;" horiz-adv-x="465" d="M435 645q6 0 6 -7v-19q0 -7 -6 -7h-290v-285h216q7 0 7 -7v-19q0 -7 -7 -7h-216v-287q0 -7 -7 -7h-21q-7 0 -7 7v287h-103q-7 0 -7 7v19q0 7 7 7h103v311q0 7 7 7h318z" />
<glyph unicode="&#x493;" horiz-adv-x="376" d="M353 493q6 0 6 -6v-20q0 -6 -6 -6h-234v-197h169q7 0 7 -6v-18q0 -7 -7 -7h-169v-226q0 -7 -7 -7h-21q-7 0 -7 7v226h-65q-7 0 -7 7v18q0 6 7 6h65v223q0 6 7 6h262z" />
<glyph unicode="&#x496;" horiz-adv-x="793" d="M782 33q6 0 6 -7v-152q0 -6 -6 -6h-12q-7 0 -7 6l-9 126h-38q-6 0 -9 7l-167 302h-136v-302q0 -7 -7 -7h-22q-6 0 -6 7v302h-137l-167 -302q-3 -7 -9 -7h-25q-10 0 -5 8l177 318l-173 311q-5 8 5 8h25q6 0 8 -5l164 -298h137v296q0 7 6 7h22q7 0 7 -7v-296h136l165 298 q3 5 7 5h25q10 0 5 -8l-173 -311l163 -293h50z" />
<glyph unicode="&#x497;" horiz-adv-x="674" d="M658 33q6 0 6 -7v-152q0 -6 -6 -6h-12q-7 0 -7 6l-9 126h-33q-4 2 -6 5l-137 230h-110v-228q0 -7 -7 -7h-21q-7 0 -7 7v228h-110l-137 -230q-4 -5 -9 -5h-26q-9 0 -5 7l147 242l-143 238q-4 6 5 6h26q6 0 9 -5l130 -220h113v219q0 6 7 6h21q7 0 7 -6v-219h113l130 220 q3 5 9 5h26q9 0 5 -6l-143 -238l131 -216h43z" />
<glyph unicode="&#x49a;" horiz-adv-x="552" d="M540 33q6 0 6 -7v-152q0 -6 -6 -6h-12q-7 0 -7 6l-9 126h-39q-5 0 -9 6l-198 303h-141v-302q0 -7 -7 -7h-21q-7 0 -7 7v631q0 7 7 7h21q7 0 7 -7v-296h142l195 299q2 4 8 4h24q11 0 6 -7l-205 -312l192 -293h53z" />
<glyph unicode="&#x49b;" horiz-adv-x="478" d="M461 33q6 0 6 -7v-152q0 -6 -6 -6h-12q-7 0 -7 6l-9 126h-33q-3 1 -4 4l-167 231h-109v-228q0 -7 -7 -7h-21q-7 0 -7 7v480q0 6 7 6h21q7 0 7 -6v-219h112l160 221q2 4 8 4h27q10 0 4 -8l-171 -236l157 -216h44z" />
<glyph unicode="&#x4a2;" horiz-adv-x="604" d="M566 33q6 0 6 -7v-152q0 -6 -6 -6h-12q-7 0 -7 6l-9 126h-58q-6 0 -6 7v302h-349v-302q0 -7 -7 -7h-21q-7 0 -7 7v631q0 7 7 7h21q7 0 7 -7v-296h349v296q0 7 6 7h22q7 0 7 -7v-605h57z" />
<glyph unicode="&#x4a3;" horiz-adv-x="530" d="M492 33q6 0 6 -7v-152q0 -6 -6 -6h-12q-7 0 -7 6l-9 126h-52q-7 0 -7 7v228h-285v-228q0 -7 -7 -7h-21q-7 0 -7 7v480q0 6 7 6h21q7 0 7 -6v-219h285v219q0 6 7 6h22q6 0 6 -6v-454h52z" />
<glyph unicode="&#x4ae;" horiz-adv-x="466" d="M451 645q8 0 6 -6l-207 -397v-235q0 -7 -6 -7h-22q-7 0 -7 7v239l-205 393q-4 6 5 6h23q6 0 8 -5l111 -212q41 -75 76 -158q32 74 77 158l110 212q2 5 8 5h23z" />
<glyph unicode="&#x4af;" horiz-adv-x="443" d="M420 493q8 0 6 -6l-187 -488v-192q0 -7 -7 -7h-20q-7 0 -7 7v189l-188 491q-2 6 6 6h23q6 0 8 -5l98 -257q50 -130 70 -195q20 67 69 195l98 257q2 5 8 5h23z" />
<glyph unicode="&#x4b0;" horiz-adv-x="466" d="M451 645q8 0 6 -6l-198 -379h131q7 0 7 -7v-17q0 -7 -7 -7h-140v-222q0 -7 -6 -7h-22q-7 0 -7 7v222h-138q-7 0 -7 7v17q0 7 7 7h131l-198 379q-4 6 5 6h23q6 0 8 -5l111 -212q41 -75 76 -158q32 74 77 158l110 212q2 5 8 5h23z" />
<glyph unicode="&#x4b1;" horiz-adv-x="443" d="M426 487l-187 -488v-4h147q6 0 6 -7v-17q0 -7 -6 -7h-147v-157q0 -7 -7 -7h-20q-7 0 -7 7v157h-143q-7 0 -7 7v17q0 7 7 7h143v1l-188 491q-2 6 6 6h23q6 0 8 -5l98 -257q50 -130 70 -195q20 67 69 195l98 257q2 5 8 5h23q8 0 6 -6z" />
<glyph unicode="&#x4b2;" horiz-adv-x="498" d="M487 33q6 0 6 -7v-152q0 -6 -6 -6h-12q-7 0 -7 6l-9 126h-38q-5 0 -9 5l-174 286l-174 -286q-2 -5 -8 -5h-26q-8 0 -5 7l195 319l-192 312q-4 7 5 7h25q6 0 9 -5l171 -280l171 280q4 5 9 5h25q9 0 5 -7l-192 -313l179 -292h52z" />
<glyph unicode="&#x4b3;" horiz-adv-x="441" d="M424 33q6 0 6 -7v-152q0 -6 -6 -6h-12q-7 0 -7 6l-9 126h-33v1q-1 0 -3 3l-150 221l-150 -221q-3 -4 -9 -4h-24q-11 0 -4 9l166 242l-160 234q-6 8 4 8h24q6 0 9 -4l144 -211l143 211q3 4 9 4h24q10 0 4 -8l-160 -235l150 -217h44z" />
<glyph unicode="&#x4b6;" horiz-adv-x="545" d="M507 33q6 0 6 -7v-152q0 -6 -6 -6h-12q-7 0 -7 6l-9 126h-58q-6 0 -6 7v278q-105 -54 -207 -54q-85 0 -124 39t-39 124v244q0 7 6 7h22q7 0 7 -7v-237q0 -77 30 -107.5t100 -30.5q98 0 205 55v320q0 7 6 7h22q7 0 7 -7v-605h57z" />
<glyph unicode="&#x4b7;" horiz-adv-x="478" d="M440 33q6 0 6 -7v-152q0 -6 -6 -6h-12q-7 0 -7 6l-9 126h-51q-6 0 -6 7v204q-93 -51 -180 -51q-69 0 -98.5 31.5t-29.5 108.5v187q0 6 6 6h22q7 0 7 -6v-180q0 -66 20.5 -90t74.5 -24q85 0 178 51v243q0 6 6 6h22q7 0 7 -6v-454h50z" />
<glyph unicode="&#x4ba;" horiz-adv-x="547" d="M332 414q85 0 124 -39t39 -124v-244q0 -7 -7 -7h-21q-7 0 -7 7v237q0 77 -30 107.5t-100 30.5q-102 0 -205 -55v-320q0 -7 -7 -7h-21q-7 0 -7 7v631q0 7 7 7h21q7 0 7 -7v-278q105 54 207 54z" />
<glyph unicode="&#x4bb;" horiz-adv-x="534" d="M300 501q83 0 118.5 -38.5t35.5 -123.5v-332q0 -7 -7 -7h-22q-6 0 -6 7v325q0 77 -27 107t-97 30q-90 0 -175 -41v-421q0 -7 -7 -7h-21q-7 0 -7 7v686q0 7 7 7h21q7 0 7 -7v-238q86 46 180 46z" />
<glyph unicode="&#x4c0;" horiz-adv-x="215" d="M97 0q-7 0 -7 7v631q0 7 7 7h21q7 0 7 -7v-631q0 -7 -7 -7h-21z" />
<glyph unicode="&#x4c1;" horiz-adv-x="772" d="M384 713q-54 0 -75 18.5t-21 66.5v18q0 7 6 7h16q7 0 7 -7v-18q0 -35 13 -46.5t54 -11.5h4q42 0 55 11.5t13 46.5v18q0 7 6 7h16q7 0 7 -7v-18q0 -48 -21 -66.5t-76 -18.5h-4zM746 8q5 -8 -5 -8h-25q-6 0 -9 7l-167 302h-136v-302q0 -7 -7 -7h-22q-6 0 -6 7v302h-137 l-167 -302q-3 -7 -9 -7h-25q-10 0 -5 8l177 318l-173 311q-5 8 5 8h25q6 0 8 -5l164 -298h137v296q0 7 6 7h22q7 0 7 -7v-296h136l165 298q3 5 7 5h25q10 0 5 -8l-173 -311z" />
<glyph unicode="&#x4c2;" horiz-adv-x="653" d="M324 561q-54 0 -75 18.5t-21 66.5v18q0 7 6 7h16q7 0 7 -7v-18q0 -35 13 -46.5t54 -11.5h4q42 0 55 11.5t13 46.5v18q0 7 6 7h16q7 0 7 -7v-18q0 -48 -21 -66.5t-76 -18.5h-4zM631 7q4 -7 -5 -7h-26q-5 0 -9 5l-137 230h-110v-228q0 -7 -7 -7h-21q-7 0 -7 7v228h-110 l-137 -230q-4 -5 -9 -5h-26q-9 0 -5 7l147 242l-143 238q-4 6 5 6h26q6 0 9 -5l130 -220h113v219q0 6 7 6h21q7 0 7 -6v-219h113l130 220q3 5 9 5h26q9 0 5 -6l-143 -238z" />
<glyph unicode="&#x4cf;" horiz-adv-x="205" d="M92 0q-7 0 -7 7v480q0 6 7 6h21q7 0 7 -6v-480q0 -7 -7 -7h-21z" />
<glyph unicode="&#x4d0;" horiz-adv-x="518" d="M257 713q-54 0 -75 18.5t-21 66.5v18q0 7 6 7h16q7 0 7 -7v-18q0 -35 13 -46.5t54 -11.5h4q42 0 55 11.5t13 46.5v18q0 7 6 7h16q7 0 7 -7v-18q0 -48 -21 -66.5t-76 -18.5h-4zM498 7q3 -7 -6 -7h-23q-6 0 -8 6l-61 176h-282l-62 -178q-1 -4 -7 -4h-23q-9 0 -6 7l220 632 q2 6 8 6h22q6 0 8 -6zM129 215h259l-68 197q-36 99 -61 187q-25 -88 -61 -187z" />
<glyph unicode="&#x4d1;" horiz-adv-x="510" d="M253 561q-54 0 -75 18.5t-21 66.5v18q0 7 6 7h16q7 0 7 -7v-18q0 -35 13 -46.5t54 -11.5h4q42 0 55 11.5t13 46.5v18q0 7 6 7h16q7 0 7 -7v-18q0 -48 -21 -66.5t-76 -18.5h-4zM256 501q96 0 135 -35.5t39 -119.5v-339q0 -7 -6 -7h-11q-5 0 -7 5l-11 32q-87 -45 -179 -45 q-80 0 -118 33t-38 102v13q0 68 35 97t119 29h181v80q0 69 -29.5 96t-109.5 27h-6q-80 0 -109.5 -27t-29.5 -95v-3q0 -7 -6 -7h-22q-6 0 -6 7v3q0 83 38.5 118.5t134.5 35.5h6zM95 127q0 -56 29 -79.5t96 -23.5q91 0 175 42v169h-184q-66 0 -91 -21t-25 -74v-13z" />
<glyph unicode="&#x4d2;" horiz-adv-x="518" d="M179 738q-7 0 -7 7v71q0 7 7 7h23q7 0 7 -7v-71q0 -7 -7 -7h-23zM317 738q-7 0 -7 7v71q0 7 7 7h23q7 0 7 -7v-71q0 -7 -7 -7h-23zM498 7q3 -7 -6 -7h-23q-6 0 -8 6l-61 176h-282l-62 -178q-1 -4 -7 -4h-23q-9 0 -6 7l220 632q2 6 8 6h22q6 0 8 -6zM129 215h259l-68 197 q-36 99 -61 187q-25 -88 -61 -187z" />
<glyph unicode="&#x4d3;" horiz-adv-x="510" d="M175 586q-7 0 -7 7v71q0 7 7 7h23q7 0 7 -7v-71q0 -7 -7 -7h-23zM313 586q-7 0 -7 7v71q0 7 7 7h23q7 0 7 -7v-71q0 -7 -7 -7h-23zM256 501q96 0 135 -35.5t39 -119.5v-339q0 -7 -6 -7h-11q-5 0 -7 5l-11 32q-87 -45 -179 -45q-80 0 -118 33t-38 102v13q0 68 35 97 t119 29h181v80q0 69 -29.5 96t-109.5 27h-6q-80 0 -109.5 -27t-29.5 -95v-3q0 -7 -6 -7h-22q-6 0 -6 7v3q0 83 38.5 118.5t134.5 35.5h6zM95 127q0 -56 29 -79.5t96 -23.5q91 0 175 42v169h-184q-66 0 -91 -21t-25 -74v-13z" />
<glyph unicode="&#x4d4;" horiz-adv-x="803" d="M747 612h-308v-268h278q7 0 7 -7v-19q0 -7 -7 -7h-278v-278h308q7 0 7 -7v-19q0 -7 -7 -7h-336q-7 0 -7 7v172h-252l-94 -172q-3 -7 -9 -7h-24q-9 0 -4 8l345 632q2 5 8 5h373q7 0 7 -7v-19q0 -7 -7 -7zM171 212h233v400h-14z" />
<glyph unicode="&#x4d5;" horiz-adv-x="824" d="M748 239h-322v-90q0 -71 30 -97.5t114 -26.5h6q84 0 114 26.5t30 97.5v3q0 7 6 7h22q6 0 6 -7v-3q0 -86 -39.5 -121.5t-138.5 -35.5h-6q-125 0 -159 60q-92 -60 -197 -60q-78 0 -116 33.5t-38 104.5v10q0 68 35 97.5t116 29.5h180v77q0 71 -29 98t-108 27h-6 q-79 0 -108 -27t-29 -97v-5q0 -6 -6 -6h-22q-6 0 -6 6v5q0 85 38.5 120.5t132.5 35.5h6q67 0 104 -17.5t50 -58.5q16 41 54 58.5t108 17.5h6q99 0 138.5 -35.5t39.5 -121.5v-99q0 -6 -6 -6zM570 469q-84 0 -114 -27t-30 -98v-74h294v74q0 71 -30 98t-114 27h-6zM218 24 q95 0 182 54q-9 29 -9 71v86h-182q-64 0 -89 -21t-25 -74v-10q0 -57 28.5 -81.5t94.5 -24.5z" />
<glyph unicode="&#x4d6;" horiz-adv-x="488" d="M257 713q-54 0 -75 18.5t-21 66.5v18q0 7 6 7h16q7 0 7 -7v-18q0 -35 13 -46.5t54 -11.5h4q42 0 55 11.5t13 46.5v18q0 7 6 7h16q7 0 7 -7v-18q0 -48 -21 -66.5t-76 -18.5h-4zM433 612h-308v-268h278q7 0 7 -7v-19q0 -7 -7 -7h-278v-278h308q7 0 7 -7v-19q0 -7 -7 -7 h-336q-7 0 -7 7v631q0 7 7 7h336q7 0 7 -7v-19q0 -7 -7 -7z" />
<glyph unicode="&#x4d7;" horiz-adv-x="521" d="M261 561q-54 0 -75 18.5t-21 66.5v18q0 7 6 7h16q7 0 7 -7v-18q0 -35 13 -46.5t54 -11.5h4q42 0 55 11.5t13 46.5v18q0 7 6 7h16q7 0 7 -7v-18q0 -48 -21 -66.5t-76 -18.5h-4zM444 247h-334v-98q0 -71 31 -97.5t119 -26.5h6q88 0 119 26.5t31 97.5v4q0 6 7 6h21q7 0 7 -6 v-4q0 -86 -40.5 -121.5t-144.5 -35.5h-6q-104 0 -144.5 35.5t-40.5 121.5v195q0 86 40.5 121.5t144.5 35.5h6q104 0 144.5 -35.5t40.5 -121.5v-90q0 -7 -7 -7zM260 469q-88 0 -119 -27t-31 -98v-65h306v65q0 71 -31 98t-119 27h-6z" />
<glyph unicode="&#x4d8;" horiz-adv-x="581" d="M291 653q120 0 165 -36.5t45 -127.5v-333q0 -91 -45 -127.5t-165 -36.5h-6q-120 0 -165 36.5t-45 127.5v154q0 6 7 6h384v173q0 76 -35.5 103.5t-139.5 27.5h-6q-104 0 -139.5 -27.5t-35.5 -103.5v-17q0 -6 -7 -6h-21q-7 0 -7 6v17q0 91 45 127.5t165 36.5h6zM291 25 q104 0 139.5 27.5t35.5 103.5v128h-356v-128q0 -76 35.5 -103.5t139.5 -27.5h6z" />
<glyph unicode="&#x4d9;" horiz-adv-x="521" d="M261 501q104 0 144.5 -35.5t40.5 -121.5v-195q0 -86 -40.5 -121.5t-144.5 -35.5h-6q-104 0 -144.5 35.5t-40.5 121.5v90q0 7 7 7h334v98q0 71 -31 97.5t-119 26.5h-6q-88 0 -119 -26.5t-31 -97.5v-4q0 -6 -7 -6h-21q-7 0 -7 6v4q0 86 40.5 121.5t144.5 35.5h6zM261 24 q88 0 119 27t31 98v65h-306v-65q0 -71 31 -98t119 -27h6z" />
<glyph unicode="&#x4da;" horiz-adv-x="581" d="M208 738q-7 0 -7 7v71q0 7 7 7h23q7 0 7 -7v-71q0 -7 -7 -7h-23zM346 738q-7 0 -7 7v71q0 7 7 7h23q7 0 7 -7v-71q0 -7 -7 -7h-23zM291 653q120 0 165 -36.5t45 -127.5v-333q0 -91 -45 -127.5t-165 -36.5h-6q-120 0 -165 36.5t-45 127.5v154q0 6 7 6h384v173 q0 76 -35.5 103.5t-139.5 27.5h-6q-104 0 -139.5 -27.5t-35.5 -103.5v-17q0 -6 -7 -6h-21q-7 0 -7 6v17q0 91 45 127.5t165 36.5h6zM291 25q104 0 139.5 27.5t35.5 103.5v128h-356v-128q0 -76 35.5 -103.5t139.5 -27.5h6z" />
<glyph unicode="&#x4db;" horiz-adv-x="521" d="M180 586q-7 0 -7 7v71q0 7 7 7h23q7 0 7 -7v-71q0 -7 -7 -7h-23zM318 586q-7 0 -7 7v71q0 7 7 7h23q7 0 7 -7v-71q0 -7 -7 -7h-23zM261 501q104 0 144.5 -35.5t40.5 -121.5v-195q0 -86 -40.5 -121.5t-144.5 -35.5h-6q-104 0 -144.5 35.5t-40.5 121.5v90q0 7 7 7h334v98 q0 71 -31 97.5t-119 26.5h-6q-88 0 -119 -26.5t-31 -97.5v-4q0 -6 -7 -6h-21q-7 0 -7 6v4q0 86 40.5 121.5t144.5 35.5h6zM261 24q88 0 119 27t31 98v65h-306v-65q0 -71 31 -98t119 -27h6z" />
<glyph unicode="&#x4dc;" horiz-adv-x="772" d="M306 738q-7 0 -7 7v71q0 7 7 7h23q7 0 7 -7v-71q0 -7 -7 -7h-23zM444 738q-7 0 -7 7v71q0 7 7 7h23q7 0 7 -7v-71q0 -7 -7 -7h-23zM746 8q5 -8 -5 -8h-25q-6 0 -9 7l-167 302h-136v-302q0 -7 -7 -7h-22q-6 0 -6 7v302h-137l-167 -302q-3 -7 -9 -7h-25q-10 0 -5 8l177 318 l-173 311q-5 8 5 8h25q6 0 8 -5l164 -298h137v296q0 7 6 7h22q7 0 7 -7v-296h136l165 298q3 5 7 5h25q10 0 5 -8l-173 -311z" />
<glyph unicode="&#x4dd;" horiz-adv-x="653" d="M246 586q-7 0 -7 7v71q0 7 7 7h23q7 0 7 -7v-71q0 -7 -7 -7h-23zM384 586q-7 0 -7 7v71q0 7 7 7h23q7 0 7 -7v-71q0 -7 -7 -7h-23zM631 7q4 -7 -5 -7h-26q-5 0 -9 5l-137 230h-110v-228q0 -7 -7 -7h-21q-7 0 -7 7v228h-110l-137 -230q-4 -5 -9 -5h-26q-9 0 -5 7l147 242 l-143 238q-4 6 5 6h26q6 0 9 -5l130 -220h113v219q0 6 7 6h21q7 0 7 -6v-219h113l130 220q3 5 9 5h26q9 0 5 -6l-143 -238z" />
<glyph unicode="&#x4de;" horiz-adv-x="524" d="M181 738q-7 0 -7 7v71q0 7 7 7h23q7 0 7 -7v-71q0 -7 -7 -7h-23zM319 738q-7 0 -7 7v71q0 7 7 7h23q7 0 7 -7v-71q0 -7 -7 -7h-23zM364 329q57 -9 78.5 -38t21.5 -91v-51q0 -86 -43.5 -121.5t-156.5 -35.5h-6q-113 0 -156.5 35.5t-43.5 121.5v30q0 7 7 7h21q7 0 7 -7v-30 q0 -71 33.5 -97.5t131.5 -26.5h6q98 0 131.5 26.5t33.5 97.5v51q0 66 -31.5 89t-133.5 23h-73q-7 0 -7 6v20q0 6 7 6h67q102 0 133.5 23t31.5 89v40q0 72 -32 98t-127 26h-6q-95 0 -127.5 -26t-32.5 -98v-40q0 -7 -6 -7h-22q-7 0 -7 7v40q0 87 42.5 122t152.5 35h6 q110 0 152 -35t42 -122v-40q0 -60 -21 -89t-73 -38z" />
<glyph unicode="&#x4df;" horiz-adv-x="487" d="M162 586q-7 0 -7 7v71q0 7 7 7h23q7 0 7 -7v-71q0 -7 -7 -7h-23zM300 586q-7 0 -7 7v71q0 7 7 7h23q7 0 7 -7v-71q0 -7 -7 -7h-23zM328 249q51 -7 74 -32.5t23 -76.5v-22q0 -67 -40 -96.5t-138 -29.5h-6q-98 0 -138.5 29.5t-40.5 96.5v30q0 6 7 6h22q6 0 6 -6v-30 q0 -53 30.5 -73t113.5 -20h6q82 0 112.5 20t30.5 73v22q0 52 -30.5 72.5t-112.5 20.5h-59q-7 0 -7 6v20q0 6 7 6h59q78 0 107.5 20.5t29.5 72.5v18q0 52 -29.5 72.5t-107.5 20.5h-6q-78 0 -108 -20.5t-30 -72.5v-30q0 -6 -6 -6h-22q-7 0 -7 6v30q0 67 39.5 96t133.5 29h6 q94 0 133 -29t39 -96v-18q0 -50 -22 -75.5t-69 -33.5z" />
<glyph unicode="&#x4e2;" horiz-adv-x="627" d="M218 738q-7 0 -7 7v17q0 7 7 7h193q7 0 7 -7v-17q0 -7 -7 -7h-193zM530 645q7 0 7 -7v-631q0 -7 -7 -7h-21q-7 0 -7 7v396q0 124 3 195q-47 -83 -119 -195l-256 -397q-3 -6 -9 -6h-24q-7 0 -7 7v631q0 7 7 7h22q6 0 6 -7v-396q0 -124 -3 -195q31 56 119 195l256 397 q3 6 9 6h24z" />
<glyph unicode="&#x4e3;" horiz-adv-x="540" d="M175 586q-7 0 -7 7v17q0 7 7 7h193q7 0 7 -7v-17q0 -7 -7 -7h-193zM449 493q6 0 6 -6v-480q0 -7 -6 -7h-22q-7 0 -7 7v250q0 127 2 188q-36 -60 -112 -168l-188 -273q-2 -4 -7 -4h-23q-7 0 -7 7v480q0 6 7 6h21q7 0 7 -6v-246q0 -131 -2 -193q40 66 115 173l185 269 q2 3 8 3h23z" />
<glyph unicode="&#x4e4;" horiz-adv-x="627" d="M234 738q-7 0 -7 7v71q0 7 7 7h23q7 0 7 -7v-71q0 -7 -7 -7h-23zM372 738q-7 0 -7 7v71q0 7 7 7h23q7 0 7 -7v-71q0 -7 -7 -7h-23zM530 645q7 0 7 -7v-631q0 -7 -7 -7h-21q-7 0 -7 7v396q0 124 3 195q-47 -83 -119 -195l-256 -397q-3 -6 -9 -6h-24q-7 0 -7 7v631q0 7 7 7 h22q6 0 6 -7v-396q0 -124 -3 -195q31 56 119 195l256 397q3 6 9 6h24z" />
<glyph unicode="&#x4e5;" horiz-adv-x="540" d="M191 586q-7 0 -7 7v71q0 7 7 7h23q7 0 7 -7v-71q0 -7 -7 -7h-23zM329 586q-7 0 -7 7v71q0 7 7 7h23q7 0 7 -7v-71q0 -7 -7 -7h-23zM449 493q6 0 6 -6v-480q0 -7 -6 -7h-22q-7 0 -7 7v250q0 127 2 188q-36 -60 -112 -168l-188 -273q-2 -4 -7 -4h-23q-7 0 -7 7v480q0 6 7 6 h21q7 0 7 -6v-246q0 -131 -2 -193q40 66 115 173l185 269q2 3 8 3h23z" />
<glyph unicode="&#x4e6;" horiz-adv-x="591" d="M215 738q-7 0 -7 7v71q0 7 7 7h23q7 0 7 -7v-71q0 -7 -7 -7h-23zM353 738q-7 0 -7 7v71q0 7 7 7h23q7 0 7 -7v-71q0 -7 -7 -7h-23zM80 156v333q0 91 45 127.5t167 36.5h6q122 0 167.5 -36.5t45.5 -127.5v-333q0 -91 -45.5 -127.5t-167.5 -36.5h-6q-122 0 -167 36.5 t-45 127.5zM115 156q0 -76 36 -103.5t141 -27.5h6q106 0 142 27.5t36 103.5v333q0 76 -36 103.5t-142 27.5h-6q-105 0 -141 -27.5t-36 -103.5v-333z" />
<glyph unicode="&#x4e7;" d="M184 586q-7 0 -7 7v71q0 7 7 7h23q7 0 7 -7v-71q0 -7 -7 -7h-23zM322 586q-7 0 -7 7v71q0 7 7 7h23q7 0 7 -7v-71q0 -7 -7 -7h-23zM75 149v195q0 86 41 121.5t145 35.5h6q105 0 146 -35.5t41 -121.5v-195q0 -86 -41 -121.5t-146 -35.5h-6q-104 0 -145 35.5t-41 121.5z M110 149q0 -71 31 -97.5t120 -26.5h6q89 0 120.5 26.5t31.5 97.5v195q0 71 -31.5 98t-120.5 27h-6q-88 0 -119.5 -27t-31.5 -98v-195z" />
<glyph unicode="&#x4e8;" horiz-adv-x="591" d="M298 653q122 0 167.5 -36.5t45.5 -127.5v-333q0 -91 -45.5 -127.5t-167.5 -36.5h-6q-122 0 -167 36.5t-45 127.5v333q0 91 45 127.5t167 36.5h6zM292 620q-105 0 -141 -27.5t-36 -103.5v-151h361v151q0 76 -36 103.5t-142 27.5h-6zM298 25q106 0 142 27.5t36 103.5v151 h-361v-151q0 -76 36 -103.5t141 -27.5h6z" />
<glyph unicode="&#x4e9;" d="M267 501q105 0 146 -35.5t41 -121.5v-195q0 -86 -41 -121.5t-146 -35.5h-6q-104 0 -145 35.5t-41 121.5v195q0 86 41 121.5t145 35.5h6zM261 469q-88 0 -119.5 -27t-31.5 -98v-81h309v81q0 71 -31.5 98t-120.5 27h-6zM267 25q89 0 120.5 26.5t31.5 97.5v82h-309v-82 q0 -71 31 -97.5t120 -26.5h6z" />
<glyph unicode="&#x4ea;" horiz-adv-x="591" d="M215 738q-7 0 -7 7v71q0 7 7 7h23q7 0 7 -7v-71q0 -7 -7 -7h-23zM353 738q-7 0 -7 7v71q0 7 7 7h23q7 0 7 -7v-71q0 -7 -7 -7h-23zM298 653q122 0 167.5 -36.5t45.5 -127.5v-333q0 -91 -45.5 -127.5t-167.5 -36.5h-6q-122 0 -167 36.5t-45 127.5v333q0 91 45 127.5 t167 36.5h6zM292 620q-105 0 -141 -27.5t-36 -103.5v-151h361v151q0 76 -36 103.5t-142 27.5h-6zM298 25q106 0 142 27.5t36 103.5v151h-361v-151q0 -76 36 -103.5t141 -27.5h6z" />
<glyph unicode="&#x4eb;" d="M184 586q-7 0 -7 7v71q0 7 7 7h23q7 0 7 -7v-71q0 -7 -7 -7h-23zM322 586q-7 0 -7 7v71q0 7 7 7h23q7 0 7 -7v-71q0 -7 -7 -7h-23zM267 501q105 0 146 -35.5t41 -121.5v-195q0 -86 -41 -121.5t-146 -35.5h-6q-104 0 -145 35.5t-41 121.5v195q0 86 41 121.5t145 35.5h6z M261 469q-88 0 -119.5 -27t-31.5 -98v-81h309v81q0 71 -31.5 98t-120.5 27h-6zM267 25q89 0 120.5 26.5t31.5 97.5v82h-309v-82q0 -71 31 -97.5t120 -26.5h6z" />
<glyph unicode="&#x4ec;" horiz-adv-x="574" d="M204 738q-7 0 -7 7v71q0 7 7 7h23q7 0 7 -7v-71q0 -7 -7 -7h-23zM342 738q-7 0 -7 7v71q0 7 7 7h23q7 0 7 -7v-71q0 -7 -7 -7h-23zM287 653q118 0 162.5 -36.5t44.5 -127.5v-333q0 -91 -44.5 -127.5t-162.5 -36.5h-6q-118 0 -162 36.5t-44 127.5v37q0 6 6 6h22q7 0 7 -6 v-37q0 -75 35 -103t136 -28h6q102 0 137 27.5t35 103.5v151h-238q-7 0 -7 6v19q0 7 7 7h238v150q0 76 -35 103.5t-137 27.5h-6q-101 0 -136 -28t-35 -103v-37q0 -6 -7 -6h-22q-6 0 -6 6v37q0 91 44 127.5t162 36.5h6z" />
<glyph unicode="&#x4ed;" horiz-adv-x="510" d="M171 586q-7 0 -7 7v71q0 7 7 7h23q7 0 7 -7v-71q0 -7 -7 -7h-23zM309 586q-7 0 -7 7v71q0 7 7 7h23q7 0 7 -7v-71q0 -7 -7 -7h-23zM254 501q101 0 141 -35.5t40 -121.5v-195q0 -86 -40 -121.5t-141 -35.5h-6q-101 0 -141 35.5t-40 121.5v9q0 6 6 6h22q6 0 6 -6v-9 q0 -71 30.5 -97.5t116.5 -26.5h6q85 0 115.5 26.5t30.5 97.5v82h-193q-7 0 -7 7v18q0 7 7 7h193v81q0 71 -30.5 98t-115.5 27h-6q-86 0 -116.5 -27t-30.5 -98v-8q0 -7 -6 -7h-22q-6 0 -6 7v8q0 86 40 121.5t141 35.5h6z" />
<glyph unicode="&#x4ee;" horiz-adv-x="464" d="M141 738q-7 0 -7 7v17q0 7 7 7h193q7 0 7 -7v-17q0 -7 -7 -7h-193zM457 645q8 0 6 -7l-207 -536q-25 -63 -55.5 -85t-93.5 -22h-39q-6 0 -6 7v19q0 7 6 7h44q45 0 68.5 16.5t39.5 57.5l11 29l-207 508q-2 6 6 6h22q5 0 8 -6l116 -286q51 -129 72 -192q25 82 68 191 l111 288q2 5 8 5h22z" />
<glyph unicode="&#x4ef;" horiz-adv-x="438" d="M125 586q-7 0 -7 7v17q0 7 7 7h193q7 0 7 -7v-17q0 -7 -7 -7h-193zM419 493q8 0 6 -6l-262 -684q-2 -5 -8 -5h-23q-8 0 -6 6l74 195l-183 488q-2 6 6 6h23q6 0 8 -5l96 -257q53 -142 70 -197q19 62 70 198l98 256q2 5 8 5h23z" />
<glyph unicode="&#x4f0;" horiz-adv-x="464" d="M157 738q-7 0 -7 7v71q0 7 7 7h23q7 0 7 -7v-71q0 -7 -7 -7h-23zM295 738q-7 0 -7 7v71q0 7 7 7h23q7 0 7 -7v-71q0 -7 -7 -7h-23zM457 645q8 0 6 -7l-207 -536q-25 -63 -55.5 -85t-93.5 -22h-39q-6 0 -6 7v19q0 7 6 7h44q45 0 68.5 16.5t39.5 57.5l11 29l-207 508 q-2 6 6 6h22q5 0 8 -6l116 -286q51 -129 72 -192q25 82 68 191l111 288q2 5 8 5h22z" />
<glyph unicode="&#x4f1;" horiz-adv-x="438" d="M141 586q-7 0 -7 7v71q0 7 7 7h23q7 0 7 -7v-71q0 -7 -7 -7h-23zM279 586q-7 0 -7 7v71q0 7 7 7h23q7 0 7 -7v-71q0 -7 -7 -7h-23zM419 493q8 0 6 -6l-262 -684q-2 -5 -8 -5h-23q-8 0 -6 6l74 195l-183 488q-2 6 6 6h23q6 0 8 -5l96 -257q53 -142 70 -197q19 62 70 198 l98 256q2 5 8 5h23z" />
<glyph unicode="&#x4f2;" horiz-adv-x="464" d="M157 716q-10 0 -5 8l57 94q4 5 8 5h23q10 0 5 -8l-62 -94q-4 -5 -9 -5h-17zM282 716q-10 0 -5 8l57 94q2 5 8 5h23q10 0 4 -8l-62 -94q-4 -5 -8 -5h-17zM457 645q8 0 6 -7l-207 -536q-25 -63 -55.5 -85t-93.5 -22h-39q-6 0 -6 7v19q0 7 6 7h44q45 0 68.5 16.5t39.5 57.5 l11 29l-207 508q-2 6 6 6h22q5 0 8 -6l116 -286q51 -129 72 -192q25 82 68 191l111 288q2 5 8 5h22z" />
<glyph unicode="&#x4f3;" horiz-adv-x="438" d="M141 564q-10 0 -5 8l57 94q4 5 8 5h23q10 0 5 -8l-62 -94q-4 -5 -9 -5h-17zM266 564q-10 0 -5 8l57 94q2 5 8 5h23q10 0 4 -8l-62 -94q-4 -5 -8 -5h-17zM419 493q8 0 6 -6l-262 -684q-2 -5 -8 -5h-23q-8 0 -6 6l74 195l-183 488q-2 6 6 6h23q6 0 8 -5l96 -257 q53 -142 70 -197q19 62 70 198l98 256q2 5 8 5h23z" />
<glyph unicode="&#x4f4;" horiz-adv-x="540" d="M167 738q-7 0 -7 7v71q0 7 7 7h23q7 0 7 -7v-71q0 -7 -7 -7h-23zM305 738q-7 0 -7 7v71q0 7 7 7h23q7 0 7 -7v-71q0 -7 -7 -7h-23zM443 645q7 0 7 -7v-631q0 -7 -7 -7h-22q-6 0 -6 7v278q-105 -54 -207 -54q-85 0 -124 39t-39 124v244q0 7 6 7h22q7 0 7 -7v-237 q0 -77 30 -107.5t100 -30.5q98 0 205 55v320q0 7 6 7h22z" />
<glyph unicode="&#x4f5;" horiz-adv-x="475" d="M137 586q-7 0 -7 7v71q0 7 7 7h23q7 0 7 -7v-71q0 -7 -7 -7h-23zM275 586q-7 0 -7 7v71q0 7 7 7h23q7 0 7 -7v-71q0 -7 -7 -7h-23zM383 493q7 0 7 -6v-480q0 -7 -7 -7h-22q-6 0 -6 7v204q-93 -51 -180 -51q-69 0 -98.5 31.5t-29.5 108.5v187q0 6 6 6h22q7 0 7 -6v-180 q0 -66 20.5 -90t74.5 -24q85 0 178 51v243q0 6 6 6h22z" />
<glyph unicode="&#x4f8;" horiz-adv-x="725" d="M560 823q7 0 7 -7v-71q0 -7 -7 -7h-23q-7 0 -7 7v71q0 7 7 7h23zM698 823q7 0 7 -7v-71q0 -7 -7 -7h-23q-7 0 -7 7v71q0 7 7 7h23zM317 372q88 0 126 -34.5t38 -110.5v-82q0 -76 -38 -110.5t-126 -34.5h-220q-7 0 -7 7v631q0 7 7 7h21q7 0 7 -7v-266h192zM628 645 q7 0 7 -7v-631q0 -7 -7 -7h-21q-7 0 -7 7v631q0 7 7 7h21zM446 145v82q0 65 -30.5 88.5t-109.5 23.5h-181v-306h181q79 0 109.5 23.5t30.5 88.5z" />
<glyph unicode="&#x4f9;" horiz-adv-x="656" d="M497 671q7 0 7 -7v-71q0 -7 -7 -7h-23q-7 0 -7 7v71q0 7 7 7h23zM635 671q7 0 7 -7v-71q0 -7 -7 -7h-23q-7 0 -7 7v71q0 7 7 7h23zM300 300q130 0 130 -111v-78q0 -111 -130 -111h-208q-7 0 -7 7v480q0 6 7 6h21q7 0 7 -6v-187h180zM564 493q7 0 7 -6v-480q0 -7 -7 -7 h-21q-7 0 -7 7v480q0 6 7 6h21zM395 111v78q0 42 -23 60t-77 18h-175v-234h175q54 0 77 18t23 60z" />
<glyph unicode="&#x1e80;" horiz-adv-x="809" d="M414 720l-101 95q-3 3 -1.5 5.5t5.5 2.5h29q4 0 8 -4l94 -94q9 -9 -3 -9h-23q-4 0 -8 4zM778 645q7 0 6 -8l-179 -630q-2 -7 -7 -7h-24q-6 0 -8 7l-113 399q-36 131 -48 187q-19 -86 -49 -187l-113 -399q-2 -7 -7 -7h-24q-6 0 -8 7l-178 630q-3 8 5 8h24q6 0 8 -7 l109 -386q42 -152 52 -197q16 68 51 197l110 386q1 7 7 7h25q6 0 8 -7l109 -386q42 -152 52 -197q16 68 51 197l110 386q1 7 7 7h24z" />
<glyph unicode="&#x1e81;" horiz-adv-x="711" d="M364 568l-101 95q-3 3 -1.5 5.5t5.5 2.5h29q4 0 8 -4l94 -94q9 -9 -3 -9h-23q-4 0 -8 4zM682 493q8 0 6 -7l-154 -480q-2 -6 -7 -6h-27q-6 0 -8 6l-78 245q-45 148 -59 202q-18 -75 -59 -202l-77 -245q-2 -6 -8 -6h-27q-6 0 -8 6l-153 480q-2 7 5 7h23q6 0 8 -6l79 -249 q40 -124 59 -201q17 64 59 200l79 250q2 6 8 6h25q5 0 7 -6l80 -250q35 -107 58 -200q14 56 59 201l80 249q2 6 7 6h23z" />
<glyph unicode="&#x1e82;" horiz-adv-x="809" d="M368 716q-5 0 -6.5 2.5t2.5 6.5l95 94q3 4 8 4h29q4 0 5.5 -2.5t-1.5 -5.5l-102 -95q-4 -4 -8 -4h-22zM778 645q7 0 6 -8l-179 -630q-2 -7 -7 -7h-24q-6 0 -8 7l-113 399q-36 131 -48 187q-19 -86 -49 -187l-113 -399q-2 -7 -7 -7h-24q-6 0 -8 7l-178 630q-3 8 5 8h24 q6 0 8 -7l109 -386q42 -152 52 -197q16 68 51 197l110 386q1 7 7 7h25q6 0 8 -7l109 -386q42 -152 52 -197q16 68 51 197l110 386q1 7 7 7h24z" />
<glyph unicode="&#x1e83;" horiz-adv-x="711" d="M318 564q-5 0 -6.5 2.5t2.5 6.5l95 94q3 4 8 4h29q4 0 5.5 -2.5t-1.5 -5.5l-102 -95q-4 -4 -8 -4h-22zM682 493q8 0 6 -7l-154 -480q-2 -6 -7 -6h-27q-6 0 -8 6l-78 245q-45 148 -59 202q-18 -75 -59 -202l-77 -245q-2 -6 -8 -6h-27q-6 0 -8 6l-153 480q-2 7 5 7h23 q6 0 8 -6l79 -249q40 -124 59 -201q17 64 59 200l79 250q2 6 8 6h25q5 0 7 -6l80 -250q35 -107 58 -200q14 56 59 201l80 249q2 6 7 6h23z" />
<glyph unicode="&#x1e84;" horiz-adv-x="809" d="M325 738q-7 0 -7 7v71q0 7 7 7h23q7 0 7 -7v-71q0 -7 -7 -7h-23zM463 738q-7 0 -7 7v71q0 7 7 7h23q7 0 7 -7v-71q0 -7 -7 -7h-23zM778 645q7 0 6 -8l-179 -630q-2 -7 -7 -7h-24q-6 0 -8 7l-113 399q-36 131 -48 187q-19 -86 -49 -187l-113 -399q-2 -7 -7 -7h-24 q-6 0 -8 7l-178 630q-3 8 5 8h24q6 0 8 -7l109 -386q42 -152 52 -197q16 68 51 197l110 386q1 7 7 7h25q6 0 8 -7l109 -386q42 -152 52 -197q16 68 51 197l110 386q1 7 7 7h24z" />
<glyph unicode="&#x1e85;" horiz-adv-x="711" d="M275 586q-7 0 -7 7v71q0 7 7 7h23q7 0 7 -7v-71q0 -7 -7 -7h-23zM413 586q-7 0 -7 7v71q0 7 7 7h23q7 0 7 -7v-71q0 -7 -7 -7h-23zM682 493q8 0 6 -7l-154 -480q-2 -6 -7 -6h-27q-6 0 -8 6l-78 245q-45 148 -59 202q-18 -75 -59 -202l-77 -245q-2 -6 -8 -6h-27q-6 0 -8 6 l-153 480q-2 7 5 7h23q6 0 8 -6l79 -249q40 -124 59 -201q17 64 59 200l79 250q2 6 8 6h25q5 0 7 -6l80 -250q35 -107 58 -200q14 56 59 201l80 249q2 6 7 6h23z" />
<glyph unicode="&#x1ef2;" horiz-adv-x="466" d="M243 720l-101 95q-3 3 -1.5 5.5t5.5 2.5h29q4 0 8 -4l94 -94q9 -9 -3 -9h-23q-4 0 -8 4zM451 645q8 0 6 -6l-207 -397v-235q0 -7 -6 -7h-22q-7 0 -7 7v239l-205 393q-4 6 5 6h23q6 0 8 -5l111 -212q41 -75 76 -158q32 74 77 158l110 212q2 5 8 5h23z" />
<glyph unicode="&#x1ef3;" horiz-adv-x="438" d="M230 568l-101 95q-3 3 -1.5 5.5t5.5 2.5h29q4 0 8 -4l94 -94q9 -9 -3 -9h-23q-4 0 -8 4zM419 493q8 0 6 -6l-262 -684q-2 -5 -8 -5h-23q-8 0 -6 6l74 195l-183 488q-2 6 6 6h23q6 0 8 -5l96 -257q53 -142 70 -197q19 62 70 198l98 256q2 5 8 5h23z" />
<glyph unicode="&#x2000;" horiz-adv-x="439" />
<glyph unicode="&#x2001;" horiz-adv-x="878" />
<glyph unicode="&#x2002;" horiz-adv-x="439" />
<glyph unicode="&#x2003;" horiz-adv-x="878" />
<glyph unicode="&#x2004;" horiz-adv-x="292" />
<glyph unicode="&#x2005;" horiz-adv-x="219" />
<glyph unicode="&#x2006;" horiz-adv-x="146" />
<glyph unicode="&#x2007;" horiz-adv-x="146" />
<glyph unicode="&#x2008;" horiz-adv-x="109" />
<glyph unicode="&#x2009;" horiz-adv-x="175" />
<glyph unicode="&#x200a;" horiz-adv-x="48" />
<glyph unicode="&#x2010;" horiz-adv-x="337" d="M35 268q-7 0 -7 7v19q0 7 7 7h267q6 0 6 -7v-19q0 -7 -6 -7h-267z" />
<glyph unicode="&#x2011;" horiz-adv-x="337" d="M35 268q-7 0 -7 7v19q0 7 7 7h267q6 0 6 -7v-19q0 -7 -6 -7h-267z" />
<glyph unicode="&#x2012;" horiz-adv-x="337" d="M35 268q-7 0 -7 7v19q0 7 7 7h267q6 0 6 -7v-19q0 -7 -6 -7h-267z" />
<glyph unicode="&#x2013;" horiz-adv-x="457" d="M35 268q-7 0 -7 7v19q0 7 7 7h387q6 0 6 -7v-19q0 -7 -6 -7h-387z" />
<glyph unicode="&#x2014;" horiz-adv-x="817" d="M35 268q-7 0 -7 7v19q0 7 7 7h747q6 0 6 -7v-19q0 -7 -6 -7h-747z" />
<glyph unicode="&#x2018;" horiz-adv-x="128" d="M53 648h6q7 0 7 -6l14 -109q1 -9 1 -15v-68q0 -7 -6 -7h-22q-6 0 -6 7v191q0 7 6 7z" />
<glyph unicode="&#x2019;" horiz-adv-x="128" d="M75 443h-6q-7 0 -7 6l-14 109q-1 9 -1 15v68q0 7 6 7h22q6 0 6 -7v-191q0 -7 -6 -7z" />
<glyph unicode="&#x201a;" horiz-adv-x="128" d="M53 -125q-6 0 -6 7v191q0 7 6 7h22q6 0 6 -7v-68q0 -6 -1 -15l-14 -109q0 -6 -7 -6h-6z" />
<glyph unicode="&#x201c;" horiz-adv-x="258" d="M53 648h6q7 0 7 -6l14 -109q1 -9 1 -15v-68q0 -7 -6 -7h-22q-6 0 -6 7v191q0 7 6 7zM183 648h6q7 0 7 -6l14 -109q1 -9 1 -15v-68q0 -7 -6 -7h-22q-6 0 -6 7v191q0 7 6 7z" />
<glyph unicode="&#x201d;" horiz-adv-x="258" d="M75 442h-6q-7 0 -7 6l-14 109q-1 9 -1 15v68q0 7 6 7h22q6 0 6 -7v-191q0 -7 -6 -7zM205 442h-6q-7 0 -7 6l-14 109q-1 9 -1 15v68q0 7 6 7h22q6 0 6 -7v-191q0 -7 -6 -7z" />
<glyph unicode="&#x201e;" horiz-adv-x="258" d="M53 -125q-6 0 -6 7v191q0 7 6 7h22q6 0 6 -7v-68q0 -6 -1 -15l-14 -109q0 -6 -7 -6h-6zM183 -125q-6 0 -6 7v191q0 7 6 7h22q6 0 6 -7v-68q0 -6 -1 -15l-14 -109q0 -6 -7 -6h-6z" />
<glyph unicode="&#x2020;" horiz-adv-x="440" d="M387 412q6 0 6 -7v-19q0 -6 -6 -6h-150v-373q0 -7 -6 -7h-22q-6 0 -6 7v373h-150q-6 0 -6 6v19q0 7 6 7h150v226q0 7 6 7h22q6 0 6 -7v-226h150z" />
<glyph unicode="&#x2021;" horiz-adv-x="440" d="M387 452q6 0 6 -7v-19q0 -6 -6 -6h-150v-190h131q7 0 7 -7v-19q0 -6 -7 -6h-131v-191q0 -7 -6 -7h-22q-6 0 -6 7v191h-131q-7 0 -7 6v19q0 7 7 7h131v190h-150q-6 0 -6 6v19q0 7 6 7h150v186q0 7 6 7h22q6 0 6 -7v-186h150z" />
<glyph unicode="&#x2022;" horiz-adv-x="301" d="M103 249q-6 0 -6 6v117q0 6 6 6h94q7 0 7 -6v-117q0 -6 -7 -6h-94z" />
<glyph unicode="&#x2026;" horiz-adv-x="491" d="M53 0q-6 0 -6 7v66q0 7 6 7h25q7 0 7 -7v-66q0 -7 -7 -7h-25zM233 0q-6 0 -6 7v66q0 7 6 7h25q7 0 7 -7v-66q0 -7 -7 -7h-25zM413 0q-6 0 -6 7v66q0 7 6 7h25q7 0 7 -7v-66q0 -7 -7 -7h-25z" />
<glyph unicode="&#x202f;" horiz-adv-x="175" />
<glyph unicode="&#x2030;" horiz-adv-x="1148" d="M168 297q-62 0 -91.5 29t-29.5 90v118q0 61 29.5 90t91.5 29h29q62 0 91.5 -29t29.5 -90v-118q0 -61 -29.5 -90t-91.5 -29h-29zM217 0q-9 0 -5 9l330 631q2 5 7 5h21q8 0 5 -7l-330 -633q-3 -5 -7 -5h-21zM168 327h29q47 0 68 20.5t21 68.5v118q0 48 -21 68.5t-68 20.5 h-29q-47 0 -68.5 -20.5t-21.5 -68.5v-118q0 -48 21.5 -68.5t68.5 -20.5zM590 -8q-62 0 -91.5 29t-29.5 90v118q0 61 29.5 90t91.5 29h29q62 0 91.5 -29t29.5 -90v-118q0 -61 -29.5 -90t-91.5 -29h-29zM951 -8q-62 0 -91.5 29t-29.5 90v118q0 61 29.5 90t91.5 29h29 q62 0 92 -29t30 -90v-118q0 -61 -30 -90t-92 -29h-29zM590 22h29q47 0 68.5 20.5t21.5 68.5v118q0 48 -21.5 68.5t-68.5 20.5h-29q-47 0 -68 -20.5t-21 -68.5v-118q0 -48 21 -68.5t68 -20.5zM951 22h29q47 0 68.5 20.5t21.5 68.5v118q0 48 -21.5 68.5t-68.5 20.5h-29 q-47 0 -68 -20.5t-21 -68.5v-118q0 -48 21 -68.5t68 -20.5z" />
<glyph unicode="&#x2039;" horiz-adv-x="259" d="M198 73q4 -6 0 -10l-12 -11q-5 -5 -9 0l-147 188q-3 5 0 10l147 188q4 5 9 0l12 -12q3 -5 0 -9l-130 -172z" />
<glyph unicode="&#x203a;" horiz-adv-x="259" d="M229 250q3 -5 0 -10l-147 -188q-4 -5 -9 0l-12 11q-4 4 0 10l130 172l-130 172q-3 4 0 9l12 12q5 5 9 0z" />
<glyph unicode="&#x2044;" horiz-adv-x="506" d="M58 0q-9 0 -4 8l364 631q4 6 9 6h20q9 0 4 -8l-364 -631q-4 -6 -9 -6h-20z" />
<glyph unicode="&#x205f;" horiz-adv-x="219" />
<glyph unicode="&#x20ac;" horiz-adv-x="570" d="M475 449q-7 0 -7 7v33q0 75 -33 103t-126 28h-6q-93 0 -126.5 -28t-33.5 -103v-80h213q6 0 6 -7v-16q0 -7 -6 -7h-213v-108h213q6 0 6 -7v-16q0 -7 -6 -7h-213v-85q0 -75 33.5 -103t126.5 -28h6q93 0 126 28t33 103v23q0 7 7 7h21q7 0 7 -7v-23q0 -90 -42.5 -127 t-151.5 -37h-6q-110 0 -152.5 37t-42.5 127v85h-55q-6 0 -6 7v16q0 7 6 7h55v108h-55q-6 0 -6 7v16q0 7 6 7h55v80q0 90 42.5 127t152.5 37h6q109 0 151.5 -37t42.5 -127v-33q0 -7 -7 -7h-21z" />
<glyph unicode="&#x20bd;" horiz-adv-x="523" d="M308 645q96 0 137 -35t41 -114v-66q0 -79 -41 -114t-137 -35h-175v-113h213q7 0 7 -7v-19q0 -6 -7 -6h-213v-129q0 -7 -7 -7h-21q-7 0 -7 7v129h-65q-6 0 -6 6v19q0 7 6 7h65v113h-65q-6 0 -6 7v19q0 7 6 7h65v324q0 7 7 7h203zM451 430v66q0 66 -33 91t-121 25h-164 v-298h164q88 0 121 25t33 91z" />
<glyph unicode="&#x2116;" horiz-adv-x="1143" d="M867 177q-105 0 -145.5 35.5t-40.5 121.5v162q0 86 40.5 121.5t145.5 35.5h6q105 0 145.5 -35.5t40.5 -121.5v-162q0 -86 -40.5 -121.5t-145.5 -35.5h-6zM530 645q7 0 7 -7v-631q0 -7 -7 -7h-24q-6 0 -9 6l-256 397q-72 112 -119 195q3 -71 3 -195v-396q0 -7 -7 -7h-21 q-7 0 -7 7v631q0 7 7 7h24q6 0 9 -6l256 -397q88 -139 119 -195q-3 71 -3 195v396q0 7 6 7h22zM716 496v-162q0 -71 31 -97.5t120 -26.5h6q89 0 120 26.5t31 97.5v162q0 71 -31 97.5t-120 26.5h-6q-89 0 -120 -26.5t-31 -97.5zM1057 32q6 0 6 -6v-20q0 -6 -6 -6h-374 q-6 0 -6 6v20q0 6 6 6h374z" />
<glyph unicode="&#x2122;" horiz-adv-x="811" d="M310 645q6 0 6 -7v-17q0 -7 -6 -7h-117v-307q0 -7 -7 -7h-20q-6 0 -6 7v307h-117q-6 0 -6 7v17q0 7 6 7h267zM737 645q7 0 7 -7v-331q0 -7 -7 -7h-19q-7 0 -7 7v277l-128 -206q-2 -4 -7 -4h-14q-4 0 -6 4l-129 206v-277q0 -7 -7 -7h-19q-7 0 -7 7v331q0 7 7 7h22 q5 0 9 -5l137 -225l138 225q3 5 8 5h22z" />
<glyph unicode="&#x212e;" horiz-adv-x="874" d="M438 22q138 0 228 105h62q-51 -62 -127 -98.5t-163 -36.5q-150 0 -255.5 97t-105.5 234t105.5 233.5t255.5 96.5q149 0 254.5 -96.5t105.5 -233.5q0 -11 -1 -16h-585v-184q90 -101 226 -101zM212 338h451v184q-91 101 -225 101q-136 0 -226 -101v-184z" />
<glyph unicode="&#x2190;" horiz-adv-x="745" d="M688 340q7 0 7 -6v-22q0 -6 -7 -6h-581l182 -191q5 -5 0 -9l-11 -12q-4 -4 -10 1l-214 223q-3 5 0 10l215 224q5 4 9 0l11 -12q5 -4 0 -9l-182 -191h581z" />
<glyph unicode="&#x2191;" horiz-adv-x="745" d="M601 426q5 -4 0 -9l-12 -11q-5 -4 -9 0l-191 182v-581q0 -7 -6 -7h-22q-6 0 -6 7v581l-191 -182q-4 -4 -9 0l-12 11q-5 5 1 10l223 214q5 3 10 0z" />
<glyph unicode="&#x2192;" horiz-adv-x="745" d="M691 328q3 -5 0 -10l-215 -224q-4 -4 -9 0l-11 12q-4 4 0 9l182 191h-581q-7 0 -7 6v22q0 6 7 6h581l-182 191q-4 5 0 9l11 12q5 4 10 -1z" />
<glyph unicode="&#x2193;" horiz-adv-x="745" d="M601 228q5 -4 -1 -10l-223 -214q-5 -3 -10 0l-224 215q-5 5 0 9l12 11q5 5 9 0l191 -182v581q0 7 6 7h22q6 0 6 -7v-581l191 182q4 5 9 0z" />
<glyph unicode="&#x2194;" horiz-adv-x="745" d="M690 327q2 -1 2 -4t-2 -5l-206 -217q-6 -4 -10 0l-11 11q-5 5 0 9l175 185h-531l175 -185q4 -4 -1 -9l-10 -11q-5 -5 -10 0l-207 217q-4 4 0 9l207 218q4 6 10 0l10 -11q5 -5 0 -10l-174 -183h530l-174 183q-4 4 0 10l11 11q5 5 9 0z" />
<glyph unicode="&#x2195;" horiz-adv-x="745" d="M583 232l11 -11q5 -5 0 -9l-218 -207q-2 -2 -5 -2t-4 2l-217 206q-4 6 0 10l11 11q5 5 9 0l185 -175v531l-185 -175q-4 -4 -9 1l-11 10q-5 5 0 10l217 207q1 1 4 1t5 -1l218 -207q6 -4 0 -10l-11 -10q-5 -5 -10 0l-183 174v-530l183 174q4 4 10 0z" />
<glyph unicode="&#x2196;" horiz-adv-x="745" d="M600 112q5 -5 1 -9l-16 -16q-4 -4 -9 1l-411 411l-6 -264q0 -6 -6 -6l-17 -1q-6 0 -6 8l6 309q2 5 7 7l311 6q6 0 6 -6l-1 -16q0 -7 -6 -7l-263 -6z" />
<glyph unicode="&#x2197;" horiz-adv-x="745" d="M609 544l6 -311q0 -6 -6 -6l-16 1q-7 0 -7 6l-6 263l-411 -410q-5 -5 -9 -1l-16 16q-4 4 1 9l411 411l-264 6q-6 0 -6 6l-1 17q0 6 8 6l309 -6q5 -2 7 -7z" />
<glyph unicode="&#x2198;" horiz-adv-x="745" d="M609 409q6 0 6 -8l-6 -309q-2 -5 -7 -7l-311 -6q-6 0 -6 6l1 16q0 7 6 7l263 6l-410 411q-5 5 -1 9l16 16q4 4 9 -1l411 -411l6 264q0 6 6 6z" />
<glyph unicode="&#x2199;" horiz-adv-x="745" d="M600 531q4 -4 -1 -9l-411 -411l264 -6q6 0 6 -6l1 -17q0 -6 -8 -6l-309 6q-5 2 -7 7l-6 311q0 6 6 6l16 -1q7 0 7 -6l6 -263l411 410q5 5 9 1z" />
<glyph unicode="&#x2202;" horiz-adv-x="483" d="M243 653q97 0 137 -37t40 -127v-340q0 -85 -40 -121t-137 -36h-13q-97 0 -137 35.5t-40 118.5v72q0 82 40.5 118t136.5 36h13q61 0 94.5 -15t47.5 -51v183q0 74 -30.5 102.5t-111.5 28.5h-133q-7 0 -7 7v19q0 7 7 7h133zM385 149v65q0 70 -30.5 97.5t-111.5 27.5h-13 q-80 0 -111 -27t-31 -94v-72q0 -69 30.5 -95t111.5 -26h13q80 0 111 27.5t31 96.5z" />
<glyph unicode="&#x2205;" horiz-adv-x="557" d="M485 597q8 0 5 -8l-68 -120q46 -35 46 -125v-195q0 -86 -41 -121.5t-146 -35.5h-6q-72 0 -113 16l-60 -106q-2 -5 -8 -5h-22q-9 0 -4 7l67 119q-46 35 -46 126v195q0 86 41 121.5t145 35.5h6q74 0 114 -17l61 108q2 5 8 5h21zM124 149q0 -70 29 -95l226 401 q-32 14 -98 14h-6q-88 0 -119.5 -27t-31.5 -98v-195zM433 344q0 68 -28 95l-226 -401q32 -13 96 -13h6q89 0 120.5 26.5t31.5 97.5v195z" />
<glyph unicode="&#x220f;" horiz-adv-x="495" d="M452 645q6 0 6 -7v-17q0 -7 -6 -7h-92v-607q0 -7 -6 -7h-22q-7 0 -7 7v607h-155v-607q0 -7 -6 -7h-22q-7 0 -7 7v607h-92q-6 0 -6 7v17q0 7 6 7h409z" />
<glyph unicode="&#x2211;" horiz-adv-x="395" d="M353 621q0 -7 -6 -7h-270l172 -287q1 -4 0 -10l-172 -286h270q6 0 6 -7v-17q0 -7 -6 -7h-299q-6 0 -6 7v20q0 4 2 8l171 288l-171 288q-2 3 -2 8v19q0 7 6 7h299q6 0 6 -7v-17z" />
<glyph unicode="&#x2212;" horiz-adv-x="500" d="M63 236q-6 0 -6 6v20q0 6 6 6h374q6 0 6 -6v-20q0 -6 -6 -6h-374z" />
<glyph unicode="&#x221a;" horiz-adv-x="423" d="M374 645q7 0 6 -7l-127 -631q-2 -7 -7 -7h-26q-4 0 -7 5l-122 234h-68q-6 0 -6 7v17q0 7 6 7h83q6 0 8 -5l113 -217l119 590q2 7 7 7h21z" />
<glyph unicode="&#x221e;" horiz-adv-x="934" d="M686 467q106 0 143.5 -33t37.5 -118v-134q0 -85 -37.5 -118t-143.5 -33h-6q-68 0 -101 23t-77 100l-35 63l-36 -63q-43 -77 -76.5 -100t-101.5 -23h-6q-105 0 -142.5 33t-37.5 118v134q0 85 37.5 118t142.5 33h6q68 0 102 -23.5t77 -99.5l35 -62l35 62q43 77 76.5 100 t101.5 23h6zM410 181l38 68l-38 68q-43 77 -69.5 97t-87.5 20h-6q-87 0 -116 -23.5t-29 -94.5v-134q0 -71 29 -94.5t116 -23.5h6q61 0 87 20t70 97zM832 182v134q0 71 -29 94.5t-117 23.5h-6q-60 0 -87 -20t-70 -97l-38 -67l39 -69q44 -77 70 -97t86 -20h6q88 0 117 23.5 t29 94.5z" />
<glyph unicode="&#x222b;" horiz-adv-x="288" d="M33 0q-6 0 -6 7v17q0 7 6 7h14q73 0 92.5 47.5t0.5 180.5l-18 126q-20 139 10.5 199.5t109.5 60.5h13q7 0 7 -7v-17q0 -7 -7 -7h-13q-61 0 -82 -50t-3 -179l18 -126q21 -144 -6.5 -201.5t-121.5 -57.5h-14z" />
<glyph unicode="&#x2248;" horiz-adv-x="500" d="M348 279q-42 0 -101 38t-96 38t-86 -33q-8 -5 -8 5v17q0 5 4 8q50 35 93 35q39 0 98 -38t97 -38q39 0 86 33q8 5 8 -5v-16q0 -7 -6 -11q-45 -33 -89 -33zM348 99q-42 0 -101 38t-96 38t-86 -33q-8 -5 -8 5v17q0 5 4 8q50 35 93 35q39 0 98 -38t97 -38q39 0 86 33 q8 5 8 -5v-16q0 -7 -6 -11q-45 -33 -89 -33z" />
<glyph unicode="&#x2260;" horiz-adv-x="500" d="M437 329h-114l-106 -158h220q6 0 6 -6v-20q0 -6 -6 -6h-241l-91 -135q-3 -4 -8 -4h-20q-10 0 -4 9l87 130h-97q-6 0 -6 6v20q0 6 6 6h119l106 158h-225q-6 0 -6 7v19q0 7 6 7h247l85 127q3 4 9 4h20q9 0 4 -8l-83 -123h92q6 0 6 -7v-19q0 -7 -6 -7z" />
<glyph unicode="&#x2264;" horiz-adv-x="500" d="M68 296q-5 2 -5 8v23q0 6 5 8l340 136q8 3 8 -4v-21q0 -6 -5 -8l-308 -122l317 -125q6 -1 6 -8v-21q0 -8 -8 -4zM437 33q6 0 6 -7v-19q0 -7 -6 -7h-374q-6 0 -6 7v19q0 7 6 7h374z" />
<glyph unicode="&#x2265;" horiz-adv-x="500" d="M82 158q-8 -4 -8 4v21q0 7 6 8l317 125l-308 122q-5 2 -5 8v21q0 7 8 4l340 -136q5 -2 5 -8v-23q0 -6 -5 -8zM437 33q6 0 6 -7v-19q0 -7 -6 -7h-374q-6 0 -6 7v19q0 7 6 7h374z" />
<glyph unicode="&#x25ca;" horiz-adv-x="496" d="M450 327q3 -4 0 -10l-184 -312q-4 -5 -8 -5h-19q-5 0 -9 5l-183 312q-3 5 0 11l183 312q3 5 9 5h19q5 0 8 -5zM248 36l169 286l-168 286l-169 -286z" />
<glyph unicode="&#x25fc;" horiz-adv-x="495" d="M0 495h495v-495h-495v495z" />
<glyph unicode="&#xf8ff;" horiz-adv-x="806" d="M80 638q0 7 7 7h632q7 0 7 -7v-631q0 -7 -7 -7h-632q-7 0 -7 7v631zM298 166q0 -5 6 -5h7q5 0 5 5v150h174v-150q0 -5 6 -5h6q6 0 6 5v313q0 5 -6 5h-6q-6 0 -6 -5v-147h-174v147q0 5 -5 5h-7q-6 0 -6 -5v-313z" />
<glyph horiz-adv-x="205" d="M92 586q-7 0 -7 7v71q0 7 7 7h23q7 0 7 -7v-71q0 -7 -7 -7h-23zM92 0q-7 0 -7 7v480q0 6 7 6h21q7 0 7 -6v-480q0 -7 -7 -7h-21z" />
<glyph horiz-adv-x="531" d="M440 493q6 0 6 -6v-480q0 -7 -6 -7h-11q-5 0 -7 5l-11 33q-88 -46 -183 -46q-82 0 -117.5 38.5t-35.5 124.5v184q0 86 35.5 124t117.5 38q95 0 183 -46l11 33q2 5 7 5h11zM110 162q0 -78 27 -107.5t97 -29.5q90 0 177 42v359q-89 43 -177 43q-70 0 -97 -30t-27 -107v-170 z" />
<glyph horiz-adv-x="531" d="M234 564q-5 0 -6.5 2.5t2.5 6.5l95 94q3 4 8 4h29q4 0 5.5 -2.5t-1.5 -5.5l-102 -95q-4 -4 -8 -4h-22zM440 493q6 0 6 -6v-480q0 -7 -6 -7h-11q-5 0 -7 5l-11 33q-88 -46 -183 -46q-82 0 -117.5 38.5t-35.5 124.5v184q0 86 35.5 124t117.5 38q95 0 183 -46l11 33q2 5 7 5 h11zM110 162q0 -78 27 -107.5t97 -29.5q90 0 177 42v359q-89 43 -177 43q-70 0 -97 -30t-27 -107v-170z" />
<glyph horiz-adv-x="531" d="M269 561q-54 0 -75 18.5t-21 66.5v18q0 7 6 7h16q7 0 7 -7v-18q0 -35 13 -46.5t54 -11.5h4q42 0 55 11.5t13 46.5v18q0 7 6 7h16q7 0 7 -7v-18q0 -48 -21 -66.5t-76 -18.5h-4zM440 493q6 0 6 -6v-480q0 -7 -6 -7h-11q-5 0 -7 5l-11 33q-88 -46 -183 -46 q-82 0 -117.5 38.5t-35.5 124.5v184q0 86 35.5 124t117.5 38q95 0 183 -46l11 33q2 5 7 5h11zM110 162q0 -78 27 -107.5t97 -29.5q90 0 177 42v359q-89 43 -177 43q-70 0 -97 -30t-27 -107v-170z" />
<glyph horiz-adv-x="531" d="M253 568l-87 95q-3 3 -1.5 5.5t5.5 2.5h23q4 0 8 -4l70 -80l70 80q5 4 9 4h22q11 0 5 -8l-87 -95q-4 -4 -8 -4h-21q-4 0 -8 4zM440 493q6 0 6 -6v-480q0 -7 -6 -7h-11q-5 0 -7 5l-11 33q-88 -46 -183 -46q-82 0 -117.5 38.5t-35.5 124.5v184q0 86 35.5 124t117.5 38 q95 0 183 -46l11 33q2 5 7 5h11zM110 162q0 -78 27 -107.5t97 -29.5q90 0 177 42v359q-89 43 -177 43q-70 0 -97 -30t-27 -107v-170z" />
<glyph horiz-adv-x="531" d="M170 564q-4 0 -5.5 2.5t1.5 5.5l87 95q4 4 8 4h21q4 0 8 -4l87 -95q6 -8 -5 -8h-22q-4 0 -9 4l-70 80l-70 -80q-4 -4 -8 -4h-23zM440 493q6 0 6 -6v-480q0 -7 -6 -7h-11q-5 0 -7 5l-11 33q-88 -46 -183 -46q-82 0 -117.5 38.5t-35.5 124.5v184q0 86 35.5 124t117.5 38 q95 0 183 -46l11 33q2 5 7 5h11zM110 162q0 -78 27 -107.5t97 -29.5q90 0 177 42v359q-89 43 -177 43q-70 0 -97 -30t-27 -107v-170z" />
<glyph horiz-adv-x="531" d="M191 586q-7 0 -7 7v71q0 7 7 7h23q7 0 7 -7v-71q0 -7 -7 -7h-23zM329 586q-7 0 -7 7v71q0 7 7 7h23q7 0 7 -7v-71q0 -7 -7 -7h-23zM440 493q6 0 6 -6v-480q0 -7 -6 -7h-11q-5 0 -7 5l-11 33q-88 -46 -183 -46q-82 0 -117.5 38.5t-35.5 124.5v184q0 86 35.5 124t117.5 38 q95 0 183 -46l11 33q2 5 7 5h11zM110 162q0 -78 27 -107.5t97 -29.5q90 0 177 42v359q-89 43 -177 43q-70 0 -97 -30t-27 -107v-170z" />
<glyph horiz-adv-x="531" d="M280 568l-101 95q-3 3 -1.5 5.5t5.5 2.5h29q4 0 8 -4l94 -94q9 -9 -3 -9h-23q-4 0 -8 4zM440 493q6 0 6 -6v-480q0 -7 -6 -7h-11q-5 0 -7 5l-11 33q-88 -46 -183 -46q-82 0 -117.5 38.5t-35.5 124.5v184q0 86 35.5 124t117.5 38q95 0 183 -46l11 33q2 5 7 5h11zM110 162 q0 -78 27 -107.5t97 -29.5q90 0 177 42v359q-89 43 -177 43q-70 0 -97 -30t-27 -107v-170z" />
<glyph horiz-adv-x="531" d="M175 586q-7 0 -7 7v17q0 7 7 7h193q7 0 7 -7v-17q0 -7 -7 -7h-193zM440 493q6 0 6 -6v-480q0 -7 -6 -7h-11q-5 0 -7 5l-11 33q-88 -46 -183 -46q-82 0 -117.5 38.5t-35.5 124.5v184q0 86 35.5 124t117.5 38q95 0 183 -46l11 33q2 5 7 5h11zM110 162q0 -78 27 -107.5 t97 -29.5q90 0 177 42v359q-89 43 -177 43q-70 0 -97 -30t-27 -107v-170z" />
<glyph horiz-adv-x="531" d="M400 -47q-36 -36 -44.5 -49.5t-8.5 -33.5v-8q0 -24 11 -32.5t47 -8.5h35q6 0 6 -7v-15q0 -7 -6 -7h-35q-49 0 -69.5 16.5t-20.5 53.5v8q0 24 11 41.5t48 52.5l47 44l-10 30q-88 -46 -183 -46q-82 0 -117.5 38.5t-35.5 124.5v184q0 86 35.5 124t117.5 38q95 0 183 -46 l11 33q2 5 7 5h11q6 0 6 -6v-480q0 -3 -1 -4q0 -4 -4 -8zM110 162q0 -78 27 -107.5t97 -29.5q90 0 177 42v359q-89 43 -177 43q-70 0 -97 -30t-27 -107v-170z" />
<glyph horiz-adv-x="531" d="M270 560q-46 0 -62 11.5t-16 43.5v15q0 32 16 44t62 12h2q46 0 62 -12t16 -44v-15q0 -32 -15.5 -43.5t-62.5 -11.5h-2zM217 629v-12q0 -22 9 -28t44 -6h2q35 0 44 6t9 28v12q0 22 -9 28t-44 6h-2q-35 0 -44 -6t-9 -28zM440 493q6 0 6 -6v-480q0 -7 -6 -7h-11q-5 0 -7 5 l-11 33q-88 -46 -183 -46q-82 0 -117.5 38.5t-35.5 124.5v184q0 86 35.5 124t117.5 38q95 0 183 -46l11 33q2 5 7 5h11zM110 162q0 -78 27 -107.5t97 -29.5q90 0 177 42v359q-89 43 -177 43q-70 0 -97 -30t-27 -107v-170z" />
<glyph horiz-adv-x="531" d="M152 578q-6 0 -6 6v26q0 27 13 42.5t36 15.5q25 0 53 -18l65 -44q20 -14 34 -14q23 0 23 32v27q0 6 6 6h14q7 0 7 -6v-26q0 -27 -13 -42.5t-36 -15.5q-24 0 -53 18l-65 44q-20 14 -35 14q-22 0 -22 -32v-27q0 -6 -7 -6h-14zM440 493q6 0 6 -6v-480q0 -7 -6 -7h-11 q-5 0 -7 5l-11 33q-88 -46 -183 -46q-82 0 -117.5 38.5t-35.5 124.5v184q0 86 35.5 124t117.5 38q95 0 183 -46l11 33q2 5 7 5h11zM110 162q0 -78 27 -107.5t97 -29.5q90 0 177 42v359q-89 43 -177 43q-70 0 -97 -30t-27 -107v-170z" />
<glyph horiz-adv-x="531" d="M440 493q6 0 6 -6v-538q0 -86 -41.5 -121.5t-146.5 -35.5h-126q-7 0 -7 7v19q0 7 7 7h123q91 0 123.5 26.5t32.5 95.5v91q-88 -46 -183 -46q-82 0 -117.5 38.5t-35.5 124.5v184q0 86 35.5 124t117.5 38q95 0 183 -46l11 33q1 5 7 5h11zM234 25q90 0 177 42v359 q-89 43 -177 43q-70 0 -97 -30t-27 -107v-170q0 -78 27 -107.5t97 -29.5z" />
<glyph horiz-adv-x="531" d="M267 561q-54 0 -75 18.5t-21 66.5v18q0 7 6 7h16q7 0 7 -7v-18q0 -35 13 -46.5t54 -11.5h4q42 0 55 11.5t13 46.5v18q0 7 6 7h16q7 0 7 -7v-18q0 -48 -21 -66.5t-76 -18.5h-4zM440 493q6 0 6 -6v-538q0 -86 -41.5 -121.5t-146.5 -35.5h-126q-7 0 -7 7v19q0 7 7 7h123 q91 0 123.5 26.5t32.5 95.5v91q-88 -46 -183 -46q-82 0 -117.5 38.5t-35.5 124.5v184q0 86 35.5 124t117.5 38q95 0 183 -46l11 33q1 5 7 5h11zM234 25q90 0 177 42v359q-89 43 -177 43q-70 0 -97 -30t-27 -107v-170q0 -78 27 -107.5t97 -29.5z" />
<glyph horiz-adv-x="531" d="M168 564q-4 0 -5.5 2.5t1.5 5.5l87 95q4 4 8 4h21q4 0 8 -4l87 -95q6 -8 -5 -8h-22q-4 0 -9 4l-70 80l-70 -80q-4 -4 -8 -4h-23zM440 493q6 0 6 -6v-538q0 -86 -41.5 -121.5t-146.5 -35.5h-126q-7 0 -7 7v19q0 7 7 7h123q91 0 123.5 26.5t32.5 95.5v91q-88 -46 -183 -46 q-82 0 -117.5 38.5t-35.5 124.5v184q0 86 35.5 124t117.5 38q95 0 183 -46l11 33q1 5 7 5h11zM234 25q90 0 177 42v359q-89 43 -177 43q-70 0 -97 -30t-27 -107v-170q0 -78 27 -107.5t97 -29.5z" />
<glyph horiz-adv-x="531" d="M259 564q-6 0 -6 7v131q0 7 6 7h5q7 0 8 -6l13 -71q1 -7 1 -13v-48q0 -7 -7 -7h-20zM440 493q6 0 6 -6v-538q0 -86 -41.5 -121.5t-146.5 -35.5h-126q-7 0 -7 7v19q0 7 7 7h123q91 0 123.5 26.5t32.5 95.5v91q-88 -46 -183 -46q-82 0 -117.5 38.5t-35.5 124.5v184 q0 86 35.5 124t117.5 38q95 0 183 -46l11 33q1 5 7 5h11zM234 25q90 0 177 42v359q-89 43 -177 43q-70 0 -97 -30t-27 -107v-170q0 -78 27 -107.5t97 -29.5z" />
<glyph horiz-adv-x="531" d="M258 586q-7 0 -7 7v71q0 7 7 7h23q7 0 7 -7v-71q0 -7 -7 -7h-23zM440 493q6 0 6 -6v-538q0 -86 -41.5 -121.5t-146.5 -35.5h-126q-7 0 -7 7v19q0 7 7 7h123q91 0 123.5 26.5t32.5 95.5v91q-88 -46 -183 -46q-82 0 -117.5 38.5t-35.5 124.5v184q0 86 35.5 124t117.5 38 q95 0 183 -46l11 33q1 5 7 5h11zM234 25q90 0 177 42v359q-89 43 -177 43q-70 0 -97 -30t-27 -107v-170q0 -78 27 -107.5t97 -29.5z" />
<glyph horiz-adv-x="530" d="M438 493q7 0 7 -6v-538q0 -86 -41.5 -121.5t-146.5 -35.5h-126q-7 0 -7 7v19q0 7 7 7h123q91 0 123.5 26.5t32.5 95.5v91q-85 -46 -178 -46q-82 0 -117 38.5t-35 124.5v332q0 6 7 6h21q7 0 7 -6v-325q0 -78 27 -107.5t96 -29.5q91 0 172 42v420q0 6 6 6h22z" />
<glyph horiz-adv-x="530" d="M225 564q-5 0 -6.5 2.5t2.5 6.5l95 94q3 4 8 4h29q4 0 5.5 -2.5t-1.5 -5.5l-102 -95q-4 -4 -8 -4h-22zM438 493q7 0 7 -6v-538q0 -86 -41.5 -121.5t-146.5 -35.5h-126q-7 0 -7 7v19q0 7 7 7h123q91 0 123.5 26.5t32.5 95.5v91q-85 -46 -178 -46q-82 0 -117 38.5 t-35 124.5v332q0 6 7 6h21q7 0 7 -6v-325q0 -78 27 -107.5t96 -29.5q91 0 172 42v420q0 6 6 6h22z" />
<glyph horiz-adv-x="530" d="M161 564q-4 0 -5.5 2.5t1.5 5.5l87 95q4 4 8 4h21q4 0 8 -4l87 -95q6 -8 -5 -8h-22q-4 0 -9 4l-70 80l-70 -80q-4 -4 -8 -4h-23zM438 493q7 0 7 -6v-538q0 -86 -41.5 -121.5t-146.5 -35.5h-126q-7 0 -7 7v19q0 7 7 7h123q91 0 123.5 26.5t32.5 95.5v91q-85 -46 -178 -46 q-82 0 -117 38.5t-35 124.5v332q0 6 7 6h21q7 0 7 -6v-325q0 -78 27 -107.5t96 -29.5q91 0 172 42v420q0 6 6 6h22z" />
<glyph horiz-adv-x="530" d="M182 586q-7 0 -7 7v71q0 7 7 7h23q7 0 7 -7v-71q0 -7 -7 -7h-23zM320 586q-7 0 -7 7v71q0 7 7 7h23q7 0 7 -7v-71q0 -7 -7 -7h-23zM438 493q7 0 7 -6v-538q0 -86 -41.5 -121.5t-146.5 -35.5h-126q-7 0 -7 7v19q0 7 7 7h123q91 0 123.5 26.5t32.5 95.5v91 q-85 -46 -178 -46q-82 0 -117 38.5t-35 124.5v332q0 6 7 6h21q7 0 7 -6v-325q0 -78 27 -107.5t96 -29.5q91 0 172 42v420q0 6 6 6h22z" />
<glyph horiz-adv-x="530" d="M271 568l-101 95q-3 3 -1.5 5.5t5.5 2.5h29q4 0 8 -4l94 -94q9 -9 -3 -9h-23q-4 0 -8 4zM438 493q7 0 7 -6v-538q0 -86 -41.5 -121.5t-146.5 -35.5h-126q-7 0 -7 7v19q0 7 7 7h123q91 0 123.5 26.5t32.5 95.5v91q-85 -46 -178 -46q-82 0 -117 38.5t-35 124.5v332q0 6 7 6 h21q7 0 7 -6v-325q0 -78 27 -107.5t96 -29.5q91 0 172 42v420q0 6 6 6h22z" />
<glyph horiz-adv-x="615" d="M580 28q7 0 7 -7v-18q0 -7 -7 -7h-42q-76 0 -103.5 29t-27.5 113v324h-263v-318q0 -72 19 -94t79 -22h40q7 0 7 -7v-18q0 -7 -7 -7h-42q-76 0 -103.5 29t-27.5 113v324h-90q-7 0 -7 7v8q0 5 8 6l89 8v147q0 7 7 7h21q7 0 7 -7v-145h263v145q0 7 7 7h21q7 0 7 -7v-145h136 q7 0 7 -6v-18q0 -7 -7 -7h-136v-318q0 -72 19 -94t79 -22h40z" />
<glyph horiz-adv-x="519" d="M516 33q6 0 6 -7v-152q0 -6 -6 -6h-12q-7 0 -7 6l-9 126h-457l-9 -126q0 -6 -7 -6h-12q-6 0 -6 6v152q0 7 6 7h46l191 606q2 6 8 6h23q5 0 7 -6l192 -606h46zM85 33h349l-122 387q-36 114 -53 181q-16 -67 -52 -181z" />
<glyph horiz-adv-x="518" d="M498 7q2 -7 -6 -7h-23q-6 0 -8 6l-141 406q-36 99 -61 187q-25 -88 -61 -187l-141 -406q-2 -6 -8 -6h-23q-8 0 -6 7l220 632q2 6 8 6h22q6 0 8 -6z" />
<glyph horiz-adv-x="501" d="M336 332q61 -8 87 -40.5t26 -100.5v-44q0 -86 -39.5 -120.5t-141.5 -34.5h-6q-102 0 -142 34.5t-40 120.5v351q0 86 38 120.5t132 34.5h8q94 0 131.5 -34.5t37.5 -120.5v-28q0 -62 -21 -94t-70 -44zM250 620q-78 0 -106.5 -25t-28.5 -97v-151h136q81 0 111 25.5t30 97.5 v28q0 72 -28 97t-106 25h-8zM414 147v44q0 72 -31 97.5t-115 25.5h-153v-167q0 -72 31 -97t116 -25h6q85 0 115.5 25t30.5 97z" />
<glyph horiz-adv-x="472" d="M55 114v16q0 48 22 73.5t78 42.5l138 41q51 15 66.5 29t15.5 46v15q0 48 -30 70t-106 22h-6q-74 0 -103 -20.5t-29 -68.5v-39q0 -6 -7 -6h-21q-7 0 -7 6v39q0 62 39 91.5t128 29.5h6q91 0 131 -30.5t40 -93.5v-15q0 -43 -21.5 -65.5t-79.5 -39.5l-138 -41 q-49 -14 -65 -32t-16 -54v-16q0 -48 32 -68.5t112 -20.5h6q79 0 110.5 21t31.5 69v38q0 6 7 6h21q7 0 7 -6v-38q0 -62 -41.5 -92.5t-137.5 -30.5h-6q-97 0 -137 29.5t-40 92.5z" />
<glyph horiz-adv-x="531" d="M440 493q6 0 6 -6v-538q0 -86 -41.5 -121.5t-146.5 -35.5h-126q-7 0 -7 7v19q0 7 7 7h123q91 0 123.5 26.5t32.5 95.5v91q-88 -46 -183 -46q-82 0 -117.5 38.5t-35.5 124.5v184q0 86 35.5 124t117.5 38q95 0 183 -46l11 33q1 5 7 5h11zM234 25q90 0 177 42v359 q-89 43 -177 43q-70 0 -97 -30t-27 -107v-170q0 -78 27 -107.5t97 -29.5z" />
<glyph horiz-adv-x="653" d="M631 7q4 -7 -5 -7h-26q-5 0 -9 5l-137 230h-110v-228q0 -7 -7 -7h-21q-7 0 -7 7v228h-110l-137 -230q-4 -5 -9 -5h-26q-9 0 -5 7l147 242l-143 238q-4 6 5 6h26q6 0 9 -5l130 -220h113v425q0 7 7 7h21q7 0 7 -7v-425h113l130 220q3 5 9 5h26q9 0 5 -6l-143 -238z" />
<glyph horiz-adv-x="487" d="M328 249q51 -7 74 -32.5t23 -76.5v-22q0 -67 -40 -96.5t-138 -29.5h-6q-98 0 -138.5 29.5t-40.5 96.5v30q0 6 7 6h22q6 0 6 -6v-30q0 -53 30.5 -73t113.5 -20h6q82 0 112.5 20t30.5 73v22q0 52 -30.5 72.5t-112.5 20.5h-59q-7 0 -7 6v20q0 6 7 6h59q78 0 107.5 20.5 t29.5 72.5v18q0 52 -29.5 72.5t-107.5 20.5h-6q-78 0 -108 -20.5t-30 -72.5v-30q0 -6 -6 -6h-22q-7 0 -7 6v30q0 67 39.5 96t133.5 29h6q94 0 133 -29t39 -96v-18q0 -50 -22 -75.5t-69 -33.5z" />
<glyph horiz-adv-x="530" d="M438 493q7 0 7 -6v-480q0 -7 -6 -7h-11q-5 0 -7 5l-11 33q-85 -46 -178 -46q-82 0 -117 38.5t-35 124.5v332q0 6 7 6h21q7 0 7 -6v-325q0 -78 27 -107.5t96 -29.5q91 0 172 42v420q0 6 6 6h22z" />
<glyph horiz-adv-x="530" d="M262 561q-54 0 -75 18.5t-21 66.5v18q0 7 6 7h16q7 0 7 -7v-18q0 -35 13 -46.5t54 -11.5h4q42 0 55 11.5t13 46.5v18q0 7 6 7h16q7 0 7 -7v-18q0 -48 -21 -66.5t-76 -18.5h-4zM438 493q7 0 7 -6v-480q0 -7 -6 -7h-11q-5 0 -7 5l-11 33q-85 -46 -178 -46q-82 0 -117 38.5 t-35 124.5v332q0 6 7 6h21q7 0 7 -6v-325q0 -78 27 -107.5t96 -29.5q91 0 172 42v420q0 6 6 6h22z" />
<glyph horiz-adv-x="530" d="M273 568l-101 95q-3 3 -1.5 5.5t5.5 2.5h29q4 0 8 -4l94 -94q9 -9 -3 -9h-23q-4 0 -8 4zM438 493q7 0 7 -6v-480q0 -7 -6 -7h-11q-5 0 -7 5l-11 33q-85 -46 -178 -46q-82 0 -117 38.5t-35 124.5v332q0 6 7 6h21q7 0 7 -6v-325q0 -78 27 -107.5t96 -29.5q91 0 172 42v420 q0 6 6 6h22z" />
<glyph horiz-adv-x="458" d="M435 8q6 -8 -4 -8h-27q-6 0 -8 4l-167 231h-109v-228q0 -7 -7 -7h-21q-7 0 -7 7v686q0 7 7 7h21q7 0 7 -7v-425h112l160 221q2 4 8 4h27q10 0 4 -8l-171 -236z" />
<glyph horiz-adv-x="443" d="M426 6q2 -6 -6 -6h-23q-6 0 -8 5l-98 257q-49 128 -69 195q-20 -65 -70 -195l-98 -257q-2 -5 -8 -5h-23q-8 0 -6 6l184 482q2 5 8 5h25q6 0 8 -5z" />
<glyph horiz-adv-x="534" d="M300 501q83 0 118.5 -38.5t35.5 -123.5v-332q0 -7 -7 -7h-22q-6 0 -6 7v325q0 77 -27 107t-97 30q-90 0 -175 -41v-421q0 -7 -7 -7h-21q-7 0 -7 7v480q0 6 5 6h12q5 0 7 -5l10 -31q88 44 181 44z" />
<glyph horiz-adv-x="822" d="M592 501q80 0 115 -38.5t35 -123.5v-332q0 -7 -7 -7h-21q-7 0 -7 7v325q0 77 -26.5 107t-94.5 30q-88 0 -164 -46q12 -35 12 -84v-332q0 -7 -7 -7h-22q-6 0 -6 7v325q0 77 -27 107t-95 30q-86 0 -157 -42v-420q0 -7 -7 -7h-21q-7 0 -7 7v480q0 6 5 6h12q5 0 7 -5l11 -32 q77 45 163 45q95 0 128 -55q82 55 181 55z" />
<glyph horiz-adv-x="535" d="M497 33q6 0 6 -7v-152q0 -6 -6 -6h-12q-7 0 -7 6l-9 126h-41q-5 0 -7 5l-11 33q-85 -46 -178 -46q-82 0 -117 38.5t-35 124.5v332q0 6 7 6h21q7 0 7 -6v-325q0 -78 27 -107.5t96 -29.5q91 0 172 42v420q0 6 6 6h22q7 0 7 -6v-454h52z" />
<glyph horiz-adv-x="822" d="M730 493q7 0 7 -7v-480q0 -6 -5 -6h-12q-5 0 -7 5l-11 32q-77 -45 -163 -45q-95 0 -128 55q-82 -55 -181 -55q-80 0 -115 38.5t-35 123.5v332q0 7 7 7h21q7 0 7 -7v-325q0 -77 26.5 -107t94.5 -30q88 0 164 46q-12 34 -12 84v332q0 7 7 7h22q6 0 6 -7v-325q0 -77 27 -107 t95 -30q86 0 157 42v420q0 7 7 7h21z" />
<glyph horiz-adv-x="827" d="M789 33q6 0 6 -7v-152q0 -6 -6 -6h-12q-7 0 -7 6l-9 126h-41q-5 0 -7 5l-11 32q-77 -45 -163 -45q-95 0 -128 55q-82 -55 -181 -55q-80 0 -115 38.5t-35 123.5v332q0 7 7 7h21q7 0 7 -7v-325q0 -77 26.5 -107t94.5 -30q88 0 164 46q-12 34 -12 84v332q0 7 7 7h22 q6 0 6 -7v-325q0 -77 27 -107t95 -30q86 0 157 42v420q0 7 7 7h21q7 0 7 -7v-453h52z" />
<glyph horiz-adv-x="477" d="M307 300q127 0 127 -110v-80q0 -110 -127 -110h-100q-127 0 -127 110v377q0 6 7 6h21q7 0 7 -6v-227q22 40 96 40h96zM399 110v80q0 42 -22 59.5t-75 17.5h-90q-52 0 -74.5 -18t-22.5 -59v-80q0 -41 22.5 -59t74.5 -18h90q53 0 75 17.5t22 59.5z" />
<glyph horiz-adv-x="519" d="M349 300q127 0 127 -110v-80q0 -110 -127 -110h-100q-127 0 -127 110v351h-117q-7 0 -7 6v20q0 6 7 6h145q7 0 7 -6v-227q22 40 96 40h96zM441 110v80q0 42 -22 59.5t-75 17.5h-90q-52 0 -74.5 -18t-22.5 -59v-80q0 -41 22.5 -59t74.5 -18h90q53 0 75 17.5t22 59.5z" />
<glyph horiz-adv-x="696" d="M445 501q97 0 136.5 -35.5t39.5 -121.5v-195q0 -86 -39.5 -121.5t-136.5 -35.5h-6q-98 0 -137.5 35.5t-39.5 121.5v82h-142v-224q0 -7 -7 -7h-21q-7 0 -7 7v686q0 7 7 7h21q7 0 7 -7v-430h142v81q0 86 39.5 121.5t137.5 35.5h6zM586 149v195q0 71 -30 98t-111 27h-6 q-82 0 -112 -27t-30 -98v-195q0 -71 30 -97.5t112 -26.5h6q82 0 111.5 26.5t29.5 97.5z" />
<glyph horiz-adv-x="583" d="M85 156v333q0 91 44 127.5t160 36.5h6q116 0 159.5 -36.5t43.5 -127.5v-333q0 -91 -43.5 -127.5t-159.5 -36.5h-6q-116 0 -160 36.5t-44 127.5zM120 156q0 -75 34.5 -103t134.5 -28h6q99 0 133.5 28t34.5 103v333q0 75 -34.5 103t-133.5 28h-6q-100 0 -134.5 -28 t-34.5 -103v-333z" />
<glyph horiz-adv-x="438" d="M383 33q7 0 7 -7v-19q0 -7 -7 -7h-323q-7 0 -7 7v19q0 7 7 7h156v577l-135 -70q-9 -4 -9 4v21q0 4 6 8l134 70q4 2 9 2h24q6 0 6 -7v-605h132z" />
<glyph horiz-adv-x="547" d="M220 272q-67 -15 -86 -36t-19 -78v-125h350q7 0 7 -7v-19q0 -7 -7 -7h-378q-7 0 -7 7v155q0 67 26.5 96t101.5 46l124 28q66 15 85.5 37t19.5 77v51q0 71 -32.5 97t-123.5 26h-6q-91 0 -123.5 -26.5t-32.5 -97.5v-40q0 -7 -6 -7h-22q-7 0 -7 7v40q0 85 41.5 121t149.5 36 h6q108 0 149.5 -35.5t41.5 -120.5v-51q0 -68 -26.5 -98.5t-101.5 -47.5z" />
<glyph horiz-adv-x="552" d="M368 328q59 -8 81.5 -37t22.5 -91v-51q0 -86 -42.5 -121.5t-153.5 -35.5h-6q-110 0 -152.5 35.5t-42.5 121.5v30q0 7 7 7h21q7 0 7 -7v-30q0 -71 32.5 -97.5t127.5 -26.5h6q95 0 128 26.5t33 97.5v51q0 66 -31 88.5t-130 22.5h-63q-7 0 -7 7v19q0 7 7 7h57q99 0 130 22.5 t31 88.5v41q0 72 -31.5 98t-123.5 26h-6q-92 0 -123.5 -26t-31.5 -98v-40q0 -7 -6 -7h-22q-7 0 -7 7v40q0 87 41.5 122t148.5 35h6q107 0 148.5 -35t41.5 -122v-41q0 -61 -21 -89.5t-77 -37.5z" />
<glyph horiz-adv-x="523" d="M474 199q7 0 7 -7v-18q0 -7 -7 -7h-72v-160q0 -7 -7 -7h-21q-7 0 -7 7v160h-319q-6 0 -6 7v21q0 4 3 8l319 438q3 4 8 4h23q7 0 7 -7v-439h72zM80 199h287v393z" />
<glyph horiz-adv-x="544" d="M281 370q107 0 147.5 -36t40.5 -128v-50q0 -91 -42 -127.5t-150 -36.5h-6q-108 0 -149.5 36.5t-41.5 127.5v23q0 7 7 7h21q7 0 7 -7v-23q0 -76 32.5 -103.5t123.5 -27.5h6q92 0 124.5 27.5t32.5 103.5v50q0 77 -31 104t-122 27h-164q-4 0 -9 4l-11 9q-3 2 -3 9v279 q0 7 7 7h346q6 0 6 -7v-19q0 -7 -6 -7h-318v-242h152z" />
<glyph horiz-adv-x="572" d="M291 371q114 0 157.5 -36.5t43.5 -127.5v-51q0 -91 -43.5 -127.5t-157.5 -36.5h-6q-113 0 -156.5 36.5t-43.5 127.5v333q0 90 43 127t154 37h6q111 0 153.5 -36.5t42.5 -127.5v-33q0 -7 -6 -7h-22q-7 0 -7 7v33q0 75 -33.5 103t-127.5 28h-6q-95 0 -128.5 -28t-33.5 -103 v-187q15 38 53 53.5t112 15.5h6zM457 156v51q0 75 -34.5 103t-131.5 28h-6q-97 0 -131 -28t-34 -103v-51q0 -75 34 -103t131 -28h6q97 0 131.5 28t34.5 103z" />
<glyph horiz-adv-x="432" d="M402 645q7 0 7 -7v-21q0 -6 -2 -10l-257 -600q-3 -7 -9 -7h-22q-8 0 -6 8l260 604h-326q-7 0 -7 7v19q0 7 7 7h355z" />
<glyph horiz-adv-x="578" d="M386 329q62 -10 87 -43t25 -98v-39q0 -86 -44.5 -121.5t-161.5 -35.5h-6q-117 0 -161.5 35.5t-44.5 121.5v39q0 65 25 98t87 43q-57 12 -79.5 44t-22.5 95v30q0 84 43 119.5t153 35.5h6q110 0 153 -35.5t43 -119.5v-30q0 -63 -22.5 -95t-79.5 -44zM125 468 q0 -70 33.5 -96.5t127.5 -26.5h6q94 0 127.5 26.5t33.5 96.5v30q0 69 -33.5 95.5t-127.5 26.5h-6q-94 0 -127.5 -26.5t-33.5 -95.5v-30zM463 149v39q0 71 -35 97.5t-136 26.5h-6q-101 0 -136 -26.5t-35 -97.5v-39q0 -71 35 -97.5t136 -26.5h6q101 0 136 26.5t35 97.5z" />
<glyph horiz-adv-x="571" d="M286 653q113 0 156.5 -36.5t43.5 -127.5v-333q0 -90 -43 -127t-153 -37h-6q-111 0 -154 37t-43 127v23q0 7 7 7h22q6 0 6 -7v-23q0 -75 34 -103t128 -28h6q94 0 127.5 28t33.5 103v182q-15 -38 -53 -53.5t-112 -15.5h-6q-113 0 -156.5 36.5t-43.5 127.5v56 q0 91 43.5 127.5t156.5 36.5h6zM286 301q97 0 131 28t34 104v56q0 75 -34 103t-131 28h-6q-97 0 -131 -28t-34 -103v-56q0 -76 34 -104t131 -28h6z" />
<glyph horiz-adv-x="600" d="M93 156v333q0 91 44 127.5t160 36.5h6q116 0 159.5 -36.5t43.5 -127.5v-333q0 -91 -43.5 -127.5t-159.5 -36.5h-6q-116 0 -160 36.5t-44 127.5zM128 156q0 -75 34.5 -103t134.5 -28h6q99 0 133.5 28t34.5 103v333q0 75 -34.5 103t-133.5 28h-6q-100 0 -134.5 -28 t-34.5 -103v-333z" />
<glyph horiz-adv-x="600" d="M476 33q7 0 7 -7v-19q0 -7 -7 -7h-323q-7 0 -7 7v19q0 7 7 7h156v577l-135 -70q-9 -4 -9 4v21q0 4 6 8l134 70q4 2 9 2h24q6 0 6 -7v-605h132z" />
<glyph horiz-adv-x="600" d="M263 272q-67 -15 -86 -36t-19 -78v-125h350q7 0 7 -7v-19q0 -7 -7 -7h-378q-7 0 -7 7v155q0 67 26.5 96t101.5 46l124 28q66 15 85.5 37t19.5 77v51q0 71 -32.5 97t-123.5 26h-6q-91 0 -123.5 -26.5t-32.5 -97.5v-40q0 -7 -6 -7h-22q-7 0 -7 7v40q0 85 41.5 121t149.5 36 h6q108 0 149.5 -35.5t41.5 -120.5v-51q0 -68 -26.5 -98.5t-101.5 -47.5z" />
<glyph horiz-adv-x="600" d="M399 328q59 -8 81.5 -37t22.5 -91v-51q0 -86 -42.5 -121.5t-153.5 -35.5h-6q-110 0 -152.5 35.5t-42.5 121.5v30q0 7 7 7h21q7 0 7 -7v-30q0 -71 32.5 -97.5t127.5 -26.5h6q95 0 128 26.5t33 97.5v51q0 66 -31 88.5t-130 22.5h-63q-7 0 -7 7v19q0 7 7 7h57q99 0 130 22.5 t31 88.5v41q0 72 -31.5 98t-123.5 26h-6q-92 0 -123.5 -26t-31.5 -98v-40q0 -7 -6 -7h-22q-7 0 -7 7v40q0 87 41.5 122t148.5 35h6q107 0 148.5 -35t41.5 -122v-41q0 -61 -21 -89.5t-77 -37.5z" />
<glyph horiz-adv-x="600" d="M508 199q7 0 7 -7v-18q0 -7 -7 -7h-72v-160q0 -7 -7 -7h-21q-7 0 -7 7v160h-319q-6 0 -6 7v21q0 4 3 8l319 438q3 4 8 4h23q7 0 7 -7v-439h72zM114 199h287v393z" />
<glyph horiz-adv-x="600" d="M319 370q107 0 147.5 -36t40.5 -128v-50q0 -91 -42 -127.5t-150 -36.5h-6q-108 0 -149.5 36.5t-41.5 127.5v23q0 7 7 7h21q7 0 7 -7v-23q0 -76 32.5 -103.5t123.5 -27.5h6q92 0 124.5 27.5t32.5 103.5v50q0 77 -31 104t-122 27h-164q-4 0 -9 4l-11 9q-3 2 -3 9v279 q0 7 7 7h346q6 0 6 -7v-19q0 -7 -6 -7h-318v-242h152z" />
<glyph horiz-adv-x="600" d="M314 371q114 0 157.5 -36.5t43.5 -127.5v-51q0 -91 -43.5 -127.5t-157.5 -36.5h-6q-113 0 -156.5 36.5t-43.5 127.5v333q0 90 43 127t154 37h6q111 0 153.5 -36.5t42.5 -127.5v-33q0 -7 -6 -7h-22q-7 0 -7 7v33q0 75 -33.5 103t-127.5 28h-6q-95 0 -128.5 -28t-33.5 -103 v-187q15 38 53 53.5t112 15.5h6zM480 156v51q0 75 -34.5 103t-131.5 28h-6q-97 0 -131 -28t-34 -103v-51q0 -75 34 -103t131 -28h6q97 0 131.5 28t34.5 103z" />
<glyph horiz-adv-x="600" d="M491 645q7 0 7 -7v-21q0 -6 -2 -10l-257 -600q-3 -7 -9 -7h-22q-8 0 -6 8l260 604h-326q-7 0 -7 7v19q0 7 7 7h355z" />
<glyph horiz-adv-x="600" d="M397 329q62 -10 87 -43t25 -98v-39q0 -86 -44.5 -121.5t-161.5 -35.5h-6q-117 0 -161.5 35.5t-44.5 121.5v39q0 65 25 98t87 43q-57 12 -79.5 44t-22.5 95v30q0 84 43 119.5t153 35.5h6q110 0 153 -35.5t43 -119.5v-30q0 -63 -22.5 -95t-79.5 -44zM136 468 q0 -70 33.5 -96.5t127.5 -26.5h6q94 0 127.5 26.5t33.5 96.5v30q0 69 -33.5 95.5t-127.5 26.5h-6q-94 0 -127.5 -26.5t-33.5 -95.5v-30zM474 149v39q0 71 -35 97.5t-136 26.5h-6q-101 0 -136 -26.5t-35 -97.5v-39q0 -71 35 -97.5t136 -26.5h6q101 0 136 26.5t35 97.5z" />
</font>
</defs>
</svg>
